%TF.GenerationSoftware,KiCad,Pcbnew,8.0.8*%
%TF.CreationDate,2025-01-26T18:06:38+02:00*%
%TF.ProjectId,gamma-spectrometer,67616d6d-612d-4737-9065-6374726f6d65,v0.0.4*%
%TF.SameCoordinates,Original*%
%TF.FileFunction,Paste,Bot*%
%TF.FilePolarity,Positive*%
%FSLAX46Y46*%
G04 Gerber Fmt 4.6, Leading zero omitted, Abs format (unit mm)*
G04 Created by KiCad (PCBNEW 8.0.8) date 2025-01-26 18:06:38*
%MOMM*%
%LPD*%
G01*
G04 APERTURE LIST*
G04 Aperture macros list*
%AMRoundRect*
0 Rectangle with rounded corners*
0 $1 Rounding radius*
0 $2 $3 $4 $5 $6 $7 $8 $9 X,Y pos of 4 corners*
0 Add a 4 corners polygon primitive as box body*
4,1,4,$2,$3,$4,$5,$6,$7,$8,$9,$2,$3,0*
0 Add four circle primitives for the rounded corners*
1,1,$1+$1,$2,$3*
1,1,$1+$1,$4,$5*
1,1,$1+$1,$6,$7*
1,1,$1+$1,$8,$9*
0 Add four rect primitives between the rounded corners*
20,1,$1+$1,$2,$3,$4,$5,0*
20,1,$1+$1,$4,$5,$6,$7,0*
20,1,$1+$1,$6,$7,$8,$9,0*
20,1,$1+$1,$8,$9,$2,$3,0*%
G04 Aperture macros list end*
%ADD10C,0.010000*%
%ADD11RoundRect,0.150000X-0.150000X-0.400000X0.150000X-0.400000X0.150000X0.400000X-0.150000X0.400000X0*%
%ADD12RoundRect,0.150000X-0.400000X-0.150000X0.400000X-0.150000X0.400000X0.150000X-0.400000X0.150000X0*%
G04 APERTURE END LIST*
D10*
%TO.C,U9*%
X198750000Y-84825000D02*
X196700000Y-84825000D01*
X196700000Y-83625000D01*
X198750000Y-83625000D01*
X198750000Y-84825000D01*
G36*
X198750000Y-84825000D02*
G01*
X196700000Y-84825000D01*
X196700000Y-83625000D01*
X198750000Y-83625000D01*
X198750000Y-84825000D01*
G37*
X201050000Y-82525000D02*
X199000000Y-82525000D01*
X199000000Y-81325000D01*
X201050000Y-81325000D01*
X201050000Y-82525000D01*
G36*
X201050000Y-82525000D02*
G01*
X199000000Y-82525000D01*
X199000000Y-81325000D01*
X201050000Y-81325000D01*
X201050000Y-82525000D01*
G37*
X201050000Y-85250000D02*
X199000000Y-85250000D01*
X199000000Y-83200000D01*
X201050000Y-83200000D01*
X201050000Y-85250000D01*
G36*
X201050000Y-85250000D02*
G01*
X199000000Y-85250000D01*
X199000000Y-83200000D01*
X201050000Y-83200000D01*
X201050000Y-85250000D01*
G37*
X201050000Y-87125000D02*
X199000000Y-87125000D01*
X199000000Y-85925000D01*
X201050000Y-85925000D01*
X201050000Y-87125000D01*
G36*
X201050000Y-87125000D02*
G01*
X199000000Y-87125000D01*
X199000000Y-85925000D01*
X201050000Y-85925000D01*
X201050000Y-87125000D01*
G37*
X203350000Y-84825000D02*
X201300000Y-84825000D01*
X201300000Y-83625000D01*
X203350000Y-83625000D01*
X203350000Y-84825000D01*
G36*
X203350000Y-84825000D02*
G01*
X201300000Y-84825000D01*
X201300000Y-83625000D01*
X203350000Y-83625000D01*
X203350000Y-84825000D01*
G37*
%TD*%
D11*
%TO.C,U9*%
X197175000Y-81225000D03*
D12*
X203025000Y-81375000D03*
D11*
X202875000Y-87225000D03*
D12*
X197025000Y-87075000D03*
%TD*%
M02*
