%TF.GenerationSoftware,KiCad,Pcbnew,8.0.8*%
%TF.CreationDate,2025-02-09T15:20:04+02:00*%
%TF.ProjectId,gamma-spectrometer,67616d6d-612d-4737-9065-6374726f6d65,v0.0.4*%
%TF.SameCoordinates,Original*%
%TF.FileFunction,Plated,1,2,PTH,Drill*%
%TF.FilePolarity,Positive*%
%FSLAX46Y46*%
G04 Gerber Fmt 4.6, Leading zero omitted, Abs format (unit mm)*
G04 Created by KiCad (PCBNEW 8.0.8) date 2025-02-09 15:20:04*
%MOMM*%
%LPD*%
G01*
G04 APERTURE LIST*
%TA.AperFunction,ViaDrill*%
%ADD10C,0.300000*%
%TD*%
%TA.AperFunction,ViaDrill*%
%ADD11C,0.500000*%
%TD*%
%TA.AperFunction,ComponentDrill*%
%ADD12C,0.710000*%
%TD*%
%TA.AperFunction,ComponentDrill*%
%ADD13C,0.800000*%
%TD*%
%TA.AperFunction,ComponentDrill*%
%ADD14C,1.020000*%
%TD*%
%TA.AperFunction,ViaDrill*%
%ADD15C,3.000000*%
%TD*%
G04 APERTURE END LIST*
D10*
X96200000Y-68500000D03*
X128000000Y-65500000D03*
X133720000Y-62000000D03*
X139000000Y-63000000D03*
X140900000Y-71000000D03*
X206525000Y-88225000D03*
D11*
X89500000Y-71000000D03*
X92050000Y-71000000D03*
X94550000Y-71000000D03*
D12*
%TO.C,VR2*%
X142000000Y-104000000D03*
X144540000Y-104000000D03*
X147080000Y-104000000D03*
%TO.C,VR1*%
X153700000Y-66460000D03*
X153700000Y-69000000D03*
X153700000Y-71540000D03*
D13*
%TO.C,J1*%
X97500000Y-100500000D03*
X99500000Y-100500000D03*
X101500000Y-100500000D03*
X103500000Y-100500000D03*
%TO.C,J2*%
X108000000Y-100500000D03*
X110000000Y-100500000D03*
X112000000Y-100500000D03*
X114000000Y-100500000D03*
X116000000Y-100500000D03*
X118000000Y-100500000D03*
%TO.C,J3*%
X123250000Y-69000000D03*
X123250000Y-71000000D03*
%TO.C,J4*%
X155800000Y-99450000D03*
X157800000Y-99450000D03*
%TO.C,J5*%
X195525000Y-78275000D03*
X197525000Y-78275000D03*
%TO.C,J6*%
X202025000Y-78275000D03*
X204025000Y-78275000D03*
D14*
%TO.C,U1*%
X89500000Y-77590000D03*
X89500000Y-95370000D03*
X92040000Y-77590000D03*
X92040000Y-95370000D03*
X94580000Y-77590000D03*
X94580000Y-95370000D03*
X97120000Y-77590000D03*
X97120000Y-95370000D03*
X99660000Y-77590000D03*
X99660000Y-95370000D03*
X102200000Y-77590000D03*
X102200000Y-95370000D03*
X104740000Y-77590000D03*
X104740000Y-95370000D03*
X107280000Y-77590000D03*
X107280000Y-95370000D03*
X109820000Y-77590000D03*
X109820000Y-95370000D03*
X112360000Y-77590000D03*
X112360000Y-95370000D03*
X114900000Y-77590000D03*
X114900000Y-95370000D03*
X117440000Y-77590000D03*
X117440000Y-95370000D03*
X119980000Y-77590000D03*
X119980000Y-95370000D03*
X122520000Y-77590000D03*
X122520000Y-95370000D03*
X125060000Y-77590000D03*
X125060000Y-95370000D03*
X127600000Y-77590000D03*
X127600000Y-95370000D03*
X130140000Y-77590000D03*
X130140000Y-95370000D03*
X132680000Y-77590000D03*
X132680000Y-95370000D03*
X135220000Y-77590000D03*
X135220000Y-95370000D03*
X137530000Y-83940000D03*
X137530000Y-86480000D03*
X137530000Y-89020000D03*
X137760000Y-77590000D03*
X137760000Y-95370000D03*
%TD*%
D15*
X130500000Y-62000000D03*
X130500000Y-106000000D03*
X174470000Y-62000000D03*
X174470000Y-106000000D03*
M02*
