%TF.GenerationSoftware,KiCad,Pcbnew,8.0.8*%
%TF.CreationDate,2025-03-08T00:49:35+02:00*%
%TF.ProjectId,gamma-spectrometer,67616d6d-612d-4737-9065-6374726f6d65,v0.0.4*%
%TF.SameCoordinates,Original*%
%TF.FileFunction,Copper,L1,Top*%
%TF.FilePolarity,Positive*%
%FSLAX46Y46*%
G04 Gerber Fmt 4.6, Leading zero omitted, Abs format (unit mm)*
G04 Created by KiCad (PCBNEW 8.0.8) date 2025-03-08 00:49:35*
%MOMM*%
%LPD*%
G01*
G04 APERTURE LIST*
G04 Aperture macros list*
%AMRoundRect*
0 Rectangle with rounded corners*
0 $1 Rounding radius*
0 $2 $3 $4 $5 $6 $7 $8 $9 X,Y pos of 4 corners*
0 Add a 4 corners polygon primitive as box body*
4,1,4,$2,$3,$4,$5,$6,$7,$8,$9,$2,$3,0*
0 Add four circle primitives for the rounded corners*
1,1,$1+$1,$2,$3*
1,1,$1+$1,$4,$5*
1,1,$1+$1,$6,$7*
1,1,$1+$1,$8,$9*
0 Add four rect primitives between the rounded corners*
20,1,$1+$1,$2,$3,$4,$5,0*
20,1,$1+$1,$4,$5,$6,$7,0*
20,1,$1+$1,$6,$7,$8,$9,0*
20,1,$1+$1,$8,$9,$2,$3,0*%
%AMFreePoly0*
4,1,6,1.000000,0.000000,0.500000,-0.750000,-0.500000,-0.750000,-0.500000,0.750000,0.500000,0.750000,1.000000,0.000000,1.000000,0.000000,$1*%
%AMFreePoly1*
4,1,6,0.500000,-0.750000,-0.650000,-0.750000,-0.150000,0.000000,-0.650000,0.750000,0.500000,0.750000,0.500000,-0.750000,0.500000,-0.750000,$1*%
G04 Aperture macros list end*
%TA.AperFunction,ComponentPad*%
%ADD10R,1.218000X1.218000*%
%TD*%
%TA.AperFunction,ComponentPad*%
%ADD11C,1.218000*%
%TD*%
%TA.AperFunction,SMDPad,CuDef*%
%ADD12RoundRect,0.072500X0.217500X-0.532500X0.217500X0.532500X-0.217500X0.532500X-0.217500X-0.532500X0*%
%TD*%
%TA.AperFunction,ComponentPad*%
%ADD13R,1.308000X1.308000*%
%TD*%
%TA.AperFunction,ComponentPad*%
%ADD14C,1.308000*%
%TD*%
%TA.AperFunction,SMDPad,CuDef*%
%ADD15R,0.650000X0.900000*%
%TD*%
%TA.AperFunction,SMDPad,CuDef*%
%ADD16R,0.900000X0.650000*%
%TD*%
%TA.AperFunction,SMDPad,CuDef*%
%ADD17R,1.450000X1.150000*%
%TD*%
%TA.AperFunction,SMDPad,CuDef*%
%ADD18RoundRect,0.075000X-0.540000X-0.225000X0.540000X-0.225000X0.540000X0.225000X-0.540000X0.225000X0*%
%TD*%
%TA.AperFunction,SMDPad,CuDef*%
%ADD19RoundRect,0.075000X0.260000X-0.225000X0.260000X0.225000X-0.260000X0.225000X-0.260000X-0.225000X0*%
%TD*%
%TA.AperFunction,SMDPad,CuDef*%
%ADD20RoundRect,0.108750X0.356250X-0.326250X0.356250X0.326250X-0.356250X0.326250X-0.356250X-0.326250X0*%
%TD*%
%TA.AperFunction,SMDPad,CuDef*%
%ADD21R,0.600000X0.600000*%
%TD*%
%TA.AperFunction,SMDPad,CuDef*%
%ADD22RoundRect,0.108750X0.326250X0.356250X-0.326250X0.356250X-0.326250X-0.356250X0.326250X-0.356250X0*%
%TD*%
%TA.AperFunction,SMDPad,CuDef*%
%ADD23R,1.150000X1.450000*%
%TD*%
%TA.AperFunction,SMDPad,CuDef*%
%ADD24RoundRect,0.075000X-0.225000X-0.260000X0.225000X-0.260000X0.225000X0.260000X-0.225000X0.260000X0*%
%TD*%
%TA.AperFunction,SMDPad,CuDef*%
%ADD25RoundRect,0.147500X-0.467500X-0.147500X0.467500X-0.147500X0.467500X0.147500X-0.467500X0.147500X0*%
%TD*%
%TA.AperFunction,SMDPad,CuDef*%
%ADD26R,0.870000X0.930000*%
%TD*%
%TA.AperFunction,SMDPad,CuDef*%
%ADD27RoundRect,0.075000X0.225000X0.260000X-0.225000X0.260000X-0.225000X-0.260000X0.225000X-0.260000X0*%
%TD*%
%TA.AperFunction,SMDPad,CuDef*%
%ADD28RoundRect,0.150000X-0.460000X-0.150000X0.460000X-0.150000X0.460000X0.150000X-0.460000X0.150000X0*%
%TD*%
%TA.AperFunction,SMDPad,CuDef*%
%ADD29RoundRect,0.150000X0.587500X0.150000X-0.587500X0.150000X-0.587500X-0.150000X0.587500X-0.150000X0*%
%TD*%
%TA.AperFunction,SMDPad,CuDef*%
%ADD30FreePoly0,180.000000*%
%TD*%
%TA.AperFunction,SMDPad,CuDef*%
%ADD31FreePoly1,180.000000*%
%TD*%
%TA.AperFunction,SMDPad,CuDef*%
%ADD32R,0.500000X0.500000*%
%TD*%
%TA.AperFunction,SMDPad,CuDef*%
%ADD33R,0.500000X1.580000*%
%TD*%
%TA.AperFunction,SMDPad,CuDef*%
%ADD34R,0.600000X0.550000*%
%TD*%
%TA.AperFunction,SMDPad,CuDef*%
%ADD35RoundRect,0.108750X-0.356250X0.326250X-0.356250X-0.326250X0.356250X-0.326250X0.356250X0.326250X0*%
%TD*%
%TA.AperFunction,SMDPad,CuDef*%
%ADD36RoundRect,0.108750X-0.326250X-0.356250X0.326250X-0.356250X0.326250X0.356250X-0.326250X0.356250X0*%
%TD*%
%TA.AperFunction,SMDPad,CuDef*%
%ADD37R,1.295400X3.937000*%
%TD*%
%TA.AperFunction,SMDPad,CuDef*%
%ADD38FreePoly0,90.000000*%
%TD*%
%TA.AperFunction,SMDPad,CuDef*%
%ADD39FreePoly1,90.000000*%
%TD*%
%TA.AperFunction,SMDPad,CuDef*%
%ADD40R,1.200000X3.700000*%
%TD*%
%TA.AperFunction,SMDPad,CuDef*%
%ADD41R,0.700000X0.700000*%
%TD*%
%TA.AperFunction,SMDPad,CuDef*%
%ADD42RoundRect,0.073750X-0.221250X0.531250X-0.221250X-0.531250X0.221250X-0.531250X0.221250X0.531250X0*%
%TD*%
%TA.AperFunction,ComponentPad*%
%ADD43O,1.700000X1.700000*%
%TD*%
%TA.AperFunction,SMDPad,CuDef*%
%ADD44R,1.700000X3.500000*%
%TD*%
%TA.AperFunction,ComponentPad*%
%ADD45R,1.700000X1.700000*%
%TD*%
%TA.AperFunction,SMDPad,CuDef*%
%ADD46R,3.500000X1.700000*%
%TD*%
%TA.AperFunction,SMDPad,CuDef*%
%ADD47RoundRect,0.147500X0.147500X-0.457500X0.147500X0.457500X-0.147500X0.457500X-0.147500X-0.457500X0*%
%TD*%
%TA.AperFunction,SMDPad,CuDef*%
%ADD48RoundRect,0.147500X0.467500X0.147500X-0.467500X0.147500X-0.467500X-0.147500X0.467500X-0.147500X0*%
%TD*%
%TA.AperFunction,SMDPad,CuDef*%
%ADD49RoundRect,0.150000X0.150000X-0.587500X0.150000X0.587500X-0.150000X0.587500X-0.150000X-0.587500X0*%
%TD*%
%TA.AperFunction,SMDPad,CuDef*%
%ADD50R,0.810000X0.930000*%
%TD*%
%TA.AperFunction,SMDPad,CuDef*%
%ADD51R,1.400000X1.600000*%
%TD*%
%TA.AperFunction,SMDPad,CuDef*%
%ADD52RoundRect,0.150000X-0.587500X-0.150000X0.587500X-0.150000X0.587500X0.150000X-0.587500X0.150000X0*%
%TD*%
%TA.AperFunction,SMDPad,CuDef*%
%ADD53RoundRect,0.075000X-0.225000X0.540000X-0.225000X-0.540000X0.225000X-0.540000X0.225000X0.540000X0*%
%TD*%
%TA.AperFunction,ViaPad*%
%ADD54C,0.600000*%
%TD*%
%TA.AperFunction,ViaPad*%
%ADD55C,3.500000*%
%TD*%
%TA.AperFunction,ViaPad*%
%ADD56C,1.200000*%
%TD*%
%TA.AperFunction,Conductor*%
%ADD57C,0.200000*%
%TD*%
%TA.AperFunction,Conductor*%
%ADD58C,0.400000*%
%TD*%
G04 APERTURE END LIST*
D10*
%TO.P,VR1,1,CCW*%
%TO.N,SIG*%
X116500000Y-69040000D03*
D11*
%TO.P,VR1,2,WIPER*%
X116500000Y-66500000D03*
%TO.P,VR1,3,CW*%
%TO.N,Net-(U2--IN)*%
X116500000Y-63960000D03*
%TD*%
D12*
%TO.P,U4,1,OUT*%
%TO.N,Net-(D3-A)*%
X134395000Y-70905000D03*
%TO.P,U4,2,V-*%
%TO.N,GND*%
X135345000Y-70905000D03*
%TO.P,U4,3,+IN*%
%TO.N,SIG*%
X136295000Y-70905000D03*
%TO.P,U4,4,-IN*%
%TO.N,Net-(U4--IN)*%
X136295000Y-68395000D03*
%TO.P,U4,5,EN*%
%TO.N,VCC*%
X135345000Y-68395000D03*
%TO.P,U4,6,V+*%
X134395000Y-68395000D03*
%TD*%
D13*
%TO.P,J1,1,1*%
%TO.N,SDA*%
X97500000Y-100500000D03*
D14*
%TO.P,J1,2,2*%
%TO.N,SCL*%
X99500000Y-100500000D03*
%TO.P,J1,3,3*%
%TO.N,VCC*%
X101500000Y-100500000D03*
%TO.P,J1,4,4*%
%TO.N,GND*%
X103500000Y-100500000D03*
%TD*%
D15*
%TO.P,R6,1*%
%TO.N,Net-(U2--IN)*%
X124725000Y-70500000D03*
%TO.P,R6,2*%
%TO.N,SIG*%
X123275000Y-70500000D03*
%TD*%
D16*
%TO.P,R2,1*%
%TO.N,ANODE_IN*%
X124500000Y-69225000D03*
%TO.P,R2,2*%
%TO.N,Net-(D1-COM)*%
X124500000Y-67775000D03*
%TD*%
D15*
%TO.P,R15,1*%
%TO.N,Net-(VR3-CW)*%
X151575000Y-100000000D03*
%TO.P,R15,2*%
%TO.N,Net-(D5-K)*%
X153025000Y-100000000D03*
%TD*%
D13*
%TO.P,J4,1,1*%
%TO.N,PS_OUT*%
X156500000Y-99000000D03*
D14*
%TO.P,J4,2,2*%
%TO.N,GND*%
X158500000Y-99000000D03*
%TD*%
D17*
%TO.P,C19,1*%
%TO.N,Net-(Q3-B)*%
X197025000Y-86625000D03*
%TO.P,C19,2*%
%TO.N,GND1*%
X197025000Y-84825000D03*
%TD*%
D18*
%TO.P,Q4,1,C*%
%TO.N,PS_IN*%
X202965000Y-81775000D03*
%TO.P,Q4,2,B*%
%TO.N,Net-(Q4-B)*%
X202965000Y-83675000D03*
%TO.P,Q4,3,E*%
%TO.N,Net-(Q4-E)*%
X205085000Y-82725000D03*
%TD*%
D16*
%TO.P,R5,1*%
%TO.N,GND*%
X129500000Y-67775000D03*
%TO.P,R5,2*%
%TO.N,Net-(U2--IN)*%
X129500000Y-69225000D03*
%TD*%
D19*
%TO.P,FB1,1*%
%TO.N,Net-(U1-3V3)*%
X99700000Y-70935000D03*
%TO.P,FB1,2*%
%TO.N,VCC*%
X99700000Y-70065000D03*
%TD*%
D20*
%TO.P,C21,1*%
%TO.N,GND1*%
X204525000Y-89785000D03*
%TO.P,C21,2*%
%TO.N,Net-(C21-Pad2)*%
X204525000Y-88225000D03*
%TD*%
D15*
%TO.P,R20,1*%
%TO.N,Net-(Q4-E)*%
X202800000Y-86725000D03*
%TO.P,R20,2*%
%TO.N,Net-(C21-Pad2)*%
X204250000Y-86725000D03*
%TD*%
D21*
%TO.P,D5,1,K*%
%TO.N,Net-(D5-K)*%
X152000000Y-94500000D03*
%TO.P,D5,2,A*%
%TO.N,Net-(D5-A)*%
X149800000Y-94500000D03*
%TD*%
D22*
%TO.P,C16,1*%
%TO.N,GND*%
X156080000Y-103500000D03*
%TO.P,C16,2*%
%TO.N,PS_OUT*%
X154520000Y-103500000D03*
%TD*%
D23*
%TO.P,C15,1*%
%TO.N,PS_OUT*%
X159700000Y-105500000D03*
%TO.P,C15,2*%
%TO.N,GND*%
X157900000Y-105500000D03*
%TD*%
D24*
%TO.P,FB2,1*%
%TO.N,Net-(C13-Pad1)*%
X152065000Y-102000000D03*
%TO.P,FB2,2*%
%TO.N,Net-(D5-K)*%
X152935000Y-102000000D03*
%TD*%
D25*
%TO.P,U6,1,POS*%
%TO.N,VREF1*%
X158200000Y-65500000D03*
%TO.P,U6,2,NEG*%
%TO.N,GND*%
X158200000Y-67400000D03*
%TO.P,U6,3,NC*%
%TO.N,unconnected-(U6-NC-Pad3)*%
X160320000Y-66450000D03*
%TD*%
D10*
%TO.P,VR2,1,CCW*%
%TO.N,Net-(VR2-CCW)*%
X153700000Y-66460000D03*
D11*
%TO.P,VR2,2,WIPER*%
%TO.N,Net-(U3-IN-)*%
X153700000Y-69000000D03*
%TO.P,VR2,3,CW*%
%TO.N,GND*%
X153700000Y-71540000D03*
%TD*%
D26*
%TO.P,C9,1*%
%TO.N,VCC*%
X137720000Y-65000000D03*
%TO.P,C9,2*%
%TO.N,GND*%
X139280000Y-65000000D03*
%TD*%
D15*
%TO.P,R8,1*%
%TO.N,Net-(VR2-CCW)*%
X149425000Y-66500000D03*
%TO.P,R8,2*%
%TO.N,Net-(R8-Pad2)*%
X147975000Y-66500000D03*
%TD*%
D16*
%TO.P,R4,1*%
%TO.N,ANODE_IN*%
X120000000Y-69225000D03*
%TO.P,R4,2*%
%TO.N,VREF*%
X120000000Y-67775000D03*
%TD*%
D22*
%TO.P,C10,1*%
%TO.N,GND*%
X139280000Y-66500000D03*
%TO.P,C10,2*%
%TO.N,VCC*%
X137720000Y-66500000D03*
%TD*%
D20*
%TO.P,C3,1*%
%TO.N,GND*%
X111500000Y-67280000D03*
%TO.P,C3,2*%
%TO.N,VCC*%
X111500000Y-65720000D03*
%TD*%
D15*
%TO.P,R13,1*%
%TO.N,VREF1*%
X146725000Y-64000000D03*
%TO.P,R13,2*%
%TO.N,VCC*%
X145275000Y-64000000D03*
%TD*%
D27*
%TO.P,FB3,1*%
%TO.N,Net-(U8-VCC)*%
X150935000Y-92500000D03*
%TO.P,FB3,2*%
%TO.N,+5V*%
X150065000Y-92500000D03*
%TD*%
D26*
%TO.P,C11,1*%
%TO.N,Net-(U8-VCC)*%
X144280000Y-98000000D03*
%TO.P,C11,2*%
%TO.N,GND*%
X142720000Y-98000000D03*
%TD*%
D23*
%TO.P,C13,1*%
%TO.N,Net-(C13-Pad1)*%
X152100000Y-105500000D03*
%TO.P,C13,2*%
%TO.N,GND*%
X153900000Y-105500000D03*
%TD*%
D28*
%TO.P,U8,1,PGND*%
%TO.N,GND*%
X142255000Y-94550000D03*
%TO.P,U8,2,GND*%
X142255000Y-95500000D03*
%TO.P,U8,3,FB*%
%TO.N,Net-(U8-FB)*%
X142255000Y-96450000D03*
%TO.P,U8,4,~{SHDN}*%
%TO.N,Net-(U8-VCC)*%
X144745000Y-96450000D03*
%TO.P,U8,5,VCC*%
X144745000Y-95500000D03*
%TO.P,U8,6,LX*%
%TO.N,Net-(D5-A)*%
X144745000Y-94550000D03*
%TD*%
D23*
%TO.P,C17,1*%
%TO.N,PS_IN*%
X195425000Y-82225000D03*
%TO.P,C17,2*%
%TO.N,GND1*%
X193625000Y-82225000D03*
%TD*%
D16*
%TO.P,TH1,1*%
%TO.N,PS_IN*%
X201025000Y-81575000D03*
%TO.P,TH1,2*%
%TO.N,Net-(Q4-B)*%
X201025000Y-83025000D03*
%TD*%
D29*
%TO.P,D1,1,A*%
%TO.N,GND*%
X126437500Y-65450000D03*
%TO.P,D1,2,K*%
%TO.N,VCC*%
X126437500Y-63550000D03*
%TO.P,D1,3,COM*%
%TO.N,Net-(D1-COM)*%
X124562500Y-64500000D03*
%TD*%
D30*
%TO.P,JP1,1,A*%
%TO.N,Net-(JP1-A)*%
X106610000Y-70000000D03*
D31*
%TO.P,JP1,2,B*%
%TO.N,GND*%
X105160000Y-70000000D03*
%TD*%
D16*
%TO.P,R18,1*%
%TO.N,Net-(Q3-C)*%
X201000000Y-85725000D03*
%TO.P,R18,2*%
%TO.N,Net-(Q4-B)*%
X201000000Y-84275000D03*
%TD*%
D32*
%TO.P,J3,4*%
%TO.N,GND*%
X127000000Y-67500000D03*
D33*
%TO.P,J3,3*%
X126000000Y-68500000D03*
%TO.P,J3,2*%
X128000000Y-68500000D03*
D34*
%TO.P,J3,1*%
%TO.N,ANODE_IN*%
X127000000Y-69475000D03*
%TD*%
D35*
%TO.P,C7,1*%
%TO.N,Net-(U3-IN-)*%
X148500000Y-68220000D03*
%TO.P,C7,2*%
%TO.N,GND*%
X148500000Y-69780000D03*
%TD*%
D15*
%TO.P,R10,1*%
%TO.N,Net-(D3-K)*%
X143725000Y-66000000D03*
%TO.P,R10,2*%
%TO.N,Net-(U4--IN)*%
X142275000Y-66000000D03*
%TD*%
D26*
%TO.P,C1,1*%
%TO.N,VCC*%
X99200000Y-66500000D03*
%TO.P,C1,2*%
%TO.N,GND*%
X100760000Y-66500000D03*
%TD*%
D13*
%TO.P,J2,1,1*%
%TO.N,SCK*%
X108000000Y-100500000D03*
D14*
%TO.P,J2,2,2*%
%TO.N,TX*%
X110000000Y-100500000D03*
%TO.P,J2,3,3*%
%TO.N,RX*%
X112000000Y-100500000D03*
%TO.P,J2,4,4*%
%TO.N,CS*%
X114000000Y-100500000D03*
%TO.P,J2,5,5*%
%TO.N,UART1TX*%
X116000000Y-100500000D03*
%TO.P,J2,6,6*%
%TO.N,UART1RX*%
X118000000Y-100500000D03*
%TD*%
D16*
%TO.P,R3,1*%
%TO.N,ANODE_IN*%
X121500000Y-69225000D03*
%TO.P,R3,2*%
%TO.N,VREF*%
X121500000Y-67775000D03*
%TD*%
%TO.P,R19,1*%
%TO.N,GND1*%
X197025000Y-89950000D03*
%TO.P,R19,2*%
%TO.N,Net-(Q3-E)*%
X197025000Y-88500000D03*
%TD*%
D36*
%TO.P,C5,2*%
%TO.N,VCC*%
X136060000Y-62500000D03*
%TO.P,C5,1*%
%TO.N,GND*%
X134500000Y-62500000D03*
%TD*%
D34*
%TO.P,J5,1*%
%TO.N,ANODE_OUT*%
X196500000Y-78975000D03*
D33*
%TO.P,J5,2*%
%TO.N,GND1*%
X197500000Y-78000000D03*
%TO.P,J5,3*%
X195500000Y-78000000D03*
D32*
%TO.P,J5,4*%
X196500000Y-77000000D03*
%TD*%
D26*
%TO.P,C18,1*%
%TO.N,+5V*%
X147780000Y-93000000D03*
%TO.P,C18,2*%
%TO.N,GND*%
X146220000Y-93000000D03*
%TD*%
D37*
%TO.P,LS1,1,1*%
%TO.N,+5V*%
X142596400Y-84000000D03*
%TO.P,LS1,2,2*%
%TO.N,Net-(Q2-D)*%
X149403600Y-84000000D03*
%TD*%
D15*
%TO.P,R16,1*%
%TO.N,PS_OUT*%
X153025000Y-103500000D03*
%TO.P,R16,2*%
%TO.N,Net-(C13-Pad1)*%
X151575000Y-103500000D03*
%TD*%
%TO.P,R12,1*%
%TO.N,Net-(U4--IN)*%
X141975000Y-68000000D03*
%TO.P,R12,2*%
%TO.N,Net-(Q1-D)*%
X143425000Y-68000000D03*
%TD*%
D20*
%TO.P,C22,1*%
%TO.N,GND1*%
X206525000Y-89785000D03*
%TO.P,C22,2*%
%TO.N,Net-(C22-Pad2)*%
X206525000Y-88225000D03*
%TD*%
D38*
%TO.P,JP2,1,A*%
%TO.N,Net-(JP2-A)*%
X153500000Y-77225000D03*
D39*
%TO.P,JP2,2,B*%
%TO.N,GND*%
X153500000Y-75775000D03*
%TD*%
D40*
%TO.P,L1,1*%
%TO.N,Net-(D5-A)*%
X146600000Y-98000000D03*
%TO.P,L1,2*%
%TO.N,Net-(U8-VCC)*%
X149400000Y-98000000D03*
%TD*%
D41*
%TO.P,C8,1*%
%TO.N,GND*%
X139150000Y-63500000D03*
%TO.P,C8,2*%
%TO.N,Net-(U4--IN)*%
X137850000Y-63500000D03*
%TD*%
D16*
%TO.P,R17,1*%
%TO.N,PS_IN*%
X199025000Y-82000000D03*
%TO.P,R17,2*%
%TO.N,Net-(Q4-B)*%
X199025000Y-83450000D03*
%TD*%
D26*
%TO.P,C4,2*%
%TO.N,GND*%
X134500000Y-61000000D03*
%TO.P,C4,1*%
%TO.N,VCC*%
X136060000Y-61000000D03*
%TD*%
D36*
%TO.P,C20,1*%
%TO.N,GND1*%
X199025000Y-91500000D03*
%TO.P,C20,2*%
%TO.N,Net-(Q4-E)*%
X200585000Y-91500000D03*
%TD*%
D42*
%TO.P,U9,1,IN*%
%TO.N,PS_IN*%
X194975000Y-84470000D03*
%TO.P,U9,2,NC*%
%TO.N,unconnected-(U9-NC-Pad2)*%
X194025000Y-84470000D03*
%TO.P,U9,3,GND*%
%TO.N,GND1*%
X193075000Y-84470000D03*
%TO.P,U9,4,GND*%
X193075000Y-86980000D03*
%TO.P,U9,5,OUT*%
%TO.N,Net-(Q3-B)*%
X194975000Y-86980000D03*
%TD*%
D43*
%TO.P,U1,1,GPIO0*%
%TO.N,SCK*%
X89500000Y-92780000D03*
D44*
X89500000Y-93680000D03*
D43*
%TO.P,U1,2,GPIO1*%
%TO.N,TX*%
X92040000Y-92780000D03*
D44*
X92040000Y-93680000D03*
D45*
%TO.P,U1,3,GND*%
%TO.N,GND*%
X94580000Y-92780000D03*
D44*
X94580000Y-93680000D03*
D43*
%TO.P,U1,4,GPIO2*%
%TO.N,SDA*%
X97120000Y-92780000D03*
D44*
X97120000Y-93680000D03*
D43*
%TO.P,U1,5,GPIO3*%
%TO.N,SCL*%
X99660000Y-92780000D03*
D44*
X99660000Y-93680000D03*
D43*
%TO.P,U1,6,GPIO4*%
%TO.N,RX*%
X102200000Y-92780000D03*
D44*
X102200000Y-93680000D03*
D43*
%TO.P,U1,7,GPIO5*%
%TO.N,CS*%
X104740000Y-92780000D03*
D44*
X104740000Y-93680000D03*
D45*
%TO.P,U1,8,GND*%
%TO.N,GND*%
X107280000Y-92780000D03*
D44*
X107280000Y-93680000D03*
D43*
%TO.P,U1,9,GPIO6*%
%TO.N,unconnected-(U1-GPIO6-Pad9)*%
X109820000Y-92780000D03*
D44*
%TO.N,unconnected-(U1-GPIO6-Pad9)_1*%
X109820000Y-93680000D03*
D43*
%TO.P,U1,10,GPIO7*%
%TO.N,TCKR*%
X112360000Y-92780000D03*
D44*
X112360000Y-93680000D03*
D43*
%TO.P,U1,11,GPIO8*%
%TO.N,UART1TX*%
X114900000Y-92780000D03*
D44*
X114900000Y-93680000D03*
D43*
%TO.P,U1,12,GPIO9*%
%TO.N,UART1RX*%
X117440000Y-92780000D03*
D44*
X117440000Y-93680000D03*
D45*
%TO.P,U1,13,GND*%
%TO.N,GND*%
X119980000Y-92780000D03*
D44*
X119980000Y-93680000D03*
D43*
%TO.P,U1,14,GPIO10*%
%TO.N,unconnected-(U1-GPIO10-Pad14)_1*%
X122520000Y-92780000D03*
D44*
%TO.N,unconnected-(U1-GPIO10-Pad14)*%
X122520000Y-93680000D03*
D43*
%TO.P,U1,15,GPIO11*%
%TO.N,unconnected-(U1-GPIO11-Pad15)_1*%
X125060000Y-92780000D03*
D44*
%TO.N,unconnected-(U1-GPIO11-Pad15)*%
X125060000Y-93680000D03*
D43*
%TO.P,U1,16,GPIO12*%
%TO.N,unconnected-(U1-GPIO12-Pad16)_1*%
X127600000Y-92780000D03*
D44*
%TO.N,unconnected-(U1-GPIO12-Pad16)*%
X127600000Y-93680000D03*
D43*
%TO.P,U1,17,GPIO13*%
%TO.N,unconnected-(U1-GPIO13-Pad17)*%
X130140000Y-92780000D03*
D44*
%TO.N,unconnected-(U1-GPIO13-Pad17)_1*%
X130140000Y-93680000D03*
D45*
%TO.P,U1,18,GND*%
%TO.N,GND*%
X132680000Y-92780000D03*
D44*
X132680000Y-93680000D03*
D43*
%TO.P,U1,19,GPIO14*%
%TO.N,Net-(U1-GPIO14)*%
X135220000Y-92780000D03*
D44*
X135220000Y-93680000D03*
D43*
%TO.P,U1,20,GPIO15*%
%TO.N,unconnected-(U1-GPIO15-Pad20)_1*%
X137760000Y-92780000D03*
D44*
%TO.N,unconnected-(U1-GPIO15-Pad20)*%
X137760000Y-93680000D03*
D43*
%TO.P,U1,21,GPIO16*%
%TO.N,unconnected-(U1-GPIO16-Pad21)*%
X137760000Y-75000000D03*
D44*
%TO.N,unconnected-(U1-GPIO16-Pad21)_1*%
X137760000Y-74100000D03*
D43*
%TO.P,U1,22,GPIO17*%
%TO.N,unconnected-(U1-GPIO17-Pad22)*%
X135220000Y-75000000D03*
D44*
%TO.N,unconnected-(U1-GPIO17-Pad22)_1*%
X135220000Y-74100000D03*
D45*
%TO.P,U1,23,GND*%
%TO.N,GND*%
X132680000Y-75000000D03*
D44*
X132680000Y-74100000D03*
D43*
%TO.P,U1,24,GPIO18*%
%TO.N,INT*%
X130140000Y-75000000D03*
D44*
X130140000Y-74100000D03*
D43*
%TO.P,U1,25,GPIO19*%
%TO.N,unconnected-(U1-GPIO19-Pad25)*%
X127600000Y-75000000D03*
D44*
%TO.N,unconnected-(U1-GPIO19-Pad25)_1*%
X127600000Y-74100000D03*
D43*
%TO.P,U1,26,GPIO20*%
%TO.N,unconnected-(U1-GPIO20-Pad26)*%
X125060000Y-75000000D03*
D44*
%TO.N,unconnected-(U1-GPIO20-Pad26)_1*%
X125060000Y-74100000D03*
D43*
%TO.P,U1,27,GPIO21*%
%TO.N,unconnected-(U1-GPIO21-Pad27)_1*%
X122520000Y-75000000D03*
D44*
%TO.N,unconnected-(U1-GPIO21-Pad27)*%
X122520000Y-74100000D03*
D45*
%TO.P,U1,28,GND*%
%TO.N,GND*%
X119980000Y-75000000D03*
D44*
X119980000Y-74100000D03*
D43*
%TO.P,U1,29,GPIO22*%
%TO.N,RST*%
X117440000Y-75000000D03*
D44*
X117440000Y-74100000D03*
D43*
%TO.P,U1,30,RUN*%
%TO.N,unconnected-(U1-RUN-Pad30)_1*%
X114900000Y-75000000D03*
D44*
%TO.N,unconnected-(U1-RUN-Pad30)*%
X114900000Y-74100000D03*
D43*
%TO.P,U1,31,GPIO26_ADC0*%
%TO.N,SIG*%
X112360000Y-75000000D03*
D44*
X112360000Y-74100000D03*
D43*
%TO.P,U1,32,GPIO27_ADC1*%
%TO.N,PEAK*%
X109820000Y-75000000D03*
D44*
X109820000Y-74100000D03*
D45*
%TO.P,U1,33,AGND*%
%TO.N,Net-(JP1-A)*%
X107280000Y-75000000D03*
D44*
X107280000Y-74100000D03*
D43*
%TO.P,U1,34,GPIO28_ADC2*%
%TO.N,GND*%
X104740000Y-75000000D03*
D44*
X104740000Y-74100000D03*
D43*
%TO.P,U1,35,ADC_VREF*%
%TO.N,VREF*%
X102200000Y-75000000D03*
D44*
X102200000Y-74100000D03*
D43*
%TO.P,U1,36,3V3*%
%TO.N,Net-(U1-3V3)*%
X99660000Y-75000000D03*
D44*
X99660000Y-74100000D03*
D43*
%TO.P,U1,37,3V3_EN*%
%TO.N,unconnected-(U1-3V3_EN-Pad37)_1*%
X97120000Y-75000000D03*
D44*
%TO.N,unconnected-(U1-3V3_EN-Pad37)*%
X97120000Y-74100000D03*
D45*
%TO.P,U1,38,GND*%
%TO.N,GND*%
X94580000Y-75000000D03*
D44*
X94580000Y-74100000D03*
D43*
%TO.P,U1,39,VSYS*%
%TO.N,+5V*%
X92040000Y-75000000D03*
D44*
X92040000Y-74100000D03*
D43*
%TO.P,U1,40,VBUS*%
%TO.N,unconnected-(U1-VBUS-Pad40)*%
X89500000Y-75000000D03*
D44*
X89500000Y-74100000D03*
D43*
%TO.P,U1,41,SWCLK*%
%TO.N,unconnected-(U1-SWCLK-Pad41)_1*%
X137530000Y-86430000D03*
D46*
%TO.N,unconnected-(U1-SWCLK-Pad41)*%
X138430000Y-86430000D03*
D45*
%TO.P,U1,42,GND*%
%TO.N,GND*%
X137530000Y-83890000D03*
D46*
X138430000Y-83890000D03*
D43*
%TO.P,U1,43,SWDIO*%
%TO.N,unconnected-(U1-SWDIO-Pad43)_1*%
X137530000Y-81350000D03*
D46*
%TO.N,unconnected-(U1-SWDIO-Pad43)*%
X138430000Y-81350000D03*
%TD*%
D10*
%TO.P,VR3,1,CCW*%
%TO.N,Net-(U8-FB)*%
X142000000Y-104000000D03*
D11*
%TO.P,VR3,2,WIPER*%
X144540000Y-104000000D03*
%TO.P,VR3,3,CW*%
%TO.N,Net-(VR3-CW)*%
X147080000Y-104000000D03*
%TD*%
D47*
%TO.P,U3,1,OUT*%
%TO.N,INT*%
X131100000Y-70905000D03*
%TO.P,U3,2,GND*%
%TO.N,GND*%
X132050000Y-70905000D03*
%TO.P,U3,3,IN+*%
%TO.N,SIG*%
X133000000Y-70905000D03*
%TO.P,U3,4,IN-*%
%TO.N,Net-(U3-IN-)*%
X133000000Y-68395000D03*
%TO.P,U3,5,VCC*%
%TO.N,VCC*%
X131100000Y-68395000D03*
%TD*%
D48*
%TO.P,U7,1,POS*%
%TO.N,VREF*%
X110260000Y-69950000D03*
%TO.P,U7,2,NEG*%
%TO.N,GND*%
X110260000Y-68050000D03*
%TO.P,U7,3,NC*%
%TO.N,unconnected-(U7-NC-Pad3)*%
X108140000Y-69000000D03*
%TD*%
D16*
%TO.P,R1,1*%
%TO.N,GND*%
X123000000Y-67775000D03*
%TO.P,R1,2*%
%TO.N,ANODE_IN*%
X123000000Y-69225000D03*
%TD*%
D12*
%TO.P,U2,6,V+*%
%TO.N,VCC*%
X120550000Y-63245000D03*
%TO.P,U2,5,EN*%
X121500000Y-63245000D03*
%TO.P,U2,4,-IN*%
%TO.N,Net-(U2--IN)*%
X122450000Y-63245000D03*
%TO.P,U2,3,+IN*%
%TO.N,Net-(D1-COM)*%
X122450000Y-65755000D03*
%TO.P,U2,2,V-*%
%TO.N,GND*%
X121500000Y-65755000D03*
%TO.P,U2,1,OUT*%
%TO.N,SIG*%
X120550000Y-65755000D03*
%TD*%
D15*
%TO.P,R9,1*%
%TO.N,VREF1*%
X147975000Y-65000000D03*
%TO.P,R9,2*%
%TO.N,Net-(R8-Pad2)*%
X149425000Y-65000000D03*
%TD*%
D49*
%TO.P,D3,1,A*%
%TO.N,Net-(D3-A)*%
X143050000Y-74437500D03*
%TO.P,D3,2,K*%
%TO.N,Net-(D3-K)*%
X144950000Y-74437500D03*
%TO.P,D3,3,COM*%
%TO.N,Net-(D3-COM)*%
X144000000Y-72562500D03*
%TD*%
D13*
%TO.P,J6,1,1*%
%TO.N,PS_IN*%
X204025000Y-78275000D03*
D14*
%TO.P,J6,2,2*%
%TO.N,GND1*%
X202025000Y-78275000D03*
%TD*%
D50*
%TO.P,D2,A*%
%TO.N,Net-(D2-PadA)*%
X143190000Y-78000000D03*
%TO.P,D2,C*%
%TO.N,Net-(JP2-A)*%
X144810000Y-78000000D03*
%TD*%
D23*
%TO.P,C14,1*%
%TO.N,PS_OUT*%
X159700000Y-103500000D03*
%TO.P,C14,2*%
%TO.N,GND*%
X157900000Y-103500000D03*
%TD*%
D16*
%TO.P,R14,1*%
%TO.N,GND*%
X140000000Y-95775000D03*
%TO.P,R14,2*%
%TO.N,Net-(U8-FB)*%
X140000000Y-97225000D03*
%TD*%
D51*
%TO.P,SW1,1,1*%
%TO.N,Net-(U1-GPIO14)*%
X137500000Y-106100000D03*
%TO.P,SW1,2,2*%
X137500000Y-98900000D03*
%TO.P,SW1,3,3*%
%TO.N,GND*%
X134500000Y-106100000D03*
%TO.P,SW1,4,4*%
X134500000Y-98900000D03*
%TD*%
D16*
%TO.P,R21,1*%
%TO.N,Net-(C21-Pad2)*%
X206525000Y-85500000D03*
%TO.P,R21,2*%
%TO.N,Net-(C22-Pad2)*%
X206525000Y-86950000D03*
%TD*%
D15*
%TO.P,R7,1*%
%TO.N,Net-(D2-PadA)*%
X141725000Y-78000000D03*
%TO.P,R7,2*%
%TO.N,INT*%
X140275000Y-78000000D03*
%TD*%
D12*
%TO.P,U5,1,OUT*%
%TO.N,PEAK*%
X138050000Y-71010000D03*
%TO.P,U5,2,V-*%
%TO.N,GND*%
X139000000Y-71010000D03*
%TO.P,U5,3,+IN*%
%TO.N,Net-(U4--IN)*%
X139950000Y-71010000D03*
%TO.P,U5,4,-IN*%
%TO.N,PEAK*%
X139950000Y-68500000D03*
%TO.P,U5,5,EN*%
%TO.N,VCC*%
X139000000Y-68500000D03*
%TO.P,U5,6,V+*%
X138050000Y-68500000D03*
%TD*%
D35*
%TO.P,C6,1*%
%TO.N,GND*%
X134000000Y-64220000D03*
%TO.P,C6,2*%
%TO.N,VCC*%
X134000000Y-65780000D03*
%TD*%
D52*
%TO.P,Q1,1,G*%
%TO.N,RST*%
X141062500Y-62050000D03*
%TO.P,Q1,2,S*%
%TO.N,GND*%
X141062500Y-63950000D03*
%TO.P,Q1,3,D*%
%TO.N,Net-(Q1-D)*%
X142937500Y-63000000D03*
%TD*%
D23*
%TO.P,C12,1*%
%TO.N,Net-(D5-K)*%
X155000000Y-95000000D03*
%TO.P,C12,2*%
%TO.N,GND*%
X156800000Y-95000000D03*
%TD*%
D49*
%TO.P,Q2,1,G*%
%TO.N,TCKR*%
X145550000Y-90937500D03*
%TO.P,Q2,2,S*%
%TO.N,GND*%
X147450000Y-90937500D03*
%TO.P,Q2,3,D*%
%TO.N,Net-(Q2-D)*%
X146500000Y-89062500D03*
%TD*%
D53*
%TO.P,Q3,1,C*%
%TO.N,Net-(Q3-C)*%
X200975000Y-87440000D03*
%TO.P,Q3,2,B*%
%TO.N,Net-(Q3-B)*%
X199075000Y-87440000D03*
%TO.P,Q3,3,E*%
%TO.N,Net-(Q3-E)*%
X200025000Y-89560000D03*
%TD*%
D26*
%TO.P,C2,1*%
%TO.N,VCC*%
X99200000Y-68500000D03*
%TO.P,C2,2*%
%TO.N,GND*%
X100760000Y-68500000D03*
%TD*%
D15*
%TO.P,R11,1*%
%TO.N,Net-(D3-COM)*%
X143725000Y-70500000D03*
%TO.P,R11,2*%
%TO.N,PEAK*%
X142275000Y-70500000D03*
%TD*%
D54*
%TO.N,VREF*%
X120000000Y-67775000D03*
X112000000Y-70000000D03*
X112000000Y-70000000D03*
D55*
%TO.N,*%
X174470000Y-62000000D03*
X174470000Y-106000000D03*
X130500000Y-62000000D03*
X130500000Y-106000000D03*
D56*
%TO.N,unconnected-(U1-VBUS-Pad40)*%
X89500000Y-71000000D03*
D54*
%TO.N,GND*%
X129500000Y-67775000D03*
X141000000Y-69000000D03*
D56*
X94550000Y-71000000D03*
D54*
X134500000Y-61000000D03*
D56*
%TO.N,+5V*%
X92050000Y-71000000D03*
D54*
%TO.N,RST*%
X141062500Y-62050000D03*
%TO.N,VCC*%
X96200000Y-68500000D03*
%TO.N,Net-(C22-Pad2)*%
X206525000Y-88225000D03*
%TO.N,ANODE_OUT*%
X196500000Y-80000000D03*
%TD*%
D57*
%TO.N,SIG*%
X119000000Y-71500000D02*
X116500000Y-71500000D01*
X122775000Y-71000000D02*
X119500000Y-71000000D01*
X119500000Y-71000000D02*
X119000000Y-71500000D01*
X123275000Y-70500000D02*
X122775000Y-71000000D01*
X112360000Y-72140000D02*
X112360000Y-75090000D01*
X113000000Y-71500000D02*
X112360000Y-72140000D01*
X116500000Y-71500000D02*
X113000000Y-71500000D01*
%TO.N,Net-(U4--IN)*%
X136500000Y-64850000D02*
X136500000Y-68190000D01*
X140152792Y-63202792D02*
X139450000Y-62500000D01*
X138850000Y-62500000D02*
X136500000Y-64850000D01*
X141693344Y-63202792D02*
X140152792Y-63202792D01*
X136500000Y-68190000D02*
X136295000Y-68395000D01*
X142275000Y-63784448D02*
X141693344Y-63202792D01*
X139450000Y-62500000D02*
X138850000Y-62500000D01*
X142275000Y-66000000D02*
X142275000Y-63784448D01*
D58*
%TO.N,VCC*%
X135395000Y-65105000D02*
X135395000Y-64397893D01*
X134720000Y-65780000D02*
X135395000Y-65105000D01*
X136060000Y-63732893D02*
X136060000Y-61000000D01*
X134000000Y-65780000D02*
X134720000Y-65780000D01*
X135395000Y-64397893D02*
X136060000Y-63732893D01*
D57*
%TO.N,Net-(U3-IN-)*%
X147899657Y-68220000D02*
X148500000Y-68220000D01*
X143715552Y-62400000D02*
X144362500Y-63046948D01*
X141840552Y-62650000D02*
X142090552Y-62400000D01*
X140284448Y-62650000D02*
X141840552Y-62650000D01*
X137500000Y-62000000D02*
X139634448Y-62000000D01*
X142090552Y-62400000D02*
X143715552Y-62400000D01*
X137000000Y-62500000D02*
X137500000Y-62000000D01*
X137000000Y-63500000D02*
X137000000Y-62500000D01*
X135895000Y-64605000D02*
X137000000Y-63500000D01*
X135895000Y-66500000D02*
X135895000Y-64605000D01*
X144362500Y-63046948D02*
X144362500Y-64682843D01*
X134895000Y-66500000D02*
X135895000Y-66500000D01*
X139634448Y-62000000D02*
X140284448Y-62650000D01*
X144362500Y-64682843D02*
X147899657Y-68220000D01*
X133000000Y-68395000D02*
X134895000Y-66500000D01*
%TO.N,GND*%
X134000000Y-63000000D02*
X134000000Y-64220000D01*
X134500000Y-62500000D02*
X134000000Y-63000000D01*
D58*
%TO.N,VCC*%
X131780000Y-66280000D02*
X133500000Y-66280000D01*
X133500000Y-66280000D02*
X134000000Y-65780000D01*
X131000000Y-65500000D02*
X131780000Y-66280000D01*
D57*
%TO.N,Net-(Q1-D)*%
X143000000Y-63425000D02*
X142800000Y-63225000D01*
X143000000Y-67575000D02*
X143000000Y-63425000D01*
X143425000Y-68000000D02*
X143000000Y-67575000D01*
D58*
%TO.N,VCC*%
X129000000Y-65500000D02*
X131000000Y-65500000D01*
X127050000Y-63550000D02*
X129000000Y-65500000D01*
X126437500Y-63550000D02*
X127050000Y-63550000D01*
D57*
X131100000Y-65600000D02*
X131100000Y-68395000D01*
X131000000Y-65500000D02*
X131100000Y-65600000D01*
%TO.N,Net-(U2--IN)*%
X130250000Y-68475000D02*
X129500000Y-69225000D01*
X130000000Y-66500000D02*
X130250000Y-66750000D01*
X130250000Y-66750000D02*
X130250000Y-68475000D01*
X124745000Y-63245000D02*
X126000000Y-64500000D01*
X127000000Y-64500000D02*
X129000000Y-66500000D01*
X123450000Y-63245000D02*
X124745000Y-63245000D01*
X126000000Y-64500000D02*
X127000000Y-64500000D01*
X129000000Y-66500000D02*
X130000000Y-66500000D01*
%TO.N,GND*%
X128725000Y-67775000D02*
X128000000Y-68500000D01*
X129500000Y-67775000D02*
X128725000Y-67775000D01*
%TO.N,Net-(U2--IN)*%
X128275000Y-70500000D02*
X124725000Y-70500000D01*
X129500000Y-69275000D02*
X128275000Y-70500000D01*
X129500000Y-69225000D02*
X129500000Y-69275000D01*
%TO.N,SIG*%
X124025000Y-71250000D02*
X123275000Y-70500000D01*
X129881526Y-70881526D02*
X129513052Y-71250000D01*
X129513052Y-71250000D02*
X124025000Y-71250000D01*
D58*
%TO.N,VCC*%
X124387500Y-61500000D02*
X126437500Y-63550000D01*
X121500000Y-61500000D02*
X124387500Y-61500000D01*
D57*
%TO.N,GND*%
X127000000Y-66012500D02*
X126437500Y-65450000D01*
X127000000Y-67500000D02*
X127000000Y-66012500D01*
%TO.N,Net-(D1-COM)*%
X124562500Y-64642500D02*
X124562500Y-64500000D01*
X123450000Y-65755000D02*
X124562500Y-64642500D01*
X122450000Y-65755000D02*
X123450000Y-65755000D01*
%TO.N,GND*%
X121500000Y-66275000D02*
X121500000Y-65755000D01*
X123000000Y-67775000D02*
X121500000Y-66275000D01*
%TO.N,SIG*%
X120550000Y-65755000D02*
X119745000Y-65755000D01*
%TO.N,Net-(U2--IN)*%
X123450000Y-63245000D02*
X122450000Y-63245000D01*
%TO.N,VCC*%
X120550000Y-61550000D02*
X120500000Y-61500000D01*
X120550000Y-63245000D02*
X120550000Y-61550000D01*
X121500000Y-63245000D02*
X120550000Y-63245000D01*
%TO.N,Net-(U3-IN-)*%
X152920000Y-68220000D02*
X153700000Y-69000000D01*
X148500000Y-68220000D02*
X152920000Y-68220000D01*
%TO.N,VREF1*%
X147725000Y-65000000D02*
X146725000Y-64000000D01*
X147975000Y-65000000D02*
X147725000Y-65000000D01*
%TO.N,Net-(U4--IN)*%
X141880000Y-69080000D02*
X141880000Y-68985000D01*
X139950000Y-71010000D02*
X141880000Y-69080000D01*
X141880000Y-68095000D02*
X141880000Y-69000000D01*
X141975000Y-68000000D02*
X141880000Y-68095000D01*
X141975000Y-66525000D02*
X141975000Y-68000000D01*
X142275000Y-66225000D02*
X141975000Y-66525000D01*
X142275000Y-66000000D02*
X142275000Y-66225000D01*
%TO.N,GND*%
X140342500Y-66257500D02*
X140342500Y-65000000D01*
X140100000Y-66500000D02*
X140342500Y-66257500D01*
X140100000Y-66500000D02*
X139280000Y-66500000D01*
X141000000Y-67400000D02*
X140100000Y-66500000D01*
X141000000Y-69000000D02*
X141000000Y-67400000D01*
%TO.N,VCC*%
X137720000Y-67040000D02*
X137720000Y-65000000D01*
X138050000Y-68500000D02*
X138050000Y-67370000D01*
X138050000Y-67370000D02*
X137720000Y-67040000D01*
%TO.N,GND*%
X139280000Y-65000000D02*
X140342500Y-65000000D01*
X139362500Y-63500000D02*
X140342500Y-64480000D01*
X139150000Y-63500000D02*
X139362500Y-63500000D01*
%TO.N,Net-(U2--IN)*%
X123450000Y-63849999D02*
X123450000Y-63245000D01*
X122799999Y-64500000D02*
X123450000Y-63849999D01*
X119500000Y-64500000D02*
X122799999Y-64500000D01*
X116500000Y-63960000D02*
X118960000Y-63960000D01*
X118960000Y-63960000D02*
X119500000Y-64500000D01*
%TO.N,SIG*%
X119000000Y-66500000D02*
X116500000Y-66500000D01*
X119745000Y-65755000D02*
X119000000Y-66500000D01*
X116500000Y-69040000D02*
X116500000Y-71500000D01*
%TO.N,VREF*%
X110260000Y-69950000D02*
X111950000Y-69950000D01*
X111950000Y-69950000D02*
X112000000Y-70000000D01*
%TO.N,SIG*%
X116500000Y-66500000D02*
X116500000Y-69040000D01*
%TO.N,VCC*%
X121550000Y-61550000D02*
X121500000Y-61500000D01*
X121550000Y-63245000D02*
X121550000Y-61550000D01*
D58*
X121000000Y-61500000D02*
X121500000Y-61500000D01*
D57*
%TO.N,GND*%
X128000000Y-67510000D02*
X128000000Y-68500000D01*
X127990000Y-67500000D02*
X128000000Y-67510000D01*
X127000000Y-67500000D02*
X127990000Y-67500000D01*
X126398578Y-67500000D02*
X127000000Y-67500000D01*
X126000000Y-67898578D02*
X126398578Y-67500000D01*
X126000000Y-68500000D02*
X126000000Y-67898578D01*
X123725000Y-68500000D02*
X123000000Y-67775000D01*
X126000000Y-68500000D02*
X123725000Y-68500000D01*
%TO.N,Net-(D1-COM)*%
X124500000Y-66805000D02*
X123450000Y-65755000D01*
X124500000Y-67775000D02*
X124500000Y-66805000D01*
%TO.N,VREF*%
X120000000Y-67775000D02*
X121500000Y-67775000D01*
%TO.N,ANODE_IN*%
X120000000Y-69225000D02*
X121500000Y-69225000D01*
X121500000Y-69225000D02*
X123000000Y-69225000D01*
X126885000Y-69590000D02*
X127000000Y-69475000D01*
X124500000Y-69225000D02*
X124865000Y-69590000D01*
X124865000Y-69590000D02*
X126885000Y-69590000D01*
D58*
%TO.N,GND*%
X110730000Y-68050000D02*
X111500000Y-67280000D01*
X110260000Y-68050000D02*
X110730000Y-68050000D01*
%TO.N,VCC*%
X120500000Y-61500000D02*
X121000000Y-61500000D01*
X119500000Y-61500000D02*
X120500000Y-61500000D01*
X117500000Y-61500000D02*
X119500000Y-61500000D01*
D57*
X119550000Y-61550000D02*
X119500000Y-61500000D01*
%TO.N,ANODE_IN*%
X123000000Y-69225000D02*
X124500000Y-69225000D01*
D58*
%TO.N,VCC*%
X114500000Y-61500000D02*
X117500000Y-61500000D01*
X114200000Y-65020000D02*
X114200000Y-61800000D01*
X113925000Y-65295000D02*
X114200000Y-65020000D01*
X100405000Y-65295000D02*
X113925000Y-65295000D01*
X99200000Y-66500000D02*
X100405000Y-65295000D01*
X114200000Y-61800000D02*
X114500000Y-61500000D01*
D57*
X117437500Y-61562500D02*
X117500000Y-61500000D01*
D58*
%TO.N,unconnected-(U1-VBUS-Pad40)*%
X89500000Y-75090000D02*
X89500000Y-71200000D01*
D57*
X89500000Y-71200000D02*
X89700000Y-71000000D01*
%TO.N,GND*%
X134021198Y-70000000D02*
X135044999Y-70000000D01*
X157900000Y-105500000D02*
X157900000Y-103500000D01*
X133198896Y-71948052D02*
X133805000Y-71341948D01*
X143500000Y-96000000D02*
X143000000Y-95500000D01*
X132680000Y-92820000D02*
X134500000Y-91000000D01*
X135345000Y-70300001D02*
X135345000Y-70905000D01*
X161300000Y-106500000D02*
X161300000Y-101000000D01*
X149500000Y-71540000D02*
X153500000Y-71540000D01*
X135044999Y-70000000D02*
X135345000Y-70300001D01*
X134500000Y-91000000D02*
X138500000Y-91000000D01*
X161300000Y-101000000D02*
X159300000Y-99000000D01*
X146220000Y-93000000D02*
X146220000Y-92167500D01*
X140532500Y-64480000D02*
X140342500Y-64480000D01*
X141062500Y-63950000D02*
X140532500Y-64480000D01*
X146220000Y-93000000D02*
X143000000Y-93000000D01*
X140500000Y-93000000D02*
X140500000Y-94775000D01*
X133805000Y-70216198D02*
X134021198Y-70000000D01*
X132680000Y-72000000D02*
X132050000Y-71370000D01*
X156160000Y-71540000D02*
X153700000Y-71540000D01*
X139457844Y-69947157D02*
X140052843Y-69947157D01*
X158200000Y-67400000D02*
X158200000Y-69500000D01*
X148500000Y-71500000D02*
X148540000Y-71540000D01*
X140000000Y-95275000D02*
X140500000Y-94775000D01*
X158200000Y-69500000D02*
X156160000Y-71540000D01*
X139000000Y-70405001D02*
X139457844Y-69947157D01*
X153900000Y-105500000D02*
X154080000Y-105500000D01*
D58*
X100760000Y-68500000D02*
X100760000Y-66500000D01*
D57*
X148500000Y-69780000D02*
X148500000Y-71500000D01*
X140052843Y-69947157D02*
X141000000Y-69000000D01*
X94580000Y-71120000D02*
X94700000Y-71000000D01*
D58*
X104740000Y-68090000D02*
X104700000Y-68050000D01*
D57*
X138500000Y-91000000D02*
X140500000Y-93000000D01*
X160300000Y-107500000D02*
X161300000Y-106500000D01*
X133805000Y-71341948D02*
X133805000Y-70216198D01*
X132150000Y-70613052D02*
X132150000Y-70905000D01*
D58*
X94580000Y-75090000D02*
X94580000Y-71120000D01*
D57*
X132680000Y-97080000D02*
X132680000Y-94320000D01*
X148540000Y-71540000D02*
X149500000Y-71540000D01*
X157900000Y-103500000D02*
X156080000Y-103500000D01*
X146220000Y-92167500D02*
X147450000Y-90937500D01*
X132680000Y-71948052D02*
X133198896Y-71948052D01*
X158500000Y-99000000D02*
X158500000Y-96700000D01*
X134500000Y-106100000D02*
X134500000Y-98900000D01*
D58*
X104740000Y-75090000D02*
X104740000Y-68090000D01*
D57*
X142255000Y-94550000D02*
X141755000Y-94550000D01*
X143000000Y-93000000D02*
X142255000Y-93745000D01*
X132050000Y-71370000D02*
X132050000Y-70905000D01*
X142255000Y-93745000D02*
X142255000Y-94550000D01*
X143000000Y-95500000D02*
X142255000Y-95500000D01*
D58*
X103000000Y-68500000D02*
X100760000Y-68500000D01*
X110260000Y-68050000D02*
X103450000Y-68050000D01*
D57*
X143500000Y-97220000D02*
X143500000Y-96000000D01*
X140500000Y-94775000D02*
X142255000Y-94775000D01*
X142720000Y-98000000D02*
X143500000Y-97220000D01*
X154080000Y-105500000D02*
X156080000Y-103500000D01*
X134500000Y-98900000D02*
X132680000Y-97080000D01*
X158500000Y-96700000D02*
X156800000Y-95000000D01*
X153500000Y-71540000D02*
X153500000Y-75775000D01*
X140000000Y-95775000D02*
X140000000Y-95275000D01*
X139000000Y-71010000D02*
X139000000Y-70405001D01*
D58*
X103450000Y-68050000D02*
X103000000Y-68500000D01*
D57*
X159300000Y-99000000D02*
X158500000Y-99000000D01*
X157900000Y-105500000D02*
X157900000Y-106600000D01*
X132680000Y-75090000D02*
X132680000Y-72000000D01*
X158800000Y-107500000D02*
X160300000Y-107500000D01*
X157900000Y-106600000D02*
X158800000Y-107500000D01*
X149500000Y-71540000D02*
X153700000Y-71540000D01*
X142255000Y-94775000D02*
X142255000Y-95500000D01*
X140342500Y-64480000D02*
X140342500Y-65000000D01*
%TO.N,+5V*%
X109500000Y-89000000D02*
X142596400Y-89000000D01*
X151000000Y-90500000D02*
X150065000Y-91435000D01*
X150500000Y-80500000D02*
X151000000Y-81000000D01*
X93500000Y-76550000D02*
X93500000Y-79159365D01*
D58*
X92040000Y-75090000D02*
X92040000Y-71160000D01*
D57*
X93500000Y-79159365D02*
X97840635Y-83500000D01*
X143096400Y-80500000D02*
X150500000Y-80500000D01*
X150065000Y-91435000D02*
X150065000Y-92500000D01*
X142596400Y-89000000D02*
X142596400Y-84000000D01*
X92040000Y-75090000D02*
X93500000Y-76550000D01*
X142596400Y-84000000D02*
X142596400Y-81000000D01*
X142596400Y-81000000D02*
X143096400Y-80500000D01*
X151000000Y-81000000D02*
X151000000Y-90500000D01*
X104000000Y-83500000D02*
X109500000Y-89000000D01*
X149565000Y-93000000D02*
X150065000Y-92500000D01*
X147780000Y-93000000D02*
X149565000Y-93000000D01*
X97840635Y-83500000D02*
X104000000Y-83500000D01*
X92040000Y-71160000D02*
X92200000Y-71000000D01*
%TO.N,TX*%
X107000000Y-99000000D02*
X109000000Y-99000000D01*
X109000000Y-99000000D02*
X110000000Y-100000000D01*
X104000000Y-102000000D02*
X107000000Y-99000000D01*
X94500000Y-102000000D02*
X104000000Y-102000000D01*
X92040000Y-99540000D02*
X94500000Y-102000000D01*
X92040000Y-92780000D02*
X92040000Y-99540000D01*
X110000000Y-100000000D02*
X110000000Y-100500000D01*
%TO.N,SCL*%
X99500000Y-100500000D02*
X99500000Y-100000000D01*
X99660000Y-99840000D02*
X99660000Y-92780000D01*
X99500000Y-100000000D02*
X99660000Y-99840000D01*
%TO.N,UART1RX*%
X117440000Y-99940000D02*
X118000000Y-100500000D01*
X117440000Y-95370000D02*
X117440000Y-99940000D01*
%TO.N,INT*%
X131000000Y-78000000D02*
X140275000Y-78000000D01*
X130140000Y-77140000D02*
X131000000Y-78000000D01*
X130140000Y-71865000D02*
X130140000Y-77140000D01*
X131100000Y-70905000D02*
X130140000Y-71865000D01*
%TO.N,SDA*%
X97500000Y-93160000D02*
X97120000Y-92780000D01*
X97500000Y-100500000D02*
X97500000Y-93160000D01*
D58*
%TO.N,Net-(JP1-A)*%
X107160000Y-70550000D02*
X106610000Y-70000000D01*
X107160000Y-74970000D02*
X107160000Y-70550000D01*
X107280000Y-75090000D02*
X107160000Y-74970000D01*
D57*
%TO.N,TCKR*%
X138500000Y-90000000D02*
X114000000Y-90000000D01*
X112360000Y-91640000D02*
X112360000Y-92870000D01*
X114000000Y-90000000D02*
X112360000Y-91640000D01*
X145487500Y-91000000D02*
X139500000Y-91000000D01*
X145550000Y-90937500D02*
X145487500Y-91000000D01*
X139500000Y-91000000D02*
X138500000Y-90000000D01*
%TO.N,PEAK*%
X109820000Y-75090000D02*
X109820000Y-78820000D01*
X139950000Y-68828802D02*
X139950000Y-68500000D01*
X142100000Y-72500000D02*
X142100000Y-72000000D01*
X138050000Y-71010000D02*
X138050000Y-70405001D01*
X109820000Y-78820000D02*
X110500000Y-79500000D01*
X142100000Y-70675000D02*
X142275000Y-70500000D01*
X139211198Y-72500000D02*
X142100000Y-72500000D01*
X138050000Y-70405001D02*
X139050001Y-69405000D01*
X138050000Y-71010000D02*
X138050000Y-71338802D01*
X142100000Y-72000000D02*
X142100000Y-70675000D01*
X139373802Y-69405000D02*
X139950000Y-68828802D01*
X138050000Y-71338802D02*
X139211198Y-72500000D01*
X143395000Y-79500000D02*
X143895000Y-79000000D01*
X143895000Y-79000000D02*
X143895000Y-73904448D01*
X139050001Y-69405000D02*
X139373802Y-69405000D01*
X142490552Y-72500000D02*
X142100000Y-72500000D01*
X110500000Y-79500000D02*
X143395000Y-79500000D01*
X143895000Y-73904448D02*
X142490552Y-72500000D01*
%TO.N,SCK*%
X89500000Y-100000000D02*
X92500000Y-103000000D01*
X105500000Y-103000000D02*
X108000000Y-100500000D01*
X89500000Y-92780000D02*
X89500000Y-100000000D01*
X92500000Y-103000000D02*
X105500000Y-103000000D01*
%TO.N,UART1TX*%
X116000000Y-99500000D02*
X116000000Y-100500000D01*
X114900000Y-95370000D02*
X114900000Y-98400000D01*
X114900000Y-98400000D02*
X116000000Y-99500000D01*
%TO.N,SIG*%
X135318802Y-69600000D02*
X136295000Y-70576198D01*
X129763052Y-71000000D02*
X130763052Y-70000000D01*
X133000000Y-70000000D02*
X133000000Y-70905000D01*
X133000000Y-70000000D02*
X133455512Y-70000000D01*
X130763052Y-70000000D02*
X133000000Y-70000000D01*
X133855512Y-69600000D02*
X135318802Y-69600000D01*
X133455512Y-70000000D02*
X133855512Y-69600000D01*
X136295000Y-70576198D02*
X136295000Y-70905000D01*
%TO.N,VREF*%
X102200000Y-78700000D02*
X103000000Y-79500000D01*
X103000000Y-79500000D02*
X107670000Y-79500000D01*
X108500000Y-78670000D02*
X108500000Y-70500000D01*
X102200000Y-75090000D02*
X102200000Y-78700000D01*
X108500000Y-70500000D02*
X109050000Y-69950000D01*
X109050000Y-69950000D02*
X110260000Y-69950000D01*
X107670000Y-79500000D02*
X108500000Y-78670000D01*
D58*
%TO.N,Net-(U1-3V3)*%
X99660000Y-75090000D02*
X99700000Y-75050000D01*
X99700000Y-75050000D02*
X99700000Y-70935000D01*
%TO.N,VCC*%
X99700000Y-70065000D02*
X99700000Y-69000000D01*
D57*
X136345001Y-70000000D02*
X137805000Y-70000000D01*
X138050000Y-69755000D02*
X137805000Y-70000000D01*
X135345000Y-68395000D02*
X135345000Y-68999999D01*
X135345000Y-68999999D02*
X136345001Y-70000000D01*
X134395000Y-68395000D02*
X133490000Y-69300000D01*
D58*
X99200000Y-68500000D02*
X99200000Y-66500000D01*
X99700000Y-69000000D02*
X99200000Y-68500000D01*
D57*
X132005000Y-69300000D02*
X131100000Y-68395000D01*
X138050000Y-68500000D02*
X139000000Y-68500000D01*
X138050000Y-68500000D02*
X138050000Y-69755000D01*
X135345000Y-68395000D02*
X134395000Y-68395000D01*
X133490000Y-69300000D02*
X132005000Y-69300000D01*
X96200000Y-68500000D02*
X99200000Y-68500000D01*
%TO.N,Net-(D2-PadA)*%
X141725000Y-78000000D02*
X143190000Y-78000000D01*
%TO.N,Net-(D3-A)*%
X134000000Y-72000000D02*
X134395000Y-71605000D01*
X134000000Y-76170000D02*
X134000000Y-72000000D01*
X141962500Y-74437500D02*
X139400000Y-77000000D01*
X134830000Y-77000000D02*
X134000000Y-76170000D01*
X134395000Y-71605000D02*
X134395000Y-70905000D01*
X143050000Y-74437500D02*
X141962500Y-74437500D01*
X139400000Y-77000000D02*
X134830000Y-77000000D01*
%TO.N,Net-(D3-K)*%
X145000000Y-67575000D02*
X143425000Y-66000000D01*
X145000000Y-74387500D02*
X145000000Y-67575000D01*
X144950000Y-74437500D02*
X145000000Y-74387500D01*
%TO.N,Net-(D3-COM)*%
X143725000Y-70500000D02*
X143725000Y-72287500D01*
X143725000Y-72287500D02*
X144000000Y-72562500D01*
%TO.N,Net-(Q1-D)*%
X143162500Y-63225000D02*
X142937500Y-63000000D01*
%TO.N,Net-(R8-Pad2)*%
X147925000Y-66500000D02*
X149425000Y-65000000D01*
%TO.N,Net-(VR2-CCW)*%
X149465000Y-66460000D02*
X153700000Y-66460000D01*
X149425000Y-66500000D02*
X149465000Y-66460000D01*
%TO.N,VREF1*%
X155200000Y-63500000D02*
X157200000Y-65500000D01*
X157200000Y-65500000D02*
X158200000Y-65500000D01*
X147975000Y-63525000D02*
X148000000Y-63500000D01*
X148000000Y-63500000D02*
X155200000Y-63500000D01*
X147975000Y-65000000D02*
X147975000Y-63525000D01*
%TO.N,Net-(U1-GPIO14)*%
X137500000Y-98900000D02*
X135220000Y-96620000D01*
X135220000Y-96620000D02*
X135220000Y-95370000D01*
X137500000Y-106100000D02*
X137500000Y-98900000D01*
%TO.N,Net-(JP2-A)*%
X152725000Y-78000000D02*
X153500000Y-77225000D01*
X144810000Y-78000000D02*
X152725000Y-78000000D01*
%TO.N,Net-(U8-FB)*%
X141500000Y-98955000D02*
X141500000Y-103500000D01*
X142000000Y-104000000D02*
X144540000Y-104000000D01*
X141500000Y-96450000D02*
X142255000Y-96450000D01*
X141500000Y-99500000D02*
X141500000Y-96450000D01*
X140000000Y-97225000D02*
X140225000Y-97000000D01*
X140225000Y-97000000D02*
X141500000Y-97000000D01*
X141500000Y-103500000D02*
X142000000Y-104000000D01*
%TO.N,Net-(D5-A)*%
X148000000Y-94550000D02*
X149750000Y-94550000D01*
X146600000Y-98000000D02*
X146600000Y-94650000D01*
X149800000Y-94500000D02*
X149600000Y-94500000D01*
X144745000Y-94550000D02*
X144945000Y-94350000D01*
X144745000Y-94550000D02*
X148000000Y-94550000D01*
X149750000Y-94550000D02*
X149800000Y-94500000D01*
X144245000Y-94550000D02*
X145045552Y-94550000D01*
%TO.N,Net-(D5-K)*%
X153025000Y-100000000D02*
X153525000Y-99500000D01*
X153525000Y-99500000D02*
X153525000Y-97975000D01*
X152935000Y-102000000D02*
X152935000Y-100090000D01*
X155000000Y-96500000D02*
X155000000Y-95000000D01*
X152500000Y-95000000D02*
X152000000Y-94500000D01*
X155000000Y-95000000D02*
X152500000Y-95000000D01*
X152935000Y-100090000D02*
X153025000Y-100000000D01*
X153525000Y-97975000D02*
X155000000Y-96500000D01*
%TO.N,Net-(C13-Pad1)*%
X151575000Y-104975000D02*
X151575000Y-103500000D01*
X151575000Y-102490000D02*
X151575000Y-103500000D01*
X152100000Y-105500000D02*
X151575000Y-104975000D01*
X152065000Y-102000000D02*
X151575000Y-102490000D01*
%TO.N,Net-(VR3-CW)*%
X151080000Y-100000000D02*
X151575000Y-100000000D01*
X149040000Y-102040000D02*
X151080000Y-100000000D01*
X147080000Y-104000000D02*
X149080000Y-102000000D01*
%TO.N,PS_OUT*%
X155800000Y-100975000D02*
X156500000Y-100975000D01*
X154520000Y-103500000D02*
X154520000Y-101780000D01*
X159700000Y-101900000D02*
X158775000Y-100975000D01*
X159700000Y-105500000D02*
X159700000Y-103500000D01*
X159700000Y-103500000D02*
X159700000Y-101900000D01*
X154520000Y-101780000D02*
X155325000Y-100975000D01*
X156500000Y-100975000D02*
X156500000Y-99000000D01*
X155325000Y-100975000D02*
X155800000Y-100975000D01*
X158775000Y-100975000D02*
X155800000Y-100975000D01*
X153025000Y-103500000D02*
X154520000Y-103500000D01*
%TO.N,PS_IN*%
X200300000Y-82000000D02*
X200525000Y-81775000D01*
X202965000Y-81775000D02*
X204025000Y-80715000D01*
X204025000Y-80715000D02*
X204025000Y-78275000D01*
X195650000Y-82000000D02*
X195425000Y-82225000D01*
X199025000Y-82000000D02*
X200300000Y-82000000D01*
X194975000Y-82675000D02*
X194975000Y-84470000D01*
X199025000Y-82000000D02*
X195650000Y-82000000D01*
X200525000Y-81775000D02*
X202965000Y-81775000D01*
X195425000Y-82225000D02*
X194975000Y-82675000D01*
%TO.N,GND1*%
X201750000Y-78000000D02*
X202025000Y-78275000D01*
X196125000Y-85725000D02*
X197025000Y-84825000D01*
X193075000Y-84470000D02*
X193075000Y-82775000D01*
X199025000Y-91500000D02*
X200025000Y-92500000D01*
X193750000Y-89950000D02*
X197025000Y-89950000D01*
X197250000Y-89950000D02*
X198800000Y-91500000D01*
X193075000Y-89275000D02*
X193750000Y-89950000D01*
X193075000Y-85725000D02*
X196125000Y-85725000D01*
X203250000Y-92500000D02*
X204525000Y-91225000D01*
X193075000Y-85725000D02*
X193075000Y-86980000D01*
X196425000Y-84420000D02*
X196475000Y-84470000D01*
X193075000Y-84470000D02*
X193075000Y-85725000D01*
X193075000Y-82775000D02*
X193625000Y-82225000D01*
X204525000Y-91225000D02*
X204525000Y-89785000D01*
X200025000Y-92500000D02*
X203250000Y-92500000D01*
X204525000Y-89785000D02*
X206525000Y-89785000D01*
X199025000Y-91225000D02*
X199025000Y-91500000D01*
X198800000Y-91500000D02*
X199025000Y-91500000D01*
X193075000Y-86980000D02*
X193075000Y-89275000D01*
X197025000Y-89950000D02*
X197250000Y-89950000D01*
%TO.N,Net-(Q4-E)*%
X200585000Y-91500000D02*
X201500000Y-91500000D01*
X202800000Y-90200000D02*
X202800000Y-86725000D01*
X202800000Y-86200000D02*
X205085000Y-83915000D01*
X202800000Y-86725000D02*
X202800000Y-86200000D01*
X205085000Y-83915000D02*
X205085000Y-82725000D01*
X201500000Y-91500000D02*
X202800000Y-90200000D01*
%TO.N,Net-(C21-Pad2)*%
X204912500Y-86725000D02*
X206137500Y-85500000D01*
X206137500Y-85500000D02*
X206525000Y-85500000D01*
X204525000Y-87000000D02*
X204250000Y-86725000D01*
X204250000Y-86725000D02*
X204912500Y-86725000D01*
X204525000Y-88225000D02*
X204525000Y-87000000D01*
%TO.N,Net-(C22-Pad2)*%
X206525000Y-88225000D02*
X206525000Y-86950000D01*
%TO.N,Net-(Q3-E)*%
X197025000Y-88500000D02*
X198085000Y-89560000D01*
X198085000Y-89560000D02*
X200025000Y-89560000D01*
%TO.N,Net-(Q3-B)*%
X195330000Y-86625000D02*
X197025000Y-86625000D01*
X197025000Y-86625000D02*
X198260000Y-86625000D01*
X194975000Y-86980000D02*
X195330000Y-86625000D01*
X198260000Y-86625000D02*
X199075000Y-87440000D01*
%TO.N,Net-(Q3-C)*%
X200975000Y-87440000D02*
X200975000Y-85750000D01*
X200975000Y-85750000D02*
X201000000Y-85725000D01*
%TO.N,Net-(Q4-B)*%
X201025000Y-84250000D02*
X201025000Y-83025000D01*
X201000000Y-84275000D02*
X202365000Y-84275000D01*
X201000000Y-84275000D02*
X201025000Y-84250000D01*
X202365000Y-84275000D02*
X202965000Y-83675000D01*
X199850000Y-84275000D02*
X201000000Y-84275000D01*
X199025000Y-83450000D02*
X199850000Y-84275000D01*
%TO.N,ANODE_OUT*%
X196550000Y-78975000D02*
X196500000Y-79025000D01*
X196500000Y-80000000D02*
X196500000Y-78975000D01*
X196500000Y-79025000D02*
X196500000Y-80000000D01*
%TO.N,Net-(U8-VCC)*%
X144280000Y-96915000D02*
X144745000Y-96450000D01*
X149400000Y-100500000D02*
X145000000Y-100500000D01*
X150935000Y-97565000D02*
X150500000Y-98000000D01*
X144745000Y-96450000D02*
X145050000Y-96450000D01*
X150500000Y-98000000D02*
X149400000Y-98000000D01*
X144280000Y-99780000D02*
X144280000Y-98000000D01*
X145000000Y-100500000D02*
X144280000Y-99780000D01*
X144745000Y-96435000D02*
X144745000Y-95500000D01*
X144280000Y-98000000D02*
X144280000Y-96915000D01*
X150935000Y-92500000D02*
X150935000Y-97565000D01*
X149400000Y-98000000D02*
X149400000Y-100500000D01*
X144730000Y-96450000D02*
X144745000Y-96435000D01*
%TO.N,Net-(Q2-D)*%
X146500000Y-89062500D02*
X148783900Y-89062500D01*
X149403600Y-88442800D02*
X149403600Y-84000000D01*
X148783900Y-89062500D02*
X149403600Y-88442800D01*
%TO.N,GND*%
X134500000Y-61000000D02*
X134500000Y-62500000D01*
D58*
%TO.N,VCC*%
X145000000Y-61000000D02*
X135780000Y-61000000D01*
X145250000Y-61250000D02*
X145000000Y-61000000D01*
X145250000Y-62250000D02*
X145250000Y-61250000D01*
X145275000Y-62275000D02*
X145250000Y-62250000D01*
X145275000Y-64000000D02*
X145275000Y-62275000D01*
%TD*%
%TA.AperFunction,Conductor*%
%TO.N,GND1*%
G36*
X200686726Y-73245494D02*
G01*
X200694158Y-73245943D01*
X201349750Y-73305518D01*
X201357183Y-73306420D01*
X202007956Y-73405466D01*
X202015317Y-73406815D01*
X202658923Y-73544973D01*
X202666176Y-73546760D01*
X203300304Y-73723537D01*
X203307431Y-73725758D01*
X203929696Y-73940488D01*
X203936680Y-73943137D01*
X204544862Y-74195054D01*
X204551670Y-74198118D01*
X205143520Y-74486292D01*
X205150137Y-74489765D01*
X205723501Y-74813142D01*
X205729910Y-74817017D01*
X206282708Y-75174426D01*
X206288853Y-75178667D01*
X206819066Y-75568806D01*
X206824961Y-75573424D01*
X207330660Y-75994871D01*
X207336243Y-75999817D01*
X207530381Y-76182567D01*
X207815557Y-76451016D01*
X207820853Y-76456312D01*
X208106443Y-76759697D01*
X208272050Y-76935624D01*
X208277000Y-76941211D01*
X208431759Y-77126908D01*
X208698444Y-77446907D01*
X208703063Y-77452803D01*
X209093197Y-77983009D01*
X209097443Y-77989161D01*
X209454852Y-78541959D01*
X209458727Y-78548368D01*
X209782096Y-79121716D01*
X209785577Y-79128349D01*
X210073746Y-79720188D01*
X210076820Y-79727018D01*
X210328728Y-80335179D01*
X210331384Y-80342183D01*
X210546107Y-80964426D01*
X210548336Y-80971577D01*
X210725106Y-81605683D01*
X210726898Y-81612956D01*
X210865053Y-82256549D01*
X210866403Y-82263916D01*
X210965448Y-82914684D01*
X210966351Y-82922120D01*
X211025924Y-83577688D01*
X211026376Y-83585165D01*
X211046257Y-84243125D01*
X211046257Y-84250615D01*
X211026376Y-84908574D01*
X211025924Y-84916051D01*
X210966351Y-85571619D01*
X210965448Y-85579055D01*
X210866403Y-86229823D01*
X210865053Y-86237190D01*
X210726898Y-86880783D01*
X210725106Y-86888056D01*
X210548336Y-87522162D01*
X210546107Y-87529313D01*
X210331384Y-88151556D01*
X210328728Y-88158560D01*
X210076820Y-88766721D01*
X210073746Y-88773551D01*
X209785577Y-89365390D01*
X209782096Y-89372023D01*
X209458727Y-89945371D01*
X209454852Y-89951780D01*
X209097443Y-90504578D01*
X209093188Y-90510743D01*
X208703063Y-91040936D01*
X208698444Y-91046832D01*
X208277009Y-91552518D01*
X208272041Y-91558125D01*
X207820853Y-92037427D01*
X207815557Y-92042723D01*
X207336255Y-92493911D01*
X207330648Y-92498879D01*
X206824962Y-92920314D01*
X206819066Y-92924933D01*
X206288873Y-93315058D01*
X206282708Y-93319313D01*
X205729910Y-93676722D01*
X205723501Y-93680597D01*
X205150153Y-94003966D01*
X205143520Y-94007447D01*
X204551681Y-94295616D01*
X204544851Y-94298690D01*
X203936690Y-94550598D01*
X203929686Y-94553254D01*
X203307443Y-94767977D01*
X203300292Y-94770206D01*
X202666186Y-94946976D01*
X202658913Y-94948768D01*
X202015320Y-95086923D01*
X202007953Y-95088273D01*
X201357185Y-95187318D01*
X201349749Y-95188221D01*
X200694181Y-95247794D01*
X200686704Y-95248246D01*
X200028745Y-95268127D01*
X200021255Y-95268127D01*
X199363295Y-95248246D01*
X199355818Y-95247794D01*
X198700250Y-95188221D01*
X198692814Y-95187318D01*
X198042046Y-95088273D01*
X198034679Y-95086923D01*
X197391086Y-94948768D01*
X197383813Y-94946976D01*
X196749707Y-94770206D01*
X196742556Y-94767977D01*
X196120313Y-94553254D01*
X196113309Y-94550598D01*
X195505148Y-94298690D01*
X195498318Y-94295616D01*
X194906479Y-94007447D01*
X194899846Y-94003966D01*
X194326498Y-93680597D01*
X194320089Y-93676722D01*
X193767291Y-93319313D01*
X193761139Y-93315067D01*
X193230933Y-92924933D01*
X193225037Y-92920314D01*
X193101634Y-92817471D01*
X192719341Y-92498870D01*
X192713754Y-92493920D01*
X192537827Y-92328313D01*
X192234442Y-92042723D01*
X192229146Y-92037427D01*
X191960697Y-91752251D01*
X191777947Y-91558113D01*
X191773001Y-91552530D01*
X191351554Y-91046831D01*
X191346936Y-91040936D01*
X191202407Y-90844516D01*
X190956797Y-90510723D01*
X190952556Y-90504578D01*
X190595147Y-89951780D01*
X190591272Y-89945371D01*
X190370289Y-89553558D01*
X190267895Y-89372007D01*
X190264422Y-89365390D01*
X190241878Y-89319089D01*
X189976248Y-88773540D01*
X189973179Y-88766721D01*
X189957872Y-88729767D01*
X189721267Y-88158550D01*
X189718615Y-88151556D01*
X189710186Y-88127129D01*
X189503888Y-87529301D01*
X189501663Y-87522162D01*
X189500833Y-87519186D01*
X189324890Y-86888046D01*
X189323101Y-86880783D01*
X189319130Y-86862286D01*
X189184945Y-86237187D01*
X189183596Y-86229823D01*
X189173817Y-86165574D01*
X189084550Y-85579053D01*
X189083648Y-85571619D01*
X189082658Y-85560720D01*
X189024073Y-84916028D01*
X189023624Y-84908596D01*
X189003742Y-84250609D01*
X189003742Y-84243125D01*
X189007083Y-84132547D01*
X189014076Y-83901105D01*
X193229500Y-83901105D01*
X193229500Y-85038888D01*
X193244279Y-85151151D01*
X193244282Y-85151162D01*
X193302142Y-85290850D01*
X193302143Y-85290852D01*
X193302144Y-85290853D01*
X193394190Y-85410810D01*
X193514147Y-85502856D01*
X193653841Y-85560719D01*
X193766113Y-85575500D01*
X194283886Y-85575499D01*
X194396159Y-85560719D01*
X194452547Y-85537361D01*
X194522013Y-85529892D01*
X194547453Y-85537362D01*
X194603836Y-85560717D01*
X194603839Y-85560718D01*
X194603841Y-85560719D01*
X194716113Y-85575500D01*
X195233886Y-85575499D01*
X195233888Y-85575499D01*
X195346151Y-85560720D01*
X195346150Y-85560720D01*
X195346159Y-85560719D01*
X195485853Y-85502856D01*
X195605810Y-85410810D01*
X195697856Y-85290853D01*
X195755719Y-85151159D01*
X195770500Y-85038887D01*
X195770499Y-83901114D01*
X195768046Y-83882483D01*
X195755720Y-83788848D01*
X195755719Y-83788847D01*
X195755719Y-83788841D01*
X195708358Y-83674500D01*
X195697856Y-83649146D01*
X195693792Y-83642107D01*
X195695151Y-83641322D01*
X195673305Y-83584820D01*
X195687341Y-83516375D01*
X195736154Y-83466384D01*
X195796875Y-83450499D01*
X196047871Y-83450499D01*
X196047872Y-83450499D01*
X196107483Y-83444091D01*
X196242331Y-83393796D01*
X196357546Y-83307546D01*
X196443796Y-83192331D01*
X196494091Y-83057483D01*
X196500500Y-82997873D01*
X196500500Y-82724500D01*
X196520185Y-82657461D01*
X196572989Y-82611706D01*
X196624500Y-82600500D01*
X198093965Y-82600500D01*
X198161004Y-82620185D01*
X198193260Y-82650227D01*
X198193634Y-82650727D01*
X198218026Y-82716201D01*
X198203149Y-82784468D01*
X198193606Y-82799311D01*
X198131203Y-82882669D01*
X198131202Y-82882671D01*
X198080910Y-83017513D01*
X198080909Y-83017517D01*
X198074500Y-83077127D01*
X198074500Y-83077134D01*
X198074500Y-83077135D01*
X198074500Y-83822870D01*
X198074501Y-83822876D01*
X198080908Y-83882483D01*
X198131202Y-84017328D01*
X198131206Y-84017335D01*
X198217452Y-84132544D01*
X198217455Y-84132547D01*
X198332664Y-84218793D01*
X198332671Y-84218797D01*
X198377618Y-84235561D01*
X198467517Y-84269091D01*
X198527127Y-84275500D01*
X198949902Y-84275499D01*
X199016941Y-84295183D01*
X199037583Y-84311818D01*
X199365139Y-84639374D01*
X199365149Y-84639385D01*
X199369479Y-84643715D01*
X199369480Y-84643716D01*
X199481284Y-84755520D01*
X199568095Y-84805639D01*
X199568097Y-84805641D01*
X199618213Y-84834576D01*
X199618215Y-84834577D01*
X199770942Y-84875500D01*
X199770943Y-84875500D01*
X200068965Y-84875500D01*
X200136004Y-84895185D01*
X200168260Y-84925227D01*
X200168634Y-84925727D01*
X200193026Y-84991201D01*
X200178149Y-85059468D01*
X200168606Y-85074311D01*
X200106203Y-85157669D01*
X200106202Y-85157671D01*
X200055910Y-85292513D01*
X200055909Y-85292517D01*
X200049500Y-85352127D01*
X200049500Y-85352134D01*
X200049500Y-85352135D01*
X200049500Y-86097870D01*
X200049501Y-86097876D01*
X200055908Y-86157483D01*
X200106202Y-86292328D01*
X200106206Y-86292335D01*
X200192452Y-86407544D01*
X200192453Y-86407545D01*
X200192454Y-86407546D01*
X200225392Y-86432203D01*
X200267264Y-86488136D01*
X200272248Y-86557828D01*
X200249461Y-86606952D01*
X200247302Y-86609765D01*
X200189313Y-86749763D01*
X200189313Y-86749764D01*
X200174500Y-86862272D01*
X200174500Y-88017727D01*
X200189313Y-88130235D01*
X200189314Y-88130239D01*
X200248467Y-88273048D01*
X200255936Y-88342517D01*
X200224661Y-88404996D01*
X200164572Y-88440648D01*
X200133906Y-88444500D01*
X199916094Y-88444500D01*
X199849055Y-88424815D01*
X199803300Y-88372011D01*
X199793356Y-88302853D01*
X199801533Y-88273048D01*
X199835452Y-88191157D01*
X199860687Y-88130236D01*
X199875500Y-88017720D01*
X199875500Y-86862280D01*
X199860687Y-86749764D01*
X199802698Y-86609767D01*
X199710451Y-86489549D01*
X199590233Y-86397302D01*
X199590229Y-86397300D01*
X199526801Y-86371027D01*
X199450236Y-86339313D01*
X199436171Y-86337461D01*
X199337727Y-86324500D01*
X199337720Y-86324500D01*
X198860097Y-86324500D01*
X198793058Y-86304815D01*
X198772416Y-86288181D01*
X198747590Y-86263355D01*
X198747588Y-86263352D01*
X198628717Y-86144481D01*
X198628709Y-86144475D01*
X198540789Y-86093715D01*
X198540788Y-86093715D01*
X198520077Y-86081757D01*
X198491785Y-86065423D01*
X198339057Y-86024499D01*
X198339054Y-86024499D01*
X198331206Y-86022396D01*
X198331996Y-86019447D01*
X198281362Y-85997034D01*
X198245283Y-85945712D01*
X198193797Y-85807671D01*
X198193793Y-85807664D01*
X198107547Y-85692455D01*
X198107544Y-85692452D01*
X197992335Y-85606206D01*
X197992328Y-85606202D01*
X197857482Y-85555908D01*
X197857483Y-85555908D01*
X197797883Y-85549501D01*
X197797881Y-85549500D01*
X197797873Y-85549500D01*
X197797864Y-85549500D01*
X196252129Y-85549500D01*
X196252123Y-85549501D01*
X196192516Y-85555908D01*
X196057671Y-85606202D01*
X196057664Y-85606206D01*
X195942455Y-85692452D01*
X195942452Y-85692455D01*
X195856206Y-85807664D01*
X195856202Y-85807671D01*
X195805418Y-85943833D01*
X195763547Y-85999767D01*
X195698083Y-86024184D01*
X195689236Y-86024500D01*
X195628758Y-86024500D01*
X195561719Y-86004815D01*
X195553272Y-85998876D01*
X195485852Y-85947143D01*
X195485853Y-85947143D01*
X195346162Y-85889282D01*
X195346160Y-85889281D01*
X195346159Y-85889281D01*
X195233887Y-85874500D01*
X194716111Y-85874500D01*
X194603848Y-85889279D01*
X194603837Y-85889282D01*
X194464149Y-85947142D01*
X194344190Y-86039190D01*
X194252142Y-86159149D01*
X194194282Y-86298837D01*
X194194281Y-86298841D01*
X194179500Y-86411105D01*
X194179500Y-87548888D01*
X194194279Y-87661151D01*
X194194282Y-87661162D01*
X194252142Y-87800850D01*
X194252143Y-87800852D01*
X194252144Y-87800853D01*
X194344190Y-87920810D01*
X194464147Y-88012856D01*
X194464148Y-88012856D01*
X194464149Y-88012857D01*
X194510711Y-88032143D01*
X194603841Y-88070719D01*
X194716113Y-88085500D01*
X195233886Y-88085499D01*
X195233888Y-88085499D01*
X195346151Y-88070720D01*
X195346150Y-88070720D01*
X195346159Y-88070719D01*
X195485853Y-88012856D01*
X195605810Y-87920810D01*
X195697856Y-87800853D01*
X195755719Y-87661159D01*
X195757236Y-87649634D01*
X195785502Y-87585738D01*
X195843826Y-87547266D01*
X195913691Y-87546434D01*
X195954483Y-87566551D01*
X196046380Y-87635345D01*
X196057668Y-87643795D01*
X196057671Y-87643797D01*
X196129000Y-87670401D01*
X196184934Y-87712272D01*
X196209351Y-87777736D01*
X196194500Y-87846009D01*
X196184934Y-87860893D01*
X196131206Y-87932665D01*
X196131202Y-87932671D01*
X196099479Y-88017727D01*
X196080909Y-88067517D01*
X196074500Y-88127127D01*
X196074500Y-88127134D01*
X196074500Y-88127135D01*
X196074500Y-88872870D01*
X196074501Y-88872876D01*
X196080908Y-88932483D01*
X196131202Y-89067328D01*
X196131206Y-89067335D01*
X196217452Y-89182544D01*
X196217455Y-89182547D01*
X196332664Y-89268793D01*
X196332671Y-89268797D01*
X196377618Y-89285561D01*
X196467517Y-89319091D01*
X196527127Y-89325500D01*
X196949902Y-89325499D01*
X197016941Y-89345183D01*
X197037583Y-89361818D01*
X197600139Y-89924374D01*
X197600149Y-89924385D01*
X197604479Y-89928715D01*
X197604480Y-89928716D01*
X197716284Y-90040520D01*
X197716286Y-90040521D01*
X197716290Y-90040524D01*
X197842394Y-90113329D01*
X197853216Y-90119577D01*
X197965019Y-90149534D01*
X198005942Y-90160500D01*
X198005943Y-90160500D01*
X199120120Y-90160500D01*
X199187159Y-90180185D01*
X199232914Y-90232989D01*
X199237811Y-90246610D01*
X199239313Y-90250235D01*
X199239313Y-90250236D01*
X199297302Y-90390233D01*
X199389549Y-90510451D01*
X199509767Y-90602698D01*
X199649764Y-90660687D01*
X199649770Y-90660687D01*
X199653253Y-90661621D01*
X199655869Y-90663215D01*
X199657273Y-90663797D01*
X199657182Y-90664015D01*
X199712915Y-90697984D01*
X199743446Y-90760831D01*
X199735153Y-90830206D01*
X199727896Y-90844516D01*
X199695164Y-90899864D01*
X199695162Y-90899869D01*
X199652218Y-91047680D01*
X199652217Y-91047686D01*
X199649500Y-91082215D01*
X199649500Y-91917764D01*
X199649501Y-91917789D01*
X199652218Y-91952315D01*
X199695162Y-92100130D01*
X199695163Y-92100133D01*
X199695164Y-92100135D01*
X199703184Y-92113696D01*
X199773519Y-92232627D01*
X199773526Y-92232636D01*
X199882363Y-92341473D01*
X199882367Y-92341476D01*
X199882369Y-92341478D01*
X200014865Y-92419836D01*
X200053847Y-92431161D01*
X200162680Y-92462781D01*
X200162683Y-92462781D01*
X200162685Y-92462782D01*
X200197223Y-92465500D01*
X200972776Y-92465499D01*
X201007315Y-92462782D01*
X201155135Y-92419836D01*
X201287631Y-92341478D01*
X201396478Y-92232631D01*
X201438616Y-92161379D01*
X201489685Y-92113696D01*
X201545348Y-92100501D01*
X201579054Y-92100501D01*
X201579057Y-92100501D01*
X201731785Y-92059577D01*
X201781904Y-92030639D01*
X201868716Y-91980520D01*
X201980520Y-91868716D01*
X201980520Y-91868714D01*
X201990728Y-91858507D01*
X201990729Y-91858504D01*
X203280520Y-90568716D01*
X203359577Y-90431784D01*
X203400501Y-90279057D01*
X203400501Y-90120942D01*
X203400501Y-90113347D01*
X203400500Y-90113329D01*
X203400500Y-88902334D01*
X203420185Y-88835295D01*
X203472989Y-88789540D01*
X203542147Y-88779596D01*
X203605703Y-88808621D01*
X203631230Y-88839211D01*
X203651138Y-88872872D01*
X203683520Y-88927628D01*
X203683526Y-88927636D01*
X203792363Y-89036473D01*
X203792367Y-89036476D01*
X203792369Y-89036478D01*
X203924865Y-89114836D01*
X203963847Y-89126161D01*
X204072680Y-89157781D01*
X204072683Y-89157781D01*
X204072685Y-89157782D01*
X204107223Y-89160500D01*
X204942776Y-89160499D01*
X204977315Y-89157782D01*
X205125135Y-89114836D01*
X205257631Y-89036478D01*
X205366478Y-88927631D01*
X205418268Y-88840059D01*
X205469337Y-88792375D01*
X205538078Y-88779871D01*
X205602668Y-88806516D01*
X205631732Y-88840059D01*
X205683517Y-88927624D01*
X205683526Y-88927636D01*
X205792363Y-89036473D01*
X205792367Y-89036476D01*
X205792369Y-89036478D01*
X205924865Y-89114836D01*
X205963847Y-89126161D01*
X206072680Y-89157781D01*
X206072683Y-89157781D01*
X206072685Y-89157782D01*
X206107223Y-89160500D01*
X206942776Y-89160499D01*
X206977315Y-89157782D01*
X207125135Y-89114836D01*
X207257631Y-89036478D01*
X207366478Y-88927631D01*
X207444836Y-88795135D01*
X207487782Y-88647315D01*
X207490500Y-88612777D01*
X207490499Y-87837224D01*
X207487782Y-87802685D01*
X207444836Y-87654865D01*
X207427553Y-87625641D01*
X207410370Y-87557917D01*
X207418103Y-87519186D01*
X207418793Y-87517333D01*
X207418796Y-87517331D01*
X207469091Y-87382483D01*
X207475500Y-87322873D01*
X207475499Y-86577128D01*
X207469091Y-86517517D01*
X207418796Y-86382669D01*
X207356393Y-86299310D01*
X207331977Y-86233847D01*
X207346828Y-86165574D01*
X207356394Y-86150689D01*
X207361046Y-86144475D01*
X207418796Y-86067331D01*
X207469091Y-85932483D01*
X207475500Y-85872873D01*
X207475499Y-85127128D01*
X207469091Y-85067517D01*
X207458415Y-85038894D01*
X207418797Y-84932671D01*
X207418793Y-84932664D01*
X207332547Y-84817455D01*
X207332544Y-84817452D01*
X207217335Y-84731206D01*
X207217328Y-84731202D01*
X207082482Y-84680908D01*
X207082483Y-84680908D01*
X207022883Y-84674501D01*
X207022881Y-84674500D01*
X207022873Y-84674500D01*
X207022864Y-84674500D01*
X206027129Y-84674500D01*
X206027123Y-84674501D01*
X205967516Y-84680908D01*
X205832671Y-84731202D01*
X205832664Y-84731206D01*
X205717455Y-84817452D01*
X205717452Y-84817455D01*
X205631206Y-84932664D01*
X205631202Y-84932671D01*
X205580908Y-85067517D01*
X205574501Y-85127116D01*
X205574501Y-85127123D01*
X205574500Y-85127135D01*
X205574500Y-85162402D01*
X205554815Y-85229441D01*
X205538181Y-85250083D01*
X204973216Y-85815047D01*
X204911893Y-85848532D01*
X204842201Y-85843548D01*
X204825635Y-85834498D01*
X204825114Y-85835454D01*
X204817328Y-85831202D01*
X204682482Y-85780908D01*
X204682483Y-85780908D01*
X204622883Y-85774501D01*
X204622881Y-85774500D01*
X204622873Y-85774500D01*
X204622865Y-85774500D01*
X204374096Y-85774500D01*
X204307057Y-85754815D01*
X204261302Y-85702011D01*
X204251358Y-85632853D01*
X204280383Y-85569297D01*
X204286415Y-85562819D01*
X204858033Y-84991201D01*
X205443506Y-84405728D01*
X205443511Y-84405724D01*
X205453714Y-84395520D01*
X205453716Y-84395520D01*
X205565520Y-84283716D01*
X205630629Y-84170943D01*
X205644577Y-84146785D01*
X205685501Y-83994057D01*
X205685501Y-83835943D01*
X205685501Y-83828348D01*
X205685500Y-83828330D01*
X205685500Y-83629880D01*
X205705185Y-83562841D01*
X205757989Y-83517086D01*
X205771610Y-83512188D01*
X205775232Y-83510687D01*
X205775236Y-83510687D01*
X205915233Y-83452698D01*
X206035451Y-83360451D01*
X206127698Y-83240233D01*
X206185687Y-83100236D01*
X206200500Y-82987720D01*
X206200500Y-82462280D01*
X206185687Y-82349764D01*
X206127698Y-82209767D01*
X206035451Y-82089549D01*
X205915233Y-81997302D01*
X205915229Y-81997300D01*
X205851801Y-81971027D01*
X205775236Y-81939313D01*
X205761171Y-81937461D01*
X205662727Y-81924500D01*
X205662720Y-81924500D01*
X204507280Y-81924500D01*
X204507272Y-81924500D01*
X204394764Y-81939313D01*
X204394760Y-81939314D01*
X204251952Y-81998467D01*
X204182483Y-82005936D01*
X204120004Y-81974661D01*
X204084352Y-81914572D01*
X204080500Y-81883906D01*
X204080500Y-81560096D01*
X204100185Y-81493057D01*
X204116819Y-81472415D01*
X204246817Y-81342417D01*
X204383506Y-81205728D01*
X204383511Y-81205724D01*
X204393714Y-81195520D01*
X204393716Y-81195520D01*
X204505520Y-81083716D01*
X204584577Y-80946784D01*
X204622245Y-80806204D01*
X204625500Y-80794058D01*
X204625500Y-80635943D01*
X204625500Y-79551781D01*
X204645185Y-79484742D01*
X204697989Y-79438987D01*
X204736245Y-79428491D01*
X204786483Y-79423091D01*
X204921331Y-79372796D01*
X205036546Y-79286546D01*
X205122796Y-79171331D01*
X205173091Y-79036483D01*
X205179500Y-78976873D01*
X205179499Y-77573128D01*
X205173091Y-77513517D01*
X205122796Y-77378669D01*
X205122795Y-77378668D01*
X205122793Y-77378664D01*
X205036547Y-77263455D01*
X205036544Y-77263452D01*
X204921335Y-77177206D01*
X204921328Y-77177202D01*
X204786482Y-77126908D01*
X204786483Y-77126908D01*
X204726883Y-77120501D01*
X204726881Y-77120500D01*
X204726873Y-77120500D01*
X204726864Y-77120500D01*
X203323129Y-77120500D01*
X203323123Y-77120501D01*
X203263516Y-77126908D01*
X203128671Y-77177202D01*
X203128664Y-77177206D01*
X203013455Y-77263452D01*
X203013452Y-77263455D01*
X202927206Y-77378664D01*
X202927202Y-77378671D01*
X202876908Y-77513517D01*
X202870501Y-77573116D01*
X202870501Y-77573123D01*
X202870500Y-77573135D01*
X202870500Y-78976870D01*
X202870501Y-78976876D01*
X202876908Y-79036483D01*
X202927202Y-79171328D01*
X202927206Y-79171335D01*
X203013452Y-79286544D01*
X203013455Y-79286547D01*
X203128664Y-79372793D01*
X203128671Y-79372797D01*
X203263517Y-79423091D01*
X203263516Y-79423091D01*
X203313756Y-79428493D01*
X203378307Y-79455231D01*
X203418155Y-79512624D01*
X203424500Y-79551782D01*
X203424500Y-80414903D01*
X203404815Y-80481942D01*
X203388181Y-80502584D01*
X202952584Y-80938181D01*
X202891261Y-80971666D01*
X202864903Y-80974500D01*
X202387272Y-80974500D01*
X202274764Y-80989313D01*
X202274763Y-80989313D01*
X202134769Y-81047300D01*
X202134766Y-81047302D01*
X202111402Y-81065230D01*
X202046232Y-81090423D01*
X201977788Y-81076384D01*
X201927799Y-81027569D01*
X201919734Y-81010184D01*
X201918796Y-81007669D01*
X201918793Y-81007664D01*
X201832547Y-80892455D01*
X201832544Y-80892452D01*
X201717335Y-80806206D01*
X201717328Y-80806202D01*
X201582482Y-80755908D01*
X201582483Y-80755908D01*
X201522883Y-80749501D01*
X201522881Y-80749500D01*
X201522873Y-80749500D01*
X201522864Y-80749500D01*
X200527129Y-80749500D01*
X200527123Y-80749501D01*
X200467516Y-80755908D01*
X200332671Y-80806202D01*
X200332664Y-80806206D01*
X200217455Y-80892452D01*
X200217452Y-80892455D01*
X200131206Y-81007664D01*
X200131202Y-81007671D01*
X200080908Y-81142517D01*
X200074501Y-81202116D01*
X200074500Y-81202135D01*
X200074500Y-81268105D01*
X200054815Y-81335144D01*
X200002011Y-81380899D01*
X199932853Y-81390843D01*
X199869297Y-81361818D01*
X199851234Y-81342417D01*
X199832549Y-81317457D01*
X199832546Y-81317455D01*
X199832546Y-81317454D01*
X199832542Y-81317451D01*
X199717335Y-81231206D01*
X199717328Y-81231202D01*
X199582482Y-81180908D01*
X199582483Y-81180908D01*
X199522883Y-81174501D01*
X199522881Y-81174500D01*
X199522873Y-81174500D01*
X199522864Y-81174500D01*
X198527129Y-81174500D01*
X198527123Y-81174501D01*
X198467516Y-81180908D01*
X198332671Y-81231202D01*
X198332664Y-81231206D01*
X198217457Y-81317451D01*
X198217449Y-81317458D01*
X198193232Y-81349810D01*
X198137299Y-81391682D01*
X198093965Y-81399500D01*
X196582791Y-81399500D01*
X196515752Y-81379815D01*
X196469997Y-81327011D01*
X196466609Y-81318833D01*
X196443797Y-81257671D01*
X196443793Y-81257664D01*
X196357547Y-81142455D01*
X196357544Y-81142452D01*
X196242335Y-81056206D01*
X196242328Y-81056202D01*
X196107482Y-81005908D01*
X196107483Y-81005908D01*
X196047883Y-80999501D01*
X196047881Y-80999500D01*
X196047873Y-80999500D01*
X196047864Y-80999500D01*
X194802129Y-80999500D01*
X194802123Y-80999501D01*
X194742516Y-81005908D01*
X194607671Y-81056202D01*
X194607664Y-81056206D01*
X194492455Y-81142452D01*
X194492452Y-81142455D01*
X194406206Y-81257664D01*
X194406202Y-81257671D01*
X194355908Y-81392517D01*
X194349501Y-81452116D01*
X194349500Y-81452135D01*
X194349500Y-82997870D01*
X194349501Y-82997876D01*
X194355908Y-83057481D01*
X194366682Y-83086366D01*
X194374500Y-83129700D01*
X194374500Y-83240500D01*
X194354815Y-83307539D01*
X194302011Y-83353294D01*
X194250500Y-83364500D01*
X193766111Y-83364500D01*
X193653848Y-83379279D01*
X193653837Y-83379282D01*
X193514149Y-83437142D01*
X193394190Y-83529190D01*
X193302142Y-83649149D01*
X193244282Y-83788837D01*
X193244281Y-83788841D01*
X193229500Y-83901105D01*
X189014076Y-83901105D01*
X189023624Y-83585141D01*
X189024073Y-83577713D01*
X189083648Y-82922115D01*
X189084551Y-82914684D01*
X189088412Y-82889314D01*
X189183597Y-82263907D01*
X189184946Y-82256549D01*
X189194988Y-82209770D01*
X189323105Y-81612938D01*
X189324888Y-81605700D01*
X189501669Y-80971555D01*
X189503885Y-80964447D01*
X189718622Y-80342162D01*
X189721262Y-80335200D01*
X189860108Y-79999996D01*
X195694435Y-79999996D01*
X195694435Y-80000003D01*
X195714630Y-80179249D01*
X195714631Y-80179254D01*
X195774211Y-80349523D01*
X195857416Y-80481942D01*
X195870184Y-80502262D01*
X195997738Y-80629816D01*
X196150478Y-80725789D01*
X196236556Y-80755909D01*
X196320745Y-80785368D01*
X196320750Y-80785369D01*
X196499996Y-80805565D01*
X196500000Y-80805565D01*
X196500004Y-80805565D01*
X196679249Y-80785369D01*
X196679252Y-80785368D01*
X196679255Y-80785368D01*
X196849522Y-80725789D01*
X197002262Y-80629816D01*
X197129816Y-80502262D01*
X197225789Y-80349522D01*
X197285368Y-80179255D01*
X197305565Y-80000000D01*
X197285368Y-79820745D01*
X197225789Y-79650478D01*
X197225788Y-79650476D01*
X197225787Y-79650472D01*
X197225289Y-79649680D01*
X197225123Y-79649093D01*
X197222769Y-79644205D01*
X197223625Y-79643792D01*
X197206290Y-79582443D01*
X197226659Y-79515608D01*
X197231019Y-79509398D01*
X197243796Y-79492331D01*
X197294091Y-79357483D01*
X197300500Y-79297873D01*
X197300499Y-78652128D01*
X197294091Y-78592517D01*
X197243796Y-78457669D01*
X197243567Y-78457363D01*
X197196250Y-78394154D01*
X197171833Y-78328690D01*
X197186685Y-78260417D01*
X197207830Y-78232169D01*
X197250000Y-78190000D01*
X197250000Y-77810000D01*
X197206319Y-77766319D01*
X197172834Y-77704996D01*
X197170000Y-77678638D01*
X197170000Y-77210000D01*
X196750000Y-77210000D01*
X196746319Y-77213681D01*
X196684996Y-77247166D01*
X196658638Y-77250000D01*
X196341362Y-77250000D01*
X196274323Y-77230315D01*
X196253681Y-77213681D01*
X196250000Y-77210000D01*
X195830000Y-77210000D01*
X195830000Y-77678638D01*
X195810315Y-77745677D01*
X195793681Y-77766319D01*
X195750000Y-77809999D01*
X195750000Y-78190000D01*
X195792163Y-78232163D01*
X195825648Y-78293486D01*
X195820664Y-78363178D01*
X195803750Y-78394154D01*
X195756203Y-78457669D01*
X195756202Y-78457671D01*
X195722375Y-78548368D01*
X195705909Y-78592517D01*
X195699500Y-78652127D01*
X195699500Y-78652134D01*
X195699500Y-78652135D01*
X195699500Y-79297870D01*
X195699501Y-79297876D01*
X195705908Y-79357483D01*
X195756202Y-79492328D01*
X195756204Y-79492331D01*
X195768980Y-79509398D01*
X195768982Y-79509400D01*
X195793400Y-79574864D01*
X195778549Y-79643137D01*
X195774711Y-79649681D01*
X195774211Y-79650476D01*
X195774210Y-79650478D01*
X195714633Y-79820737D01*
X195714630Y-79820750D01*
X195694435Y-79999996D01*
X189860108Y-79999996D01*
X189973189Y-79726995D01*
X189976242Y-79720211D01*
X190264429Y-79128333D01*
X190267887Y-79121745D01*
X190591282Y-78548350D01*
X190595147Y-78541959D01*
X190795445Y-78232162D01*
X190952570Y-77989140D01*
X190956786Y-77983031D01*
X191346949Y-77452785D01*
X191351541Y-77446923D01*
X191773015Y-76941192D01*
X191777932Y-76935642D01*
X192229146Y-76456311D01*
X192234442Y-76451016D01*
X192713772Y-75999802D01*
X192719322Y-75994885D01*
X193225053Y-75573411D01*
X193230915Y-75568819D01*
X193761161Y-75178656D01*
X193767270Y-75174440D01*
X194126207Y-74942370D01*
X194320089Y-74817017D01*
X194326480Y-74813152D01*
X194899875Y-74489757D01*
X194906463Y-74486299D01*
X195498341Y-74198112D01*
X195505125Y-74195059D01*
X196113330Y-73943132D01*
X196120292Y-73940492D01*
X196742577Y-73725755D01*
X196749685Y-73723539D01*
X197383830Y-73546758D01*
X197391068Y-73544975D01*
X198034688Y-73406814D01*
X198042037Y-73405467D01*
X198692820Y-73306420D01*
X198700245Y-73305518D01*
X199355843Y-73245943D01*
X199363271Y-73245494D01*
X200021260Y-73225612D01*
X200028740Y-73225612D01*
X200686726Y-73245494D01*
G37*
%TD.AperFunction*%
%TD*%
M02*
