%TF.GenerationSoftware,KiCad,Pcbnew,8.0.8*%
%TF.CreationDate,2025-02-09T17:01:19+02:00*%
%TF.ProjectId,gamma-spectrometer,67616d6d-612d-4737-9065-6374726f6d65,v0.0.4*%
%TF.SameCoordinates,Original*%
%TF.FileFunction,Copper,L2,Bot*%
%TF.FilePolarity,Positive*%
%FSLAX46Y46*%
G04 Gerber Fmt 4.6, Leading zero omitted, Abs format (unit mm)*
G04 Created by KiCad (PCBNEW 8.0.8) date 2025-02-09 17:01:19*
%MOMM*%
%LPD*%
G01*
G04 APERTURE LIST*
G04 Aperture macros list*
%AMRoundRect*
0 Rectangle with rounded corners*
0 $1 Rounding radius*
0 $2 $3 $4 $5 $6 $7 $8 $9 X,Y pos of 4 corners*
0 Add a 4 corners polygon primitive as box body*
4,1,4,$2,$3,$4,$5,$6,$7,$8,$9,$2,$3,0*
0 Add four circle primitives for the rounded corners*
1,1,$1+$1,$2,$3*
1,1,$1+$1,$4,$5*
1,1,$1+$1,$6,$7*
1,1,$1+$1,$8,$9*
0 Add four rect primitives between the rounded corners*
20,1,$1+$1,$2,$3,$4,$5,0*
20,1,$1+$1,$4,$5,$6,$7,0*
20,1,$1+$1,$6,$7,$8,$9,0*
20,1,$1+$1,$8,$9,$2,$3,0*%
%AMFreePoly0*
4,1,324,1.346010,3.150049,1.351005,3.149050,1.357000,3.149050,1.357008,3.149049,1.363008,3.148049,1.363019,3.148046,1.368014,3.146048,1.374008,3.145049,1.374019,3.145046,1.379019,3.143046,1.379022,3.143045,1.385022,3.140045,1.385021,3.140044,1.390019,3.138046,1.390026,3.138043,1.405026,3.129043,1.405035,3.129035,1.409028,3.125041,1.414026,3.122043,1.414035,3.122035,
1.422035,3.114035,1.422043,3.114026,1.425041,3.109028,1.429035,3.105035,1.429043,3.105026,1.438043,3.090026,1.438046,3.090019,1.440045,3.085022,1.443045,3.079022,1.443046,3.079019,1.445046,3.074019,1.445049,3.074008,1.446048,3.068014,1.448046,3.063019,1.448049,3.063008,1.449049,3.057008,1.449050,3.057000,1.449050,3.051005,1.450049,3.046010,1.450050,3.046000,
1.450050,1.450050,3.036000,1.450050,3.043000,1.449050,3.049000,1.449050,3.049016,1.449047,3.055012,1.447048,3.061008,1.446049,3.061016,1.446047,3.079016,1.440047,3.079026,1.440043,3.084026,1.437043,3.090026,1.434043,3.095026,1.431043,3.095028,1.431042,3.101028,1.427042,3.101031,1.427039,3.106031,1.423039,3.110031,1.419039,3.115031,1.415039,3.115039,1.415031,
3.119039,1.410031,3.123039,1.406031,3.127039,1.401031,3.127042,1.401028,3.131042,1.395028,3.131043,1.395026,3.134043,1.390026,3.137043,1.384026,3.140043,1.379026,3.140047,1.379016,3.146047,1.361016,3.146049,1.361008,3.147048,1.355012,3.149047,1.349016,3.149050,1.349000,3.149050,1.343000,3.150050,1.336000,3.150050,-1.346000,3.150049,-1.346010,3.149050,-1.351005,
3.149050,-1.357000,3.149049,-1.357008,3.148049,-1.363008,3.148046,-1.363019,3.146048,-1.368014,3.145049,-1.374008,3.145046,-1.374019,3.143046,-1.379019,3.143045,-1.379022,3.140045,-1.385022,3.138046,-1.390019,3.138043,-1.390026,3.129043,-1.405026,3.129035,-1.405035,3.125041,-1.409028,3.122043,-1.414026,3.122035,-1.414035,3.114035,-1.422035,3.114026,-1.422043,3.109028,-1.425041,
3.105035,-1.429035,3.105026,-1.429043,3.090026,-1.438043,3.090019,-1.438046,3.085021,-1.440044,3.085022,-1.440045,3.079022,-1.443045,3.079019,-1.443046,3.074019,-1.445046,3.074008,-1.445049,3.068014,-1.446048,3.063019,-1.448046,3.063008,-1.448049,3.057008,-1.449049,3.057000,-1.449050,3.051005,-1.449050,3.046010,-1.450049,3.046000,-1.450050,1.450050,-1.450050,1.450050,-3.036000,
1.449050,-3.043000,1.449050,-3.049000,1.449047,-3.049016,1.447048,-3.055012,1.446049,-3.061008,1.446047,-3.061016,1.440047,-3.079016,1.440043,-3.079026,1.437043,-3.084026,1.434043,-3.090026,1.431043,-3.095026,1.431042,-3.095028,1.427042,-3.101028,1.427039,-3.101031,1.423039,-3.106031,1.419039,-3.110031,1.415039,-3.115031,1.415031,-3.115039,1.410031,-3.119039,1.406031,-3.123039,
1.401031,-3.127039,1.401028,-3.127042,1.395028,-3.131042,1.395026,-3.131043,1.390026,-3.134043,1.384026,-3.137043,1.379026,-3.140043,1.379016,-3.140047,1.361016,-3.146047,1.361008,-3.146049,1.355012,-3.147048,1.349016,-3.149047,1.349000,-3.149050,1.343000,-3.149050,1.336000,-3.150050,-1.346000,-3.150050,-1.346010,-3.150049,-1.351005,-3.149050,-1.357000,-3.149050,-1.357008,-3.149049,
-1.363008,-3.148049,-1.363019,-3.148046,-1.368014,-3.146048,-1.374008,-3.145049,-1.374019,-3.145046,-1.379019,-3.143046,-1.379022,-3.143045,-1.385022,-3.140045,-1.385021,-3.140044,-1.390019,-3.138046,-1.390026,-3.138043,-1.405026,-3.129043,-1.405035,-3.129035,-1.409028,-3.125041,-1.414026,-3.122043,-1.414035,-3.122035,-1.422035,-3.114035,-1.422043,-3.114026,-1.425041,-3.109028,-1.429035,-3.105035,
-1.429043,-3.105026,-1.438043,-3.090026,-1.438046,-3.090019,-1.440045,-3.085022,-1.443045,-3.079022,-1.443046,-3.079019,-1.445046,-3.074019,-1.445049,-3.074008,-1.446048,-3.068014,-1.448046,-3.063019,-1.448049,-3.063008,-1.449049,-3.057008,-1.449050,-3.057000,-1.449050,-3.051005,-1.450049,-3.046010,-1.450050,-3.046000,-1.450050,-1.450050,-3.046000,-1.450050,-3.046010,-1.450049,-3.051005,-1.449050,
-3.057000,-1.449050,-3.057008,-1.449049,-3.063008,-1.448049,-3.063019,-1.448046,-3.068014,-1.446048,-3.074008,-1.445049,-3.074019,-1.445046,-3.079019,-1.443046,-3.079022,-1.443045,-3.085022,-1.440045,-3.085021,-1.440044,-3.090019,-1.438046,-3.090026,-1.438043,-3.105026,-1.429043,-3.105035,-1.429035,-3.109028,-1.425041,-3.114026,-1.422043,-3.114035,-1.422035,-3.122035,-1.414035,-3.122043,-1.414026,
-3.125041,-1.409028,-3.129035,-1.405035,-3.129043,-1.405026,-3.138043,-1.390026,-3.138046,-1.390019,-3.140045,-1.385022,-3.143045,-1.379022,-3.143046,-1.379019,-3.145046,-1.374019,-3.145049,-1.374008,-3.146048,-1.368014,-3.148046,-1.363019,-3.148049,-1.363008,-3.149049,-1.357008,-3.149050,-1.357000,-3.149050,-1.351005,-3.150049,-1.346010,-3.150050,-1.346000,-3.150050,1.327000,-3.149049,1.334007,
-3.149049,1.334008,-3.148049,1.340008,-3.147049,1.347007,-3.146049,1.354007,-3.146047,1.354016,-3.144047,1.360016,-3.144046,1.360020,-3.141046,1.367020,-3.139047,1.373016,-3.139045,1.373022,-3.133042,1.385028,-3.129042,1.391028,-3.129039,1.391031,-3.125041,1.396027,-3.125042,1.396028,-3.121042,1.402028,-3.121039,1.402031,-3.117039,1.407031,-3.107031,1.417039,-3.102031,1.421039,
-3.102028,1.421042,-3.096028,1.425042,-3.096027,1.425041,-3.091031,1.429039,-3.091028,1.429042,-3.085028,1.433042,-3.073022,1.439045,-3.073016,1.439047,-3.067019,1.441045,-3.067020,1.441046,-3.060020,1.444046,-3.060016,1.444047,-3.054016,1.446047,-3.054007,1.446049,-3.047007,1.447049,-3.040007,1.448048,-3.040008,1.448049,-3.034008,1.449049,-3.034007,1.449049,-3.027000,1.450050,
-1.450050,1.450050,-1.450050,3.046000,-1.450049,3.046010,-1.449050,3.051005,-1.449050,3.057000,-1.449049,3.057008,-1.448049,3.063008,-1.448046,3.063019,-1.446048,3.068014,-1.445049,3.074008,-1.445046,3.074019,-1.443046,3.079019,-1.443045,3.079022,-1.440045,3.085022,-1.438046,3.090019,-1.438043,3.090026,-1.429043,3.105026,-1.429035,3.105035,-1.425041,3.109028,-1.422043,3.114026,
-1.422035,3.114035,-1.414035,3.122035,-1.414026,3.122043,-1.409028,3.125041,-1.405035,3.129035,-1.405026,3.129043,-1.390026,3.138043,-1.390019,3.138046,-1.385021,3.140044,-1.385022,3.140045,-1.379022,3.143045,-1.379019,3.143046,-1.374019,3.145046,-1.374008,3.145049,-1.368014,3.146048,-1.363019,3.148046,-1.363008,3.148049,-1.357008,3.149049,-1.357000,3.149050,-1.351005,3.149050,
-1.346010,3.150049,-1.346000,3.150050,1.346000,3.150050,1.346010,3.150049,1.346010,3.150049,$1*%
G04 Aperture macros list end*
%ADD10C,0.300000*%
%TA.AperFunction,ComponentPad*%
%ADD11R,1.308000X1.308000*%
%TD*%
%TA.AperFunction,ComponentPad*%
%ADD12C,1.308000*%
%TD*%
%TA.AperFunction,ComponentPad*%
%ADD13R,1.218000X1.218000*%
%TD*%
%TA.AperFunction,ComponentPad*%
%ADD14C,1.218000*%
%TD*%
%TA.AperFunction,SMDPad,CuDef*%
%ADD15RoundRect,0.150000X-0.150000X-0.400000X0.150000X-0.400000X0.150000X0.400000X-0.150000X0.400000X0*%
%TD*%
%TA.AperFunction,SMDPad,CuDef*%
%ADD16RoundRect,0.150000X-0.400000X-0.150000X0.400000X-0.150000X0.400000X0.150000X-0.400000X0.150000X0*%
%TD*%
%TA.AperFunction,SMDPad,CuDef*%
%ADD17FreePoly0,0.000000*%
%TD*%
%TA.AperFunction,ComponentPad*%
%ADD18O,1.700000X1.700000*%
%TD*%
%TA.AperFunction,ComponentPad*%
%ADD19R,1.700000X1.700000*%
%TD*%
%TA.AperFunction,ViaPad*%
%ADD20C,0.600000*%
%TD*%
%TA.AperFunction,ViaPad*%
%ADD21C,3.500000*%
%TD*%
%TA.AperFunction,ViaPad*%
%ADD22C,1.200000*%
%TD*%
%TA.AperFunction,Conductor*%
%ADD23C,0.200000*%
%TD*%
G04 APERTURE END LIST*
D10*
G36*
X162428064Y-83995535D02*
G01*
X162465068Y-84032539D01*
X162518247Y-84138898D01*
X162581203Y-84390720D01*
X162581203Y-84710936D01*
X162518247Y-84962757D01*
X162465067Y-85069117D01*
X162428064Y-85106121D01*
X162338651Y-85150828D01*
X162266613Y-85150828D01*
X162177200Y-85106122D01*
X162140196Y-85069118D01*
X162087016Y-84962758D01*
X162024060Y-84710934D01*
X162024060Y-84390721D01*
X162087016Y-84138897D01*
X162140196Y-84032538D01*
X162177200Y-83995534D01*
X162266613Y-83950828D01*
X162338650Y-83950828D01*
X162428064Y-83995535D01*
G37*
G36*
X164570921Y-83995535D02*
G01*
X164607925Y-84032539D01*
X164661104Y-84138898D01*
X164724060Y-84390720D01*
X164724060Y-84710936D01*
X164661104Y-84962757D01*
X164607924Y-85069117D01*
X164570921Y-85106121D01*
X164481508Y-85150828D01*
X164409470Y-85150828D01*
X164320057Y-85106122D01*
X164283053Y-85069118D01*
X164229873Y-84962758D01*
X164166917Y-84710934D01*
X164166917Y-84390721D01*
X164229873Y-84138897D01*
X164283053Y-84032538D01*
X164320057Y-83995534D01*
X164409470Y-83950828D01*
X164481507Y-83950828D01*
X164570921Y-83995535D01*
G37*
G36*
X168262256Y-84484060D02*
G01*
X168295488Y-84550523D01*
X168295488Y-84617857D01*
X167888258Y-84536411D01*
X167914434Y-84484060D01*
X167980898Y-84450828D01*
X168195793Y-84450828D01*
X168262256Y-84484060D01*
G37*
G36*
X171713778Y-84495535D02*
G01*
X171750782Y-84532539D01*
X171795488Y-84621951D01*
X171795488Y-84979704D01*
X171750781Y-85069117D01*
X171713776Y-85106122D01*
X171624364Y-85150828D01*
X171409470Y-85150828D01*
X171381203Y-85136694D01*
X171381203Y-84464961D01*
X171409470Y-84450828D01*
X171624364Y-84450828D01*
X171713778Y-84495535D01*
G37*
G36*
X173070921Y-84495535D02*
G01*
X173107925Y-84532539D01*
X173152631Y-84621951D01*
X173152631Y-84979704D01*
X173107924Y-85069117D01*
X173070919Y-85106122D01*
X172981507Y-85150828D01*
X172838041Y-85150828D01*
X172748628Y-85106122D01*
X172711624Y-85069118D01*
X172666917Y-84979703D01*
X172666917Y-84621952D01*
X172711624Y-84532538D01*
X172748628Y-84495534D01*
X172838041Y-84450828D01*
X172981507Y-84450828D01*
X173070921Y-84495535D01*
G37*
G36*
X175262156Y-85617495D02*
G01*
X159345645Y-85617495D01*
X159345645Y-83773360D01*
X159512312Y-83773360D01*
X159512657Y-83801677D01*
X159512657Y-83830092D01*
X159513013Y-83830953D01*
X159513025Y-83831883D01*
X159521903Y-83859916D01*
X160164760Y-85359916D01*
X160178937Y-85385678D01*
X160220824Y-85426555D01*
X160275164Y-85448291D01*
X160333687Y-85447578D01*
X160387482Y-85424523D01*
X160428359Y-85382636D01*
X160450095Y-85328296D01*
X160449382Y-85269773D01*
X160440504Y-85241740D01*
X160422675Y-85200138D01*
X161012657Y-85200138D01*
X161012657Y-85258664D01*
X161014883Y-85264037D01*
X161035054Y-85312735D01*
X161035055Y-85312736D01*
X161053710Y-85335467D01*
X161125139Y-85406895D01*
X161147868Y-85425548D01*
X161147869Y-85425549D01*
X161170667Y-85434992D01*
X161201940Y-85447946D01*
X161201941Y-85447946D01*
X161201942Y-85447946D01*
X161260467Y-85447946D01*
X161260468Y-85447946D01*
X161291741Y-85434992D01*
X161314539Y-85425549D01*
X161337270Y-85406894D01*
X161408698Y-85335466D01*
X161427353Y-85312736D01*
X161444406Y-85271564D01*
X161449749Y-85258664D01*
X161449750Y-85200138D01*
X161427353Y-85146065D01*
X161408699Y-85123335D01*
X161337271Y-85051906D01*
X161314540Y-85033251D01*
X161314539Y-85033250D01*
X161282865Y-85020130D01*
X161260468Y-85010853D01*
X161201940Y-85010853D01*
X161179543Y-85020130D01*
X161147869Y-85033250D01*
X161125138Y-85051905D01*
X161053709Y-85123334D01*
X161035054Y-85146065D01*
X161014884Y-85194762D01*
X161012657Y-85200138D01*
X160422675Y-85200138D01*
X160067869Y-84372257D01*
X161724060Y-84372257D01*
X161724060Y-84729400D01*
X161724562Y-84734503D01*
X161724237Y-84736691D01*
X161725856Y-84747642D01*
X161726942Y-84758664D01*
X161727788Y-84760708D01*
X161728539Y-84765781D01*
X161799968Y-85051494D01*
X161800739Y-85053652D01*
X161800816Y-85054733D01*
X161805474Y-85066907D01*
X161809861Y-85079185D01*
X161810505Y-85080055D01*
X161811325Y-85082196D01*
X161882754Y-85225053D01*
X161890682Y-85237648D01*
X161892197Y-85241305D01*
X161895576Y-85245422D01*
X161898419Y-85249939D01*
X161901413Y-85252536D01*
X161910851Y-85264036D01*
X161982279Y-85335465D01*
X161993784Y-85344907D01*
X161996379Y-85347899D01*
X162000889Y-85350738D01*
X162005010Y-85354120D01*
X162008669Y-85355635D01*
X162021264Y-85363564D01*
X162164122Y-85434992D01*
X162191585Y-85445502D01*
X162196960Y-85445883D01*
X162201939Y-85447946D01*
X162231203Y-85450828D01*
X162374060Y-85450828D01*
X162403324Y-85447946D01*
X162408302Y-85445883D01*
X162413678Y-85445502D01*
X162441141Y-85434992D01*
X162584000Y-85363564D01*
X162596594Y-85355635D01*
X162600254Y-85354120D01*
X162604374Y-85350738D01*
X162608885Y-85347899D01*
X162611479Y-85344907D01*
X162622985Y-85335465D01*
X162694413Y-85264036D01*
X162703851Y-85252535D01*
X162706845Y-85249939D01*
X162709685Y-85245426D01*
X162713067Y-85241306D01*
X162714582Y-85237646D01*
X162722510Y-85225053D01*
X162734968Y-85200138D01*
X163155514Y-85200138D01*
X163155514Y-85258664D01*
X163157740Y-85264037D01*
X163177911Y-85312735D01*
X163177912Y-85312736D01*
X163196567Y-85335467D01*
X163267996Y-85406895D01*
X163290725Y-85425548D01*
X163290726Y-85425549D01*
X163313524Y-85434992D01*
X163344797Y-85447946D01*
X163344798Y-85447946D01*
X163344799Y-85447946D01*
X163403324Y-85447946D01*
X163403325Y-85447946D01*
X163434598Y-85434992D01*
X163457396Y-85425549D01*
X163480127Y-85406894D01*
X163551555Y-85335466D01*
X163570210Y-85312736D01*
X163587263Y-85271564D01*
X163592606Y-85258664D01*
X163592607Y-85200138D01*
X163570210Y-85146065D01*
X163551556Y-85123335D01*
X163480128Y-85051906D01*
X163457397Y-85033251D01*
X163457396Y-85033250D01*
X163425722Y-85020130D01*
X163403325Y-85010853D01*
X163344797Y-85010853D01*
X163322400Y-85020130D01*
X163290726Y-85033250D01*
X163267995Y-85051905D01*
X163196566Y-85123334D01*
X163177911Y-85146065D01*
X163157741Y-85194762D01*
X163155514Y-85200138D01*
X162734968Y-85200138D01*
X162793939Y-85082197D01*
X162794758Y-85080054D01*
X162795403Y-85079185D01*
X162799787Y-85066913D01*
X162804448Y-85054733D01*
X162804524Y-85053652D01*
X162805296Y-85051494D01*
X162876724Y-84765780D01*
X162877473Y-84760708D01*
X162878321Y-84758664D01*
X162879406Y-84747641D01*
X162881026Y-84736691D01*
X162880700Y-84734503D01*
X162881203Y-84729400D01*
X162881203Y-84372257D01*
X163866917Y-84372257D01*
X163866917Y-84729400D01*
X163867419Y-84734503D01*
X163867094Y-84736691D01*
X163868713Y-84747642D01*
X163869799Y-84758664D01*
X163870645Y-84760708D01*
X163871396Y-84765781D01*
X163942825Y-85051494D01*
X163943596Y-85053652D01*
X163943673Y-85054733D01*
X163948331Y-85066907D01*
X163952718Y-85079185D01*
X163953362Y-85080055D01*
X163954182Y-85082196D01*
X164025611Y-85225053D01*
X164033539Y-85237648D01*
X164035054Y-85241305D01*
X164038433Y-85245422D01*
X164041276Y-85249939D01*
X164044270Y-85252536D01*
X164053708Y-85264036D01*
X164125136Y-85335465D01*
X164136641Y-85344907D01*
X164139236Y-85347899D01*
X164143746Y-85350738D01*
X164147867Y-85354120D01*
X164151526Y-85355635D01*
X164164121Y-85363564D01*
X164306979Y-85434992D01*
X164334442Y-85445502D01*
X164339817Y-85445883D01*
X164344796Y-85447946D01*
X164374060Y-85450828D01*
X164516917Y-85450828D01*
X164546181Y-85447946D01*
X164551159Y-85445883D01*
X164556535Y-85445502D01*
X164583998Y-85434992D01*
X164726857Y-85363564D01*
X164739451Y-85355635D01*
X164743111Y-85354120D01*
X164747231Y-85350738D01*
X164751742Y-85347899D01*
X164754336Y-85344907D01*
X164765842Y-85335465D01*
X164837270Y-85264036D01*
X164846708Y-85252535D01*
X164849702Y-85249939D01*
X164852542Y-85245426D01*
X164855924Y-85241306D01*
X164857439Y-85237646D01*
X164865367Y-85225053D01*
X164936796Y-85082197D01*
X164937615Y-85080054D01*
X164938260Y-85079185D01*
X164942644Y-85066913D01*
X164947305Y-85054733D01*
X164947381Y-85053652D01*
X164948153Y-85051494D01*
X165019581Y-84765780D01*
X165020330Y-84760708D01*
X165021178Y-84758664D01*
X165022263Y-84747641D01*
X165023883Y-84736691D01*
X165023557Y-84734503D01*
X165024060Y-84729400D01*
X165024060Y-84372257D01*
X165023557Y-84367153D01*
X165023883Y-84364966D01*
X165022263Y-84354015D01*
X165021178Y-84342993D01*
X165020330Y-84340948D01*
X165019581Y-84335877D01*
X165016299Y-84322750D01*
X165225670Y-84322750D01*
X165232799Y-84351278D01*
X165589942Y-85351278D01*
X165602498Y-85377868D01*
X165607551Y-85383450D01*
X165610774Y-85390253D01*
X165627046Y-85404984D01*
X165641778Y-85421257D01*
X165648580Y-85424479D01*
X165654163Y-85429533D01*
X165674837Y-85436916D01*
X165694670Y-85446311D01*
X165702188Y-85446684D01*
X165709281Y-85449218D01*
X165731203Y-85448127D01*
X165753125Y-85449218D01*
X165760217Y-85446684D01*
X165767736Y-85446311D01*
X165787568Y-85436916D01*
X165808243Y-85429533D01*
X165813825Y-85424479D01*
X165820628Y-85421257D01*
X165835359Y-85404984D01*
X165851632Y-85390253D01*
X165854854Y-85383450D01*
X165859908Y-85377868D01*
X165872464Y-85351278D01*
X166171094Y-84515114D01*
X167581203Y-84515114D01*
X167581203Y-84657971D01*
X167584085Y-84687235D01*
X167589709Y-84700812D01*
X167592561Y-84715229D01*
X167600799Y-84727586D01*
X167606483Y-84741307D01*
X167616875Y-84751699D01*
X167625026Y-84763925D01*
X167637364Y-84772188D01*
X167647867Y-84782691D01*
X167661443Y-84788314D01*
X167673655Y-84796493D01*
X167701786Y-84805058D01*
X167701937Y-84805088D01*
X167701939Y-84805089D01*
X167701941Y-84805089D01*
X168295488Y-84923798D01*
X168295488Y-85051132D01*
X168262256Y-85117596D01*
X168195793Y-85150828D01*
X167980898Y-85150828D01*
X167869713Y-85095236D01*
X167842249Y-85084726D01*
X167783869Y-85080578D01*
X167728347Y-85099086D01*
X167684132Y-85137433D01*
X167657957Y-85189782D01*
X167653809Y-85248162D01*
X167672317Y-85303684D01*
X167710664Y-85347899D01*
X167735549Y-85363564D01*
X167878407Y-85434992D01*
X167905870Y-85445502D01*
X167911245Y-85445883D01*
X167916224Y-85447946D01*
X167945488Y-85450828D01*
X168231203Y-85450828D01*
X168260467Y-85447946D01*
X168265445Y-85445883D01*
X168270821Y-85445502D01*
X168298285Y-85434992D01*
X168441142Y-85363564D01*
X168446034Y-85360484D01*
X168448345Y-85359714D01*
X168451221Y-85357219D01*
X168466028Y-85347899D01*
X168478349Y-85333691D01*
X168492560Y-85321367D01*
X168501880Y-85306559D01*
X168504374Y-85303684D01*
X168505143Y-85301374D01*
X168508224Y-85296481D01*
X168515432Y-85282066D01*
X168796666Y-85282066D01*
X168800814Y-85340446D01*
X168826989Y-85392795D01*
X168871204Y-85431142D01*
X168926726Y-85449650D01*
X168985106Y-85445502D01*
X169012570Y-85434992D01*
X169155427Y-85363564D01*
X169160321Y-85360483D01*
X169162629Y-85359714D01*
X169165503Y-85357221D01*
X169180313Y-85347899D01*
X169192635Y-85333690D01*
X169206844Y-85321368D01*
X169216166Y-85306558D01*
X169218659Y-85303684D01*
X169219428Y-85301376D01*
X169222509Y-85296482D01*
X169293938Y-85153624D01*
X169304448Y-85126161D01*
X169304830Y-85120783D01*
X169306892Y-85115806D01*
X169309774Y-85086542D01*
X169309774Y-84300828D01*
X169724060Y-84300828D01*
X169724060Y-85300828D01*
X169726942Y-85330092D01*
X169749340Y-85384164D01*
X169790724Y-85425548D01*
X169844796Y-85447946D01*
X169903324Y-85447946D01*
X169957396Y-85425548D01*
X169972389Y-85410554D01*
X170021264Y-85434992D01*
X170048727Y-85445502D01*
X170054102Y-85445883D01*
X170059081Y-85447946D01*
X170088345Y-85450828D01*
X170302631Y-85450828D01*
X170331895Y-85447946D01*
X170336873Y-85445883D01*
X170342249Y-85445502D01*
X170369713Y-85434992D01*
X170512570Y-85363564D01*
X170517464Y-85360483D01*
X170519772Y-85359714D01*
X170522646Y-85357221D01*
X170537456Y-85347899D01*
X170549778Y-85333690D01*
X170563987Y-85321368D01*
X170573309Y-85306558D01*
X170575802Y-85303684D01*
X170576571Y-85301376D01*
X170579652Y-85296482D01*
X170651081Y-85153624D01*
X170661591Y-85126161D01*
X170661973Y-85120783D01*
X170664035Y-85115806D01*
X170666917Y-85086542D01*
X170666917Y-84300828D01*
X170664035Y-84271564D01*
X170641637Y-84217492D01*
X170600253Y-84176108D01*
X170546181Y-84153710D01*
X170487653Y-84153710D01*
X170433581Y-84176108D01*
X170392197Y-84217492D01*
X170369799Y-84271564D01*
X170366917Y-84300828D01*
X170366917Y-85051132D01*
X170333684Y-85117596D01*
X170267221Y-85150828D01*
X170123755Y-85150828D01*
X170034342Y-85106122D01*
X170024060Y-85095839D01*
X170024060Y-84300828D01*
X170021178Y-84271564D01*
X169998780Y-84217492D01*
X169957396Y-84176108D01*
X169903324Y-84153710D01*
X169844796Y-84153710D01*
X169790724Y-84176108D01*
X169749340Y-84217492D01*
X169726942Y-84271564D01*
X169724060Y-84300828D01*
X169309774Y-84300828D01*
X169309774Y-83800828D01*
X171081203Y-83800828D01*
X171081203Y-85300828D01*
X171084085Y-85330092D01*
X171106483Y-85384164D01*
X171147867Y-85425548D01*
X171201939Y-85447946D01*
X171260467Y-85447946D01*
X171300074Y-85431539D01*
X171306979Y-85434992D01*
X171334442Y-85445502D01*
X171339817Y-85445883D01*
X171344796Y-85447946D01*
X171374060Y-85450828D01*
X171659774Y-85450828D01*
X171689038Y-85447946D01*
X171694016Y-85445883D01*
X171699392Y-85445502D01*
X171726856Y-85434992D01*
X171869713Y-85363564D01*
X171882306Y-85355636D01*
X171885966Y-85354121D01*
X171890085Y-85350739D01*
X171894599Y-85347899D01*
X171897195Y-85344905D01*
X171908697Y-85335466D01*
X171980126Y-85264037D01*
X171989567Y-85252532D01*
X171992559Y-85249938D01*
X171995397Y-85245428D01*
X171998781Y-85241306D01*
X172000297Y-85237644D01*
X172008224Y-85225053D01*
X172079652Y-85082195D01*
X172090162Y-85054732D01*
X172090543Y-85049356D01*
X172092606Y-85044378D01*
X172095488Y-85015114D01*
X172095488Y-84586542D01*
X172366917Y-84586542D01*
X172366917Y-85015114D01*
X172369799Y-85044378D01*
X172371862Y-85049358D01*
X172372244Y-85054733D01*
X172382753Y-85082196D01*
X172454182Y-85225053D01*
X172462110Y-85237648D01*
X172463625Y-85241305D01*
X172467004Y-85245422D01*
X172469847Y-85249939D01*
X172472841Y-85252536D01*
X172482279Y-85264036D01*
X172553707Y-85335465D01*
X172565212Y-85344907D01*
X172567807Y-85347899D01*
X172572317Y-85350738D01*
X172576438Y-85354120D01*
X172580097Y-85355635D01*
X172592692Y-85363564D01*
X172735550Y-85434992D01*
X172763013Y-85445502D01*
X172768388Y-85445883D01*
X172773367Y-85447946D01*
X172802631Y-85450828D01*
X173016917Y-85450828D01*
X173046181Y-85447946D01*
X173051159Y-85445883D01*
X173056535Y-85445502D01*
X173083999Y-85434992D01*
X173226856Y-85363564D01*
X173239449Y-85355636D01*
X173243109Y-85354121D01*
X173247228Y-85350739D01*
X173251742Y-85347899D01*
X173254338Y-85344905D01*
X173265840Y-85335466D01*
X173337269Y-85264037D01*
X173346710Y-85252532D01*
X173349702Y-85249938D01*
X173352540Y-85245428D01*
X173355924Y-85241306D01*
X173357440Y-85237644D01*
X173365367Y-85225053D01*
X173436795Y-85082195D01*
X173447305Y-85054732D01*
X173447686Y-85049356D01*
X173449749Y-85044378D01*
X173452631Y-85015114D01*
X173452631Y-84586542D01*
X173449749Y-84557278D01*
X173447686Y-84552299D01*
X173447305Y-84546924D01*
X173436795Y-84519461D01*
X173365367Y-84376603D01*
X173357438Y-84364008D01*
X173355923Y-84360349D01*
X173352541Y-84356228D01*
X173349702Y-84351718D01*
X173346710Y-84349123D01*
X173337268Y-84337618D01*
X173265839Y-84266190D01*
X173254339Y-84256752D01*
X173251742Y-84253758D01*
X173247225Y-84250915D01*
X173243108Y-84247536D01*
X173239451Y-84246021D01*
X173226856Y-84238093D01*
X173083999Y-84166664D01*
X173056536Y-84156155D01*
X173051161Y-84155773D01*
X173046181Y-84153710D01*
X173016917Y-84150828D01*
X172802631Y-84150828D01*
X172773367Y-84153710D01*
X172768386Y-84155773D01*
X172763012Y-84156155D01*
X172735548Y-84166664D01*
X172592692Y-84238093D01*
X172580100Y-84246019D01*
X172576438Y-84247536D01*
X172572315Y-84250919D01*
X172567806Y-84253758D01*
X172565210Y-84256750D01*
X172553708Y-84266191D01*
X172482280Y-84337619D01*
X172472840Y-84349120D01*
X172469847Y-84351717D01*
X172467006Y-84356230D01*
X172463625Y-84360350D01*
X172462109Y-84364009D01*
X172454182Y-84376603D01*
X172382753Y-84519460D01*
X172372244Y-84546923D01*
X172371862Y-84552297D01*
X172369799Y-84557278D01*
X172366917Y-84586542D01*
X172095488Y-84586542D01*
X172092606Y-84557278D01*
X172090543Y-84552299D01*
X172090162Y-84546924D01*
X172079652Y-84519461D01*
X172008224Y-84376603D01*
X172000295Y-84364008D01*
X171998780Y-84360349D01*
X171995398Y-84356228D01*
X171992559Y-84351718D01*
X171989567Y-84349123D01*
X171980125Y-84337618D01*
X171908696Y-84266190D01*
X171897196Y-84256752D01*
X171894599Y-84253758D01*
X171890082Y-84250915D01*
X171885965Y-84247536D01*
X171882308Y-84246021D01*
X171869713Y-84238093D01*
X171726856Y-84166664D01*
X171699393Y-84156155D01*
X171694018Y-84155773D01*
X171689038Y-84153710D01*
X171659774Y-84150828D01*
X171381203Y-84150828D01*
X171381203Y-83800828D01*
X173795489Y-83800828D01*
X173795489Y-85300828D01*
X173798371Y-85330092D01*
X173820769Y-85384164D01*
X173862153Y-85425548D01*
X173916225Y-85447946D01*
X173974753Y-85447946D01*
X174028825Y-85425548D01*
X174070209Y-85384164D01*
X174092607Y-85330092D01*
X174095489Y-85300828D01*
X174095489Y-84476961D01*
X174309562Y-84935690D01*
X174315908Y-84946403D01*
X174317229Y-84950035D01*
X174319580Y-84952603D01*
X174324549Y-84960990D01*
X174341354Y-84976380D01*
X174356756Y-84993198D01*
X174362799Y-84996018D01*
X174367712Y-85000517D01*
X174389132Y-85008306D01*
X174409794Y-85017948D01*
X174416451Y-85018240D01*
X174422714Y-85020518D01*
X174445493Y-85019517D01*
X174468264Y-85020518D01*
X174474523Y-85018241D01*
X174481185Y-85017949D01*
X174501852Y-85008304D01*
X174523267Y-85000517D01*
X174528180Y-84996017D01*
X174534222Y-84993198D01*
X174549617Y-84976385D01*
X174566430Y-84960990D01*
X174571398Y-84952601D01*
X174573749Y-84950035D01*
X174575068Y-84946405D01*
X174581416Y-84935690D01*
X174795489Y-84476962D01*
X174795489Y-85300828D01*
X174798371Y-85330092D01*
X174820769Y-85384164D01*
X174862153Y-85425548D01*
X174916225Y-85447946D01*
X174974753Y-85447946D01*
X175028825Y-85425548D01*
X175070209Y-85384164D01*
X175092607Y-85330092D01*
X175095489Y-85300828D01*
X175095489Y-83800828D01*
X175093594Y-83781590D01*
X175093750Y-83778052D01*
X175093058Y-83776151D01*
X175092607Y-83771564D01*
X175082646Y-83747518D01*
X175073749Y-83723050D01*
X175071489Y-83720582D01*
X175070209Y-83717492D01*
X175051811Y-83699094D01*
X175034222Y-83679887D01*
X175031188Y-83678471D01*
X175028825Y-83676108D01*
X175004794Y-83666154D01*
X174981185Y-83655136D01*
X174977840Y-83654989D01*
X174974753Y-83653710D01*
X174948729Y-83653710D01*
X174922714Y-83652567D01*
X174919571Y-83653710D01*
X174916225Y-83653710D01*
X174892172Y-83663673D01*
X174867712Y-83672568D01*
X174865244Y-83674827D01*
X174862153Y-83676108D01*
X174843744Y-83694516D01*
X174824549Y-83712095D01*
X174822199Y-83716061D01*
X174820769Y-83717492D01*
X174819413Y-83720764D01*
X174809562Y-83737395D01*
X174445489Y-84517551D01*
X174081416Y-83737395D01*
X174071562Y-83720760D01*
X174070209Y-83717492D01*
X174068780Y-83716063D01*
X174066430Y-83712095D01*
X174047222Y-83694505D01*
X174028825Y-83676108D01*
X174025734Y-83674827D01*
X174023267Y-83672568D01*
X173998801Y-83663671D01*
X173974753Y-83653710D01*
X173971407Y-83653710D01*
X173968264Y-83652567D01*
X173942260Y-83653710D01*
X173916225Y-83653710D01*
X173913134Y-83654990D01*
X173909794Y-83655137D01*
X173886198Y-83666147D01*
X173862153Y-83676108D01*
X173859789Y-83678471D01*
X173856756Y-83679887D01*
X173839166Y-83699094D01*
X173820769Y-83717492D01*
X173819488Y-83720582D01*
X173817229Y-83723050D01*
X173808332Y-83747515D01*
X173798371Y-83771564D01*
X173797919Y-83776152D01*
X173797228Y-83778053D01*
X173797383Y-83781591D01*
X173795489Y-83800828D01*
X171381203Y-83800828D01*
X171378321Y-83771564D01*
X171355923Y-83717492D01*
X171314539Y-83676108D01*
X171260467Y-83653710D01*
X171201939Y-83653710D01*
X171147867Y-83676108D01*
X171106483Y-83717492D01*
X171084085Y-83771564D01*
X171081203Y-83800828D01*
X169309774Y-83800828D01*
X169306892Y-83771564D01*
X169284494Y-83717492D01*
X169243110Y-83676108D01*
X169189038Y-83653710D01*
X169130510Y-83653710D01*
X169076438Y-83676108D01*
X169035054Y-83717492D01*
X169012656Y-83771564D01*
X169009774Y-83800828D01*
X169009774Y-85051132D01*
X168976541Y-85117596D01*
X168878406Y-85166664D01*
X168853521Y-85182329D01*
X168815174Y-85226544D01*
X168796666Y-85282066D01*
X168515432Y-85282066D01*
X168579653Y-85153623D01*
X168590162Y-85126160D01*
X168590543Y-85120784D01*
X168592606Y-85115806D01*
X168595488Y-85086542D01*
X168595488Y-84800989D01*
X168595489Y-84800985D01*
X168595488Y-84800979D01*
X168595488Y-84515114D01*
X168592606Y-84485850D01*
X168590543Y-84480871D01*
X168590162Y-84475496D01*
X168579652Y-84448033D01*
X168508224Y-84305175D01*
X168505143Y-84300281D01*
X168504374Y-84297973D01*
X168501880Y-84295097D01*
X168492559Y-84280290D01*
X168478352Y-84267969D01*
X168466028Y-84253758D01*
X168451217Y-84244435D01*
X168448344Y-84241943D01*
X168446036Y-84241173D01*
X168441142Y-84238093D01*
X168298285Y-84166664D01*
X168270822Y-84156155D01*
X168265447Y-84155773D01*
X168260467Y-84153710D01*
X168231203Y-84150828D01*
X167945488Y-84150828D01*
X167916224Y-84153710D01*
X167911243Y-84155773D01*
X167905869Y-84156155D01*
X167878405Y-84166664D01*
X167735549Y-84238093D01*
X167730654Y-84241173D01*
X167728347Y-84241943D01*
X167725472Y-84244435D01*
X167710663Y-84253758D01*
X167698339Y-84267967D01*
X167684132Y-84280289D01*
X167674812Y-84295094D01*
X167672316Y-84297973D01*
X167671545Y-84300284D01*
X167668467Y-84305175D01*
X167597039Y-84448032D01*
X167586529Y-84475496D01*
X167586147Y-84480871D01*
X167584085Y-84485850D01*
X167581203Y-84515114D01*
X166171094Y-84515114D01*
X166229607Y-84351279D01*
X166236736Y-84322750D01*
X166233829Y-84264295D01*
X166208775Y-84211403D01*
X166165386Y-84172123D01*
X166110268Y-84152438D01*
X166051813Y-84155345D01*
X165998921Y-84180399D01*
X165959641Y-84223788D01*
X165947085Y-84250378D01*
X165731203Y-84854847D01*
X165515321Y-84250378D01*
X165502765Y-84223788D01*
X165463485Y-84180399D01*
X165410593Y-84155345D01*
X165352138Y-84152438D01*
X165297020Y-84172123D01*
X165253631Y-84211403D01*
X165228577Y-84264295D01*
X165225670Y-84322750D01*
X165016299Y-84322750D01*
X164948153Y-84050162D01*
X164947381Y-84048003D01*
X164947305Y-84046923D01*
X164942644Y-84034742D01*
X164938260Y-84022471D01*
X164937615Y-84021601D01*
X164936796Y-84019459D01*
X164865367Y-83876603D01*
X164857440Y-83864011D01*
X164855924Y-83860349D01*
X164852540Y-83856226D01*
X164849702Y-83851717D01*
X164846709Y-83849121D01*
X164837269Y-83837619D01*
X164765841Y-83766191D01*
X164754339Y-83756751D01*
X164751743Y-83753758D01*
X164747229Y-83750917D01*
X164743110Y-83747536D01*
X164739450Y-83746020D01*
X164726857Y-83738093D01*
X164583999Y-83666664D01*
X164556536Y-83656154D01*
X164551158Y-83655771D01*
X164546181Y-83653710D01*
X164516917Y-83650828D01*
X164374060Y-83650828D01*
X164344796Y-83653710D01*
X164339815Y-83655773D01*
X164334441Y-83656155D01*
X164306977Y-83666664D01*
X164164121Y-83738093D01*
X164151529Y-83746019D01*
X164147867Y-83747536D01*
X164143744Y-83750919D01*
X164139235Y-83753758D01*
X164136639Y-83756750D01*
X164125137Y-83766191D01*
X164053709Y-83837619D01*
X164044269Y-83849120D01*
X164041276Y-83851717D01*
X164038435Y-83856230D01*
X164035054Y-83860350D01*
X164033538Y-83864009D01*
X164025611Y-83876603D01*
X163954182Y-84019460D01*
X163953362Y-84021600D01*
X163952718Y-84022471D01*
X163948331Y-84034748D01*
X163943673Y-84046923D01*
X163943596Y-84048003D01*
X163942825Y-84050162D01*
X163871396Y-84335877D01*
X163870646Y-84340948D01*
X163869799Y-84342993D01*
X163868713Y-84354015D01*
X163867094Y-84364966D01*
X163867419Y-84367153D01*
X163866917Y-84372257D01*
X162881203Y-84372257D01*
X162880700Y-84367153D01*
X162881026Y-84364966D01*
X162879406Y-84354015D01*
X162878321Y-84342993D01*
X162877473Y-84340948D01*
X162876724Y-84335877D01*
X162805296Y-84050162D01*
X162804524Y-84048003D01*
X162804448Y-84046923D01*
X162799787Y-84034742D01*
X162795403Y-84022471D01*
X162794758Y-84021601D01*
X162793939Y-84019459D01*
X162722510Y-83876603D01*
X162714583Y-83864011D01*
X162713067Y-83860349D01*
X162709683Y-83856226D01*
X162706845Y-83851717D01*
X162703852Y-83849121D01*
X162694412Y-83837619D01*
X162622984Y-83766191D01*
X162611482Y-83756751D01*
X162608886Y-83753758D01*
X162604372Y-83750917D01*
X162600253Y-83747536D01*
X162596593Y-83746020D01*
X162584000Y-83738093D01*
X162441142Y-83666664D01*
X162413679Y-83656154D01*
X162408301Y-83655771D01*
X162403324Y-83653710D01*
X162374060Y-83650828D01*
X162231203Y-83650828D01*
X162201939Y-83653710D01*
X162196958Y-83655773D01*
X162191584Y-83656155D01*
X162164120Y-83666664D01*
X162021264Y-83738093D01*
X162008672Y-83746019D01*
X162005010Y-83747536D01*
X162000887Y-83750919D01*
X161996378Y-83753758D01*
X161993782Y-83756750D01*
X161982280Y-83766191D01*
X161910852Y-83837619D01*
X161901412Y-83849120D01*
X161898419Y-83851717D01*
X161895578Y-83856230D01*
X161892197Y-83860350D01*
X161890681Y-83864009D01*
X161882754Y-83876603D01*
X161811325Y-84019460D01*
X161810505Y-84021600D01*
X161809861Y-84022471D01*
X161805474Y-84034748D01*
X161800816Y-84046923D01*
X161800739Y-84048003D01*
X161799968Y-84050162D01*
X161728539Y-84335877D01*
X161727789Y-84340948D01*
X161726942Y-84342993D01*
X161725856Y-84354015D01*
X161724237Y-84364966D01*
X161724562Y-84367153D01*
X161724060Y-84372257D01*
X160067869Y-84372257D01*
X159887256Y-83950828D01*
X160659775Y-83950828D01*
X160689039Y-83947946D01*
X160743111Y-83925548D01*
X160784495Y-83884164D01*
X160806893Y-83830092D01*
X160806893Y-83771564D01*
X160784495Y-83717492D01*
X160743111Y-83676108D01*
X160689039Y-83653710D01*
X160659775Y-83650828D01*
X159659775Y-83650828D01*
X159630511Y-83653710D01*
X159629649Y-83654066D01*
X159628720Y-83654078D01*
X159602658Y-83665247D01*
X159576439Y-83676108D01*
X159575780Y-83676766D01*
X159574925Y-83677133D01*
X159555134Y-83697412D01*
X159535055Y-83717492D01*
X159534697Y-83718354D01*
X159534048Y-83719020D01*
X159523529Y-83745315D01*
X159512657Y-83771564D01*
X159512657Y-83772497D01*
X159512312Y-83773360D01*
X159345645Y-83773360D01*
X159345645Y-83484161D01*
X175262156Y-83484161D01*
X175262156Y-85617495D01*
G37*
D11*
%TO.P,J1,1,1*%
%TO.N,SDA*%
X97500000Y-100500000D03*
D12*
%TO.P,J1,2,2*%
%TO.N,SCL*%
X99500000Y-100500000D03*
%TO.P,J1,3,3*%
%TO.N,VCC*%
X101500000Y-100500000D03*
%TO.P,J1,4,4*%
%TO.N,GND*%
X103500000Y-100500000D03*
%TD*%
%TO.P,J4,2,2*%
%TO.N,GND*%
X157800000Y-99450000D03*
D11*
%TO.P,J4,1,1*%
%TO.N,PS_OUT*%
X155800000Y-99450000D03*
%TD*%
%TO.P,J5,1,1*%
%TO.N,ANODE_OUT*%
X197525000Y-78275000D03*
D12*
%TO.P,J5,2,2*%
%TO.N,GND1*%
X195525000Y-78275000D03*
%TD*%
D13*
%TO.P,VR1,1,CCW*%
%TO.N,Net-(VR1-CCW)*%
X153700000Y-66460000D03*
D14*
%TO.P,VR1,2,WIPER*%
%TO.N,Net-(U3-IN-)*%
X153700000Y-69000000D03*
%TO.P,VR1,3,CW*%
%TO.N,GND*%
X153700000Y-71540000D03*
%TD*%
D11*
%TO.P,J3,1,1*%
%TO.N,ANODE_IN*%
X123250000Y-68000000D03*
D12*
%TO.P,J3,2,2*%
%TO.N,GND*%
X123250000Y-70000000D03*
%TD*%
D13*
%TO.P,VR2,1,CCW*%
%TO.N,Net-(U8-FB)*%
X142000000Y-104000000D03*
D14*
%TO.P,VR2,2,WIPER*%
X144540000Y-104000000D03*
%TO.P,VR2,3,CW*%
%TO.N,Net-(VR2-CW)*%
X147080000Y-104000000D03*
%TD*%
D11*
%TO.P,J6,1,1*%
%TO.N,PS_IN*%
X204025000Y-78275000D03*
D12*
%TO.P,J6,2,2*%
%TO.N,GND1*%
X202025000Y-78275000D03*
%TD*%
D15*
%TO.P,U9,1*%
%TO.N,ANODE_OUT*%
X197175000Y-81225000D03*
D16*
%TO.P,U9,2*%
%TO.N,unconnected-(U9-Pad2)*%
X203025000Y-81375000D03*
D15*
%TO.P,U9,3*%
%TO.N,Net-(C22-Pad2)*%
X202875000Y-87225000D03*
D16*
%TO.P,U9,4*%
%TO.N,N/C*%
X197025000Y-87075000D03*
D17*
%TO.P,U9,5,EP*%
%TO.N,unconnected-(U9-EP-Pad5)*%
X200025000Y-84225000D03*
%TD*%
D12*
%TO.P,J2,6,6*%
%TO.N,UART1RX*%
X118000000Y-100500000D03*
%TO.P,J2,5,5*%
%TO.N,UART1TX*%
X116000000Y-100500000D03*
%TO.P,J2,4,4*%
%TO.N,CS*%
X114000000Y-100500000D03*
%TO.P,J2,3,3*%
%TO.N,RX*%
X112000000Y-100500000D03*
%TO.P,J2,2,2*%
%TO.N,TX*%
X110000000Y-100500000D03*
D11*
%TO.P,J2,1,1*%
%TO.N,SCK*%
X108000000Y-100500000D03*
%TD*%
D18*
%TO.P,U1,43,SWDIO*%
%TO.N,unconnected-(U1-SWDIO-Pad43)_1*%
X137530000Y-81350000D03*
D19*
%TO.P,U1,42,GND*%
%TO.N,GND*%
X137530000Y-83890000D03*
D18*
%TO.P,U1,41,SWCLK*%
%TO.N,unconnected-(U1-SWCLK-Pad41)_1*%
X137530000Y-86430000D03*
%TO.P,U1,40,VBUS*%
%TO.N,unconnected-(U1-VBUS-Pad40)*%
X89500000Y-75000000D03*
%TO.P,U1,39,VSYS*%
%TO.N,+5V*%
X92040000Y-75000000D03*
D19*
%TO.P,U1,38,GND*%
%TO.N,GND*%
X94580000Y-75000000D03*
D18*
%TO.P,U1,37,3V3_EN*%
%TO.N,unconnected-(U1-3V3_EN-Pad37)_1*%
X97120000Y-75000000D03*
%TO.P,U1,36,3V3*%
%TO.N,Net-(U1-3V3)*%
X99660000Y-75000000D03*
%TO.P,U1,35,ADC_VREF*%
%TO.N,VREF*%
X102200000Y-75000000D03*
%TO.P,U1,34,GPIO28_ADC2*%
%TO.N,GND*%
X104740000Y-75000000D03*
D19*
%TO.P,U1,33,AGND*%
%TO.N,Net-(JP1-A)*%
X107280000Y-75000000D03*
D18*
%TO.P,U1,32,GPIO27_ADC1*%
%TO.N,PEAK*%
X109820000Y-75000000D03*
%TO.P,U1,31,GPIO26_ADC0*%
%TO.N,SIG*%
X112360000Y-75000000D03*
%TO.P,U1,30,RUN*%
%TO.N,unconnected-(U1-RUN-Pad30)_1*%
X114900000Y-75000000D03*
%TO.P,U1,29,GPIO22*%
%TO.N,RST*%
X117440000Y-75000000D03*
D19*
%TO.P,U1,28,GND*%
%TO.N,GND*%
X119980000Y-75000000D03*
D18*
%TO.P,U1,27,GPIO21*%
%TO.N,unconnected-(U1-GPIO21-Pad27)_1*%
X122520000Y-75000000D03*
%TO.P,U1,26,GPIO20*%
%TO.N,unconnected-(U1-GPIO20-Pad26)*%
X125060000Y-75000000D03*
%TO.P,U1,25,GPIO19*%
%TO.N,unconnected-(U1-GPIO19-Pad25)*%
X127600000Y-75000000D03*
%TO.P,U1,24,GPIO18*%
%TO.N,INT*%
X130140000Y-75000000D03*
D19*
%TO.P,U1,23,GND*%
%TO.N,GND*%
X132680000Y-75000000D03*
D18*
%TO.P,U1,22,GPIO17*%
%TO.N,unconnected-(U1-GPIO17-Pad22)*%
X135220000Y-75000000D03*
%TO.P,U1,21,GPIO16*%
%TO.N,unconnected-(U1-GPIO16-Pad21)*%
X137760000Y-75000000D03*
%TO.P,U1,20,GPIO15*%
%TO.N,unconnected-(U1-GPIO15-Pad20)_1*%
X137760000Y-92780000D03*
%TO.P,U1,19,GPIO14*%
%TO.N,Net-(U1-GPIO14)*%
X135220000Y-92780000D03*
D19*
%TO.P,U1,18,GND*%
%TO.N,GND*%
X132680000Y-92780000D03*
D18*
%TO.P,U1,17,GPIO13*%
%TO.N,unconnected-(U1-GPIO13-Pad17)*%
X130140000Y-92780000D03*
%TO.P,U1,16,GPIO12*%
%TO.N,unconnected-(U1-GPIO12-Pad16)_1*%
X127600000Y-92780000D03*
%TO.P,U1,15,GPIO11*%
%TO.N,unconnected-(U1-GPIO11-Pad15)_1*%
X125060000Y-92780000D03*
%TO.P,U1,14,GPIO10*%
%TO.N,unconnected-(U1-GPIO10-Pad14)_1*%
X122520000Y-92780000D03*
D19*
%TO.P,U1,13,GND*%
%TO.N,GND*%
X119980000Y-92780000D03*
D18*
%TO.P,U1,12,GPIO9*%
%TO.N,UART1RX*%
X117440000Y-92780000D03*
%TO.P,U1,11,GPIO8*%
%TO.N,UART1TX*%
X114900000Y-92780000D03*
%TO.P,U1,10,GPIO7*%
%TO.N,TCKR*%
X112360000Y-92780000D03*
%TO.P,U1,9,GPIO6*%
%TO.N,unconnected-(U1-GPIO6-Pad9)*%
X109820000Y-92780000D03*
D19*
%TO.P,U1,8,GND*%
%TO.N,GND*%
X107280000Y-92780000D03*
D18*
%TO.P,U1,7,GPIO5*%
%TO.N,CS*%
X104740000Y-92780000D03*
%TO.P,U1,6,GPIO4*%
%TO.N,RX*%
X102200000Y-92780000D03*
%TO.P,U1,5,GPIO3*%
%TO.N,TX*%
X99660000Y-92780000D03*
%TO.P,U1,4,GPIO2*%
%TO.N,SCK*%
X97120000Y-92780000D03*
D19*
%TO.P,U1,3,GND*%
%TO.N,GND*%
X94580000Y-92780000D03*
D18*
%TO.P,U1,2,GPIO1*%
%TO.N,SCL*%
X92040000Y-92780000D03*
%TO.P,U1,1,GPIO0*%
%TO.N,SDA*%
X89500000Y-92780000D03*
%TD*%
D20*
%TO.N,GND*%
X127500000Y-65000000D03*
D21*
%TO.N,*%
X174470000Y-62000000D03*
X174470000Y-106000000D03*
X130500000Y-62000000D03*
X130500000Y-106000000D03*
D22*
%TO.N,unconnected-(U1-VBUS-Pad40)*%
X89500000Y-71000000D03*
D20*
%TO.N,GND*%
X141000000Y-69000000D03*
D22*
X94550000Y-71000000D03*
D20*
X133720000Y-61000000D03*
D22*
%TO.N,+5V*%
X92050000Y-71000000D03*
D20*
%TO.N,RST*%
X140700000Y-62050000D03*
%TO.N,VCC*%
X96200000Y-68500000D03*
%TO.N,Net-(C22-Pad2)*%
X206525000Y-88225000D03*
%TD*%
D23*
%TO.N,VCC*%
X101000000Y-102000000D02*
X91500000Y-102000000D01*
X101500000Y-101500000D02*
X101000000Y-102000000D01*
X91500000Y-102000000D02*
X90890000Y-101390000D01*
X90890000Y-101390000D02*
X90890000Y-68810000D01*
X101500000Y-100500000D02*
X101500000Y-101500000D01*
X90890000Y-68810000D02*
X91200000Y-68500000D01*
X91200000Y-68500000D02*
X96200000Y-68500000D01*
%TO.N,TX*%
X102500000Y-98000000D02*
X99660000Y-95160000D01*
X107408000Y-98000000D02*
X102500000Y-98000000D01*
X110000000Y-100500000D02*
X109908000Y-100500000D01*
X109908000Y-100500000D02*
X107408000Y-98000000D01*
X99660000Y-95160000D02*
X99660000Y-92780000D01*
%TO.N,CS*%
X104740000Y-95240000D02*
X104740000Y-92780000D01*
X106500000Y-97000000D02*
X104740000Y-95240000D01*
X110500000Y-97000000D02*
X106500000Y-97000000D01*
X114000000Y-100500000D02*
X110500000Y-97000000D01*
%TO.N,RX*%
X104330000Y-97500000D02*
X102200000Y-95370000D01*
X102200000Y-95370000D02*
X102200000Y-92780000D01*
X109000000Y-97500000D02*
X104330000Y-97500000D01*
X112000000Y-100500000D02*
X109000000Y-97500000D01*
%TO.N,SCK*%
X100750000Y-99000000D02*
X97120000Y-95370000D01*
X106500000Y-99000000D02*
X100750000Y-99000000D01*
X97120000Y-95370000D02*
X97120000Y-92780000D01*
X108000000Y-100500000D02*
X106500000Y-99000000D01*
%TO.N,RST*%
X117440000Y-73560000D02*
X117440000Y-75090000D01*
X119500000Y-71500000D02*
X117440000Y-73560000D01*
X129200000Y-71500000D02*
X119500000Y-71500000D01*
X140700000Y-62050000D02*
X138650000Y-62050000D01*
X138650000Y-62050000D02*
X129200000Y-71500000D01*
%TO.N,GND*%
X130270000Y-80000000D02*
X122390000Y-80000000D01*
%TO.N,Net-(C22-Pad2)*%
X202875000Y-87225000D02*
X202875000Y-88100000D01*
X203000000Y-88225000D02*
X206525000Y-88225000D01*
X202875000Y-88100000D02*
X203000000Y-88225000D01*
%TO.N,ANODE_OUT*%
X197175000Y-81225000D02*
X197525000Y-80875000D01*
X197525000Y-80875000D02*
X197525000Y-78275000D01*
%TD*%
%TA.AperFunction,Conductor*%
%TO.N,GND*%
G36*
X129508461Y-59770185D02*
G01*
X129554216Y-59822989D01*
X129564160Y-59892147D01*
X129535135Y-59955703D01*
X129496266Y-59985712D01*
X129372335Y-60046828D01*
X129127041Y-60210728D01*
X128905241Y-60405241D01*
X128710728Y-60627041D01*
X128546828Y-60872334D01*
X128416349Y-61136919D01*
X128321521Y-61416269D01*
X128321518Y-61416283D01*
X128263968Y-61705609D01*
X128263964Y-61705636D01*
X128244671Y-61999992D01*
X128244671Y-62000007D01*
X128263964Y-62294363D01*
X128263965Y-62294373D01*
X128263966Y-62294380D01*
X128263968Y-62294390D01*
X128321518Y-62583716D01*
X128321521Y-62583730D01*
X128416349Y-62863080D01*
X128546825Y-63127660D01*
X128546829Y-63127667D01*
X128710725Y-63372955D01*
X128905241Y-63594758D01*
X129127044Y-63789274D01*
X129333627Y-63927308D01*
X129372335Y-63953172D01*
X129636923Y-64083652D01*
X129916278Y-64178481D01*
X130205620Y-64236034D01*
X130233888Y-64237886D01*
X130499993Y-64255329D01*
X130500000Y-64255329D01*
X130500007Y-64255329D01*
X130735675Y-64239881D01*
X130794380Y-64236034D01*
X131083722Y-64178481D01*
X131363077Y-64083652D01*
X131627665Y-63953172D01*
X131872957Y-63789273D01*
X132094758Y-63594758D01*
X132289273Y-63372957D01*
X132453172Y-63127665D01*
X132583652Y-62863077D01*
X132678481Y-62583722D01*
X132736034Y-62294380D01*
X132755329Y-62000000D01*
X132755329Y-61999992D01*
X132736035Y-61705636D01*
X132736034Y-61705620D01*
X132678481Y-61416278D01*
X132583652Y-61136923D01*
X132453172Y-60872336D01*
X132289273Y-60627043D01*
X132246655Y-60578447D01*
X132094758Y-60405241D01*
X131872955Y-60210725D01*
X131627667Y-60046829D01*
X131627660Y-60046825D01*
X131503734Y-59985712D01*
X131452315Y-59938407D01*
X131434633Y-59870812D01*
X131456303Y-59804387D01*
X131510444Y-59760223D01*
X131558578Y-59750500D01*
X173411422Y-59750500D01*
X173478461Y-59770185D01*
X173524216Y-59822989D01*
X173534160Y-59892147D01*
X173505135Y-59955703D01*
X173466266Y-59985712D01*
X173342335Y-60046828D01*
X173097041Y-60210728D01*
X172875241Y-60405241D01*
X172680728Y-60627041D01*
X172516828Y-60872334D01*
X172386349Y-61136919D01*
X172291521Y-61416269D01*
X172291518Y-61416283D01*
X172233968Y-61705609D01*
X172233964Y-61705636D01*
X172214671Y-61999992D01*
X172214671Y-62000007D01*
X172233964Y-62294363D01*
X172233965Y-62294373D01*
X172233966Y-62294380D01*
X172233968Y-62294390D01*
X172291518Y-62583716D01*
X172291521Y-62583730D01*
X172386349Y-62863080D01*
X172516825Y-63127660D01*
X172516829Y-63127667D01*
X172680725Y-63372955D01*
X172875241Y-63594758D01*
X173097044Y-63789274D01*
X173303627Y-63927308D01*
X173342335Y-63953172D01*
X173606923Y-64083652D01*
X173886278Y-64178481D01*
X174175620Y-64236034D01*
X174203888Y-64237886D01*
X174469993Y-64255329D01*
X174470000Y-64255329D01*
X174470007Y-64255329D01*
X174705675Y-64239881D01*
X174764380Y-64236034D01*
X175053722Y-64178481D01*
X175333077Y-64083652D01*
X175597665Y-63953172D01*
X175842957Y-63789273D01*
X176064758Y-63594758D01*
X176259273Y-63372957D01*
X176423172Y-63127665D01*
X176553652Y-62863077D01*
X176648481Y-62583722D01*
X176706034Y-62294380D01*
X176725329Y-62000000D01*
X176725329Y-61999992D01*
X176706035Y-61705636D01*
X176706034Y-61705620D01*
X176648481Y-61416278D01*
X176553652Y-61136923D01*
X176423172Y-60872336D01*
X176259273Y-60627043D01*
X176216655Y-60578447D01*
X176064758Y-60405241D01*
X175842955Y-60210725D01*
X175597667Y-60046829D01*
X175597660Y-60046825D01*
X175473734Y-59985712D01*
X175422315Y-59938407D01*
X175404633Y-59870812D01*
X175426303Y-59804387D01*
X175480444Y-59760223D01*
X175528578Y-59750500D01*
X182375500Y-59750500D01*
X182442539Y-59770185D01*
X182488294Y-59822989D01*
X182499500Y-59874500D01*
X182499500Y-108125500D01*
X182479815Y-108192539D01*
X182427011Y-108238294D01*
X182375500Y-108249500D01*
X175528578Y-108249500D01*
X175461539Y-108229815D01*
X175415784Y-108177011D01*
X175405840Y-108107853D01*
X175434865Y-108044297D01*
X175473734Y-108014288D01*
X175505972Y-107998389D01*
X175597665Y-107953172D01*
X175842957Y-107789273D01*
X176064758Y-107594758D01*
X176259273Y-107372957D01*
X176423172Y-107127665D01*
X176553652Y-106863077D01*
X176648481Y-106583722D01*
X176706034Y-106294380D01*
X176725329Y-106000000D01*
X176725329Y-105999992D01*
X176706035Y-105705636D01*
X176706034Y-105705620D01*
X176648481Y-105416278D01*
X176553652Y-105136923D01*
X176423172Y-104872336D01*
X176259273Y-104627043D01*
X176216655Y-104578447D01*
X176064758Y-104405241D01*
X175842955Y-104210725D01*
X175597667Y-104046829D01*
X175597660Y-104046825D01*
X175333080Y-103916349D01*
X175053730Y-103821521D01*
X175053724Y-103821519D01*
X175053722Y-103821519D01*
X174764380Y-103763966D01*
X174764373Y-103763965D01*
X174764363Y-103763964D01*
X174470007Y-103744671D01*
X174469993Y-103744671D01*
X174175636Y-103763964D01*
X174175624Y-103763965D01*
X174175620Y-103763966D01*
X174175612Y-103763967D01*
X174175609Y-103763968D01*
X173886283Y-103821518D01*
X173886269Y-103821521D01*
X173606919Y-103916349D01*
X173342334Y-104046828D01*
X173097041Y-104210728D01*
X172875241Y-104405241D01*
X172680728Y-104627041D01*
X172516828Y-104872334D01*
X172386349Y-105136919D01*
X172291521Y-105416269D01*
X172291518Y-105416283D01*
X172233968Y-105705609D01*
X172233964Y-105705636D01*
X172214671Y-105999992D01*
X172214671Y-106000007D01*
X172233964Y-106294363D01*
X172233965Y-106294373D01*
X172233966Y-106294380D01*
X172233968Y-106294390D01*
X172291518Y-106583716D01*
X172291521Y-106583730D01*
X172386349Y-106863080D01*
X172516825Y-107127660D01*
X172516829Y-107127667D01*
X172680725Y-107372955D01*
X172875241Y-107594758D01*
X173097044Y-107789274D01*
X173342332Y-107953170D01*
X173342339Y-107953174D01*
X173466266Y-108014288D01*
X173517685Y-108061593D01*
X173535367Y-108129188D01*
X173513697Y-108195613D01*
X173459556Y-108239777D01*
X173411422Y-108249500D01*
X131558578Y-108249500D01*
X131491539Y-108229815D01*
X131445784Y-108177011D01*
X131435840Y-108107853D01*
X131464865Y-108044297D01*
X131503734Y-108014288D01*
X131535972Y-107998389D01*
X131627665Y-107953172D01*
X131872957Y-107789273D01*
X132094758Y-107594758D01*
X132289273Y-107372957D01*
X132453172Y-107127665D01*
X132583652Y-106863077D01*
X132678481Y-106583722D01*
X132736034Y-106294380D01*
X132755329Y-106000000D01*
X132755329Y-105999992D01*
X132736035Y-105705636D01*
X132736034Y-105705620D01*
X132678481Y-105416278D01*
X132583652Y-105136923D01*
X132453172Y-104872336D01*
X132289273Y-104627043D01*
X132246655Y-104578447D01*
X132094758Y-104405241D01*
X131872955Y-104210725D01*
X131627667Y-104046829D01*
X131627660Y-104046825D01*
X131363080Y-103916349D01*
X131083730Y-103821521D01*
X131083724Y-103821519D01*
X131083722Y-103821519D01*
X130794380Y-103763966D01*
X130794373Y-103763965D01*
X130794363Y-103763964D01*
X130500007Y-103744671D01*
X130499993Y-103744671D01*
X130205636Y-103763964D01*
X130205624Y-103763965D01*
X130205620Y-103763966D01*
X130205612Y-103763967D01*
X130205609Y-103763968D01*
X129916283Y-103821518D01*
X129916269Y-103821521D01*
X129636919Y-103916349D01*
X129372334Y-104046828D01*
X129127041Y-104210728D01*
X128905241Y-104405241D01*
X128710728Y-104627041D01*
X128546828Y-104872334D01*
X128416349Y-105136919D01*
X128321521Y-105416269D01*
X128321518Y-105416283D01*
X128263968Y-105705609D01*
X128263964Y-105705636D01*
X128244671Y-105999992D01*
X128244671Y-106000007D01*
X128263964Y-106294363D01*
X128263965Y-106294373D01*
X128263966Y-106294380D01*
X128263968Y-106294390D01*
X128321518Y-106583716D01*
X128321521Y-106583730D01*
X128416349Y-106863080D01*
X128546825Y-107127660D01*
X128546829Y-107127667D01*
X128710725Y-107372955D01*
X128905241Y-107594758D01*
X129127044Y-107789274D01*
X129372332Y-107953170D01*
X129372339Y-107953174D01*
X129496266Y-108014288D01*
X129547685Y-108061593D01*
X129565367Y-108129188D01*
X129543697Y-108195613D01*
X129489556Y-108239777D01*
X129441422Y-108249500D01*
X114124500Y-108249500D01*
X114057461Y-108229815D01*
X114011706Y-108177011D01*
X114000500Y-108125500D01*
X114000500Y-104162472D01*
X114000500Y-104162468D01*
X113970101Y-103990062D01*
X113910225Y-103825555D01*
X113822692Y-103673945D01*
X113822691Y-103673943D01*
X113822690Y-103673942D01*
X113710163Y-103539836D01*
X113576057Y-103427309D01*
X113430266Y-103343135D01*
X140890500Y-103343135D01*
X140890500Y-104656870D01*
X140890501Y-104656876D01*
X140896908Y-104716483D01*
X140947202Y-104851328D01*
X140947206Y-104851335D01*
X141033452Y-104966544D01*
X141033455Y-104966547D01*
X141148664Y-105052793D01*
X141148671Y-105052797D01*
X141283517Y-105103091D01*
X141283516Y-105103091D01*
X141290444Y-105103835D01*
X141343127Y-105109500D01*
X142656872Y-105109499D01*
X142716483Y-105103091D01*
X142851331Y-105052796D01*
X142966546Y-104966546D01*
X143052796Y-104851331D01*
X143103091Y-104716483D01*
X143109500Y-104656873D01*
X143109499Y-103999999D01*
X143425747Y-103999999D01*
X143425747Y-104000000D01*
X143444718Y-104204742D01*
X143444719Y-104204745D01*
X143500987Y-104402510D01*
X143500990Y-104402516D01*
X143592643Y-104586579D01*
X143690742Y-104716483D01*
X143716558Y-104750668D01*
X143868512Y-104889192D01*
X143868514Y-104889194D01*
X144043331Y-104997436D01*
X144043332Y-104997436D01*
X144043335Y-104997438D01*
X144235070Y-105071717D01*
X144437190Y-105109500D01*
X144437192Y-105109500D01*
X144642808Y-105109500D01*
X144642810Y-105109500D01*
X144844930Y-105071717D01*
X145036665Y-104997438D01*
X145211487Y-104889193D01*
X145363443Y-104750667D01*
X145487357Y-104586579D01*
X145579010Y-104402515D01*
X145579010Y-104402512D01*
X145579012Y-104402510D01*
X145635280Y-104204745D01*
X145635281Y-104204742D01*
X145654253Y-104000000D01*
X145654253Y-103999999D01*
X145965747Y-103999999D01*
X145965747Y-104000000D01*
X145984718Y-104204742D01*
X145984719Y-104204745D01*
X146040987Y-104402510D01*
X146040990Y-104402516D01*
X146132643Y-104586579D01*
X146230742Y-104716483D01*
X146256558Y-104750668D01*
X146408512Y-104889192D01*
X146408514Y-104889194D01*
X146583331Y-104997436D01*
X146583332Y-104997436D01*
X146583335Y-104997438D01*
X146775070Y-105071717D01*
X146977190Y-105109500D01*
X146977192Y-105109500D01*
X147182808Y-105109500D01*
X147182810Y-105109500D01*
X147384930Y-105071717D01*
X147576665Y-104997438D01*
X147751487Y-104889193D01*
X147903443Y-104750667D01*
X148027357Y-104586579D01*
X148119010Y-104402515D01*
X148119010Y-104402512D01*
X148119012Y-104402510D01*
X148175280Y-104204745D01*
X148175281Y-104204742D01*
X148194253Y-104000000D01*
X148194253Y-103999999D01*
X148175281Y-103795257D01*
X148175280Y-103795254D01*
X148119012Y-103597489D01*
X148119009Y-103597483D01*
X148034272Y-103427309D01*
X148027357Y-103413421D01*
X147903443Y-103249333D01*
X147831894Y-103184108D01*
X147751487Y-103110807D01*
X147751485Y-103110805D01*
X147576668Y-103002563D01*
X147576662Y-103002561D01*
X147384930Y-102928283D01*
X147182810Y-102890500D01*
X146977190Y-102890500D01*
X146775070Y-102928283D01*
X146653818Y-102975256D01*
X146583337Y-103002561D01*
X146583331Y-103002563D01*
X146408514Y-103110805D01*
X146408512Y-103110807D01*
X146256558Y-103249331D01*
X146132643Y-103413420D01*
X146040990Y-103597483D01*
X146040987Y-103597489D01*
X145984719Y-103795254D01*
X145984718Y-103795257D01*
X145965747Y-103999999D01*
X145654253Y-103999999D01*
X145635281Y-103795257D01*
X145635280Y-103795254D01*
X145579012Y-103597489D01*
X145579009Y-103597483D01*
X145494272Y-103427309D01*
X145487357Y-103413421D01*
X145363443Y-103249333D01*
X145291894Y-103184108D01*
X145211487Y-103110807D01*
X145211485Y-103110805D01*
X145036668Y-103002563D01*
X145036662Y-103002561D01*
X144844930Y-102928283D01*
X144642810Y-102890500D01*
X144437190Y-102890500D01*
X144235070Y-102928283D01*
X144113818Y-102975256D01*
X144043337Y-103002561D01*
X144043331Y-103002563D01*
X143868514Y-103110805D01*
X143868512Y-103110807D01*
X143716558Y-103249331D01*
X143592643Y-103413420D01*
X143500990Y-103597483D01*
X143500987Y-103597489D01*
X143444719Y-103795254D01*
X143444718Y-103795257D01*
X143425747Y-103999999D01*
X143109499Y-103999999D01*
X143109499Y-103343128D01*
X143103091Y-103283517D01*
X143101741Y-103279898D01*
X143052797Y-103148671D01*
X143052793Y-103148664D01*
X142966547Y-103033455D01*
X142966544Y-103033452D01*
X142851335Y-102947206D01*
X142851328Y-102947202D01*
X142716482Y-102896908D01*
X142716483Y-102896908D01*
X142656883Y-102890501D01*
X142656881Y-102890500D01*
X142656873Y-102890500D01*
X142656864Y-102890500D01*
X141343129Y-102890500D01*
X141343123Y-102890501D01*
X141283516Y-102896908D01*
X141148671Y-102947202D01*
X141148664Y-102947206D01*
X141033455Y-103033452D01*
X141033452Y-103033455D01*
X140947206Y-103148664D01*
X140947202Y-103148671D01*
X140896908Y-103283517D01*
X140890860Y-103339775D01*
X140890501Y-103343123D01*
X140890500Y-103343135D01*
X113430266Y-103343135D01*
X113424446Y-103339775D01*
X113259937Y-103279898D01*
X113087534Y-103249500D01*
X113087532Y-103249500D01*
X113065892Y-103249500D01*
X88624500Y-103249500D01*
X88557461Y-103229815D01*
X88511706Y-103177011D01*
X88500500Y-103125500D01*
X88500500Y-93967001D01*
X88520185Y-93899962D01*
X88572989Y-93854207D01*
X88642147Y-93844263D01*
X88695622Y-93865425D01*
X88822170Y-93954035D01*
X89036337Y-94053903D01*
X89264592Y-94115063D01*
X89452918Y-94131539D01*
X89499999Y-94135659D01*
X89500000Y-94135659D01*
X89500001Y-94135659D01*
X89539234Y-94132226D01*
X89735408Y-94115063D01*
X89963663Y-94053903D01*
X90113096Y-93984220D01*
X90182172Y-93973729D01*
X90245956Y-94002249D01*
X90284196Y-94060725D01*
X90289500Y-94096603D01*
X90289500Y-101303330D01*
X90289499Y-101303348D01*
X90289499Y-101469054D01*
X90289498Y-101469054D01*
X90330423Y-101621785D01*
X90345611Y-101648091D01*
X90345610Y-101648091D01*
X90345611Y-101648092D01*
X90409475Y-101758709D01*
X90409481Y-101758717D01*
X90528349Y-101877585D01*
X90528355Y-101877590D01*
X91015139Y-102364374D01*
X91015149Y-102364385D01*
X91019479Y-102368715D01*
X91019480Y-102368716D01*
X91131284Y-102480520D01*
X91218095Y-102530639D01*
X91218097Y-102530641D01*
X91268213Y-102559576D01*
X91268215Y-102559577D01*
X91420942Y-102600500D01*
X91420943Y-102600500D01*
X100913331Y-102600500D01*
X100913347Y-102600501D01*
X100920943Y-102600501D01*
X101079054Y-102600501D01*
X101079057Y-102600501D01*
X101231785Y-102559577D01*
X101281904Y-102530639D01*
X101368716Y-102480520D01*
X101480520Y-102368716D01*
X101480521Y-102368714D01*
X101980520Y-101868716D01*
X102059577Y-101731784D01*
X102100501Y-101579057D01*
X102100501Y-101555140D01*
X102120186Y-101488101D01*
X102159221Y-101449715D01*
X102198722Y-101425258D01*
X102356841Y-101281114D01*
X102485781Y-101110370D01*
X102581151Y-100918840D01*
X102581151Y-100918837D01*
X102581153Y-100918835D01*
X102639703Y-100713050D01*
X102639704Y-100713047D01*
X102659446Y-100500000D01*
X102659446Y-100499999D01*
X102639704Y-100286952D01*
X102639703Y-100286949D01*
X102581153Y-100081164D01*
X102581150Y-100081158D01*
X102485781Y-99889630D01*
X102436030Y-99823749D01*
X102417512Y-99799227D01*
X102392820Y-99733865D01*
X102407385Y-99665531D01*
X102456583Y-99615918D01*
X102516466Y-99600500D01*
X106199903Y-99600500D01*
X106266942Y-99620185D01*
X106287584Y-99636819D01*
X106809181Y-100158416D01*
X106842666Y-100219739D01*
X106845500Y-100246097D01*
X106845500Y-101201870D01*
X106845501Y-101201876D01*
X106851908Y-101261483D01*
X106902202Y-101396328D01*
X106902206Y-101396335D01*
X106988452Y-101511544D01*
X106988455Y-101511547D01*
X107103664Y-101597793D01*
X107103671Y-101597797D01*
X107238517Y-101648091D01*
X107238516Y-101648091D01*
X107245444Y-101648835D01*
X107298127Y-101654500D01*
X108701872Y-101654499D01*
X108761483Y-101648091D01*
X108896331Y-101597796D01*
X109011546Y-101511546D01*
X109085605Y-101412615D01*
X109141536Y-101370747D01*
X109211227Y-101365763D01*
X109268403Y-101395289D01*
X109301278Y-101425258D01*
X109301283Y-101425261D01*
X109301286Y-101425263D01*
X109483186Y-101537891D01*
X109483187Y-101537891D01*
X109483190Y-101537893D01*
X109682703Y-101615185D01*
X109893020Y-101654500D01*
X109893022Y-101654500D01*
X110106978Y-101654500D01*
X110106980Y-101654500D01*
X110317297Y-101615185D01*
X110516810Y-101537893D01*
X110698722Y-101425258D01*
X110856841Y-101281114D01*
X110901046Y-101222576D01*
X110957155Y-101180941D01*
X111026867Y-101176250D01*
X111088049Y-101209992D01*
X111098952Y-101222575D01*
X111143159Y-101281114D01*
X111301278Y-101425258D01*
X111301283Y-101425261D01*
X111301286Y-101425263D01*
X111483186Y-101537891D01*
X111483187Y-101537891D01*
X111483190Y-101537893D01*
X111682703Y-101615185D01*
X111893020Y-101654500D01*
X111893022Y-101654500D01*
X112106978Y-101654500D01*
X112106980Y-101654500D01*
X112317297Y-101615185D01*
X112516810Y-101537893D01*
X112698722Y-101425258D01*
X112856841Y-101281114D01*
X112901046Y-101222576D01*
X112957155Y-101180941D01*
X113026867Y-101176250D01*
X113088049Y-101209992D01*
X113098952Y-101222575D01*
X113143159Y-101281114D01*
X113301278Y-101425258D01*
X113301283Y-101425261D01*
X113301286Y-101425263D01*
X113483186Y-101537891D01*
X113483187Y-101537891D01*
X113483190Y-101537893D01*
X113682703Y-101615185D01*
X113893020Y-101654500D01*
X113893022Y-101654500D01*
X114106978Y-101654500D01*
X114106980Y-101654500D01*
X114317297Y-101615185D01*
X114516810Y-101537893D01*
X114698722Y-101425258D01*
X114856841Y-101281114D01*
X114901046Y-101222576D01*
X114957155Y-101180941D01*
X115026867Y-101176250D01*
X115088049Y-101209992D01*
X115098952Y-101222575D01*
X115143159Y-101281114D01*
X115301278Y-101425258D01*
X115301283Y-101425261D01*
X115301286Y-101425263D01*
X115483186Y-101537891D01*
X115483187Y-101537891D01*
X115483190Y-101537893D01*
X115682703Y-101615185D01*
X115893020Y-101654500D01*
X115893022Y-101654500D01*
X116106978Y-101654500D01*
X116106980Y-101654500D01*
X116317297Y-101615185D01*
X116516810Y-101537893D01*
X116698722Y-101425258D01*
X116856841Y-101281114D01*
X116901046Y-101222576D01*
X116957155Y-101180941D01*
X117026867Y-101176250D01*
X117088049Y-101209992D01*
X117098952Y-101222575D01*
X117143159Y-101281114D01*
X117301278Y-101425258D01*
X117301283Y-101425261D01*
X117301286Y-101425263D01*
X117483186Y-101537891D01*
X117483187Y-101537891D01*
X117483190Y-101537893D01*
X117682703Y-101615185D01*
X117893020Y-101654500D01*
X117893022Y-101654500D01*
X118106978Y-101654500D01*
X118106980Y-101654500D01*
X118317297Y-101615185D01*
X118516810Y-101537893D01*
X118698722Y-101425258D01*
X118856841Y-101281114D01*
X118985781Y-101110370D01*
X119081151Y-100918840D01*
X119081151Y-100918837D01*
X119081153Y-100918835D01*
X119139703Y-100713050D01*
X119139704Y-100713047D01*
X119159446Y-100500000D01*
X119159446Y-100499999D01*
X119139704Y-100286952D01*
X119139703Y-100286949D01*
X119081153Y-100081164D01*
X119081150Y-100081158D01*
X118985781Y-99889630D01*
X118856841Y-99718886D01*
X118698722Y-99574742D01*
X118698716Y-99574738D01*
X118698713Y-99574736D01*
X118516813Y-99462108D01*
X118516807Y-99462106D01*
X118500891Y-99455940D01*
X118317297Y-99384815D01*
X118106980Y-99345500D01*
X117893020Y-99345500D01*
X117682703Y-99384815D01*
X117637812Y-99402206D01*
X117483192Y-99462106D01*
X117483186Y-99462108D01*
X117301286Y-99574736D01*
X117301283Y-99574738D01*
X117301279Y-99574740D01*
X117301278Y-99574742D01*
X117268406Y-99604709D01*
X117143157Y-99718887D01*
X117098954Y-99777422D01*
X117042844Y-99819058D01*
X116973132Y-99823749D01*
X116911951Y-99790007D01*
X116901046Y-99777422D01*
X116856842Y-99718887D01*
X116856841Y-99718886D01*
X116698722Y-99574742D01*
X116698716Y-99574738D01*
X116698713Y-99574736D01*
X116516813Y-99462108D01*
X116516807Y-99462106D01*
X116500891Y-99455940D01*
X116317297Y-99384815D01*
X116106980Y-99345500D01*
X115893020Y-99345500D01*
X115682703Y-99384815D01*
X115637812Y-99402206D01*
X115483192Y-99462106D01*
X115483186Y-99462108D01*
X115301286Y-99574736D01*
X115301283Y-99574738D01*
X115301279Y-99574740D01*
X115301278Y-99574742D01*
X115268406Y-99604709D01*
X115143157Y-99718887D01*
X115098954Y-99777422D01*
X115042844Y-99819058D01*
X114973132Y-99823749D01*
X114911951Y-99790007D01*
X114901046Y-99777422D01*
X114856842Y-99718887D01*
X114856841Y-99718886D01*
X114698722Y-99574742D01*
X114698716Y-99574738D01*
X114698713Y-99574736D01*
X114516813Y-99462108D01*
X114516807Y-99462106D01*
X114500891Y-99455940D01*
X114317297Y-99384815D01*
X114106980Y-99345500D01*
X113893020Y-99345500D01*
X113835540Y-99356244D01*
X113790210Y-99364718D01*
X113720695Y-99357686D01*
X113679745Y-99330510D01*
X113097370Y-98748135D01*
X154645500Y-98748135D01*
X154645500Y-100151870D01*
X154645501Y-100151876D01*
X154651908Y-100211483D01*
X154702202Y-100346328D01*
X154702206Y-100346335D01*
X154788452Y-100461544D01*
X154788455Y-100461547D01*
X154903664Y-100547793D01*
X154903671Y-100547797D01*
X155038517Y-100598091D01*
X155038516Y-100598091D01*
X155045444Y-100598835D01*
X155098127Y-100604500D01*
X156501872Y-100604499D01*
X156561483Y-100598091D01*
X156696331Y-100547796D01*
X156811546Y-100461546D01*
X156897796Y-100346331D01*
X156948091Y-100211483D01*
X156954500Y-100151873D01*
X156954499Y-98748128D01*
X156948091Y-98688517D01*
X156926745Y-98631286D01*
X156897797Y-98553671D01*
X156897793Y-98553664D01*
X156811547Y-98438455D01*
X156811544Y-98438452D01*
X156696335Y-98352206D01*
X156696328Y-98352202D01*
X156561482Y-98301908D01*
X156561483Y-98301908D01*
X156501883Y-98295501D01*
X156501881Y-98295500D01*
X156501873Y-98295500D01*
X156501864Y-98295500D01*
X155098129Y-98295500D01*
X155098123Y-98295501D01*
X155038516Y-98301908D01*
X154903671Y-98352202D01*
X154903664Y-98352206D01*
X154788455Y-98438452D01*
X154788452Y-98438455D01*
X154702206Y-98553664D01*
X154702202Y-98553671D01*
X154651908Y-98688517D01*
X154645501Y-98748116D01*
X154645501Y-98748123D01*
X154645500Y-98748135D01*
X113097370Y-98748135D01*
X110987590Y-96638355D01*
X110987588Y-96638352D01*
X110868717Y-96519481D01*
X110868716Y-96519480D01*
X110781904Y-96469360D01*
X110781904Y-96469359D01*
X110781900Y-96469358D01*
X110731785Y-96440423D01*
X110579057Y-96399499D01*
X110420943Y-96399499D01*
X110413347Y-96399499D01*
X110413331Y-96399500D01*
X106800097Y-96399500D01*
X106733058Y-96379815D01*
X106712416Y-96363181D01*
X105376819Y-95027584D01*
X105343334Y-94966261D01*
X105340500Y-94939903D01*
X105340500Y-94069090D01*
X105360185Y-94002051D01*
X105412101Y-93956706D01*
X105417830Y-93954035D01*
X105611401Y-93818495D01*
X105778495Y-93651401D01*
X105914035Y-93457830D01*
X106013903Y-93243663D01*
X106075063Y-93015408D01*
X106095659Y-92780000D01*
X106095659Y-92779999D01*
X108464341Y-92779999D01*
X108464341Y-92780000D01*
X108484936Y-93015403D01*
X108484938Y-93015413D01*
X108546094Y-93243655D01*
X108546096Y-93243659D01*
X108546097Y-93243663D01*
X108550000Y-93252032D01*
X108645965Y-93457830D01*
X108645967Y-93457834D01*
X108754281Y-93612521D01*
X108781505Y-93651401D01*
X108948599Y-93818495D01*
X109030499Y-93875842D01*
X109142165Y-93954032D01*
X109142167Y-93954033D01*
X109142170Y-93954035D01*
X109356337Y-94053903D01*
X109584592Y-94115063D01*
X109772918Y-94131539D01*
X109819999Y-94135659D01*
X109820000Y-94135659D01*
X109820001Y-94135659D01*
X109859234Y-94132226D01*
X110055408Y-94115063D01*
X110283663Y-94053903D01*
X110497830Y-93954035D01*
X110691401Y-93818495D01*
X110858495Y-93651401D01*
X110988425Y-93465842D01*
X111043002Y-93422217D01*
X111112500Y-93415023D01*
X111174855Y-93446546D01*
X111191575Y-93465842D01*
X111321500Y-93651395D01*
X111321505Y-93651401D01*
X111488599Y-93818495D01*
X111570499Y-93875842D01*
X111682165Y-93954032D01*
X111682167Y-93954033D01*
X111682170Y-93954035D01*
X111896337Y-94053903D01*
X112124592Y-94115063D01*
X112312918Y-94131539D01*
X112359999Y-94135659D01*
X112360000Y-94135659D01*
X112360001Y-94135659D01*
X112399234Y-94132226D01*
X112595408Y-94115063D01*
X112823663Y-94053903D01*
X113037830Y-93954035D01*
X113231401Y-93818495D01*
X113398495Y-93651401D01*
X113528425Y-93465842D01*
X113583002Y-93422217D01*
X113652500Y-93415023D01*
X113714855Y-93446546D01*
X113731575Y-93465842D01*
X113861500Y-93651395D01*
X113861505Y-93651401D01*
X114028599Y-93818495D01*
X114110499Y-93875842D01*
X114222165Y-93954032D01*
X114222167Y-93954033D01*
X114222170Y-93954035D01*
X114436337Y-94053903D01*
X114664592Y-94115063D01*
X114852918Y-94131539D01*
X114899999Y-94135659D01*
X114900000Y-94135659D01*
X114900001Y-94135659D01*
X114939234Y-94132226D01*
X115135408Y-94115063D01*
X115363663Y-94053903D01*
X115577830Y-93954035D01*
X115771401Y-93818495D01*
X115938495Y-93651401D01*
X116068425Y-93465842D01*
X116123002Y-93422217D01*
X116192500Y-93415023D01*
X116254855Y-93446546D01*
X116271575Y-93465842D01*
X116401500Y-93651395D01*
X116401505Y-93651401D01*
X116568599Y-93818495D01*
X116650499Y-93875842D01*
X116762165Y-93954032D01*
X116762167Y-93954033D01*
X116762170Y-93954035D01*
X116976337Y-94053903D01*
X117204592Y-94115063D01*
X117392918Y-94131539D01*
X117439999Y-94135659D01*
X117440000Y-94135659D01*
X117440001Y-94135659D01*
X117479234Y-94132226D01*
X117675408Y-94115063D01*
X117903663Y-94053903D01*
X118117830Y-93954035D01*
X118311401Y-93818495D01*
X118478495Y-93651401D01*
X118614035Y-93457830D01*
X118713903Y-93243663D01*
X118775063Y-93015408D01*
X118795659Y-92780000D01*
X118795659Y-92779999D01*
X121164341Y-92779999D01*
X121164341Y-92780000D01*
X121184936Y-93015403D01*
X121184938Y-93015413D01*
X121246094Y-93243655D01*
X121246096Y-93243659D01*
X121246097Y-93243663D01*
X121250000Y-93252032D01*
X121345965Y-93457830D01*
X121345967Y-93457834D01*
X121454281Y-93612521D01*
X121481505Y-93651401D01*
X121648599Y-93818495D01*
X121730499Y-93875842D01*
X121842165Y-93954032D01*
X121842167Y-93954033D01*
X121842170Y-93954035D01*
X122056337Y-94053903D01*
X122284592Y-94115063D01*
X122472918Y-94131539D01*
X122519999Y-94135659D01*
X122520000Y-94135659D01*
X122520001Y-94135659D01*
X122559234Y-94132226D01*
X122755408Y-94115063D01*
X122983663Y-94053903D01*
X123197830Y-93954035D01*
X123391401Y-93818495D01*
X123558495Y-93651401D01*
X123688425Y-93465842D01*
X123743002Y-93422217D01*
X123812500Y-93415023D01*
X123874855Y-93446546D01*
X123891575Y-93465842D01*
X124021500Y-93651395D01*
X124021505Y-93651401D01*
X124188599Y-93818495D01*
X124270499Y-93875842D01*
X124382165Y-93954032D01*
X124382167Y-93954033D01*
X124382170Y-93954035D01*
X124596337Y-94053903D01*
X124824592Y-94115063D01*
X125012918Y-94131539D01*
X125059999Y-94135659D01*
X125060000Y-94135659D01*
X125060001Y-94135659D01*
X125099234Y-94132226D01*
X125295408Y-94115063D01*
X125523663Y-94053903D01*
X125737830Y-93954035D01*
X125931401Y-93818495D01*
X126098495Y-93651401D01*
X126228425Y-93465842D01*
X126283002Y-93422217D01*
X126352500Y-93415023D01*
X126414855Y-93446546D01*
X126431575Y-93465842D01*
X126561500Y-93651395D01*
X126561505Y-93651401D01*
X126728599Y-93818495D01*
X126810499Y-93875842D01*
X126922165Y-93954032D01*
X126922167Y-93954033D01*
X126922170Y-93954035D01*
X127136337Y-94053903D01*
X127364592Y-94115063D01*
X127552918Y-94131539D01*
X127599999Y-94135659D01*
X127600000Y-94135659D01*
X127600001Y-94135659D01*
X127639234Y-94132226D01*
X127835408Y-94115063D01*
X128063663Y-94053903D01*
X128277830Y-93954035D01*
X128471401Y-93818495D01*
X128638495Y-93651401D01*
X128768425Y-93465842D01*
X128823002Y-93422217D01*
X128892500Y-93415023D01*
X128954855Y-93446546D01*
X128971575Y-93465842D01*
X129101500Y-93651395D01*
X129101505Y-93651401D01*
X129268599Y-93818495D01*
X129350499Y-93875842D01*
X129462165Y-93954032D01*
X129462167Y-93954033D01*
X129462170Y-93954035D01*
X129676337Y-94053903D01*
X129904592Y-94115063D01*
X130092918Y-94131539D01*
X130139999Y-94135659D01*
X130140000Y-94135659D01*
X130140001Y-94135659D01*
X130179234Y-94132226D01*
X130375408Y-94115063D01*
X130603663Y-94053903D01*
X130817830Y-93954035D01*
X131011401Y-93818495D01*
X131178495Y-93651401D01*
X131314035Y-93457830D01*
X131413903Y-93243663D01*
X131475063Y-93015408D01*
X131495659Y-92780000D01*
X131495659Y-92779999D01*
X133864341Y-92779999D01*
X133864341Y-92780000D01*
X133884936Y-93015403D01*
X133884938Y-93015413D01*
X133946094Y-93243655D01*
X133946096Y-93243659D01*
X133946097Y-93243663D01*
X133950000Y-93252032D01*
X134045965Y-93457830D01*
X134045967Y-93457834D01*
X134154281Y-93612521D01*
X134181505Y-93651401D01*
X134348599Y-93818495D01*
X134430499Y-93875842D01*
X134542165Y-93954032D01*
X134542167Y-93954033D01*
X134542170Y-93954035D01*
X134756337Y-94053903D01*
X134984592Y-94115063D01*
X135172918Y-94131539D01*
X135219999Y-94135659D01*
X135220000Y-94135659D01*
X135220001Y-94135659D01*
X135259234Y-94132226D01*
X135455408Y-94115063D01*
X135683663Y-94053903D01*
X135897830Y-93954035D01*
X136091401Y-93818495D01*
X136258495Y-93651401D01*
X136388425Y-93465842D01*
X136443002Y-93422217D01*
X136512500Y-93415023D01*
X136574855Y-93446546D01*
X136591575Y-93465842D01*
X136721500Y-93651395D01*
X136721505Y-93651401D01*
X136888599Y-93818495D01*
X136970499Y-93875842D01*
X137082165Y-93954032D01*
X137082167Y-93954033D01*
X137082170Y-93954035D01*
X137296337Y-94053903D01*
X137524592Y-94115063D01*
X137712918Y-94131539D01*
X137759999Y-94135659D01*
X137760000Y-94135659D01*
X137760001Y-94135659D01*
X137799234Y-94132226D01*
X137995408Y-94115063D01*
X138223663Y-94053903D01*
X138437830Y-93954035D01*
X138631401Y-93818495D01*
X138798495Y-93651401D01*
X138934035Y-93457830D01*
X139033903Y-93243663D01*
X139095063Y-93015408D01*
X139115659Y-92780000D01*
X139095063Y-92544592D01*
X139033903Y-92316337D01*
X138934035Y-92102171D01*
X138928425Y-92094158D01*
X138798494Y-91908597D01*
X138631402Y-91741506D01*
X138631395Y-91741501D01*
X138437834Y-91605967D01*
X138437830Y-91605965D01*
X138373094Y-91575778D01*
X138223663Y-91506097D01*
X138223659Y-91506096D01*
X138223655Y-91506094D01*
X137995413Y-91444938D01*
X137995403Y-91444936D01*
X137760001Y-91424341D01*
X137759999Y-91424341D01*
X137524596Y-91444936D01*
X137524586Y-91444938D01*
X137296344Y-91506094D01*
X137296335Y-91506098D01*
X137082171Y-91605964D01*
X137082169Y-91605965D01*
X136888597Y-91741505D01*
X136721505Y-91908597D01*
X136591575Y-92094158D01*
X136536998Y-92137783D01*
X136467500Y-92144977D01*
X136405145Y-92113454D01*
X136388425Y-92094158D01*
X136258494Y-91908597D01*
X136091402Y-91741506D01*
X136091395Y-91741501D01*
X135897834Y-91605967D01*
X135897830Y-91605965D01*
X135833094Y-91575778D01*
X135683663Y-91506097D01*
X135683659Y-91506096D01*
X135683655Y-91506094D01*
X135455413Y-91444938D01*
X135455403Y-91444936D01*
X135220001Y-91424341D01*
X135219999Y-91424341D01*
X134984596Y-91444936D01*
X134984586Y-91444938D01*
X134756344Y-91506094D01*
X134756335Y-91506098D01*
X134542171Y-91605964D01*
X134542169Y-91605965D01*
X134348597Y-91741505D01*
X134181505Y-91908597D01*
X134045965Y-92102169D01*
X134045964Y-92102171D01*
X133946098Y-92316335D01*
X133946094Y-92316344D01*
X133884938Y-92544586D01*
X133884936Y-92544596D01*
X133864341Y-92779999D01*
X131495659Y-92779999D01*
X131475063Y-92544592D01*
X131413903Y-92316337D01*
X131314035Y-92102171D01*
X131308425Y-92094158D01*
X131178494Y-91908597D01*
X131011402Y-91741506D01*
X131011395Y-91741501D01*
X130817834Y-91605967D01*
X130817830Y-91605965D01*
X130753094Y-91575778D01*
X130603663Y-91506097D01*
X130603659Y-91506096D01*
X130603655Y-91506094D01*
X130375413Y-91444938D01*
X130375403Y-91444936D01*
X130140001Y-91424341D01*
X130139999Y-91424341D01*
X129904596Y-91444936D01*
X129904586Y-91444938D01*
X129676344Y-91506094D01*
X129676335Y-91506098D01*
X129462171Y-91605964D01*
X129462169Y-91605965D01*
X129268597Y-91741505D01*
X129101505Y-91908597D01*
X128971575Y-92094158D01*
X128916998Y-92137783D01*
X128847500Y-92144977D01*
X128785145Y-92113454D01*
X128768425Y-92094158D01*
X128638494Y-91908597D01*
X128471402Y-91741506D01*
X128471395Y-91741501D01*
X128277834Y-91605967D01*
X128277830Y-91605965D01*
X128213094Y-91575778D01*
X128063663Y-91506097D01*
X128063659Y-91506096D01*
X128063655Y-91506094D01*
X127835413Y-91444938D01*
X127835403Y-91444936D01*
X127600001Y-91424341D01*
X127599999Y-91424341D01*
X127364596Y-91444936D01*
X127364586Y-91444938D01*
X127136344Y-91506094D01*
X127136335Y-91506098D01*
X126922171Y-91605964D01*
X126922169Y-91605965D01*
X126728597Y-91741505D01*
X126561505Y-91908597D01*
X126431575Y-92094158D01*
X126376998Y-92137783D01*
X126307500Y-92144977D01*
X126245145Y-92113454D01*
X126228425Y-92094158D01*
X126098494Y-91908597D01*
X125931402Y-91741506D01*
X125931395Y-91741501D01*
X125737834Y-91605967D01*
X125737830Y-91605965D01*
X125673094Y-91575778D01*
X125523663Y-91506097D01*
X125523659Y-91506096D01*
X125523655Y-91506094D01*
X125295413Y-91444938D01*
X125295403Y-91444936D01*
X125060001Y-91424341D01*
X125059999Y-91424341D01*
X124824596Y-91444936D01*
X124824586Y-91444938D01*
X124596344Y-91506094D01*
X124596335Y-91506098D01*
X124382171Y-91605964D01*
X124382169Y-91605965D01*
X124188597Y-91741505D01*
X124021505Y-91908597D01*
X123891575Y-92094158D01*
X123836998Y-92137783D01*
X123767500Y-92144977D01*
X123705145Y-92113454D01*
X123688425Y-92094158D01*
X123558494Y-91908597D01*
X123391402Y-91741506D01*
X123391395Y-91741501D01*
X123197834Y-91605967D01*
X123197830Y-91605965D01*
X123133094Y-91575778D01*
X122983663Y-91506097D01*
X122983659Y-91506096D01*
X122983655Y-91506094D01*
X122755413Y-91444938D01*
X122755403Y-91444936D01*
X122520001Y-91424341D01*
X122519999Y-91424341D01*
X122284596Y-91444936D01*
X122284586Y-91444938D01*
X122056344Y-91506094D01*
X122056335Y-91506098D01*
X121842171Y-91605964D01*
X121842169Y-91605965D01*
X121648597Y-91741505D01*
X121481505Y-91908597D01*
X121345965Y-92102169D01*
X121345964Y-92102171D01*
X121246098Y-92316335D01*
X121246094Y-92316344D01*
X121184938Y-92544586D01*
X121184936Y-92544596D01*
X121164341Y-92779999D01*
X118795659Y-92779999D01*
X118775063Y-92544592D01*
X118713903Y-92316337D01*
X118614035Y-92102171D01*
X118608425Y-92094158D01*
X118478494Y-91908597D01*
X118311402Y-91741506D01*
X118311395Y-91741501D01*
X118117834Y-91605967D01*
X118117830Y-91605965D01*
X118053094Y-91575778D01*
X117903663Y-91506097D01*
X117903659Y-91506096D01*
X117903655Y-91506094D01*
X117675413Y-91444938D01*
X117675403Y-91444936D01*
X117440001Y-91424341D01*
X117439999Y-91424341D01*
X117204596Y-91444936D01*
X117204586Y-91444938D01*
X116976344Y-91506094D01*
X116976335Y-91506098D01*
X116762171Y-91605964D01*
X116762169Y-91605965D01*
X116568597Y-91741505D01*
X116401505Y-91908597D01*
X116271575Y-92094158D01*
X116216998Y-92137783D01*
X116147500Y-92144977D01*
X116085145Y-92113454D01*
X116068425Y-92094158D01*
X115938494Y-91908597D01*
X115771402Y-91741506D01*
X115771395Y-91741501D01*
X115577834Y-91605967D01*
X115577830Y-91605965D01*
X115513094Y-91575778D01*
X115363663Y-91506097D01*
X115363659Y-91506096D01*
X115363655Y-91506094D01*
X115135413Y-91444938D01*
X115135403Y-91444936D01*
X114900001Y-91424341D01*
X114899999Y-91424341D01*
X114664596Y-91444936D01*
X114664586Y-91444938D01*
X114436344Y-91506094D01*
X114436335Y-91506098D01*
X114222171Y-91605964D01*
X114222169Y-91605965D01*
X114028597Y-91741505D01*
X113861505Y-91908597D01*
X113731575Y-92094158D01*
X113676998Y-92137783D01*
X113607500Y-92144977D01*
X113545145Y-92113454D01*
X113528425Y-92094158D01*
X113398494Y-91908597D01*
X113231402Y-91741506D01*
X113231395Y-91741501D01*
X113037834Y-91605967D01*
X113037830Y-91605965D01*
X112973094Y-91575778D01*
X112823663Y-91506097D01*
X112823659Y-91506096D01*
X112823655Y-91506094D01*
X112595413Y-91444938D01*
X112595403Y-91444936D01*
X112360001Y-91424341D01*
X112359999Y-91424341D01*
X112124596Y-91444936D01*
X112124586Y-91444938D01*
X111896344Y-91506094D01*
X111896335Y-91506098D01*
X111682171Y-91605964D01*
X111682169Y-91605965D01*
X111488597Y-91741505D01*
X111321505Y-91908597D01*
X111191575Y-92094158D01*
X111136998Y-92137783D01*
X111067500Y-92144977D01*
X111005145Y-92113454D01*
X110988425Y-92094158D01*
X110858494Y-91908597D01*
X110691402Y-91741506D01*
X110691395Y-91741501D01*
X110497834Y-91605967D01*
X110497830Y-91605965D01*
X110433094Y-91575778D01*
X110283663Y-91506097D01*
X110283659Y-91506096D01*
X110283655Y-91506094D01*
X110055413Y-91444938D01*
X110055403Y-91444936D01*
X109820001Y-91424341D01*
X109819999Y-91424341D01*
X109584596Y-91444936D01*
X109584586Y-91444938D01*
X109356344Y-91506094D01*
X109356335Y-91506098D01*
X109142171Y-91605964D01*
X109142169Y-91605965D01*
X108948597Y-91741505D01*
X108781505Y-91908597D01*
X108645965Y-92102169D01*
X108645964Y-92102171D01*
X108546098Y-92316335D01*
X108546094Y-92316344D01*
X108484938Y-92544586D01*
X108484936Y-92544596D01*
X108464341Y-92779999D01*
X106095659Y-92779999D01*
X106075063Y-92544592D01*
X106013903Y-92316337D01*
X105914035Y-92102171D01*
X105908425Y-92094158D01*
X105778494Y-91908597D01*
X105611402Y-91741506D01*
X105611395Y-91741501D01*
X105417834Y-91605967D01*
X105417830Y-91605965D01*
X105353094Y-91575778D01*
X105203663Y-91506097D01*
X105203659Y-91506096D01*
X105203655Y-91506094D01*
X104975413Y-91444938D01*
X104975403Y-91444936D01*
X104740001Y-91424341D01*
X104739999Y-91424341D01*
X104504596Y-91444936D01*
X104504586Y-91444938D01*
X104276344Y-91506094D01*
X104276335Y-91506098D01*
X104062171Y-91605964D01*
X104062169Y-91605965D01*
X103868597Y-91741505D01*
X103701505Y-91908597D01*
X103571575Y-92094158D01*
X103516998Y-92137783D01*
X103447500Y-92144977D01*
X103385145Y-92113454D01*
X103368425Y-92094158D01*
X103238494Y-91908597D01*
X103071402Y-91741506D01*
X103071395Y-91741501D01*
X102877834Y-91605967D01*
X102877830Y-91605965D01*
X102813094Y-91575778D01*
X102663663Y-91506097D01*
X102663659Y-91506096D01*
X102663655Y-91506094D01*
X102435413Y-91444938D01*
X102435403Y-91444936D01*
X102200001Y-91424341D01*
X102199999Y-91424341D01*
X101964596Y-91444936D01*
X101964586Y-91444938D01*
X101736344Y-91506094D01*
X101736335Y-91506098D01*
X101522171Y-91605964D01*
X101522169Y-91605965D01*
X101328597Y-91741505D01*
X101161505Y-91908597D01*
X101031575Y-92094158D01*
X100976998Y-92137783D01*
X100907500Y-92144977D01*
X100845145Y-92113454D01*
X100828425Y-92094158D01*
X100698494Y-91908597D01*
X100531402Y-91741506D01*
X100531395Y-91741501D01*
X100337834Y-91605967D01*
X100337830Y-91605965D01*
X100273094Y-91575778D01*
X100123663Y-91506097D01*
X100123659Y-91506096D01*
X100123655Y-91506094D01*
X99895413Y-91444938D01*
X99895403Y-91444936D01*
X99660001Y-91424341D01*
X99659999Y-91424341D01*
X99424596Y-91444936D01*
X99424586Y-91444938D01*
X99196344Y-91506094D01*
X99196335Y-91506098D01*
X98982171Y-91605964D01*
X98982169Y-91605965D01*
X98788597Y-91741505D01*
X98621505Y-91908597D01*
X98491575Y-92094158D01*
X98436998Y-92137783D01*
X98367500Y-92144977D01*
X98305145Y-92113454D01*
X98288425Y-92094158D01*
X98158494Y-91908597D01*
X97991402Y-91741506D01*
X97991395Y-91741501D01*
X97797834Y-91605967D01*
X97797830Y-91605965D01*
X97733094Y-91575778D01*
X97583663Y-91506097D01*
X97583659Y-91506096D01*
X97583655Y-91506094D01*
X97355413Y-91444938D01*
X97355403Y-91444936D01*
X97120001Y-91424341D01*
X97119999Y-91424341D01*
X96884596Y-91444936D01*
X96884586Y-91444938D01*
X96656344Y-91506094D01*
X96656335Y-91506098D01*
X96442171Y-91605964D01*
X96442169Y-91605965D01*
X96248597Y-91741505D01*
X96081505Y-91908597D01*
X95945965Y-92102169D01*
X95945964Y-92102171D01*
X95846098Y-92316335D01*
X95846094Y-92316344D01*
X95784938Y-92544586D01*
X95784936Y-92544596D01*
X95764341Y-92779999D01*
X95764341Y-92780000D01*
X95784936Y-93015403D01*
X95784938Y-93015413D01*
X95846094Y-93243655D01*
X95846096Y-93243659D01*
X95846097Y-93243663D01*
X95850000Y-93252032D01*
X95945965Y-93457830D01*
X95945967Y-93457834D01*
X96054281Y-93612521D01*
X96081505Y-93651401D01*
X96248599Y-93818495D01*
X96330499Y-93875842D01*
X96442165Y-93954032D01*
X96442167Y-93954033D01*
X96442170Y-93954035D01*
X96447898Y-93956706D01*
X96500339Y-94002872D01*
X96519500Y-94069090D01*
X96519500Y-95283330D01*
X96519499Y-95283348D01*
X96519499Y-95449054D01*
X96519498Y-95449054D01*
X96560422Y-95601782D01*
X96560424Y-95601787D01*
X96564426Y-95608718D01*
X96564427Y-95608720D01*
X96639477Y-95738712D01*
X96639481Y-95738717D01*
X96758349Y-95857585D01*
X96758355Y-95857590D01*
X100169757Y-99268992D01*
X100203242Y-99330315D01*
X100198258Y-99400007D01*
X100156386Y-99455940D01*
X100090922Y-99480357D01*
X100022649Y-99465505D01*
X100016819Y-99462112D01*
X100016814Y-99462109D01*
X100016810Y-99462107D01*
X99817297Y-99384815D01*
X99606980Y-99345500D01*
X99393020Y-99345500D01*
X99182703Y-99384815D01*
X99137812Y-99402206D01*
X98983192Y-99462106D01*
X98983186Y-99462108D01*
X98801286Y-99574736D01*
X98801277Y-99574743D01*
X98768405Y-99604709D01*
X98705601Y-99635325D01*
X98636214Y-99627125D01*
X98585603Y-99587382D01*
X98511546Y-99488454D01*
X98476358Y-99462112D01*
X98396335Y-99402206D01*
X98396328Y-99402202D01*
X98261482Y-99351908D01*
X98261483Y-99351908D01*
X98201883Y-99345501D01*
X98201881Y-99345500D01*
X98201873Y-99345500D01*
X98201864Y-99345500D01*
X96798129Y-99345500D01*
X96798123Y-99345501D01*
X96738516Y-99351908D01*
X96603671Y-99402202D01*
X96603664Y-99402206D01*
X96488455Y-99488452D01*
X96488452Y-99488455D01*
X96402206Y-99603664D01*
X96402202Y-99603671D01*
X96351908Y-99738517D01*
X96345501Y-99798116D01*
X96345500Y-99798135D01*
X96345500Y-101201870D01*
X96345501Y-101201876D01*
X96351991Y-101262247D01*
X96339584Y-101331006D01*
X96291973Y-101382143D01*
X96228701Y-101399500D01*
X91800097Y-101399500D01*
X91733058Y-101379815D01*
X91712416Y-101363181D01*
X91526819Y-101177584D01*
X91493334Y-101116261D01*
X91490500Y-101089903D01*
X91490500Y-94192503D01*
X91510185Y-94125464D01*
X91562989Y-94079709D01*
X91632147Y-94069765D01*
X91646593Y-94072728D01*
X91672647Y-94079709D01*
X91804592Y-94115063D01*
X91992918Y-94131539D01*
X92039999Y-94135659D01*
X92040000Y-94135659D01*
X92040001Y-94135659D01*
X92079234Y-94132226D01*
X92275408Y-94115063D01*
X92503663Y-94053903D01*
X92717830Y-93954035D01*
X92911401Y-93818495D01*
X93078495Y-93651401D01*
X93214035Y-93457830D01*
X93313903Y-93243663D01*
X93375063Y-93015408D01*
X93395659Y-92780000D01*
X93375063Y-92544592D01*
X93313903Y-92316337D01*
X93214035Y-92102171D01*
X93208425Y-92094158D01*
X93078494Y-91908597D01*
X92911402Y-91741506D01*
X92911395Y-91741501D01*
X92717834Y-91605967D01*
X92717830Y-91605965D01*
X92653094Y-91575778D01*
X92503663Y-91506097D01*
X92503659Y-91506096D01*
X92503655Y-91506094D01*
X92275413Y-91444938D01*
X92275403Y-91444936D01*
X92040001Y-91424341D01*
X92039999Y-91424341D01*
X91804596Y-91444936D01*
X91804583Y-91444939D01*
X91646592Y-91487271D01*
X91576742Y-91485608D01*
X91518880Y-91446445D01*
X91491377Y-91382216D01*
X91490500Y-91367496D01*
X91490500Y-87213337D01*
X91510185Y-87146298D01*
X91562989Y-87100543D01*
X91632147Y-87090599D01*
X91695703Y-87119624D01*
X91702181Y-87125656D01*
X91853123Y-87276598D01*
X92032361Y-87402102D01*
X92230670Y-87494575D01*
X92442023Y-87551207D01*
X92624926Y-87567208D01*
X92659998Y-87570277D01*
X92660000Y-87570277D01*
X92660002Y-87570277D01*
X92688254Y-87567805D01*
X92877977Y-87551207D01*
X93089330Y-87494575D01*
X93287639Y-87402102D01*
X93466877Y-87276598D01*
X93621598Y-87121877D01*
X93747102Y-86942639D01*
X93839575Y-86744330D01*
X93896207Y-86532977D01*
X93905216Y-86429999D01*
X136174341Y-86429999D01*
X136174341Y-86430000D01*
X136194936Y-86665403D01*
X136194938Y-86665413D01*
X136256094Y-86893655D01*
X136256096Y-86893659D01*
X136256097Y-86893663D01*
X136278935Y-86942639D01*
X136355965Y-87107830D01*
X136355967Y-87107834D01*
X136429842Y-87213337D01*
X136491505Y-87301401D01*
X136658599Y-87468495D01*
X136695848Y-87494577D01*
X136852165Y-87604032D01*
X136852167Y-87604033D01*
X136852170Y-87604035D01*
X137066337Y-87703903D01*
X137294592Y-87765063D01*
X137482918Y-87781539D01*
X137529999Y-87785659D01*
X137530000Y-87785659D01*
X137530001Y-87785659D01*
X137569234Y-87782226D01*
X137765408Y-87765063D01*
X137993663Y-87703903D01*
X138207830Y-87604035D01*
X138401401Y-87468495D01*
X138568495Y-87301401D01*
X138704035Y-87107830D01*
X138803903Y-86893663D01*
X138865063Y-86665408D01*
X138885659Y-86430000D01*
X138865063Y-86194592D01*
X138803903Y-85966337D01*
X138704035Y-85752171D01*
X138703809Y-85751847D01*
X138568494Y-85558597D01*
X138467449Y-85457553D01*
X159504422Y-85457553D01*
X175101650Y-85457553D01*
X175101650Y-83644103D01*
X159504422Y-83644103D01*
X159504422Y-85457553D01*
X138467449Y-85457553D01*
X138401402Y-85391506D01*
X138401395Y-85391501D01*
X138384217Y-85379473D01*
X138310794Y-85328061D01*
X138207834Y-85255967D01*
X138207830Y-85255965D01*
X138200832Y-85252702D01*
X137993663Y-85156097D01*
X137993659Y-85156096D01*
X137993655Y-85156094D01*
X137765413Y-85094938D01*
X137765403Y-85094936D01*
X137530001Y-85074341D01*
X137529999Y-85074341D01*
X137294596Y-85094936D01*
X137294586Y-85094938D01*
X137066344Y-85156094D01*
X137066335Y-85156098D01*
X136852171Y-85255964D01*
X136852169Y-85255965D01*
X136658597Y-85391505D01*
X136491505Y-85558597D01*
X136355965Y-85752169D01*
X136355964Y-85752171D01*
X136256098Y-85966335D01*
X136256094Y-85966344D01*
X136194938Y-86194586D01*
X136194936Y-86194596D01*
X136174341Y-86429999D01*
X93905216Y-86429999D01*
X93915277Y-86315000D01*
X93896207Y-86097023D01*
X93839575Y-85885670D01*
X93747102Y-85687362D01*
X93747100Y-85687359D01*
X93747099Y-85687357D01*
X93621599Y-85508124D01*
X93552005Y-85438530D01*
X93466877Y-85353402D01*
X93287639Y-85227898D01*
X93287640Y-85227898D01*
X93287638Y-85227897D01*
X93133661Y-85156097D01*
X93089330Y-85135425D01*
X93089326Y-85135424D01*
X93089322Y-85135422D01*
X92877977Y-85078793D01*
X92660002Y-85059723D01*
X92659998Y-85059723D01*
X92514682Y-85072436D01*
X92442023Y-85078793D01*
X92442020Y-85078793D01*
X92230677Y-85135422D01*
X92230668Y-85135426D01*
X92032361Y-85227898D01*
X92032357Y-85227900D01*
X91853121Y-85353402D01*
X91702181Y-85504343D01*
X91640858Y-85537828D01*
X91571166Y-85532844D01*
X91515233Y-85490972D01*
X91490816Y-85425508D01*
X91490500Y-85416662D01*
X91490500Y-82363337D01*
X91510185Y-82296298D01*
X91562989Y-82250543D01*
X91632147Y-82240599D01*
X91695703Y-82269624D01*
X91702181Y-82275656D01*
X91853123Y-82426598D01*
X92032361Y-82552102D01*
X92230670Y-82644575D01*
X92442023Y-82701207D01*
X92624926Y-82717208D01*
X92659998Y-82720277D01*
X92660000Y-82720277D01*
X92660002Y-82720277D01*
X92688254Y-82717805D01*
X92877977Y-82701207D01*
X93089330Y-82644575D01*
X93287639Y-82552102D01*
X93466877Y-82426598D01*
X93621598Y-82271877D01*
X93747102Y-82092639D01*
X93839575Y-81894330D01*
X93896207Y-81682977D01*
X93915277Y-81465000D01*
X93905216Y-81349999D01*
X136174341Y-81349999D01*
X136174341Y-81350000D01*
X136194936Y-81585403D01*
X136194938Y-81585413D01*
X136256094Y-81813655D01*
X136256096Y-81813659D01*
X136256097Y-81813663D01*
X136341469Y-81996743D01*
X136355965Y-82027830D01*
X136355967Y-82027834D01*
X136464281Y-82182521D01*
X136491505Y-82221401D01*
X136658599Y-82388495D01*
X136713009Y-82426593D01*
X136852165Y-82524032D01*
X136852167Y-82524033D01*
X136852170Y-82524035D01*
X137066337Y-82623903D01*
X137294592Y-82685063D01*
X137479103Y-82701206D01*
X137529999Y-82705659D01*
X137530000Y-82705659D01*
X137530001Y-82705659D01*
X137580897Y-82701206D01*
X137765408Y-82685063D01*
X137993663Y-82623903D01*
X138207830Y-82524035D01*
X138401401Y-82388495D01*
X138568495Y-82221401D01*
X138704035Y-82027830D01*
X138803903Y-81813663D01*
X138865063Y-81585408D01*
X138885659Y-81350000D01*
X138865063Y-81114592D01*
X138803903Y-80886337D01*
X138704035Y-80672171D01*
X138694200Y-80658124D01*
X138568494Y-80478597D01*
X138401402Y-80311506D01*
X138401395Y-80311501D01*
X138207834Y-80175967D01*
X138207830Y-80175965D01*
X138207828Y-80175964D01*
X137993663Y-80076097D01*
X137993659Y-80076096D01*
X137993655Y-80076094D01*
X137765413Y-80014938D01*
X137765403Y-80014936D01*
X137530001Y-79994341D01*
X137529999Y-79994341D01*
X137294596Y-80014936D01*
X137294586Y-80014938D01*
X137066344Y-80076094D01*
X137066335Y-80076098D01*
X136852171Y-80175964D01*
X136852169Y-80175965D01*
X136658597Y-80311505D01*
X136491505Y-80478597D01*
X136355965Y-80672169D01*
X136355964Y-80672171D01*
X136256098Y-80886335D01*
X136256094Y-80886344D01*
X136194938Y-81114586D01*
X136194936Y-81114596D01*
X136174341Y-81349999D01*
X93905216Y-81349999D01*
X93896207Y-81247023D01*
X93839575Y-81035670D01*
X93747102Y-80837362D01*
X93747100Y-80837359D01*
X93747099Y-80837357D01*
X93621599Y-80658124D01*
X93604447Y-80640972D01*
X93466877Y-80503402D01*
X93287639Y-80377898D01*
X93287640Y-80377898D01*
X93287638Y-80377897D01*
X93188484Y-80331661D01*
X93089330Y-80285425D01*
X93089326Y-80285424D01*
X93089322Y-80285422D01*
X92877977Y-80228793D01*
X92660002Y-80209723D01*
X92659998Y-80209723D01*
X92514682Y-80222436D01*
X92442023Y-80228793D01*
X92442020Y-80228793D01*
X92230677Y-80285422D01*
X92230668Y-80285426D01*
X92032361Y-80377898D01*
X92032357Y-80377900D01*
X91853121Y-80503402D01*
X91702181Y-80654343D01*
X91640858Y-80687828D01*
X91571166Y-80682844D01*
X91515233Y-80640972D01*
X91490816Y-80575508D01*
X91490500Y-80566662D01*
X91490500Y-76412503D01*
X91510185Y-76345464D01*
X91562989Y-76299709D01*
X91632147Y-76289765D01*
X91646593Y-76292728D01*
X91650583Y-76293797D01*
X91804592Y-76335063D01*
X91981034Y-76350500D01*
X92039999Y-76355659D01*
X92040000Y-76355659D01*
X92040001Y-76355659D01*
X92098966Y-76350500D01*
X92275408Y-76335063D01*
X92503663Y-76273903D01*
X92717830Y-76174035D01*
X92911401Y-76038495D01*
X93078495Y-75871401D01*
X93214035Y-75677830D01*
X93313903Y-75463663D01*
X93375063Y-75235408D01*
X93395659Y-75000000D01*
X93395659Y-74999999D01*
X95764341Y-74999999D01*
X95764341Y-75000000D01*
X95784936Y-75235403D01*
X95784938Y-75235413D01*
X95846094Y-75463655D01*
X95846096Y-75463659D01*
X95846097Y-75463663D01*
X95850000Y-75472032D01*
X95945965Y-75677830D01*
X95945967Y-75677834D01*
X96054281Y-75832521D01*
X96081505Y-75871401D01*
X96248599Y-76038495D01*
X96330499Y-76095842D01*
X96442165Y-76174032D01*
X96442167Y-76174033D01*
X96442170Y-76174035D01*
X96656337Y-76273903D01*
X96884592Y-76335063D01*
X97061034Y-76350500D01*
X97119999Y-76355659D01*
X97120000Y-76355659D01*
X97120001Y-76355659D01*
X97178966Y-76350500D01*
X97355408Y-76335063D01*
X97583663Y-76273903D01*
X97797830Y-76174035D01*
X97991401Y-76038495D01*
X98158495Y-75871401D01*
X98288425Y-75685842D01*
X98343002Y-75642217D01*
X98412500Y-75635023D01*
X98474855Y-75666546D01*
X98491575Y-75685842D01*
X98621500Y-75871395D01*
X98621505Y-75871401D01*
X98788599Y-76038495D01*
X98870499Y-76095842D01*
X98982165Y-76174032D01*
X98982167Y-76174033D01*
X98982170Y-76174035D01*
X99196337Y-76273903D01*
X99424592Y-76335063D01*
X99601034Y-76350500D01*
X99659999Y-76355659D01*
X99660000Y-76355659D01*
X99660001Y-76355659D01*
X99718966Y-76350500D01*
X99895408Y-76335063D01*
X100123663Y-76273903D01*
X100337830Y-76174035D01*
X100531401Y-76038495D01*
X100698495Y-75871401D01*
X100828425Y-75685842D01*
X100883002Y-75642217D01*
X100952500Y-75635023D01*
X101014855Y-75666546D01*
X101031575Y-75685842D01*
X101161500Y-75871395D01*
X101161505Y-75871401D01*
X101328599Y-76038495D01*
X101410499Y-76095842D01*
X101522165Y-76174032D01*
X101522167Y-76174033D01*
X101522170Y-76174035D01*
X101736337Y-76273903D01*
X101964592Y-76335063D01*
X102141034Y-76350500D01*
X102199999Y-76355659D01*
X102200000Y-76355659D01*
X102200001Y-76355659D01*
X102258966Y-76350500D01*
X102435408Y-76335063D01*
X102663663Y-76273903D01*
X102877830Y-76174035D01*
X103071401Y-76038495D01*
X103238495Y-75871401D01*
X103374035Y-75677830D01*
X103473903Y-75463663D01*
X103535063Y-75235408D01*
X103555659Y-75000000D01*
X103535063Y-74764592D01*
X103473903Y-74536337D01*
X103374035Y-74322171D01*
X103368425Y-74314158D01*
X103238494Y-74128597D01*
X103212032Y-74102135D01*
X105929500Y-74102135D01*
X105929500Y-75897870D01*
X105929501Y-75897876D01*
X105935908Y-75957483D01*
X105986202Y-76092328D01*
X105986206Y-76092335D01*
X106072452Y-76207544D01*
X106072455Y-76207547D01*
X106187664Y-76293793D01*
X106187671Y-76293797D01*
X106322517Y-76344091D01*
X106322516Y-76344091D01*
X106329444Y-76344835D01*
X106382127Y-76350500D01*
X108177872Y-76350499D01*
X108237483Y-76344091D01*
X108372331Y-76293796D01*
X108487546Y-76207546D01*
X108573796Y-76092331D01*
X108622810Y-75960916D01*
X108664681Y-75904984D01*
X108730145Y-75880566D01*
X108798418Y-75895417D01*
X108826673Y-75916569D01*
X108948599Y-76038495D01*
X109030499Y-76095842D01*
X109142165Y-76174032D01*
X109142167Y-76174033D01*
X109142170Y-76174035D01*
X109356337Y-76273903D01*
X109584592Y-76335063D01*
X109761034Y-76350500D01*
X109819999Y-76355659D01*
X109820000Y-76355659D01*
X109820001Y-76355659D01*
X109878966Y-76350500D01*
X110055408Y-76335063D01*
X110283663Y-76273903D01*
X110497830Y-76174035D01*
X110691401Y-76038495D01*
X110858495Y-75871401D01*
X110988425Y-75685842D01*
X111043002Y-75642217D01*
X111112500Y-75635023D01*
X111174855Y-75666546D01*
X111191575Y-75685842D01*
X111321500Y-75871395D01*
X111321505Y-75871401D01*
X111488599Y-76038495D01*
X111570499Y-76095842D01*
X111682165Y-76174032D01*
X111682167Y-76174033D01*
X111682170Y-76174035D01*
X111896337Y-76273903D01*
X112124592Y-76335063D01*
X112301034Y-76350500D01*
X112359999Y-76355659D01*
X112360000Y-76355659D01*
X112360001Y-76355659D01*
X112418966Y-76350500D01*
X112595408Y-76335063D01*
X112823663Y-76273903D01*
X113037830Y-76174035D01*
X113231401Y-76038495D01*
X113398495Y-75871401D01*
X113528425Y-75685842D01*
X113583002Y-75642217D01*
X113652500Y-75635023D01*
X113714855Y-75666546D01*
X113731575Y-75685842D01*
X113861500Y-75871395D01*
X113861505Y-75871401D01*
X114028599Y-76038495D01*
X114110499Y-76095842D01*
X114222165Y-76174032D01*
X114222167Y-76174033D01*
X114222170Y-76174035D01*
X114436337Y-76273903D01*
X114664592Y-76335063D01*
X114841034Y-76350500D01*
X114899999Y-76355659D01*
X114900000Y-76355659D01*
X114900001Y-76355659D01*
X114958966Y-76350500D01*
X115135408Y-76335063D01*
X115363663Y-76273903D01*
X115577830Y-76174035D01*
X115771401Y-76038495D01*
X115938495Y-75871401D01*
X116068425Y-75685842D01*
X116123002Y-75642217D01*
X116192500Y-75635023D01*
X116254855Y-75666546D01*
X116271575Y-75685842D01*
X116401500Y-75871395D01*
X116401505Y-75871401D01*
X116568599Y-76038495D01*
X116650499Y-76095842D01*
X116762165Y-76174032D01*
X116762167Y-76174033D01*
X116762170Y-76174035D01*
X116976337Y-76273903D01*
X117204592Y-76335063D01*
X117381034Y-76350500D01*
X117439999Y-76355659D01*
X117440000Y-76355659D01*
X117440001Y-76355659D01*
X117498966Y-76350500D01*
X117675408Y-76335063D01*
X117903663Y-76273903D01*
X118117830Y-76174035D01*
X118311401Y-76038495D01*
X118478495Y-75871401D01*
X118614035Y-75677830D01*
X118713903Y-75463663D01*
X118775063Y-75235408D01*
X118795659Y-75000000D01*
X118795659Y-74999999D01*
X121164341Y-74999999D01*
X121164341Y-75000000D01*
X121184936Y-75235403D01*
X121184938Y-75235413D01*
X121246094Y-75463655D01*
X121246096Y-75463659D01*
X121246097Y-75463663D01*
X121250000Y-75472032D01*
X121345965Y-75677830D01*
X121345967Y-75677834D01*
X121454281Y-75832521D01*
X121481505Y-75871401D01*
X121648599Y-76038495D01*
X121730499Y-76095842D01*
X121842165Y-76174032D01*
X121842167Y-76174033D01*
X121842170Y-76174035D01*
X122056337Y-76273903D01*
X122284592Y-76335063D01*
X122461034Y-76350500D01*
X122519999Y-76355659D01*
X122520000Y-76355659D01*
X122520001Y-76355659D01*
X122578966Y-76350500D01*
X122755408Y-76335063D01*
X122983663Y-76273903D01*
X123197830Y-76174035D01*
X123391401Y-76038495D01*
X123558495Y-75871401D01*
X123688425Y-75685842D01*
X123743002Y-75642217D01*
X123812500Y-75635023D01*
X123874855Y-75666546D01*
X123891575Y-75685842D01*
X124021500Y-75871395D01*
X124021505Y-75871401D01*
X124188599Y-76038495D01*
X124270499Y-76095842D01*
X124382165Y-76174032D01*
X124382167Y-76174033D01*
X124382170Y-76174035D01*
X124596337Y-76273903D01*
X124824592Y-76335063D01*
X125001034Y-76350500D01*
X125059999Y-76355659D01*
X125060000Y-76355659D01*
X125060001Y-76355659D01*
X125118966Y-76350500D01*
X125295408Y-76335063D01*
X125523663Y-76273903D01*
X125737830Y-76174035D01*
X125931401Y-76038495D01*
X126098495Y-75871401D01*
X126228425Y-75685842D01*
X126283002Y-75642217D01*
X126352500Y-75635023D01*
X126414855Y-75666546D01*
X126431575Y-75685842D01*
X126561500Y-75871395D01*
X126561505Y-75871401D01*
X126728599Y-76038495D01*
X126810499Y-76095842D01*
X126922165Y-76174032D01*
X126922167Y-76174033D01*
X126922170Y-76174035D01*
X127136337Y-76273903D01*
X127364592Y-76335063D01*
X127541034Y-76350500D01*
X127599999Y-76355659D01*
X127600000Y-76355659D01*
X127600001Y-76355659D01*
X127658966Y-76350500D01*
X127835408Y-76335063D01*
X128063663Y-76273903D01*
X128277830Y-76174035D01*
X128471401Y-76038495D01*
X128638495Y-75871401D01*
X128768425Y-75685842D01*
X128823002Y-75642217D01*
X128892500Y-75635023D01*
X128954855Y-75666546D01*
X128971575Y-75685842D01*
X129101500Y-75871395D01*
X129101505Y-75871401D01*
X129268599Y-76038495D01*
X129350499Y-76095842D01*
X129462165Y-76174032D01*
X129462167Y-76174033D01*
X129462170Y-76174035D01*
X129676337Y-76273903D01*
X129904592Y-76335063D01*
X130081034Y-76350500D01*
X130139999Y-76355659D01*
X130140000Y-76355659D01*
X130140001Y-76355659D01*
X130198966Y-76350500D01*
X130375408Y-76335063D01*
X130603663Y-76273903D01*
X130817830Y-76174035D01*
X131011401Y-76038495D01*
X131178495Y-75871401D01*
X131314035Y-75677830D01*
X131413903Y-75463663D01*
X131475063Y-75235408D01*
X131495659Y-75000000D01*
X131495659Y-74999999D01*
X133864341Y-74999999D01*
X133864341Y-75000000D01*
X133884936Y-75235403D01*
X133884938Y-75235413D01*
X133946094Y-75463655D01*
X133946096Y-75463659D01*
X133946097Y-75463663D01*
X133950000Y-75472032D01*
X134045965Y-75677830D01*
X134045967Y-75677834D01*
X134154281Y-75832521D01*
X134181505Y-75871401D01*
X134348599Y-76038495D01*
X134430499Y-76095842D01*
X134542165Y-76174032D01*
X134542167Y-76174033D01*
X134542170Y-76174035D01*
X134756337Y-76273903D01*
X134984592Y-76335063D01*
X135161034Y-76350500D01*
X135219999Y-76355659D01*
X135220000Y-76355659D01*
X135220001Y-76355659D01*
X135278966Y-76350500D01*
X135455408Y-76335063D01*
X135683663Y-76273903D01*
X135897830Y-76174035D01*
X136091401Y-76038495D01*
X136258495Y-75871401D01*
X136388425Y-75685842D01*
X136443002Y-75642217D01*
X136512500Y-75635023D01*
X136574855Y-75666546D01*
X136591575Y-75685842D01*
X136721500Y-75871395D01*
X136721505Y-75871401D01*
X136888599Y-76038495D01*
X136970499Y-76095842D01*
X137082165Y-76174032D01*
X137082167Y-76174033D01*
X137082170Y-76174035D01*
X137296337Y-76273903D01*
X137524592Y-76335063D01*
X137701034Y-76350500D01*
X137759999Y-76355659D01*
X137760000Y-76355659D01*
X137760001Y-76355659D01*
X137818966Y-76350500D01*
X137995408Y-76335063D01*
X138223663Y-76273903D01*
X138437830Y-76174035D01*
X138631401Y-76038495D01*
X138798495Y-75871401D01*
X138934035Y-75677830D01*
X139033903Y-75463663D01*
X139095063Y-75235408D01*
X139115659Y-75000000D01*
X139095063Y-74764592D01*
X139033903Y-74536337D01*
X138934035Y-74322171D01*
X138928425Y-74314158D01*
X138798494Y-74128597D01*
X138631402Y-73961506D01*
X138631395Y-73961501D01*
X138437834Y-73825967D01*
X138437830Y-73825965D01*
X138373977Y-73796190D01*
X138223663Y-73726097D01*
X138223659Y-73726096D01*
X138223655Y-73726094D01*
X137995413Y-73664938D01*
X137995403Y-73664936D01*
X137760001Y-73644341D01*
X137759999Y-73644341D01*
X137524596Y-73664936D01*
X137524586Y-73664938D01*
X137296344Y-73726094D01*
X137296335Y-73726098D01*
X137082171Y-73825964D01*
X137082169Y-73825965D01*
X136888597Y-73961505D01*
X136721505Y-74128597D01*
X136591575Y-74314158D01*
X136536998Y-74357783D01*
X136467500Y-74364977D01*
X136405145Y-74333454D01*
X136388425Y-74314158D01*
X136258494Y-74128597D01*
X136091402Y-73961506D01*
X136091395Y-73961501D01*
X135897834Y-73825967D01*
X135897830Y-73825965D01*
X135833977Y-73796190D01*
X135683663Y-73726097D01*
X135683659Y-73726096D01*
X135683655Y-73726094D01*
X135455413Y-73664938D01*
X135455403Y-73664936D01*
X135220001Y-73644341D01*
X135219999Y-73644341D01*
X134984596Y-73664936D01*
X134984586Y-73664938D01*
X134756344Y-73726094D01*
X134756335Y-73726098D01*
X134542171Y-73825964D01*
X134542169Y-73825965D01*
X134348597Y-73961505D01*
X134181505Y-74128597D01*
X134045965Y-74322169D01*
X134045964Y-74322171D01*
X133946098Y-74536335D01*
X133946094Y-74536344D01*
X133884938Y-74764586D01*
X133884936Y-74764596D01*
X133864341Y-74999999D01*
X131495659Y-74999999D01*
X131475063Y-74764592D01*
X131413903Y-74536337D01*
X131314035Y-74322171D01*
X131308425Y-74314158D01*
X131178494Y-74128597D01*
X131011402Y-73961506D01*
X131011395Y-73961501D01*
X130817834Y-73825967D01*
X130817830Y-73825965D01*
X130753977Y-73796190D01*
X130603663Y-73726097D01*
X130603659Y-73726096D01*
X130603655Y-73726094D01*
X130375413Y-73664938D01*
X130375403Y-73664936D01*
X130140001Y-73644341D01*
X130139999Y-73644341D01*
X129904596Y-73664936D01*
X129904586Y-73664938D01*
X129676344Y-73726094D01*
X129676335Y-73726098D01*
X129462171Y-73825964D01*
X129462169Y-73825965D01*
X129268597Y-73961505D01*
X129101505Y-74128597D01*
X128971575Y-74314158D01*
X128916998Y-74357783D01*
X128847500Y-74364977D01*
X128785145Y-74333454D01*
X128768425Y-74314158D01*
X128638494Y-74128597D01*
X128471402Y-73961506D01*
X128471395Y-73961501D01*
X128277834Y-73825967D01*
X128277830Y-73825965D01*
X128213977Y-73796190D01*
X128063663Y-73726097D01*
X128063659Y-73726096D01*
X128063655Y-73726094D01*
X127835413Y-73664938D01*
X127835403Y-73664936D01*
X127600001Y-73644341D01*
X127599999Y-73644341D01*
X127364596Y-73664936D01*
X127364586Y-73664938D01*
X127136344Y-73726094D01*
X127136335Y-73726098D01*
X126922171Y-73825964D01*
X126922169Y-73825965D01*
X126728597Y-73961505D01*
X126561505Y-74128597D01*
X126431575Y-74314158D01*
X126376998Y-74357783D01*
X126307500Y-74364977D01*
X126245145Y-74333454D01*
X126228425Y-74314158D01*
X126098494Y-74128597D01*
X125931402Y-73961506D01*
X125931395Y-73961501D01*
X125737834Y-73825967D01*
X125737830Y-73825965D01*
X125673977Y-73796190D01*
X125523663Y-73726097D01*
X125523659Y-73726096D01*
X125523655Y-73726094D01*
X125295413Y-73664938D01*
X125295403Y-73664936D01*
X125060001Y-73644341D01*
X125059999Y-73644341D01*
X124824596Y-73664936D01*
X124824586Y-73664938D01*
X124596344Y-73726094D01*
X124596335Y-73726098D01*
X124382171Y-73825964D01*
X124382169Y-73825965D01*
X124188597Y-73961505D01*
X124021505Y-74128597D01*
X123891575Y-74314158D01*
X123836998Y-74357783D01*
X123767500Y-74364977D01*
X123705145Y-74333454D01*
X123688425Y-74314158D01*
X123558494Y-74128597D01*
X123391402Y-73961506D01*
X123391395Y-73961501D01*
X123197834Y-73825967D01*
X123197830Y-73825965D01*
X123133977Y-73796190D01*
X122983663Y-73726097D01*
X122983659Y-73726096D01*
X122983655Y-73726094D01*
X122755413Y-73664938D01*
X122755403Y-73664936D01*
X122520001Y-73644341D01*
X122519999Y-73644341D01*
X122284596Y-73664936D01*
X122284586Y-73664938D01*
X122056344Y-73726094D01*
X122056335Y-73726098D01*
X121842171Y-73825964D01*
X121842169Y-73825965D01*
X121648597Y-73961505D01*
X121481505Y-74128597D01*
X121345965Y-74322169D01*
X121345964Y-74322171D01*
X121246098Y-74536335D01*
X121246094Y-74536344D01*
X121184938Y-74764586D01*
X121184936Y-74764596D01*
X121164341Y-74999999D01*
X118795659Y-74999999D01*
X118775063Y-74764592D01*
X118713903Y-74536337D01*
X118614035Y-74322171D01*
X118608425Y-74314158D01*
X118478494Y-74128597D01*
X118311402Y-73961506D01*
X118311401Y-73961505D01*
X118229500Y-73904157D01*
X118183264Y-73871782D01*
X118139639Y-73817204D01*
X118132447Y-73747706D01*
X118163969Y-73685351D01*
X118166673Y-73682560D01*
X119712416Y-72136819D01*
X119773739Y-72103334D01*
X119800097Y-72100500D01*
X129113331Y-72100500D01*
X129113347Y-72100501D01*
X129120943Y-72100501D01*
X129279054Y-72100501D01*
X129279057Y-72100501D01*
X129431785Y-72059577D01*
X129481904Y-72030639D01*
X129568716Y-71980520D01*
X129680520Y-71868716D01*
X129680520Y-71868714D01*
X129690728Y-71858507D01*
X129690729Y-71858504D01*
X132549235Y-68999999D01*
X152585747Y-68999999D01*
X152585747Y-69000000D01*
X152604718Y-69204742D01*
X152604719Y-69204745D01*
X152660987Y-69402510D01*
X152660990Y-69402516D01*
X152752643Y-69586579D01*
X152876558Y-69750668D01*
X153028512Y-69889192D01*
X153028514Y-69889194D01*
X153203331Y-69997436D01*
X153203332Y-69997436D01*
X153203335Y-69997438D01*
X153395070Y-70071717D01*
X153597190Y-70109500D01*
X153597192Y-70109500D01*
X153802808Y-70109500D01*
X153802810Y-70109500D01*
X154004930Y-70071717D01*
X154196665Y-69997438D01*
X154371487Y-69889193D01*
X154523443Y-69750667D01*
X154647357Y-69586579D01*
X154739010Y-69402515D01*
X154739010Y-69402512D01*
X154739012Y-69402510D01*
X154789293Y-69225788D01*
X154795281Y-69204743D01*
X154814253Y-69000000D01*
X154804646Y-68896328D01*
X154795281Y-68795257D01*
X154795280Y-68795254D01*
X154739012Y-68597489D01*
X154739009Y-68597483D01*
X154729414Y-68578213D01*
X154647357Y-68413421D01*
X154523443Y-68249333D01*
X154371487Y-68110807D01*
X154371485Y-68110805D01*
X154196668Y-68002563D01*
X154196662Y-68002561D01*
X154004930Y-67928283D01*
X153802810Y-67890500D01*
X153597190Y-67890500D01*
X153395070Y-67928283D01*
X153311349Y-67960717D01*
X153203337Y-68002561D01*
X153203331Y-68002563D01*
X153028514Y-68110805D01*
X153028512Y-68110807D01*
X152876558Y-68249331D01*
X152752643Y-68413420D01*
X152660990Y-68597483D01*
X152660987Y-68597489D01*
X152604719Y-68795254D01*
X152604718Y-68795257D01*
X152585747Y-68999999D01*
X132549235Y-68999999D01*
X135746100Y-65803135D01*
X152590500Y-65803135D01*
X152590500Y-67116870D01*
X152590501Y-67116876D01*
X152596908Y-67176483D01*
X152647202Y-67311328D01*
X152647206Y-67311335D01*
X152733452Y-67426544D01*
X152733455Y-67426547D01*
X152848664Y-67512793D01*
X152848671Y-67512797D01*
X152983517Y-67563091D01*
X152983516Y-67563091D01*
X152990444Y-67563835D01*
X153043127Y-67569500D01*
X154356872Y-67569499D01*
X154416483Y-67563091D01*
X154551331Y-67512796D01*
X154666546Y-67426546D01*
X154752796Y-67311331D01*
X154803091Y-67176483D01*
X154809500Y-67116873D01*
X154809499Y-65803128D01*
X154803091Y-65743517D01*
X154752796Y-65608669D01*
X154752795Y-65608668D01*
X154752793Y-65608664D01*
X154666547Y-65493455D01*
X154666544Y-65493452D01*
X154551335Y-65407206D01*
X154551328Y-65407202D01*
X154416482Y-65356908D01*
X154416483Y-65356908D01*
X154356883Y-65350501D01*
X154356881Y-65350500D01*
X154356873Y-65350500D01*
X154356864Y-65350500D01*
X153043129Y-65350500D01*
X153043123Y-65350501D01*
X152983516Y-65356908D01*
X152848671Y-65407202D01*
X152848664Y-65407206D01*
X152733455Y-65493452D01*
X152733452Y-65493455D01*
X152647206Y-65608664D01*
X152647202Y-65608671D01*
X152596908Y-65743517D01*
X152590501Y-65803116D01*
X152590501Y-65803123D01*
X152590500Y-65803135D01*
X135746100Y-65803135D01*
X138862416Y-62686819D01*
X138923739Y-62653334D01*
X138950097Y-62650500D01*
X140117588Y-62650500D01*
X140184627Y-62670185D01*
X140194903Y-62677555D01*
X140197736Y-62679814D01*
X140197738Y-62679816D01*
X140350478Y-62775789D01*
X140520745Y-62835368D01*
X140520750Y-62835369D01*
X140699996Y-62855565D01*
X140700000Y-62855565D01*
X140700004Y-62855565D01*
X140879249Y-62835369D01*
X140879252Y-62835368D01*
X140879255Y-62835368D01*
X141049522Y-62775789D01*
X141202262Y-62679816D01*
X141329816Y-62552262D01*
X141425789Y-62399522D01*
X141485368Y-62229255D01*
X141505565Y-62050000D01*
X141499932Y-62000007D01*
X141485369Y-61870750D01*
X141485368Y-61870745D01*
X141425788Y-61700476D01*
X141329815Y-61547737D01*
X141202262Y-61420184D01*
X141049523Y-61324211D01*
X140879254Y-61264631D01*
X140879249Y-61264630D01*
X140700004Y-61244435D01*
X140699996Y-61244435D01*
X140520750Y-61264630D01*
X140520745Y-61264631D01*
X140350476Y-61324211D01*
X140197736Y-61420185D01*
X140194903Y-61422445D01*
X140192724Y-61423334D01*
X140191842Y-61423889D01*
X140191744Y-61423734D01*
X140130217Y-61448855D01*
X140117588Y-61449500D01*
X138729057Y-61449500D01*
X138570943Y-61449500D01*
X138418215Y-61490423D01*
X138418214Y-61490423D01*
X138418212Y-61490424D01*
X138418209Y-61490425D01*
X138383066Y-61510716D01*
X138383064Y-61510717D01*
X138281290Y-61569475D01*
X138281282Y-61569481D01*
X138169478Y-61681286D01*
X128987584Y-70863181D01*
X128926261Y-70896666D01*
X128899903Y-70899500D01*
X119586669Y-70899500D01*
X119586653Y-70899499D01*
X119579057Y-70899499D01*
X119420943Y-70899499D01*
X119313587Y-70928265D01*
X119268210Y-70940424D01*
X119268209Y-70940425D01*
X119218096Y-70969359D01*
X119218095Y-70969360D01*
X119174689Y-70994420D01*
X119131285Y-71019479D01*
X119131282Y-71019481D01*
X116959481Y-73191282D01*
X116959479Y-73191285D01*
X116909361Y-73278094D01*
X116909359Y-73278096D01*
X116880425Y-73328209D01*
X116880424Y-73328210D01*
X116880423Y-73328215D01*
X116839499Y-73480943D01*
X116839499Y-73480945D01*
X116839499Y-73649046D01*
X116839500Y-73649059D01*
X116839500Y-73710908D01*
X116819815Y-73777947D01*
X116767914Y-73823286D01*
X116762173Y-73825963D01*
X116762169Y-73825965D01*
X116568597Y-73961505D01*
X116401505Y-74128597D01*
X116271575Y-74314158D01*
X116216998Y-74357783D01*
X116147500Y-74364977D01*
X116085145Y-74333454D01*
X116068425Y-74314158D01*
X115938494Y-74128597D01*
X115771402Y-73961506D01*
X115771395Y-73961501D01*
X115577834Y-73825967D01*
X115577830Y-73825965D01*
X115513977Y-73796190D01*
X115363663Y-73726097D01*
X115363659Y-73726096D01*
X115363655Y-73726094D01*
X115135413Y-73664938D01*
X115135403Y-73664936D01*
X114900001Y-73644341D01*
X114899999Y-73644341D01*
X114664596Y-73664936D01*
X114664586Y-73664938D01*
X114436344Y-73726094D01*
X114436335Y-73726098D01*
X114222171Y-73825964D01*
X114222169Y-73825965D01*
X114028597Y-73961505D01*
X113861505Y-74128597D01*
X113731575Y-74314158D01*
X113676998Y-74357783D01*
X113607500Y-74364977D01*
X113545145Y-74333454D01*
X113528425Y-74314158D01*
X113398494Y-74128597D01*
X113231402Y-73961506D01*
X113231395Y-73961501D01*
X113037834Y-73825967D01*
X113037830Y-73825965D01*
X112973977Y-73796190D01*
X112823663Y-73726097D01*
X112823659Y-73726096D01*
X112823655Y-73726094D01*
X112595413Y-73664938D01*
X112595403Y-73664936D01*
X112360001Y-73644341D01*
X112359999Y-73644341D01*
X112124596Y-73664936D01*
X112124586Y-73664938D01*
X111896344Y-73726094D01*
X111896335Y-73726098D01*
X111682171Y-73825964D01*
X111682169Y-73825965D01*
X111488597Y-73961505D01*
X111321505Y-74128597D01*
X111191575Y-74314158D01*
X111136998Y-74357783D01*
X111067500Y-74364977D01*
X111005145Y-74333454D01*
X110988425Y-74314158D01*
X110858494Y-74128597D01*
X110691402Y-73961506D01*
X110691395Y-73961501D01*
X110497834Y-73825967D01*
X110497830Y-73825965D01*
X110433977Y-73796190D01*
X110283663Y-73726097D01*
X110283659Y-73726096D01*
X110283655Y-73726094D01*
X110055413Y-73664938D01*
X110055403Y-73664936D01*
X109820001Y-73644341D01*
X109819999Y-73644341D01*
X109584596Y-73664936D01*
X109584586Y-73664938D01*
X109356344Y-73726094D01*
X109356335Y-73726098D01*
X109142171Y-73825964D01*
X109142169Y-73825965D01*
X108948600Y-73961503D01*
X108826673Y-74083430D01*
X108765350Y-74116914D01*
X108695658Y-74111930D01*
X108639725Y-74070058D01*
X108622810Y-74039081D01*
X108573797Y-73907671D01*
X108573793Y-73907664D01*
X108487547Y-73792455D01*
X108487544Y-73792452D01*
X108372335Y-73706206D01*
X108372328Y-73706202D01*
X108237482Y-73655908D01*
X108237483Y-73655908D01*
X108177883Y-73649501D01*
X108177881Y-73649500D01*
X108177873Y-73649500D01*
X108177864Y-73649500D01*
X106382129Y-73649500D01*
X106382123Y-73649501D01*
X106322516Y-73655908D01*
X106187671Y-73706202D01*
X106187664Y-73706206D01*
X106072455Y-73792452D01*
X106072452Y-73792455D01*
X105986206Y-73907664D01*
X105986202Y-73907671D01*
X105935908Y-74042517D01*
X105929501Y-74102116D01*
X105929500Y-74102135D01*
X103212032Y-74102135D01*
X103071402Y-73961506D01*
X103071395Y-73961501D01*
X102877834Y-73825967D01*
X102877830Y-73825965D01*
X102813977Y-73796190D01*
X102663663Y-73726097D01*
X102663659Y-73726096D01*
X102663655Y-73726094D01*
X102435413Y-73664938D01*
X102435403Y-73664936D01*
X102200001Y-73644341D01*
X102199999Y-73644341D01*
X101964596Y-73664936D01*
X101964586Y-73664938D01*
X101736344Y-73726094D01*
X101736335Y-73726098D01*
X101522171Y-73825964D01*
X101522169Y-73825965D01*
X101328597Y-73961505D01*
X101161505Y-74128597D01*
X101031575Y-74314158D01*
X100976998Y-74357783D01*
X100907500Y-74364977D01*
X100845145Y-74333454D01*
X100828425Y-74314158D01*
X100698494Y-74128597D01*
X100531402Y-73961506D01*
X100531395Y-73961501D01*
X100337834Y-73825967D01*
X100337830Y-73825965D01*
X100273977Y-73796190D01*
X100123663Y-73726097D01*
X100123659Y-73726096D01*
X100123655Y-73726094D01*
X99895413Y-73664938D01*
X99895403Y-73664936D01*
X99660001Y-73644341D01*
X99659999Y-73644341D01*
X99424596Y-73664936D01*
X99424586Y-73664938D01*
X99196344Y-73726094D01*
X99196335Y-73726098D01*
X98982171Y-73825964D01*
X98982169Y-73825965D01*
X98788597Y-73961505D01*
X98621505Y-74128597D01*
X98491575Y-74314158D01*
X98436998Y-74357783D01*
X98367500Y-74364977D01*
X98305145Y-74333454D01*
X98288425Y-74314158D01*
X98158494Y-74128597D01*
X97991402Y-73961506D01*
X97991395Y-73961501D01*
X97797834Y-73825967D01*
X97797830Y-73825965D01*
X97733977Y-73796190D01*
X97583663Y-73726097D01*
X97583659Y-73726096D01*
X97583655Y-73726094D01*
X97355413Y-73664938D01*
X97355403Y-73664936D01*
X97120001Y-73644341D01*
X97119999Y-73644341D01*
X96884596Y-73664936D01*
X96884586Y-73664938D01*
X96656344Y-73726094D01*
X96656335Y-73726098D01*
X96442171Y-73825964D01*
X96442169Y-73825965D01*
X96248597Y-73961505D01*
X96081505Y-74128597D01*
X95945965Y-74322169D01*
X95945964Y-74322171D01*
X95846098Y-74536335D01*
X95846094Y-74536344D01*
X95784938Y-74764586D01*
X95784936Y-74764596D01*
X95764341Y-74999999D01*
X93395659Y-74999999D01*
X93375063Y-74764592D01*
X93313903Y-74536337D01*
X93214035Y-74322171D01*
X93208425Y-74314158D01*
X93078494Y-74128597D01*
X92911402Y-73961506D01*
X92911395Y-73961501D01*
X92717834Y-73825967D01*
X92717830Y-73825965D01*
X92653977Y-73796190D01*
X92503663Y-73726097D01*
X92503659Y-73726096D01*
X92503655Y-73726094D01*
X92275413Y-73664938D01*
X92275403Y-73664936D01*
X92040001Y-73644341D01*
X92039999Y-73644341D01*
X91804596Y-73664936D01*
X91804583Y-73664939D01*
X91646592Y-73707271D01*
X91576742Y-73705608D01*
X91518880Y-73666445D01*
X91491377Y-73602216D01*
X91490500Y-73587496D01*
X91490500Y-72144463D01*
X91510185Y-72077424D01*
X91562989Y-72031669D01*
X91632147Y-72021725D01*
X91659293Y-72028835D01*
X91747544Y-72063024D01*
X91948024Y-72100500D01*
X91948026Y-72100500D01*
X92151974Y-72100500D01*
X92151976Y-72100500D01*
X92352456Y-72063024D01*
X92542637Y-71989348D01*
X92716041Y-71881981D01*
X92866764Y-71744579D01*
X92989673Y-71581821D01*
X93080582Y-71399250D01*
X93136397Y-71203083D01*
X93155215Y-71000000D01*
X93149694Y-70940423D01*
X93136397Y-70796917D01*
X93080582Y-70600750D01*
X92989673Y-70418179D01*
X92866764Y-70255421D01*
X92866762Y-70255418D01*
X92716041Y-70118019D01*
X92716039Y-70118017D01*
X92542642Y-70010655D01*
X92542635Y-70010651D01*
X92440706Y-69971164D01*
X92352456Y-69936976D01*
X92151976Y-69899500D01*
X91948024Y-69899500D01*
X91747544Y-69936976D01*
X91747541Y-69936976D01*
X91747541Y-69936977D01*
X91659294Y-69971164D01*
X91589670Y-69977026D01*
X91527930Y-69944316D01*
X91493675Y-69883419D01*
X91490500Y-69855537D01*
X91490500Y-69224500D01*
X91510185Y-69157461D01*
X91562989Y-69111706D01*
X91614500Y-69100500D01*
X95617588Y-69100500D01*
X95684627Y-69120185D01*
X95694903Y-69127555D01*
X95697736Y-69129814D01*
X95697738Y-69129816D01*
X95741735Y-69157461D01*
X95848426Y-69224500D01*
X95850478Y-69225789D01*
X96020745Y-69285368D01*
X96020750Y-69285369D01*
X96199996Y-69305565D01*
X96200000Y-69305565D01*
X96200004Y-69305565D01*
X96379249Y-69285369D01*
X96379252Y-69285368D01*
X96379255Y-69285368D01*
X96549522Y-69225789D01*
X96702262Y-69129816D01*
X96829816Y-69002262D01*
X96925789Y-68849522D01*
X96985368Y-68679255D01*
X96994581Y-68597489D01*
X97005565Y-68500003D01*
X97005565Y-68499996D01*
X96985369Y-68320750D01*
X96985368Y-68320745D01*
X96925788Y-68150476D01*
X96843474Y-68019475D01*
X96829816Y-67997738D01*
X96702262Y-67870184D01*
X96549523Y-67774211D01*
X96379254Y-67714631D01*
X96379249Y-67714630D01*
X96200004Y-67694435D01*
X96199996Y-67694435D01*
X96020750Y-67714630D01*
X96020745Y-67714631D01*
X95850476Y-67774211D01*
X95697736Y-67870185D01*
X95694903Y-67872445D01*
X95692724Y-67873334D01*
X95691842Y-67873889D01*
X95691744Y-67873734D01*
X95630217Y-67898855D01*
X95617588Y-67899500D01*
X91279057Y-67899500D01*
X91120942Y-67899500D01*
X90968215Y-67940423D01*
X90968214Y-67940423D01*
X90968212Y-67940424D01*
X90968209Y-67940425D01*
X90933066Y-67960716D01*
X90933064Y-67960717D01*
X90831290Y-68019475D01*
X90831282Y-68019481D01*
X90601433Y-68249331D01*
X90521286Y-68329478D01*
X90521284Y-68329480D01*
X90465381Y-68385382D01*
X90409479Y-68441284D01*
X90402551Y-68453284D01*
X90401763Y-68454651D01*
X90330423Y-68578215D01*
X90289499Y-68730943D01*
X90289499Y-68730945D01*
X90289499Y-68899046D01*
X90289500Y-68899059D01*
X90289500Y-69971838D01*
X90269815Y-70038877D01*
X90217011Y-70084632D01*
X90147853Y-70094576D01*
X90100223Y-70077265D01*
X89992642Y-70010655D01*
X89992635Y-70010651D01*
X89890706Y-69971164D01*
X89802456Y-69936976D01*
X89601976Y-69899500D01*
X89398024Y-69899500D01*
X89197544Y-69936976D01*
X89197541Y-69936976D01*
X89197541Y-69936977D01*
X89007364Y-70010651D01*
X89007357Y-70010655D01*
X88833960Y-70118017D01*
X88833957Y-70118019D01*
X88708038Y-70232810D01*
X88645234Y-70263427D01*
X88575847Y-70255229D01*
X88521907Y-70210819D01*
X88500539Y-70144297D01*
X88500500Y-70141173D01*
X88500500Y-67298135D01*
X122095500Y-67298135D01*
X122095500Y-68701870D01*
X122095501Y-68701876D01*
X122101908Y-68761483D01*
X122152202Y-68896328D01*
X122152206Y-68896335D01*
X122238452Y-69011544D01*
X122238455Y-69011547D01*
X122353664Y-69097793D01*
X122353671Y-69097797D01*
X122488517Y-69148091D01*
X122488516Y-69148091D01*
X122495444Y-69148835D01*
X122548127Y-69154500D01*
X123951872Y-69154499D01*
X124011483Y-69148091D01*
X124146331Y-69097796D01*
X124261546Y-69011546D01*
X124347796Y-68896331D01*
X124398091Y-68761483D01*
X124404500Y-68701873D01*
X124404499Y-67298128D01*
X124398091Y-67238517D01*
X124374953Y-67176482D01*
X124347797Y-67103671D01*
X124347793Y-67103664D01*
X124261547Y-66988455D01*
X124261544Y-66988452D01*
X124146335Y-66902206D01*
X124146328Y-66902202D01*
X124011482Y-66851908D01*
X124011483Y-66851908D01*
X123951883Y-66845501D01*
X123951881Y-66845500D01*
X123951873Y-66845500D01*
X123951864Y-66845500D01*
X122548129Y-66845500D01*
X122548123Y-66845501D01*
X122488516Y-66851908D01*
X122353671Y-66902202D01*
X122353664Y-66902206D01*
X122238455Y-66988452D01*
X122238452Y-66988455D01*
X122152206Y-67103664D01*
X122152202Y-67103671D01*
X122101908Y-67238517D01*
X122095501Y-67298116D01*
X122095501Y-67298123D01*
X122095500Y-67298135D01*
X88500500Y-67298135D01*
X88500500Y-64874500D01*
X88520185Y-64807461D01*
X88572989Y-64761706D01*
X88624500Y-64750500D01*
X113087528Y-64750500D01*
X113087532Y-64750500D01*
X113259938Y-64720101D01*
X113424445Y-64660225D01*
X113576055Y-64572692D01*
X113710163Y-64460163D01*
X113822692Y-64326055D01*
X113910225Y-64174445D01*
X113970101Y-64009938D01*
X114000500Y-63837532D01*
X114000500Y-63750000D01*
X114000500Y-63684108D01*
X114000500Y-59874500D01*
X114020185Y-59807461D01*
X114072989Y-59761706D01*
X114124500Y-59750500D01*
X129441422Y-59750500D01*
X129508461Y-59770185D01*
G37*
%TD.AperFunction*%
%TD*%
%TA.AperFunction,Conductor*%
%TO.N,GND1*%
G36*
X200686726Y-73245494D02*
G01*
X200694158Y-73245943D01*
X201349750Y-73305518D01*
X201357183Y-73306420D01*
X202007956Y-73405466D01*
X202015317Y-73406815D01*
X202658923Y-73544973D01*
X202666176Y-73546760D01*
X203300304Y-73723537D01*
X203307431Y-73725758D01*
X203929696Y-73940488D01*
X203936680Y-73943137D01*
X204544862Y-74195054D01*
X204551670Y-74198118D01*
X205143520Y-74486292D01*
X205150137Y-74489765D01*
X205723501Y-74813142D01*
X205729910Y-74817017D01*
X206282708Y-75174426D01*
X206288853Y-75178667D01*
X206819066Y-75568806D01*
X206824961Y-75573424D01*
X207330660Y-75994871D01*
X207336243Y-75999817D01*
X207530381Y-76182567D01*
X207815557Y-76451016D01*
X207820853Y-76456312D01*
X208106443Y-76759697D01*
X208272050Y-76935624D01*
X208277000Y-76941211D01*
X208431759Y-77126908D01*
X208698444Y-77446907D01*
X208703063Y-77452803D01*
X209093197Y-77983009D01*
X209097443Y-77989161D01*
X209454852Y-78541959D01*
X209458727Y-78548368D01*
X209782096Y-79121716D01*
X209785577Y-79128349D01*
X210073746Y-79720188D01*
X210076820Y-79727018D01*
X210328728Y-80335179D01*
X210331384Y-80342183D01*
X210546107Y-80964426D01*
X210548336Y-80971577D01*
X210725106Y-81605683D01*
X210726898Y-81612956D01*
X210865053Y-82256549D01*
X210866403Y-82263916D01*
X210965448Y-82914684D01*
X210966351Y-82922120D01*
X211025924Y-83577688D01*
X211026376Y-83585165D01*
X211046257Y-84243125D01*
X211046257Y-84250615D01*
X211026376Y-84908574D01*
X211025924Y-84916051D01*
X210966351Y-85571619D01*
X210965448Y-85579055D01*
X210866403Y-86229823D01*
X210865053Y-86237190D01*
X210726898Y-86880783D01*
X210725106Y-86888056D01*
X210548336Y-87522162D01*
X210546107Y-87529313D01*
X210331384Y-88151556D01*
X210328728Y-88158560D01*
X210076820Y-88766721D01*
X210073746Y-88773551D01*
X209785577Y-89365390D01*
X209782096Y-89372023D01*
X209458727Y-89945371D01*
X209454852Y-89951780D01*
X209097443Y-90504578D01*
X209093188Y-90510743D01*
X208703063Y-91040936D01*
X208698444Y-91046832D01*
X208277009Y-91552518D01*
X208272041Y-91558125D01*
X207820853Y-92037427D01*
X207815557Y-92042723D01*
X207336255Y-92493911D01*
X207330648Y-92498879D01*
X206824962Y-92920314D01*
X206819066Y-92924933D01*
X206288873Y-93315058D01*
X206282708Y-93319313D01*
X205729910Y-93676722D01*
X205723501Y-93680597D01*
X205150153Y-94003966D01*
X205143520Y-94007447D01*
X204551681Y-94295616D01*
X204544851Y-94298690D01*
X203936690Y-94550598D01*
X203929686Y-94553254D01*
X203307443Y-94767977D01*
X203300292Y-94770206D01*
X202666186Y-94946976D01*
X202658913Y-94948768D01*
X202015320Y-95086923D01*
X202007953Y-95088273D01*
X201357185Y-95187318D01*
X201349749Y-95188221D01*
X200694181Y-95247794D01*
X200686704Y-95248246D01*
X200028745Y-95268127D01*
X200021255Y-95268127D01*
X199363295Y-95248246D01*
X199355818Y-95247794D01*
X198700250Y-95188221D01*
X198692814Y-95187318D01*
X198042046Y-95088273D01*
X198034679Y-95086923D01*
X197391086Y-94948768D01*
X197383813Y-94946976D01*
X196749707Y-94770206D01*
X196742556Y-94767977D01*
X196120313Y-94553254D01*
X196113309Y-94550598D01*
X195505148Y-94298690D01*
X195498318Y-94295616D01*
X194906479Y-94007447D01*
X194899846Y-94003966D01*
X194326498Y-93680597D01*
X194320089Y-93676722D01*
X193767291Y-93319313D01*
X193761139Y-93315067D01*
X193230933Y-92924933D01*
X193225037Y-92920314D01*
X193101634Y-92817471D01*
X192719341Y-92498870D01*
X192713754Y-92493920D01*
X192537827Y-92328313D01*
X192234442Y-92042723D01*
X192229146Y-92037427D01*
X191960697Y-91752251D01*
X191777947Y-91558113D01*
X191773001Y-91552530D01*
X191351554Y-91046831D01*
X191346936Y-91040936D01*
X191132350Y-90749306D01*
X190956797Y-90510723D01*
X190952556Y-90504578D01*
X190595147Y-89951780D01*
X190591272Y-89945371D01*
X190370289Y-89553558D01*
X190267895Y-89372007D01*
X190264422Y-89365390D01*
X190062551Y-88950789D01*
X189976248Y-88773540D01*
X189973179Y-88766721D01*
X189896052Y-88580520D01*
X189721267Y-88158550D01*
X189718615Y-88151556D01*
X189707535Y-88119447D01*
X189503888Y-87529301D01*
X189501663Y-87522162D01*
X189499331Y-87513798D01*
X189324890Y-86888046D01*
X189323101Y-86880783D01*
X189318489Y-86859298D01*
X195974500Y-86859298D01*
X195974500Y-87290701D01*
X195977401Y-87327567D01*
X195977402Y-87327573D01*
X196023254Y-87485393D01*
X196023255Y-87485396D01*
X196023256Y-87485398D01*
X196053982Y-87537353D01*
X196106917Y-87626862D01*
X196106923Y-87626870D01*
X196223129Y-87743076D01*
X196223133Y-87743079D01*
X196223135Y-87743081D01*
X196364602Y-87826744D01*
X196380969Y-87831499D01*
X196522426Y-87872597D01*
X196522429Y-87872597D01*
X196522431Y-87872598D01*
X196559306Y-87875500D01*
X196559314Y-87875500D01*
X197490686Y-87875500D01*
X197490694Y-87875500D01*
X197527569Y-87872598D01*
X197527571Y-87872597D01*
X197527573Y-87872597D01*
X197569191Y-87860505D01*
X197685398Y-87826744D01*
X197826865Y-87743081D01*
X197943081Y-87626865D01*
X197954551Y-87607469D01*
X198005619Y-87559785D01*
X198074361Y-87547280D01*
X198138951Y-87573925D01*
X198163524Y-87600425D01*
X198193090Y-87643507D01*
X198193853Y-87644485D01*
X198194508Y-87645274D01*
X198199161Y-87651239D01*
X198200082Y-87652497D01*
X198200846Y-87653477D01*
X198200848Y-87653479D01*
X198200853Y-87653485D01*
X198241987Y-87700013D01*
X198249987Y-87708013D01*
X198296515Y-87749147D01*
X198297488Y-87749906D01*
X198297513Y-87749923D01*
X198298748Y-87750828D01*
X198304725Y-87755491D01*
X198305505Y-87756138D01*
X198305515Y-87756147D01*
X198306173Y-87756660D01*
X198306494Y-87756911D01*
X198335481Y-87776803D01*
X198357324Y-87791793D01*
X198372324Y-87800793D01*
X198372331Y-87800797D01*
X198372333Y-87800798D01*
X198407339Y-87819963D01*
X198408063Y-87820323D01*
X198415563Y-87823681D01*
X198418068Y-87824836D01*
X198436202Y-87833448D01*
X198436496Y-87833580D01*
X198436586Y-87833621D01*
X198456383Y-87842033D01*
X198456386Y-87842034D01*
X198461386Y-87844034D01*
X198513206Y-87861574D01*
X198514252Y-87861866D01*
X198514278Y-87861871D01*
X198515871Y-87862271D01*
X198515857Y-87862323D01*
X198523290Y-87864291D01*
X198524185Y-87864567D01*
X198524206Y-87864574D01*
X198525252Y-87864866D01*
X198525256Y-87864867D01*
X198560040Y-87872597D01*
X198578066Y-87876603D01*
X198584066Y-87877603D01*
X198625291Y-87882743D01*
X198626121Y-87882812D01*
X198626133Y-87882812D01*
X198626776Y-87882866D01*
X198628707Y-87883041D01*
X198629204Y-87883091D01*
X198629223Y-87883091D01*
X198629224Y-87883092D01*
X198678976Y-87885549D01*
X198678995Y-87885549D01*
X198679000Y-87885550D01*
X198679001Y-87885550D01*
X201361003Y-87885550D01*
X201369311Y-87885253D01*
X201397015Y-87884265D01*
X201397729Y-87884214D01*
X201433202Y-87880418D01*
X201439670Y-87879493D01*
X201447253Y-87878648D01*
X201454916Y-87878031D01*
X201454916Y-87878030D01*
X201454924Y-87878030D01*
X201456521Y-87877771D01*
X201457155Y-87877614D01*
X201469253Y-87875268D01*
X201474227Y-87874557D01*
X201484613Y-87871565D01*
X201508378Y-87866650D01*
X201509145Y-87866460D01*
X201547450Y-87855350D01*
X201565450Y-87849350D01*
X201598645Y-87836219D01*
X201602972Y-87835824D01*
X201611623Y-87831499D01*
X201615528Y-87829697D01*
X201615507Y-87829651D01*
X201618045Y-87828482D01*
X201618043Y-87828482D01*
X201618054Y-87828478D01*
X201623703Y-87825493D01*
X201626133Y-87824245D01*
X201637493Y-87818564D01*
X201637494Y-87818565D01*
X201643324Y-87815650D01*
X201660868Y-87806444D01*
X201661208Y-87806257D01*
X201677676Y-87796793D01*
X201682676Y-87793793D01*
X201692214Y-87787925D01*
X201692229Y-87787915D01*
X201692251Y-87787902D01*
X201692291Y-87787876D01*
X201692417Y-87787797D01*
X201703202Y-87780803D01*
X201709202Y-87776803D01*
X201727285Y-87764169D01*
X201727639Y-87763910D01*
X201744938Y-87750672D01*
X201749938Y-87746672D01*
X201771114Y-87728757D01*
X201771530Y-87728385D01*
X201789699Y-87711200D01*
X201792167Y-87708928D01*
X201800597Y-87701385D01*
X201801385Y-87700597D01*
X201808928Y-87692167D01*
X201811200Y-87689699D01*
X201828385Y-87671530D01*
X201828757Y-87671114D01*
X201846672Y-87649938D01*
X201850672Y-87644938D01*
X201853653Y-87641041D01*
X201910022Y-87599757D01*
X201979762Y-87595502D01*
X202040731Y-87629626D01*
X202073573Y-87691296D01*
X202075756Y-87706657D01*
X202077401Y-87727567D01*
X202077402Y-87727573D01*
X202123254Y-87885393D01*
X202123255Y-87885396D01*
X202206917Y-88026862D01*
X202206923Y-88026870D01*
X202238179Y-88058125D01*
X202271665Y-88119447D01*
X202274499Y-88145807D01*
X202274499Y-88179054D01*
X202274498Y-88179054D01*
X202286810Y-88225003D01*
X202315423Y-88331785D01*
X202344310Y-88381818D01*
X202394480Y-88468716D01*
X202506284Y-88580520D01*
X202506285Y-88580520D01*
X202631284Y-88705520D01*
X202631288Y-88705523D01*
X202737288Y-88766721D01*
X202768216Y-88784577D01*
X202920943Y-88825501D01*
X202920945Y-88825501D01*
X203086654Y-88825501D01*
X203086670Y-88825500D01*
X205942588Y-88825500D01*
X206009627Y-88845185D01*
X206019903Y-88852555D01*
X206022736Y-88854814D01*
X206022738Y-88854816D01*
X206175478Y-88950789D01*
X206345745Y-89010368D01*
X206345750Y-89010369D01*
X206524996Y-89030565D01*
X206525000Y-89030565D01*
X206525004Y-89030565D01*
X206704249Y-89010369D01*
X206704252Y-89010368D01*
X206704255Y-89010368D01*
X206874522Y-88950789D01*
X207027262Y-88854816D01*
X207154816Y-88727262D01*
X207250789Y-88574522D01*
X207310368Y-88404255D01*
X207312896Y-88381817D01*
X207330565Y-88225003D01*
X207330565Y-88224996D01*
X207310369Y-88045750D01*
X207310368Y-88045745D01*
X207254258Y-87885393D01*
X207250789Y-87875478D01*
X207250242Y-87874608D01*
X207207412Y-87806444D01*
X207154816Y-87722738D01*
X207027262Y-87595184D01*
X206973190Y-87561208D01*
X206874523Y-87499211D01*
X206704254Y-87439631D01*
X206704249Y-87439630D01*
X206525004Y-87419435D01*
X206524996Y-87419435D01*
X206345750Y-87439630D01*
X206345745Y-87439631D01*
X206175476Y-87499211D01*
X206022736Y-87595185D01*
X206019903Y-87597445D01*
X206017724Y-87598334D01*
X206016842Y-87598889D01*
X206016744Y-87598734D01*
X205955217Y-87623855D01*
X205942588Y-87624500D01*
X203799500Y-87624500D01*
X203732461Y-87604815D01*
X203686706Y-87552011D01*
X203675500Y-87500500D01*
X203675500Y-86759313D01*
X203675499Y-86759298D01*
X203672598Y-86722432D01*
X203672597Y-86722426D01*
X203626745Y-86564606D01*
X203626744Y-86564603D01*
X203626744Y-86564602D01*
X203543081Y-86423135D01*
X203543079Y-86423133D01*
X203543076Y-86423129D01*
X203426870Y-86306923D01*
X203426859Y-86306914D01*
X203407467Y-86295446D01*
X203359784Y-86244377D01*
X203347281Y-86175635D01*
X203373927Y-86111046D01*
X203400424Y-86086475D01*
X203443512Y-86056906D01*
X203444485Y-86056147D01*
X203444508Y-86056126D01*
X203445207Y-86055546D01*
X203451274Y-86050811D01*
X203452474Y-86049931D01*
X203452512Y-86049906D01*
X203453485Y-86049147D01*
X203500013Y-86008013D01*
X203508013Y-86000013D01*
X203549147Y-85953485D01*
X203549906Y-85952512D01*
X203549931Y-85952474D01*
X203550811Y-85951274D01*
X203555546Y-85945207D01*
X203556126Y-85944508D01*
X203556147Y-85944485D01*
X203556169Y-85944457D01*
X203556905Y-85943514D01*
X203567260Y-85928424D01*
X203591793Y-85892676D01*
X203600793Y-85877676D01*
X203619963Y-85842661D01*
X203620322Y-85841939D01*
X203623695Y-85834404D01*
X203624786Y-85832036D01*
X203633448Y-85813798D01*
X203633620Y-85813416D01*
X203642034Y-85793614D01*
X203644034Y-85788614D01*
X203661574Y-85736794D01*
X203661866Y-85735748D01*
X203661871Y-85735725D01*
X203661873Y-85735719D01*
X203662277Y-85734109D01*
X203662328Y-85734121D01*
X203664286Y-85726726D01*
X203664563Y-85725826D01*
X203664574Y-85725794D01*
X203664866Y-85724748D01*
X203676603Y-85671934D01*
X203677603Y-85665934D01*
X203682743Y-85624709D01*
X203682812Y-85623879D01*
X203682812Y-85623857D01*
X203682863Y-85623253D01*
X203683049Y-85621219D01*
X203683091Y-85620796D01*
X203685335Y-85575349D01*
X203685549Y-85571023D01*
X203685550Y-85570998D01*
X203685550Y-82888997D01*
X203684586Y-82861985D01*
X203684265Y-82852985D01*
X203684214Y-82852271D01*
X203680418Y-82816798D01*
X203679490Y-82810308D01*
X203678648Y-82802747D01*
X203678031Y-82795086D01*
X203678029Y-82795070D01*
X203677771Y-82793477D01*
X203677770Y-82793472D01*
X203677615Y-82792842D01*
X203675266Y-82780737D01*
X203674581Y-82775947D01*
X203671598Y-82765544D01*
X203666650Y-82741622D01*
X203666460Y-82740855D01*
X203655350Y-82702550D01*
X203649350Y-82684550D01*
X203636258Y-82651452D01*
X203635861Y-82647099D01*
X203631498Y-82638374D01*
X203629700Y-82634483D01*
X203629656Y-82634504D01*
X203628939Y-82632947D01*
X203628478Y-82631946D01*
X203625513Y-82626333D01*
X203624244Y-82623864D01*
X203618151Y-82611677D01*
X203615650Y-82606676D01*
X203606444Y-82589132D01*
X203606257Y-82588792D01*
X203596793Y-82572324D01*
X203593793Y-82567324D01*
X203587925Y-82557786D01*
X203587902Y-82557748D01*
X203587826Y-82557629D01*
X203587797Y-82557583D01*
X203580803Y-82546798D01*
X203576803Y-82540798D01*
X203564169Y-82522715D01*
X203563910Y-82522361D01*
X203550672Y-82505062D01*
X203546672Y-82500062D01*
X203528757Y-82478886D01*
X203528385Y-82478470D01*
X203528377Y-82478461D01*
X203511218Y-82460318D01*
X203508908Y-82457808D01*
X203501395Y-82449413D01*
X203500593Y-82448611D01*
X203492190Y-82441090D01*
X203489684Y-82438784D01*
X203471538Y-82421621D01*
X203471119Y-82421247D01*
X203449938Y-82403328D01*
X203444930Y-82399321D01*
X203441029Y-82396336D01*
X203399752Y-82339962D01*
X203395506Y-82270222D01*
X203429638Y-82209257D01*
X203491312Y-82176423D01*
X203506654Y-82174243D01*
X203527569Y-82172598D01*
X203527571Y-82172597D01*
X203527573Y-82172597D01*
X203575970Y-82158536D01*
X203685398Y-82126744D01*
X203826865Y-82043081D01*
X203943081Y-81926865D01*
X204026744Y-81785398D01*
X204072598Y-81627569D01*
X204075500Y-81590694D01*
X204075500Y-81159306D01*
X204072598Y-81122431D01*
X204069110Y-81110426D01*
X204026745Y-80964606D01*
X204026744Y-80964603D01*
X204026744Y-80964602D01*
X203943081Y-80823135D01*
X203943079Y-80823133D01*
X203943076Y-80823129D01*
X203826870Y-80706923D01*
X203826862Y-80706917D01*
X203729269Y-80649201D01*
X203685398Y-80623256D01*
X203685397Y-80623255D01*
X203685396Y-80623255D01*
X203685393Y-80623254D01*
X203527573Y-80577402D01*
X203527567Y-80577401D01*
X203490701Y-80574500D01*
X203490694Y-80574500D01*
X202559306Y-80574500D01*
X202559298Y-80574500D01*
X202522432Y-80577401D01*
X202522426Y-80577402D01*
X202364606Y-80623254D01*
X202364603Y-80623255D01*
X202223137Y-80706917D01*
X202223129Y-80706923D01*
X202106923Y-80823129D01*
X202106914Y-80823140D01*
X202095445Y-80842534D01*
X202044375Y-80890216D01*
X201975633Y-80902718D01*
X201911044Y-80876070D01*
X201886475Y-80849574D01*
X201856911Y-80806494D01*
X201856660Y-80806173D01*
X201856147Y-80805515D01*
X201856138Y-80805505D01*
X201855491Y-80804725D01*
X201850828Y-80798748D01*
X201849923Y-80797513D01*
X201849906Y-80797488D01*
X201849147Y-80796515D01*
X201808013Y-80749987D01*
X201800013Y-80741987D01*
X201753485Y-80700853D01*
X201753479Y-80700848D01*
X201753477Y-80700846D01*
X201752497Y-80700082D01*
X201751239Y-80699161D01*
X201745274Y-80694508D01*
X201744485Y-80693853D01*
X201743507Y-80693090D01*
X201692682Y-80658211D01*
X201692670Y-80658203D01*
X201677666Y-80649201D01*
X201642685Y-80630049D01*
X201641931Y-80629674D01*
X201637251Y-80627578D01*
X201634411Y-80626307D01*
X201631931Y-80625163D01*
X201613790Y-80616548D01*
X201613413Y-80616378D01*
X201593616Y-80607966D01*
X201588611Y-80605965D01*
X201536794Y-80588426D01*
X201535725Y-80588127D01*
X201534141Y-80587731D01*
X201534151Y-80587688D01*
X201534143Y-80587686D01*
X201534144Y-80587682D01*
X201526790Y-80585733D01*
X201525802Y-80585428D01*
X201524745Y-80585133D01*
X201471942Y-80573398D01*
X201469532Y-80572996D01*
X201465934Y-80572397D01*
X201465922Y-80572395D01*
X201465919Y-80572395D01*
X201424699Y-80567255D01*
X201423193Y-80567130D01*
X201421261Y-80566954D01*
X201420821Y-80566910D01*
X201420794Y-80566908D01*
X201371023Y-80564450D01*
X201371000Y-80564450D01*
X198679000Y-80564450D01*
X198678976Y-80564450D01*
X198629205Y-80566908D01*
X198629201Y-80566908D01*
X198628703Y-80566958D01*
X198626815Y-80567129D01*
X198625304Y-80567254D01*
X198584080Y-80572395D01*
X198584073Y-80572396D01*
X198584066Y-80572397D01*
X198581670Y-80572796D01*
X198578057Y-80573398D01*
X198525245Y-80585135D01*
X198524215Y-80585422D01*
X198523213Y-80585732D01*
X198515862Y-80587681D01*
X198515863Y-80587684D01*
X198515835Y-80587691D01*
X198515846Y-80587735D01*
X198514244Y-80588135D01*
X198513208Y-80588425D01*
X198461388Y-80605965D01*
X198456383Y-80607966D01*
X198436586Y-80616378D01*
X198436208Y-80616548D01*
X198418099Y-80625149D01*
X198415618Y-80626293D01*
X198409971Y-80628822D01*
X198408054Y-80629681D01*
X198407324Y-80630044D01*
X198372333Y-80649201D01*
X198357329Y-80658203D01*
X198357301Y-80658221D01*
X198319663Y-80684051D01*
X198253250Y-80705754D01*
X198185646Y-80688106D01*
X198138315Y-80636710D01*
X198125500Y-80581811D01*
X198125500Y-79551781D01*
X198145185Y-79484742D01*
X198197989Y-79438987D01*
X198236245Y-79428491D01*
X198286483Y-79423091D01*
X198421331Y-79372796D01*
X198536546Y-79286546D01*
X198622796Y-79171331D01*
X198673091Y-79036483D01*
X198679500Y-78976873D01*
X198679499Y-77573135D01*
X202870500Y-77573135D01*
X202870500Y-78976870D01*
X202870501Y-78976876D01*
X202876908Y-79036483D01*
X202927202Y-79171328D01*
X202927206Y-79171335D01*
X203013452Y-79286544D01*
X203013455Y-79286547D01*
X203128664Y-79372793D01*
X203128671Y-79372797D01*
X203263517Y-79423091D01*
X203263516Y-79423091D01*
X203270444Y-79423835D01*
X203323127Y-79429500D01*
X204726872Y-79429499D01*
X204786483Y-79423091D01*
X204921331Y-79372796D01*
X205036546Y-79286546D01*
X205122796Y-79171331D01*
X205173091Y-79036483D01*
X205179500Y-78976873D01*
X205179499Y-77573128D01*
X205173091Y-77513517D01*
X205122796Y-77378669D01*
X205122795Y-77378668D01*
X205122793Y-77378664D01*
X205036547Y-77263455D01*
X205036544Y-77263452D01*
X204921335Y-77177206D01*
X204921328Y-77177202D01*
X204786482Y-77126908D01*
X204786483Y-77126908D01*
X204726883Y-77120501D01*
X204726881Y-77120500D01*
X204726873Y-77120500D01*
X204726864Y-77120500D01*
X203323129Y-77120500D01*
X203323123Y-77120501D01*
X203263516Y-77126908D01*
X203128671Y-77177202D01*
X203128664Y-77177206D01*
X203013455Y-77263452D01*
X203013452Y-77263455D01*
X202927206Y-77378664D01*
X202927202Y-77378671D01*
X202876908Y-77513517D01*
X202870501Y-77573116D01*
X202870501Y-77573123D01*
X202870500Y-77573135D01*
X198679499Y-77573135D01*
X198679499Y-77573128D01*
X198673091Y-77513517D01*
X198622796Y-77378669D01*
X198622795Y-77378668D01*
X198622793Y-77378664D01*
X198536547Y-77263455D01*
X198536544Y-77263452D01*
X198421335Y-77177206D01*
X198421328Y-77177202D01*
X198286482Y-77126908D01*
X198286483Y-77126908D01*
X198226883Y-77120501D01*
X198226881Y-77120500D01*
X198226873Y-77120500D01*
X198226864Y-77120500D01*
X196823129Y-77120500D01*
X196823123Y-77120501D01*
X196763516Y-77126908D01*
X196628671Y-77177202D01*
X196628664Y-77177206D01*
X196513455Y-77263452D01*
X196513452Y-77263455D01*
X196427206Y-77378664D01*
X196427202Y-77378671D01*
X196376908Y-77513517D01*
X196370501Y-77573116D01*
X196370501Y-77573123D01*
X196370500Y-77573135D01*
X196370500Y-78976870D01*
X196370501Y-78976876D01*
X196376908Y-79036483D01*
X196427202Y-79171328D01*
X196427206Y-79171335D01*
X196513452Y-79286544D01*
X196513455Y-79286547D01*
X196628664Y-79372793D01*
X196628671Y-79372797D01*
X196763517Y-79423091D01*
X196763516Y-79423091D01*
X196813756Y-79428493D01*
X196878307Y-79455231D01*
X196918155Y-79512624D01*
X196924500Y-79551782D01*
X196924500Y-80083699D01*
X196904815Y-80150738D01*
X196852011Y-80196493D01*
X196835095Y-80202775D01*
X196764606Y-80223253D01*
X196764603Y-80223255D01*
X196623137Y-80306917D01*
X196623129Y-80306923D01*
X196506923Y-80423129D01*
X196506917Y-80423137D01*
X196423255Y-80564603D01*
X196423254Y-80564606D01*
X196377402Y-80722426D01*
X196377401Y-80722432D01*
X196374500Y-80759298D01*
X196374500Y-81690701D01*
X196377401Y-81727567D01*
X196377402Y-81727573D01*
X196423254Y-81885393D01*
X196423255Y-81885396D01*
X196506917Y-82026862D01*
X196506923Y-82026870D01*
X196623129Y-82143076D01*
X196623133Y-82143079D01*
X196623135Y-82143081D01*
X196623137Y-82143082D01*
X196649268Y-82158536D01*
X196696951Y-82209605D01*
X196709455Y-82278346D01*
X196682810Y-82342936D01*
X196654939Y-82368436D01*
X196650804Y-82371193D01*
X196632733Y-82383817D01*
X196632356Y-82384094D01*
X196629919Y-82385958D01*
X196625619Y-82389102D01*
X196621744Y-82391809D01*
X196621369Y-82392084D01*
X196604054Y-82405333D01*
X196599061Y-82409328D01*
X196577880Y-82427247D01*
X196577479Y-82427605D01*
X196556971Y-82447002D01*
X196547002Y-82456971D01*
X196527605Y-82477479D01*
X196527247Y-82477880D01*
X196509328Y-82499061D01*
X196505333Y-82504054D01*
X196492084Y-82521369D01*
X196491809Y-82521744D01*
X196489102Y-82525619D01*
X196485958Y-82529919D01*
X196484094Y-82532356D01*
X196483817Y-82532733D01*
X196471195Y-82550801D01*
X196467190Y-82556808D01*
X196450555Y-82583527D01*
X196450229Y-82584090D01*
X196435349Y-82611677D01*
X196429344Y-82623686D01*
X196414514Y-82656169D01*
X196414237Y-82656836D01*
X196410673Y-82666382D01*
X196409474Y-82669468D01*
X196403845Y-82683394D01*
X196403679Y-82683829D01*
X196396654Y-82703536D01*
X196394651Y-82709543D01*
X196394643Y-82709571D01*
X196382180Y-82753480D01*
X196382173Y-82753508D01*
X196381968Y-82754379D01*
X196373582Y-82798790D01*
X196372587Y-82805762D01*
X196372259Y-82807918D01*
X196371510Y-82812569D01*
X196371464Y-82812865D01*
X196370604Y-82818643D01*
X196369581Y-82825808D01*
X196365787Y-82861257D01*
X196365734Y-82861994D01*
X196364450Y-82897997D01*
X196364450Y-85571023D01*
X196366908Y-85620794D01*
X196366910Y-85620821D01*
X196366954Y-85621261D01*
X196367130Y-85623193D01*
X196367255Y-85624699D01*
X196372395Y-85665919D01*
X196373398Y-85671942D01*
X196385133Y-85724745D01*
X196385428Y-85725802D01*
X196385733Y-85726790D01*
X196387682Y-85734144D01*
X196387686Y-85734143D01*
X196387688Y-85734151D01*
X196387731Y-85734141D01*
X196388127Y-85735725D01*
X196388426Y-85736794D01*
X196405965Y-85788611D01*
X196407966Y-85793616D01*
X196416378Y-85813413D01*
X196416548Y-85813790D01*
X196425163Y-85831931D01*
X196426313Y-85834425D01*
X196427578Y-85837251D01*
X196429674Y-85841931D01*
X196430049Y-85842685D01*
X196449201Y-85877666D01*
X196458203Y-85892670D01*
X196458211Y-85892682D01*
X196493090Y-85943507D01*
X196493853Y-85944485D01*
X196494508Y-85945274D01*
X196499161Y-85951239D01*
X196500082Y-85952497D01*
X196500846Y-85953477D01*
X196500848Y-85953479D01*
X196500853Y-85953485D01*
X196541987Y-86000013D01*
X196549987Y-86008013D01*
X196596515Y-86049147D01*
X196597488Y-86049906D01*
X196597513Y-86049923D01*
X196598748Y-86050828D01*
X196604722Y-86055488D01*
X196605506Y-86056139D01*
X196605515Y-86056147D01*
X196605523Y-86056153D01*
X196606804Y-86057217D01*
X196645802Y-86115191D01*
X196647266Y-86185045D01*
X196610732Y-86244602D01*
X196547799Y-86274953D01*
X196537316Y-86276229D01*
X196522441Y-86277400D01*
X196522426Y-86277402D01*
X196364606Y-86323254D01*
X196364603Y-86323255D01*
X196223137Y-86406917D01*
X196223129Y-86406923D01*
X196106923Y-86523129D01*
X196106917Y-86523137D01*
X196023255Y-86664603D01*
X196023254Y-86664606D01*
X195977402Y-86822426D01*
X195977401Y-86822432D01*
X195974500Y-86859298D01*
X189318489Y-86859298D01*
X189310575Y-86822432D01*
X189184945Y-86237187D01*
X189183596Y-86229823D01*
X189167555Y-86124430D01*
X189084550Y-85579053D01*
X189083648Y-85571619D01*
X189083592Y-85570998D01*
X189024073Y-84916028D01*
X189023624Y-84908596D01*
X189003742Y-84250609D01*
X189003742Y-84243125D01*
X189023624Y-83585141D01*
X189024073Y-83577713D01*
X189083648Y-82922115D01*
X189084551Y-82914684D01*
X189088460Y-82889000D01*
X189183597Y-82263907D01*
X189184946Y-82256549D01*
X189202967Y-82172598D01*
X189323105Y-81612938D01*
X189324888Y-81605700D01*
X189501669Y-80971555D01*
X189503885Y-80964447D01*
X189718622Y-80342162D01*
X189721262Y-80335200D01*
X189973189Y-79726995D01*
X189976242Y-79720211D01*
X190264429Y-79128333D01*
X190267887Y-79121745D01*
X190591282Y-78548350D01*
X190595147Y-78541959D01*
X190730467Y-78332662D01*
X190952570Y-77989140D01*
X190956786Y-77983031D01*
X191346949Y-77452785D01*
X191351541Y-77446923D01*
X191773015Y-76941192D01*
X191777932Y-76935642D01*
X192229146Y-76456311D01*
X192234442Y-76451016D01*
X192713772Y-75999802D01*
X192719322Y-75994885D01*
X193225053Y-75573411D01*
X193230915Y-75568819D01*
X193761161Y-75178656D01*
X193767270Y-75174440D01*
X194126207Y-74942370D01*
X194320089Y-74817017D01*
X194326480Y-74813152D01*
X194899875Y-74489757D01*
X194906463Y-74486299D01*
X195498341Y-74198112D01*
X195505125Y-74195059D01*
X196113330Y-73943132D01*
X196120292Y-73940492D01*
X196742577Y-73725755D01*
X196749685Y-73723539D01*
X197383830Y-73546758D01*
X197391068Y-73544975D01*
X198034688Y-73406814D01*
X198042037Y-73405467D01*
X198692820Y-73306420D01*
X198700245Y-73305518D01*
X199355843Y-73245943D01*
X199363271Y-73245494D01*
X200021260Y-73225612D01*
X200028740Y-73225612D01*
X200686726Y-73245494D01*
G37*
%TD.AperFunction*%
%TD*%
M02*
