%TF.GenerationSoftware,KiCad,Pcbnew,8.0.8*%
%TF.CreationDate,2025-01-23T17:23:27+02:00*%
%TF.ProjectId,gamma-spectrometer,67616d6d-612d-4737-9065-6374726f6d65,v0.0.4*%
%TF.SameCoordinates,Original*%
%TF.FileFunction,Plated,1,2,PTH,Drill*%
%TF.FilePolarity,Positive*%
%FSLAX46Y46*%
G04 Gerber Fmt 4.6, Leading zero omitted, Abs format (unit mm)*
G04 Created by KiCad (PCBNEW 8.0.8) date 2025-01-23 17:23:27*
%MOMM*%
%LPD*%
G01*
G04 APERTURE LIST*
%TA.AperFunction,ViaDrill*%
%ADD10C,0.300000*%
%TD*%
%TA.AperFunction,ViaDrill*%
%ADD11C,0.500000*%
%TD*%
%TA.AperFunction,ComponentDrill*%
%ADD12C,0.710000*%
%TD*%
%TA.AperFunction,ComponentDrill*%
%ADD13C,0.800000*%
%TD*%
%TA.AperFunction,ComponentDrill*%
%ADD14C,1.020000*%
%TD*%
%TA.AperFunction,ViaDrill*%
%ADD15C,3.000000*%
%TD*%
G04 APERTURE END LIST*
D10*
X96200000Y-67500000D03*
X139000000Y-62000000D03*
X140900000Y-70000000D03*
X206525000Y-88225000D03*
D11*
X89500000Y-70000000D03*
X92050000Y-70000000D03*
X94550000Y-70000000D03*
D12*
%TO.C,VR2*%
X142000000Y-103000000D03*
X144540000Y-103000000D03*
X147080000Y-103000000D03*
%TO.C,VR1*%
X153700000Y-65460000D03*
X153700000Y-68000000D03*
X153700000Y-70540000D03*
D13*
%TO.C,J1*%
X91700000Y-102450000D03*
X93700000Y-102450000D03*
X95700000Y-102450000D03*
X97700000Y-102450000D03*
%TO.C,J2*%
X102200000Y-102450000D03*
X104200000Y-102450000D03*
X106200000Y-102450000D03*
X108200000Y-102450000D03*
X110200000Y-102450000D03*
X112200000Y-102450000D03*
%TO.C,J3*%
X123250000Y-68000000D03*
X123250000Y-70000000D03*
%TO.C,J4*%
X154500000Y-100450000D03*
X156500000Y-100450000D03*
%TO.C,J5*%
X195525000Y-78275000D03*
X197525000Y-78275000D03*
%TO.C,J6*%
X202025000Y-78275000D03*
X204025000Y-78275000D03*
D14*
%TO.C,U1*%
X89500000Y-76590000D03*
X89500000Y-94370000D03*
X92040000Y-76590000D03*
X92040000Y-94370000D03*
X94580000Y-76590000D03*
X94580000Y-94370000D03*
X97120000Y-76590000D03*
X97120000Y-94370000D03*
X99660000Y-76590000D03*
X99660000Y-94370000D03*
X102200000Y-76590000D03*
X102200000Y-94370000D03*
X104740000Y-76590000D03*
X104740000Y-94370000D03*
X107280000Y-76590000D03*
X107280000Y-94370000D03*
X109820000Y-76590000D03*
X109820000Y-94370000D03*
X112360000Y-76590000D03*
X112360000Y-94370000D03*
X114900000Y-76590000D03*
X114900000Y-94370000D03*
X117440000Y-76590000D03*
X117440000Y-94370000D03*
X119980000Y-76590000D03*
X119980000Y-94370000D03*
X122520000Y-76590000D03*
X122520000Y-94370000D03*
X125060000Y-76590000D03*
X125060000Y-94370000D03*
X127600000Y-76590000D03*
X127600000Y-94370000D03*
X130140000Y-76590000D03*
X130140000Y-94370000D03*
X132680000Y-76590000D03*
X132680000Y-94370000D03*
X135220000Y-76590000D03*
X135220000Y-94370000D03*
X137530000Y-82940000D03*
X137530000Y-85480000D03*
X137530000Y-88020000D03*
X137760000Y-76590000D03*
X137760000Y-94370000D03*
%TD*%
D15*
X125500000Y-60500000D03*
X125500000Y-110500000D03*
X175500000Y-60500000D03*
X175500000Y-110500000D03*
M02*
