%TF.GenerationSoftware,KiCad,Pcbnew,8.0.8*%
%TF.CreationDate,2025-01-23T17:23:19+02:00*%
%TF.ProjectId,gamma-spectrometer,67616d6d-612d-4737-9065-6374726f6d65,v0.0.4*%
%TF.SameCoordinates,Original*%
%TF.FileFunction,Paste,Top*%
%TF.FilePolarity,Positive*%
%FSLAX46Y46*%
G04 Gerber Fmt 4.6, Leading zero omitted, Abs format (unit mm)*
G04 Created by KiCad (PCBNEW 8.0.8) date 2025-01-23 17:23:19*
%MOMM*%
%LPD*%
G01*
G04 APERTURE LIST*
G04 Aperture macros list*
%AMRoundRect*
0 Rectangle with rounded corners*
0 $1 Rounding radius*
0 $2 $3 $4 $5 $6 $7 $8 $9 X,Y pos of 4 corners*
0 Add a 4 corners polygon primitive as box body*
4,1,4,$2,$3,$4,$5,$6,$7,$8,$9,$2,$3,0*
0 Add four circle primitives for the rounded corners*
1,1,$1+$1,$2,$3*
1,1,$1+$1,$4,$5*
1,1,$1+$1,$6,$7*
1,1,$1+$1,$8,$9*
0 Add four rect primitives between the rounded corners*
20,1,$1+$1,$2,$3,$4,$5,0*
20,1,$1+$1,$4,$5,$6,$7,0*
20,1,$1+$1,$6,$7,$8,$9,0*
20,1,$1+$1,$8,$9,$2,$3,0*%
G04 Aperture macros list end*
%ADD10C,0.010000*%
%ADD11RoundRect,0.072500X0.217500X-0.532500X0.217500X0.532500X-0.217500X0.532500X-0.217500X-0.532500X0*%
%ADD12R,0.650000X0.900000*%
%ADD13R,0.900000X0.650000*%
%ADD14R,1.450000X1.150000*%
%ADD15RoundRect,0.075000X-0.540000X-0.225000X0.540000X-0.225000X0.540000X0.225000X-0.540000X0.225000X0*%
%ADD16RoundRect,0.075000X0.260000X-0.225000X0.260000X0.225000X-0.260000X0.225000X-0.260000X-0.225000X0*%
%ADD17RoundRect,0.108750X0.356250X-0.326250X0.356250X0.326250X-0.356250X0.326250X-0.356250X-0.326250X0*%
%ADD18RoundRect,0.108750X0.326250X0.356250X-0.326250X0.356250X-0.326250X-0.356250X0.326250X-0.356250X0*%
%ADD19R,1.150000X1.450000*%
%ADD20RoundRect,0.075000X-0.225000X-0.260000X0.225000X-0.260000X0.225000X0.260000X-0.225000X0.260000X0*%
%ADD21RoundRect,0.147500X-0.467500X-0.147500X0.467500X-0.147500X0.467500X0.147500X-0.467500X0.147500X0*%
%ADD22R,0.870000X0.930000*%
%ADD23RoundRect,0.075000X0.225000X0.260000X-0.225000X0.260000X-0.225000X-0.260000X0.225000X-0.260000X0*%
%ADD24RoundRect,0.150000X-0.460000X-0.150000X0.460000X-0.150000X0.460000X0.150000X-0.460000X0.150000X0*%
%ADD25RoundRect,0.150000X-0.587500X-0.150000X0.587500X-0.150000X0.587500X0.150000X-0.587500X0.150000X0*%
%ADD26RoundRect,0.108750X-0.356250X0.326250X-0.356250X-0.326250X0.356250X-0.326250X0.356250X0.326250X0*%
%ADD27RoundRect,0.108750X-0.326250X-0.356250X0.326250X-0.356250X0.326250X0.356250X-0.326250X0.356250X0*%
%ADD28R,1.295400X3.937000*%
%ADD29R,3.700000X1.200000*%
%ADD30R,0.700000X0.700000*%
%ADD31RoundRect,0.073750X-0.221250X0.531250X-0.221250X-0.531250X0.221250X-0.531250X0.221250X0.531250X0*%
%ADD32RoundRect,0.125000X-0.125000X-0.125000X0.125000X-0.125000X0.125000X0.125000X-0.125000X0.125000X0*%
%ADD33RoundRect,0.147500X0.147500X-0.457500X0.147500X0.457500X-0.147500X0.457500X-0.147500X-0.457500X0*%
%ADD34RoundRect,0.147500X0.467500X0.147500X-0.467500X0.147500X-0.467500X-0.147500X0.467500X-0.147500X0*%
%ADD35RoundRect,0.072500X-0.532500X-0.217500X0.532500X-0.217500X0.532500X0.217500X-0.532500X0.217500X0*%
%ADD36RoundRect,0.213750X-1.141250X0.641250X-1.141250X-0.641250X1.141250X-0.641250X1.141250X0.641250X0*%
%ADD37RoundRect,0.150000X0.150000X-0.587500X0.150000X0.587500X-0.150000X0.587500X-0.150000X-0.587500X0*%
%ADD38R,0.810000X0.930000*%
%ADD39RoundRect,0.150000X0.587500X0.150000X-0.587500X0.150000X-0.587500X-0.150000X0.587500X-0.150000X0*%
%ADD40R,1.400000X1.600000*%
%ADD41RoundRect,0.075000X-0.225000X0.540000X-0.225000X-0.540000X0.225000X-0.540000X0.225000X0.540000X0*%
G04 APERTURE END LIST*
D10*
%TO.C,D5*%
X150050000Y-93750000D02*
X149550000Y-93750000D01*
X149550000Y-93250000D01*
X150050000Y-93250000D01*
X150050000Y-93750000D01*
G36*
X150050000Y-93750000D02*
G01*
X149550000Y-93750000D01*
X149550000Y-93250000D01*
X150050000Y-93250000D01*
X150050000Y-93750000D01*
G37*
X152250000Y-93750000D02*
X151750000Y-93750000D01*
X151750000Y-93250000D01*
X152250000Y-93250000D01*
X152250000Y-93750000D01*
G36*
X152250000Y-93750000D02*
G01*
X151750000Y-93750000D01*
X151750000Y-93250000D01*
X152250000Y-93250000D01*
X152250000Y-93750000D01*
G37*
%TD*%
D11*
%TO.C,U4*%
X134395000Y-69905000D03*
X135345000Y-69905000D03*
X136295000Y-69905000D03*
X136295000Y-67395000D03*
X135345000Y-67395000D03*
X134395000Y-67395000D03*
%TD*%
D12*
%TO.C,R6*%
X128925000Y-66500000D03*
X127475000Y-66500000D03*
%TD*%
D13*
%TO.C,R1*%
X126000000Y-67725000D03*
X126000000Y-66275000D03*
%TD*%
D12*
%TO.C,R15*%
X150275000Y-101000000D03*
X151725000Y-101000000D03*
%TD*%
D14*
%TO.C,C19*%
X197025000Y-86625000D03*
X197025000Y-84825000D03*
%TD*%
D15*
%TO.C,Q4*%
X202965000Y-81775000D03*
X202965000Y-83675000D03*
X205085000Y-82725000D03*
%TD*%
D12*
%TO.C,R5*%
X130275000Y-61000000D03*
X131725000Y-61000000D03*
%TD*%
D16*
%TO.C,FB1*%
X99700000Y-70435000D03*
X99700000Y-69565000D03*
%TD*%
D17*
%TO.C,C21*%
X204525000Y-89785000D03*
X204525000Y-88225000D03*
%TD*%
D12*
%TO.C,R20*%
X202800000Y-86725000D03*
X204250000Y-86725000D03*
%TD*%
D18*
%TO.C,C16*%
X154780000Y-104500000D03*
X153220000Y-104500000D03*
%TD*%
D19*
%TO.C,C15*%
X158400000Y-106500000D03*
X156600000Y-106500000D03*
%TD*%
D20*
%TO.C,FB2*%
X150065000Y-103000000D03*
X150935000Y-103000000D03*
%TD*%
D21*
%TO.C,U6*%
X158200000Y-64500000D03*
X158200000Y-66400000D03*
X160320000Y-65450000D03*
%TD*%
D22*
%TO.C,C9*%
X138420000Y-66000000D03*
X139980000Y-66000000D03*
%TD*%
D12*
%TO.C,R8*%
X149425000Y-65500000D03*
X147975000Y-65500000D03*
%TD*%
D13*
%TO.C,R4*%
X116500000Y-68045000D03*
X116500000Y-66595000D03*
%TD*%
D18*
%TO.C,C10*%
X139980000Y-67500000D03*
X138420000Y-67500000D03*
%TD*%
D17*
%TO.C,C3*%
X116200000Y-64780000D03*
X116200000Y-63220000D03*
%TD*%
D12*
%TO.C,R13*%
X146725000Y-63500000D03*
X145275000Y-63500000D03*
%TD*%
D23*
%TO.C,FB3*%
X150935000Y-92000000D03*
X150065000Y-92000000D03*
%TD*%
D22*
%TO.C,C11*%
X144280000Y-97000000D03*
X142720000Y-97000000D03*
%TD*%
D19*
%TO.C,C13*%
X151600000Y-106500000D03*
X153400000Y-106500000D03*
%TD*%
D24*
%TO.C,U8*%
X142255000Y-93550000D03*
X142255000Y-94500000D03*
X142255000Y-95450000D03*
X144745000Y-95450000D03*
X144745000Y-94500000D03*
X144745000Y-93550000D03*
%TD*%
D19*
%TO.C,C17*%
X195425000Y-82225000D03*
X193625000Y-82225000D03*
%TD*%
D13*
%TO.C,TH1*%
X201025000Y-80500000D03*
X201025000Y-81950000D03*
%TD*%
D25*
%TO.C,D1*%
X120700000Y-63050000D03*
X120700000Y-64950000D03*
X122575000Y-64000000D03*
%TD*%
D13*
%TO.C,R18*%
X201025000Y-84950000D03*
X201025000Y-83500000D03*
%TD*%
D26*
%TO.C,C7*%
X148500000Y-67220000D03*
X148500000Y-68780000D03*
%TD*%
D12*
%TO.C,R10*%
X143425000Y-66000000D03*
X141975000Y-66000000D03*
%TD*%
D22*
%TO.C,C1*%
X99200000Y-65500000D03*
X100760000Y-65500000D03*
%TD*%
D13*
%TO.C,R3*%
X118200000Y-68045000D03*
X118200000Y-66595000D03*
%TD*%
%TO.C,R19*%
X197025000Y-89950000D03*
X197025000Y-88500000D03*
%TD*%
D27*
%TO.C,C5*%
X133220000Y-62500000D03*
X134780000Y-62500000D03*
%TD*%
D22*
%TO.C,C18*%
X147780000Y-92000000D03*
X146220000Y-92000000D03*
%TD*%
D28*
%TO.C,LS1*%
X142596400Y-85000000D03*
X149403600Y-85000000D03*
%TD*%
D12*
%TO.C,R16*%
X151725000Y-104500000D03*
X150275000Y-104500000D03*
%TD*%
%TO.C,R12*%
X141975000Y-68000000D03*
X143425000Y-68000000D03*
%TD*%
D17*
%TO.C,C22*%
X206525000Y-89785000D03*
X206525000Y-88225000D03*
%TD*%
D29*
%TO.C,L1*%
X148000000Y-95600000D03*
X148000000Y-98400000D03*
%TD*%
D30*
%TO.C,C8*%
X138850000Y-64500000D03*
X137550000Y-64500000D03*
%TD*%
D13*
%TO.C,R17*%
X199025000Y-82000000D03*
X199025000Y-83450000D03*
%TD*%
D22*
%TO.C,C4*%
X134780000Y-61000000D03*
X133220000Y-61000000D03*
%TD*%
D27*
%TO.C,C20*%
X199025000Y-90725000D03*
X200585000Y-90725000D03*
%TD*%
D31*
%TO.C,VR3*%
X194975000Y-84470000D03*
X194025000Y-84470000D03*
X193075000Y-84470000D03*
X193075000Y-86980000D03*
X194975000Y-86980000D03*
%TD*%
D32*
%TO.C,D4*%
X146400000Y-90000000D03*
X148600000Y-90000000D03*
%TD*%
D33*
%TO.C,U3*%
X130250000Y-69905000D03*
X131200000Y-69905000D03*
X132150000Y-69905000D03*
X132150000Y-67395000D03*
X130250000Y-67395000D03*
%TD*%
D34*
%TO.C,U7*%
X110260000Y-68950000D03*
X110260000Y-67050000D03*
X108140000Y-68000000D03*
%TD*%
D13*
%TO.C,R2*%
X119700000Y-66775000D03*
X119700000Y-68225000D03*
%TD*%
D35*
%TO.C,U2*%
X129145000Y-62550000D03*
X129145000Y-63500000D03*
X129145000Y-64450000D03*
X131655000Y-64450000D03*
X131655000Y-63500000D03*
X131655000Y-62550000D03*
%TD*%
D12*
%TO.C,R9*%
X147975000Y-64000000D03*
X149425000Y-64000000D03*
%TD*%
D36*
%TO.C,C3*%
X112700000Y-64795000D03*
X112700000Y-67205000D03*
%TD*%
D37*
%TO.C,D3*%
X141750000Y-73437500D03*
X143650000Y-73437500D03*
X142700000Y-71562500D03*
%TD*%
D38*
%TO.C,D2*%
X141890000Y-78000000D03*
X143510000Y-78000000D03*
%TD*%
D39*
%TO.C,Q2*%
X144000000Y-91900000D03*
X144000000Y-90000000D03*
X142125000Y-90950000D03*
%TD*%
D19*
%TO.C,C14*%
X158400000Y-104500000D03*
X156600000Y-104500000D03*
%TD*%
D13*
%TO.C,R14*%
X140500000Y-93775000D03*
X140500000Y-95225000D03*
%TD*%
D40*
%TO.C,SW1*%
X135700000Y-109100000D03*
X135700000Y-101900000D03*
X132700000Y-109100000D03*
X132700000Y-101900000D03*
%TD*%
D13*
%TO.C,R21*%
X206525000Y-85500000D03*
X206525000Y-86950000D03*
%TD*%
D12*
%TO.C,R7*%
X141925000Y-76500000D03*
X140475000Y-76500000D03*
%TD*%
D11*
%TO.C,U5*%
X137850000Y-71755000D03*
X138800000Y-71755000D03*
X139750000Y-71755000D03*
X139750000Y-69245000D03*
X138800000Y-69245000D03*
X137850000Y-69245000D03*
%TD*%
D26*
%TO.C,C6*%
X133500000Y-63920000D03*
X133500000Y-65480000D03*
%TD*%
D25*
%TO.C,Q1*%
X140700000Y-62000000D03*
X140700000Y-63900000D03*
X142575000Y-62950000D03*
%TD*%
D19*
%TO.C,C12*%
X153700000Y-97500000D03*
X155500000Y-97500000D03*
%TD*%
D41*
%TO.C,Q3*%
X200975000Y-86725000D03*
X199075000Y-86725000D03*
X200025000Y-88845000D03*
%TD*%
D22*
%TO.C,C2*%
X99200000Y-67500000D03*
X100760000Y-67500000D03*
%TD*%
D12*
%TO.C,R11*%
X143725000Y-69500000D03*
X142275000Y-69500000D03*
%TD*%
M02*
