%TF.GenerationSoftware,KiCad,Pcbnew,8.0.8*%
%TF.CreationDate,2025-04-03T14:40:34+03:00*%
%TF.ProjectId,gamma-spectrometer,67616d6d-612d-4737-9065-6374726f6d65,v0.0.4*%
%TF.SameCoordinates,Original*%
%TF.FileFunction,Soldermask,Top*%
%TF.FilePolarity,Negative*%
%FSLAX46Y46*%
G04 Gerber Fmt 4.6, Leading zero omitted, Abs format (unit mm)*
G04 Created by KiCad (PCBNEW 8.0.8) date 2025-04-03 14:40:34*
%MOMM*%
%LPD*%
G01*
G04 APERTURE LIST*
G04 Aperture macros list*
%AMRoundRect*
0 Rectangle with rounded corners*
0 $1 Rounding radius*
0 $2 $3 $4 $5 $6 $7 $8 $9 X,Y pos of 4 corners*
0 Add a 4 corners polygon primitive as box body*
4,1,4,$2,$3,$4,$5,$6,$7,$8,$9,$2,$3,0*
0 Add four circle primitives for the rounded corners*
1,1,$1+$1,$2,$3*
1,1,$1+$1,$4,$5*
1,1,$1+$1,$6,$7*
1,1,$1+$1,$8,$9*
0 Add four rect primitives between the rounded corners*
20,1,$1+$1,$2,$3,$4,$5,0*
20,1,$1+$1,$4,$5,$6,$7,0*
20,1,$1+$1,$6,$7,$8,$9,0*
20,1,$1+$1,$8,$9,$2,$3,0*%
%AMFreePoly0*
4,1,6,1.000000,0.000000,0.500000,-0.750000,-0.500000,-0.750000,-0.500000,0.750000,0.500000,0.750000,1.000000,0.000000,1.000000,0.000000,$1*%
%AMFreePoly1*
4,1,6,0.500000,-0.750000,-0.650000,-0.750000,-0.150000,0.000000,-0.650000,0.750000,0.500000,0.750000,0.500000,-0.750000,0.500000,-0.750000,$1*%
G04 Aperture macros list end*
%ADD10C,0.100000*%
%ADD11R,1.218000X1.218000*%
%ADD12C,1.218000*%
%ADD13R,1.308000X1.308000*%
%ADD14C,1.308000*%
%ADD15RoundRect,0.147500X0.147500X-0.467500X0.147500X0.467500X-0.147500X0.467500X-0.147500X-0.467500X0*%
%ADD16FreePoly0,180.000000*%
%ADD17FreePoly1,180.000000*%
%ADD18RoundRect,0.102000X-0.575000X-0.725000X0.575000X-0.725000X0.575000X0.725000X-0.575000X0.725000X0*%
%ADD19RoundRect,0.100500X-0.616500X-0.301500X0.616500X-0.301500X0.616500X0.301500X-0.616500X0.301500X0*%
%ADD20RoundRect,0.100500X0.301500X0.336500X-0.301500X0.336500X-0.301500X-0.336500X0.301500X-0.336500X0*%
%ADD21RoundRect,0.134250X0.432750X-0.402750X0.432750X0.402750X-0.432750X0.402750X-0.432750X-0.402750X0*%
%ADD22RoundRect,0.102000X0.325000X0.450000X-0.325000X0.450000X-0.325000X-0.450000X0.325000X-0.450000X0*%
%ADD23RoundRect,0.147500X0.147500X-0.457500X0.147500X0.457500X-0.147500X0.457500X-0.147500X-0.457500X0*%
%ADD24RoundRect,0.134250X-0.402750X-0.432750X0.402750X-0.432750X0.402750X0.432750X-0.402750X0.432750X0*%
%ADD25RoundRect,0.102000X-0.450000X0.325000X-0.450000X-0.325000X0.450000X-0.325000X0.450000X0.325000X0*%
%ADD26RoundRect,0.102000X0.450000X-0.325000X0.450000X0.325000X-0.450000X0.325000X-0.450000X-0.325000X0*%
%ADD27RoundRect,0.102000X-0.325000X-0.450000X0.325000X-0.450000X0.325000X0.450000X-0.325000X0.450000X0*%
%ADD28RoundRect,0.102000X-0.609000X-0.609000X0.609000X-0.609000X0.609000X0.609000X-0.609000X0.609000X0*%
%ADD29C,1.422000*%
%ADD30RoundRect,0.102000X-0.435000X-0.465000X0.435000X-0.465000X0.435000X0.465000X-0.435000X0.465000X0*%
%ADD31RoundRect,0.134250X0.402750X0.432750X-0.402750X0.432750X-0.402750X-0.432750X0.402750X-0.432750X0*%
%ADD32RoundRect,0.098000X-0.609000X-0.294000X0.609000X-0.294000X0.609000X0.294000X-0.609000X0.294000X0*%
%ADD33RoundRect,0.150000X0.587500X0.150000X-0.587500X0.150000X-0.587500X-0.150000X0.587500X-0.150000X0*%
%ADD34RoundRect,0.134250X-0.432750X0.402750X-0.432750X-0.402750X0.432750X-0.402750X0.432750X0.402750X0*%
%ADD35RoundRect,0.099250X-0.297750X0.607750X-0.297750X-0.607750X0.297750X-0.607750X0.297750X0.607750X0*%
%ADD36O,1.800000X1.800000*%
%ADD37O,1.500000X1.500000*%
%ADD38O,1.700000X1.700000*%
%ADD39R,1.700000X3.500000*%
%ADD40R,1.700000X1.700000*%
%ADD41R,3.500000X1.700000*%
%ADD42RoundRect,0.102000X-0.405000X-0.465000X0.405000X-0.465000X0.405000X0.465000X-0.405000X0.465000X0*%
%ADD43RoundRect,0.102000X0.435000X0.465000X-0.435000X0.465000X-0.435000X-0.465000X0.435000X-0.465000X0*%
G04 APERTURE END LIST*
D10*
X161000000Y-97875000D02*
X163500000Y-97875000D01*
X163500000Y-100125000D01*
X161000000Y-100125000D01*
X161000000Y-97875000D01*
G36*
X161000000Y-97875000D02*
G01*
X163500000Y-97875000D01*
X163500000Y-100125000D01*
X161000000Y-100125000D01*
X161000000Y-97875000D01*
G37*
X176100000Y-80125000D02*
X178600000Y-80125000D01*
X178600000Y-82375000D01*
X176100000Y-82375000D01*
X176100000Y-80125000D01*
G36*
X176100000Y-80125000D02*
G01*
X178600000Y-80125000D01*
X178600000Y-82375000D01*
X176100000Y-82375000D01*
X176100000Y-80125000D01*
G37*
X186000000Y-75500000D02*
X188500000Y-75500000D01*
X188500000Y-77750000D01*
X186000000Y-77750000D01*
X186000000Y-75500000D01*
G36*
X186000000Y-75500000D02*
G01*
X188500000Y-75500000D01*
X188500000Y-77750000D01*
X186000000Y-77750000D01*
X186000000Y-75500000D01*
G37*
X193250000Y-75500000D02*
X195750000Y-75500000D01*
X195750000Y-77750000D01*
X193250000Y-77750000D01*
X193250000Y-75500000D01*
G36*
X193250000Y-75500000D02*
G01*
X195750000Y-75500000D01*
X195750000Y-77750000D01*
X193250000Y-77750000D01*
X193250000Y-75500000D01*
G37*
X189250000Y-75500000D02*
X191750000Y-75500000D01*
X191750000Y-77750000D01*
X189250000Y-77750000D01*
X189250000Y-75500000D01*
G36*
X189250000Y-75500000D02*
G01*
X191750000Y-75500000D01*
X191750000Y-77750000D01*
X189250000Y-77750000D01*
X189250000Y-75500000D01*
G37*
X157500000Y-88250000D02*
X160000000Y-88250000D01*
X160000000Y-90500000D01*
X157500000Y-90500000D01*
X157500000Y-88250000D01*
G36*
X157500000Y-88250000D02*
G01*
X160000000Y-88250000D01*
X160000000Y-90500000D01*
X157500000Y-90500000D01*
X157500000Y-88250000D01*
G37*
X206450000Y-80125000D02*
X208950000Y-80125000D01*
X208950000Y-82375000D01*
X206450000Y-82375000D01*
X206450000Y-80125000D01*
G36*
X206450000Y-80125000D02*
G01*
X208950000Y-80125000D01*
X208950000Y-82375000D01*
X206450000Y-82375000D01*
X206450000Y-80125000D01*
G37*
X176150000Y-85125000D02*
X178650000Y-85125000D01*
X178650000Y-87375000D01*
X176150000Y-87375000D01*
X176150000Y-85125000D01*
G36*
X176150000Y-85125000D02*
G01*
X178650000Y-85125000D01*
X178650000Y-87375000D01*
X176150000Y-87375000D01*
X176150000Y-85125000D01*
G37*
X161000000Y-67375000D02*
X163500000Y-67375000D01*
X163500000Y-69625000D01*
X161000000Y-69625000D01*
X161000000Y-67375000D01*
G36*
X161000000Y-67375000D02*
G01*
X163500000Y-67375000D01*
X163500000Y-69625000D01*
X161000000Y-69625000D01*
X161000000Y-67375000D01*
G37*
X157500000Y-85250000D02*
X160000000Y-85250000D01*
X160000000Y-87500000D01*
X157500000Y-87500000D01*
X157500000Y-85250000D01*
G36*
X157500000Y-85250000D02*
G01*
X160000000Y-85250000D01*
X160000000Y-87500000D01*
X157500000Y-87500000D01*
X157500000Y-85250000D01*
G37*
X157500000Y-80250000D02*
X160000000Y-80250000D01*
X160000000Y-82500000D01*
X157500000Y-82500000D01*
X157500000Y-80250000D01*
G36*
X157500000Y-80250000D02*
G01*
X160000000Y-80250000D01*
X160000000Y-82500000D01*
X157500000Y-82500000D01*
X157500000Y-80250000D01*
G37*
X206500000Y-85125000D02*
X209000000Y-85125000D01*
X209000000Y-87375000D01*
X206500000Y-87375000D01*
X206500000Y-85125000D01*
G36*
X206500000Y-85125000D02*
G01*
X209000000Y-85125000D01*
X209000000Y-87375000D01*
X206500000Y-87375000D01*
X206500000Y-85125000D01*
G37*
X157500000Y-77375000D02*
X160000000Y-77375000D01*
X160000000Y-79625000D01*
X157500000Y-79625000D01*
X157500000Y-77375000D01*
G36*
X157500000Y-77375000D02*
G01*
X160000000Y-77375000D01*
X160000000Y-79625000D01*
X157500000Y-79625000D01*
X157500000Y-77375000D01*
G37*
X196500000Y-75500000D02*
X199000000Y-75500000D01*
X199000000Y-77750000D01*
X196500000Y-77750000D01*
X196500000Y-75500000D01*
G36*
X196500000Y-75500000D02*
G01*
X199000000Y-75500000D01*
X199000000Y-77750000D01*
X196500000Y-77750000D01*
X196500000Y-75500000D01*
G37*
D11*
%TO.C,VR1*%
X152420000Y-72500000D03*
D12*
X154960000Y-72500000D03*
X157500000Y-72500000D03*
%TD*%
D13*
%TO.C,J1*%
X96500000Y-97950000D03*
D14*
X98500000Y-97950000D03*
X100500000Y-97950000D03*
X102500000Y-97950000D03*
%TD*%
D15*
%TO.C,U7*%
X142300000Y-80250000D03*
X144200000Y-80250000D03*
X143250000Y-78130000D03*
%TD*%
D16*
%TO.C,JP2*%
X121225000Y-69500000D03*
D17*
X119775000Y-69500000D03*
%TD*%
D18*
%TO.C,C19*%
X188350000Y-94000000D03*
X190150000Y-94000000D03*
%TD*%
D19*
%TO.C,Q4*%
X199440000Y-79800000D03*
X199440000Y-81700000D03*
X201560000Y-80750000D03*
%TD*%
D20*
%TO.C,FB1*%
X98935000Y-70500000D03*
X98065000Y-70500000D03*
%TD*%
D21*
%TO.C,C21*%
X198500000Y-92780000D03*
X198500000Y-91220000D03*
%TD*%
D22*
%TO.C,R20*%
X200475000Y-89500000D03*
X199025000Y-89500000D03*
%TD*%
D23*
%TO.C,U3*%
X132550000Y-70255000D03*
X133500000Y-70255000D03*
X134450000Y-70255000D03*
X134450000Y-67745000D03*
X132550000Y-67745000D03*
%TD*%
D24*
%TO.C,C3*%
X108720000Y-68750000D03*
X110280000Y-68750000D03*
%TD*%
D25*
%TO.C,R1*%
X152750000Y-80025000D03*
X152750000Y-81475000D03*
%TD*%
D26*
%TO.C,R2*%
X155750000Y-81475000D03*
X155750000Y-80025000D03*
%TD*%
D18*
%TO.C,C17*%
X182850000Y-79750000D03*
X184650000Y-79750000D03*
%TD*%
D25*
%TO.C,TH1*%
X192525000Y-83021870D03*
X192525000Y-84471870D03*
%TD*%
D16*
%TO.C,JP1*%
X106610000Y-69500000D03*
D17*
X105160000Y-69500000D03*
%TD*%
D27*
%TO.C,R18*%
X191775000Y-89750000D03*
X193225000Y-89750000D03*
%TD*%
D25*
%TO.C,R5*%
X151250000Y-80025000D03*
X151250000Y-81475000D03*
%TD*%
D28*
%TO.C,VR2*%
X142210000Y-72500000D03*
D29*
X144750000Y-72500000D03*
X147290000Y-72500000D03*
%TD*%
D30*
%TO.C,C1*%
X98970000Y-68750000D03*
X100530000Y-68750000D03*
%TD*%
D13*
%TO.C,J2*%
X107000000Y-97950000D03*
D14*
X109000000Y-97950000D03*
X111000000Y-97950000D03*
X113000000Y-97950000D03*
X115000000Y-97950000D03*
X117000000Y-97950000D03*
%TD*%
D25*
%TO.C,R3*%
X154250000Y-80025000D03*
X154250000Y-81475000D03*
%TD*%
D26*
%TO.C,R19*%
X192750000Y-93225000D03*
X192750000Y-91775000D03*
%TD*%
D27*
%TO.C,R8*%
X129275000Y-70000000D03*
X130725000Y-70000000D03*
%TD*%
D31*
%TO.C,C7*%
X130780000Y-68500000D03*
X129220000Y-68500000D03*
%TD*%
%TO.C,C22*%
X200530000Y-87750000D03*
X198970000Y-87750000D03*
%TD*%
D32*
%TO.C,U2*%
X145995000Y-76050000D03*
X145995000Y-77000000D03*
X145995000Y-77950000D03*
X148505000Y-77950000D03*
X148505000Y-77000000D03*
X148505000Y-76050000D03*
%TD*%
D33*
%TO.C,D1*%
X149437500Y-81700000D03*
X149437500Y-79800000D03*
X147562500Y-80750000D03*
%TD*%
D27*
%TO.C,R17*%
X182775000Y-82250000D03*
X184225000Y-82250000D03*
%TD*%
D34*
%TO.C,C20*%
X202750000Y-87970000D03*
X202750000Y-89530000D03*
%TD*%
D35*
%TO.C,U9*%
X185450000Y-87745000D03*
X184500000Y-87745000D03*
X183550000Y-87745000D03*
X183550000Y-90255000D03*
X185450000Y-90255000D03*
%TD*%
D36*
%TO.C,U1*%
X89630000Y-86615000D03*
D37*
X92660000Y-86315000D03*
X92660000Y-81465000D03*
D36*
X89630000Y-81165000D03*
D38*
X89500000Y-92780000D03*
D39*
X89500000Y-93680000D03*
D38*
X92040000Y-92780000D03*
D39*
X92040000Y-93680000D03*
D40*
X94580000Y-92780000D03*
D39*
X94580000Y-93680000D03*
D38*
X97120000Y-92780000D03*
D39*
X97120000Y-93680000D03*
D38*
X99660000Y-92780000D03*
D39*
X99660000Y-93680000D03*
D38*
X102200000Y-92780000D03*
D39*
X102200000Y-93680000D03*
D38*
X104740000Y-92780000D03*
D39*
X104740000Y-93680000D03*
D40*
X107280000Y-92780000D03*
D39*
X107280000Y-93680000D03*
D38*
X109820000Y-92780000D03*
D39*
X109820000Y-93680000D03*
D38*
X112360000Y-92780000D03*
D39*
X112360000Y-93680000D03*
D38*
X114900000Y-92780000D03*
D39*
X114900000Y-93680000D03*
D38*
X117440000Y-92780000D03*
D39*
X117440000Y-93680000D03*
D40*
X119980000Y-92780000D03*
D39*
X119980000Y-93680000D03*
D38*
X122520000Y-92780000D03*
D39*
X122520000Y-93680000D03*
D38*
X125060000Y-92780000D03*
D39*
X125060000Y-93680000D03*
D38*
X127600000Y-92780000D03*
D39*
X127600000Y-93680000D03*
D38*
X130140000Y-92780000D03*
D39*
X130140000Y-93680000D03*
D40*
X132680000Y-92780000D03*
D39*
X132680000Y-93680000D03*
D38*
X135220000Y-92780000D03*
D39*
X135220000Y-93680000D03*
D38*
X137760000Y-92780000D03*
D39*
X137760000Y-93680000D03*
D38*
X137760000Y-75000000D03*
D39*
X137760000Y-74100000D03*
D38*
X135220000Y-75000000D03*
D39*
X135220000Y-74100000D03*
D40*
X132680000Y-75000000D03*
D39*
X132680000Y-74100000D03*
D38*
X130140000Y-75000000D03*
D39*
X130140000Y-74100000D03*
D38*
X127600000Y-75000000D03*
D39*
X127600000Y-74100000D03*
D38*
X125060000Y-75000000D03*
D39*
X125060000Y-74100000D03*
D38*
X122520000Y-75000000D03*
D39*
X122520000Y-74100000D03*
D40*
X119980000Y-75000000D03*
D39*
X119980000Y-74100000D03*
D38*
X117440000Y-75000000D03*
D39*
X117440000Y-74100000D03*
D38*
X114900000Y-75000000D03*
D39*
X114900000Y-74100000D03*
D38*
X112360000Y-75000000D03*
D39*
X112360000Y-74100000D03*
D38*
X109820000Y-75000000D03*
D39*
X109820000Y-74100000D03*
D40*
X107280000Y-75000000D03*
D39*
X107280000Y-74100000D03*
D38*
X104740000Y-75000000D03*
D39*
X104740000Y-74100000D03*
D38*
X102200000Y-75000000D03*
D39*
X102200000Y-74100000D03*
D38*
X99660000Y-75000000D03*
D39*
X99660000Y-74100000D03*
D38*
X97120000Y-75000000D03*
D39*
X97120000Y-74100000D03*
D40*
X94580000Y-75000000D03*
D39*
X94580000Y-74100000D03*
D38*
X92040000Y-75000000D03*
D39*
X92040000Y-74100000D03*
D38*
X89500000Y-75000000D03*
D39*
X89500000Y-74100000D03*
D38*
X137530000Y-86430000D03*
D41*
X138430000Y-86430000D03*
D40*
X137530000Y-83890000D03*
D41*
X138430000Y-83890000D03*
D38*
X137530000Y-81350000D03*
D41*
X138430000Y-81350000D03*
%TD*%
D11*
%TO.C,VR3*%
X143420000Y-95000000D03*
D12*
X145960000Y-95000000D03*
X148500000Y-95000000D03*
%TD*%
D42*
%TO.C,D2*%
X126810000Y-70000000D03*
X125190000Y-70000000D03*
%TD*%
D26*
%TO.C,R21*%
X197000000Y-91225000D03*
X197000000Y-89775000D03*
%TD*%
D19*
%TO.C,Q3*%
X187940000Y-89662500D03*
X187940000Y-91562500D03*
X190060000Y-90612500D03*
%TD*%
D43*
%TO.C,C2*%
X97280000Y-68750000D03*
X95720000Y-68750000D03*
%TD*%
M02*
