%TF.GenerationSoftware,KiCad,Pcbnew,8.0.8*%
%TF.CreationDate,2025-01-23T01:11:26+02:00*%
%TF.ProjectId,gamma-spectrometer,67616d6d-612d-4737-9065-6374726f6d65,v0.0.4*%
%TF.SameCoordinates,Original*%
%TF.FileFunction,Soldermask,Bot*%
%TF.FilePolarity,Negative*%
%FSLAX46Y46*%
G04 Gerber Fmt 4.6, Leading zero omitted, Abs format (unit mm)*
G04 Created by KiCad (PCBNEW 8.0.8) date 2025-01-23 01:11:26*
%MOMM*%
%LPD*%
G01*
G04 APERTURE LIST*
G04 Aperture macros list*
%AMRoundRect*
0 Rectangle with rounded corners*
0 $1 Rounding radius*
0 $2 $3 $4 $5 $6 $7 $8 $9 X,Y pos of 4 corners*
0 Add a 4 corners polygon primitive as box body*
4,1,4,$2,$3,$4,$5,$6,$7,$8,$9,$2,$3,0*
0 Add four circle primitives for the rounded corners*
1,1,$1+$1,$2,$3*
1,1,$1+$1,$4,$5*
1,1,$1+$1,$6,$7*
1,1,$1+$1,$8,$9*
0 Add four rect primitives between the rounded corners*
20,1,$1+$1,$2,$3,$4,$5,0*
20,1,$1+$1,$4,$5,$6,$7,0*
20,1,$1+$1,$6,$7,$8,$9,0*
20,1,$1+$1,$8,$9,$2,$3,0*%
G04 Aperture macros list end*
%ADD10C,0.000100*%
%ADD11C,1.308000*%
%ADD12R,1.308000X1.308000*%
%ADD13RoundRect,0.201000X-0.201000X-0.451000X0.201000X-0.451000X0.201000X0.451000X-0.201000X0.451000X0*%
%ADD14RoundRect,0.201000X-0.451000X-0.201000X0.451000X-0.201000X0.451000X0.201000X-0.451000X0.201000X0*%
%ADD15C,1.218000*%
%ADD16R,1.218000X1.218000*%
%ADD17O,1.800000X1.800000*%
%ADD18O,1.500000X1.500000*%
%ADD19O,1.700000X1.700000*%
%ADD20R,1.700000X1.700000*%
G04 APERTURE END LIST*
D10*
%TO.C,U9*%
X201387000Y-76751000D02*
X201398000Y-76753000D01*
X201409000Y-76755000D01*
X201419000Y-76757000D01*
X201430000Y-76760000D01*
X201440000Y-76764000D01*
X201450000Y-76768000D01*
X201460000Y-76773000D01*
X201470000Y-76778000D01*
X201479000Y-76784000D01*
X201488000Y-76790000D01*
X201497000Y-76797000D01*
X201506000Y-76804000D01*
X201513000Y-76812000D01*
X201521000Y-76819000D01*
X201528000Y-76828000D01*
X201535000Y-76837000D01*
X201541000Y-76846000D01*
X201547000Y-76855000D01*
X201552000Y-76865000D01*
X201557000Y-76875000D01*
X201561000Y-76885000D01*
X201565000Y-76895000D01*
X201568000Y-76906000D01*
X201570000Y-76916000D01*
X201572000Y-76927000D01*
X201574000Y-76938000D01*
X201575000Y-76949000D01*
X201575000Y-76960000D01*
X201575000Y-78450000D01*
X203055000Y-78450000D01*
X203067000Y-78450000D01*
X203078000Y-78451000D01*
X203089000Y-78453000D01*
X203101000Y-78455000D01*
X203112000Y-78457000D01*
X203123000Y-78461000D01*
X203134000Y-78465000D01*
X203144000Y-78469000D01*
X203155000Y-78474000D01*
X203165000Y-78479000D01*
X203175000Y-78485000D01*
X203184000Y-78492000D01*
X203193000Y-78499000D01*
X203202000Y-78507000D01*
X203211000Y-78514000D01*
X203218000Y-78523000D01*
X203226000Y-78532000D01*
X203233000Y-78541000D01*
X203240000Y-78550000D01*
X203246000Y-78560000D01*
X203251000Y-78570000D01*
X203256000Y-78581000D01*
X203260000Y-78591000D01*
X203264000Y-78602000D01*
X203268000Y-78613000D01*
X203270000Y-78624000D01*
X203272000Y-78636000D01*
X203274000Y-78647000D01*
X203275000Y-78658000D01*
X203275000Y-78670000D01*
X203275000Y-78700000D01*
X203275000Y-81310000D01*
X203275000Y-81340000D01*
X203275000Y-81351000D01*
X203274000Y-81362000D01*
X203272000Y-81373000D01*
X203270000Y-81384000D01*
X203268000Y-81394000D01*
X203265000Y-81405000D01*
X203261000Y-81415000D01*
X203257000Y-81425000D01*
X203252000Y-81435000D01*
X203247000Y-81445000D01*
X203241000Y-81454000D01*
X203235000Y-81463000D01*
X203228000Y-81472000D01*
X203221000Y-81481000D01*
X203213000Y-81488000D01*
X203206000Y-81496000D01*
X203197000Y-81503000D01*
X203188000Y-81510000D01*
X203179000Y-81516000D01*
X203170000Y-81522000D01*
X203160000Y-81527000D01*
X203150000Y-81532000D01*
X203140000Y-81536000D01*
X203130000Y-81540000D01*
X203119000Y-81543000D01*
X203109000Y-81545000D01*
X203098000Y-81547000D01*
X203087000Y-81549000D01*
X203076000Y-81550000D01*
X203065000Y-81550000D01*
X201575000Y-81550000D01*
X201575000Y-83030000D01*
X201575000Y-83042000D01*
X201574000Y-83053000D01*
X201572000Y-83064000D01*
X201570000Y-83076000D01*
X201568000Y-83087000D01*
X201564000Y-83098000D01*
X201560000Y-83109000D01*
X201556000Y-83119000D01*
X201551000Y-83130000D01*
X201546000Y-83140000D01*
X201540000Y-83150000D01*
X201533000Y-83159000D01*
X201526000Y-83168000D01*
X201518000Y-83177000D01*
X201511000Y-83186000D01*
X201502000Y-83193000D01*
X201493000Y-83201000D01*
X201484000Y-83208000D01*
X201475000Y-83215000D01*
X201465000Y-83221000D01*
X201455000Y-83226000D01*
X201444000Y-83231000D01*
X201434000Y-83235000D01*
X201423000Y-83239000D01*
X201412000Y-83243000D01*
X201401000Y-83245000D01*
X201389000Y-83247000D01*
X201378000Y-83249000D01*
X201367000Y-83250000D01*
X201355000Y-83250000D01*
X198705000Y-83250000D01*
X198685000Y-83250000D01*
X198674000Y-83250000D01*
X198663000Y-83249000D01*
X198652000Y-83247000D01*
X198641000Y-83245000D01*
X198631000Y-83243000D01*
X198620000Y-83240000D01*
X198610000Y-83236000D01*
X198600000Y-83232000D01*
X198590000Y-83227000D01*
X198580000Y-83222000D01*
X198571000Y-83216000D01*
X198562000Y-83210000D01*
X198553000Y-83203000D01*
X198544000Y-83196000D01*
X198537000Y-83188000D01*
X198529000Y-83181000D01*
X198522000Y-83172000D01*
X198515000Y-83163000D01*
X198509000Y-83154000D01*
X198503000Y-83145000D01*
X198498000Y-83135000D01*
X198493000Y-83125000D01*
X198489000Y-83115000D01*
X198485000Y-83105000D01*
X198482000Y-83094000D01*
X198480000Y-83084000D01*
X198478000Y-83073000D01*
X198476000Y-83062000D01*
X198475000Y-83051000D01*
X198475000Y-83040000D01*
X198475000Y-81550000D01*
X196985000Y-81550000D01*
X196974000Y-81550000D01*
X196963000Y-81549000D01*
X196952000Y-81547000D01*
X196941000Y-81545000D01*
X196931000Y-81543000D01*
X196920000Y-81540000D01*
X196910000Y-81536000D01*
X196900000Y-81532000D01*
X196890000Y-81527000D01*
X196880000Y-81522000D01*
X196871000Y-81516000D01*
X196862000Y-81510000D01*
X196853000Y-81503000D01*
X196844000Y-81496000D01*
X196837000Y-81488000D01*
X196829000Y-81481000D01*
X196822000Y-81472000D01*
X196815000Y-81463000D01*
X196809000Y-81454000D01*
X196803000Y-81445000D01*
X196798000Y-81435000D01*
X196793000Y-81425000D01*
X196789000Y-81415000D01*
X196785000Y-81405000D01*
X196782000Y-81394000D01*
X196780000Y-81384000D01*
X196778000Y-81373000D01*
X196776000Y-81362000D01*
X196775000Y-81351000D01*
X196775000Y-81340000D01*
X196775000Y-81320000D01*
X196775000Y-78680000D01*
X196775000Y-78668000D01*
X196776000Y-78656000D01*
X196778000Y-78644000D01*
X196780000Y-78632000D01*
X196783000Y-78620000D01*
X196786000Y-78609000D01*
X196790000Y-78598000D01*
X196795000Y-78586000D01*
X196800000Y-78576000D01*
X196806000Y-78565000D01*
X196812000Y-78555000D01*
X196819000Y-78545000D01*
X196826000Y-78535000D01*
X196834000Y-78526000D01*
X196842000Y-78517000D01*
X196851000Y-78509000D01*
X196860000Y-78501000D01*
X196870000Y-78494000D01*
X196880000Y-78487000D01*
X196890000Y-78481000D01*
X196901000Y-78475000D01*
X196911000Y-78470000D01*
X196923000Y-78465000D01*
X196934000Y-78461000D01*
X196945000Y-78458000D01*
X196957000Y-78455000D01*
X196969000Y-78453000D01*
X196981000Y-78451000D01*
X196993000Y-78450000D01*
X197005000Y-78450000D01*
X198475000Y-78450000D01*
X198475000Y-76960000D01*
X198475000Y-76949000D01*
X198476000Y-76938000D01*
X198478000Y-76927000D01*
X198480000Y-76916000D01*
X198482000Y-76906000D01*
X198485000Y-76895000D01*
X198489000Y-76885000D01*
X198493000Y-76875000D01*
X198498000Y-76865000D01*
X198503000Y-76855000D01*
X198509000Y-76846000D01*
X198515000Y-76837000D01*
X198522000Y-76828000D01*
X198529000Y-76819000D01*
X198537000Y-76812000D01*
X198544000Y-76804000D01*
X198553000Y-76797000D01*
X198562000Y-76790000D01*
X198571000Y-76784000D01*
X198580000Y-76778000D01*
X198590000Y-76773000D01*
X198600000Y-76768000D01*
X198610000Y-76764000D01*
X198620000Y-76760000D01*
X198631000Y-76757000D01*
X198641000Y-76755000D01*
X198652000Y-76753000D01*
X198663000Y-76751000D01*
X198674000Y-76750000D01*
X198685000Y-76750000D01*
X198705000Y-76750000D01*
X201335000Y-76750000D01*
X201365000Y-76750000D01*
X201376000Y-76750000D01*
X201387000Y-76751000D01*
G36*
X201387000Y-76751000D02*
G01*
X201398000Y-76753000D01*
X201409000Y-76755000D01*
X201419000Y-76757000D01*
X201430000Y-76760000D01*
X201440000Y-76764000D01*
X201450000Y-76768000D01*
X201460000Y-76773000D01*
X201470000Y-76778000D01*
X201479000Y-76784000D01*
X201488000Y-76790000D01*
X201497000Y-76797000D01*
X201506000Y-76804000D01*
X201513000Y-76812000D01*
X201521000Y-76819000D01*
X201528000Y-76828000D01*
X201535000Y-76837000D01*
X201541000Y-76846000D01*
X201547000Y-76855000D01*
X201552000Y-76865000D01*
X201557000Y-76875000D01*
X201561000Y-76885000D01*
X201565000Y-76895000D01*
X201568000Y-76906000D01*
X201570000Y-76916000D01*
X201572000Y-76927000D01*
X201574000Y-76938000D01*
X201575000Y-76949000D01*
X201575000Y-76960000D01*
X201575000Y-78450000D01*
X203055000Y-78450000D01*
X203067000Y-78450000D01*
X203078000Y-78451000D01*
X203089000Y-78453000D01*
X203101000Y-78455000D01*
X203112000Y-78457000D01*
X203123000Y-78461000D01*
X203134000Y-78465000D01*
X203144000Y-78469000D01*
X203155000Y-78474000D01*
X203165000Y-78479000D01*
X203175000Y-78485000D01*
X203184000Y-78492000D01*
X203193000Y-78499000D01*
X203202000Y-78507000D01*
X203211000Y-78514000D01*
X203218000Y-78523000D01*
X203226000Y-78532000D01*
X203233000Y-78541000D01*
X203240000Y-78550000D01*
X203246000Y-78560000D01*
X203251000Y-78570000D01*
X203256000Y-78581000D01*
X203260000Y-78591000D01*
X203264000Y-78602000D01*
X203268000Y-78613000D01*
X203270000Y-78624000D01*
X203272000Y-78636000D01*
X203274000Y-78647000D01*
X203275000Y-78658000D01*
X203275000Y-78670000D01*
X203275000Y-78700000D01*
X203275000Y-81310000D01*
X203275000Y-81340000D01*
X203275000Y-81351000D01*
X203274000Y-81362000D01*
X203272000Y-81373000D01*
X203270000Y-81384000D01*
X203268000Y-81394000D01*
X203265000Y-81405000D01*
X203261000Y-81415000D01*
X203257000Y-81425000D01*
X203252000Y-81435000D01*
X203247000Y-81445000D01*
X203241000Y-81454000D01*
X203235000Y-81463000D01*
X203228000Y-81472000D01*
X203221000Y-81481000D01*
X203213000Y-81488000D01*
X203206000Y-81496000D01*
X203197000Y-81503000D01*
X203188000Y-81510000D01*
X203179000Y-81516000D01*
X203170000Y-81522000D01*
X203160000Y-81527000D01*
X203150000Y-81532000D01*
X203140000Y-81536000D01*
X203130000Y-81540000D01*
X203119000Y-81543000D01*
X203109000Y-81545000D01*
X203098000Y-81547000D01*
X203087000Y-81549000D01*
X203076000Y-81550000D01*
X203065000Y-81550000D01*
X201575000Y-81550000D01*
X201575000Y-83030000D01*
X201575000Y-83042000D01*
X201574000Y-83053000D01*
X201572000Y-83064000D01*
X201570000Y-83076000D01*
X201568000Y-83087000D01*
X201564000Y-83098000D01*
X201560000Y-83109000D01*
X201556000Y-83119000D01*
X201551000Y-83130000D01*
X201546000Y-83140000D01*
X201540000Y-83150000D01*
X201533000Y-83159000D01*
X201526000Y-83168000D01*
X201518000Y-83177000D01*
X201511000Y-83186000D01*
X201502000Y-83193000D01*
X201493000Y-83201000D01*
X201484000Y-83208000D01*
X201475000Y-83215000D01*
X201465000Y-83221000D01*
X201455000Y-83226000D01*
X201444000Y-83231000D01*
X201434000Y-83235000D01*
X201423000Y-83239000D01*
X201412000Y-83243000D01*
X201401000Y-83245000D01*
X201389000Y-83247000D01*
X201378000Y-83249000D01*
X201367000Y-83250000D01*
X201355000Y-83250000D01*
X198705000Y-83250000D01*
X198685000Y-83250000D01*
X198674000Y-83250000D01*
X198663000Y-83249000D01*
X198652000Y-83247000D01*
X198641000Y-83245000D01*
X198631000Y-83243000D01*
X198620000Y-83240000D01*
X198610000Y-83236000D01*
X198600000Y-83232000D01*
X198590000Y-83227000D01*
X198580000Y-83222000D01*
X198571000Y-83216000D01*
X198562000Y-83210000D01*
X198553000Y-83203000D01*
X198544000Y-83196000D01*
X198537000Y-83188000D01*
X198529000Y-83181000D01*
X198522000Y-83172000D01*
X198515000Y-83163000D01*
X198509000Y-83154000D01*
X198503000Y-83145000D01*
X198498000Y-83135000D01*
X198493000Y-83125000D01*
X198489000Y-83115000D01*
X198485000Y-83105000D01*
X198482000Y-83094000D01*
X198480000Y-83084000D01*
X198478000Y-83073000D01*
X198476000Y-83062000D01*
X198475000Y-83051000D01*
X198475000Y-83040000D01*
X198475000Y-81550000D01*
X196985000Y-81550000D01*
X196974000Y-81550000D01*
X196963000Y-81549000D01*
X196952000Y-81547000D01*
X196941000Y-81545000D01*
X196931000Y-81543000D01*
X196920000Y-81540000D01*
X196910000Y-81536000D01*
X196900000Y-81532000D01*
X196890000Y-81527000D01*
X196880000Y-81522000D01*
X196871000Y-81516000D01*
X196862000Y-81510000D01*
X196853000Y-81503000D01*
X196844000Y-81496000D01*
X196837000Y-81488000D01*
X196829000Y-81481000D01*
X196822000Y-81472000D01*
X196815000Y-81463000D01*
X196809000Y-81454000D01*
X196803000Y-81445000D01*
X196798000Y-81435000D01*
X196793000Y-81425000D01*
X196789000Y-81415000D01*
X196785000Y-81405000D01*
X196782000Y-81394000D01*
X196780000Y-81384000D01*
X196778000Y-81373000D01*
X196776000Y-81362000D01*
X196775000Y-81351000D01*
X196775000Y-81340000D01*
X196775000Y-81320000D01*
X196775000Y-78680000D01*
X196775000Y-78668000D01*
X196776000Y-78656000D01*
X196778000Y-78644000D01*
X196780000Y-78632000D01*
X196783000Y-78620000D01*
X196786000Y-78609000D01*
X196790000Y-78598000D01*
X196795000Y-78586000D01*
X196800000Y-78576000D01*
X196806000Y-78565000D01*
X196812000Y-78555000D01*
X196819000Y-78545000D01*
X196826000Y-78535000D01*
X196834000Y-78526000D01*
X196842000Y-78517000D01*
X196851000Y-78509000D01*
X196860000Y-78501000D01*
X196870000Y-78494000D01*
X196880000Y-78487000D01*
X196890000Y-78481000D01*
X196901000Y-78475000D01*
X196911000Y-78470000D01*
X196923000Y-78465000D01*
X196934000Y-78461000D01*
X196945000Y-78458000D01*
X196957000Y-78455000D01*
X196969000Y-78453000D01*
X196981000Y-78451000D01*
X196993000Y-78450000D01*
X197005000Y-78450000D01*
X198475000Y-78450000D01*
X198475000Y-76960000D01*
X198475000Y-76949000D01*
X198476000Y-76938000D01*
X198478000Y-76927000D01*
X198480000Y-76916000D01*
X198482000Y-76906000D01*
X198485000Y-76895000D01*
X198489000Y-76885000D01*
X198493000Y-76875000D01*
X198498000Y-76865000D01*
X198503000Y-76855000D01*
X198509000Y-76846000D01*
X198515000Y-76837000D01*
X198522000Y-76828000D01*
X198529000Y-76819000D01*
X198537000Y-76812000D01*
X198544000Y-76804000D01*
X198553000Y-76797000D01*
X198562000Y-76790000D01*
X198571000Y-76784000D01*
X198580000Y-76778000D01*
X198590000Y-76773000D01*
X198600000Y-76768000D01*
X198610000Y-76764000D01*
X198620000Y-76760000D01*
X198631000Y-76757000D01*
X198641000Y-76755000D01*
X198652000Y-76753000D01*
X198663000Y-76751000D01*
X198674000Y-76750000D01*
X198685000Y-76750000D01*
X198705000Y-76750000D01*
X201335000Y-76750000D01*
X201365000Y-76750000D01*
X201376000Y-76750000D01*
X201387000Y-76751000D01*
G37*
%TD*%
D11*
%TO.C,J6*%
X195525000Y-74050000D03*
D12*
X197525000Y-74050000D03*
%TD*%
D11*
%TO.C,J5*%
X202025000Y-74050000D03*
D12*
X204025000Y-74050000D03*
%TD*%
D13*
%TO.C,U9*%
X197175000Y-77000000D03*
D14*
X203025000Y-77150000D03*
D13*
X202875000Y-83000000D03*
D14*
X197025000Y-82850000D03*
%TD*%
D11*
%TO.C,J4*%
X156500000Y-100450000D03*
D12*
X154500000Y-100450000D03*
%TD*%
D15*
%TO.C,VR2*%
X147080000Y-103000000D03*
X144540000Y-103000000D03*
D16*
X142000000Y-103000000D03*
%TD*%
D12*
%TO.C,J1*%
X91700000Y-102450000D03*
D11*
X93700000Y-102450000D03*
X95700000Y-102450000D03*
X97700000Y-102450000D03*
%TD*%
D16*
%TO.C,VR1*%
X153700000Y-65460000D03*
D15*
X153700000Y-68000000D03*
X153700000Y-70540000D03*
%TD*%
D12*
%TO.C,J3*%
X123250000Y-68000000D03*
D11*
X123250000Y-70000000D03*
%TD*%
D12*
%TO.C,J2*%
X102200000Y-102450000D03*
D11*
X104200000Y-102450000D03*
X106200000Y-102450000D03*
X108200000Y-102450000D03*
X110200000Y-102450000D03*
X112200000Y-102450000D03*
%TD*%
D17*
%TO.C,U1*%
X89630000Y-88205000D03*
D18*
X92660000Y-87905000D03*
X92660000Y-83055000D03*
D17*
X89630000Y-82755000D03*
D19*
X89500000Y-94370000D03*
X92040000Y-94370000D03*
D20*
X94580000Y-94370000D03*
D19*
X97120000Y-94370000D03*
X99660000Y-94370000D03*
X102200000Y-94370000D03*
X104740000Y-94370000D03*
D20*
X107280000Y-94370000D03*
D19*
X109820000Y-94370000D03*
X112360000Y-94370000D03*
X114900000Y-94370000D03*
X117440000Y-94370000D03*
D20*
X119980000Y-94370000D03*
D19*
X122520000Y-94370000D03*
X125060000Y-94370000D03*
X127600000Y-94370000D03*
X130140000Y-94370000D03*
D20*
X132680000Y-94370000D03*
D19*
X135220000Y-94370000D03*
X137760000Y-94370000D03*
X137760000Y-76590000D03*
X135220000Y-76590000D03*
D20*
X132680000Y-76590000D03*
D19*
X130140000Y-76590000D03*
X127600000Y-76590000D03*
X125060000Y-76590000D03*
X122520000Y-76590000D03*
D20*
X119980000Y-76590000D03*
D19*
X117440000Y-76590000D03*
X114900000Y-76590000D03*
X112360000Y-76590000D03*
X109820000Y-76590000D03*
D20*
X107280000Y-76590000D03*
D19*
X104740000Y-76590000D03*
X102200000Y-76590000D03*
X99660000Y-76590000D03*
X97120000Y-76590000D03*
D20*
X94580000Y-76590000D03*
D19*
X92040000Y-76590000D03*
X89500000Y-76590000D03*
X137530000Y-88020000D03*
D20*
X137530000Y-85480000D03*
D19*
X137530000Y-82940000D03*
%TD*%
M02*
