%TF.GenerationSoftware,KiCad,Pcbnew,8.0.8*%
%TF.CreationDate,2025-04-02T13:30:41+03:00*%
%TF.ProjectId,gamma-spectrometer,67616d6d-612d-4737-9065-6374726f6d65,v0.0.4*%
%TF.SameCoordinates,Original*%
%TF.FileFunction,Legend,Bot*%
%TF.FilePolarity,Positive*%
%FSLAX46Y46*%
G04 Gerber Fmt 4.6, Leading zero omitted, Abs format (unit mm)*
G04 Created by KiCad (PCBNEW 8.0.8) date 2025-04-02 13:30:41*
%MOMM*%
%LPD*%
G01*
G04 APERTURE LIST*
%ADD10C,0.150000*%
%ADD11C,0.127000*%
%ADD12C,0.200000*%
%ADD13C,0.120000*%
G04 APERTURE END LIST*
D10*
X155606666Y-70727323D02*
X155637142Y-70757800D01*
X155637142Y-70757800D02*
X155728571Y-70788276D01*
X155728571Y-70788276D02*
X155789523Y-70788276D01*
X155789523Y-70788276D02*
X155880952Y-70757800D01*
X155880952Y-70757800D02*
X155941904Y-70696847D01*
X155941904Y-70696847D02*
X155972381Y-70635895D01*
X155972381Y-70635895D02*
X156002857Y-70513990D01*
X156002857Y-70513990D02*
X156002857Y-70422561D01*
X156002857Y-70422561D02*
X155972381Y-70300657D01*
X155972381Y-70300657D02*
X155941904Y-70239704D01*
X155941904Y-70239704D02*
X155880952Y-70178752D01*
X155880952Y-70178752D02*
X155789523Y-70148276D01*
X155789523Y-70148276D02*
X155728571Y-70148276D01*
X155728571Y-70148276D02*
X155637142Y-70178752D01*
X155637142Y-70178752D02*
X155606666Y-70209228D01*
X155058095Y-70148276D02*
X155180000Y-70148276D01*
X155180000Y-70148276D02*
X155240952Y-70178752D01*
X155240952Y-70178752D02*
X155271428Y-70209228D01*
X155271428Y-70209228D02*
X155332381Y-70300657D01*
X155332381Y-70300657D02*
X155362857Y-70422561D01*
X155362857Y-70422561D02*
X155362857Y-70666371D01*
X155362857Y-70666371D02*
X155332381Y-70727323D01*
X155332381Y-70727323D02*
X155301904Y-70757800D01*
X155301904Y-70757800D02*
X155240952Y-70788276D01*
X155240952Y-70788276D02*
X155119047Y-70788276D01*
X155119047Y-70788276D02*
X155058095Y-70757800D01*
X155058095Y-70757800D02*
X155027619Y-70727323D01*
X155027619Y-70727323D02*
X154997142Y-70666371D01*
X154997142Y-70666371D02*
X154997142Y-70513990D01*
X154997142Y-70513990D02*
X155027619Y-70453038D01*
X155027619Y-70453038D02*
X155058095Y-70422561D01*
X155058095Y-70422561D02*
X155119047Y-70392085D01*
X155119047Y-70392085D02*
X155240952Y-70392085D01*
X155240952Y-70392085D02*
X155301904Y-70422561D01*
X155301904Y-70422561D02*
X155332381Y-70453038D01*
X155332381Y-70453038D02*
X155362857Y-70513990D01*
X151764285Y-96612295D02*
X152030952Y-96231342D01*
X152221428Y-96612295D02*
X152221428Y-95812295D01*
X152221428Y-95812295D02*
X151916666Y-95812295D01*
X151916666Y-95812295D02*
X151840476Y-95850390D01*
X151840476Y-95850390D02*
X151802381Y-95888485D01*
X151802381Y-95888485D02*
X151764285Y-95964676D01*
X151764285Y-95964676D02*
X151764285Y-96078961D01*
X151764285Y-96078961D02*
X151802381Y-96155152D01*
X151802381Y-96155152D02*
X151840476Y-96193247D01*
X151840476Y-96193247D02*
X151916666Y-96231342D01*
X151916666Y-96231342D02*
X152221428Y-96231342D01*
X151002381Y-96612295D02*
X151459524Y-96612295D01*
X151230952Y-96612295D02*
X151230952Y-95812295D01*
X151230952Y-95812295D02*
X151307143Y-95926580D01*
X151307143Y-95926580D02*
X151383333Y-96002771D01*
X151383333Y-96002771D02*
X151459524Y-96040866D01*
X150278571Y-95812295D02*
X150659523Y-95812295D01*
X150659523Y-95812295D02*
X150697619Y-96193247D01*
X150697619Y-96193247D02*
X150659523Y-96155152D01*
X150659523Y-96155152D02*
X150583333Y-96117057D01*
X150583333Y-96117057D02*
X150392857Y-96117057D01*
X150392857Y-96117057D02*
X150316666Y-96155152D01*
X150316666Y-96155152D02*
X150278571Y-96193247D01*
X150278571Y-96193247D02*
X150240476Y-96269438D01*
X150240476Y-96269438D02*
X150240476Y-96459914D01*
X150240476Y-96459914D02*
X150278571Y-96536104D01*
X150278571Y-96536104D02*
X150316666Y-96574200D01*
X150316666Y-96574200D02*
X150392857Y-96612295D01*
X150392857Y-96612295D02*
X150583333Y-96612295D01*
X150583333Y-96612295D02*
X150659523Y-96574200D01*
X150659523Y-96574200D02*
X150697619Y-96536104D01*
X150840475Y-89992295D02*
X150840475Y-89192295D01*
X150840475Y-89192295D02*
X150649999Y-89192295D01*
X150649999Y-89192295D02*
X150535713Y-89230390D01*
X150535713Y-89230390D02*
X150459523Y-89306580D01*
X150459523Y-89306580D02*
X150421428Y-89382771D01*
X150421428Y-89382771D02*
X150383332Y-89535152D01*
X150383332Y-89535152D02*
X150383332Y-89649438D01*
X150383332Y-89649438D02*
X150421428Y-89801819D01*
X150421428Y-89801819D02*
X150459523Y-89878009D01*
X150459523Y-89878009D02*
X150535713Y-89954200D01*
X150535713Y-89954200D02*
X150649999Y-89992295D01*
X150649999Y-89992295D02*
X150840475Y-89992295D01*
X149659523Y-89192295D02*
X150040475Y-89192295D01*
X150040475Y-89192295D02*
X150078571Y-89573247D01*
X150078571Y-89573247D02*
X150040475Y-89535152D01*
X150040475Y-89535152D02*
X149964285Y-89497057D01*
X149964285Y-89497057D02*
X149773809Y-89497057D01*
X149773809Y-89497057D02*
X149697618Y-89535152D01*
X149697618Y-89535152D02*
X149659523Y-89573247D01*
X149659523Y-89573247D02*
X149621428Y-89649438D01*
X149621428Y-89649438D02*
X149621428Y-89839914D01*
X149621428Y-89839914D02*
X149659523Y-89916104D01*
X149659523Y-89916104D02*
X149697618Y-89954200D01*
X149697618Y-89954200D02*
X149773809Y-89992295D01*
X149773809Y-89992295D02*
X149964285Y-89992295D01*
X149964285Y-89992295D02*
X150040475Y-89954200D01*
X150040475Y-89954200D02*
X150078571Y-89916104D01*
X160764285Y-94536104D02*
X160802381Y-94574200D01*
X160802381Y-94574200D02*
X160916666Y-94612295D01*
X160916666Y-94612295D02*
X160992857Y-94612295D01*
X160992857Y-94612295D02*
X161107143Y-94574200D01*
X161107143Y-94574200D02*
X161183333Y-94498009D01*
X161183333Y-94498009D02*
X161221428Y-94421819D01*
X161221428Y-94421819D02*
X161259524Y-94269438D01*
X161259524Y-94269438D02*
X161259524Y-94155152D01*
X161259524Y-94155152D02*
X161221428Y-94002771D01*
X161221428Y-94002771D02*
X161183333Y-93926580D01*
X161183333Y-93926580D02*
X161107143Y-93850390D01*
X161107143Y-93850390D02*
X160992857Y-93812295D01*
X160992857Y-93812295D02*
X160916666Y-93812295D01*
X160916666Y-93812295D02*
X160802381Y-93850390D01*
X160802381Y-93850390D02*
X160764285Y-93888485D01*
X160002381Y-94612295D02*
X160459524Y-94612295D01*
X160230952Y-94612295D02*
X160230952Y-93812295D01*
X160230952Y-93812295D02*
X160307143Y-93926580D01*
X160307143Y-93926580D02*
X160383333Y-94002771D01*
X160383333Y-94002771D02*
X160459524Y-94040866D01*
X159316666Y-93812295D02*
X159469047Y-93812295D01*
X159469047Y-93812295D02*
X159545238Y-93850390D01*
X159545238Y-93850390D02*
X159583333Y-93888485D01*
X159583333Y-93888485D02*
X159659523Y-94002771D01*
X159659523Y-94002771D02*
X159697619Y-94155152D01*
X159697619Y-94155152D02*
X159697619Y-94459914D01*
X159697619Y-94459914D02*
X159659523Y-94536104D01*
X159659523Y-94536104D02*
X159621428Y-94574200D01*
X159621428Y-94574200D02*
X159545238Y-94612295D01*
X159545238Y-94612295D02*
X159392857Y-94612295D01*
X159392857Y-94612295D02*
X159316666Y-94574200D01*
X159316666Y-94574200D02*
X159278571Y-94536104D01*
X159278571Y-94536104D02*
X159240476Y-94459914D01*
X159240476Y-94459914D02*
X159240476Y-94269438D01*
X159240476Y-94269438D02*
X159278571Y-94193247D01*
X159278571Y-94193247D02*
X159316666Y-94155152D01*
X159316666Y-94155152D02*
X159392857Y-94117057D01*
X159392857Y-94117057D02*
X159545238Y-94117057D01*
X159545238Y-94117057D02*
X159621428Y-94155152D01*
X159621428Y-94155152D02*
X159659523Y-94193247D01*
X159659523Y-94193247D02*
X159697619Y-94269438D01*
X155514285Y-85546104D02*
X155552381Y-85584200D01*
X155552381Y-85584200D02*
X155666666Y-85622295D01*
X155666666Y-85622295D02*
X155742857Y-85622295D01*
X155742857Y-85622295D02*
X155857143Y-85584200D01*
X155857143Y-85584200D02*
X155933333Y-85508009D01*
X155933333Y-85508009D02*
X155971428Y-85431819D01*
X155971428Y-85431819D02*
X156009524Y-85279438D01*
X156009524Y-85279438D02*
X156009524Y-85165152D01*
X156009524Y-85165152D02*
X155971428Y-85012771D01*
X155971428Y-85012771D02*
X155933333Y-84936580D01*
X155933333Y-84936580D02*
X155857143Y-84860390D01*
X155857143Y-84860390D02*
X155742857Y-84822295D01*
X155742857Y-84822295D02*
X155666666Y-84822295D01*
X155666666Y-84822295D02*
X155552381Y-84860390D01*
X155552381Y-84860390D02*
X155514285Y-84898485D01*
X154752381Y-85622295D02*
X155209524Y-85622295D01*
X154980952Y-85622295D02*
X154980952Y-84822295D01*
X154980952Y-84822295D02*
X155057143Y-84936580D01*
X155057143Y-84936580D02*
X155133333Y-85012771D01*
X155133333Y-85012771D02*
X155209524Y-85050866D01*
X154028571Y-84822295D02*
X154409523Y-84822295D01*
X154409523Y-84822295D02*
X154447619Y-85203247D01*
X154447619Y-85203247D02*
X154409523Y-85165152D01*
X154409523Y-85165152D02*
X154333333Y-85127057D01*
X154333333Y-85127057D02*
X154142857Y-85127057D01*
X154142857Y-85127057D02*
X154066666Y-85165152D01*
X154066666Y-85165152D02*
X154028571Y-85203247D01*
X154028571Y-85203247D02*
X153990476Y-85279438D01*
X153990476Y-85279438D02*
X153990476Y-85469914D01*
X153990476Y-85469914D02*
X154028571Y-85546104D01*
X154028571Y-85546104D02*
X154066666Y-85584200D01*
X154066666Y-85584200D02*
X154142857Y-85622295D01*
X154142857Y-85622295D02*
X154333333Y-85622295D01*
X154333333Y-85622295D02*
X154409523Y-85584200D01*
X154409523Y-85584200D02*
X154447619Y-85546104D01*
X155916666Y-90443247D02*
X156183332Y-90443247D01*
X156183332Y-90862295D02*
X156183332Y-90062295D01*
X156183332Y-90062295D02*
X155802380Y-90062295D01*
X155230952Y-90443247D02*
X155116666Y-90481342D01*
X155116666Y-90481342D02*
X155078571Y-90519438D01*
X155078571Y-90519438D02*
X155040475Y-90595628D01*
X155040475Y-90595628D02*
X155040475Y-90709914D01*
X155040475Y-90709914D02*
X155078571Y-90786104D01*
X155078571Y-90786104D02*
X155116666Y-90824200D01*
X155116666Y-90824200D02*
X155192856Y-90862295D01*
X155192856Y-90862295D02*
X155497618Y-90862295D01*
X155497618Y-90862295D02*
X155497618Y-90062295D01*
X155497618Y-90062295D02*
X155230952Y-90062295D01*
X155230952Y-90062295D02*
X155154761Y-90100390D01*
X155154761Y-90100390D02*
X155116666Y-90138485D01*
X155116666Y-90138485D02*
X155078571Y-90214676D01*
X155078571Y-90214676D02*
X155078571Y-90290866D01*
X155078571Y-90290866D02*
X155116666Y-90367057D01*
X155116666Y-90367057D02*
X155154761Y-90405152D01*
X155154761Y-90405152D02*
X155230952Y-90443247D01*
X155230952Y-90443247D02*
X155497618Y-90443247D01*
X154735714Y-90138485D02*
X154697618Y-90100390D01*
X154697618Y-90100390D02*
X154621428Y-90062295D01*
X154621428Y-90062295D02*
X154430952Y-90062295D01*
X154430952Y-90062295D02*
X154354761Y-90100390D01*
X154354761Y-90100390D02*
X154316666Y-90138485D01*
X154316666Y-90138485D02*
X154278571Y-90214676D01*
X154278571Y-90214676D02*
X154278571Y-90290866D01*
X154278571Y-90290866D02*
X154316666Y-90405152D01*
X154316666Y-90405152D02*
X154773809Y-90862295D01*
X154773809Y-90862295D02*
X154278571Y-90862295D01*
X150916666Y-92443247D02*
X151183332Y-92443247D01*
X151183332Y-92862295D02*
X151183332Y-92062295D01*
X151183332Y-92062295D02*
X150802380Y-92062295D01*
X150230952Y-92443247D02*
X150116666Y-92481342D01*
X150116666Y-92481342D02*
X150078571Y-92519438D01*
X150078571Y-92519438D02*
X150040475Y-92595628D01*
X150040475Y-92595628D02*
X150040475Y-92709914D01*
X150040475Y-92709914D02*
X150078571Y-92786104D01*
X150078571Y-92786104D02*
X150116666Y-92824200D01*
X150116666Y-92824200D02*
X150192856Y-92862295D01*
X150192856Y-92862295D02*
X150497618Y-92862295D01*
X150497618Y-92862295D02*
X150497618Y-92062295D01*
X150497618Y-92062295D02*
X150230952Y-92062295D01*
X150230952Y-92062295D02*
X150154761Y-92100390D01*
X150154761Y-92100390D02*
X150116666Y-92138485D01*
X150116666Y-92138485D02*
X150078571Y-92214676D01*
X150078571Y-92214676D02*
X150078571Y-92290866D01*
X150078571Y-92290866D02*
X150116666Y-92367057D01*
X150116666Y-92367057D02*
X150154761Y-92405152D01*
X150154761Y-92405152D02*
X150230952Y-92443247D01*
X150230952Y-92443247D02*
X150497618Y-92443247D01*
X149773809Y-92062295D02*
X149278571Y-92062295D01*
X149278571Y-92062295D02*
X149545237Y-92367057D01*
X149545237Y-92367057D02*
X149430952Y-92367057D01*
X149430952Y-92367057D02*
X149354761Y-92405152D01*
X149354761Y-92405152D02*
X149316666Y-92443247D01*
X149316666Y-92443247D02*
X149278571Y-92519438D01*
X149278571Y-92519438D02*
X149278571Y-92709914D01*
X149278571Y-92709914D02*
X149316666Y-92786104D01*
X149316666Y-92786104D02*
X149354761Y-92824200D01*
X149354761Y-92824200D02*
X149430952Y-92862295D01*
X149430952Y-92862295D02*
X149659523Y-92862295D01*
X149659523Y-92862295D02*
X149735714Y-92824200D01*
X149735714Y-92824200D02*
X149773809Y-92786104D01*
X145864285Y-84916104D02*
X145902381Y-84954200D01*
X145902381Y-84954200D02*
X146016666Y-84992295D01*
X146016666Y-84992295D02*
X146092857Y-84992295D01*
X146092857Y-84992295D02*
X146207143Y-84954200D01*
X146207143Y-84954200D02*
X146283333Y-84878009D01*
X146283333Y-84878009D02*
X146321428Y-84801819D01*
X146321428Y-84801819D02*
X146359524Y-84649438D01*
X146359524Y-84649438D02*
X146359524Y-84535152D01*
X146359524Y-84535152D02*
X146321428Y-84382771D01*
X146321428Y-84382771D02*
X146283333Y-84306580D01*
X146283333Y-84306580D02*
X146207143Y-84230390D01*
X146207143Y-84230390D02*
X146092857Y-84192295D01*
X146092857Y-84192295D02*
X146016666Y-84192295D01*
X146016666Y-84192295D02*
X145902381Y-84230390D01*
X145902381Y-84230390D02*
X145864285Y-84268485D01*
X145102381Y-84992295D02*
X145559524Y-84992295D01*
X145330952Y-84992295D02*
X145330952Y-84192295D01*
X145330952Y-84192295D02*
X145407143Y-84306580D01*
X145407143Y-84306580D02*
X145483333Y-84382771D01*
X145483333Y-84382771D02*
X145559524Y-84420866D01*
X144340476Y-84992295D02*
X144797619Y-84992295D01*
X144569047Y-84992295D02*
X144569047Y-84192295D01*
X144569047Y-84192295D02*
X144645238Y-84306580D01*
X144645238Y-84306580D02*
X144721428Y-84382771D01*
X144721428Y-84382771D02*
X144797619Y-84420866D01*
X159142857Y-98609580D02*
X159190476Y-98657200D01*
X159190476Y-98657200D02*
X159333333Y-98704819D01*
X159333333Y-98704819D02*
X159428571Y-98704819D01*
X159428571Y-98704819D02*
X159571428Y-98657200D01*
X159571428Y-98657200D02*
X159666666Y-98561961D01*
X159666666Y-98561961D02*
X159714285Y-98466723D01*
X159714285Y-98466723D02*
X159761904Y-98276247D01*
X159761904Y-98276247D02*
X159761904Y-98133390D01*
X159761904Y-98133390D02*
X159714285Y-97942914D01*
X159714285Y-97942914D02*
X159666666Y-97847676D01*
X159666666Y-97847676D02*
X159571428Y-97752438D01*
X159571428Y-97752438D02*
X159428571Y-97704819D01*
X159428571Y-97704819D02*
X159333333Y-97704819D01*
X159333333Y-97704819D02*
X159190476Y-97752438D01*
X159190476Y-97752438D02*
X159142857Y-97800057D01*
X158190476Y-98704819D02*
X158761904Y-98704819D01*
X158476190Y-98704819D02*
X158476190Y-97704819D01*
X158476190Y-97704819D02*
X158571428Y-97847676D01*
X158571428Y-97847676D02*
X158666666Y-97942914D01*
X158666666Y-97942914D02*
X158761904Y-97990533D01*
X157857142Y-97704819D02*
X157238095Y-97704819D01*
X157238095Y-97704819D02*
X157571428Y-98085771D01*
X157571428Y-98085771D02*
X157428571Y-98085771D01*
X157428571Y-98085771D02*
X157333333Y-98133390D01*
X157333333Y-98133390D02*
X157285714Y-98181009D01*
X157285714Y-98181009D02*
X157238095Y-98276247D01*
X157238095Y-98276247D02*
X157238095Y-98514342D01*
X157238095Y-98514342D02*
X157285714Y-98609580D01*
X157285714Y-98609580D02*
X157333333Y-98657200D01*
X157333333Y-98657200D02*
X157428571Y-98704819D01*
X157428571Y-98704819D02*
X157714285Y-98704819D01*
X157714285Y-98704819D02*
X157809523Y-98657200D01*
X157809523Y-98657200D02*
X157857142Y-98609580D01*
X157356666Y-76788276D02*
X157570000Y-76483514D01*
X157722381Y-76788276D02*
X157722381Y-76148276D01*
X157722381Y-76148276D02*
X157478571Y-76148276D01*
X157478571Y-76148276D02*
X157417619Y-76178752D01*
X157417619Y-76178752D02*
X157387142Y-76209228D01*
X157387142Y-76209228D02*
X157356666Y-76270180D01*
X157356666Y-76270180D02*
X157356666Y-76361609D01*
X157356666Y-76361609D02*
X157387142Y-76422561D01*
X157387142Y-76422561D02*
X157417619Y-76453038D01*
X157417619Y-76453038D02*
X157478571Y-76483514D01*
X157478571Y-76483514D02*
X157722381Y-76483514D01*
X157051904Y-76788276D02*
X156930000Y-76788276D01*
X156930000Y-76788276D02*
X156869047Y-76757800D01*
X156869047Y-76757800D02*
X156838571Y-76727323D01*
X156838571Y-76727323D02*
X156777619Y-76635895D01*
X156777619Y-76635895D02*
X156747142Y-76513990D01*
X156747142Y-76513990D02*
X156747142Y-76270180D01*
X156747142Y-76270180D02*
X156777619Y-76209228D01*
X156777619Y-76209228D02*
X156808095Y-76178752D01*
X156808095Y-76178752D02*
X156869047Y-76148276D01*
X156869047Y-76148276D02*
X156990952Y-76148276D01*
X156990952Y-76148276D02*
X157051904Y-76178752D01*
X157051904Y-76178752D02*
X157082381Y-76209228D01*
X157082381Y-76209228D02*
X157112857Y-76270180D01*
X157112857Y-76270180D02*
X157112857Y-76422561D01*
X157112857Y-76422561D02*
X157082381Y-76483514D01*
X157082381Y-76483514D02*
X157051904Y-76513990D01*
X157051904Y-76513990D02*
X156990952Y-76544466D01*
X156990952Y-76544466D02*
X156869047Y-76544466D01*
X156869047Y-76544466D02*
X156808095Y-76513990D01*
X156808095Y-76513990D02*
X156777619Y-76483514D01*
X156777619Y-76483514D02*
X156747142Y-76422561D01*
X146609523Y-90562295D02*
X146609523Y-91209914D01*
X146609523Y-91209914D02*
X146571428Y-91286104D01*
X146571428Y-91286104D02*
X146533333Y-91324200D01*
X146533333Y-91324200D02*
X146457142Y-91362295D01*
X146457142Y-91362295D02*
X146304761Y-91362295D01*
X146304761Y-91362295D02*
X146228571Y-91324200D01*
X146228571Y-91324200D02*
X146190476Y-91286104D01*
X146190476Y-91286104D02*
X146152380Y-91209914D01*
X146152380Y-91209914D02*
X146152380Y-90562295D01*
X145657143Y-90905152D02*
X145733333Y-90867057D01*
X145733333Y-90867057D02*
X145771428Y-90828961D01*
X145771428Y-90828961D02*
X145809524Y-90752771D01*
X145809524Y-90752771D02*
X145809524Y-90714676D01*
X145809524Y-90714676D02*
X145771428Y-90638485D01*
X145771428Y-90638485D02*
X145733333Y-90600390D01*
X145733333Y-90600390D02*
X145657143Y-90562295D01*
X145657143Y-90562295D02*
X145504762Y-90562295D01*
X145504762Y-90562295D02*
X145428571Y-90600390D01*
X145428571Y-90600390D02*
X145390476Y-90638485D01*
X145390476Y-90638485D02*
X145352381Y-90714676D01*
X145352381Y-90714676D02*
X145352381Y-90752771D01*
X145352381Y-90752771D02*
X145390476Y-90828961D01*
X145390476Y-90828961D02*
X145428571Y-90867057D01*
X145428571Y-90867057D02*
X145504762Y-90905152D01*
X145504762Y-90905152D02*
X145657143Y-90905152D01*
X145657143Y-90905152D02*
X145733333Y-90943247D01*
X145733333Y-90943247D02*
X145771428Y-90981342D01*
X145771428Y-90981342D02*
X145809524Y-91057533D01*
X145809524Y-91057533D02*
X145809524Y-91209914D01*
X145809524Y-91209914D02*
X145771428Y-91286104D01*
X145771428Y-91286104D02*
X145733333Y-91324200D01*
X145733333Y-91324200D02*
X145657143Y-91362295D01*
X145657143Y-91362295D02*
X145504762Y-91362295D01*
X145504762Y-91362295D02*
X145428571Y-91324200D01*
X145428571Y-91324200D02*
X145390476Y-91286104D01*
X145390476Y-91286104D02*
X145352381Y-91209914D01*
X145352381Y-91209914D02*
X145352381Y-91057533D01*
X145352381Y-91057533D02*
X145390476Y-90981342D01*
X145390476Y-90981342D02*
X145428571Y-90943247D01*
X145428571Y-90943247D02*
X145504762Y-90905152D01*
X148514285Y-92776104D02*
X148552381Y-92814200D01*
X148552381Y-92814200D02*
X148666666Y-92852295D01*
X148666666Y-92852295D02*
X148742857Y-92852295D01*
X148742857Y-92852295D02*
X148857143Y-92814200D01*
X148857143Y-92814200D02*
X148933333Y-92738009D01*
X148933333Y-92738009D02*
X148971428Y-92661819D01*
X148971428Y-92661819D02*
X149009524Y-92509438D01*
X149009524Y-92509438D02*
X149009524Y-92395152D01*
X149009524Y-92395152D02*
X148971428Y-92242771D01*
X148971428Y-92242771D02*
X148933333Y-92166580D01*
X148933333Y-92166580D02*
X148857143Y-92090390D01*
X148857143Y-92090390D02*
X148742857Y-92052295D01*
X148742857Y-92052295D02*
X148666666Y-92052295D01*
X148666666Y-92052295D02*
X148552381Y-92090390D01*
X148552381Y-92090390D02*
X148514285Y-92128485D01*
X147752381Y-92852295D02*
X148209524Y-92852295D01*
X147980952Y-92852295D02*
X147980952Y-92052295D01*
X147980952Y-92052295D02*
X148057143Y-92166580D01*
X148057143Y-92166580D02*
X148133333Y-92242771D01*
X148133333Y-92242771D02*
X148209524Y-92280866D01*
X147295238Y-92395152D02*
X147371428Y-92357057D01*
X147371428Y-92357057D02*
X147409523Y-92318961D01*
X147409523Y-92318961D02*
X147447619Y-92242771D01*
X147447619Y-92242771D02*
X147447619Y-92204676D01*
X147447619Y-92204676D02*
X147409523Y-92128485D01*
X147409523Y-92128485D02*
X147371428Y-92090390D01*
X147371428Y-92090390D02*
X147295238Y-92052295D01*
X147295238Y-92052295D02*
X147142857Y-92052295D01*
X147142857Y-92052295D02*
X147066666Y-92090390D01*
X147066666Y-92090390D02*
X147028571Y-92128485D01*
X147028571Y-92128485D02*
X146990476Y-92204676D01*
X146990476Y-92204676D02*
X146990476Y-92242771D01*
X146990476Y-92242771D02*
X147028571Y-92318961D01*
X147028571Y-92318961D02*
X147066666Y-92357057D01*
X147066666Y-92357057D02*
X147142857Y-92395152D01*
X147142857Y-92395152D02*
X147295238Y-92395152D01*
X147295238Y-92395152D02*
X147371428Y-92433247D01*
X147371428Y-92433247D02*
X147409523Y-92471342D01*
X147409523Y-92471342D02*
X147447619Y-92547533D01*
X147447619Y-92547533D02*
X147447619Y-92699914D01*
X147447619Y-92699914D02*
X147409523Y-92776104D01*
X147409523Y-92776104D02*
X147371428Y-92814200D01*
X147371428Y-92814200D02*
X147295238Y-92852295D01*
X147295238Y-92852295D02*
X147142857Y-92852295D01*
X147142857Y-92852295D02*
X147066666Y-92814200D01*
X147066666Y-92814200D02*
X147028571Y-92776104D01*
X147028571Y-92776104D02*
X146990476Y-92699914D01*
X146990476Y-92699914D02*
X146990476Y-92547533D01*
X146990476Y-92547533D02*
X147028571Y-92471342D01*
X147028571Y-92471342D02*
X147066666Y-92433247D01*
X147066666Y-92433247D02*
X147142857Y-92395152D01*
X158764285Y-96862295D02*
X159030952Y-96481342D01*
X159221428Y-96862295D02*
X159221428Y-96062295D01*
X159221428Y-96062295D02*
X158916666Y-96062295D01*
X158916666Y-96062295D02*
X158840476Y-96100390D01*
X158840476Y-96100390D02*
X158802381Y-96138485D01*
X158802381Y-96138485D02*
X158764285Y-96214676D01*
X158764285Y-96214676D02*
X158764285Y-96328961D01*
X158764285Y-96328961D02*
X158802381Y-96405152D01*
X158802381Y-96405152D02*
X158840476Y-96443247D01*
X158840476Y-96443247D02*
X158916666Y-96481342D01*
X158916666Y-96481342D02*
X159221428Y-96481342D01*
X158002381Y-96862295D02*
X158459524Y-96862295D01*
X158230952Y-96862295D02*
X158230952Y-96062295D01*
X158230952Y-96062295D02*
X158307143Y-96176580D01*
X158307143Y-96176580D02*
X158383333Y-96252771D01*
X158383333Y-96252771D02*
X158459524Y-96290866D01*
X157316666Y-96062295D02*
X157469047Y-96062295D01*
X157469047Y-96062295D02*
X157545238Y-96100390D01*
X157545238Y-96100390D02*
X157583333Y-96138485D01*
X157583333Y-96138485D02*
X157659523Y-96252771D01*
X157659523Y-96252771D02*
X157697619Y-96405152D01*
X157697619Y-96405152D02*
X157697619Y-96709914D01*
X157697619Y-96709914D02*
X157659523Y-96786104D01*
X157659523Y-96786104D02*
X157621428Y-96824200D01*
X157621428Y-96824200D02*
X157545238Y-96862295D01*
X157545238Y-96862295D02*
X157392857Y-96862295D01*
X157392857Y-96862295D02*
X157316666Y-96824200D01*
X157316666Y-96824200D02*
X157278571Y-96786104D01*
X157278571Y-96786104D02*
X157240476Y-96709914D01*
X157240476Y-96709914D02*
X157240476Y-96519438D01*
X157240476Y-96519438D02*
X157278571Y-96443247D01*
X157278571Y-96443247D02*
X157316666Y-96405152D01*
X157316666Y-96405152D02*
X157392857Y-96367057D01*
X157392857Y-96367057D02*
X157545238Y-96367057D01*
X157545238Y-96367057D02*
X157621428Y-96405152D01*
X157621428Y-96405152D02*
X157659523Y-96443247D01*
X157659523Y-96443247D02*
X157697619Y-96519438D01*
X158856666Y-75038276D02*
X159070000Y-74733514D01*
X159222381Y-75038276D02*
X159222381Y-74398276D01*
X159222381Y-74398276D02*
X158978571Y-74398276D01*
X158978571Y-74398276D02*
X158917619Y-74428752D01*
X158917619Y-74428752D02*
X158887142Y-74459228D01*
X158887142Y-74459228D02*
X158856666Y-74520180D01*
X158856666Y-74520180D02*
X158856666Y-74611609D01*
X158856666Y-74611609D02*
X158887142Y-74672561D01*
X158887142Y-74672561D02*
X158917619Y-74703038D01*
X158917619Y-74703038D02*
X158978571Y-74733514D01*
X158978571Y-74733514D02*
X159222381Y-74733514D01*
X158643333Y-74398276D02*
X158216666Y-74398276D01*
X158216666Y-74398276D02*
X158490952Y-75038276D01*
X146616666Y-76499366D02*
X146649999Y-76532700D01*
X146649999Y-76532700D02*
X146749999Y-76566033D01*
X146749999Y-76566033D02*
X146816666Y-76566033D01*
X146816666Y-76566033D02*
X146916666Y-76532700D01*
X146916666Y-76532700D02*
X146983333Y-76466033D01*
X146983333Y-76466033D02*
X147016666Y-76399366D01*
X147016666Y-76399366D02*
X147049999Y-76266033D01*
X147049999Y-76266033D02*
X147049999Y-76166033D01*
X147049999Y-76166033D02*
X147016666Y-76032700D01*
X147016666Y-76032700D02*
X146983333Y-75966033D01*
X146983333Y-75966033D02*
X146916666Y-75899366D01*
X146916666Y-75899366D02*
X146816666Y-75866033D01*
X146816666Y-75866033D02*
X146749999Y-75866033D01*
X146749999Y-75866033D02*
X146649999Y-75899366D01*
X146649999Y-75899366D02*
X146616666Y-75932700D01*
X146016666Y-76099366D02*
X146016666Y-76566033D01*
X146183333Y-75832700D02*
X146349999Y-76332700D01*
X146349999Y-76332700D02*
X145916666Y-76332700D01*
X152450000Y-75316033D02*
X152683333Y-74982700D01*
X152850000Y-75316033D02*
X152850000Y-74616033D01*
X152850000Y-74616033D02*
X152583333Y-74616033D01*
X152583333Y-74616033D02*
X152516667Y-74649366D01*
X152516667Y-74649366D02*
X152483333Y-74682700D01*
X152483333Y-74682700D02*
X152450000Y-74749366D01*
X152450000Y-74749366D02*
X152450000Y-74849366D01*
X152450000Y-74849366D02*
X152483333Y-74916033D01*
X152483333Y-74916033D02*
X152516667Y-74949366D01*
X152516667Y-74949366D02*
X152583333Y-74982700D01*
X152583333Y-74982700D02*
X152850000Y-74982700D01*
X151783333Y-75316033D02*
X152183333Y-75316033D01*
X151983333Y-75316033D02*
X151983333Y-74616033D01*
X151983333Y-74616033D02*
X152050000Y-74716033D01*
X152050000Y-74716033D02*
X152116667Y-74782700D01*
X152116667Y-74782700D02*
X152183333Y-74816033D01*
X151550000Y-74616033D02*
X151116666Y-74616033D01*
X151116666Y-74616033D02*
X151350000Y-74882700D01*
X151350000Y-74882700D02*
X151250000Y-74882700D01*
X151250000Y-74882700D02*
X151183333Y-74916033D01*
X151183333Y-74916033D02*
X151150000Y-74949366D01*
X151150000Y-74949366D02*
X151116666Y-75016033D01*
X151116666Y-75016033D02*
X151116666Y-75182700D01*
X151116666Y-75182700D02*
X151150000Y-75249366D01*
X151150000Y-75249366D02*
X151183333Y-75282700D01*
X151183333Y-75282700D02*
X151250000Y-75316033D01*
X151250000Y-75316033D02*
X151450000Y-75316033D01*
X151450000Y-75316033D02*
X151516666Y-75282700D01*
X151516666Y-75282700D02*
X151550000Y-75249366D01*
X153383333Y-87492295D02*
X153764285Y-87492295D01*
X153764285Y-87492295D02*
X153764285Y-86692295D01*
X152697619Y-87492295D02*
X153154762Y-87492295D01*
X152926190Y-87492295D02*
X152926190Y-86692295D01*
X152926190Y-86692295D02*
X153002381Y-86806580D01*
X153002381Y-86806580D02*
X153078571Y-86882771D01*
X153078571Y-86882771D02*
X153154762Y-86920866D01*
X157261904Y-78954819D02*
X157261904Y-79764342D01*
X157261904Y-79764342D02*
X157214285Y-79859580D01*
X157214285Y-79859580D02*
X157166666Y-79907200D01*
X157166666Y-79907200D02*
X157071428Y-79954819D01*
X157071428Y-79954819D02*
X156880952Y-79954819D01*
X156880952Y-79954819D02*
X156785714Y-79907200D01*
X156785714Y-79907200D02*
X156738095Y-79859580D01*
X156738095Y-79859580D02*
X156690476Y-79764342D01*
X156690476Y-79764342D02*
X156690476Y-78954819D01*
X155785714Y-78954819D02*
X155976190Y-78954819D01*
X155976190Y-78954819D02*
X156071428Y-79002438D01*
X156071428Y-79002438D02*
X156119047Y-79050057D01*
X156119047Y-79050057D02*
X156214285Y-79192914D01*
X156214285Y-79192914D02*
X156261904Y-79383390D01*
X156261904Y-79383390D02*
X156261904Y-79764342D01*
X156261904Y-79764342D02*
X156214285Y-79859580D01*
X156214285Y-79859580D02*
X156166666Y-79907200D01*
X156166666Y-79907200D02*
X156071428Y-79954819D01*
X156071428Y-79954819D02*
X155880952Y-79954819D01*
X155880952Y-79954819D02*
X155785714Y-79907200D01*
X155785714Y-79907200D02*
X155738095Y-79859580D01*
X155738095Y-79859580D02*
X155690476Y-79764342D01*
X155690476Y-79764342D02*
X155690476Y-79526247D01*
X155690476Y-79526247D02*
X155738095Y-79431009D01*
X155738095Y-79431009D02*
X155785714Y-79383390D01*
X155785714Y-79383390D02*
X155880952Y-79335771D01*
X155880952Y-79335771D02*
X156071428Y-79335771D01*
X156071428Y-79335771D02*
X156166666Y-79383390D01*
X156166666Y-79383390D02*
X156214285Y-79431009D01*
X156214285Y-79431009D02*
X156261904Y-79526247D01*
X144606666Y-76477323D02*
X144637142Y-76507800D01*
X144637142Y-76507800D02*
X144728571Y-76538276D01*
X144728571Y-76538276D02*
X144789523Y-76538276D01*
X144789523Y-76538276D02*
X144880952Y-76507800D01*
X144880952Y-76507800D02*
X144941904Y-76446847D01*
X144941904Y-76446847D02*
X144972381Y-76385895D01*
X144972381Y-76385895D02*
X145002857Y-76263990D01*
X145002857Y-76263990D02*
X145002857Y-76172561D01*
X145002857Y-76172561D02*
X144972381Y-76050657D01*
X144972381Y-76050657D02*
X144941904Y-75989704D01*
X144941904Y-75989704D02*
X144880952Y-75928752D01*
X144880952Y-75928752D02*
X144789523Y-75898276D01*
X144789523Y-75898276D02*
X144728571Y-75898276D01*
X144728571Y-75898276D02*
X144637142Y-75928752D01*
X144637142Y-75928752D02*
X144606666Y-75959228D01*
X144027619Y-75898276D02*
X144332381Y-75898276D01*
X144332381Y-75898276D02*
X144362857Y-76203038D01*
X144362857Y-76203038D02*
X144332381Y-76172561D01*
X144332381Y-76172561D02*
X144271428Y-76142085D01*
X144271428Y-76142085D02*
X144119047Y-76142085D01*
X144119047Y-76142085D02*
X144058095Y-76172561D01*
X144058095Y-76172561D02*
X144027619Y-76203038D01*
X144027619Y-76203038D02*
X143997142Y-76263990D01*
X143997142Y-76263990D02*
X143997142Y-76416371D01*
X143997142Y-76416371D02*
X144027619Y-76477323D01*
X144027619Y-76477323D02*
X144058095Y-76507800D01*
X144058095Y-76507800D02*
X144119047Y-76538276D01*
X144119047Y-76538276D02*
X144271428Y-76538276D01*
X144271428Y-76538276D02*
X144332381Y-76507800D01*
X144332381Y-76507800D02*
X144362857Y-76477323D01*
X143606666Y-74788276D02*
X143820000Y-74483514D01*
X143972381Y-74788276D02*
X143972381Y-74148276D01*
X143972381Y-74148276D02*
X143728571Y-74148276D01*
X143728571Y-74148276D02*
X143667619Y-74178752D01*
X143667619Y-74178752D02*
X143637142Y-74209228D01*
X143637142Y-74209228D02*
X143606666Y-74270180D01*
X143606666Y-74270180D02*
X143606666Y-74361609D01*
X143606666Y-74361609D02*
X143637142Y-74422561D01*
X143637142Y-74422561D02*
X143667619Y-74453038D01*
X143667619Y-74453038D02*
X143728571Y-74483514D01*
X143728571Y-74483514D02*
X143972381Y-74483514D01*
X143058095Y-74148276D02*
X143180000Y-74148276D01*
X143180000Y-74148276D02*
X143240952Y-74178752D01*
X143240952Y-74178752D02*
X143271428Y-74209228D01*
X143271428Y-74209228D02*
X143332381Y-74300657D01*
X143332381Y-74300657D02*
X143362857Y-74422561D01*
X143362857Y-74422561D02*
X143362857Y-74666371D01*
X143362857Y-74666371D02*
X143332381Y-74727323D01*
X143332381Y-74727323D02*
X143301904Y-74757800D01*
X143301904Y-74757800D02*
X143240952Y-74788276D01*
X143240952Y-74788276D02*
X143119047Y-74788276D01*
X143119047Y-74788276D02*
X143058095Y-74757800D01*
X143058095Y-74757800D02*
X143027619Y-74727323D01*
X143027619Y-74727323D02*
X142997142Y-74666371D01*
X142997142Y-74666371D02*
X142997142Y-74513990D01*
X142997142Y-74513990D02*
X143027619Y-74453038D01*
X143027619Y-74453038D02*
X143058095Y-74422561D01*
X143058095Y-74422561D02*
X143119047Y-74392085D01*
X143119047Y-74392085D02*
X143240952Y-74392085D01*
X143240952Y-74392085D02*
X143301904Y-74422561D01*
X143301904Y-74422561D02*
X143332381Y-74453038D01*
X143332381Y-74453038D02*
X143362857Y-74513990D01*
X160764285Y-92036104D02*
X160802381Y-92074200D01*
X160802381Y-92074200D02*
X160916666Y-92112295D01*
X160916666Y-92112295D02*
X160992857Y-92112295D01*
X160992857Y-92112295D02*
X161107143Y-92074200D01*
X161107143Y-92074200D02*
X161183333Y-91998009D01*
X161183333Y-91998009D02*
X161221428Y-91921819D01*
X161221428Y-91921819D02*
X161259524Y-91769438D01*
X161259524Y-91769438D02*
X161259524Y-91655152D01*
X161259524Y-91655152D02*
X161221428Y-91502771D01*
X161221428Y-91502771D02*
X161183333Y-91426580D01*
X161183333Y-91426580D02*
X161107143Y-91350390D01*
X161107143Y-91350390D02*
X160992857Y-91312295D01*
X160992857Y-91312295D02*
X160916666Y-91312295D01*
X160916666Y-91312295D02*
X160802381Y-91350390D01*
X160802381Y-91350390D02*
X160764285Y-91388485D01*
X160002381Y-92112295D02*
X160459524Y-92112295D01*
X160230952Y-92112295D02*
X160230952Y-91312295D01*
X160230952Y-91312295D02*
X160307143Y-91426580D01*
X160307143Y-91426580D02*
X160383333Y-91502771D01*
X160383333Y-91502771D02*
X160459524Y-91540866D01*
X159316666Y-91578961D02*
X159316666Y-92112295D01*
X159507142Y-91274200D02*
X159697619Y-91845628D01*
X159697619Y-91845628D02*
X159202380Y-91845628D01*
X143264285Y-87242295D02*
X143530952Y-86861342D01*
X143721428Y-87242295D02*
X143721428Y-86442295D01*
X143721428Y-86442295D02*
X143416666Y-86442295D01*
X143416666Y-86442295D02*
X143340476Y-86480390D01*
X143340476Y-86480390D02*
X143302381Y-86518485D01*
X143302381Y-86518485D02*
X143264285Y-86594676D01*
X143264285Y-86594676D02*
X143264285Y-86708961D01*
X143264285Y-86708961D02*
X143302381Y-86785152D01*
X143302381Y-86785152D02*
X143340476Y-86823247D01*
X143340476Y-86823247D02*
X143416666Y-86861342D01*
X143416666Y-86861342D02*
X143721428Y-86861342D01*
X142502381Y-87242295D02*
X142959524Y-87242295D01*
X142730952Y-87242295D02*
X142730952Y-86442295D01*
X142730952Y-86442295D02*
X142807143Y-86556580D01*
X142807143Y-86556580D02*
X142883333Y-86632771D01*
X142883333Y-86632771D02*
X142959524Y-86670866D01*
X141816666Y-86708961D02*
X141816666Y-87242295D01*
X142007142Y-86404200D02*
X142197619Y-86975628D01*
X142197619Y-86975628D02*
X141702380Y-86975628D01*
X154264285Y-97036104D02*
X154302381Y-97074200D01*
X154302381Y-97074200D02*
X154416666Y-97112295D01*
X154416666Y-97112295D02*
X154492857Y-97112295D01*
X154492857Y-97112295D02*
X154607143Y-97074200D01*
X154607143Y-97074200D02*
X154683333Y-96998009D01*
X154683333Y-96998009D02*
X154721428Y-96921819D01*
X154721428Y-96921819D02*
X154759524Y-96769438D01*
X154759524Y-96769438D02*
X154759524Y-96655152D01*
X154759524Y-96655152D02*
X154721428Y-96502771D01*
X154721428Y-96502771D02*
X154683333Y-96426580D01*
X154683333Y-96426580D02*
X154607143Y-96350390D01*
X154607143Y-96350390D02*
X154492857Y-96312295D01*
X154492857Y-96312295D02*
X154416666Y-96312295D01*
X154416666Y-96312295D02*
X154302381Y-96350390D01*
X154302381Y-96350390D02*
X154264285Y-96388485D01*
X153502381Y-97112295D02*
X153959524Y-97112295D01*
X153730952Y-97112295D02*
X153730952Y-96312295D01*
X153730952Y-96312295D02*
X153807143Y-96426580D01*
X153807143Y-96426580D02*
X153883333Y-96502771D01*
X153883333Y-96502771D02*
X153959524Y-96540866D01*
X153197619Y-96388485D02*
X153159523Y-96350390D01*
X153159523Y-96350390D02*
X153083333Y-96312295D01*
X153083333Y-96312295D02*
X152892857Y-96312295D01*
X152892857Y-96312295D02*
X152816666Y-96350390D01*
X152816666Y-96350390D02*
X152778571Y-96388485D01*
X152778571Y-96388485D02*
X152740476Y-96464676D01*
X152740476Y-96464676D02*
X152740476Y-96540866D01*
X152740476Y-96540866D02*
X152778571Y-96655152D01*
X152778571Y-96655152D02*
X153235714Y-97112295D01*
X153235714Y-97112295D02*
X152740476Y-97112295D01*
X140856666Y-77038276D02*
X141070000Y-76733514D01*
X141222381Y-77038276D02*
X141222381Y-76398276D01*
X141222381Y-76398276D02*
X140978571Y-76398276D01*
X140978571Y-76398276D02*
X140917619Y-76428752D01*
X140917619Y-76428752D02*
X140887142Y-76459228D01*
X140887142Y-76459228D02*
X140856666Y-76520180D01*
X140856666Y-76520180D02*
X140856666Y-76611609D01*
X140856666Y-76611609D02*
X140887142Y-76672561D01*
X140887142Y-76672561D02*
X140917619Y-76703038D01*
X140917619Y-76703038D02*
X140978571Y-76733514D01*
X140978571Y-76733514D02*
X141222381Y-76733514D01*
X140308095Y-76611609D02*
X140308095Y-77038276D01*
X140460476Y-76367800D02*
X140612857Y-76824942D01*
X140612857Y-76824942D02*
X140216666Y-76824942D01*
X114711904Y-77954819D02*
X114711904Y-78764342D01*
X114711904Y-78764342D02*
X114664285Y-78859580D01*
X114664285Y-78859580D02*
X114616666Y-78907200D01*
X114616666Y-78907200D02*
X114521428Y-78954819D01*
X114521428Y-78954819D02*
X114330952Y-78954819D01*
X114330952Y-78954819D02*
X114235714Y-78907200D01*
X114235714Y-78907200D02*
X114188095Y-78859580D01*
X114188095Y-78859580D02*
X114140476Y-78764342D01*
X114140476Y-78764342D02*
X114140476Y-77954819D01*
X113235714Y-78288152D02*
X113235714Y-78954819D01*
X113473809Y-77907200D02*
X113711904Y-78621485D01*
X113711904Y-78621485D02*
X113092857Y-78621485D01*
X118411428Y-79288276D02*
X118624762Y-78983514D01*
X118777143Y-79288276D02*
X118777143Y-78648276D01*
X118777143Y-78648276D02*
X118533333Y-78648276D01*
X118533333Y-78648276D02*
X118472381Y-78678752D01*
X118472381Y-78678752D02*
X118441904Y-78709228D01*
X118441904Y-78709228D02*
X118411428Y-78770180D01*
X118411428Y-78770180D02*
X118411428Y-78861609D01*
X118411428Y-78861609D02*
X118441904Y-78922561D01*
X118441904Y-78922561D02*
X118472381Y-78953038D01*
X118472381Y-78953038D02*
X118533333Y-78983514D01*
X118533333Y-78983514D02*
X118777143Y-78983514D01*
X117801904Y-79288276D02*
X118167619Y-79288276D01*
X117984762Y-79288276D02*
X117984762Y-78648276D01*
X117984762Y-78648276D02*
X118045714Y-78739704D01*
X118045714Y-78739704D02*
X118106666Y-78800657D01*
X118106666Y-78800657D02*
X118167619Y-78831133D01*
X117558095Y-78709228D02*
X117527619Y-78678752D01*
X117527619Y-78678752D02*
X117466666Y-78648276D01*
X117466666Y-78648276D02*
X117314285Y-78648276D01*
X117314285Y-78648276D02*
X117253333Y-78678752D01*
X117253333Y-78678752D02*
X117222857Y-78709228D01*
X117222857Y-78709228D02*
X117192380Y-78770180D01*
X117192380Y-78770180D02*
X117192380Y-78831133D01*
X117192380Y-78831133D02*
X117222857Y-78922561D01*
X117222857Y-78922561D02*
X117588571Y-79288276D01*
X117588571Y-79288276D02*
X117192380Y-79288276D01*
X193738094Y-88179819D02*
X193738094Y-88989342D01*
X193738094Y-88989342D02*
X193690475Y-89084580D01*
X193690475Y-89084580D02*
X193642856Y-89132200D01*
X193642856Y-89132200D02*
X193547618Y-89179819D01*
X193547618Y-89179819D02*
X193357142Y-89179819D01*
X193357142Y-89179819D02*
X193261904Y-89132200D01*
X193261904Y-89132200D02*
X193214285Y-89084580D01*
X193214285Y-89084580D02*
X193166666Y-88989342D01*
X193166666Y-88989342D02*
X193166666Y-88179819D01*
X192166666Y-89179819D02*
X192738094Y-89179819D01*
X192452380Y-89179819D02*
X192452380Y-88179819D01*
X192452380Y-88179819D02*
X192547618Y-88322676D01*
X192547618Y-88322676D02*
X192642856Y-88417914D01*
X192642856Y-88417914D02*
X192738094Y-88465533D01*
X191547618Y-88179819D02*
X191452380Y-88179819D01*
X191452380Y-88179819D02*
X191357142Y-88227438D01*
X191357142Y-88227438D02*
X191309523Y-88275057D01*
X191309523Y-88275057D02*
X191261904Y-88370295D01*
X191261904Y-88370295D02*
X191214285Y-88560771D01*
X191214285Y-88560771D02*
X191214285Y-88798866D01*
X191214285Y-88798866D02*
X191261904Y-88989342D01*
X191261904Y-88989342D02*
X191309523Y-89084580D01*
X191309523Y-89084580D02*
X191357142Y-89132200D01*
X191357142Y-89132200D02*
X191452380Y-89179819D01*
X191452380Y-89179819D02*
X191547618Y-89179819D01*
X191547618Y-89179819D02*
X191642856Y-89132200D01*
X191642856Y-89132200D02*
X191690475Y-89084580D01*
X191690475Y-89084580D02*
X191738094Y-88989342D01*
X191738094Y-88989342D02*
X191785713Y-88798866D01*
X191785713Y-88798866D02*
X191785713Y-88560771D01*
X191785713Y-88560771D02*
X191738094Y-88370295D01*
X191738094Y-88370295D02*
X191690475Y-88275057D01*
X191690475Y-88275057D02*
X191642856Y-88227438D01*
X191642856Y-88227438D02*
X191547618Y-88179819D01*
X125032738Y-81050057D02*
X125127976Y-81002438D01*
X125127976Y-81002438D02*
X125223214Y-80907200D01*
X125223214Y-80907200D02*
X125366071Y-80764342D01*
X125366071Y-80764342D02*
X125461309Y-80716723D01*
X125461309Y-80716723D02*
X125556547Y-80716723D01*
X125508928Y-80954819D02*
X125604166Y-80907200D01*
X125604166Y-80907200D02*
X125699404Y-80811961D01*
X125699404Y-80811961D02*
X125747023Y-80621485D01*
X125747023Y-80621485D02*
X125747023Y-80288152D01*
X125747023Y-80288152D02*
X125699404Y-80097676D01*
X125699404Y-80097676D02*
X125604166Y-80002438D01*
X125604166Y-80002438D02*
X125508928Y-79954819D01*
X125508928Y-79954819D02*
X125318452Y-79954819D01*
X125318452Y-79954819D02*
X125223214Y-80002438D01*
X125223214Y-80002438D02*
X125127976Y-80097676D01*
X125127976Y-80097676D02*
X125080357Y-80288152D01*
X125080357Y-80288152D02*
X125080357Y-80621485D01*
X125080357Y-80621485D02*
X125127976Y-80811961D01*
X125127976Y-80811961D02*
X125223214Y-80907200D01*
X125223214Y-80907200D02*
X125318452Y-80954819D01*
X125318452Y-80954819D02*
X125508928Y-80954819D01*
X124127976Y-80954819D02*
X124699404Y-80954819D01*
X124413690Y-80954819D02*
X124413690Y-79954819D01*
X124413690Y-79954819D02*
X124508928Y-80097676D01*
X124508928Y-80097676D02*
X124604166Y-80192914D01*
X124604166Y-80192914D02*
X124699404Y-80240533D01*
X111911428Y-87288276D02*
X112124762Y-86983514D01*
X112277143Y-87288276D02*
X112277143Y-86648276D01*
X112277143Y-86648276D02*
X112033333Y-86648276D01*
X112033333Y-86648276D02*
X111972381Y-86678752D01*
X111972381Y-86678752D02*
X111941904Y-86709228D01*
X111941904Y-86709228D02*
X111911428Y-86770180D01*
X111911428Y-86770180D02*
X111911428Y-86861609D01*
X111911428Y-86861609D02*
X111941904Y-86922561D01*
X111941904Y-86922561D02*
X111972381Y-86953038D01*
X111972381Y-86953038D02*
X112033333Y-86983514D01*
X112033333Y-86983514D02*
X112277143Y-86983514D01*
X111301904Y-87288276D02*
X111667619Y-87288276D01*
X111484762Y-87288276D02*
X111484762Y-86648276D01*
X111484762Y-86648276D02*
X111545714Y-86739704D01*
X111545714Y-86739704D02*
X111606666Y-86800657D01*
X111606666Y-86800657D02*
X111667619Y-86831133D01*
X110692380Y-87288276D02*
X111058095Y-87288276D01*
X110875238Y-87288276D02*
X110875238Y-86648276D01*
X110875238Y-86648276D02*
X110936190Y-86739704D01*
X110936190Y-86739704D02*
X110997142Y-86800657D01*
X110997142Y-86800657D02*
X111058095Y-86831133D01*
X122911428Y-84288276D02*
X123124762Y-83983514D01*
X123277143Y-84288276D02*
X123277143Y-83648276D01*
X123277143Y-83648276D02*
X123033333Y-83648276D01*
X123033333Y-83648276D02*
X122972381Y-83678752D01*
X122972381Y-83678752D02*
X122941904Y-83709228D01*
X122941904Y-83709228D02*
X122911428Y-83770180D01*
X122911428Y-83770180D02*
X122911428Y-83861609D01*
X122911428Y-83861609D02*
X122941904Y-83922561D01*
X122941904Y-83922561D02*
X122972381Y-83953038D01*
X122972381Y-83953038D02*
X123033333Y-83983514D01*
X123033333Y-83983514D02*
X123277143Y-83983514D01*
X122301904Y-84288276D02*
X122667619Y-84288276D01*
X122484762Y-84288276D02*
X122484762Y-83648276D01*
X122484762Y-83648276D02*
X122545714Y-83739704D01*
X122545714Y-83739704D02*
X122606666Y-83800657D01*
X122606666Y-83800657D02*
X122667619Y-83831133D01*
X121905714Y-83648276D02*
X121844761Y-83648276D01*
X121844761Y-83648276D02*
X121783809Y-83678752D01*
X121783809Y-83678752D02*
X121753333Y-83709228D01*
X121753333Y-83709228D02*
X121722857Y-83770180D01*
X121722857Y-83770180D02*
X121692380Y-83892085D01*
X121692380Y-83892085D02*
X121692380Y-84044466D01*
X121692380Y-84044466D02*
X121722857Y-84166371D01*
X121722857Y-84166371D02*
X121753333Y-84227323D01*
X121753333Y-84227323D02*
X121783809Y-84257800D01*
X121783809Y-84257800D02*
X121844761Y-84288276D01*
X121844761Y-84288276D02*
X121905714Y-84288276D01*
X121905714Y-84288276D02*
X121966666Y-84257800D01*
X121966666Y-84257800D02*
X121997142Y-84227323D01*
X121997142Y-84227323D02*
X122027619Y-84166371D01*
X122027619Y-84166371D02*
X122058095Y-84044466D01*
X122058095Y-84044466D02*
X122058095Y-83892085D01*
X122058095Y-83892085D02*
X122027619Y-83770180D01*
X122027619Y-83770180D02*
X121997142Y-83709228D01*
X121997142Y-83709228D02*
X121966666Y-83678752D01*
X121966666Y-83678752D02*
X121905714Y-83648276D01*
X105916666Y-85819366D02*
X105949999Y-85852700D01*
X105949999Y-85852700D02*
X106049999Y-85886033D01*
X106049999Y-85886033D02*
X106116666Y-85886033D01*
X106116666Y-85886033D02*
X106216666Y-85852700D01*
X106216666Y-85852700D02*
X106283333Y-85786033D01*
X106283333Y-85786033D02*
X106316666Y-85719366D01*
X106316666Y-85719366D02*
X106349999Y-85586033D01*
X106349999Y-85586033D02*
X106349999Y-85486033D01*
X106349999Y-85486033D02*
X106316666Y-85352700D01*
X106316666Y-85352700D02*
X106283333Y-85286033D01*
X106283333Y-85286033D02*
X106216666Y-85219366D01*
X106216666Y-85219366D02*
X106116666Y-85186033D01*
X106116666Y-85186033D02*
X106049999Y-85186033D01*
X106049999Y-85186033D02*
X105949999Y-85219366D01*
X105949999Y-85219366D02*
X105916666Y-85252700D01*
X105583333Y-85886033D02*
X105449999Y-85886033D01*
X105449999Y-85886033D02*
X105383333Y-85852700D01*
X105383333Y-85852700D02*
X105349999Y-85819366D01*
X105349999Y-85819366D02*
X105283333Y-85719366D01*
X105283333Y-85719366D02*
X105249999Y-85586033D01*
X105249999Y-85586033D02*
X105249999Y-85319366D01*
X105249999Y-85319366D02*
X105283333Y-85252700D01*
X105283333Y-85252700D02*
X105316666Y-85219366D01*
X105316666Y-85219366D02*
X105383333Y-85186033D01*
X105383333Y-85186033D02*
X105516666Y-85186033D01*
X105516666Y-85186033D02*
X105583333Y-85219366D01*
X105583333Y-85219366D02*
X105616666Y-85252700D01*
X105616666Y-85252700D02*
X105649999Y-85319366D01*
X105649999Y-85319366D02*
X105649999Y-85486033D01*
X105649999Y-85486033D02*
X105616666Y-85552700D01*
X105616666Y-85552700D02*
X105583333Y-85586033D01*
X105583333Y-85586033D02*
X105516666Y-85619366D01*
X105516666Y-85619366D02*
X105383333Y-85619366D01*
X105383333Y-85619366D02*
X105316666Y-85586033D01*
X105316666Y-85586033D02*
X105283333Y-85552700D01*
X105283333Y-85552700D02*
X105249999Y-85486033D01*
X106038428Y-80797323D02*
X106068904Y-80827800D01*
X106068904Y-80827800D02*
X106160333Y-80858276D01*
X106160333Y-80858276D02*
X106221285Y-80858276D01*
X106221285Y-80858276D02*
X106312714Y-80827800D01*
X106312714Y-80827800D02*
X106373666Y-80766847D01*
X106373666Y-80766847D02*
X106404143Y-80705895D01*
X106404143Y-80705895D02*
X106434619Y-80583990D01*
X106434619Y-80583990D02*
X106434619Y-80492561D01*
X106434619Y-80492561D02*
X106404143Y-80370657D01*
X106404143Y-80370657D02*
X106373666Y-80309704D01*
X106373666Y-80309704D02*
X106312714Y-80248752D01*
X106312714Y-80248752D02*
X106221285Y-80218276D01*
X106221285Y-80218276D02*
X106160333Y-80218276D01*
X106160333Y-80218276D02*
X106068904Y-80248752D01*
X106068904Y-80248752D02*
X106038428Y-80279228D01*
X105428904Y-80858276D02*
X105794619Y-80858276D01*
X105611762Y-80858276D02*
X105611762Y-80218276D01*
X105611762Y-80218276D02*
X105672714Y-80309704D01*
X105672714Y-80309704D02*
X105733666Y-80370657D01*
X105733666Y-80370657D02*
X105794619Y-80401133D01*
X105032714Y-80218276D02*
X104971761Y-80218276D01*
X104971761Y-80218276D02*
X104910809Y-80248752D01*
X104910809Y-80248752D02*
X104880333Y-80279228D01*
X104880333Y-80279228D02*
X104849857Y-80340180D01*
X104849857Y-80340180D02*
X104819380Y-80462085D01*
X104819380Y-80462085D02*
X104819380Y-80614466D01*
X104819380Y-80614466D02*
X104849857Y-80736371D01*
X104849857Y-80736371D02*
X104880333Y-80797323D01*
X104880333Y-80797323D02*
X104910809Y-80827800D01*
X104910809Y-80827800D02*
X104971761Y-80858276D01*
X104971761Y-80858276D02*
X105032714Y-80858276D01*
X105032714Y-80858276D02*
X105093666Y-80827800D01*
X105093666Y-80827800D02*
X105124142Y-80797323D01*
X105124142Y-80797323D02*
X105154619Y-80736371D01*
X105154619Y-80736371D02*
X105185095Y-80614466D01*
X105185095Y-80614466D02*
X105185095Y-80462085D01*
X105185095Y-80462085D02*
X105154619Y-80340180D01*
X105154619Y-80340180D02*
X105124142Y-80279228D01*
X105124142Y-80279228D02*
X105093666Y-80248752D01*
X105093666Y-80248752D02*
X105032714Y-80218276D01*
X111106666Y-77227323D02*
X111137142Y-77257800D01*
X111137142Y-77257800D02*
X111228571Y-77288276D01*
X111228571Y-77288276D02*
X111289523Y-77288276D01*
X111289523Y-77288276D02*
X111380952Y-77257800D01*
X111380952Y-77257800D02*
X111441904Y-77196847D01*
X111441904Y-77196847D02*
X111472381Y-77135895D01*
X111472381Y-77135895D02*
X111502857Y-77013990D01*
X111502857Y-77013990D02*
X111502857Y-76922561D01*
X111502857Y-76922561D02*
X111472381Y-76800657D01*
X111472381Y-76800657D02*
X111441904Y-76739704D01*
X111441904Y-76739704D02*
X111380952Y-76678752D01*
X111380952Y-76678752D02*
X111289523Y-76648276D01*
X111289523Y-76648276D02*
X111228571Y-76648276D01*
X111228571Y-76648276D02*
X111137142Y-76678752D01*
X111137142Y-76678752D02*
X111106666Y-76709228D01*
X110740952Y-76922561D02*
X110801904Y-76892085D01*
X110801904Y-76892085D02*
X110832381Y-76861609D01*
X110832381Y-76861609D02*
X110862857Y-76800657D01*
X110862857Y-76800657D02*
X110862857Y-76770180D01*
X110862857Y-76770180D02*
X110832381Y-76709228D01*
X110832381Y-76709228D02*
X110801904Y-76678752D01*
X110801904Y-76678752D02*
X110740952Y-76648276D01*
X110740952Y-76648276D02*
X110619047Y-76648276D01*
X110619047Y-76648276D02*
X110558095Y-76678752D01*
X110558095Y-76678752D02*
X110527619Y-76709228D01*
X110527619Y-76709228D02*
X110497142Y-76770180D01*
X110497142Y-76770180D02*
X110497142Y-76800657D01*
X110497142Y-76800657D02*
X110527619Y-76861609D01*
X110527619Y-76861609D02*
X110558095Y-76892085D01*
X110558095Y-76892085D02*
X110619047Y-76922561D01*
X110619047Y-76922561D02*
X110740952Y-76922561D01*
X110740952Y-76922561D02*
X110801904Y-76953038D01*
X110801904Y-76953038D02*
X110832381Y-76983514D01*
X110832381Y-76983514D02*
X110862857Y-77044466D01*
X110862857Y-77044466D02*
X110862857Y-77166371D01*
X110862857Y-77166371D02*
X110832381Y-77227323D01*
X110832381Y-77227323D02*
X110801904Y-77257800D01*
X110801904Y-77257800D02*
X110740952Y-77288276D01*
X110740952Y-77288276D02*
X110619047Y-77288276D01*
X110619047Y-77288276D02*
X110558095Y-77257800D01*
X110558095Y-77257800D02*
X110527619Y-77227323D01*
X110527619Y-77227323D02*
X110497142Y-77166371D01*
X110497142Y-77166371D02*
X110497142Y-77044466D01*
X110497142Y-77044466D02*
X110527619Y-76983514D01*
X110527619Y-76983514D02*
X110558095Y-76953038D01*
X110558095Y-76953038D02*
X110619047Y-76922561D01*
X118788094Y-86892319D02*
X118788094Y-85892319D01*
X118788094Y-85892319D02*
X118549999Y-85892319D01*
X118549999Y-85892319D02*
X118407142Y-85939938D01*
X118407142Y-85939938D02*
X118311904Y-86035176D01*
X118311904Y-86035176D02*
X118264285Y-86130414D01*
X118264285Y-86130414D02*
X118216666Y-86320890D01*
X118216666Y-86320890D02*
X118216666Y-86463747D01*
X118216666Y-86463747D02*
X118264285Y-86654223D01*
X118264285Y-86654223D02*
X118311904Y-86749461D01*
X118311904Y-86749461D02*
X118407142Y-86844700D01*
X118407142Y-86844700D02*
X118549999Y-86892319D01*
X118549999Y-86892319D02*
X118788094Y-86892319D01*
X117883332Y-85892319D02*
X117264285Y-85892319D01*
X117264285Y-85892319D02*
X117597618Y-86273271D01*
X117597618Y-86273271D02*
X117454761Y-86273271D01*
X117454761Y-86273271D02*
X117359523Y-86320890D01*
X117359523Y-86320890D02*
X117311904Y-86368509D01*
X117311904Y-86368509D02*
X117264285Y-86463747D01*
X117264285Y-86463747D02*
X117264285Y-86701842D01*
X117264285Y-86701842D02*
X117311904Y-86797080D01*
X117311904Y-86797080D02*
X117359523Y-86844700D01*
X117359523Y-86844700D02*
X117454761Y-86892319D01*
X117454761Y-86892319D02*
X117740475Y-86892319D01*
X117740475Y-86892319D02*
X117835713Y-86844700D01*
X117835713Y-86844700D02*
X117883332Y-86797080D01*
X109761904Y-77954819D02*
X109761904Y-78764342D01*
X109761904Y-78764342D02*
X109714285Y-78859580D01*
X109714285Y-78859580D02*
X109666666Y-78907200D01*
X109666666Y-78907200D02*
X109571428Y-78954819D01*
X109571428Y-78954819D02*
X109380952Y-78954819D01*
X109380952Y-78954819D02*
X109285714Y-78907200D01*
X109285714Y-78907200D02*
X109238095Y-78859580D01*
X109238095Y-78859580D02*
X109190476Y-78764342D01*
X109190476Y-78764342D02*
X109190476Y-77954819D01*
X108238095Y-77954819D02*
X108714285Y-77954819D01*
X108714285Y-77954819D02*
X108761904Y-78431009D01*
X108761904Y-78431009D02*
X108714285Y-78383390D01*
X108714285Y-78383390D02*
X108619047Y-78335771D01*
X108619047Y-78335771D02*
X108380952Y-78335771D01*
X108380952Y-78335771D02*
X108285714Y-78383390D01*
X108285714Y-78383390D02*
X108238095Y-78431009D01*
X108238095Y-78431009D02*
X108190476Y-78526247D01*
X108190476Y-78526247D02*
X108190476Y-78764342D01*
X108190476Y-78764342D02*
X108238095Y-78859580D01*
X108238095Y-78859580D02*
X108285714Y-78907200D01*
X108285714Y-78907200D02*
X108380952Y-78954819D01*
X108380952Y-78954819D02*
X108619047Y-78954819D01*
X108619047Y-78954819D02*
X108714285Y-78907200D01*
X108714285Y-78907200D02*
X108761904Y-78859580D01*
D11*
%TO.C,R15*%
X151350000Y-93670000D02*
X151350000Y-93830000D01*
X152150000Y-93670000D02*
X152150000Y-93830000D01*
D12*
%TO.C,D5*%
X154690000Y-89630000D02*
G75*
G02*
X154490000Y-89630000I-100000J0D01*
G01*
X154490000Y-89630000D02*
G75*
G02*
X154690000Y-89630000I100000J0D01*
G01*
D11*
X151740000Y-89005000D02*
X153440000Y-89005000D01*
X153440000Y-90255000D02*
X151740000Y-90255000D01*
D12*
%TO.C,C15*%
X154950000Y-88000000D02*
X156050000Y-88000000D01*
D11*
%TO.C,FB2*%
X153750000Y-92150000D02*
X154750000Y-92150000D01*
X154750000Y-90850000D02*
X153750000Y-90850000D01*
%TO.C,FB3*%
X151490000Y-92140000D02*
X152490000Y-92140000D01*
X152490000Y-90840000D02*
X151490000Y-90840000D01*
D12*
%TO.C,C13*%
X156800000Y-98100000D02*
X155700000Y-98100000D01*
D11*
%TO.C,R9*%
X155080000Y-76100000D02*
X154920000Y-76100000D01*
X155080000Y-76900000D02*
X154920000Y-76900000D01*
D12*
%TO.C,U8*%
X143450000Y-89630000D02*
G75*
G02*
X143250000Y-89630000I-100000J0D01*
G01*
X143250000Y-89630000D02*
G75*
G02*
X143450000Y-89630000I100000J0D01*
G01*
D11*
X146730000Y-87060000D02*
X144970000Y-87060000D01*
X146730000Y-90200000D02*
X144970000Y-90200000D01*
%TO.C,R16*%
X155850000Y-94330000D02*
X155850000Y-94170000D01*
X156650000Y-94330000D02*
X156650000Y-94170000D01*
%TO.C,R7*%
X156420000Y-74350000D02*
X156580000Y-74350000D01*
X156420000Y-75150000D02*
X156580000Y-75150000D01*
%TO.C,R13*%
X151920000Y-76900000D02*
X152080000Y-76900000D01*
X151920000Y-76100000D02*
X152080000Y-76100000D01*
%TO.C,L1*%
X152350000Y-83960000D02*
X148350000Y-83960000D01*
X152350000Y-88300000D02*
X148350000Y-88300000D01*
%TO.C,U6*%
X152740000Y-77940000D02*
X154140000Y-77940000D01*
X152740000Y-81060000D02*
X154140000Y-81060000D01*
X152740000Y-77940000D02*
X152740000Y-78880000D01*
X152740000Y-80120000D02*
X152740000Y-81060000D01*
D12*
X155640000Y-78500000D02*
G75*
G02*
X155440000Y-78500000I-100000J0D01*
G01*
X155440000Y-78500000D02*
G75*
G02*
X155640000Y-78500000I100000J0D01*
G01*
D11*
%TO.C,R6*%
X141420000Y-74100000D02*
X141580000Y-74100000D01*
X141420000Y-74900000D02*
X141580000Y-74900000D01*
D12*
%TO.C,C14*%
X157250000Y-91200000D02*
X157250000Y-92300000D01*
D11*
%TO.C,R14*%
X143150000Y-88800000D02*
X143150000Y-88960000D01*
X142350000Y-88800000D02*
X142350000Y-88960000D01*
D12*
%TO.C,C12*%
X154300000Y-94250000D02*
X153200000Y-94250000D01*
D11*
%TO.C,R4*%
X141850000Y-76670000D02*
X141850000Y-76830000D01*
X142650000Y-76670000D02*
X142650000Y-76830000D01*
%TO.C,U4*%
X112440000Y-80955000D02*
X112440000Y-82555000D01*
X115560000Y-82555000D02*
X115560000Y-80955000D01*
D12*
X113150000Y-79255000D02*
G75*
G02*
X112950000Y-79255000I-100000J0D01*
G01*
X112950000Y-79255000D02*
G75*
G02*
X113150000Y-79255000I100000J0D01*
G01*
D11*
%TO.C,R12*%
X118180000Y-80037500D02*
X118020000Y-80037500D01*
X118180000Y-80837500D02*
X118020000Y-80837500D01*
%TO.C,U10*%
X189025000Y-80225000D02*
X189025000Y-85955000D01*
X194755000Y-87225000D02*
X189025000Y-87225000D01*
X196025000Y-80225000D02*
X190295000Y-80225000D01*
X196025000Y-81495000D02*
X196025000Y-87225000D01*
D12*
X188525000Y-80825000D02*
G75*
G02*
X188325000Y-80825000I-100000J0D01*
G01*
X188325000Y-80825000D02*
G75*
G02*
X188525000Y-80825000I100000J0D01*
G01*
D13*
%TO.C,Q1*%
X121287500Y-78940000D02*
X121937500Y-78940000D01*
X121287500Y-82060000D02*
X121937500Y-82060000D01*
X122587500Y-78940000D02*
X121937500Y-78940000D01*
X122587500Y-82060000D02*
X121937500Y-82060000D01*
X123100000Y-78990000D02*
X122860000Y-78660000D01*
X123340000Y-78660000D01*
X123100000Y-78990000D01*
G36*
X123100000Y-78990000D02*
G01*
X122860000Y-78660000D01*
X123340000Y-78660000D01*
X123100000Y-78990000D01*
G37*
D11*
%TO.C,R11*%
X111420000Y-85100000D02*
X111580000Y-85100000D01*
X111420000Y-85900000D02*
X111580000Y-85900000D01*
%TO.C,R10*%
X120200000Y-84292500D02*
X120200000Y-84132500D01*
X121000000Y-84292500D02*
X121000000Y-84132500D01*
D13*
%TO.C,D3*%
X116490000Y-82787500D02*
X116490000Y-83437500D01*
X116490000Y-84087500D02*
X116490000Y-83437500D01*
X119610000Y-82787500D02*
X119610000Y-83437500D01*
X119610000Y-84087500D02*
X119610000Y-83437500D01*
X116540000Y-82275000D02*
X116210000Y-82515000D01*
X116210000Y-82035000D01*
X116540000Y-82275000D01*
G36*
X116540000Y-82275000D02*
G01*
X116210000Y-82515000D01*
X116210000Y-82035000D01*
X116540000Y-82275000D01*
G37*
D11*
%TO.C,U5*%
X107490000Y-80955000D02*
X107490000Y-82555000D01*
X110610000Y-82555000D02*
X110610000Y-80955000D01*
D12*
X108200000Y-79255000D02*
G75*
G02*
X108000000Y-79255000I-100000J0D01*
G01*
X108000000Y-79255000D02*
G75*
G02*
X108200000Y-79255000I100000J0D01*
G01*
%TD*%
M02*
