%TF.GenerationSoftware,KiCad,Pcbnew,8.0.8*%
%TF.CreationDate,2025-03-08T00:49:35+02:00*%
%TF.ProjectId,gamma-spectrometer,67616d6d-612d-4737-9065-6374726f6d65,v0.0.4*%
%TF.SameCoordinates,Original*%
%TF.FileFunction,Paste,Top*%
%TF.FilePolarity,Positive*%
%FSLAX46Y46*%
G04 Gerber Fmt 4.6, Leading zero omitted, Abs format (unit mm)*
G04 Created by KiCad (PCBNEW 8.0.8) date 2025-03-08 00:49:35*
%MOMM*%
%LPD*%
G01*
G04 APERTURE LIST*
G04 Aperture macros list*
%AMRoundRect*
0 Rectangle with rounded corners*
0 $1 Rounding radius*
0 $2 $3 $4 $5 $6 $7 $8 $9 X,Y pos of 4 corners*
0 Add a 4 corners polygon primitive as box body*
4,1,4,$2,$3,$4,$5,$6,$7,$8,$9,$2,$3,0*
0 Add four circle primitives for the rounded corners*
1,1,$1+$1,$2,$3*
1,1,$1+$1,$4,$5*
1,1,$1+$1,$6,$7*
1,1,$1+$1,$8,$9*
0 Add four rect primitives between the rounded corners*
20,1,$1+$1,$2,$3,$4,$5,0*
20,1,$1+$1,$4,$5,$6,$7,0*
20,1,$1+$1,$6,$7,$8,$9,0*
20,1,$1+$1,$8,$9,$2,$3,0*%
G04 Aperture macros list end*
%ADD10C,0.010000*%
%ADD11RoundRect,0.072500X0.217500X-0.532500X0.217500X0.532500X-0.217500X0.532500X-0.217500X-0.532500X0*%
%ADD12R,0.650000X0.900000*%
%ADD13R,0.900000X0.650000*%
%ADD14R,1.450000X1.150000*%
%ADD15RoundRect,0.075000X-0.540000X-0.225000X0.540000X-0.225000X0.540000X0.225000X-0.540000X0.225000X0*%
%ADD16RoundRect,0.075000X0.260000X-0.225000X0.260000X0.225000X-0.260000X0.225000X-0.260000X-0.225000X0*%
%ADD17RoundRect,0.108750X0.356250X-0.326250X0.356250X0.326250X-0.356250X0.326250X-0.356250X-0.326250X0*%
%ADD18RoundRect,0.108750X0.326250X0.356250X-0.326250X0.356250X-0.326250X-0.356250X0.326250X-0.356250X0*%
%ADD19R,1.150000X1.450000*%
%ADD20RoundRect,0.075000X-0.225000X-0.260000X0.225000X-0.260000X0.225000X0.260000X-0.225000X0.260000X0*%
%ADD21RoundRect,0.147500X-0.467500X-0.147500X0.467500X-0.147500X0.467500X0.147500X-0.467500X0.147500X0*%
%ADD22R,0.870000X0.930000*%
%ADD23RoundRect,0.075000X0.225000X0.260000X-0.225000X0.260000X-0.225000X-0.260000X0.225000X-0.260000X0*%
%ADD24RoundRect,0.150000X-0.460000X-0.150000X0.460000X-0.150000X0.460000X0.150000X-0.460000X0.150000X0*%
%ADD25RoundRect,0.150000X0.587500X0.150000X-0.587500X0.150000X-0.587500X-0.150000X0.587500X-0.150000X0*%
%ADD26R,0.500000X0.500000*%
%ADD27R,0.500000X1.580000*%
%ADD28R,0.600000X0.550000*%
%ADD29RoundRect,0.108750X-0.356250X0.326250X-0.356250X-0.326250X0.356250X-0.326250X0.356250X0.326250X0*%
%ADD30RoundRect,0.108750X-0.326250X-0.356250X0.326250X-0.356250X0.326250X0.356250X-0.326250X0.356250X0*%
%ADD31R,1.295400X3.937000*%
%ADD32R,1.200000X3.700000*%
%ADD33R,0.700000X0.700000*%
%ADD34RoundRect,0.073750X-0.221250X0.531250X-0.221250X-0.531250X0.221250X-0.531250X0.221250X0.531250X0*%
%ADD35RoundRect,0.147500X0.147500X-0.457500X0.147500X0.457500X-0.147500X0.457500X-0.147500X-0.457500X0*%
%ADD36RoundRect,0.147500X0.467500X0.147500X-0.467500X0.147500X-0.467500X-0.147500X0.467500X-0.147500X0*%
%ADD37RoundRect,0.150000X0.150000X-0.587500X0.150000X0.587500X-0.150000X0.587500X-0.150000X-0.587500X0*%
%ADD38R,0.810000X0.930000*%
%ADD39R,1.400000X1.600000*%
%ADD40RoundRect,0.150000X-0.587500X-0.150000X0.587500X-0.150000X0.587500X0.150000X-0.587500X0.150000X0*%
%ADD41RoundRect,0.075000X-0.225000X0.540000X-0.225000X-0.540000X0.225000X-0.540000X0.225000X0.540000X0*%
G04 APERTURE END LIST*
D10*
%TO.C,D5*%
X150050000Y-94750000D02*
X149550000Y-94750000D01*
X149550000Y-94250000D01*
X150050000Y-94250000D01*
X150050000Y-94750000D01*
G36*
X150050000Y-94750000D02*
G01*
X149550000Y-94750000D01*
X149550000Y-94250000D01*
X150050000Y-94250000D01*
X150050000Y-94750000D01*
G37*
X152250000Y-94750000D02*
X151750000Y-94750000D01*
X151750000Y-94250000D01*
X152250000Y-94250000D01*
X152250000Y-94750000D01*
G36*
X152250000Y-94750000D02*
G01*
X151750000Y-94750000D01*
X151750000Y-94250000D01*
X152250000Y-94250000D01*
X152250000Y-94750000D01*
G37*
%TD*%
D11*
%TO.C,U4*%
X134395000Y-70905000D03*
X135345000Y-70905000D03*
X136295000Y-70905000D03*
X136295000Y-68395000D03*
X135345000Y-68395000D03*
X134395000Y-68395000D03*
%TD*%
D12*
%TO.C,R6*%
X124725000Y-70500000D03*
X123275000Y-70500000D03*
%TD*%
D13*
%TO.C,R2*%
X124500000Y-69225000D03*
X124500000Y-67775000D03*
%TD*%
D12*
%TO.C,R15*%
X151575000Y-100000000D03*
X153025000Y-100000000D03*
%TD*%
D14*
%TO.C,C19*%
X197025000Y-86625000D03*
X197025000Y-84825000D03*
%TD*%
D15*
%TO.C,Q4*%
X202965000Y-81775000D03*
X202965000Y-83675000D03*
X205085000Y-82725000D03*
%TD*%
D13*
%TO.C,R5*%
X129500000Y-67775000D03*
X129500000Y-69225000D03*
%TD*%
D16*
%TO.C,FB1*%
X99700000Y-70935000D03*
X99700000Y-70065000D03*
%TD*%
D17*
%TO.C,C21*%
X204525000Y-89785000D03*
X204525000Y-88225000D03*
%TD*%
D12*
%TO.C,R20*%
X202800000Y-86725000D03*
X204250000Y-86725000D03*
%TD*%
D18*
%TO.C,C16*%
X156080000Y-103500000D03*
X154520000Y-103500000D03*
%TD*%
D19*
%TO.C,C15*%
X159700000Y-105500000D03*
X157900000Y-105500000D03*
%TD*%
D20*
%TO.C,FB2*%
X152065000Y-102000000D03*
X152935000Y-102000000D03*
%TD*%
D21*
%TO.C,U6*%
X158200000Y-65500000D03*
X158200000Y-67400000D03*
X160320000Y-66450000D03*
%TD*%
D22*
%TO.C,C9*%
X137720000Y-65000000D03*
X139280000Y-65000000D03*
%TD*%
D12*
%TO.C,R8*%
X149425000Y-66500000D03*
X147975000Y-66500000D03*
%TD*%
D13*
%TO.C,R4*%
X120000000Y-69225000D03*
X120000000Y-67775000D03*
%TD*%
D18*
%TO.C,C10*%
X139280000Y-66500000D03*
X137720000Y-66500000D03*
%TD*%
D17*
%TO.C,C3*%
X111500000Y-67280000D03*
X111500000Y-65720000D03*
%TD*%
D12*
%TO.C,R13*%
X146725000Y-64000000D03*
X145275000Y-64000000D03*
%TD*%
D23*
%TO.C,FB3*%
X150935000Y-92500000D03*
X150065000Y-92500000D03*
%TD*%
D22*
%TO.C,C11*%
X144280000Y-98000000D03*
X142720000Y-98000000D03*
%TD*%
D19*
%TO.C,C13*%
X152100000Y-105500000D03*
X153900000Y-105500000D03*
%TD*%
D24*
%TO.C,U8*%
X142255000Y-94550000D03*
X142255000Y-95500000D03*
X142255000Y-96450000D03*
X144745000Y-96450000D03*
X144745000Y-95500000D03*
X144745000Y-94550000D03*
%TD*%
D19*
%TO.C,C17*%
X195425000Y-82225000D03*
X193625000Y-82225000D03*
%TD*%
D13*
%TO.C,TH1*%
X201025000Y-81575000D03*
X201025000Y-83025000D03*
%TD*%
D25*
%TO.C,D1*%
X126437500Y-65450000D03*
X126437500Y-63550000D03*
X124562500Y-64500000D03*
%TD*%
D13*
%TO.C,R18*%
X201000000Y-85725000D03*
X201000000Y-84275000D03*
%TD*%
D26*
%TO.C,J3*%
X127000000Y-67500000D03*
D27*
X126000000Y-68500000D03*
X128000000Y-68500000D03*
D28*
X127000000Y-69475000D03*
%TD*%
D29*
%TO.C,C7*%
X148500000Y-68220000D03*
X148500000Y-69780000D03*
%TD*%
D12*
%TO.C,R10*%
X143725000Y-66000000D03*
X142275000Y-66000000D03*
%TD*%
D22*
%TO.C,C1*%
X99200000Y-66500000D03*
X100760000Y-66500000D03*
%TD*%
D13*
%TO.C,R3*%
X121500000Y-69225000D03*
X121500000Y-67775000D03*
%TD*%
%TO.C,R19*%
X197025000Y-89950000D03*
X197025000Y-88500000D03*
%TD*%
D30*
%TO.C,C5*%
X136060000Y-62500000D03*
X134500000Y-62500000D03*
%TD*%
D28*
%TO.C,J5*%
X196500000Y-78975000D03*
D27*
X197500000Y-78000000D03*
X195500000Y-78000000D03*
D26*
X196500000Y-77000000D03*
%TD*%
D22*
%TO.C,C18*%
X147780000Y-93000000D03*
X146220000Y-93000000D03*
%TD*%
D31*
%TO.C,LS1*%
X142596400Y-84000000D03*
X149403600Y-84000000D03*
%TD*%
D12*
%TO.C,R16*%
X153025000Y-103500000D03*
X151575000Y-103500000D03*
%TD*%
%TO.C,R12*%
X141975000Y-68000000D03*
X143425000Y-68000000D03*
%TD*%
D17*
%TO.C,C22*%
X206525000Y-89785000D03*
X206525000Y-88225000D03*
%TD*%
D32*
%TO.C,L1*%
X146600000Y-98000000D03*
X149400000Y-98000000D03*
%TD*%
D33*
%TO.C,C8*%
X139150000Y-63500000D03*
X137850000Y-63500000D03*
%TD*%
D13*
%TO.C,R17*%
X199025000Y-82000000D03*
X199025000Y-83450000D03*
%TD*%
D22*
%TO.C,C4*%
X134500000Y-61000000D03*
X136060000Y-61000000D03*
%TD*%
D30*
%TO.C,C20*%
X199025000Y-91500000D03*
X200585000Y-91500000D03*
%TD*%
D34*
%TO.C,U9*%
X194975000Y-84470000D03*
X194025000Y-84470000D03*
X193075000Y-84470000D03*
X193075000Y-86980000D03*
X194975000Y-86980000D03*
%TD*%
D35*
%TO.C,U3*%
X131100000Y-70905000D03*
X132050000Y-70905000D03*
X133000000Y-70905000D03*
X133000000Y-68395000D03*
X131100000Y-68395000D03*
%TD*%
D36*
%TO.C,U7*%
X110260000Y-69950000D03*
X110260000Y-68050000D03*
X108140000Y-69000000D03*
%TD*%
D13*
%TO.C,R1*%
X123000000Y-67775000D03*
X123000000Y-69225000D03*
%TD*%
D11*
%TO.C,U2*%
X120550000Y-63245000D03*
X121500000Y-63245000D03*
X122450000Y-63245000D03*
X122450000Y-65755000D03*
X121500000Y-65755000D03*
X120550000Y-65755000D03*
%TD*%
D12*
%TO.C,R9*%
X147975000Y-65000000D03*
X149425000Y-65000000D03*
%TD*%
D37*
%TO.C,D3*%
X143050000Y-74437500D03*
X144950000Y-74437500D03*
X144000000Y-72562500D03*
%TD*%
D38*
%TO.C,D2*%
X143190000Y-78000000D03*
X144810000Y-78000000D03*
%TD*%
D19*
%TO.C,C14*%
X159700000Y-103500000D03*
X157900000Y-103500000D03*
%TD*%
D13*
%TO.C,R14*%
X140000000Y-95775000D03*
X140000000Y-97225000D03*
%TD*%
D39*
%TO.C,SW1*%
X137500000Y-106100000D03*
X137500000Y-98900000D03*
X134500000Y-106100000D03*
X134500000Y-98900000D03*
%TD*%
D13*
%TO.C,R21*%
X206525000Y-85500000D03*
X206525000Y-86950000D03*
%TD*%
D12*
%TO.C,R7*%
X141725000Y-78000000D03*
X140275000Y-78000000D03*
%TD*%
D11*
%TO.C,U5*%
X138050000Y-71010000D03*
X139000000Y-71010000D03*
X139950000Y-71010000D03*
X139950000Y-68500000D03*
X139000000Y-68500000D03*
X138050000Y-68500000D03*
%TD*%
D29*
%TO.C,C6*%
X134000000Y-64220000D03*
X134000000Y-65780000D03*
%TD*%
D40*
%TO.C,Q1*%
X141062500Y-62050000D03*
X141062500Y-63950000D03*
X142937500Y-63000000D03*
%TD*%
D19*
%TO.C,C12*%
X155000000Y-95000000D03*
X156800000Y-95000000D03*
%TD*%
D37*
%TO.C,Q2*%
X145550000Y-90937500D03*
X147450000Y-90937500D03*
X146500000Y-89062500D03*
%TD*%
D41*
%TO.C,Q3*%
X200975000Y-87440000D03*
X199075000Y-87440000D03*
X200025000Y-89560000D03*
%TD*%
D22*
%TO.C,C2*%
X99200000Y-68500000D03*
X100760000Y-68500000D03*
%TD*%
D12*
%TO.C,R11*%
X143725000Y-70500000D03*
X142275000Y-70500000D03*
%TD*%
M02*
