%TF.GenerationSoftware,KiCad,Pcbnew,8.0.8*%
%TF.CreationDate,2025-04-03T14:40:34+03:00*%
%TF.ProjectId,gamma-spectrometer,67616d6d-612d-4737-9065-6374726f6d65,v0.0.4*%
%TF.SameCoordinates,Original*%
%TF.FileFunction,Paste,Top*%
%TF.FilePolarity,Positive*%
%FSLAX46Y46*%
G04 Gerber Fmt 4.6, Leading zero omitted, Abs format (unit mm)*
G04 Created by KiCad (PCBNEW 8.0.8) date 2025-04-03 14:40:34*
%MOMM*%
%LPD*%
G01*
G04 APERTURE LIST*
G04 Aperture macros list*
%AMRoundRect*
0 Rectangle with rounded corners*
0 $1 Rounding radius*
0 $2 $3 $4 $5 $6 $7 $8 $9 X,Y pos of 4 corners*
0 Add a 4 corners polygon primitive as box body*
4,1,4,$2,$3,$4,$5,$6,$7,$8,$9,$2,$3,0*
0 Add four circle primitives for the rounded corners*
1,1,$1+$1,$2,$3*
1,1,$1+$1,$4,$5*
1,1,$1+$1,$6,$7*
1,1,$1+$1,$8,$9*
0 Add four rect primitives between the rounded corners*
20,1,$1+$1,$2,$3,$4,$5,0*
20,1,$1+$1,$4,$5,$6,$7,0*
20,1,$1+$1,$6,$7,$8,$9,0*
20,1,$1+$1,$8,$9,$2,$3,0*%
G04 Aperture macros list end*
%ADD10RoundRect,0.147500X0.147500X-0.467500X0.147500X0.467500X-0.147500X0.467500X-0.147500X-0.467500X0*%
%ADD11R,1.150000X1.450000*%
%ADD12RoundRect,0.075000X-0.540000X-0.225000X0.540000X-0.225000X0.540000X0.225000X-0.540000X0.225000X0*%
%ADD13RoundRect,0.075000X0.225000X0.260000X-0.225000X0.260000X-0.225000X-0.260000X0.225000X-0.260000X0*%
%ADD14RoundRect,0.108750X0.356250X-0.326250X0.356250X0.326250X-0.356250X0.326250X-0.356250X-0.326250X0*%
%ADD15R,0.650000X0.900000*%
%ADD16RoundRect,0.147500X0.147500X-0.457500X0.147500X0.457500X-0.147500X0.457500X-0.147500X-0.457500X0*%
%ADD17RoundRect,0.108750X-0.326250X-0.356250X0.326250X-0.356250X0.326250X0.356250X-0.326250X0.356250X0*%
%ADD18R,0.900000X0.650000*%
%ADD19R,0.870000X0.930000*%
%ADD20RoundRect,0.108750X0.326250X0.356250X-0.326250X0.356250X-0.326250X-0.356250X0.326250X-0.356250X0*%
%ADD21RoundRect,0.072500X-0.532500X-0.217500X0.532500X-0.217500X0.532500X0.217500X-0.532500X0.217500X0*%
%ADD22RoundRect,0.150000X0.587500X0.150000X-0.587500X0.150000X-0.587500X-0.150000X0.587500X-0.150000X0*%
%ADD23RoundRect,0.108750X-0.356250X0.326250X-0.356250X-0.326250X0.356250X-0.326250X0.356250X0.326250X0*%
%ADD24RoundRect,0.073750X-0.221250X0.531250X-0.221250X-0.531250X0.221250X-0.531250X0.221250X0.531250X0*%
%ADD25R,0.810000X0.930000*%
G04 APERTURE END LIST*
D10*
%TO.C,U7*%
X142300000Y-80250000D03*
X144200000Y-80250000D03*
X143250000Y-78130000D03*
%TD*%
D11*
%TO.C,C19*%
X188350000Y-94000000D03*
X190150000Y-94000000D03*
%TD*%
D12*
%TO.C,Q4*%
X199440000Y-79800000D03*
X199440000Y-81700000D03*
X201560000Y-80750000D03*
%TD*%
D13*
%TO.C,FB1*%
X98935000Y-70500000D03*
X98065000Y-70500000D03*
%TD*%
D14*
%TO.C,C21*%
X198500000Y-92780000D03*
X198500000Y-91220000D03*
%TD*%
D15*
%TO.C,R20*%
X200475000Y-89500000D03*
X199025000Y-89500000D03*
%TD*%
D16*
%TO.C,U3*%
X132550000Y-70255000D03*
X133500000Y-70255000D03*
X134450000Y-70255000D03*
X134450000Y-67745000D03*
X132550000Y-67745000D03*
%TD*%
D17*
%TO.C,C3*%
X108720000Y-68750000D03*
X110280000Y-68750000D03*
%TD*%
D18*
%TO.C,R1*%
X152750000Y-80025000D03*
X152750000Y-81475000D03*
%TD*%
%TO.C,R2*%
X155750000Y-81475000D03*
X155750000Y-80025000D03*
%TD*%
D11*
%TO.C,C17*%
X182850000Y-79750000D03*
X184650000Y-79750000D03*
%TD*%
D18*
%TO.C,TH1*%
X192525000Y-83021870D03*
X192525000Y-84471870D03*
%TD*%
D15*
%TO.C,R18*%
X191775000Y-89750000D03*
X193225000Y-89750000D03*
%TD*%
D18*
%TO.C,R5*%
X151250000Y-80025000D03*
X151250000Y-81475000D03*
%TD*%
D19*
%TO.C,C1*%
X98970000Y-68750000D03*
X100530000Y-68750000D03*
%TD*%
D18*
%TO.C,R3*%
X154250000Y-80025000D03*
X154250000Y-81475000D03*
%TD*%
%TO.C,R19*%
X192750000Y-93225000D03*
X192750000Y-91775000D03*
%TD*%
D15*
%TO.C,R8*%
X129275000Y-70000000D03*
X130725000Y-70000000D03*
%TD*%
D20*
%TO.C,C7*%
X130780000Y-68500000D03*
X129220000Y-68500000D03*
%TD*%
%TO.C,C22*%
X200530000Y-87750000D03*
X198970000Y-87750000D03*
%TD*%
D21*
%TO.C,U2*%
X145995000Y-76050000D03*
X145995000Y-77000000D03*
X145995000Y-77950000D03*
X148505000Y-77950000D03*
X148505000Y-77000000D03*
X148505000Y-76050000D03*
%TD*%
D22*
%TO.C,D1*%
X149437500Y-81700000D03*
X149437500Y-79800000D03*
X147562500Y-80750000D03*
%TD*%
D15*
%TO.C,R17*%
X182775000Y-82250000D03*
X184225000Y-82250000D03*
%TD*%
D23*
%TO.C,C20*%
X202750000Y-87970000D03*
X202750000Y-89530000D03*
%TD*%
D24*
%TO.C,U9*%
X185450000Y-87745000D03*
X184500000Y-87745000D03*
X183550000Y-87745000D03*
X183550000Y-90255000D03*
X185450000Y-90255000D03*
%TD*%
D25*
%TO.C,D2*%
X126810000Y-70000000D03*
X125190000Y-70000000D03*
%TD*%
D18*
%TO.C,R21*%
X197000000Y-91225000D03*
X197000000Y-89775000D03*
%TD*%
D12*
%TO.C,Q3*%
X187940000Y-89662500D03*
X187940000Y-91562500D03*
X190060000Y-90612500D03*
%TD*%
D19*
%TO.C,C2*%
X97280000Y-68750000D03*
X95720000Y-68750000D03*
%TD*%
M02*
