%TF.GenerationSoftware,KiCad,Pcbnew,8.0.8*%
%TF.CreationDate,2025-01-23T17:23:19+02:00*%
%TF.ProjectId,gamma-spectrometer,67616d6d-612d-4737-9065-6374726f6d65,v0.0.4*%
%TF.SameCoordinates,Original*%
%TF.FileFunction,Copper,L1,Top*%
%TF.FilePolarity,Positive*%
%FSLAX46Y46*%
G04 Gerber Fmt 4.6, Leading zero omitted, Abs format (unit mm)*
G04 Created by KiCad (PCBNEW 8.0.8) date 2025-01-23 17:23:19*
%MOMM*%
%LPD*%
G01*
G04 APERTURE LIST*
G04 Aperture macros list*
%AMRoundRect*
0 Rectangle with rounded corners*
0 $1 Rounding radius*
0 $2 $3 $4 $5 $6 $7 $8 $9 X,Y pos of 4 corners*
0 Add a 4 corners polygon primitive as box body*
4,1,4,$2,$3,$4,$5,$6,$7,$8,$9,$2,$3,0*
0 Add four circle primitives for the rounded corners*
1,1,$1+$1,$2,$3*
1,1,$1+$1,$4,$5*
1,1,$1+$1,$6,$7*
1,1,$1+$1,$8,$9*
0 Add four rect primitives between the rounded corners*
20,1,$1+$1,$2,$3,$4,$5,0*
20,1,$1+$1,$4,$5,$6,$7,0*
20,1,$1+$1,$6,$7,$8,$9,0*
20,1,$1+$1,$8,$9,$2,$3,0*%
%AMFreePoly0*
4,1,6,1.000000,0.000000,0.500000,-0.750000,-0.500000,-0.750000,-0.500000,0.750000,0.500000,0.750000,1.000000,0.000000,1.000000,0.000000,$1*%
%AMFreePoly1*
4,1,6,0.500000,-0.750000,-0.650000,-0.750000,-0.150000,0.000000,-0.650000,0.750000,0.500000,0.750000,0.500000,-0.750000,0.500000,-0.750000,$1*%
G04 Aperture macros list end*
%TA.AperFunction,SMDPad,CuDef*%
%ADD10RoundRect,0.072500X0.217500X-0.532500X0.217500X0.532500X-0.217500X0.532500X-0.217500X-0.532500X0*%
%TD*%
%TA.AperFunction,ComponentPad*%
%ADD11R,1.308000X1.308000*%
%TD*%
%TA.AperFunction,ComponentPad*%
%ADD12C,1.308000*%
%TD*%
%TA.AperFunction,SMDPad,CuDef*%
%ADD13R,0.650000X0.900000*%
%TD*%
%TA.AperFunction,SMDPad,CuDef*%
%ADD14R,0.900000X0.650000*%
%TD*%
%TA.AperFunction,SMDPad,CuDef*%
%ADD15R,1.450000X1.150000*%
%TD*%
%TA.AperFunction,SMDPad,CuDef*%
%ADD16RoundRect,0.075000X-0.540000X-0.225000X0.540000X-0.225000X0.540000X0.225000X-0.540000X0.225000X0*%
%TD*%
%TA.AperFunction,SMDPad,CuDef*%
%ADD17RoundRect,0.075000X0.260000X-0.225000X0.260000X0.225000X-0.260000X0.225000X-0.260000X-0.225000X0*%
%TD*%
%TA.AperFunction,SMDPad,CuDef*%
%ADD18RoundRect,0.108750X0.356250X-0.326250X0.356250X0.326250X-0.356250X0.326250X-0.356250X-0.326250X0*%
%TD*%
%TA.AperFunction,SMDPad,CuDef*%
%ADD19R,0.600000X0.600000*%
%TD*%
%TA.AperFunction,SMDPad,CuDef*%
%ADD20RoundRect,0.108750X0.326250X0.356250X-0.326250X0.356250X-0.326250X-0.356250X0.326250X-0.356250X0*%
%TD*%
%TA.AperFunction,SMDPad,CuDef*%
%ADD21R,1.150000X1.450000*%
%TD*%
%TA.AperFunction,SMDPad,CuDef*%
%ADD22RoundRect,0.075000X-0.225000X-0.260000X0.225000X-0.260000X0.225000X0.260000X-0.225000X0.260000X0*%
%TD*%
%TA.AperFunction,SMDPad,CuDef*%
%ADD23RoundRect,0.147500X-0.467500X-0.147500X0.467500X-0.147500X0.467500X0.147500X-0.467500X0.147500X0*%
%TD*%
%TA.AperFunction,ComponentPad*%
%ADD24R,1.218000X1.218000*%
%TD*%
%TA.AperFunction,ComponentPad*%
%ADD25C,1.218000*%
%TD*%
%TA.AperFunction,SMDPad,CuDef*%
%ADD26R,0.870000X0.930000*%
%TD*%
%TA.AperFunction,SMDPad,CuDef*%
%ADD27RoundRect,0.075000X0.225000X0.260000X-0.225000X0.260000X-0.225000X-0.260000X0.225000X-0.260000X0*%
%TD*%
%TA.AperFunction,SMDPad,CuDef*%
%ADD28RoundRect,0.150000X-0.460000X-0.150000X0.460000X-0.150000X0.460000X0.150000X-0.460000X0.150000X0*%
%TD*%
%TA.AperFunction,SMDPad,CuDef*%
%ADD29RoundRect,0.150000X-0.587500X-0.150000X0.587500X-0.150000X0.587500X0.150000X-0.587500X0.150000X0*%
%TD*%
%TA.AperFunction,SMDPad,CuDef*%
%ADD30FreePoly0,180.000000*%
%TD*%
%TA.AperFunction,SMDPad,CuDef*%
%ADD31FreePoly1,180.000000*%
%TD*%
%TA.AperFunction,SMDPad,CuDef*%
%ADD32RoundRect,0.108750X-0.356250X0.326250X-0.356250X-0.326250X0.356250X-0.326250X0.356250X0.326250X0*%
%TD*%
%TA.AperFunction,SMDPad,CuDef*%
%ADD33RoundRect,0.108750X-0.326250X-0.356250X0.326250X-0.356250X0.326250X0.356250X-0.326250X0.356250X0*%
%TD*%
%TA.AperFunction,SMDPad,CuDef*%
%ADD34R,1.295400X3.937000*%
%TD*%
%TA.AperFunction,SMDPad,CuDef*%
%ADD35FreePoly0,90.000000*%
%TD*%
%TA.AperFunction,SMDPad,CuDef*%
%ADD36FreePoly1,90.000000*%
%TD*%
%TA.AperFunction,SMDPad,CuDef*%
%ADD37R,3.700000X1.200000*%
%TD*%
%TA.AperFunction,SMDPad,CuDef*%
%ADD38R,0.700000X0.700000*%
%TD*%
%TA.AperFunction,SMDPad,CuDef*%
%ADD39RoundRect,0.073750X-0.221250X0.531250X-0.221250X-0.531250X0.221250X-0.531250X0.221250X0.531250X0*%
%TD*%
%TA.AperFunction,ComponentPad*%
%ADD40O,1.700000X1.700000*%
%TD*%
%TA.AperFunction,SMDPad,CuDef*%
%ADD41R,1.700000X3.500000*%
%TD*%
%TA.AperFunction,ComponentPad*%
%ADD42R,1.700000X1.700000*%
%TD*%
%TA.AperFunction,SMDPad,CuDef*%
%ADD43R,3.500000X1.700000*%
%TD*%
%TA.AperFunction,SMDPad,CuDef*%
%ADD44RoundRect,0.125000X-0.125000X-0.125000X0.125000X-0.125000X0.125000X0.125000X-0.125000X0.125000X0*%
%TD*%
%TA.AperFunction,SMDPad,CuDef*%
%ADD45RoundRect,0.147500X0.147500X-0.457500X0.147500X0.457500X-0.147500X0.457500X-0.147500X-0.457500X0*%
%TD*%
%TA.AperFunction,SMDPad,CuDef*%
%ADD46RoundRect,0.147500X0.467500X0.147500X-0.467500X0.147500X-0.467500X-0.147500X0.467500X-0.147500X0*%
%TD*%
%TA.AperFunction,SMDPad,CuDef*%
%ADD47RoundRect,0.072500X-0.532500X-0.217500X0.532500X-0.217500X0.532500X0.217500X-0.532500X0.217500X0*%
%TD*%
%TA.AperFunction,SMDPad,CuDef*%
%ADD48RoundRect,0.213750X-1.141250X0.641250X-1.141250X-0.641250X1.141250X-0.641250X1.141250X0.641250X0*%
%TD*%
%TA.AperFunction,SMDPad,CuDef*%
%ADD49RoundRect,0.150000X0.150000X-0.587500X0.150000X0.587500X-0.150000X0.587500X-0.150000X-0.587500X0*%
%TD*%
%TA.AperFunction,SMDPad,CuDef*%
%ADD50R,0.810000X0.930000*%
%TD*%
%TA.AperFunction,SMDPad,CuDef*%
%ADD51RoundRect,0.150000X0.587500X0.150000X-0.587500X0.150000X-0.587500X-0.150000X0.587500X-0.150000X0*%
%TD*%
%TA.AperFunction,SMDPad,CuDef*%
%ADD52R,1.400000X1.600000*%
%TD*%
%TA.AperFunction,SMDPad,CuDef*%
%ADD53RoundRect,0.075000X-0.225000X0.540000X-0.225000X-0.540000X0.225000X-0.540000X0.225000X0.540000X0*%
%TD*%
%TA.AperFunction,ViaPad*%
%ADD54C,3.500000*%
%TD*%
%TA.AperFunction,ViaPad*%
%ADD55C,1.200000*%
%TD*%
%TA.AperFunction,ViaPad*%
%ADD56C,0.600000*%
%TD*%
%TA.AperFunction,Conductor*%
%ADD57C,0.400000*%
%TD*%
%TA.AperFunction,Conductor*%
%ADD58C,0.200000*%
%TD*%
G04 APERTURE END LIST*
D10*
%TO.P,U4,1,OUT*%
%TO.N,Net-(D3-A)*%
X134395000Y-69905000D03*
%TO.P,U4,2,V-*%
%TO.N,GND*%
X135345000Y-69905000D03*
%TO.P,U4,3,+IN*%
%TO.N,SIG*%
X136295000Y-69905000D03*
%TO.P,U4,4,-IN*%
%TO.N,Net-(U4--IN)*%
X136295000Y-67395000D03*
%TO.P,U4,5,EN*%
%TO.N,VCC*%
X135345000Y-67395000D03*
%TO.P,U4,6,V+*%
X134395000Y-67395000D03*
%TD*%
D11*
%TO.P,J1,1,1*%
%TO.N,SDA*%
X91700000Y-102450000D03*
D12*
%TO.P,J1,2,2*%
%TO.N,SCL*%
X93700000Y-102450000D03*
%TO.P,J1,3,3*%
%TO.N,VCC*%
X95700000Y-102450000D03*
%TO.P,J1,4,4*%
%TO.N,GND*%
X97700000Y-102450000D03*
%TD*%
D13*
%TO.P,R6,1*%
%TO.N,Net-(U2--IN)*%
X128925000Y-66500000D03*
%TO.P,R6,2*%
%TO.N,SIG*%
X127475000Y-66500000D03*
%TD*%
D14*
%TO.P,R1,1*%
%TO.N,ANODE_IN*%
X126000000Y-67725000D03*
%TO.P,R1,2*%
%TO.N,Net-(D1-COM)*%
X126000000Y-66275000D03*
%TD*%
D13*
%TO.P,R15,1*%
%TO.N,Net-(VR2-CW)*%
X150275000Y-101000000D03*
%TO.P,R15,2*%
%TO.N,Net-(D5-K)*%
X151725000Y-101000000D03*
%TD*%
D11*
%TO.P,J4,1,1*%
%TO.N,PS_OUT*%
X154500000Y-100450000D03*
D12*
%TO.P,J4,2,2*%
%TO.N,GND*%
X156500000Y-100450000D03*
%TD*%
D15*
%TO.P,C19,1*%
%TO.N,Net-(Q3-B)*%
X197025000Y-86625000D03*
%TO.P,C19,2*%
%TO.N,GND1*%
X197025000Y-84825000D03*
%TD*%
D16*
%TO.P,Q4,1,C*%
%TO.N,PS_IN*%
X202965000Y-81775000D03*
%TO.P,Q4,2,B*%
%TO.N,Net-(Q4-B)*%
X202965000Y-83675000D03*
%TO.P,Q4,3,E*%
%TO.N,Net-(Q4-E)*%
X205085000Y-82725000D03*
%TD*%
D13*
%TO.P,R5,1*%
%TO.N,GND*%
X130275000Y-61000000D03*
%TO.P,R5,2*%
%TO.N,Net-(U2--IN)*%
X131725000Y-61000000D03*
%TD*%
D17*
%TO.P,FB1,1*%
%TO.N,Net-(U1-3V3)*%
X99700000Y-70435000D03*
%TO.P,FB1,2*%
%TO.N,VCC*%
X99700000Y-69565000D03*
%TD*%
D18*
%TO.P,C21,1*%
%TO.N,GND1*%
X204525000Y-89785000D03*
%TO.P,C21,2*%
%TO.N,Net-(C21-Pad2)*%
X204525000Y-88225000D03*
%TD*%
D13*
%TO.P,R20,1*%
%TO.N,Net-(Q4-E)*%
X202800000Y-86725000D03*
%TO.P,R20,2*%
%TO.N,Net-(C21-Pad2)*%
X204250000Y-86725000D03*
%TD*%
D19*
%TO.P,D5,1,K*%
%TO.N,Net-(D5-K)*%
X152000000Y-93500000D03*
%TO.P,D5,2,A*%
%TO.N,Net-(D5-A)*%
X149800000Y-93500000D03*
%TD*%
D20*
%TO.P,C16,1*%
%TO.N,GND*%
X154780000Y-104500000D03*
%TO.P,C16,2*%
%TO.N,PS_OUT*%
X153220000Y-104500000D03*
%TD*%
D21*
%TO.P,C15,1*%
%TO.N,PS_OUT*%
X158400000Y-106500000D03*
%TO.P,C15,2*%
%TO.N,GND*%
X156600000Y-106500000D03*
%TD*%
D22*
%TO.P,FB2,1*%
%TO.N,Net-(C13-Pad1)*%
X150065000Y-103000000D03*
%TO.P,FB2,2*%
%TO.N,Net-(D5-K)*%
X150935000Y-103000000D03*
%TD*%
D23*
%TO.P,U6,1,POS*%
%TO.N,VREF1*%
X158200000Y-64500000D03*
%TO.P,U6,2,NEG*%
%TO.N,GND*%
X158200000Y-66400000D03*
%TO.P,U6,3,NC*%
%TO.N,unconnected-(U6-NC-Pad3)*%
X160320000Y-65450000D03*
%TD*%
D11*
%TO.P,J5,1,1*%
%TO.N,ANODE_OUT*%
X197525000Y-78275000D03*
D12*
%TO.P,J5,2,2*%
%TO.N,GND1*%
X195525000Y-78275000D03*
%TD*%
D24*
%TO.P,VR1,1,CCW*%
%TO.N,Net-(VR1-CCW)*%
X153700000Y-65460000D03*
D25*
%TO.P,VR1,2,WIPER*%
%TO.N,Net-(U3-IN-)*%
X153700000Y-68000000D03*
%TO.P,VR1,3,CW*%
%TO.N,GND*%
X153700000Y-70540000D03*
%TD*%
D26*
%TO.P,C9,1*%
%TO.N,VCC*%
X138420000Y-66000000D03*
%TO.P,C9,2*%
%TO.N,GND*%
X139980000Y-66000000D03*
%TD*%
D13*
%TO.P,R8,1*%
%TO.N,Net-(VR1-CCW)*%
X149425000Y-65500000D03*
%TO.P,R8,2*%
%TO.N,Net-(R8-Pad2)*%
X147975000Y-65500000D03*
%TD*%
D14*
%TO.P,R4,1*%
%TO.N,ANODE_IN*%
X116500000Y-68045000D03*
%TO.P,R4,2*%
%TO.N,VREF*%
X116500000Y-66595000D03*
%TD*%
D20*
%TO.P,C10,1*%
%TO.N,GND*%
X139980000Y-67500000D03*
%TO.P,C10,2*%
%TO.N,VCC*%
X138420000Y-67500000D03*
%TD*%
D18*
%TO.P,C3,1*%
%TO.N,GND*%
X116200000Y-64780000D03*
%TO.P,C3,2*%
%TO.N,VCC*%
X116200000Y-63220000D03*
%TD*%
D13*
%TO.P,R13,1*%
%TO.N,VREF1*%
X146725000Y-63500000D03*
%TO.P,R13,2*%
%TO.N,VCC*%
X145275000Y-63500000D03*
%TD*%
D27*
%TO.P,FB3,1*%
%TO.N,Net-(D5-A)*%
X150935000Y-92000000D03*
%TO.P,FB3,2*%
%TO.N,+5V*%
X150065000Y-92000000D03*
%TD*%
D11*
%TO.P,J3,1,1*%
%TO.N,ANODE_IN*%
X123250000Y-68000000D03*
D12*
%TO.P,J3,2,2*%
%TO.N,GND*%
X123250000Y-70000000D03*
%TD*%
D26*
%TO.P,C11,1*%
%TO.N,Net-(D5-A)*%
X144280000Y-97000000D03*
%TO.P,C11,2*%
%TO.N,GND*%
X142720000Y-97000000D03*
%TD*%
D21*
%TO.P,C13,1*%
%TO.N,Net-(C13-Pad1)*%
X151600000Y-106500000D03*
%TO.P,C13,2*%
%TO.N,GND*%
X153400000Y-106500000D03*
%TD*%
D28*
%TO.P,U8,1,PGND*%
%TO.N,GND*%
X142255000Y-93550000D03*
%TO.P,U8,2,GND*%
X142255000Y-94500000D03*
%TO.P,U8,3,FB*%
%TO.N,Net-(U8-FB)*%
X142255000Y-95450000D03*
%TO.P,U8,4,~{SHDN}*%
%TO.N,Net-(D5-A)*%
X144745000Y-95450000D03*
%TO.P,U8,5,VCC*%
X144745000Y-94500000D03*
%TO.P,U8,6,LX*%
X144745000Y-93550000D03*
%TD*%
D21*
%TO.P,C17,1*%
%TO.N,PS_IN*%
X195425000Y-82225000D03*
%TO.P,C17,2*%
%TO.N,GND1*%
X193625000Y-82225000D03*
%TD*%
D14*
%TO.P,TH1,1*%
%TO.N,PS_IN*%
X201025000Y-80500000D03*
%TO.P,TH1,2*%
%TO.N,Net-(Q4-B)*%
X201025000Y-81950000D03*
%TD*%
D29*
%TO.P,D1,1,A*%
%TO.N,VCC*%
X120700000Y-63050000D03*
%TO.P,D1,2,K*%
%TO.N,GND*%
X120700000Y-64950000D03*
%TO.P,D1,3,COM*%
%TO.N,Net-(D1-COM)*%
X122575000Y-64000000D03*
%TD*%
D30*
%TO.P,JP1,1,A*%
%TO.N,Net-(JP1-A)*%
X106610000Y-69000000D03*
D31*
%TO.P,JP1,2,B*%
%TO.N,GND*%
X105160000Y-69000000D03*
%TD*%
D14*
%TO.P,R18,1*%
%TO.N,Net-(Q3-C)*%
X201025000Y-84950000D03*
%TO.P,R18,2*%
%TO.N,Net-(Q4-B)*%
X201025000Y-83500000D03*
%TD*%
D32*
%TO.P,C7,1*%
%TO.N,Net-(U3-IN-)*%
X148500000Y-67220000D03*
%TO.P,C7,2*%
%TO.N,GND*%
X148500000Y-68780000D03*
%TD*%
D13*
%TO.P,R10,1*%
%TO.N,Net-(D3-K)*%
X143425000Y-66000000D03*
%TO.P,R10,2*%
%TO.N,Net-(U4--IN)*%
X141975000Y-66000000D03*
%TD*%
D26*
%TO.P,C1,1*%
%TO.N,VCC*%
X99200000Y-65500000D03*
%TO.P,C1,2*%
%TO.N,GND*%
X100760000Y-65500000D03*
%TD*%
D11*
%TO.P,J2,1,1*%
%TO.N,SCK*%
X102200000Y-102450000D03*
D12*
%TO.P,J2,2,2*%
%TO.N,TX*%
X104200000Y-102450000D03*
%TO.P,J2,3,3*%
%TO.N,RX*%
X106200000Y-102450000D03*
%TO.P,J2,4,4*%
%TO.N,CS*%
X108200000Y-102450000D03*
%TO.P,J2,5,5*%
%TO.N,UART1TX*%
X110200000Y-102450000D03*
%TO.P,J2,6,6*%
%TO.N,UART1RX*%
X112200000Y-102450000D03*
%TD*%
D14*
%TO.P,R3,1*%
%TO.N,ANODE_IN*%
X118200000Y-68045000D03*
%TO.P,R3,2*%
%TO.N,VREF*%
X118200000Y-66595000D03*
%TD*%
%TO.P,R19,1*%
%TO.N,GND1*%
X197025000Y-89950000D03*
%TO.P,R19,2*%
%TO.N,Net-(Q3-E)*%
X197025000Y-88500000D03*
%TD*%
D33*
%TO.P,C5,1*%
%TO.N,GND*%
X133220000Y-62500000D03*
%TO.P,C5,2*%
%TO.N,VCC*%
X134780000Y-62500000D03*
%TD*%
D26*
%TO.P,C18,1*%
%TO.N,+5V*%
X147780000Y-92000000D03*
%TO.P,C18,2*%
%TO.N,GND*%
X146220000Y-92000000D03*
%TD*%
D34*
%TO.P,LS1,1,1*%
%TO.N,Net-(D4-K)*%
X142596400Y-85000000D03*
%TO.P,LS1,2,2*%
%TO.N,IND*%
X149403600Y-85000000D03*
%TD*%
D13*
%TO.P,R16,1*%
%TO.N,PS_OUT*%
X151725000Y-104500000D03*
%TO.P,R16,2*%
%TO.N,Net-(C13-Pad1)*%
X150275000Y-104500000D03*
%TD*%
%TO.P,R12,1*%
%TO.N,Net-(U4--IN)*%
X141975000Y-68000000D03*
%TO.P,R12,2*%
%TO.N,Net-(Q1-D)*%
X143425000Y-68000000D03*
%TD*%
D18*
%TO.P,C22,1*%
%TO.N,GND1*%
X206525000Y-89785000D03*
%TO.P,C22,2*%
%TO.N,Net-(C22-Pad2)*%
X206525000Y-88225000D03*
%TD*%
D35*
%TO.P,JP2,1,A*%
%TO.N,IND*%
X149500000Y-76225000D03*
D36*
%TO.P,JP2,2,B*%
%TO.N,GND*%
X149500000Y-74775000D03*
%TD*%
D37*
%TO.P,L1,1*%
%TO.N,Net-(D5-A)*%
X148000000Y-95600000D03*
%TO.P,L1,2*%
X148000000Y-98400000D03*
%TD*%
D38*
%TO.P,C8,1*%
%TO.N,GND*%
X138850000Y-64500000D03*
%TO.P,C8,2*%
%TO.N,Net-(U4--IN)*%
X137550000Y-64500000D03*
%TD*%
D14*
%TO.P,R17,1*%
%TO.N,PS_IN*%
X199025000Y-82000000D03*
%TO.P,R17,2*%
%TO.N,Net-(Q4-B)*%
X199025000Y-83450000D03*
%TD*%
D26*
%TO.P,C4,1*%
%TO.N,VCC*%
X134780000Y-61000000D03*
%TO.P,C4,2*%
%TO.N,GND*%
X133220000Y-61000000D03*
%TD*%
D33*
%TO.P,C20,1*%
%TO.N,GND1*%
X199025000Y-90725000D03*
%TO.P,C20,2*%
%TO.N,Net-(Q4-E)*%
X200585000Y-90725000D03*
%TD*%
D39*
%TO.P,VR3,1,IN*%
%TO.N,PS_IN*%
X194975000Y-84470000D03*
%TO.P,VR3,2,NC*%
%TO.N,unconnected-(VR3-NC-Pad2)*%
X194025000Y-84470000D03*
%TO.P,VR3,3,GND*%
%TO.N,GND1*%
X193075000Y-84470000D03*
%TO.P,VR3,4,GND*%
X193075000Y-86980000D03*
%TO.P,VR3,5,OUT*%
%TO.N,Net-(Q3-B)*%
X194975000Y-86980000D03*
%TD*%
D40*
%TO.P,U1,1,GPIO0*%
%TO.N,SDA*%
X89500000Y-94370000D03*
D41*
X89500000Y-95270000D03*
D40*
%TO.P,U1,2,GPIO1*%
%TO.N,SCL*%
X92040000Y-94370000D03*
D41*
X92040000Y-95270000D03*
D42*
%TO.P,U1,3,GND*%
%TO.N,GND*%
X94580000Y-94370000D03*
D41*
X94580000Y-95270000D03*
D40*
%TO.P,U1,4,GPIO2*%
%TO.N,SCK*%
X97120000Y-94370000D03*
D41*
X97120000Y-95270000D03*
D40*
%TO.P,U1,5,GPIO3*%
%TO.N,TX*%
X99660000Y-94370000D03*
D41*
X99660000Y-95270000D03*
D40*
%TO.P,U1,6,GPIO4*%
%TO.N,RX*%
X102200000Y-94370000D03*
D41*
X102200000Y-95270000D03*
D40*
%TO.P,U1,7,GPIO5*%
%TO.N,CS*%
X104740000Y-94370000D03*
D41*
X104740000Y-95270000D03*
D42*
%TO.P,U1,8,GND*%
%TO.N,GND*%
X107280000Y-94370000D03*
D41*
X107280000Y-95270000D03*
D40*
%TO.P,U1,9,GPIO6*%
%TO.N,unconnected-(U1-GPIO6-Pad9)*%
X109820000Y-94370000D03*
D41*
%TO.N,unconnected-(U1-GPIO6-Pad9)_1*%
X109820000Y-95270000D03*
D40*
%TO.P,U1,10,GPIO7*%
%TO.N,TCKR*%
X112360000Y-94370000D03*
D41*
X112360000Y-95270000D03*
D40*
%TO.P,U1,11,GPIO8*%
%TO.N,UART1TX*%
X114900000Y-94370000D03*
D41*
X114900000Y-95270000D03*
D40*
%TO.P,U1,12,GPIO9*%
%TO.N,UART1RX*%
X117440000Y-94370000D03*
D41*
X117440000Y-95270000D03*
D42*
%TO.P,U1,13,GND*%
%TO.N,GND*%
X119980000Y-94370000D03*
D41*
X119980000Y-95270000D03*
D40*
%TO.P,U1,14,GPIO10*%
%TO.N,unconnected-(U1-GPIO10-Pad14)_1*%
X122520000Y-94370000D03*
D41*
%TO.N,unconnected-(U1-GPIO10-Pad14)*%
X122520000Y-95270000D03*
D40*
%TO.P,U1,15,GPIO11*%
%TO.N,unconnected-(U1-GPIO11-Pad15)_1*%
X125060000Y-94370000D03*
D41*
%TO.N,unconnected-(U1-GPIO11-Pad15)*%
X125060000Y-95270000D03*
D40*
%TO.P,U1,16,GPIO12*%
%TO.N,unconnected-(U1-GPIO12-Pad16)_1*%
X127600000Y-94370000D03*
D41*
%TO.N,unconnected-(U1-GPIO12-Pad16)*%
X127600000Y-95270000D03*
D40*
%TO.P,U1,17,GPIO13*%
%TO.N,unconnected-(U1-GPIO13-Pad17)*%
X130140000Y-94370000D03*
D41*
%TO.N,unconnected-(U1-GPIO13-Pad17)_1*%
X130140000Y-95270000D03*
D42*
%TO.P,U1,18,GND*%
%TO.N,GND*%
X132680000Y-94370000D03*
D41*
X132680000Y-95270000D03*
D40*
%TO.P,U1,19,GPIO14*%
%TO.N,Net-(U1-GPIO14)*%
X135220000Y-94370000D03*
D41*
X135220000Y-95270000D03*
D40*
%TO.P,U1,20,GPIO15*%
%TO.N,unconnected-(U1-GPIO15-Pad20)_1*%
X137760000Y-94370000D03*
D41*
%TO.N,unconnected-(U1-GPIO15-Pad20)*%
X137760000Y-95270000D03*
D40*
%TO.P,U1,21,GPIO16*%
%TO.N,unconnected-(U1-GPIO16-Pad21)*%
X137760000Y-76590000D03*
D41*
%TO.N,unconnected-(U1-GPIO16-Pad21)_1*%
X137760000Y-75690000D03*
D40*
%TO.P,U1,22,GPIO17*%
%TO.N,unconnected-(U1-GPIO17-Pad22)*%
X135220000Y-76590000D03*
D41*
%TO.N,unconnected-(U1-GPIO17-Pad22)_1*%
X135220000Y-75690000D03*
D42*
%TO.P,U1,23,GND*%
%TO.N,GND*%
X132680000Y-76590000D03*
D41*
X132680000Y-75690000D03*
D40*
%TO.P,U1,24,GPIO18*%
%TO.N,INT*%
X130140000Y-76590000D03*
D41*
X130140000Y-75690000D03*
D40*
%TO.P,U1,25,GPIO19*%
%TO.N,unconnected-(U1-GPIO19-Pad25)*%
X127600000Y-76590000D03*
D41*
%TO.N,unconnected-(U1-GPIO19-Pad25)_1*%
X127600000Y-75690000D03*
D40*
%TO.P,U1,26,GPIO20*%
%TO.N,unconnected-(U1-GPIO20-Pad26)*%
X125060000Y-76590000D03*
D41*
%TO.N,unconnected-(U1-GPIO20-Pad26)_1*%
X125060000Y-75690000D03*
D40*
%TO.P,U1,27,GPIO21*%
%TO.N,unconnected-(U1-GPIO21-Pad27)_1*%
X122520000Y-76590000D03*
D41*
%TO.N,unconnected-(U1-GPIO21-Pad27)*%
X122520000Y-75690000D03*
D42*
%TO.P,U1,28,GND*%
%TO.N,GND*%
X119980000Y-76590000D03*
D41*
X119980000Y-75690000D03*
D40*
%TO.P,U1,29,GPIO22*%
%TO.N,RST*%
X117440000Y-76590000D03*
D41*
X117440000Y-75690000D03*
D40*
%TO.P,U1,30,RUN*%
%TO.N,unconnected-(U1-RUN-Pad30)_1*%
X114900000Y-76590000D03*
D41*
%TO.N,unconnected-(U1-RUN-Pad30)*%
X114900000Y-75690000D03*
D40*
%TO.P,U1,31,GPIO26_ADC0*%
%TO.N,SIG*%
X112360000Y-76590000D03*
D41*
X112360000Y-75690000D03*
D40*
%TO.P,U1,32,GPIO27_ADC1*%
%TO.N,PEAK*%
X109820000Y-76590000D03*
D41*
X109820000Y-75690000D03*
D42*
%TO.P,U1,33,AGND*%
%TO.N,Net-(JP1-A)*%
X107280000Y-76590000D03*
D41*
X107280000Y-75690000D03*
D40*
%TO.P,U1,34,GPIO28_ADC2*%
%TO.N,GND*%
X104740000Y-76590000D03*
D41*
X104740000Y-75690000D03*
D40*
%TO.P,U1,35,ADC_VREF*%
%TO.N,VREF*%
X102200000Y-76590000D03*
D41*
X102200000Y-75690000D03*
D40*
%TO.P,U1,36,3V3*%
%TO.N,Net-(U1-3V3)*%
X99660000Y-76590000D03*
D41*
X99660000Y-75690000D03*
D40*
%TO.P,U1,37,3V3_EN*%
%TO.N,unconnected-(U1-3V3_EN-Pad37)_1*%
X97120000Y-76590000D03*
D41*
%TO.N,unconnected-(U1-3V3_EN-Pad37)*%
X97120000Y-75690000D03*
D42*
%TO.P,U1,38,GND*%
%TO.N,GND*%
X94580000Y-76590000D03*
D41*
X94580000Y-75690000D03*
D40*
%TO.P,U1,39,VSYS*%
%TO.N,+5V*%
X92040000Y-76590000D03*
D41*
X92040000Y-75690000D03*
D40*
%TO.P,U1,40,VBUS*%
%TO.N,unconnected-(U1-VBUS-Pad40)*%
X89500000Y-76590000D03*
D41*
X89500000Y-75690000D03*
D40*
%TO.P,U1,41,SWCLK*%
%TO.N,unconnected-(U1-SWCLK-Pad41)_1*%
X137530000Y-88020000D03*
D43*
%TO.N,unconnected-(U1-SWCLK-Pad41)*%
X138430000Y-88020000D03*
D42*
%TO.P,U1,42,GND*%
%TO.N,GND*%
X137530000Y-85480000D03*
D43*
X138430000Y-85480000D03*
D40*
%TO.P,U1,43,SWDIO*%
%TO.N,unconnected-(U1-SWDIO-Pad43)_1*%
X137530000Y-82940000D03*
D43*
%TO.N,unconnected-(U1-SWDIO-Pad43)*%
X138430000Y-82940000D03*
%TD*%
D24*
%TO.P,VR2,1,CCW*%
%TO.N,Net-(U8-FB)*%
X142000000Y-103000000D03*
D25*
%TO.P,VR2,2,WIPER*%
X144540000Y-103000000D03*
%TO.P,VR2,3,CW*%
%TO.N,Net-(VR2-CW)*%
X147080000Y-103000000D03*
%TD*%
D44*
%TO.P,D4,1,K*%
%TO.N,Net-(D4-K)*%
X146400000Y-90000000D03*
%TO.P,D4,2,A*%
%TO.N,IND*%
X148600000Y-90000000D03*
%TD*%
D45*
%TO.P,U3,1,OUT*%
%TO.N,INT*%
X130250000Y-69905000D03*
%TO.P,U3,2,GND*%
%TO.N,GND*%
X131200000Y-69905000D03*
%TO.P,U3,3,IN+*%
%TO.N,SIG*%
X132150000Y-69905000D03*
%TO.P,U3,4,IN-*%
%TO.N,Net-(U3-IN-)*%
X132150000Y-67395000D03*
%TO.P,U3,5,VCC*%
%TO.N,VCC*%
X130250000Y-67395000D03*
%TD*%
D46*
%TO.P,U7,1,POS*%
%TO.N,VREF*%
X110260000Y-68950000D03*
%TO.P,U7,2,NEG*%
%TO.N,GND*%
X110260000Y-67050000D03*
%TO.P,U7,3,NC*%
%TO.N,unconnected-(U7-NC-Pad3)*%
X108140000Y-68000000D03*
%TD*%
D14*
%TO.P,R2,1*%
%TO.N,GND*%
X119700000Y-66775000D03*
%TO.P,R2,2*%
%TO.N,ANODE_IN*%
X119700000Y-68225000D03*
%TD*%
D47*
%TO.P,U2,1,OUT*%
%TO.N,SIG*%
X129145000Y-62550000D03*
%TO.P,U2,2,V-*%
%TO.N,GND*%
X129145000Y-63500000D03*
%TO.P,U2,3,+IN*%
%TO.N,Net-(D1-COM)*%
X129145000Y-64450000D03*
%TO.P,U2,4,-IN*%
%TO.N,Net-(U2--IN)*%
X131655000Y-64450000D03*
%TO.P,U2,5,EN*%
%TO.N,VCC*%
X131655000Y-63500000D03*
%TO.P,U2,6,V+*%
X131655000Y-62550000D03*
%TD*%
D13*
%TO.P,R9,1*%
%TO.N,VREF1*%
X147975000Y-64000000D03*
%TO.P,R9,2*%
%TO.N,Net-(R8-Pad2)*%
X149425000Y-64000000D03*
%TD*%
D48*
%TO.P,C3,1*%
%TO.N,VCC*%
X112700000Y-64795000D03*
%TO.P,C3,2*%
%TO.N,GND*%
X112700000Y-67205000D03*
%TD*%
D49*
%TO.P,D3,1,A*%
%TO.N,Net-(D3-A)*%
X141750000Y-73437500D03*
%TO.P,D3,2,K*%
%TO.N,Net-(D3-K)*%
X143650000Y-73437500D03*
%TO.P,D3,3,COM*%
%TO.N,Net-(D3-COM)*%
X142700000Y-71562500D03*
%TD*%
D11*
%TO.P,J6,1,1*%
%TO.N,PS_IN*%
X204025000Y-78275000D03*
D12*
%TO.P,J6,2,2*%
%TO.N,GND1*%
X202025000Y-78275000D03*
%TD*%
D50*
%TO.P,D2,A*%
%TO.N,Net-(D2-PadA)*%
X141890000Y-78000000D03*
%TO.P,D2,C*%
%TO.N,IND*%
X143510000Y-78000000D03*
%TD*%
D51*
%TO.P,Q2,1,G*%
%TO.N,TCKR*%
X144000000Y-91900000D03*
%TO.P,Q2,2,S*%
%TO.N,Net-(D4-K)*%
X144000000Y-90000000D03*
%TO.P,Q2,3,D*%
%TO.N,+5V*%
X142125000Y-90950000D03*
%TD*%
D21*
%TO.P,C14,1*%
%TO.N,PS_OUT*%
X158400000Y-104500000D03*
%TO.P,C14,2*%
%TO.N,GND*%
X156600000Y-104500000D03*
%TD*%
D14*
%TO.P,R14,1*%
%TO.N,GND*%
X140500000Y-93775000D03*
%TO.P,R14,2*%
%TO.N,Net-(U8-FB)*%
X140500000Y-95225000D03*
%TD*%
D52*
%TO.P,SW1,1,1*%
%TO.N,Net-(U1-GPIO14)*%
X135700000Y-109100000D03*
%TO.P,SW1,2,2*%
X135700000Y-101900000D03*
%TO.P,SW1,3,3*%
%TO.N,GND*%
X132700000Y-109100000D03*
%TO.P,SW1,4,4*%
X132700000Y-101900000D03*
%TD*%
D14*
%TO.P,R21,1*%
%TO.N,Net-(C21-Pad2)*%
X206525000Y-85500000D03*
%TO.P,R21,2*%
%TO.N,Net-(C22-Pad2)*%
X206525000Y-86950000D03*
%TD*%
D13*
%TO.P,R7,1*%
%TO.N,Net-(D2-PadA)*%
X141925000Y-76500000D03*
%TO.P,R7,2*%
%TO.N,INT*%
X140475000Y-76500000D03*
%TD*%
D10*
%TO.P,U5,1,OUT*%
%TO.N,PEAK*%
X137850000Y-71755000D03*
%TO.P,U5,2,V-*%
%TO.N,GND*%
X138800000Y-71755000D03*
%TO.P,U5,3,+IN*%
%TO.N,Net-(U4--IN)*%
X139750000Y-71755000D03*
%TO.P,U5,4,-IN*%
%TO.N,PEAK*%
X139750000Y-69245000D03*
%TO.P,U5,5,EN*%
%TO.N,VCC*%
X138800000Y-69245000D03*
%TO.P,U5,6,V+*%
X137850000Y-69245000D03*
%TD*%
D32*
%TO.P,C6,1*%
%TO.N,GND*%
X133500000Y-63920000D03*
%TO.P,C6,2*%
%TO.N,VCC*%
X133500000Y-65480000D03*
%TD*%
D29*
%TO.P,Q1,1,G*%
%TO.N,RST*%
X140700000Y-62000000D03*
%TO.P,Q1,2,S*%
%TO.N,GND*%
X140700000Y-63900000D03*
%TO.P,Q1,3,D*%
%TO.N,Net-(Q1-D)*%
X142575000Y-62950000D03*
%TD*%
D21*
%TO.P,C12,1*%
%TO.N,Net-(D5-K)*%
X153700000Y-97500000D03*
%TO.P,C12,2*%
%TO.N,GND*%
X155500000Y-97500000D03*
%TD*%
D53*
%TO.P,Q3,1,C*%
%TO.N,Net-(Q3-C)*%
X200975000Y-86725000D03*
%TO.P,Q3,2,B*%
%TO.N,Net-(Q3-B)*%
X199075000Y-86725000D03*
%TO.P,Q3,3,E*%
%TO.N,Net-(Q3-E)*%
X200025000Y-88845000D03*
%TD*%
D26*
%TO.P,C2,1*%
%TO.N,VCC*%
X99200000Y-67500000D03*
%TO.P,C2,2*%
%TO.N,GND*%
X100760000Y-67500000D03*
%TD*%
D13*
%TO.P,R11,1*%
%TO.N,Net-(D3-COM)*%
X143725000Y-69500000D03*
%TO.P,R11,2*%
%TO.N,PEAK*%
X142275000Y-69500000D03*
%TD*%
D54*
%TO.N,*%
X175500000Y-60500000D03*
X175500000Y-110500000D03*
X125500000Y-60500000D03*
X125500000Y-110500000D03*
D55*
%TO.N,unconnected-(U1-VBUS-Pad40)*%
X89500000Y-70000000D03*
D56*
%TO.N,GND*%
X140900000Y-70000000D03*
D55*
X94550000Y-70000000D03*
%TO.N,+5V*%
X92050000Y-70000000D03*
D56*
%TO.N,RST*%
X139000000Y-62000000D03*
%TO.N,VCC*%
X96200000Y-67500000D03*
%TO.N,Net-(C22-Pad2)*%
X206525000Y-88225000D03*
%TD*%
D57*
%TO.N,unconnected-(U1-VBUS-Pad40)*%
X89500000Y-76590000D02*
X89500000Y-70200000D01*
D58*
X89500000Y-70200000D02*
X89700000Y-70000000D01*
%TO.N,GND*%
X156600000Y-106500000D02*
X156600000Y-104500000D01*
X112700000Y-67205000D02*
X113775000Y-67205000D01*
X124245343Y-63600000D02*
X123653052Y-63600000D01*
X156600000Y-107600000D02*
X157500000Y-108500000D01*
X143500000Y-95000000D02*
X143000000Y-94500000D01*
D57*
X101210000Y-67050000D02*
X100760000Y-67500000D01*
D58*
X132700000Y-76570000D02*
X132680000Y-76590000D01*
D57*
X104740000Y-67090000D02*
X104700000Y-67050000D01*
D58*
X149500000Y-74775000D02*
X149500000Y-70540000D01*
X132470000Y-60250000D02*
X131025000Y-60250000D01*
X132700000Y-101900000D02*
X132700000Y-94390000D01*
X132586948Y-70855000D02*
X133345000Y-70855000D01*
X145720000Y-92500000D02*
X142805000Y-92500000D01*
X139450001Y-70500000D02*
X140400000Y-70500000D01*
X130275000Y-61000000D02*
X130000000Y-61000000D01*
X140100000Y-64500000D02*
X140700000Y-63900000D01*
X132586948Y-70855000D02*
X132680000Y-70948052D01*
X123653052Y-63600000D02*
X123453052Y-63400000D01*
X131200000Y-70050000D02*
X131200000Y-70855000D01*
X156160000Y-70540000D02*
X153700000Y-70540000D01*
X131700000Y-70855000D02*
X132586948Y-70855000D01*
X133500000Y-63920000D02*
X133220000Y-63640000D01*
X158200000Y-66400000D02*
X158200000Y-68500000D01*
X138850000Y-64500000D02*
X140100000Y-64500000D01*
D57*
X104740000Y-76590000D02*
X104740000Y-67090000D01*
D58*
X146220000Y-92000000D02*
X145720000Y-92500000D01*
X139000000Y-92000000D02*
X140500000Y-93500000D01*
X138800000Y-71755000D02*
X138800000Y-71150001D01*
X148500000Y-70500000D02*
X148540000Y-70540000D01*
X133220000Y-63640000D02*
X133220000Y-62500000D01*
D57*
X94580000Y-76590000D02*
X94580000Y-70120000D01*
X118370000Y-64950000D02*
X120700000Y-64950000D01*
D58*
X140900000Y-70000000D02*
X140900000Y-68420000D01*
X158200000Y-68500000D02*
X156160000Y-70540000D01*
X156500000Y-98500000D02*
X155500000Y-97500000D01*
D57*
X113775000Y-67205000D02*
X116200000Y-64780000D01*
D58*
X142805000Y-92500000D02*
X141755000Y-93550000D01*
X133805000Y-70395000D02*
X133805000Y-69216198D01*
D57*
X100760000Y-67500000D02*
X100760000Y-65500000D01*
D58*
X148500000Y-68780000D02*
X148500000Y-70500000D01*
X156500000Y-100450000D02*
X156500000Y-98500000D01*
X123453052Y-63400000D02*
X121796948Y-63400000D01*
X94580000Y-70120000D02*
X94700000Y-70000000D01*
X128816198Y-63500000D02*
X129145000Y-63500000D01*
X139980000Y-66000000D02*
X139980000Y-64620000D01*
X140500000Y-93775000D02*
X140725000Y-93550000D01*
X133220000Y-62500000D02*
X133220000Y-61000000D01*
X140500000Y-93500000D02*
X140500000Y-93775000D01*
X160000000Y-107500000D02*
X160000000Y-102000000D01*
X139980000Y-67500000D02*
X139980000Y-66000000D01*
X132700000Y-94390000D02*
X132680000Y-94370000D01*
X119700000Y-65950000D02*
X120700000Y-64950000D01*
X119700000Y-66775000D02*
X119700000Y-65950000D01*
X135345000Y-69300001D02*
X135345000Y-69905000D01*
X157500000Y-108500000D02*
X159000000Y-108500000D01*
X121796948Y-63400000D02*
X120700000Y-64496948D01*
X135044999Y-69000000D02*
X135345000Y-69300001D01*
D57*
X110260000Y-67050000D02*
X101210000Y-67050000D01*
D58*
X132680000Y-94370000D02*
X132680000Y-93320000D01*
X148540000Y-70540000D02*
X149500000Y-70540000D01*
X128816198Y-63500000D02*
X128000000Y-63500000D01*
X149500000Y-70540000D02*
X150500000Y-70540000D01*
X156600000Y-104500000D02*
X154780000Y-104500000D01*
X134000000Y-92000000D02*
X139000000Y-92000000D01*
X132700000Y-109100000D02*
X132700000Y-101900000D01*
X160000000Y-102000000D02*
X158450000Y-100450000D01*
X133805000Y-69216198D02*
X134021198Y-69000000D01*
X131025000Y-60250000D02*
X130275000Y-61000000D01*
X124645343Y-64000000D02*
X124245343Y-63600000D01*
X140400000Y-70500000D02*
X140900000Y-70000000D01*
X134021198Y-69000000D02*
X135044999Y-69000000D01*
X132680000Y-93320000D02*
X134000000Y-92000000D01*
X128000000Y-63500000D02*
X127500000Y-64000000D01*
X129040000Y-61960000D02*
X128456198Y-61960000D01*
X131200000Y-70855000D02*
X132586948Y-70855000D01*
D57*
X118200000Y-64780000D02*
X118370000Y-64950000D01*
D58*
X140900000Y-68420000D02*
X139980000Y-67500000D01*
X143000000Y-94500000D02*
X142255000Y-94500000D01*
X133345000Y-70855000D02*
X133805000Y-70395000D01*
X133220000Y-61000000D02*
X132470000Y-60250000D01*
X133200000Y-76070000D02*
X132680000Y-76590000D01*
X138800000Y-71150001D02*
X139450001Y-70500000D01*
X143500000Y-96220000D02*
X143500000Y-95000000D01*
X120700000Y-64496948D02*
X120700000Y-64950000D01*
X140500000Y-93775000D02*
X142255000Y-93775000D01*
X142720000Y-97000000D02*
X143500000Y-96220000D01*
D57*
X110260000Y-67050000D02*
X112545000Y-67050000D01*
D58*
X132680000Y-70948052D02*
X132680000Y-76590000D01*
X159000000Y-108500000D02*
X160000000Y-107500000D01*
X112545000Y-67050000D02*
X112700000Y-67205000D01*
D57*
X118200000Y-64780000D02*
X116200000Y-64780000D01*
D58*
X128456198Y-61960000D02*
X128240000Y-62176198D01*
X139980000Y-64620000D02*
X140100000Y-64500000D01*
X137530000Y-85480000D02*
X139090000Y-85480000D01*
X156600000Y-106500000D02*
X156600000Y-107600000D01*
X150500000Y-70540000D02*
X153700000Y-70540000D01*
X128240000Y-62923802D02*
X128816198Y-63500000D01*
X154780000Y-105120000D02*
X154780000Y-104500000D01*
X142255000Y-93775000D02*
X142255000Y-94500000D01*
X130000000Y-61000000D02*
X129040000Y-61960000D01*
X153400000Y-106500000D02*
X154780000Y-105120000D01*
X158450000Y-100450000D02*
X156500000Y-100450000D01*
X128240000Y-62176198D02*
X128240000Y-62923802D01*
X127500000Y-64000000D02*
X124645343Y-64000000D01*
%TO.N,+5V*%
X142125000Y-90950000D02*
X146730000Y-90950000D01*
D57*
X92040000Y-76590000D02*
X92040000Y-70160000D01*
D58*
X141000000Y-81500000D02*
X141000000Y-89825000D01*
X146730000Y-90950000D02*
X147780000Y-92000000D01*
X147780000Y-92000000D02*
X150065000Y-92000000D01*
X93200000Y-81000000D02*
X140500000Y-81000000D01*
X92040000Y-79840000D02*
X93200000Y-81000000D01*
X141000000Y-89825000D02*
X142125000Y-90950000D01*
X92040000Y-76590000D02*
X92040000Y-79840000D01*
X92040000Y-70160000D02*
X92200000Y-70000000D01*
X140500000Y-81000000D02*
X141000000Y-81500000D01*
%TO.N,TX*%
X103640000Y-102450000D02*
X104200000Y-102450000D01*
X99660000Y-97910000D02*
X99660000Y-94370000D01*
X104200000Y-102450000D02*
X99660000Y-97910000D01*
%TO.N,SCL*%
X92040000Y-100790000D02*
X92040000Y-94370000D01*
X93700000Y-102450000D02*
X92040000Y-100790000D01*
%TO.N,RX*%
X106200000Y-102450000D02*
X102200000Y-98450000D01*
X102200000Y-98450000D02*
X102200000Y-94370000D01*
%TO.N,RST*%
X139000000Y-62000000D02*
X140700000Y-62000000D01*
%TO.N,UART1RX*%
X112200000Y-102450000D02*
X117440000Y-97210000D01*
X117440000Y-97210000D02*
X117440000Y-94370000D01*
%TO.N,INT*%
X138475000Y-78500000D02*
X132050000Y-78500000D01*
X130200000Y-70100000D02*
X130200000Y-76530000D01*
X130140000Y-75030000D02*
X130140000Y-76590000D01*
X132050000Y-78500000D02*
X130140000Y-76590000D01*
X130395000Y-69905000D02*
X130200000Y-70100000D01*
X130200000Y-76530000D02*
X130140000Y-76590000D01*
X140475000Y-76500000D02*
X138475000Y-78500000D01*
%TO.N,SDA*%
X89500000Y-100250000D02*
X89500000Y-94370000D01*
X91700000Y-102450000D02*
X89500000Y-100250000D01*
%TO.N,Net-(JP1-A)*%
X107280000Y-76590000D02*
X107160000Y-76470000D01*
D57*
X107160000Y-69550000D02*
X106610000Y-69000000D01*
X107160000Y-76470000D02*
X107160000Y-69550000D01*
D58*
%TO.N,TCKR*%
X144000000Y-91900000D02*
X140600000Y-91900000D01*
X115730000Y-91000000D02*
X112360000Y-94370000D01*
X140600000Y-91900000D02*
X139700000Y-91000000D01*
X139700000Y-91000000D02*
X115730000Y-91000000D01*
%TO.N,PEAK*%
X139750000Y-69573802D02*
X139750000Y-69245000D01*
X142300000Y-80000000D02*
X142695000Y-79605000D01*
X142695000Y-73004448D02*
X141237177Y-71546625D01*
X142275000Y-70508802D02*
X142275000Y-69500000D01*
X142695000Y-79605000D02*
X142695000Y-73004448D01*
X137850000Y-71755000D02*
X137850000Y-71038099D01*
X109820000Y-79120000D02*
X110700000Y-80000000D01*
X137850000Y-71755000D02*
X137850000Y-72083802D01*
X137850000Y-72083802D02*
X138426198Y-72660000D01*
X137850000Y-71038099D02*
X138738099Y-70150000D01*
X138738099Y-70150000D02*
X139173802Y-70150000D01*
X138426198Y-72660000D02*
X140123802Y-72660000D01*
X140123802Y-72660000D02*
X142275000Y-70508802D01*
X139173802Y-70150000D02*
X139750000Y-69573802D01*
X109820000Y-76590000D02*
X109820000Y-79120000D01*
X110700000Y-80000000D02*
X142300000Y-80000000D01*
%TO.N,SCK*%
X97120000Y-97370000D02*
X97120000Y-94370000D01*
X102200000Y-102450000D02*
X97120000Y-97370000D01*
%TO.N,UART1TX*%
X110200000Y-102450000D02*
X114900000Y-97750000D01*
X114900000Y-97750000D02*
X114900000Y-94370000D01*
%TO.N,SIG*%
X132550512Y-69905000D02*
X133955512Y-68500000D01*
X113200000Y-73000000D02*
X127200000Y-73000000D01*
X127700000Y-69000000D02*
X127730772Y-68969228D01*
X130050000Y-64823802D02*
X130050000Y-63126198D01*
X129833802Y-65040000D02*
X130050000Y-64823802D01*
X129473802Y-62550000D02*
X129145000Y-62550000D01*
X127761544Y-69000000D02*
X131536948Y-69000000D01*
X129650000Y-62650000D02*
X129550000Y-62550000D01*
X133955512Y-68500000D02*
X135279315Y-68500000D01*
X127200000Y-73000000D02*
X127700000Y-72500000D01*
X127730772Y-68969228D02*
X127761544Y-69000000D01*
X132150000Y-69613052D02*
X132150000Y-69905000D01*
X129550000Y-62550000D02*
X128745000Y-62550000D01*
X132150000Y-69905000D02*
X132550512Y-69905000D01*
X127380000Y-68618456D02*
X127380000Y-66500000D01*
X136295000Y-69515685D02*
X136295000Y-69905000D01*
X112360000Y-76590000D02*
X112360000Y-73840000D01*
X130050000Y-63126198D02*
X129473802Y-62550000D01*
X127730772Y-68969228D02*
X127380000Y-68618456D01*
X127700000Y-72500000D02*
X127700000Y-69000000D01*
X135279315Y-68500000D02*
X136295000Y-69515685D01*
X112360000Y-73840000D02*
X113200000Y-73000000D01*
X131536948Y-69000000D02*
X132150000Y-69613052D01*
X127475000Y-66500000D02*
X128935000Y-65040000D01*
X128935000Y-65040000D02*
X129833802Y-65040000D01*
%TO.N,CS*%
X108200000Y-102450000D02*
X104740000Y-98990000D01*
X104740000Y-98990000D02*
X104740000Y-94370000D01*
%TO.N,VREF*%
X107670000Y-78500000D02*
X108500000Y-77670000D01*
X116405000Y-66595000D02*
X114050000Y-68950000D01*
X118200000Y-66595000D02*
X116405000Y-66595000D01*
X102200000Y-77700000D02*
X103000000Y-78500000D01*
X102200000Y-76590000D02*
X102200000Y-77700000D01*
X108500000Y-70710000D02*
X110260000Y-68950000D01*
X114050000Y-68950000D02*
X110260000Y-68950000D01*
X103000000Y-78500000D02*
X107670000Y-78500000D01*
X108500000Y-77670000D02*
X108500000Y-70710000D01*
D57*
%TO.N,Net-(U1-3V3)*%
X99700000Y-76550000D02*
X99700000Y-70435000D01*
D58*
X99200000Y-76130000D02*
X99660000Y-76590000D01*
X99660000Y-76590000D02*
X99700000Y-76550000D01*
%TO.N,VCC*%
X137850000Y-69245000D02*
X137850000Y-68070000D01*
D57*
X120700000Y-63050000D02*
X121250000Y-62500000D01*
X133000000Y-60000000D02*
X134500000Y-60000000D01*
D58*
X132560000Y-65084999D02*
X132560000Y-63800001D01*
X134780000Y-64220000D02*
X133520000Y-65480000D01*
D57*
X123479720Y-62500000D02*
X123979720Y-63000000D01*
D58*
X132259999Y-63500000D02*
X131655000Y-63500000D01*
D57*
X129000000Y-60709091D02*
X129000000Y-60000000D01*
D58*
X133520000Y-65480000D02*
X132955001Y-65480000D01*
D57*
X145250000Y-61250000D02*
X145275000Y-61275000D01*
D58*
X134780000Y-62500000D02*
X134780000Y-61000000D01*
X132431948Y-68500000D02*
X133536948Y-67395000D01*
D57*
X120700000Y-63050000D02*
X118370000Y-63050000D01*
X112200000Y-64295000D02*
X112700000Y-64795000D01*
X99700000Y-69565000D02*
X99700000Y-68000000D01*
X99200000Y-67500000D02*
X99200000Y-65500000D01*
X112700000Y-64795000D02*
X114275000Y-63220000D01*
X145275000Y-61275000D02*
X145275000Y-63500000D01*
X114275000Y-63220000D02*
X116200000Y-63220000D01*
X129000000Y-60000000D02*
X129500000Y-59500000D01*
D58*
X132955001Y-65480000D02*
X132560000Y-65084999D01*
X134780000Y-60280000D02*
X134500000Y-60000000D01*
X138420000Y-67500000D02*
X138420000Y-66000000D01*
X133536948Y-67395000D02*
X134395000Y-67395000D01*
D57*
X121250000Y-62500000D02*
X123479720Y-62500000D01*
D58*
X131355000Y-68500000D02*
X132431948Y-68500000D01*
X132560000Y-63800001D02*
X132259999Y-63500000D01*
X137850000Y-69245000D02*
X138800000Y-69245000D01*
X134780000Y-61000000D02*
X134780000Y-60280000D01*
D57*
X129500000Y-59500000D02*
X133000000Y-59500000D01*
D58*
X130250000Y-67395000D02*
X132397500Y-65247499D01*
X132397500Y-65247499D02*
X132560000Y-65084999D01*
X131583802Y-63500000D02*
X131255000Y-63500000D01*
D57*
X118200000Y-63220000D02*
X116200000Y-63220000D01*
X145250000Y-61250000D02*
X145250000Y-60250000D01*
D58*
X135345000Y-67999999D02*
X136345001Y-69000000D01*
D57*
X126709091Y-63000000D02*
X129000000Y-60709091D01*
D58*
X135345000Y-67395000D02*
X134395000Y-67395000D01*
X136345001Y-69000000D02*
X137805000Y-69000000D01*
D57*
X100405000Y-64295000D02*
X112200000Y-64295000D01*
X99700000Y-68000000D02*
X99200000Y-67500000D01*
X123979720Y-63000000D02*
X126709091Y-63000000D01*
D58*
X131655000Y-62550000D02*
X131655000Y-63500000D01*
D57*
X133000000Y-59500000D02*
X133000000Y-60000000D01*
X118370000Y-63050000D02*
X118200000Y-63220000D01*
D58*
X131255000Y-62550000D02*
X131450000Y-62550000D01*
X130250000Y-67395000D02*
X131355000Y-68500000D01*
X137850000Y-68070000D02*
X138420000Y-67500000D01*
X135345000Y-67395000D02*
X135345000Y-67999999D01*
D57*
X99200000Y-65500000D02*
X100405000Y-64295000D01*
D58*
X96200000Y-67500000D02*
X99200000Y-67500000D01*
D57*
X145000000Y-60000000D02*
X145250000Y-60250000D01*
D58*
X137805000Y-69000000D02*
X138050000Y-69245000D01*
X134780000Y-62500000D02*
X134780000Y-64220000D01*
D57*
X134500000Y-60000000D02*
X145000000Y-60000000D01*
D58*
%TO.N,Net-(U3-IN-)*%
X132150000Y-67395000D02*
X132295000Y-67395000D01*
X132866250Y-67395000D02*
X132150000Y-67395000D01*
X144000000Y-62996948D02*
X143343604Y-62340552D01*
X143343604Y-62340552D02*
X141737500Y-62340552D01*
X146854314Y-67220000D02*
X144000000Y-64365686D01*
X152920000Y-67220000D02*
X146854314Y-67220000D01*
X144000000Y-64365686D02*
X144000000Y-62996948D01*
X141737500Y-62340552D02*
X141478052Y-62600000D01*
X153700000Y-68000000D02*
X152920000Y-67220000D01*
X141478052Y-62600000D02*
X137661250Y-62600000D01*
X137661250Y-62600000D02*
X132866250Y-67395000D01*
%TO.N,Net-(U4--IN)*%
X141478052Y-63300000D02*
X137900000Y-63300000D01*
X136295000Y-67395000D02*
X136295000Y-66255000D01*
X137900000Y-63300000D02*
X137550000Y-63650000D01*
X136295000Y-66255000D02*
X137550000Y-65000000D01*
X141880000Y-68000000D02*
X141880000Y-63701948D01*
X140245000Y-71755000D02*
X139750000Y-71755000D01*
X137550000Y-63650000D02*
X137550000Y-65000000D01*
X141500000Y-68475000D02*
X141500000Y-70500000D01*
X141975000Y-68000000D02*
X141500000Y-68475000D01*
X141880000Y-63701948D02*
X141478052Y-63300000D01*
X141500000Y-70500000D02*
X140245000Y-71755000D01*
%TO.N,Net-(D1-COM)*%
X128745000Y-64450000D02*
X127825000Y-64450000D01*
X122575000Y-64000000D02*
X123725000Y-64000000D01*
X128955000Y-64450000D02*
X128350001Y-64450000D01*
X127825000Y-64450000D02*
X126000000Y-66275000D01*
X123725000Y-64000000D02*
X126000000Y-66275000D01*
%TO.N,Net-(D2-PadA)*%
X141890000Y-76535000D02*
X141925000Y-76500000D01*
X141890000Y-78000000D02*
X141890000Y-76535000D01*
%TO.N,Net-(D3-A)*%
X137500000Y-73000000D02*
X135200000Y-73000000D01*
X135200000Y-73000000D02*
X134395000Y-72195000D01*
X137937500Y-73437500D02*
X137500000Y-73000000D01*
X134395000Y-72195000D02*
X134395000Y-69905000D01*
X141750000Y-73437500D02*
X137937500Y-73437500D01*
%TO.N,Net-(D3-K)*%
X143650000Y-73437500D02*
X145000000Y-72087500D01*
X145000000Y-67575000D02*
X143425000Y-66000000D01*
X145000000Y-72087500D02*
X145000000Y-67575000D01*
%TO.N,Net-(D3-COM)*%
X143725000Y-70775000D02*
X143725000Y-69500000D01*
X142700000Y-71562500D02*
X142937500Y-71562500D01*
X142937500Y-71562500D02*
X143725000Y-70775000D01*
%TO.N,Net-(D4-K)*%
X144000000Y-90000000D02*
X142596400Y-88596400D01*
X144000000Y-90000000D02*
X146400000Y-90000000D01*
X142596400Y-88596400D02*
X142596400Y-85000000D01*
%TO.N,Net-(Q1-D)*%
X143425000Y-68000000D02*
X142800000Y-67375000D01*
X142800000Y-63175000D02*
X142575000Y-62950000D01*
X142800000Y-67375000D02*
X142800000Y-63175000D01*
%TO.N,Net-(U2--IN)*%
X131326198Y-64450000D02*
X131655000Y-64450000D01*
X131550000Y-64450000D02*
X131655000Y-64450000D01*
X130750000Y-61975000D02*
X130750000Y-63873802D01*
X129500000Y-66500000D02*
X131550000Y-64450000D01*
X130750000Y-63873802D02*
X131326198Y-64450000D01*
X128925000Y-66500000D02*
X129500000Y-66500000D01*
X131725000Y-61000000D02*
X130750000Y-61975000D01*
%TO.N,Net-(R8-Pad2)*%
X147925000Y-65500000D02*
X149425000Y-64000000D01*
%TO.N,Net-(VR1-CCW)*%
X149465000Y-65460000D02*
X153700000Y-65460000D01*
X149425000Y-65500000D02*
X149465000Y-65460000D01*
%TO.N,VREF1*%
X147225000Y-64000000D02*
X146725000Y-63500000D01*
X155200000Y-62500000D02*
X157200000Y-64500000D01*
X157200000Y-64500000D02*
X158200000Y-64500000D01*
X147975000Y-64000000D02*
X147225000Y-64000000D01*
X147975000Y-62525000D02*
X148000000Y-62500000D01*
X148000000Y-62500000D02*
X155200000Y-62500000D01*
X147975000Y-64000000D02*
X147975000Y-62525000D01*
%TO.N,Net-(U1-GPIO14)*%
X135700000Y-94850000D02*
X135220000Y-94370000D01*
X135700000Y-101900000D02*
X135700000Y-94850000D01*
X135700000Y-109100000D02*
X135700000Y-101900000D01*
%TO.N,IND*%
X149403600Y-76321400D02*
X149500000Y-76225000D01*
X148600000Y-88400000D02*
X149403600Y-87596400D01*
X149403600Y-87596400D02*
X149403600Y-85000000D01*
X148600000Y-90000000D02*
X148600000Y-88400000D01*
X149403600Y-85000000D02*
X149403600Y-76321400D01*
X144275000Y-78765000D02*
X149403600Y-78765000D01*
X143510000Y-78000000D02*
X144275000Y-78765000D01*
X149903600Y-76628600D02*
X149500000Y-76225000D01*
%TO.N,ANODE_IN*%
X123700000Y-68000000D02*
X123655000Y-68045000D01*
X123525000Y-67725000D02*
X126000000Y-67725000D01*
X123250000Y-68000000D02*
X123525000Y-67725000D01*
X123655000Y-68045000D02*
X116500000Y-68045000D01*
%TO.N,Net-(U8-FB)*%
X141955000Y-95750000D02*
X142255000Y-95450000D01*
X141955000Y-102955000D02*
X142000000Y-103000000D01*
X142030000Y-95225000D02*
X142255000Y-95450000D01*
X142000000Y-103000000D02*
X144540000Y-103000000D01*
X141985000Y-97765000D02*
X141955000Y-97735000D01*
X141955000Y-97500000D02*
X141955000Y-102955000D01*
X141955000Y-97500000D02*
X141955000Y-95750000D01*
X141955000Y-97735000D02*
X141955000Y-97500000D01*
X140500000Y-95225000D02*
X142030000Y-95225000D01*
%TO.N,Net-(D5-A)*%
X150935000Y-92000000D02*
X150935000Y-97565000D01*
X148000000Y-93550000D02*
X149750000Y-93550000D01*
X144280000Y-95915000D02*
X144745000Y-95450000D01*
X145680000Y-98400000D02*
X144280000Y-97000000D01*
X150935000Y-97565000D02*
X150100000Y-98400000D01*
X144745000Y-95450000D02*
X145050000Y-95450000D01*
X149800000Y-93500000D02*
X149600000Y-93500000D01*
X150100000Y-98400000D02*
X145680000Y-98400000D01*
X144745000Y-94500000D02*
X144745000Y-93550000D01*
X148000000Y-95600000D02*
X148000000Y-93550000D01*
X144745000Y-95435000D02*
X144745000Y-94500000D01*
X144280000Y-97000000D02*
X144280000Y-95915000D01*
X144745000Y-93550000D02*
X144945000Y-93350000D01*
X144745000Y-93550000D02*
X148000000Y-93550000D01*
X149750000Y-93550000D02*
X149800000Y-93500000D01*
X144245000Y-93550000D02*
X145045552Y-93550000D01*
X144730000Y-95450000D02*
X144745000Y-95435000D01*
%TO.N,Net-(D5-K)*%
X152225000Y-100500000D02*
X152225000Y-98975000D01*
X153700000Y-95200000D02*
X152000000Y-93500000D01*
X151725000Y-102210000D02*
X151725000Y-101000000D01*
X152225000Y-98975000D02*
X153700000Y-97500000D01*
X153700000Y-97500000D02*
X153700000Y-95200000D01*
X150935000Y-103000000D02*
X151725000Y-102210000D01*
X151725000Y-101000000D02*
X152225000Y-100500000D01*
%TO.N,Net-(C13-Pad1)*%
X151600000Y-106500000D02*
X150275000Y-105175000D01*
X150065000Y-104290000D02*
X150275000Y-104500000D01*
X150065000Y-103000000D02*
X150065000Y-104290000D01*
X150275000Y-105175000D02*
X150275000Y-104500000D01*
%TO.N,Net-(VR2-CW)*%
X147080000Y-103000000D02*
X149080000Y-101000000D01*
X149080000Y-101000000D02*
X150275000Y-101000000D01*
%TO.N,PS_OUT*%
X154500000Y-101975000D02*
X154500000Y-100450000D01*
X153220000Y-104500000D02*
X153220000Y-102780000D01*
X158400000Y-102900000D02*
X157475000Y-101975000D01*
X158400000Y-106500000D02*
X158400000Y-104500000D01*
X158400000Y-104500000D02*
X158400000Y-102900000D01*
X153220000Y-102780000D02*
X154025000Y-101975000D01*
X154025000Y-101975000D02*
X154500000Y-101975000D01*
X157475000Y-101975000D02*
X154500000Y-101975000D01*
X151725000Y-104500000D02*
X153220000Y-104500000D01*
%TO.N,PS_IN*%
X202965000Y-81775000D02*
X204025000Y-80715000D01*
X201690000Y-80500000D02*
X202965000Y-81775000D01*
X204025000Y-80715000D02*
X204025000Y-78275000D01*
X195650000Y-82000000D02*
X195425000Y-82225000D01*
X194975000Y-82675000D02*
X194975000Y-84470000D01*
X199025000Y-82000000D02*
X195650000Y-82000000D01*
X200525000Y-80500000D02*
X201690000Y-80500000D01*
X195425000Y-82225000D02*
X194975000Y-82675000D01*
X199025000Y-82000000D02*
X200525000Y-80500000D01*
%TO.N,GND1*%
X196529000Y-76221000D02*
X201021000Y-76221000D01*
X201021000Y-76221000D02*
X202025000Y-77225000D01*
X204525000Y-91225000D02*
X204525000Y-89785000D01*
X194475000Y-78275000D02*
X195525000Y-78275000D01*
X193625000Y-82225000D02*
X193625000Y-79125000D01*
X196125000Y-85725000D02*
X197025000Y-84825000D01*
X193075000Y-84470000D02*
X193075000Y-82775000D01*
X199525000Y-91725000D02*
X204025000Y-91725000D01*
X193750000Y-89950000D02*
X197025000Y-89950000D01*
X197250000Y-89950000D02*
X198025000Y-90725000D01*
X195525000Y-77225000D02*
X196529000Y-76221000D01*
X198025000Y-90725000D02*
X199025000Y-90725000D01*
X193075000Y-89275000D02*
X193750000Y-89950000D01*
X197025000Y-89950000D02*
X197250000Y-89950000D01*
X193075000Y-85725000D02*
X196125000Y-85725000D01*
X193075000Y-85725000D02*
X193075000Y-86980000D01*
X199025000Y-91225000D02*
X199525000Y-91725000D01*
X196425000Y-84420000D02*
X196475000Y-84470000D01*
X204025000Y-91725000D02*
X204525000Y-91225000D01*
X193075000Y-84470000D02*
X193075000Y-85725000D01*
X193075000Y-82775000D02*
X193625000Y-82225000D01*
X193625000Y-79125000D02*
X194475000Y-78275000D01*
X195525000Y-78275000D02*
X195525000Y-77225000D01*
X204525000Y-89785000D02*
X206525000Y-89785000D01*
X193075000Y-86980000D02*
X193075000Y-89275000D01*
X202025000Y-77225000D02*
X202025000Y-78275000D01*
%TO.N,Net-(Q4-E)*%
X202800000Y-86450000D02*
X205085000Y-84165000D01*
X200585000Y-90725000D02*
X201085000Y-90725000D01*
X205085000Y-84165000D02*
X205085000Y-82725000D01*
X202800000Y-89010000D02*
X202800000Y-86725000D01*
X201085000Y-90725000D02*
X202800000Y-89010000D01*
X202800000Y-86725000D02*
X202800000Y-86450000D01*
%TO.N,Net-(C21-Pad2)*%
X204912500Y-86725000D02*
X206137500Y-85500000D01*
X206137500Y-85500000D02*
X206525000Y-85500000D01*
X204525000Y-87000000D02*
X204250000Y-86725000D01*
X204250000Y-86725000D02*
X204912500Y-86725000D01*
X204525000Y-88225000D02*
X204525000Y-87000000D01*
%TO.N,Net-(C22-Pad2)*%
X206525000Y-88225000D02*
X206525000Y-86950000D01*
%TO.N,Net-(Q3-E)*%
X197025000Y-88500000D02*
X197370000Y-88845000D01*
X197370000Y-88845000D02*
X200025000Y-88845000D01*
%TO.N,Net-(Q3-B)*%
X195330000Y-86625000D02*
X197025000Y-86625000D01*
X197025000Y-86625000D02*
X198975000Y-86625000D01*
X194975000Y-86980000D02*
X195330000Y-86625000D01*
X198975000Y-86625000D02*
X199075000Y-86725000D01*
%TO.N,Net-(Q3-C)*%
X200975000Y-86725000D02*
X200975000Y-87165000D01*
X201025000Y-84950000D02*
X201025000Y-86675000D01*
X201025000Y-86675000D02*
X200975000Y-86725000D01*
%TO.N,Net-(Q4-B)*%
X201025000Y-83500000D02*
X202790000Y-83500000D01*
X201025000Y-81950000D02*
X201025000Y-83500000D01*
X199025000Y-83450000D02*
X200975000Y-83450000D01*
X202790000Y-83500000D02*
X202965000Y-83675000D01*
X200975000Y-83450000D02*
X201025000Y-83500000D01*
%TD*%
%TA.AperFunction,Conductor*%
%TO.N,GND1*%
G36*
X200686726Y-73245494D02*
G01*
X200694158Y-73245943D01*
X201349750Y-73305518D01*
X201357183Y-73306420D01*
X202007956Y-73405466D01*
X202015317Y-73406815D01*
X202658923Y-73544973D01*
X202666176Y-73546760D01*
X203300304Y-73723537D01*
X203307431Y-73725758D01*
X203929696Y-73940488D01*
X203936680Y-73943137D01*
X204544862Y-74195054D01*
X204551670Y-74198118D01*
X205143520Y-74486292D01*
X205150137Y-74489765D01*
X205723501Y-74813142D01*
X205729910Y-74817017D01*
X206282708Y-75174426D01*
X206288853Y-75178667D01*
X206819066Y-75568806D01*
X206824961Y-75573424D01*
X207330660Y-75994871D01*
X207336243Y-75999817D01*
X207530381Y-76182567D01*
X207815557Y-76451016D01*
X207820853Y-76456312D01*
X208106443Y-76759697D01*
X208272050Y-76935624D01*
X208277000Y-76941211D01*
X208431759Y-77126908D01*
X208698444Y-77446907D01*
X208703063Y-77452803D01*
X209093197Y-77983009D01*
X209097443Y-77989161D01*
X209454852Y-78541959D01*
X209458727Y-78548368D01*
X209782096Y-79121716D01*
X209785577Y-79128349D01*
X210073746Y-79720188D01*
X210076820Y-79727018D01*
X210328728Y-80335179D01*
X210331384Y-80342183D01*
X210546107Y-80964426D01*
X210548336Y-80971577D01*
X210725106Y-81605683D01*
X210726898Y-81612956D01*
X210865053Y-82256549D01*
X210866403Y-82263916D01*
X210965448Y-82914684D01*
X210966351Y-82922120D01*
X211025924Y-83577688D01*
X211026376Y-83585165D01*
X211046257Y-84243125D01*
X211046257Y-84250615D01*
X211026376Y-84908574D01*
X211025924Y-84916051D01*
X210966351Y-85571619D01*
X210965448Y-85579055D01*
X210866403Y-86229823D01*
X210865053Y-86237190D01*
X210726898Y-86880783D01*
X210725106Y-86888056D01*
X210548336Y-87522162D01*
X210546107Y-87529313D01*
X210331384Y-88151556D01*
X210328728Y-88158560D01*
X210076820Y-88766721D01*
X210073746Y-88773551D01*
X209785577Y-89365390D01*
X209782096Y-89372023D01*
X209458727Y-89945371D01*
X209454852Y-89951780D01*
X209097443Y-90504578D01*
X209093188Y-90510743D01*
X208703063Y-91040936D01*
X208698444Y-91046832D01*
X208277009Y-91552518D01*
X208272041Y-91558125D01*
X207820853Y-92037427D01*
X207815557Y-92042723D01*
X207336255Y-92493911D01*
X207330648Y-92498879D01*
X206824962Y-92920314D01*
X206819066Y-92924933D01*
X206288873Y-93315058D01*
X206282708Y-93319313D01*
X205729910Y-93676722D01*
X205723501Y-93680597D01*
X205150153Y-94003966D01*
X205143520Y-94007447D01*
X204551681Y-94295616D01*
X204544851Y-94298690D01*
X203936690Y-94550598D01*
X203929686Y-94553254D01*
X203307443Y-94767977D01*
X203300292Y-94770206D01*
X202666186Y-94946976D01*
X202658913Y-94948768D01*
X202015320Y-95086923D01*
X202007953Y-95088273D01*
X201357185Y-95187318D01*
X201349749Y-95188221D01*
X200694181Y-95247794D01*
X200686704Y-95248246D01*
X200028745Y-95268127D01*
X200021255Y-95268127D01*
X199363295Y-95248246D01*
X199355818Y-95247794D01*
X198700250Y-95188221D01*
X198692814Y-95187318D01*
X198042046Y-95088273D01*
X198034679Y-95086923D01*
X197391086Y-94948768D01*
X197383813Y-94946976D01*
X196749707Y-94770206D01*
X196742556Y-94767977D01*
X196120313Y-94553254D01*
X196113309Y-94550598D01*
X195505148Y-94298690D01*
X195498318Y-94295616D01*
X194906479Y-94007447D01*
X194899846Y-94003966D01*
X194326498Y-93680597D01*
X194320089Y-93676722D01*
X193767291Y-93319313D01*
X193761139Y-93315067D01*
X193230933Y-92924933D01*
X193225037Y-92920314D01*
X193101634Y-92817471D01*
X192719341Y-92498870D01*
X192713754Y-92493920D01*
X192537827Y-92328313D01*
X192234442Y-92042723D01*
X192229146Y-92037427D01*
X191960697Y-91752251D01*
X191777947Y-91558113D01*
X191773001Y-91552530D01*
X191351554Y-91046831D01*
X191346936Y-91040936D01*
X191132350Y-90749306D01*
X190956797Y-90510723D01*
X190952556Y-90504578D01*
X190595147Y-89951780D01*
X190591272Y-89945371D01*
X190267895Y-89372007D01*
X190264422Y-89365390D01*
X190241878Y-89319089D01*
X189976248Y-88773540D01*
X189973179Y-88766721D01*
X189923721Y-88647319D01*
X189721267Y-88158550D01*
X189718615Y-88151556D01*
X189711308Y-88130381D01*
X189503888Y-87529301D01*
X189501663Y-87522162D01*
X189500833Y-87519186D01*
X189324890Y-86888046D01*
X189323101Y-86880783D01*
X189245121Y-86517516D01*
X189184945Y-86237187D01*
X189183596Y-86229823D01*
X189173817Y-86165574D01*
X189084550Y-85579053D01*
X189083648Y-85571619D01*
X189082658Y-85560720D01*
X189024073Y-84916028D01*
X189023624Y-84908596D01*
X189003742Y-84250609D01*
X189003742Y-84243125D01*
X189005340Y-84190233D01*
X189014077Y-83901105D01*
X193229500Y-83901105D01*
X193229500Y-85038888D01*
X193244279Y-85151151D01*
X193244282Y-85151162D01*
X193302142Y-85290850D01*
X193302143Y-85290852D01*
X193302144Y-85290853D01*
X193394190Y-85410810D01*
X193514147Y-85502856D01*
X193514148Y-85502856D01*
X193514149Y-85502857D01*
X193549093Y-85517331D01*
X193653841Y-85560719D01*
X193766113Y-85575500D01*
X194283886Y-85575499D01*
X194396159Y-85560719D01*
X194452547Y-85537361D01*
X194522013Y-85529892D01*
X194547453Y-85537362D01*
X194603836Y-85560717D01*
X194603839Y-85560718D01*
X194603841Y-85560719D01*
X194716113Y-85575500D01*
X195233886Y-85575499D01*
X195233888Y-85575499D01*
X195346151Y-85560720D01*
X195346150Y-85560720D01*
X195346159Y-85560719D01*
X195485853Y-85502856D01*
X195605810Y-85410810D01*
X195697856Y-85290853D01*
X195755719Y-85151159D01*
X195770500Y-85038887D01*
X195770499Y-83901114D01*
X195768046Y-83882483D01*
X195755720Y-83788848D01*
X195755719Y-83788847D01*
X195755719Y-83788841D01*
X195697856Y-83649147D01*
X195697856Y-83649146D01*
X195693792Y-83642107D01*
X195695151Y-83641322D01*
X195673305Y-83584820D01*
X195687341Y-83516375D01*
X195736154Y-83466384D01*
X195796875Y-83450499D01*
X196047871Y-83450499D01*
X196047872Y-83450499D01*
X196107483Y-83444091D01*
X196242331Y-83393796D01*
X196357546Y-83307546D01*
X196443796Y-83192331D01*
X196494091Y-83057483D01*
X196500500Y-82997873D01*
X196500500Y-82724500D01*
X196520185Y-82657461D01*
X196572989Y-82611706D01*
X196624500Y-82600500D01*
X198093965Y-82600500D01*
X198161004Y-82620185D01*
X198193260Y-82650227D01*
X198193634Y-82650727D01*
X198218026Y-82716201D01*
X198203149Y-82784468D01*
X198193606Y-82799311D01*
X198131203Y-82882669D01*
X198131202Y-82882671D01*
X198080910Y-83017513D01*
X198080909Y-83017517D01*
X198074500Y-83077127D01*
X198074500Y-83077134D01*
X198074500Y-83077135D01*
X198074500Y-83822870D01*
X198074501Y-83822876D01*
X198080908Y-83882483D01*
X198131202Y-84017328D01*
X198131206Y-84017335D01*
X198217452Y-84132544D01*
X198217455Y-84132547D01*
X198332664Y-84218793D01*
X198332671Y-84218797D01*
X198467517Y-84269091D01*
X198467516Y-84269091D01*
X198474444Y-84269835D01*
X198527127Y-84275500D01*
X199522872Y-84275499D01*
X199582483Y-84269091D01*
X199717331Y-84218796D01*
X199832546Y-84132546D01*
X199856768Y-84100190D01*
X199912701Y-84058318D01*
X199956035Y-84050500D01*
X200056535Y-84050500D01*
X200123574Y-84070185D01*
X200155800Y-84100187D01*
X200193605Y-84150688D01*
X200218023Y-84216151D01*
X200203172Y-84284425D01*
X200193606Y-84299310D01*
X200131204Y-84382668D01*
X200131202Y-84382671D01*
X200080910Y-84517513D01*
X200080909Y-84517517D01*
X200074500Y-84577127D01*
X200074500Y-84577134D01*
X200074500Y-84577135D01*
X200074500Y-85322870D01*
X200074501Y-85322876D01*
X200080908Y-85382483D01*
X200131202Y-85517328D01*
X200131206Y-85517335D01*
X200197733Y-85606202D01*
X200217454Y-85632546D01*
X200263757Y-85667208D01*
X200305627Y-85723141D01*
X200310611Y-85792833D01*
X200287822Y-85841959D01*
X200247301Y-85894767D01*
X200247300Y-85894769D01*
X200189313Y-86034763D01*
X200189313Y-86034764D01*
X200174500Y-86147272D01*
X200174500Y-87302727D01*
X200189313Y-87415235D01*
X200189314Y-87415239D01*
X200248467Y-87558048D01*
X200255936Y-87627517D01*
X200224661Y-87689996D01*
X200164572Y-87725648D01*
X200133906Y-87729500D01*
X199916094Y-87729500D01*
X199849055Y-87709815D01*
X199803300Y-87657011D01*
X199793356Y-87587853D01*
X199801533Y-87558048D01*
X199835586Y-87475834D01*
X199860687Y-87415236D01*
X199875500Y-87302720D01*
X199875500Y-86147280D01*
X199860687Y-86034764D01*
X199802698Y-85894767D01*
X199710451Y-85774549D01*
X199590233Y-85682302D01*
X199590229Y-85682300D01*
X199470853Y-85632853D01*
X199450236Y-85624313D01*
X199436171Y-85622461D01*
X199337727Y-85609500D01*
X199337720Y-85609500D01*
X198812280Y-85609500D01*
X198812272Y-85609500D01*
X198699764Y-85624313D01*
X198699763Y-85624313D01*
X198559770Y-85682300D01*
X198559767Y-85682301D01*
X198559767Y-85682302D01*
X198439845Y-85774322D01*
X198439548Y-85774550D01*
X198401339Y-85824345D01*
X198344911Y-85865547D01*
X198275165Y-85869701D01*
X198214245Y-85835488D01*
X198194131Y-85808282D01*
X198193794Y-85807665D01*
X198107547Y-85692455D01*
X198107544Y-85692452D01*
X197992335Y-85606206D01*
X197992328Y-85606202D01*
X197857482Y-85555908D01*
X197857483Y-85555908D01*
X197797883Y-85549501D01*
X197797881Y-85549500D01*
X197797873Y-85549500D01*
X197797864Y-85549500D01*
X196252129Y-85549500D01*
X196252123Y-85549501D01*
X196192516Y-85555908D01*
X196057671Y-85606202D01*
X196057664Y-85606206D01*
X195942455Y-85692452D01*
X195942452Y-85692455D01*
X195856206Y-85807664D01*
X195856202Y-85807671D01*
X195805418Y-85943833D01*
X195763547Y-85999767D01*
X195698083Y-86024184D01*
X195689236Y-86024500D01*
X195628758Y-86024500D01*
X195561719Y-86004815D01*
X195553272Y-85998876D01*
X195485852Y-85947143D01*
X195485853Y-85947143D01*
X195346162Y-85889282D01*
X195346160Y-85889281D01*
X195346159Y-85889281D01*
X195233887Y-85874500D01*
X194716111Y-85874500D01*
X194603848Y-85889279D01*
X194603837Y-85889282D01*
X194464149Y-85947142D01*
X194344190Y-86039190D01*
X194252142Y-86159149D01*
X194194282Y-86298837D01*
X194194281Y-86298841D01*
X194179500Y-86411105D01*
X194179500Y-87548888D01*
X194194279Y-87661151D01*
X194194282Y-87661162D01*
X194252142Y-87800850D01*
X194252143Y-87800852D01*
X194252144Y-87800853D01*
X194344190Y-87920810D01*
X194464147Y-88012856D01*
X194464148Y-88012856D01*
X194464149Y-88012857D01*
X194510711Y-88032143D01*
X194603841Y-88070719D01*
X194716113Y-88085500D01*
X195233886Y-88085499D01*
X195233888Y-88085499D01*
X195346151Y-88070720D01*
X195346150Y-88070720D01*
X195346159Y-88070719D01*
X195485853Y-88012856D01*
X195605810Y-87920810D01*
X195697856Y-87800853D01*
X195755719Y-87661159D01*
X195757236Y-87649634D01*
X195785502Y-87585738D01*
X195843826Y-87547266D01*
X195913691Y-87546434D01*
X195954483Y-87566551D01*
X196046380Y-87635345D01*
X196057668Y-87643795D01*
X196057671Y-87643797D01*
X196129000Y-87670401D01*
X196184934Y-87712272D01*
X196209351Y-87777736D01*
X196194500Y-87846009D01*
X196184934Y-87860893D01*
X196131206Y-87932665D01*
X196131202Y-87932671D01*
X196100583Y-88014767D01*
X196080909Y-88067517D01*
X196074500Y-88127127D01*
X196074500Y-88127135D01*
X196074500Y-88127136D01*
X196074500Y-88872870D01*
X196074501Y-88872876D01*
X196080908Y-88932483D01*
X196131202Y-89067328D01*
X196131206Y-89067335D01*
X196217452Y-89182544D01*
X196217455Y-89182547D01*
X196332664Y-89268793D01*
X196332671Y-89268797D01*
X196377618Y-89285561D01*
X196467517Y-89319091D01*
X196527127Y-89325500D01*
X196968022Y-89325499D01*
X197030021Y-89342112D01*
X197138209Y-89404573D01*
X197138216Y-89404577D01*
X197290943Y-89445501D01*
X197290945Y-89445501D01*
X197456654Y-89445501D01*
X197456670Y-89445500D01*
X199120120Y-89445500D01*
X199187159Y-89465185D01*
X199232914Y-89517989D01*
X199237811Y-89531610D01*
X199261188Y-89588048D01*
X199297302Y-89675233D01*
X199389549Y-89795451D01*
X199509767Y-89887698D01*
X199509770Y-89887699D01*
X199509771Y-89887700D01*
X199639325Y-89941363D01*
X199693729Y-89985204D01*
X199715794Y-90051498D01*
X199698609Y-90119038D01*
X199695165Y-90124861D01*
X199695162Y-90124869D01*
X199652218Y-90272680D01*
X199652217Y-90272686D01*
X199649500Y-90307215D01*
X199649500Y-91142764D01*
X199649501Y-91142789D01*
X199652218Y-91177315D01*
X199695162Y-91325130D01*
X199695163Y-91325133D01*
X199773519Y-91457627D01*
X199773526Y-91457636D01*
X199882363Y-91566473D01*
X199882367Y-91566476D01*
X199882369Y-91566478D01*
X200014865Y-91644836D01*
X200053847Y-91656161D01*
X200162680Y-91687781D01*
X200162683Y-91687781D01*
X200162685Y-91687782D01*
X200197223Y-91690500D01*
X200972776Y-91690499D01*
X201007315Y-91687782D01*
X201155135Y-91644836D01*
X201287631Y-91566478D01*
X201396478Y-91457631D01*
X201474836Y-91325135D01*
X201517782Y-91177315D01*
X201517782Y-91177310D01*
X201518846Y-91171490D01*
X201550256Y-91109079D01*
X201553149Y-91106087D01*
X201575722Y-91083514D01*
X201575729Y-91083504D01*
X203158506Y-89500728D01*
X203158511Y-89500724D01*
X203168714Y-89490520D01*
X203168716Y-89490520D01*
X203280520Y-89378716D01*
X203343982Y-89268796D01*
X203359577Y-89241785D01*
X203400500Y-89089058D01*
X203400500Y-88930943D01*
X203400500Y-88902334D01*
X203420185Y-88835295D01*
X203472989Y-88789540D01*
X203542147Y-88779596D01*
X203605703Y-88808621D01*
X203631230Y-88839211D01*
X203651138Y-88872872D01*
X203683520Y-88927628D01*
X203683526Y-88927636D01*
X203792363Y-89036473D01*
X203792367Y-89036476D01*
X203792369Y-89036478D01*
X203924865Y-89114836D01*
X203963847Y-89126161D01*
X204072680Y-89157781D01*
X204072683Y-89157781D01*
X204072685Y-89157782D01*
X204107223Y-89160500D01*
X204942776Y-89160499D01*
X204977315Y-89157782D01*
X205125135Y-89114836D01*
X205257631Y-89036478D01*
X205366478Y-88927631D01*
X205418268Y-88840059D01*
X205469337Y-88792375D01*
X205538078Y-88779871D01*
X205602668Y-88806516D01*
X205631732Y-88840059D01*
X205683517Y-88927624D01*
X205683526Y-88927636D01*
X205792363Y-89036473D01*
X205792367Y-89036476D01*
X205792369Y-89036478D01*
X205924865Y-89114836D01*
X205963847Y-89126161D01*
X206072680Y-89157781D01*
X206072683Y-89157781D01*
X206072685Y-89157782D01*
X206107223Y-89160500D01*
X206942776Y-89160499D01*
X206977315Y-89157782D01*
X207125135Y-89114836D01*
X207257631Y-89036478D01*
X207366478Y-88927631D01*
X207444836Y-88795135D01*
X207487782Y-88647315D01*
X207490500Y-88612777D01*
X207490499Y-87837224D01*
X207487782Y-87802685D01*
X207444836Y-87654865D01*
X207427553Y-87625641D01*
X207410370Y-87557917D01*
X207418103Y-87519186D01*
X207418793Y-87517333D01*
X207418796Y-87517331D01*
X207469091Y-87382483D01*
X207475500Y-87322873D01*
X207475499Y-86577128D01*
X207469091Y-86517517D01*
X207418796Y-86382669D01*
X207356393Y-86299310D01*
X207331977Y-86233847D01*
X207346828Y-86165574D01*
X207356394Y-86150689D01*
X207418796Y-86067331D01*
X207469091Y-85932483D01*
X207475500Y-85872873D01*
X207475499Y-85127128D01*
X207469091Y-85067517D01*
X207458415Y-85038894D01*
X207418797Y-84932671D01*
X207418793Y-84932664D01*
X207332547Y-84817455D01*
X207332544Y-84817452D01*
X207217335Y-84731206D01*
X207217328Y-84731202D01*
X207082482Y-84680908D01*
X207082483Y-84680908D01*
X207022883Y-84674501D01*
X207022881Y-84674500D01*
X207022873Y-84674500D01*
X207022864Y-84674500D01*
X206027129Y-84674500D01*
X206027123Y-84674501D01*
X205967516Y-84680908D01*
X205832671Y-84731202D01*
X205832664Y-84731206D01*
X205717455Y-84817452D01*
X205717452Y-84817455D01*
X205631206Y-84932664D01*
X205631202Y-84932671D01*
X205580908Y-85067517D01*
X205574501Y-85127116D01*
X205574501Y-85127123D01*
X205574500Y-85127135D01*
X205574500Y-85162402D01*
X205554815Y-85229441D01*
X205538181Y-85250083D01*
X204973216Y-85815047D01*
X204911893Y-85848532D01*
X204842201Y-85843548D01*
X204825635Y-85834498D01*
X204825114Y-85835454D01*
X204817328Y-85831202D01*
X204682482Y-85780908D01*
X204682483Y-85780908D01*
X204622883Y-85774501D01*
X204622881Y-85774500D01*
X204622873Y-85774500D01*
X204622864Y-85774500D01*
X204619548Y-85774322D01*
X204619609Y-85773182D01*
X204557057Y-85754815D01*
X204511302Y-85702011D01*
X204501358Y-85632853D01*
X204530383Y-85569297D01*
X204536415Y-85562819D01*
X204972118Y-85127116D01*
X205443506Y-84655728D01*
X205443511Y-84655724D01*
X205453714Y-84645520D01*
X205453716Y-84645520D01*
X205565520Y-84533716D01*
X205641163Y-84402698D01*
X205644577Y-84396785D01*
X205685501Y-84244057D01*
X205685501Y-84085943D01*
X205685501Y-84078348D01*
X205685500Y-84078330D01*
X205685500Y-83629880D01*
X205705185Y-83562841D01*
X205757989Y-83517086D01*
X205771610Y-83512188D01*
X205775232Y-83510687D01*
X205775236Y-83510687D01*
X205915233Y-83452698D01*
X206035451Y-83360451D01*
X206127698Y-83240233D01*
X206185687Y-83100236D01*
X206200500Y-82987720D01*
X206200500Y-82462280D01*
X206185687Y-82349764D01*
X206127698Y-82209767D01*
X206035451Y-82089549D01*
X205915233Y-81997302D01*
X205915229Y-81997300D01*
X205851801Y-81971027D01*
X205775236Y-81939313D01*
X205761171Y-81937461D01*
X205662727Y-81924500D01*
X205662720Y-81924500D01*
X204507280Y-81924500D01*
X204507272Y-81924500D01*
X204394764Y-81939313D01*
X204394760Y-81939314D01*
X204251952Y-81998467D01*
X204182483Y-82005936D01*
X204120004Y-81974661D01*
X204084352Y-81914572D01*
X204080500Y-81883906D01*
X204080500Y-81560096D01*
X204100185Y-81493057D01*
X204116819Y-81472415D01*
X204239424Y-81349810D01*
X204383506Y-81205728D01*
X204383511Y-81205724D01*
X204393714Y-81195520D01*
X204393716Y-81195520D01*
X204505520Y-81083716D01*
X204584577Y-80946784D01*
X204625500Y-80794057D01*
X204625500Y-79551781D01*
X204645185Y-79484742D01*
X204697989Y-79438987D01*
X204736245Y-79428491D01*
X204786483Y-79423091D01*
X204921331Y-79372796D01*
X205036546Y-79286546D01*
X205122796Y-79171331D01*
X205173091Y-79036483D01*
X205179500Y-78976873D01*
X205179499Y-77573128D01*
X205173091Y-77513517D01*
X205122796Y-77378669D01*
X205122795Y-77378668D01*
X205122793Y-77378664D01*
X205036547Y-77263455D01*
X205036544Y-77263452D01*
X204921335Y-77177206D01*
X204921328Y-77177202D01*
X204786482Y-77126908D01*
X204786483Y-77126908D01*
X204726883Y-77120501D01*
X204726881Y-77120500D01*
X204726873Y-77120500D01*
X204726864Y-77120500D01*
X203323129Y-77120500D01*
X203323123Y-77120501D01*
X203263516Y-77126908D01*
X203128671Y-77177202D01*
X203128664Y-77177206D01*
X203013455Y-77263452D01*
X203013452Y-77263455D01*
X202927206Y-77378664D01*
X202927202Y-77378671D01*
X202876908Y-77513517D01*
X202870501Y-77573116D01*
X202870501Y-77573123D01*
X202870500Y-77573135D01*
X202870500Y-78976870D01*
X202870501Y-78976876D01*
X202876908Y-79036483D01*
X202927202Y-79171328D01*
X202927206Y-79171335D01*
X203013452Y-79286544D01*
X203013455Y-79286547D01*
X203128664Y-79372793D01*
X203128671Y-79372797D01*
X203263517Y-79423091D01*
X203263516Y-79423091D01*
X203313756Y-79428493D01*
X203378307Y-79455231D01*
X203418155Y-79512624D01*
X203424500Y-79551782D01*
X203424500Y-80414903D01*
X203404815Y-80481942D01*
X203388181Y-80502584D01*
X203052681Y-80838084D01*
X202991358Y-80871569D01*
X202921666Y-80866585D01*
X202877319Y-80838084D01*
X202177590Y-80138355D01*
X202177588Y-80138352D01*
X202058717Y-80019481D01*
X202058716Y-80019480D01*
X201971904Y-79969360D01*
X201971904Y-79969359D01*
X201971902Y-79969359D01*
X201948764Y-79956000D01*
X201911505Y-79922930D01*
X201832546Y-79817454D01*
X201832544Y-79817452D01*
X201832543Y-79817451D01*
X201717335Y-79731206D01*
X201717328Y-79731202D01*
X201582482Y-79680908D01*
X201582483Y-79680908D01*
X201522883Y-79674501D01*
X201522881Y-79674500D01*
X201522873Y-79674500D01*
X201522864Y-79674500D01*
X200527129Y-79674500D01*
X200527123Y-79674501D01*
X200467516Y-79680908D01*
X200332671Y-79731202D01*
X200332664Y-79731206D01*
X200217455Y-79817452D01*
X200217452Y-79817455D01*
X200131206Y-79932664D01*
X200131201Y-79932673D01*
X200080908Y-80067518D01*
X200080545Y-80069056D01*
X200079910Y-80070193D01*
X200078199Y-80074783D01*
X200077497Y-80074521D01*
X200065292Y-80096408D01*
X200061112Y-80110644D01*
X200048909Y-80125786D01*
X200047566Y-80128196D01*
X200044492Y-80131271D01*
X200044490Y-80131269D01*
X200044478Y-80131286D01*
X199037582Y-81138181D01*
X198976259Y-81171666D01*
X198949901Y-81174500D01*
X198527129Y-81174500D01*
X198527123Y-81174501D01*
X198467516Y-81180908D01*
X198332671Y-81231202D01*
X198332664Y-81231206D01*
X198217457Y-81317451D01*
X198217449Y-81317458D01*
X198193232Y-81349810D01*
X198137299Y-81391682D01*
X198093965Y-81399500D01*
X196582791Y-81399500D01*
X196515752Y-81379815D01*
X196469997Y-81327011D01*
X196466609Y-81318833D01*
X196443797Y-81257671D01*
X196443793Y-81257664D01*
X196357547Y-81142455D01*
X196357544Y-81142452D01*
X196242335Y-81056206D01*
X196242328Y-81056202D01*
X196107482Y-81005908D01*
X196107483Y-81005908D01*
X196047883Y-80999501D01*
X196047881Y-80999500D01*
X196047873Y-80999500D01*
X196047864Y-80999500D01*
X194802129Y-80999500D01*
X194802123Y-80999501D01*
X194742516Y-81005908D01*
X194607671Y-81056202D01*
X194607664Y-81056206D01*
X194492455Y-81142452D01*
X194492452Y-81142455D01*
X194406206Y-81257664D01*
X194406202Y-81257671D01*
X194355908Y-81392517D01*
X194349501Y-81452116D01*
X194349500Y-81452135D01*
X194349500Y-82997870D01*
X194349501Y-82997876D01*
X194355908Y-83057481D01*
X194366682Y-83086366D01*
X194374500Y-83129700D01*
X194374500Y-83240500D01*
X194354815Y-83307539D01*
X194302011Y-83353294D01*
X194250500Y-83364500D01*
X193766111Y-83364500D01*
X193653848Y-83379279D01*
X193653837Y-83379282D01*
X193514149Y-83437142D01*
X193394190Y-83529190D01*
X193302142Y-83649149D01*
X193244282Y-83788837D01*
X193244281Y-83788841D01*
X193229500Y-83901105D01*
X189014077Y-83901105D01*
X189023624Y-83585141D01*
X189024073Y-83577713D01*
X189083648Y-82922115D01*
X189084551Y-82914684D01*
X189088092Y-82891417D01*
X189183597Y-82263907D01*
X189184946Y-82256549D01*
X189194988Y-82209770D01*
X189323105Y-81612938D01*
X189324888Y-81605700D01*
X189501669Y-80971555D01*
X189503885Y-80964447D01*
X189718622Y-80342162D01*
X189721262Y-80335200D01*
X189973189Y-79726995D01*
X189976242Y-79720211D01*
X190264429Y-79128333D01*
X190267887Y-79121745D01*
X190591282Y-78548350D01*
X190595147Y-78541959D01*
X190730467Y-78332662D01*
X190952570Y-77989140D01*
X190956786Y-77983031D01*
X191258394Y-77573135D01*
X196370500Y-77573135D01*
X196370500Y-78976870D01*
X196370501Y-78976876D01*
X196376908Y-79036483D01*
X196427202Y-79171328D01*
X196427206Y-79171335D01*
X196513452Y-79286544D01*
X196513455Y-79286547D01*
X196628664Y-79372793D01*
X196628671Y-79372797D01*
X196763517Y-79423091D01*
X196763516Y-79423091D01*
X196770444Y-79423835D01*
X196823127Y-79429500D01*
X198226872Y-79429499D01*
X198286483Y-79423091D01*
X198421331Y-79372796D01*
X198536546Y-79286546D01*
X198622796Y-79171331D01*
X198673091Y-79036483D01*
X198679500Y-78976873D01*
X198679499Y-77573128D01*
X198673091Y-77513517D01*
X198622796Y-77378669D01*
X198622795Y-77378668D01*
X198622793Y-77378664D01*
X198536547Y-77263455D01*
X198536544Y-77263452D01*
X198421335Y-77177206D01*
X198421328Y-77177202D01*
X198286482Y-77126908D01*
X198286483Y-77126908D01*
X198226883Y-77120501D01*
X198226881Y-77120500D01*
X198226873Y-77120500D01*
X198226864Y-77120500D01*
X196823129Y-77120500D01*
X196823123Y-77120501D01*
X196763516Y-77126908D01*
X196628671Y-77177202D01*
X196628664Y-77177206D01*
X196513455Y-77263452D01*
X196513452Y-77263455D01*
X196427206Y-77378664D01*
X196427202Y-77378671D01*
X196376908Y-77513517D01*
X196370501Y-77573116D01*
X196370501Y-77573123D01*
X196370500Y-77573135D01*
X191258394Y-77573135D01*
X191346949Y-77452785D01*
X191351541Y-77446923D01*
X191773015Y-76941192D01*
X191777932Y-76935642D01*
X192229146Y-76456311D01*
X192234442Y-76451016D01*
X192713772Y-75999802D01*
X192719322Y-75994885D01*
X193225053Y-75573411D01*
X193230915Y-75568819D01*
X193761161Y-75178656D01*
X193767270Y-75174440D01*
X194126207Y-74942370D01*
X194320089Y-74817017D01*
X194326480Y-74813152D01*
X194899875Y-74489757D01*
X194906463Y-74486299D01*
X195498341Y-74198112D01*
X195505125Y-74195059D01*
X196113330Y-73943132D01*
X196120292Y-73940492D01*
X196742577Y-73725755D01*
X196749685Y-73723539D01*
X197383830Y-73546758D01*
X197391068Y-73544975D01*
X198034688Y-73406814D01*
X198042037Y-73405467D01*
X198692820Y-73306420D01*
X198700245Y-73305518D01*
X199355843Y-73245943D01*
X199363271Y-73245494D01*
X200021260Y-73225612D01*
X200028740Y-73225612D01*
X200686726Y-73245494D01*
G37*
%TD.AperFunction*%
%TD*%
M02*
