%TF.GenerationSoftware,KiCad,Pcbnew,9.0.4*%
%TF.CreationDate,2025-09-10T15:35:00+03:00*%
%TF.ProjectId,sipm_board,7369706d-5f62-46f6-9172-642e6b696361,0.2.3*%
%TF.SameCoordinates,Original*%
%TF.FileFunction,Legend,Top*%
%TF.FilePolarity,Positive*%
%FSLAX46Y46*%
G04 Gerber Fmt 4.6, Leading zero omitted, Abs format (unit mm)*
G04 Created by KiCad (PCBNEW 9.0.4) date 2025-09-10 15:35:00*
%MOMM*%
%LPD*%
G01*
G04 APERTURE LIST*
%ADD10C,0.150000*%
%ADD11C,0.120000*%
%ADD12C,0.127000*%
%ADD13C,0.200000*%
G04 APERTURE END LIST*
D10*
X145011905Y-90419104D02*
X145488095Y-90419104D01*
X144916667Y-90704819D02*
X145250000Y-89704819D01*
X145250000Y-89704819D02*
X145583333Y-90704819D01*
X155011905Y-90454819D02*
X155011905Y-89454819D01*
X155011905Y-89454819D02*
X155392857Y-89454819D01*
X155392857Y-89454819D02*
X155488095Y-89502438D01*
X155488095Y-89502438D02*
X155535714Y-89550057D01*
X155535714Y-89550057D02*
X155583333Y-89645295D01*
X155583333Y-89645295D02*
X155583333Y-89788152D01*
X155583333Y-89788152D02*
X155535714Y-89883390D01*
X155535714Y-89883390D02*
X155488095Y-89931009D01*
X155488095Y-89931009D02*
X155392857Y-89978628D01*
X155392857Y-89978628D02*
X155011905Y-89978628D01*
X155964286Y-90407200D02*
X156107143Y-90454819D01*
X156107143Y-90454819D02*
X156345238Y-90454819D01*
X156345238Y-90454819D02*
X156440476Y-90407200D01*
X156440476Y-90407200D02*
X156488095Y-90359580D01*
X156488095Y-90359580D02*
X156535714Y-90264342D01*
X156535714Y-90264342D02*
X156535714Y-90169104D01*
X156535714Y-90169104D02*
X156488095Y-90073866D01*
X156488095Y-90073866D02*
X156440476Y-90026247D01*
X156440476Y-90026247D02*
X156345238Y-89978628D01*
X156345238Y-89978628D02*
X156154762Y-89931009D01*
X156154762Y-89931009D02*
X156059524Y-89883390D01*
X156059524Y-89883390D02*
X156011905Y-89835771D01*
X156011905Y-89835771D02*
X155964286Y-89740533D01*
X155964286Y-89740533D02*
X155964286Y-89645295D01*
X155964286Y-89645295D02*
X156011905Y-89550057D01*
X156011905Y-89550057D02*
X156059524Y-89502438D01*
X156059524Y-89502438D02*
X156154762Y-89454819D01*
X156154762Y-89454819D02*
X156392857Y-89454819D01*
X156392857Y-89454819D02*
X156535714Y-89502438D01*
X141583333Y-94679580D02*
X141535714Y-94727200D01*
X141535714Y-94727200D02*
X141392857Y-94774819D01*
X141392857Y-94774819D02*
X141297619Y-94774819D01*
X141297619Y-94774819D02*
X141154762Y-94727200D01*
X141154762Y-94727200D02*
X141059524Y-94631961D01*
X141059524Y-94631961D02*
X141011905Y-94536723D01*
X141011905Y-94536723D02*
X140964286Y-94346247D01*
X140964286Y-94346247D02*
X140964286Y-94203390D01*
X140964286Y-94203390D02*
X141011905Y-94012914D01*
X141011905Y-94012914D02*
X141059524Y-93917676D01*
X141059524Y-93917676D02*
X141154762Y-93822438D01*
X141154762Y-93822438D02*
X141297619Y-93774819D01*
X141297619Y-93774819D02*
X141392857Y-93774819D01*
X141392857Y-93774819D02*
X141535714Y-93822438D01*
X141535714Y-93822438D02*
X141583333Y-93870057D01*
X142535714Y-94774819D02*
X141964286Y-94774819D01*
X142250000Y-94774819D02*
X142250000Y-93774819D01*
X142250000Y-93774819D02*
X142154762Y-93917676D01*
X142154762Y-93917676D02*
X142059524Y-94012914D01*
X142059524Y-94012914D02*
X141964286Y-94060533D01*
X158366667Y-107362295D02*
X158100000Y-106981342D01*
X157909524Y-107362295D02*
X157909524Y-106562295D01*
X157909524Y-106562295D02*
X158214286Y-106562295D01*
X158214286Y-106562295D02*
X158290476Y-106600390D01*
X158290476Y-106600390D02*
X158328571Y-106638485D01*
X158328571Y-106638485D02*
X158366667Y-106714676D01*
X158366667Y-106714676D02*
X158366667Y-106828961D01*
X158366667Y-106828961D02*
X158328571Y-106905152D01*
X158328571Y-106905152D02*
X158290476Y-106943247D01*
X158290476Y-106943247D02*
X158214286Y-106981342D01*
X158214286Y-106981342D02*
X157909524Y-106981342D01*
X159052381Y-106828961D02*
X159052381Y-107362295D01*
X158861905Y-106524200D02*
X158671428Y-107095628D01*
X158671428Y-107095628D02*
X159166667Y-107095628D01*
X154116667Y-108862295D02*
X153850000Y-108481342D01*
X153659524Y-108862295D02*
X153659524Y-108062295D01*
X153659524Y-108062295D02*
X153964286Y-108062295D01*
X153964286Y-108062295D02*
X154040476Y-108100390D01*
X154040476Y-108100390D02*
X154078571Y-108138485D01*
X154078571Y-108138485D02*
X154116667Y-108214676D01*
X154116667Y-108214676D02*
X154116667Y-108328961D01*
X154116667Y-108328961D02*
X154078571Y-108405152D01*
X154078571Y-108405152D02*
X154040476Y-108443247D01*
X154040476Y-108443247D02*
X153964286Y-108481342D01*
X153964286Y-108481342D02*
X153659524Y-108481342D01*
X154840476Y-108062295D02*
X154459524Y-108062295D01*
X154459524Y-108062295D02*
X154421428Y-108443247D01*
X154421428Y-108443247D02*
X154459524Y-108405152D01*
X154459524Y-108405152D02*
X154535714Y-108367057D01*
X154535714Y-108367057D02*
X154726190Y-108367057D01*
X154726190Y-108367057D02*
X154802381Y-108405152D01*
X154802381Y-108405152D02*
X154840476Y-108443247D01*
X154840476Y-108443247D02*
X154878571Y-108519438D01*
X154878571Y-108519438D02*
X154878571Y-108709914D01*
X154878571Y-108709914D02*
X154840476Y-108786104D01*
X154840476Y-108786104D02*
X154802381Y-108824200D01*
X154802381Y-108824200D02*
X154726190Y-108862295D01*
X154726190Y-108862295D02*
X154535714Y-108862295D01*
X154535714Y-108862295D02*
X154459524Y-108824200D01*
X154459524Y-108824200D02*
X154421428Y-108786104D01*
X150616667Y-110862295D02*
X150350000Y-110481342D01*
X150159524Y-110862295D02*
X150159524Y-110062295D01*
X150159524Y-110062295D02*
X150464286Y-110062295D01*
X150464286Y-110062295D02*
X150540476Y-110100390D01*
X150540476Y-110100390D02*
X150578571Y-110138485D01*
X150578571Y-110138485D02*
X150616667Y-110214676D01*
X150616667Y-110214676D02*
X150616667Y-110328961D01*
X150616667Y-110328961D02*
X150578571Y-110405152D01*
X150578571Y-110405152D02*
X150540476Y-110443247D01*
X150540476Y-110443247D02*
X150464286Y-110481342D01*
X150464286Y-110481342D02*
X150159524Y-110481342D01*
X150883333Y-110062295D02*
X151378571Y-110062295D01*
X151378571Y-110062295D02*
X151111905Y-110367057D01*
X151111905Y-110367057D02*
X151226190Y-110367057D01*
X151226190Y-110367057D02*
X151302381Y-110405152D01*
X151302381Y-110405152D02*
X151340476Y-110443247D01*
X151340476Y-110443247D02*
X151378571Y-110519438D01*
X151378571Y-110519438D02*
X151378571Y-110709914D01*
X151378571Y-110709914D02*
X151340476Y-110786104D01*
X151340476Y-110786104D02*
X151302381Y-110824200D01*
X151302381Y-110824200D02*
X151226190Y-110862295D01*
X151226190Y-110862295D02*
X150997619Y-110862295D01*
X150997619Y-110862295D02*
X150921428Y-110824200D01*
X150921428Y-110824200D02*
X150883333Y-110786104D01*
X151866667Y-104362295D02*
X151600000Y-103981342D01*
X151409524Y-104362295D02*
X151409524Y-103562295D01*
X151409524Y-103562295D02*
X151714286Y-103562295D01*
X151714286Y-103562295D02*
X151790476Y-103600390D01*
X151790476Y-103600390D02*
X151828571Y-103638485D01*
X151828571Y-103638485D02*
X151866667Y-103714676D01*
X151866667Y-103714676D02*
X151866667Y-103828961D01*
X151866667Y-103828961D02*
X151828571Y-103905152D01*
X151828571Y-103905152D02*
X151790476Y-103943247D01*
X151790476Y-103943247D02*
X151714286Y-103981342D01*
X151714286Y-103981342D02*
X151409524Y-103981342D01*
X152171428Y-103638485D02*
X152209524Y-103600390D01*
X152209524Y-103600390D02*
X152285714Y-103562295D01*
X152285714Y-103562295D02*
X152476190Y-103562295D01*
X152476190Y-103562295D02*
X152552381Y-103600390D01*
X152552381Y-103600390D02*
X152590476Y-103638485D01*
X152590476Y-103638485D02*
X152628571Y-103714676D01*
X152628571Y-103714676D02*
X152628571Y-103790866D01*
X152628571Y-103790866D02*
X152590476Y-103905152D01*
X152590476Y-103905152D02*
X152133333Y-104362295D01*
X152133333Y-104362295D02*
X152628571Y-104362295D01*
X156166667Y-102536104D02*
X156128571Y-102574200D01*
X156128571Y-102574200D02*
X156014286Y-102612295D01*
X156014286Y-102612295D02*
X155938095Y-102612295D01*
X155938095Y-102612295D02*
X155823809Y-102574200D01*
X155823809Y-102574200D02*
X155747619Y-102498009D01*
X155747619Y-102498009D02*
X155709524Y-102421819D01*
X155709524Y-102421819D02*
X155671428Y-102269438D01*
X155671428Y-102269438D02*
X155671428Y-102155152D01*
X155671428Y-102155152D02*
X155709524Y-102002771D01*
X155709524Y-102002771D02*
X155747619Y-101926580D01*
X155747619Y-101926580D02*
X155823809Y-101850390D01*
X155823809Y-101850390D02*
X155938095Y-101812295D01*
X155938095Y-101812295D02*
X156014286Y-101812295D01*
X156014286Y-101812295D02*
X156128571Y-101850390D01*
X156128571Y-101850390D02*
X156166667Y-101888485D01*
X156890476Y-101812295D02*
X156509524Y-101812295D01*
X156509524Y-101812295D02*
X156471428Y-102193247D01*
X156471428Y-102193247D02*
X156509524Y-102155152D01*
X156509524Y-102155152D02*
X156585714Y-102117057D01*
X156585714Y-102117057D02*
X156776190Y-102117057D01*
X156776190Y-102117057D02*
X156852381Y-102155152D01*
X156852381Y-102155152D02*
X156890476Y-102193247D01*
X156890476Y-102193247D02*
X156928571Y-102269438D01*
X156928571Y-102269438D02*
X156928571Y-102459914D01*
X156928571Y-102459914D02*
X156890476Y-102536104D01*
X156890476Y-102536104D02*
X156852381Y-102574200D01*
X156852381Y-102574200D02*
X156776190Y-102612295D01*
X156776190Y-102612295D02*
X156585714Y-102612295D01*
X156585714Y-102612295D02*
X156509524Y-102574200D01*
X156509524Y-102574200D02*
X156471428Y-102536104D01*
X146904761Y-104800057D02*
X146809523Y-104752438D01*
X146809523Y-104752438D02*
X146714285Y-104657200D01*
X146714285Y-104657200D02*
X146571428Y-104514342D01*
X146571428Y-104514342D02*
X146476190Y-104466723D01*
X146476190Y-104466723D02*
X146380952Y-104466723D01*
X146428571Y-104704819D02*
X146333333Y-104657200D01*
X146333333Y-104657200D02*
X146238095Y-104561961D01*
X146238095Y-104561961D02*
X146190476Y-104371485D01*
X146190476Y-104371485D02*
X146190476Y-104038152D01*
X146190476Y-104038152D02*
X146238095Y-103847676D01*
X146238095Y-103847676D02*
X146333333Y-103752438D01*
X146333333Y-103752438D02*
X146428571Y-103704819D01*
X146428571Y-103704819D02*
X146619047Y-103704819D01*
X146619047Y-103704819D02*
X146714285Y-103752438D01*
X146714285Y-103752438D02*
X146809523Y-103847676D01*
X146809523Y-103847676D02*
X146857142Y-104038152D01*
X146857142Y-104038152D02*
X146857142Y-104371485D01*
X146857142Y-104371485D02*
X146809523Y-104561961D01*
X146809523Y-104561961D02*
X146714285Y-104657200D01*
X146714285Y-104657200D02*
X146619047Y-104704819D01*
X146619047Y-104704819D02*
X146428571Y-104704819D01*
X147809523Y-104704819D02*
X147238095Y-104704819D01*
X147523809Y-104704819D02*
X147523809Y-103704819D01*
X147523809Y-103704819D02*
X147428571Y-103847676D01*
X147428571Y-103847676D02*
X147333333Y-103942914D01*
X147333333Y-103942914D02*
X147238095Y-103990533D01*
X147033333Y-111959580D02*
X146985714Y-112007200D01*
X146985714Y-112007200D02*
X146842857Y-112054819D01*
X146842857Y-112054819D02*
X146747619Y-112054819D01*
X146747619Y-112054819D02*
X146604762Y-112007200D01*
X146604762Y-112007200D02*
X146509524Y-111911961D01*
X146509524Y-111911961D02*
X146461905Y-111816723D01*
X146461905Y-111816723D02*
X146414286Y-111626247D01*
X146414286Y-111626247D02*
X146414286Y-111483390D01*
X146414286Y-111483390D02*
X146461905Y-111292914D01*
X146461905Y-111292914D02*
X146509524Y-111197676D01*
X146509524Y-111197676D02*
X146604762Y-111102438D01*
X146604762Y-111102438D02*
X146747619Y-111054819D01*
X146747619Y-111054819D02*
X146842857Y-111054819D01*
X146842857Y-111054819D02*
X146985714Y-111102438D01*
X146985714Y-111102438D02*
X147033333Y-111150057D01*
X147414286Y-111150057D02*
X147461905Y-111102438D01*
X147461905Y-111102438D02*
X147557143Y-111054819D01*
X147557143Y-111054819D02*
X147795238Y-111054819D01*
X147795238Y-111054819D02*
X147890476Y-111102438D01*
X147890476Y-111102438D02*
X147938095Y-111150057D01*
X147938095Y-111150057D02*
X147985714Y-111245295D01*
X147985714Y-111245295D02*
X147985714Y-111340533D01*
X147985714Y-111340533D02*
X147938095Y-111483390D01*
X147938095Y-111483390D02*
X147366667Y-112054819D01*
X147366667Y-112054819D02*
X147985714Y-112054819D01*
X158166667Y-109286104D02*
X158128571Y-109324200D01*
X158128571Y-109324200D02*
X158014286Y-109362295D01*
X158014286Y-109362295D02*
X157938095Y-109362295D01*
X157938095Y-109362295D02*
X157823809Y-109324200D01*
X157823809Y-109324200D02*
X157747619Y-109248009D01*
X157747619Y-109248009D02*
X157709524Y-109171819D01*
X157709524Y-109171819D02*
X157671428Y-109019438D01*
X157671428Y-109019438D02*
X157671428Y-108905152D01*
X157671428Y-108905152D02*
X157709524Y-108752771D01*
X157709524Y-108752771D02*
X157747619Y-108676580D01*
X157747619Y-108676580D02*
X157823809Y-108600390D01*
X157823809Y-108600390D02*
X157938095Y-108562295D01*
X157938095Y-108562295D02*
X158014286Y-108562295D01*
X158014286Y-108562295D02*
X158128571Y-108600390D01*
X158128571Y-108600390D02*
X158166667Y-108638485D01*
X158852381Y-108828961D02*
X158852381Y-109362295D01*
X158661905Y-108524200D02*
X158471428Y-109095628D01*
X158471428Y-109095628D02*
X158966667Y-109095628D01*
X160616667Y-102786104D02*
X160578571Y-102824200D01*
X160578571Y-102824200D02*
X160464286Y-102862295D01*
X160464286Y-102862295D02*
X160388095Y-102862295D01*
X160388095Y-102862295D02*
X160273809Y-102824200D01*
X160273809Y-102824200D02*
X160197619Y-102748009D01*
X160197619Y-102748009D02*
X160159524Y-102671819D01*
X160159524Y-102671819D02*
X160121428Y-102519438D01*
X160121428Y-102519438D02*
X160121428Y-102405152D01*
X160121428Y-102405152D02*
X160159524Y-102252771D01*
X160159524Y-102252771D02*
X160197619Y-102176580D01*
X160197619Y-102176580D02*
X160273809Y-102100390D01*
X160273809Y-102100390D02*
X160388095Y-102062295D01*
X160388095Y-102062295D02*
X160464286Y-102062295D01*
X160464286Y-102062295D02*
X160578571Y-102100390D01*
X160578571Y-102100390D02*
X160616667Y-102138485D01*
X160883333Y-102062295D02*
X161378571Y-102062295D01*
X161378571Y-102062295D02*
X161111905Y-102367057D01*
X161111905Y-102367057D02*
X161226190Y-102367057D01*
X161226190Y-102367057D02*
X161302381Y-102405152D01*
X161302381Y-102405152D02*
X161340476Y-102443247D01*
X161340476Y-102443247D02*
X161378571Y-102519438D01*
X161378571Y-102519438D02*
X161378571Y-102709914D01*
X161378571Y-102709914D02*
X161340476Y-102786104D01*
X161340476Y-102786104D02*
X161302381Y-102824200D01*
X161302381Y-102824200D02*
X161226190Y-102862295D01*
X161226190Y-102862295D02*
X160997619Y-102862295D01*
X160997619Y-102862295D02*
X160921428Y-102824200D01*
X160921428Y-102824200D02*
X160883333Y-102786104D01*
X158404761Y-94700057D02*
X158309523Y-94652438D01*
X158309523Y-94652438D02*
X158214285Y-94557200D01*
X158214285Y-94557200D02*
X158071428Y-94414342D01*
X158071428Y-94414342D02*
X157976190Y-94366723D01*
X157976190Y-94366723D02*
X157880952Y-94366723D01*
X157928571Y-94604819D02*
X157833333Y-94557200D01*
X157833333Y-94557200D02*
X157738095Y-94461961D01*
X157738095Y-94461961D02*
X157690476Y-94271485D01*
X157690476Y-94271485D02*
X157690476Y-93938152D01*
X157690476Y-93938152D02*
X157738095Y-93747676D01*
X157738095Y-93747676D02*
X157833333Y-93652438D01*
X157833333Y-93652438D02*
X157928571Y-93604819D01*
X157928571Y-93604819D02*
X158119047Y-93604819D01*
X158119047Y-93604819D02*
X158214285Y-93652438D01*
X158214285Y-93652438D02*
X158309523Y-93747676D01*
X158309523Y-93747676D02*
X158357142Y-93938152D01*
X158357142Y-93938152D02*
X158357142Y-94271485D01*
X158357142Y-94271485D02*
X158309523Y-94461961D01*
X158309523Y-94461961D02*
X158214285Y-94557200D01*
X158214285Y-94557200D02*
X158119047Y-94604819D01*
X158119047Y-94604819D02*
X157928571Y-94604819D01*
X158738095Y-93700057D02*
X158785714Y-93652438D01*
X158785714Y-93652438D02*
X158880952Y-93604819D01*
X158880952Y-93604819D02*
X159119047Y-93604819D01*
X159119047Y-93604819D02*
X159214285Y-93652438D01*
X159214285Y-93652438D02*
X159261904Y-93700057D01*
X159261904Y-93700057D02*
X159309523Y-93795295D01*
X159309523Y-93795295D02*
X159309523Y-93890533D01*
X159309523Y-93890533D02*
X159261904Y-94033390D01*
X159261904Y-94033390D02*
X158690476Y-94604819D01*
X158690476Y-94604819D02*
X159309523Y-94604819D01*
X149214286Y-94904819D02*
X149785714Y-94904819D01*
X149500000Y-95904819D02*
X149500000Y-94904819D01*
X150119048Y-95904819D02*
X150119048Y-94904819D01*
X150119048Y-95381009D02*
X150690476Y-95381009D01*
X150690476Y-95904819D02*
X150690476Y-94904819D01*
X151690476Y-95904819D02*
X151119048Y-95904819D01*
X151404762Y-95904819D02*
X151404762Y-94904819D01*
X151404762Y-94904819D02*
X151309524Y-95047676D01*
X151309524Y-95047676D02*
X151214286Y-95142914D01*
X151214286Y-95142914D02*
X151119048Y-95190533D01*
X139138095Y-104409819D02*
X139138095Y-105219342D01*
X139138095Y-105219342D02*
X139185714Y-105314580D01*
X139185714Y-105314580D02*
X139233333Y-105362200D01*
X139233333Y-105362200D02*
X139328571Y-105409819D01*
X139328571Y-105409819D02*
X139519047Y-105409819D01*
X139519047Y-105409819D02*
X139614285Y-105362200D01*
X139614285Y-105362200D02*
X139661904Y-105314580D01*
X139661904Y-105314580D02*
X139709523Y-105219342D01*
X139709523Y-105219342D02*
X139709523Y-104409819D01*
X140709523Y-105409819D02*
X140138095Y-105409819D01*
X140423809Y-105409819D02*
X140423809Y-104409819D01*
X140423809Y-104409819D02*
X140328571Y-104552676D01*
X140328571Y-104552676D02*
X140233333Y-104647914D01*
X140233333Y-104647914D02*
X140138095Y-104695533D01*
X138866667Y-98612295D02*
X138600000Y-98231342D01*
X138409524Y-98612295D02*
X138409524Y-97812295D01*
X138409524Y-97812295D02*
X138714286Y-97812295D01*
X138714286Y-97812295D02*
X138790476Y-97850390D01*
X138790476Y-97850390D02*
X138828571Y-97888485D01*
X138828571Y-97888485D02*
X138866667Y-97964676D01*
X138866667Y-97964676D02*
X138866667Y-98078961D01*
X138866667Y-98078961D02*
X138828571Y-98155152D01*
X138828571Y-98155152D02*
X138790476Y-98193247D01*
X138790476Y-98193247D02*
X138714286Y-98231342D01*
X138714286Y-98231342D02*
X138409524Y-98231342D01*
X139628571Y-98612295D02*
X139171428Y-98612295D01*
X139400000Y-98612295D02*
X139400000Y-97812295D01*
X139400000Y-97812295D02*
X139323809Y-97926580D01*
X139323809Y-97926580D02*
X139247619Y-98002771D01*
X139247619Y-98002771D02*
X139171428Y-98040866D01*
D11*
%TO.C,C1*%
X141609420Y-95240000D02*
X141890580Y-95240000D01*
X141609420Y-96260000D02*
X141890580Y-96260000D01*
D12*
%TO.C,R4*%
X157080000Y-105100000D02*
X156920000Y-105100000D01*
X157080000Y-105900000D02*
X156920000Y-105900000D01*
%TO.C,R5*%
X153850000Y-106580000D02*
X153850000Y-106420000D01*
X154650000Y-106580000D02*
X154650000Y-106420000D01*
%TO.C,R3*%
X150350000Y-108580000D02*
X150350000Y-108420000D01*
X151150000Y-108580000D02*
X151150000Y-108420000D01*
%TO.C,R2*%
X150420000Y-105350000D02*
X150580000Y-105350000D01*
X150420000Y-106150000D02*
X150580000Y-106150000D01*
%TO.C,Q1*%
X146875000Y-105162500D02*
X147650000Y-105162500D01*
X147650000Y-105162500D02*
X147650000Y-105992500D01*
X147650000Y-108062500D02*
X146875000Y-108062500D01*
X147650000Y-108062500D02*
X147650000Y-107232500D01*
D13*
X146040000Y-104362500D02*
G75*
G02*
X145840000Y-104362500I-100000J0D01*
G01*
X145840000Y-104362500D02*
G75*
G02*
X146040000Y-104362500I100000J0D01*
G01*
D11*
%TO.C,C2*%
X147059420Y-109490000D02*
X147340580Y-109490000D01*
X147059420Y-110510000D02*
X147340580Y-110510000D01*
D12*
%TO.C,Q2*%
X158375000Y-95300000D02*
X159150000Y-95300000D01*
X159150000Y-95300000D02*
X159150000Y-96130000D01*
X159150000Y-98200000D02*
X158375000Y-98200000D01*
X159150000Y-98200000D02*
X159150000Y-97370000D01*
D13*
X157540000Y-94500000D02*
G75*
G02*
X157340000Y-94500000I-100000J0D01*
G01*
X157340000Y-94500000D02*
G75*
G02*
X157540000Y-94500000I100000J0D01*
G01*
D12*
%TO.C,U1*%
X141050000Y-104700000D02*
X141050000Y-105300000D01*
X143950000Y-104700000D02*
X143950000Y-105300000D01*
D13*
X143575000Y-102475000D02*
G75*
G02*
X143375000Y-102475000I-100000J0D01*
G01*
X143375000Y-102475000D02*
G75*
G02*
X143575000Y-102475000I100000J0D01*
G01*
D12*
%TO.C,R1*%
X141420000Y-97850000D02*
X141580000Y-97850000D01*
X141420000Y-98650000D02*
X141580000Y-98650000D01*
%TD*%
M02*
