%TF.GenerationSoftware,KiCad,Pcbnew,9.0.4*%
%TF.CreationDate,2025-09-10T15:35:00+03:00*%
%TF.ProjectId,sipm_board,7369706d-5f62-46f6-9172-642e6b696361,0.2.3*%
%TF.SameCoordinates,Original*%
%TF.FileFunction,Legend,Bot*%
%TF.FilePolarity,Positive*%
%FSLAX46Y46*%
G04 Gerber Fmt 4.6, Leading zero omitted, Abs format (unit mm)*
G04 Created by KiCad (PCBNEW 9.0.4) date 2025-09-10 15:35:00*
%MOMM*%
%LPD*%
G01*
G04 APERTURE LIST*
%ADD10C,0.150000*%
%ADD11C,0.127000*%
%ADD12C,0.200000*%
G04 APERTURE END LIST*
D10*
X151261904Y-104204819D02*
X151261904Y-105014342D01*
X151261904Y-105014342D02*
X151214285Y-105109580D01*
X151214285Y-105109580D02*
X151166666Y-105157200D01*
X151166666Y-105157200D02*
X151071428Y-105204819D01*
X151071428Y-105204819D02*
X150880952Y-105204819D01*
X150880952Y-105204819D02*
X150785714Y-105157200D01*
X150785714Y-105157200D02*
X150738095Y-105109580D01*
X150738095Y-105109580D02*
X150690476Y-105014342D01*
X150690476Y-105014342D02*
X150690476Y-104204819D01*
X150261904Y-104300057D02*
X150214285Y-104252438D01*
X150214285Y-104252438D02*
X150119047Y-104204819D01*
X150119047Y-104204819D02*
X149880952Y-104204819D01*
X149880952Y-104204819D02*
X149785714Y-104252438D01*
X149785714Y-104252438D02*
X149738095Y-104300057D01*
X149738095Y-104300057D02*
X149690476Y-104395295D01*
X149690476Y-104395295D02*
X149690476Y-104490533D01*
X149690476Y-104490533D02*
X149738095Y-104633390D01*
X149738095Y-104633390D02*
X150309523Y-105204819D01*
X150309523Y-105204819D02*
X149690476Y-105204819D01*
D11*
%TO.C,U2*%
X147050000Y-101980000D02*
X147050000Y-96250000D01*
X147050000Y-103250000D02*
X152780000Y-103250000D01*
X148320000Y-96250000D02*
X154050000Y-96250000D01*
X154050000Y-103250000D02*
X154050000Y-97520000D01*
D12*
X146550000Y-96850000D02*
G75*
G02*
X146350000Y-96850000I-100000J0D01*
G01*
X146350000Y-96850000D02*
G75*
G02*
X146550000Y-96850000I100000J0D01*
G01*
%TD*%
M02*
