%TF.GenerationSoftware,KiCad,Pcbnew,9.0.4*%
%TF.CreationDate,2025-09-10T15:35:00+03:00*%
%TF.ProjectId,sipm_board,7369706d-5f62-46f6-9172-642e6b696361,0.2.3*%
%TF.SameCoordinates,Original*%
%TF.FileFunction,Soldermask,Bot*%
%TF.FilePolarity,Negative*%
%FSLAX46Y46*%
G04 Gerber Fmt 4.6, Leading zero omitted, Abs format (unit mm)*
G04 Created by KiCad (PCBNEW 9.0.4) date 2025-09-10 15:35:00*
%MOMM*%
%LPD*%
G01*
G04 APERTURE LIST*
G04 Aperture macros list*
%AMRoundRect*
0 Rectangle with rounded corners*
0 $1 Rounding radius*
0 $2 $3 $4 $5 $6 $7 $8 $9 X,Y pos of 4 corners*
0 Add a 4 corners polygon primitive as box body*
4,1,4,$2,$3,$4,$5,$6,$7,$8,$9,$2,$3,0*
0 Add four circle primitives for the rounded corners*
1,1,$1+$1,$2,$3*
1,1,$1+$1,$4,$5*
1,1,$1+$1,$6,$7*
1,1,$1+$1,$8,$9*
0 Add four rect primitives between the rounded corners*
20,1,$1+$1,$2,$3,$4,$5,0*
20,1,$1+$1,$4,$5,$6,$7,0*
20,1,$1+$1,$6,$7,$8,$9,0*
20,1,$1+$1,$8,$9,$2,$3,0*%
G04 Aperture macros list end*
%ADD10C,0.000100*%
%ADD11RoundRect,0.201000X-0.201000X-0.451000X0.201000X-0.451000X0.201000X0.451000X-0.201000X0.451000X0*%
%ADD12RoundRect,0.201000X-0.451000X-0.201000X0.451000X-0.201000X0.451000X0.201000X-0.451000X0.201000X0*%
G04 APERTURE END LIST*
D10*
%TO.C,U2*%
X151912000Y-96501000D02*
X151923000Y-96503000D01*
X151934000Y-96505000D01*
X151944000Y-96507000D01*
X151955000Y-96510000D01*
X151965000Y-96514000D01*
X151975000Y-96518000D01*
X151985000Y-96523000D01*
X151995000Y-96528000D01*
X152004000Y-96534000D01*
X152013000Y-96540000D01*
X152022000Y-96547000D01*
X152031000Y-96554000D01*
X152038000Y-96562000D01*
X152046000Y-96569000D01*
X152053000Y-96578000D01*
X152060000Y-96587000D01*
X152066000Y-96596000D01*
X152072000Y-96605000D01*
X152077000Y-96615000D01*
X152082000Y-96625000D01*
X152086000Y-96635000D01*
X152090000Y-96645000D01*
X152093000Y-96656000D01*
X152095000Y-96666000D01*
X152097000Y-96677000D01*
X152099000Y-96688000D01*
X152100000Y-96699000D01*
X152100000Y-96710000D01*
X152100000Y-98200000D01*
X153580000Y-98200000D01*
X153592000Y-98200000D01*
X153603000Y-98201000D01*
X153614000Y-98203000D01*
X153626000Y-98205000D01*
X153637000Y-98207000D01*
X153648000Y-98211000D01*
X153659000Y-98215000D01*
X153669000Y-98219000D01*
X153680000Y-98224000D01*
X153690000Y-98229000D01*
X153700000Y-98235000D01*
X153709000Y-98242000D01*
X153718000Y-98249000D01*
X153727000Y-98257000D01*
X153736000Y-98264000D01*
X153743000Y-98273000D01*
X153751000Y-98282000D01*
X153758000Y-98291000D01*
X153765000Y-98300000D01*
X153771000Y-98310000D01*
X153776000Y-98320000D01*
X153781000Y-98331000D01*
X153785000Y-98341000D01*
X153789000Y-98352000D01*
X153793000Y-98363000D01*
X153795000Y-98374000D01*
X153797000Y-98386000D01*
X153799000Y-98397000D01*
X153800000Y-98408000D01*
X153800000Y-98420000D01*
X153800000Y-98450000D01*
X153800000Y-101060000D01*
X153800000Y-101090000D01*
X153800000Y-101101000D01*
X153799000Y-101112000D01*
X153797000Y-101123000D01*
X153795000Y-101134000D01*
X153793000Y-101144000D01*
X153790000Y-101155000D01*
X153786000Y-101165000D01*
X153782000Y-101175000D01*
X153777000Y-101185000D01*
X153772000Y-101195000D01*
X153766000Y-101204000D01*
X153760000Y-101213000D01*
X153753000Y-101222000D01*
X153746000Y-101231000D01*
X153738000Y-101238000D01*
X153731000Y-101246000D01*
X153722000Y-101253000D01*
X153713000Y-101260000D01*
X153704000Y-101266000D01*
X153695000Y-101272000D01*
X153685000Y-101277000D01*
X153675000Y-101282000D01*
X153665000Y-101286000D01*
X153655000Y-101290000D01*
X153644000Y-101293000D01*
X153634000Y-101295000D01*
X153623000Y-101297000D01*
X153612000Y-101299000D01*
X153601000Y-101300000D01*
X153590000Y-101300000D01*
X152100000Y-101300000D01*
X152100000Y-102780000D01*
X152100000Y-102792000D01*
X152099000Y-102803000D01*
X152097000Y-102814000D01*
X152095000Y-102826000D01*
X152093000Y-102837000D01*
X152089000Y-102848000D01*
X152085000Y-102859000D01*
X152081000Y-102869000D01*
X152076000Y-102880000D01*
X152071000Y-102890000D01*
X152065000Y-102900000D01*
X152058000Y-102909000D01*
X152051000Y-102918000D01*
X152043000Y-102927000D01*
X152036000Y-102936000D01*
X152027000Y-102943000D01*
X152018000Y-102951000D01*
X152009000Y-102958000D01*
X152000000Y-102965000D01*
X151990000Y-102971000D01*
X151980000Y-102976000D01*
X151969000Y-102981000D01*
X151959000Y-102985000D01*
X151948000Y-102989000D01*
X151937000Y-102993000D01*
X151926000Y-102995000D01*
X151914000Y-102997000D01*
X151903000Y-102999000D01*
X151892000Y-103000000D01*
X151880000Y-103000000D01*
X149230000Y-103000000D01*
X149210000Y-103000000D01*
X149199000Y-103000000D01*
X149188000Y-102999000D01*
X149177000Y-102997000D01*
X149166000Y-102995000D01*
X149156000Y-102993000D01*
X149145000Y-102990000D01*
X149135000Y-102986000D01*
X149125000Y-102982000D01*
X149115000Y-102977000D01*
X149105000Y-102972000D01*
X149096000Y-102966000D01*
X149087000Y-102960000D01*
X149078000Y-102953000D01*
X149069000Y-102946000D01*
X149062000Y-102938000D01*
X149054000Y-102931000D01*
X149047000Y-102922000D01*
X149040000Y-102913000D01*
X149034000Y-102904000D01*
X149028000Y-102895000D01*
X149023000Y-102885000D01*
X149018000Y-102875000D01*
X149014000Y-102865000D01*
X149010000Y-102855000D01*
X149007000Y-102844000D01*
X149005000Y-102834000D01*
X149003000Y-102823000D01*
X149001000Y-102812000D01*
X149000000Y-102801000D01*
X149000000Y-102790000D01*
X149000000Y-101300000D01*
X147510000Y-101300000D01*
X147499000Y-101300000D01*
X147488000Y-101299000D01*
X147477000Y-101297000D01*
X147466000Y-101295000D01*
X147456000Y-101293000D01*
X147445000Y-101290000D01*
X147435000Y-101286000D01*
X147425000Y-101282000D01*
X147415000Y-101277000D01*
X147405000Y-101272000D01*
X147396000Y-101266000D01*
X147387000Y-101260000D01*
X147378000Y-101253000D01*
X147369000Y-101246000D01*
X147362000Y-101238000D01*
X147354000Y-101231000D01*
X147347000Y-101222000D01*
X147340000Y-101213000D01*
X147334000Y-101204000D01*
X147328000Y-101195000D01*
X147323000Y-101185000D01*
X147318000Y-101175000D01*
X147314000Y-101165000D01*
X147310000Y-101155000D01*
X147307000Y-101144000D01*
X147305000Y-101134000D01*
X147303000Y-101123000D01*
X147301000Y-101112000D01*
X147300000Y-101101000D01*
X147300000Y-101090000D01*
X147300000Y-101070000D01*
X147300000Y-98430000D01*
X147300000Y-98418000D01*
X147301000Y-98406000D01*
X147303000Y-98394000D01*
X147305000Y-98382000D01*
X147308000Y-98370000D01*
X147311000Y-98359000D01*
X147315000Y-98348000D01*
X147320000Y-98336000D01*
X147325000Y-98326000D01*
X147331000Y-98315000D01*
X147337000Y-98305000D01*
X147344000Y-98295000D01*
X147351000Y-98285000D01*
X147359000Y-98276000D01*
X147367000Y-98267000D01*
X147376000Y-98259000D01*
X147385000Y-98251000D01*
X147395000Y-98244000D01*
X147405000Y-98237000D01*
X147415000Y-98231000D01*
X147426000Y-98225000D01*
X147436000Y-98220000D01*
X147448000Y-98215000D01*
X147459000Y-98211000D01*
X147470000Y-98208000D01*
X147482000Y-98205000D01*
X147494000Y-98203000D01*
X147506000Y-98201000D01*
X147518000Y-98200000D01*
X147530000Y-98200000D01*
X149000000Y-98200000D01*
X149000000Y-96710000D01*
X149000000Y-96699000D01*
X149001000Y-96688000D01*
X149003000Y-96677000D01*
X149005000Y-96666000D01*
X149007000Y-96656000D01*
X149010000Y-96645000D01*
X149014000Y-96635000D01*
X149018000Y-96625000D01*
X149023000Y-96615000D01*
X149028000Y-96605000D01*
X149034000Y-96596000D01*
X149040000Y-96587000D01*
X149047000Y-96578000D01*
X149054000Y-96569000D01*
X149062000Y-96562000D01*
X149069000Y-96554000D01*
X149078000Y-96547000D01*
X149087000Y-96540000D01*
X149096000Y-96534000D01*
X149105000Y-96528000D01*
X149115000Y-96523000D01*
X149125000Y-96518000D01*
X149135000Y-96514000D01*
X149145000Y-96510000D01*
X149156000Y-96507000D01*
X149166000Y-96505000D01*
X149177000Y-96503000D01*
X149188000Y-96501000D01*
X149199000Y-96500000D01*
X149210000Y-96500000D01*
X149230000Y-96500000D01*
X151860000Y-96500000D01*
X151890000Y-96500000D01*
X151901000Y-96500000D01*
X151912000Y-96501000D01*
G36*
X151912000Y-96501000D02*
G01*
X151923000Y-96503000D01*
X151934000Y-96505000D01*
X151944000Y-96507000D01*
X151955000Y-96510000D01*
X151965000Y-96514000D01*
X151975000Y-96518000D01*
X151985000Y-96523000D01*
X151995000Y-96528000D01*
X152004000Y-96534000D01*
X152013000Y-96540000D01*
X152022000Y-96547000D01*
X152031000Y-96554000D01*
X152038000Y-96562000D01*
X152046000Y-96569000D01*
X152053000Y-96578000D01*
X152060000Y-96587000D01*
X152066000Y-96596000D01*
X152072000Y-96605000D01*
X152077000Y-96615000D01*
X152082000Y-96625000D01*
X152086000Y-96635000D01*
X152090000Y-96645000D01*
X152093000Y-96656000D01*
X152095000Y-96666000D01*
X152097000Y-96677000D01*
X152099000Y-96688000D01*
X152100000Y-96699000D01*
X152100000Y-96710000D01*
X152100000Y-98200000D01*
X153580000Y-98200000D01*
X153592000Y-98200000D01*
X153603000Y-98201000D01*
X153614000Y-98203000D01*
X153626000Y-98205000D01*
X153637000Y-98207000D01*
X153648000Y-98211000D01*
X153659000Y-98215000D01*
X153669000Y-98219000D01*
X153680000Y-98224000D01*
X153690000Y-98229000D01*
X153700000Y-98235000D01*
X153709000Y-98242000D01*
X153718000Y-98249000D01*
X153727000Y-98257000D01*
X153736000Y-98264000D01*
X153743000Y-98273000D01*
X153751000Y-98282000D01*
X153758000Y-98291000D01*
X153765000Y-98300000D01*
X153771000Y-98310000D01*
X153776000Y-98320000D01*
X153781000Y-98331000D01*
X153785000Y-98341000D01*
X153789000Y-98352000D01*
X153793000Y-98363000D01*
X153795000Y-98374000D01*
X153797000Y-98386000D01*
X153799000Y-98397000D01*
X153800000Y-98408000D01*
X153800000Y-98420000D01*
X153800000Y-98450000D01*
X153800000Y-101060000D01*
X153800000Y-101090000D01*
X153800000Y-101101000D01*
X153799000Y-101112000D01*
X153797000Y-101123000D01*
X153795000Y-101134000D01*
X153793000Y-101144000D01*
X153790000Y-101155000D01*
X153786000Y-101165000D01*
X153782000Y-101175000D01*
X153777000Y-101185000D01*
X153772000Y-101195000D01*
X153766000Y-101204000D01*
X153760000Y-101213000D01*
X153753000Y-101222000D01*
X153746000Y-101231000D01*
X153738000Y-101238000D01*
X153731000Y-101246000D01*
X153722000Y-101253000D01*
X153713000Y-101260000D01*
X153704000Y-101266000D01*
X153695000Y-101272000D01*
X153685000Y-101277000D01*
X153675000Y-101282000D01*
X153665000Y-101286000D01*
X153655000Y-101290000D01*
X153644000Y-101293000D01*
X153634000Y-101295000D01*
X153623000Y-101297000D01*
X153612000Y-101299000D01*
X153601000Y-101300000D01*
X153590000Y-101300000D01*
X152100000Y-101300000D01*
X152100000Y-102780000D01*
X152100000Y-102792000D01*
X152099000Y-102803000D01*
X152097000Y-102814000D01*
X152095000Y-102826000D01*
X152093000Y-102837000D01*
X152089000Y-102848000D01*
X152085000Y-102859000D01*
X152081000Y-102869000D01*
X152076000Y-102880000D01*
X152071000Y-102890000D01*
X152065000Y-102900000D01*
X152058000Y-102909000D01*
X152051000Y-102918000D01*
X152043000Y-102927000D01*
X152036000Y-102936000D01*
X152027000Y-102943000D01*
X152018000Y-102951000D01*
X152009000Y-102958000D01*
X152000000Y-102965000D01*
X151990000Y-102971000D01*
X151980000Y-102976000D01*
X151969000Y-102981000D01*
X151959000Y-102985000D01*
X151948000Y-102989000D01*
X151937000Y-102993000D01*
X151926000Y-102995000D01*
X151914000Y-102997000D01*
X151903000Y-102999000D01*
X151892000Y-103000000D01*
X151880000Y-103000000D01*
X149230000Y-103000000D01*
X149210000Y-103000000D01*
X149199000Y-103000000D01*
X149188000Y-102999000D01*
X149177000Y-102997000D01*
X149166000Y-102995000D01*
X149156000Y-102993000D01*
X149145000Y-102990000D01*
X149135000Y-102986000D01*
X149125000Y-102982000D01*
X149115000Y-102977000D01*
X149105000Y-102972000D01*
X149096000Y-102966000D01*
X149087000Y-102960000D01*
X149078000Y-102953000D01*
X149069000Y-102946000D01*
X149062000Y-102938000D01*
X149054000Y-102931000D01*
X149047000Y-102922000D01*
X149040000Y-102913000D01*
X149034000Y-102904000D01*
X149028000Y-102895000D01*
X149023000Y-102885000D01*
X149018000Y-102875000D01*
X149014000Y-102865000D01*
X149010000Y-102855000D01*
X149007000Y-102844000D01*
X149005000Y-102834000D01*
X149003000Y-102823000D01*
X149001000Y-102812000D01*
X149000000Y-102801000D01*
X149000000Y-102790000D01*
X149000000Y-101300000D01*
X147510000Y-101300000D01*
X147499000Y-101300000D01*
X147488000Y-101299000D01*
X147477000Y-101297000D01*
X147466000Y-101295000D01*
X147456000Y-101293000D01*
X147445000Y-101290000D01*
X147435000Y-101286000D01*
X147425000Y-101282000D01*
X147415000Y-101277000D01*
X147405000Y-101272000D01*
X147396000Y-101266000D01*
X147387000Y-101260000D01*
X147378000Y-101253000D01*
X147369000Y-101246000D01*
X147362000Y-101238000D01*
X147354000Y-101231000D01*
X147347000Y-101222000D01*
X147340000Y-101213000D01*
X147334000Y-101204000D01*
X147328000Y-101195000D01*
X147323000Y-101185000D01*
X147318000Y-101175000D01*
X147314000Y-101165000D01*
X147310000Y-101155000D01*
X147307000Y-101144000D01*
X147305000Y-101134000D01*
X147303000Y-101123000D01*
X147301000Y-101112000D01*
X147300000Y-101101000D01*
X147300000Y-101090000D01*
X147300000Y-101070000D01*
X147300000Y-98430000D01*
X147300000Y-98418000D01*
X147301000Y-98406000D01*
X147303000Y-98394000D01*
X147305000Y-98382000D01*
X147308000Y-98370000D01*
X147311000Y-98359000D01*
X147315000Y-98348000D01*
X147320000Y-98336000D01*
X147325000Y-98326000D01*
X147331000Y-98315000D01*
X147337000Y-98305000D01*
X147344000Y-98295000D01*
X147351000Y-98285000D01*
X147359000Y-98276000D01*
X147367000Y-98267000D01*
X147376000Y-98259000D01*
X147385000Y-98251000D01*
X147395000Y-98244000D01*
X147405000Y-98237000D01*
X147415000Y-98231000D01*
X147426000Y-98225000D01*
X147436000Y-98220000D01*
X147448000Y-98215000D01*
X147459000Y-98211000D01*
X147470000Y-98208000D01*
X147482000Y-98205000D01*
X147494000Y-98203000D01*
X147506000Y-98201000D01*
X147518000Y-98200000D01*
X147530000Y-98200000D01*
X149000000Y-98200000D01*
X149000000Y-96710000D01*
X149000000Y-96699000D01*
X149001000Y-96688000D01*
X149003000Y-96677000D01*
X149005000Y-96666000D01*
X149007000Y-96656000D01*
X149010000Y-96645000D01*
X149014000Y-96635000D01*
X149018000Y-96625000D01*
X149023000Y-96615000D01*
X149028000Y-96605000D01*
X149034000Y-96596000D01*
X149040000Y-96587000D01*
X149047000Y-96578000D01*
X149054000Y-96569000D01*
X149062000Y-96562000D01*
X149069000Y-96554000D01*
X149078000Y-96547000D01*
X149087000Y-96540000D01*
X149096000Y-96534000D01*
X149105000Y-96528000D01*
X149115000Y-96523000D01*
X149125000Y-96518000D01*
X149135000Y-96514000D01*
X149145000Y-96510000D01*
X149156000Y-96507000D01*
X149166000Y-96505000D01*
X149177000Y-96503000D01*
X149188000Y-96501000D01*
X149199000Y-96500000D01*
X149210000Y-96500000D01*
X149230000Y-96500000D01*
X151860000Y-96500000D01*
X151890000Y-96500000D01*
X151901000Y-96500000D01*
X151912000Y-96501000D01*
G37*
%TD*%
D11*
%TO.C,U2*%
X147700000Y-96750000D03*
D12*
X153550000Y-96900000D03*
D11*
X153400000Y-102750000D03*
D12*
X147550000Y-102600000D03*
%TD*%
M02*
