%TF.GenerationSoftware,KiCad,Pcbnew,9.0.4*%
%TF.CreationDate,2025-09-10T15:35:00+03:00*%
%TF.ProjectId,sipm_board,7369706d-5f62-46f6-9172-642e6b696361,0.2.3*%
%TF.SameCoordinates,Original*%
%TF.FileFunction,Paste,Bot*%
%TF.FilePolarity,Positive*%
%FSLAX46Y46*%
G04 Gerber Fmt 4.6, Leading zero omitted, Abs format (unit mm)*
G04 Created by KiCad (PCBNEW 9.0.4) date 2025-09-10 15:35:00*
%MOMM*%
%LPD*%
G01*
G04 APERTURE LIST*
G04 Aperture macros list*
%AMRoundRect*
0 Rectangle with rounded corners*
0 $1 Rounding radius*
0 $2 $3 $4 $5 $6 $7 $8 $9 X,Y pos of 4 corners*
0 Add a 4 corners polygon primitive as box body*
4,1,4,$2,$3,$4,$5,$6,$7,$8,$9,$2,$3,0*
0 Add four circle primitives for the rounded corners*
1,1,$1+$1,$2,$3*
1,1,$1+$1,$4,$5*
1,1,$1+$1,$6,$7*
1,1,$1+$1,$8,$9*
0 Add four rect primitives between the rounded corners*
20,1,$1+$1,$2,$3,$4,$5,0*
20,1,$1+$1,$4,$5,$6,$7,0*
20,1,$1+$1,$6,$7,$8,$9,0*
20,1,$1+$1,$8,$9,$2,$3,0*%
G04 Aperture macros list end*
%ADD10C,0.010000*%
%ADD11RoundRect,0.150000X-0.150000X-0.400000X0.150000X-0.400000X0.150000X0.400000X-0.150000X0.400000X0*%
%ADD12RoundRect,0.150000X-0.400000X-0.150000X0.400000X-0.150000X0.400000X0.150000X-0.400000X0.150000X0*%
G04 APERTURE END LIST*
D10*
%TO.C,U2*%
X149275000Y-100350000D02*
X147225000Y-100350000D01*
X147225000Y-99150000D01*
X149275000Y-99150000D01*
X149275000Y-100350000D01*
G36*
X149275000Y-100350000D02*
G01*
X147225000Y-100350000D01*
X147225000Y-99150000D01*
X149275000Y-99150000D01*
X149275000Y-100350000D01*
G37*
X151575000Y-98050000D02*
X149525000Y-98050000D01*
X149525000Y-96850000D01*
X151575000Y-96850000D01*
X151575000Y-98050000D01*
G36*
X151575000Y-98050000D02*
G01*
X149525000Y-98050000D01*
X149525000Y-96850000D01*
X151575000Y-96850000D01*
X151575000Y-98050000D01*
G37*
X151575000Y-100775000D02*
X149525000Y-100775000D01*
X149525000Y-98725000D01*
X151575000Y-98725000D01*
X151575000Y-100775000D01*
G36*
X151575000Y-100775000D02*
G01*
X149525000Y-100775000D01*
X149525000Y-98725000D01*
X151575000Y-98725000D01*
X151575000Y-100775000D01*
G37*
X151575000Y-102650000D02*
X149525000Y-102650000D01*
X149525000Y-101450000D01*
X151575000Y-101450000D01*
X151575000Y-102650000D01*
G36*
X151575000Y-102650000D02*
G01*
X149525000Y-102650000D01*
X149525000Y-101450000D01*
X151575000Y-101450000D01*
X151575000Y-102650000D01*
G37*
X153875000Y-100350000D02*
X151825000Y-100350000D01*
X151825000Y-99150000D01*
X153875000Y-99150000D01*
X153875000Y-100350000D01*
G36*
X153875000Y-100350000D02*
G01*
X151825000Y-100350000D01*
X151825000Y-99150000D01*
X153875000Y-99150000D01*
X153875000Y-100350000D01*
G37*
%TD*%
D11*
%TO.C,U2*%
X147700000Y-96750000D03*
D12*
X153550000Y-96900000D03*
D11*
X153400000Y-102750000D03*
D12*
X147550000Y-102600000D03*
%TD*%
M02*
