%TF.GenerationSoftware,KiCad,Pcbnew,8.0.8*%
%TF.CreationDate,2025-04-26T12:46:20+03:00*%
%TF.ProjectId,gamma-spectrometer,67616d6d-612d-4737-9065-6374726f6d65,v0.0.4*%
%TF.SameCoordinates,Original*%
%TF.FileFunction,Legend,Bot*%
%TF.FilePolarity,Positive*%
%FSLAX46Y46*%
G04 Gerber Fmt 4.6, Leading zero omitted, Abs format (unit mm)*
G04 Created by KiCad (PCBNEW 8.0.8) date 2025-04-26 12:46:20*
%MOMM*%
%LPD*%
G01*
G04 APERTURE LIST*
%ADD10C,0.150000*%
%ADD11C,0.127000*%
%ADD12C,0.200000*%
%ADD13C,0.120000*%
G04 APERTURE END LIST*
D10*
X155606666Y-70727323D02*
X155637142Y-70757800D01*
X155637142Y-70757800D02*
X155728571Y-70788276D01*
X155728571Y-70788276D02*
X155789523Y-70788276D01*
X155789523Y-70788276D02*
X155880952Y-70757800D01*
X155880952Y-70757800D02*
X155941904Y-70696847D01*
X155941904Y-70696847D02*
X155972381Y-70635895D01*
X155972381Y-70635895D02*
X156002857Y-70513990D01*
X156002857Y-70513990D02*
X156002857Y-70422561D01*
X156002857Y-70422561D02*
X155972381Y-70300657D01*
X155972381Y-70300657D02*
X155941904Y-70239704D01*
X155941904Y-70239704D02*
X155880952Y-70178752D01*
X155880952Y-70178752D02*
X155789523Y-70148276D01*
X155789523Y-70148276D02*
X155728571Y-70148276D01*
X155728571Y-70148276D02*
X155637142Y-70178752D01*
X155637142Y-70178752D02*
X155606666Y-70209228D01*
X155058095Y-70148276D02*
X155180000Y-70148276D01*
X155180000Y-70148276D02*
X155240952Y-70178752D01*
X155240952Y-70178752D02*
X155271428Y-70209228D01*
X155271428Y-70209228D02*
X155332381Y-70300657D01*
X155332381Y-70300657D02*
X155362857Y-70422561D01*
X155362857Y-70422561D02*
X155362857Y-70666371D01*
X155362857Y-70666371D02*
X155332381Y-70727323D01*
X155332381Y-70727323D02*
X155301904Y-70757800D01*
X155301904Y-70757800D02*
X155240952Y-70788276D01*
X155240952Y-70788276D02*
X155119047Y-70788276D01*
X155119047Y-70788276D02*
X155058095Y-70757800D01*
X155058095Y-70757800D02*
X155027619Y-70727323D01*
X155027619Y-70727323D02*
X154997142Y-70666371D01*
X154997142Y-70666371D02*
X154997142Y-70513990D01*
X154997142Y-70513990D02*
X155027619Y-70453038D01*
X155027619Y-70453038D02*
X155058095Y-70422561D01*
X155058095Y-70422561D02*
X155119047Y-70392085D01*
X155119047Y-70392085D02*
X155240952Y-70392085D01*
X155240952Y-70392085D02*
X155301904Y-70422561D01*
X155301904Y-70422561D02*
X155332381Y-70453038D01*
X155332381Y-70453038D02*
X155362857Y-70513990D01*
X114711904Y-77954819D02*
X114711904Y-78764342D01*
X114711904Y-78764342D02*
X114664285Y-78859580D01*
X114664285Y-78859580D02*
X114616666Y-78907200D01*
X114616666Y-78907200D02*
X114521428Y-78954819D01*
X114521428Y-78954819D02*
X114330952Y-78954819D01*
X114330952Y-78954819D02*
X114235714Y-78907200D01*
X114235714Y-78907200D02*
X114188095Y-78859580D01*
X114188095Y-78859580D02*
X114140476Y-78764342D01*
X114140476Y-78764342D02*
X114140476Y-77954819D01*
X113235714Y-78288152D02*
X113235714Y-78954819D01*
X113473809Y-77907200D02*
X113711904Y-78621485D01*
X113711904Y-78621485D02*
X113092857Y-78621485D01*
X119243428Y-82082176D02*
X119456762Y-81777414D01*
X119609143Y-82082176D02*
X119609143Y-81442176D01*
X119609143Y-81442176D02*
X119365333Y-81442176D01*
X119365333Y-81442176D02*
X119304381Y-81472652D01*
X119304381Y-81472652D02*
X119273904Y-81503128D01*
X119273904Y-81503128D02*
X119243428Y-81564080D01*
X119243428Y-81564080D02*
X119243428Y-81655509D01*
X119243428Y-81655509D02*
X119273904Y-81716461D01*
X119273904Y-81716461D02*
X119304381Y-81746938D01*
X119304381Y-81746938D02*
X119365333Y-81777414D01*
X119365333Y-81777414D02*
X119609143Y-81777414D01*
X118633904Y-82082176D02*
X118999619Y-82082176D01*
X118816762Y-82082176D02*
X118816762Y-81442176D01*
X118816762Y-81442176D02*
X118877714Y-81533604D01*
X118877714Y-81533604D02*
X118938666Y-81594557D01*
X118938666Y-81594557D02*
X118999619Y-81625033D01*
X118390095Y-81503128D02*
X118359619Y-81472652D01*
X118359619Y-81472652D02*
X118298666Y-81442176D01*
X118298666Y-81442176D02*
X118146285Y-81442176D01*
X118146285Y-81442176D02*
X118085333Y-81472652D01*
X118085333Y-81472652D02*
X118054857Y-81503128D01*
X118054857Y-81503128D02*
X118024380Y-81564080D01*
X118024380Y-81564080D02*
X118024380Y-81625033D01*
X118024380Y-81625033D02*
X118054857Y-81716461D01*
X118054857Y-81716461D02*
X118420571Y-82082176D01*
X118420571Y-82082176D02*
X118024380Y-82082176D01*
X153394676Y-92606571D02*
X153089914Y-92393237D01*
X153394676Y-92240856D02*
X152754676Y-92240856D01*
X152754676Y-92240856D02*
X152754676Y-92484666D01*
X152754676Y-92484666D02*
X152785152Y-92545618D01*
X152785152Y-92545618D02*
X152815628Y-92576095D01*
X152815628Y-92576095D02*
X152876580Y-92606571D01*
X152876580Y-92606571D02*
X152968009Y-92606571D01*
X152968009Y-92606571D02*
X153028961Y-92576095D01*
X153028961Y-92576095D02*
X153059438Y-92545618D01*
X153059438Y-92545618D02*
X153089914Y-92484666D01*
X153089914Y-92484666D02*
X153089914Y-92240856D01*
X153394676Y-93216095D02*
X153394676Y-92850380D01*
X153394676Y-93033237D02*
X152754676Y-93033237D01*
X152754676Y-93033237D02*
X152846104Y-92972285D01*
X152846104Y-92972285D02*
X152907057Y-92911333D01*
X152907057Y-92911333D02*
X152937533Y-92850380D01*
X152754676Y-93795142D02*
X152754676Y-93490380D01*
X152754676Y-93490380D02*
X153059438Y-93459904D01*
X153059438Y-93459904D02*
X153028961Y-93490380D01*
X153028961Y-93490380D02*
X152998485Y-93551333D01*
X152998485Y-93551333D02*
X152998485Y-93703714D01*
X152998485Y-93703714D02*
X153028961Y-93764666D01*
X153028961Y-93764666D02*
X153059438Y-93795142D01*
X153059438Y-93795142D02*
X153120390Y-93825619D01*
X153120390Y-93825619D02*
X153272771Y-93825619D01*
X153272771Y-93825619D02*
X153333723Y-93795142D01*
X153333723Y-93795142D02*
X153364200Y-93764666D01*
X153364200Y-93764666D02*
X153394676Y-93703714D01*
X153394676Y-93703714D02*
X153394676Y-93551333D01*
X153394676Y-93551333D02*
X153364200Y-93490380D01*
X153364200Y-93490380D02*
X153333723Y-93459904D01*
X150840475Y-89992295D02*
X150840475Y-89192295D01*
X150840475Y-89192295D02*
X150649999Y-89192295D01*
X150649999Y-89192295D02*
X150535713Y-89230390D01*
X150535713Y-89230390D02*
X150459523Y-89306580D01*
X150459523Y-89306580D02*
X150421428Y-89382771D01*
X150421428Y-89382771D02*
X150383332Y-89535152D01*
X150383332Y-89535152D02*
X150383332Y-89649438D01*
X150383332Y-89649438D02*
X150421428Y-89801819D01*
X150421428Y-89801819D02*
X150459523Y-89878009D01*
X150459523Y-89878009D02*
X150535713Y-89954200D01*
X150535713Y-89954200D02*
X150649999Y-89992295D01*
X150649999Y-89992295D02*
X150840475Y-89992295D01*
X149659523Y-89192295D02*
X150040475Y-89192295D01*
X150040475Y-89192295D02*
X150078571Y-89573247D01*
X150078571Y-89573247D02*
X150040475Y-89535152D01*
X150040475Y-89535152D02*
X149964285Y-89497057D01*
X149964285Y-89497057D02*
X149773809Y-89497057D01*
X149773809Y-89497057D02*
X149697618Y-89535152D01*
X149697618Y-89535152D02*
X149659523Y-89573247D01*
X149659523Y-89573247D02*
X149621428Y-89649438D01*
X149621428Y-89649438D02*
X149621428Y-89839914D01*
X149621428Y-89839914D02*
X149659523Y-89916104D01*
X149659523Y-89916104D02*
X149697618Y-89954200D01*
X149697618Y-89954200D02*
X149773809Y-89992295D01*
X149773809Y-89992295D02*
X149964285Y-89992295D01*
X149964285Y-89992295D02*
X150040475Y-89954200D01*
X150040475Y-89954200D02*
X150078571Y-89916104D01*
X160764285Y-93786104D02*
X160802381Y-93824200D01*
X160802381Y-93824200D02*
X160916666Y-93862295D01*
X160916666Y-93862295D02*
X160992857Y-93862295D01*
X160992857Y-93862295D02*
X161107143Y-93824200D01*
X161107143Y-93824200D02*
X161183333Y-93748009D01*
X161183333Y-93748009D02*
X161221428Y-93671819D01*
X161221428Y-93671819D02*
X161259524Y-93519438D01*
X161259524Y-93519438D02*
X161259524Y-93405152D01*
X161259524Y-93405152D02*
X161221428Y-93252771D01*
X161221428Y-93252771D02*
X161183333Y-93176580D01*
X161183333Y-93176580D02*
X161107143Y-93100390D01*
X161107143Y-93100390D02*
X160992857Y-93062295D01*
X160992857Y-93062295D02*
X160916666Y-93062295D01*
X160916666Y-93062295D02*
X160802381Y-93100390D01*
X160802381Y-93100390D02*
X160764285Y-93138485D01*
X160002381Y-93862295D02*
X160459524Y-93862295D01*
X160230952Y-93862295D02*
X160230952Y-93062295D01*
X160230952Y-93062295D02*
X160307143Y-93176580D01*
X160307143Y-93176580D02*
X160383333Y-93252771D01*
X160383333Y-93252771D02*
X160459524Y-93290866D01*
X159316666Y-93062295D02*
X159469047Y-93062295D01*
X159469047Y-93062295D02*
X159545238Y-93100390D01*
X159545238Y-93100390D02*
X159583333Y-93138485D01*
X159583333Y-93138485D02*
X159659523Y-93252771D01*
X159659523Y-93252771D02*
X159697619Y-93405152D01*
X159697619Y-93405152D02*
X159697619Y-93709914D01*
X159697619Y-93709914D02*
X159659523Y-93786104D01*
X159659523Y-93786104D02*
X159621428Y-93824200D01*
X159621428Y-93824200D02*
X159545238Y-93862295D01*
X159545238Y-93862295D02*
X159392857Y-93862295D01*
X159392857Y-93862295D02*
X159316666Y-93824200D01*
X159316666Y-93824200D02*
X159278571Y-93786104D01*
X159278571Y-93786104D02*
X159240476Y-93709914D01*
X159240476Y-93709914D02*
X159240476Y-93519438D01*
X159240476Y-93519438D02*
X159278571Y-93443247D01*
X159278571Y-93443247D02*
X159316666Y-93405152D01*
X159316666Y-93405152D02*
X159392857Y-93367057D01*
X159392857Y-93367057D02*
X159545238Y-93367057D01*
X159545238Y-93367057D02*
X159621428Y-93405152D01*
X159621428Y-93405152D02*
X159659523Y-93443247D01*
X159659523Y-93443247D02*
X159697619Y-93519438D01*
X155514285Y-85546104D02*
X155552381Y-85584200D01*
X155552381Y-85584200D02*
X155666666Y-85622295D01*
X155666666Y-85622295D02*
X155742857Y-85622295D01*
X155742857Y-85622295D02*
X155857143Y-85584200D01*
X155857143Y-85584200D02*
X155933333Y-85508009D01*
X155933333Y-85508009D02*
X155971428Y-85431819D01*
X155971428Y-85431819D02*
X156009524Y-85279438D01*
X156009524Y-85279438D02*
X156009524Y-85165152D01*
X156009524Y-85165152D02*
X155971428Y-85012771D01*
X155971428Y-85012771D02*
X155933333Y-84936580D01*
X155933333Y-84936580D02*
X155857143Y-84860390D01*
X155857143Y-84860390D02*
X155742857Y-84822295D01*
X155742857Y-84822295D02*
X155666666Y-84822295D01*
X155666666Y-84822295D02*
X155552381Y-84860390D01*
X155552381Y-84860390D02*
X155514285Y-84898485D01*
X154752381Y-85622295D02*
X155209524Y-85622295D01*
X154980952Y-85622295D02*
X154980952Y-84822295D01*
X154980952Y-84822295D02*
X155057143Y-84936580D01*
X155057143Y-84936580D02*
X155133333Y-85012771D01*
X155133333Y-85012771D02*
X155209524Y-85050866D01*
X154028571Y-84822295D02*
X154409523Y-84822295D01*
X154409523Y-84822295D02*
X154447619Y-85203247D01*
X154447619Y-85203247D02*
X154409523Y-85165152D01*
X154409523Y-85165152D02*
X154333333Y-85127057D01*
X154333333Y-85127057D02*
X154142857Y-85127057D01*
X154142857Y-85127057D02*
X154066666Y-85165152D01*
X154066666Y-85165152D02*
X154028571Y-85203247D01*
X154028571Y-85203247D02*
X153990476Y-85279438D01*
X153990476Y-85279438D02*
X153990476Y-85469914D01*
X153990476Y-85469914D02*
X154028571Y-85546104D01*
X154028571Y-85546104D02*
X154066666Y-85584200D01*
X154066666Y-85584200D02*
X154142857Y-85622295D01*
X154142857Y-85622295D02*
X154333333Y-85622295D01*
X154333333Y-85622295D02*
X154409523Y-85584200D01*
X154409523Y-85584200D02*
X154447619Y-85546104D01*
X193738094Y-88179819D02*
X193738094Y-88989342D01*
X193738094Y-88989342D02*
X193690475Y-89084580D01*
X193690475Y-89084580D02*
X193642856Y-89132200D01*
X193642856Y-89132200D02*
X193547618Y-89179819D01*
X193547618Y-89179819D02*
X193357142Y-89179819D01*
X193357142Y-89179819D02*
X193261904Y-89132200D01*
X193261904Y-89132200D02*
X193214285Y-89084580D01*
X193214285Y-89084580D02*
X193166666Y-88989342D01*
X193166666Y-88989342D02*
X193166666Y-88179819D01*
X192166666Y-89179819D02*
X192738094Y-89179819D01*
X192452380Y-89179819D02*
X192452380Y-88179819D01*
X192452380Y-88179819D02*
X192547618Y-88322676D01*
X192547618Y-88322676D02*
X192642856Y-88417914D01*
X192642856Y-88417914D02*
X192738094Y-88465533D01*
X191547618Y-88179819D02*
X191452380Y-88179819D01*
X191452380Y-88179819D02*
X191357142Y-88227438D01*
X191357142Y-88227438D02*
X191309523Y-88275057D01*
X191309523Y-88275057D02*
X191261904Y-88370295D01*
X191261904Y-88370295D02*
X191214285Y-88560771D01*
X191214285Y-88560771D02*
X191214285Y-88798866D01*
X191214285Y-88798866D02*
X191261904Y-88989342D01*
X191261904Y-88989342D02*
X191309523Y-89084580D01*
X191309523Y-89084580D02*
X191357142Y-89132200D01*
X191357142Y-89132200D02*
X191452380Y-89179819D01*
X191452380Y-89179819D02*
X191547618Y-89179819D01*
X191547618Y-89179819D02*
X191642856Y-89132200D01*
X191642856Y-89132200D02*
X191690475Y-89084580D01*
X191690475Y-89084580D02*
X191738094Y-88989342D01*
X191738094Y-88989342D02*
X191785713Y-88798866D01*
X191785713Y-88798866D02*
X191785713Y-88560771D01*
X191785713Y-88560771D02*
X191738094Y-88370295D01*
X191738094Y-88370295D02*
X191690475Y-88275057D01*
X191690475Y-88275057D02*
X191642856Y-88227438D01*
X191642856Y-88227438D02*
X191547618Y-88179819D01*
X155916666Y-90443247D02*
X156183332Y-90443247D01*
X156183332Y-90862295D02*
X156183332Y-90062295D01*
X156183332Y-90062295D02*
X155802380Y-90062295D01*
X155230952Y-90443247D02*
X155116666Y-90481342D01*
X155116666Y-90481342D02*
X155078571Y-90519438D01*
X155078571Y-90519438D02*
X155040475Y-90595628D01*
X155040475Y-90595628D02*
X155040475Y-90709914D01*
X155040475Y-90709914D02*
X155078571Y-90786104D01*
X155078571Y-90786104D02*
X155116666Y-90824200D01*
X155116666Y-90824200D02*
X155192856Y-90862295D01*
X155192856Y-90862295D02*
X155497618Y-90862295D01*
X155497618Y-90862295D02*
X155497618Y-90062295D01*
X155497618Y-90062295D02*
X155230952Y-90062295D01*
X155230952Y-90062295D02*
X155154761Y-90100390D01*
X155154761Y-90100390D02*
X155116666Y-90138485D01*
X155116666Y-90138485D02*
X155078571Y-90214676D01*
X155078571Y-90214676D02*
X155078571Y-90290866D01*
X155078571Y-90290866D02*
X155116666Y-90367057D01*
X155116666Y-90367057D02*
X155154761Y-90405152D01*
X155154761Y-90405152D02*
X155230952Y-90443247D01*
X155230952Y-90443247D02*
X155497618Y-90443247D01*
X154735714Y-90138485D02*
X154697618Y-90100390D01*
X154697618Y-90100390D02*
X154621428Y-90062295D01*
X154621428Y-90062295D02*
X154430952Y-90062295D01*
X154430952Y-90062295D02*
X154354761Y-90100390D01*
X154354761Y-90100390D02*
X154316666Y-90138485D01*
X154316666Y-90138485D02*
X154278571Y-90214676D01*
X154278571Y-90214676D02*
X154278571Y-90290866D01*
X154278571Y-90290866D02*
X154316666Y-90405152D01*
X154316666Y-90405152D02*
X154773809Y-90862295D01*
X154773809Y-90862295D02*
X154278571Y-90862295D01*
X125032738Y-81050057D02*
X125127976Y-81002438D01*
X125127976Y-81002438D02*
X125223214Y-80907200D01*
X125223214Y-80907200D02*
X125366071Y-80764342D01*
X125366071Y-80764342D02*
X125461309Y-80716723D01*
X125461309Y-80716723D02*
X125556547Y-80716723D01*
X125508928Y-80954819D02*
X125604166Y-80907200D01*
X125604166Y-80907200D02*
X125699404Y-80811961D01*
X125699404Y-80811961D02*
X125747023Y-80621485D01*
X125747023Y-80621485D02*
X125747023Y-80288152D01*
X125747023Y-80288152D02*
X125699404Y-80097676D01*
X125699404Y-80097676D02*
X125604166Y-80002438D01*
X125604166Y-80002438D02*
X125508928Y-79954819D01*
X125508928Y-79954819D02*
X125318452Y-79954819D01*
X125318452Y-79954819D02*
X125223214Y-80002438D01*
X125223214Y-80002438D02*
X125127976Y-80097676D01*
X125127976Y-80097676D02*
X125080357Y-80288152D01*
X125080357Y-80288152D02*
X125080357Y-80621485D01*
X125080357Y-80621485D02*
X125127976Y-80811961D01*
X125127976Y-80811961D02*
X125223214Y-80907200D01*
X125223214Y-80907200D02*
X125318452Y-80954819D01*
X125318452Y-80954819D02*
X125508928Y-80954819D01*
X124127976Y-80954819D02*
X124699404Y-80954819D01*
X124413690Y-80954819D02*
X124413690Y-79954819D01*
X124413690Y-79954819D02*
X124508928Y-80097676D01*
X124508928Y-80097676D02*
X124604166Y-80192914D01*
X124604166Y-80192914D02*
X124699404Y-80240533D01*
X150916666Y-92443247D02*
X151183332Y-92443247D01*
X151183332Y-92862295D02*
X151183332Y-92062295D01*
X151183332Y-92062295D02*
X150802380Y-92062295D01*
X150230952Y-92443247D02*
X150116666Y-92481342D01*
X150116666Y-92481342D02*
X150078571Y-92519438D01*
X150078571Y-92519438D02*
X150040475Y-92595628D01*
X150040475Y-92595628D02*
X150040475Y-92709914D01*
X150040475Y-92709914D02*
X150078571Y-92786104D01*
X150078571Y-92786104D02*
X150116666Y-92824200D01*
X150116666Y-92824200D02*
X150192856Y-92862295D01*
X150192856Y-92862295D02*
X150497618Y-92862295D01*
X150497618Y-92862295D02*
X150497618Y-92062295D01*
X150497618Y-92062295D02*
X150230952Y-92062295D01*
X150230952Y-92062295D02*
X150154761Y-92100390D01*
X150154761Y-92100390D02*
X150116666Y-92138485D01*
X150116666Y-92138485D02*
X150078571Y-92214676D01*
X150078571Y-92214676D02*
X150078571Y-92290866D01*
X150078571Y-92290866D02*
X150116666Y-92367057D01*
X150116666Y-92367057D02*
X150154761Y-92405152D01*
X150154761Y-92405152D02*
X150230952Y-92443247D01*
X150230952Y-92443247D02*
X150497618Y-92443247D01*
X149773809Y-92062295D02*
X149278571Y-92062295D01*
X149278571Y-92062295D02*
X149545237Y-92367057D01*
X149545237Y-92367057D02*
X149430952Y-92367057D01*
X149430952Y-92367057D02*
X149354761Y-92405152D01*
X149354761Y-92405152D02*
X149316666Y-92443247D01*
X149316666Y-92443247D02*
X149278571Y-92519438D01*
X149278571Y-92519438D02*
X149278571Y-92709914D01*
X149278571Y-92709914D02*
X149316666Y-92786104D01*
X149316666Y-92786104D02*
X149354761Y-92824200D01*
X149354761Y-92824200D02*
X149430952Y-92862295D01*
X149430952Y-92862295D02*
X149659523Y-92862295D01*
X149659523Y-92862295D02*
X149735714Y-92824200D01*
X149735714Y-92824200D02*
X149773809Y-92786104D01*
X145864285Y-84916104D02*
X145902381Y-84954200D01*
X145902381Y-84954200D02*
X146016666Y-84992295D01*
X146016666Y-84992295D02*
X146092857Y-84992295D01*
X146092857Y-84992295D02*
X146207143Y-84954200D01*
X146207143Y-84954200D02*
X146283333Y-84878009D01*
X146283333Y-84878009D02*
X146321428Y-84801819D01*
X146321428Y-84801819D02*
X146359524Y-84649438D01*
X146359524Y-84649438D02*
X146359524Y-84535152D01*
X146359524Y-84535152D02*
X146321428Y-84382771D01*
X146321428Y-84382771D02*
X146283333Y-84306580D01*
X146283333Y-84306580D02*
X146207143Y-84230390D01*
X146207143Y-84230390D02*
X146092857Y-84192295D01*
X146092857Y-84192295D02*
X146016666Y-84192295D01*
X146016666Y-84192295D02*
X145902381Y-84230390D01*
X145902381Y-84230390D02*
X145864285Y-84268485D01*
X145102381Y-84992295D02*
X145559524Y-84992295D01*
X145330952Y-84992295D02*
X145330952Y-84192295D01*
X145330952Y-84192295D02*
X145407143Y-84306580D01*
X145407143Y-84306580D02*
X145483333Y-84382771D01*
X145483333Y-84382771D02*
X145559524Y-84420866D01*
X144340476Y-84992295D02*
X144797619Y-84992295D01*
X144569047Y-84992295D02*
X144569047Y-84192295D01*
X144569047Y-84192295D02*
X144645238Y-84306580D01*
X144645238Y-84306580D02*
X144721428Y-84382771D01*
X144721428Y-84382771D02*
X144797619Y-84420866D01*
X159142857Y-98609580D02*
X159190476Y-98657200D01*
X159190476Y-98657200D02*
X159333333Y-98704819D01*
X159333333Y-98704819D02*
X159428571Y-98704819D01*
X159428571Y-98704819D02*
X159571428Y-98657200D01*
X159571428Y-98657200D02*
X159666666Y-98561961D01*
X159666666Y-98561961D02*
X159714285Y-98466723D01*
X159714285Y-98466723D02*
X159761904Y-98276247D01*
X159761904Y-98276247D02*
X159761904Y-98133390D01*
X159761904Y-98133390D02*
X159714285Y-97942914D01*
X159714285Y-97942914D02*
X159666666Y-97847676D01*
X159666666Y-97847676D02*
X159571428Y-97752438D01*
X159571428Y-97752438D02*
X159428571Y-97704819D01*
X159428571Y-97704819D02*
X159333333Y-97704819D01*
X159333333Y-97704819D02*
X159190476Y-97752438D01*
X159190476Y-97752438D02*
X159142857Y-97800057D01*
X158190476Y-98704819D02*
X158761904Y-98704819D01*
X158476190Y-98704819D02*
X158476190Y-97704819D01*
X158476190Y-97704819D02*
X158571428Y-97847676D01*
X158571428Y-97847676D02*
X158666666Y-97942914D01*
X158666666Y-97942914D02*
X158761904Y-97990533D01*
X157857142Y-97704819D02*
X157238095Y-97704819D01*
X157238095Y-97704819D02*
X157571428Y-98085771D01*
X157571428Y-98085771D02*
X157428571Y-98085771D01*
X157428571Y-98085771D02*
X157333333Y-98133390D01*
X157333333Y-98133390D02*
X157285714Y-98181009D01*
X157285714Y-98181009D02*
X157238095Y-98276247D01*
X157238095Y-98276247D02*
X157238095Y-98514342D01*
X157238095Y-98514342D02*
X157285714Y-98609580D01*
X157285714Y-98609580D02*
X157333333Y-98657200D01*
X157333333Y-98657200D02*
X157428571Y-98704819D01*
X157428571Y-98704819D02*
X157714285Y-98704819D01*
X157714285Y-98704819D02*
X157809523Y-98657200D01*
X157809523Y-98657200D02*
X157857142Y-98609580D01*
X155838666Y-78144676D02*
X156052000Y-77839914D01*
X156204381Y-78144676D02*
X156204381Y-77504676D01*
X156204381Y-77504676D02*
X155960571Y-77504676D01*
X155960571Y-77504676D02*
X155899619Y-77535152D01*
X155899619Y-77535152D02*
X155869142Y-77565628D01*
X155869142Y-77565628D02*
X155838666Y-77626580D01*
X155838666Y-77626580D02*
X155838666Y-77718009D01*
X155838666Y-77718009D02*
X155869142Y-77778961D01*
X155869142Y-77778961D02*
X155899619Y-77809438D01*
X155899619Y-77809438D02*
X155960571Y-77839914D01*
X155960571Y-77839914D02*
X156204381Y-77839914D01*
X155533904Y-78144676D02*
X155412000Y-78144676D01*
X155412000Y-78144676D02*
X155351047Y-78114200D01*
X155351047Y-78114200D02*
X155320571Y-78083723D01*
X155320571Y-78083723D02*
X155259619Y-77992295D01*
X155259619Y-77992295D02*
X155229142Y-77870390D01*
X155229142Y-77870390D02*
X155229142Y-77626580D01*
X155229142Y-77626580D02*
X155259619Y-77565628D01*
X155259619Y-77565628D02*
X155290095Y-77535152D01*
X155290095Y-77535152D02*
X155351047Y-77504676D01*
X155351047Y-77504676D02*
X155472952Y-77504676D01*
X155472952Y-77504676D02*
X155533904Y-77535152D01*
X155533904Y-77535152D02*
X155564381Y-77565628D01*
X155564381Y-77565628D02*
X155594857Y-77626580D01*
X155594857Y-77626580D02*
X155594857Y-77778961D01*
X155594857Y-77778961D02*
X155564381Y-77839914D01*
X155564381Y-77839914D02*
X155533904Y-77870390D01*
X155533904Y-77870390D02*
X155472952Y-77900866D01*
X155472952Y-77900866D02*
X155351047Y-77900866D01*
X155351047Y-77900866D02*
X155290095Y-77870390D01*
X155290095Y-77870390D02*
X155259619Y-77839914D01*
X155259619Y-77839914D02*
X155229142Y-77778961D01*
X146609523Y-90562295D02*
X146609523Y-91209914D01*
X146609523Y-91209914D02*
X146571428Y-91286104D01*
X146571428Y-91286104D02*
X146533333Y-91324200D01*
X146533333Y-91324200D02*
X146457142Y-91362295D01*
X146457142Y-91362295D02*
X146304761Y-91362295D01*
X146304761Y-91362295D02*
X146228571Y-91324200D01*
X146228571Y-91324200D02*
X146190476Y-91286104D01*
X146190476Y-91286104D02*
X146152380Y-91209914D01*
X146152380Y-91209914D02*
X146152380Y-90562295D01*
X145657143Y-90905152D02*
X145733333Y-90867057D01*
X145733333Y-90867057D02*
X145771428Y-90828961D01*
X145771428Y-90828961D02*
X145809524Y-90752771D01*
X145809524Y-90752771D02*
X145809524Y-90714676D01*
X145809524Y-90714676D02*
X145771428Y-90638485D01*
X145771428Y-90638485D02*
X145733333Y-90600390D01*
X145733333Y-90600390D02*
X145657143Y-90562295D01*
X145657143Y-90562295D02*
X145504762Y-90562295D01*
X145504762Y-90562295D02*
X145428571Y-90600390D01*
X145428571Y-90600390D02*
X145390476Y-90638485D01*
X145390476Y-90638485D02*
X145352381Y-90714676D01*
X145352381Y-90714676D02*
X145352381Y-90752771D01*
X145352381Y-90752771D02*
X145390476Y-90828961D01*
X145390476Y-90828961D02*
X145428571Y-90867057D01*
X145428571Y-90867057D02*
X145504762Y-90905152D01*
X145504762Y-90905152D02*
X145657143Y-90905152D01*
X145657143Y-90905152D02*
X145733333Y-90943247D01*
X145733333Y-90943247D02*
X145771428Y-90981342D01*
X145771428Y-90981342D02*
X145809524Y-91057533D01*
X145809524Y-91057533D02*
X145809524Y-91209914D01*
X145809524Y-91209914D02*
X145771428Y-91286104D01*
X145771428Y-91286104D02*
X145733333Y-91324200D01*
X145733333Y-91324200D02*
X145657143Y-91362295D01*
X145657143Y-91362295D02*
X145504762Y-91362295D01*
X145504762Y-91362295D02*
X145428571Y-91324200D01*
X145428571Y-91324200D02*
X145390476Y-91286104D01*
X145390476Y-91286104D02*
X145352381Y-91209914D01*
X145352381Y-91209914D02*
X145352381Y-91057533D01*
X145352381Y-91057533D02*
X145390476Y-90981342D01*
X145390476Y-90981342D02*
X145428571Y-90943247D01*
X145428571Y-90943247D02*
X145504762Y-90905152D01*
X111179428Y-84431876D02*
X111392762Y-84127114D01*
X111545143Y-84431876D02*
X111545143Y-83791876D01*
X111545143Y-83791876D02*
X111301333Y-83791876D01*
X111301333Y-83791876D02*
X111240381Y-83822352D01*
X111240381Y-83822352D02*
X111209904Y-83852828D01*
X111209904Y-83852828D02*
X111179428Y-83913780D01*
X111179428Y-83913780D02*
X111179428Y-84005209D01*
X111179428Y-84005209D02*
X111209904Y-84066161D01*
X111209904Y-84066161D02*
X111240381Y-84096638D01*
X111240381Y-84096638D02*
X111301333Y-84127114D01*
X111301333Y-84127114D02*
X111545143Y-84127114D01*
X110569904Y-84431876D02*
X110935619Y-84431876D01*
X110752762Y-84431876D02*
X110752762Y-83791876D01*
X110752762Y-83791876D02*
X110813714Y-83883304D01*
X110813714Y-83883304D02*
X110874666Y-83944257D01*
X110874666Y-83944257D02*
X110935619Y-83974733D01*
X109960380Y-84431876D02*
X110326095Y-84431876D01*
X110143238Y-84431876D02*
X110143238Y-83791876D01*
X110143238Y-83791876D02*
X110204190Y-83883304D01*
X110204190Y-83883304D02*
X110265142Y-83944257D01*
X110265142Y-83944257D02*
X110326095Y-83974733D01*
X122911428Y-84538276D02*
X123124762Y-84233514D01*
X123277143Y-84538276D02*
X123277143Y-83898276D01*
X123277143Y-83898276D02*
X123033333Y-83898276D01*
X123033333Y-83898276D02*
X122972381Y-83928752D01*
X122972381Y-83928752D02*
X122941904Y-83959228D01*
X122941904Y-83959228D02*
X122911428Y-84020180D01*
X122911428Y-84020180D02*
X122911428Y-84111609D01*
X122911428Y-84111609D02*
X122941904Y-84172561D01*
X122941904Y-84172561D02*
X122972381Y-84203038D01*
X122972381Y-84203038D02*
X123033333Y-84233514D01*
X123033333Y-84233514D02*
X123277143Y-84233514D01*
X122301904Y-84538276D02*
X122667619Y-84538276D01*
X122484762Y-84538276D02*
X122484762Y-83898276D01*
X122484762Y-83898276D02*
X122545714Y-83989704D01*
X122545714Y-83989704D02*
X122606666Y-84050657D01*
X122606666Y-84050657D02*
X122667619Y-84081133D01*
X121905714Y-83898276D02*
X121844761Y-83898276D01*
X121844761Y-83898276D02*
X121783809Y-83928752D01*
X121783809Y-83928752D02*
X121753333Y-83959228D01*
X121753333Y-83959228D02*
X121722857Y-84020180D01*
X121722857Y-84020180D02*
X121692380Y-84142085D01*
X121692380Y-84142085D02*
X121692380Y-84294466D01*
X121692380Y-84294466D02*
X121722857Y-84416371D01*
X121722857Y-84416371D02*
X121753333Y-84477323D01*
X121753333Y-84477323D02*
X121783809Y-84507800D01*
X121783809Y-84507800D02*
X121844761Y-84538276D01*
X121844761Y-84538276D02*
X121905714Y-84538276D01*
X121905714Y-84538276D02*
X121966666Y-84507800D01*
X121966666Y-84507800D02*
X121997142Y-84477323D01*
X121997142Y-84477323D02*
X122027619Y-84416371D01*
X122027619Y-84416371D02*
X122058095Y-84294466D01*
X122058095Y-84294466D02*
X122058095Y-84142085D01*
X122058095Y-84142085D02*
X122027619Y-84020180D01*
X122027619Y-84020180D02*
X121997142Y-83959228D01*
X121997142Y-83959228D02*
X121966666Y-83928752D01*
X121966666Y-83928752D02*
X121905714Y-83898276D01*
X105916666Y-85819366D02*
X105949999Y-85852700D01*
X105949999Y-85852700D02*
X106049999Y-85886033D01*
X106049999Y-85886033D02*
X106116666Y-85886033D01*
X106116666Y-85886033D02*
X106216666Y-85852700D01*
X106216666Y-85852700D02*
X106283333Y-85786033D01*
X106283333Y-85786033D02*
X106316666Y-85719366D01*
X106316666Y-85719366D02*
X106349999Y-85586033D01*
X106349999Y-85586033D02*
X106349999Y-85486033D01*
X106349999Y-85486033D02*
X106316666Y-85352700D01*
X106316666Y-85352700D02*
X106283333Y-85286033D01*
X106283333Y-85286033D02*
X106216666Y-85219366D01*
X106216666Y-85219366D02*
X106116666Y-85186033D01*
X106116666Y-85186033D02*
X106049999Y-85186033D01*
X106049999Y-85186033D02*
X105949999Y-85219366D01*
X105949999Y-85219366D02*
X105916666Y-85252700D01*
X105583333Y-85886033D02*
X105449999Y-85886033D01*
X105449999Y-85886033D02*
X105383333Y-85852700D01*
X105383333Y-85852700D02*
X105349999Y-85819366D01*
X105349999Y-85819366D02*
X105283333Y-85719366D01*
X105283333Y-85719366D02*
X105249999Y-85586033D01*
X105249999Y-85586033D02*
X105249999Y-85319366D01*
X105249999Y-85319366D02*
X105283333Y-85252700D01*
X105283333Y-85252700D02*
X105316666Y-85219366D01*
X105316666Y-85219366D02*
X105383333Y-85186033D01*
X105383333Y-85186033D02*
X105516666Y-85186033D01*
X105516666Y-85186033D02*
X105583333Y-85219366D01*
X105583333Y-85219366D02*
X105616666Y-85252700D01*
X105616666Y-85252700D02*
X105649999Y-85319366D01*
X105649999Y-85319366D02*
X105649999Y-85486033D01*
X105649999Y-85486033D02*
X105616666Y-85552700D01*
X105616666Y-85552700D02*
X105583333Y-85586033D01*
X105583333Y-85586033D02*
X105516666Y-85619366D01*
X105516666Y-85619366D02*
X105383333Y-85619366D01*
X105383333Y-85619366D02*
X105316666Y-85586033D01*
X105316666Y-85586033D02*
X105283333Y-85552700D01*
X105283333Y-85552700D02*
X105249999Y-85486033D01*
X106038428Y-80797323D02*
X106068904Y-80827800D01*
X106068904Y-80827800D02*
X106160333Y-80858276D01*
X106160333Y-80858276D02*
X106221285Y-80858276D01*
X106221285Y-80858276D02*
X106312714Y-80827800D01*
X106312714Y-80827800D02*
X106373666Y-80766847D01*
X106373666Y-80766847D02*
X106404143Y-80705895D01*
X106404143Y-80705895D02*
X106434619Y-80583990D01*
X106434619Y-80583990D02*
X106434619Y-80492561D01*
X106434619Y-80492561D02*
X106404143Y-80370657D01*
X106404143Y-80370657D02*
X106373666Y-80309704D01*
X106373666Y-80309704D02*
X106312714Y-80248752D01*
X106312714Y-80248752D02*
X106221285Y-80218276D01*
X106221285Y-80218276D02*
X106160333Y-80218276D01*
X106160333Y-80218276D02*
X106068904Y-80248752D01*
X106068904Y-80248752D02*
X106038428Y-80279228D01*
X105428904Y-80858276D02*
X105794619Y-80858276D01*
X105611762Y-80858276D02*
X105611762Y-80218276D01*
X105611762Y-80218276D02*
X105672714Y-80309704D01*
X105672714Y-80309704D02*
X105733666Y-80370657D01*
X105733666Y-80370657D02*
X105794619Y-80401133D01*
X105032714Y-80218276D02*
X104971761Y-80218276D01*
X104971761Y-80218276D02*
X104910809Y-80248752D01*
X104910809Y-80248752D02*
X104880333Y-80279228D01*
X104880333Y-80279228D02*
X104849857Y-80340180D01*
X104849857Y-80340180D02*
X104819380Y-80462085D01*
X104819380Y-80462085D02*
X104819380Y-80614466D01*
X104819380Y-80614466D02*
X104849857Y-80736371D01*
X104849857Y-80736371D02*
X104880333Y-80797323D01*
X104880333Y-80797323D02*
X104910809Y-80827800D01*
X104910809Y-80827800D02*
X104971761Y-80858276D01*
X104971761Y-80858276D02*
X105032714Y-80858276D01*
X105032714Y-80858276D02*
X105093666Y-80827800D01*
X105093666Y-80827800D02*
X105124142Y-80797323D01*
X105124142Y-80797323D02*
X105154619Y-80736371D01*
X105154619Y-80736371D02*
X105185095Y-80614466D01*
X105185095Y-80614466D02*
X105185095Y-80462085D01*
X105185095Y-80462085D02*
X105154619Y-80340180D01*
X105154619Y-80340180D02*
X105124142Y-80279228D01*
X105124142Y-80279228D02*
X105093666Y-80248752D01*
X105093666Y-80248752D02*
X105032714Y-80218276D01*
X148514285Y-92776104D02*
X148552381Y-92814200D01*
X148552381Y-92814200D02*
X148666666Y-92852295D01*
X148666666Y-92852295D02*
X148742857Y-92852295D01*
X148742857Y-92852295D02*
X148857143Y-92814200D01*
X148857143Y-92814200D02*
X148933333Y-92738009D01*
X148933333Y-92738009D02*
X148971428Y-92661819D01*
X148971428Y-92661819D02*
X149009524Y-92509438D01*
X149009524Y-92509438D02*
X149009524Y-92395152D01*
X149009524Y-92395152D02*
X148971428Y-92242771D01*
X148971428Y-92242771D02*
X148933333Y-92166580D01*
X148933333Y-92166580D02*
X148857143Y-92090390D01*
X148857143Y-92090390D02*
X148742857Y-92052295D01*
X148742857Y-92052295D02*
X148666666Y-92052295D01*
X148666666Y-92052295D02*
X148552381Y-92090390D01*
X148552381Y-92090390D02*
X148514285Y-92128485D01*
X147752381Y-92852295D02*
X148209524Y-92852295D01*
X147980952Y-92852295D02*
X147980952Y-92052295D01*
X147980952Y-92052295D02*
X148057143Y-92166580D01*
X148057143Y-92166580D02*
X148133333Y-92242771D01*
X148133333Y-92242771D02*
X148209524Y-92280866D01*
X147295238Y-92395152D02*
X147371428Y-92357057D01*
X147371428Y-92357057D02*
X147409523Y-92318961D01*
X147409523Y-92318961D02*
X147447619Y-92242771D01*
X147447619Y-92242771D02*
X147447619Y-92204676D01*
X147447619Y-92204676D02*
X147409523Y-92128485D01*
X147409523Y-92128485D02*
X147371428Y-92090390D01*
X147371428Y-92090390D02*
X147295238Y-92052295D01*
X147295238Y-92052295D02*
X147142857Y-92052295D01*
X147142857Y-92052295D02*
X147066666Y-92090390D01*
X147066666Y-92090390D02*
X147028571Y-92128485D01*
X147028571Y-92128485D02*
X146990476Y-92204676D01*
X146990476Y-92204676D02*
X146990476Y-92242771D01*
X146990476Y-92242771D02*
X147028571Y-92318961D01*
X147028571Y-92318961D02*
X147066666Y-92357057D01*
X147066666Y-92357057D02*
X147142857Y-92395152D01*
X147142857Y-92395152D02*
X147295238Y-92395152D01*
X147295238Y-92395152D02*
X147371428Y-92433247D01*
X147371428Y-92433247D02*
X147409523Y-92471342D01*
X147409523Y-92471342D02*
X147447619Y-92547533D01*
X147447619Y-92547533D02*
X147447619Y-92699914D01*
X147447619Y-92699914D02*
X147409523Y-92776104D01*
X147409523Y-92776104D02*
X147371428Y-92814200D01*
X147371428Y-92814200D02*
X147295238Y-92852295D01*
X147295238Y-92852295D02*
X147142857Y-92852295D01*
X147142857Y-92852295D02*
X147066666Y-92814200D01*
X147066666Y-92814200D02*
X147028571Y-92776104D01*
X147028571Y-92776104D02*
X146990476Y-92699914D01*
X146990476Y-92699914D02*
X146990476Y-92547533D01*
X146990476Y-92547533D02*
X147028571Y-92471342D01*
X147028571Y-92471342D02*
X147066666Y-92433247D01*
X147066666Y-92433247D02*
X147142857Y-92395152D01*
X158661428Y-96788276D02*
X158874762Y-96483514D01*
X159027143Y-96788276D02*
X159027143Y-96148276D01*
X159027143Y-96148276D02*
X158783333Y-96148276D01*
X158783333Y-96148276D02*
X158722381Y-96178752D01*
X158722381Y-96178752D02*
X158691904Y-96209228D01*
X158691904Y-96209228D02*
X158661428Y-96270180D01*
X158661428Y-96270180D02*
X158661428Y-96361609D01*
X158661428Y-96361609D02*
X158691904Y-96422561D01*
X158691904Y-96422561D02*
X158722381Y-96453038D01*
X158722381Y-96453038D02*
X158783333Y-96483514D01*
X158783333Y-96483514D02*
X159027143Y-96483514D01*
X158051904Y-96788276D02*
X158417619Y-96788276D01*
X158234762Y-96788276D02*
X158234762Y-96148276D01*
X158234762Y-96148276D02*
X158295714Y-96239704D01*
X158295714Y-96239704D02*
X158356666Y-96300657D01*
X158356666Y-96300657D02*
X158417619Y-96331133D01*
X157503333Y-96148276D02*
X157625238Y-96148276D01*
X157625238Y-96148276D02*
X157686190Y-96178752D01*
X157686190Y-96178752D02*
X157716666Y-96209228D01*
X157716666Y-96209228D02*
X157777619Y-96300657D01*
X157777619Y-96300657D02*
X157808095Y-96422561D01*
X157808095Y-96422561D02*
X157808095Y-96666371D01*
X157808095Y-96666371D02*
X157777619Y-96727323D01*
X157777619Y-96727323D02*
X157747142Y-96757800D01*
X157747142Y-96757800D02*
X157686190Y-96788276D01*
X157686190Y-96788276D02*
X157564285Y-96788276D01*
X157564285Y-96788276D02*
X157503333Y-96757800D01*
X157503333Y-96757800D02*
X157472857Y-96727323D01*
X157472857Y-96727323D02*
X157442380Y-96666371D01*
X157442380Y-96666371D02*
X157442380Y-96513990D01*
X157442380Y-96513990D02*
X157472857Y-96453038D01*
X157472857Y-96453038D02*
X157503333Y-96422561D01*
X157503333Y-96422561D02*
X157564285Y-96392085D01*
X157564285Y-96392085D02*
X157686190Y-96392085D01*
X157686190Y-96392085D02*
X157747142Y-96422561D01*
X157747142Y-96422561D02*
X157777619Y-96453038D01*
X157777619Y-96453038D02*
X157808095Y-96513990D01*
X155874666Y-73681876D02*
X156088000Y-73377114D01*
X156240381Y-73681876D02*
X156240381Y-73041876D01*
X156240381Y-73041876D02*
X155996571Y-73041876D01*
X155996571Y-73041876D02*
X155935619Y-73072352D01*
X155935619Y-73072352D02*
X155905142Y-73102828D01*
X155905142Y-73102828D02*
X155874666Y-73163780D01*
X155874666Y-73163780D02*
X155874666Y-73255209D01*
X155874666Y-73255209D02*
X155905142Y-73316161D01*
X155905142Y-73316161D02*
X155935619Y-73346638D01*
X155935619Y-73346638D02*
X155996571Y-73377114D01*
X155996571Y-73377114D02*
X156240381Y-73377114D01*
X155661333Y-73041876D02*
X155234666Y-73041876D01*
X155234666Y-73041876D02*
X155508952Y-73681876D01*
X146616666Y-76499366D02*
X146649999Y-76532700D01*
X146649999Y-76532700D02*
X146749999Y-76566033D01*
X146749999Y-76566033D02*
X146816666Y-76566033D01*
X146816666Y-76566033D02*
X146916666Y-76532700D01*
X146916666Y-76532700D02*
X146983333Y-76466033D01*
X146983333Y-76466033D02*
X147016666Y-76399366D01*
X147016666Y-76399366D02*
X147049999Y-76266033D01*
X147049999Y-76266033D02*
X147049999Y-76166033D01*
X147049999Y-76166033D02*
X147016666Y-76032700D01*
X147016666Y-76032700D02*
X146983333Y-75966033D01*
X146983333Y-75966033D02*
X146916666Y-75899366D01*
X146916666Y-75899366D02*
X146816666Y-75866033D01*
X146816666Y-75866033D02*
X146749999Y-75866033D01*
X146749999Y-75866033D02*
X146649999Y-75899366D01*
X146649999Y-75899366D02*
X146616666Y-75932700D01*
X146016666Y-76099366D02*
X146016666Y-76566033D01*
X146183333Y-75832700D02*
X146349999Y-76332700D01*
X146349999Y-76332700D02*
X145916666Y-76332700D01*
X151679428Y-75431876D02*
X151892762Y-75127114D01*
X152045143Y-75431876D02*
X152045143Y-74791876D01*
X152045143Y-74791876D02*
X151801333Y-74791876D01*
X151801333Y-74791876D02*
X151740381Y-74822352D01*
X151740381Y-74822352D02*
X151709904Y-74852828D01*
X151709904Y-74852828D02*
X151679428Y-74913780D01*
X151679428Y-74913780D02*
X151679428Y-75005209D01*
X151679428Y-75005209D02*
X151709904Y-75066161D01*
X151709904Y-75066161D02*
X151740381Y-75096638D01*
X151740381Y-75096638D02*
X151801333Y-75127114D01*
X151801333Y-75127114D02*
X152045143Y-75127114D01*
X151069904Y-75431876D02*
X151435619Y-75431876D01*
X151252762Y-75431876D02*
X151252762Y-74791876D01*
X151252762Y-74791876D02*
X151313714Y-74883304D01*
X151313714Y-74883304D02*
X151374666Y-74944257D01*
X151374666Y-74944257D02*
X151435619Y-74974733D01*
X150856571Y-74791876D02*
X150460380Y-74791876D01*
X150460380Y-74791876D02*
X150673714Y-75035685D01*
X150673714Y-75035685D02*
X150582285Y-75035685D01*
X150582285Y-75035685D02*
X150521333Y-75066161D01*
X150521333Y-75066161D02*
X150490857Y-75096638D01*
X150490857Y-75096638D02*
X150460380Y-75157590D01*
X150460380Y-75157590D02*
X150460380Y-75309971D01*
X150460380Y-75309971D02*
X150490857Y-75370923D01*
X150490857Y-75370923D02*
X150521333Y-75401400D01*
X150521333Y-75401400D02*
X150582285Y-75431876D01*
X150582285Y-75431876D02*
X150765142Y-75431876D01*
X150765142Y-75431876D02*
X150826095Y-75401400D01*
X150826095Y-75401400D02*
X150856571Y-75370923D01*
X153383333Y-87492295D02*
X153764285Y-87492295D01*
X153764285Y-87492295D02*
X153764285Y-86692295D01*
X152697619Y-87492295D02*
X153154762Y-87492295D01*
X152926190Y-87492295D02*
X152926190Y-86692295D01*
X152926190Y-86692295D02*
X153002381Y-86806580D01*
X153002381Y-86806580D02*
X153078571Y-86882771D01*
X153078571Y-86882771D02*
X153154762Y-86920866D01*
X157261904Y-78954819D02*
X157261904Y-79764342D01*
X157261904Y-79764342D02*
X157214285Y-79859580D01*
X157214285Y-79859580D02*
X157166666Y-79907200D01*
X157166666Y-79907200D02*
X157071428Y-79954819D01*
X157071428Y-79954819D02*
X156880952Y-79954819D01*
X156880952Y-79954819D02*
X156785714Y-79907200D01*
X156785714Y-79907200D02*
X156738095Y-79859580D01*
X156738095Y-79859580D02*
X156690476Y-79764342D01*
X156690476Y-79764342D02*
X156690476Y-78954819D01*
X155785714Y-78954819D02*
X155976190Y-78954819D01*
X155976190Y-78954819D02*
X156071428Y-79002438D01*
X156071428Y-79002438D02*
X156119047Y-79050057D01*
X156119047Y-79050057D02*
X156214285Y-79192914D01*
X156214285Y-79192914D02*
X156261904Y-79383390D01*
X156261904Y-79383390D02*
X156261904Y-79764342D01*
X156261904Y-79764342D02*
X156214285Y-79859580D01*
X156214285Y-79859580D02*
X156166666Y-79907200D01*
X156166666Y-79907200D02*
X156071428Y-79954819D01*
X156071428Y-79954819D02*
X155880952Y-79954819D01*
X155880952Y-79954819D02*
X155785714Y-79907200D01*
X155785714Y-79907200D02*
X155738095Y-79859580D01*
X155738095Y-79859580D02*
X155690476Y-79764342D01*
X155690476Y-79764342D02*
X155690476Y-79526247D01*
X155690476Y-79526247D02*
X155738095Y-79431009D01*
X155738095Y-79431009D02*
X155785714Y-79383390D01*
X155785714Y-79383390D02*
X155880952Y-79335771D01*
X155880952Y-79335771D02*
X156071428Y-79335771D01*
X156071428Y-79335771D02*
X156166666Y-79383390D01*
X156166666Y-79383390D02*
X156214285Y-79431009D01*
X156214285Y-79431009D02*
X156261904Y-79526247D01*
X144606666Y-76477323D02*
X144637142Y-76507800D01*
X144637142Y-76507800D02*
X144728571Y-76538276D01*
X144728571Y-76538276D02*
X144789523Y-76538276D01*
X144789523Y-76538276D02*
X144880952Y-76507800D01*
X144880952Y-76507800D02*
X144941904Y-76446847D01*
X144941904Y-76446847D02*
X144972381Y-76385895D01*
X144972381Y-76385895D02*
X145002857Y-76263990D01*
X145002857Y-76263990D02*
X145002857Y-76172561D01*
X145002857Y-76172561D02*
X144972381Y-76050657D01*
X144972381Y-76050657D02*
X144941904Y-75989704D01*
X144941904Y-75989704D02*
X144880952Y-75928752D01*
X144880952Y-75928752D02*
X144789523Y-75898276D01*
X144789523Y-75898276D02*
X144728571Y-75898276D01*
X144728571Y-75898276D02*
X144637142Y-75928752D01*
X144637142Y-75928752D02*
X144606666Y-75959228D01*
X144027619Y-75898276D02*
X144332381Y-75898276D01*
X144332381Y-75898276D02*
X144362857Y-76203038D01*
X144362857Y-76203038D02*
X144332381Y-76172561D01*
X144332381Y-76172561D02*
X144271428Y-76142085D01*
X144271428Y-76142085D02*
X144119047Y-76142085D01*
X144119047Y-76142085D02*
X144058095Y-76172561D01*
X144058095Y-76172561D02*
X144027619Y-76203038D01*
X144027619Y-76203038D02*
X143997142Y-76263990D01*
X143997142Y-76263990D02*
X143997142Y-76416371D01*
X143997142Y-76416371D02*
X144027619Y-76477323D01*
X144027619Y-76477323D02*
X144058095Y-76507800D01*
X144058095Y-76507800D02*
X144119047Y-76538276D01*
X144119047Y-76538276D02*
X144271428Y-76538276D01*
X144271428Y-76538276D02*
X144332381Y-76507800D01*
X144332381Y-76507800D02*
X144362857Y-76477323D01*
X140874666Y-73431876D02*
X141088000Y-73127114D01*
X141240381Y-73431876D02*
X141240381Y-72791876D01*
X141240381Y-72791876D02*
X140996571Y-72791876D01*
X140996571Y-72791876D02*
X140935619Y-72822352D01*
X140935619Y-72822352D02*
X140905142Y-72852828D01*
X140905142Y-72852828D02*
X140874666Y-72913780D01*
X140874666Y-72913780D02*
X140874666Y-73005209D01*
X140874666Y-73005209D02*
X140905142Y-73066161D01*
X140905142Y-73066161D02*
X140935619Y-73096638D01*
X140935619Y-73096638D02*
X140996571Y-73127114D01*
X140996571Y-73127114D02*
X141240381Y-73127114D01*
X140326095Y-72791876D02*
X140448000Y-72791876D01*
X140448000Y-72791876D02*
X140508952Y-72822352D01*
X140508952Y-72822352D02*
X140539428Y-72852828D01*
X140539428Y-72852828D02*
X140600381Y-72944257D01*
X140600381Y-72944257D02*
X140630857Y-73066161D01*
X140630857Y-73066161D02*
X140630857Y-73309971D01*
X140630857Y-73309971D02*
X140600381Y-73370923D01*
X140600381Y-73370923D02*
X140569904Y-73401400D01*
X140569904Y-73401400D02*
X140508952Y-73431876D01*
X140508952Y-73431876D02*
X140387047Y-73431876D01*
X140387047Y-73431876D02*
X140326095Y-73401400D01*
X140326095Y-73401400D02*
X140295619Y-73370923D01*
X140295619Y-73370923D02*
X140265142Y-73309971D01*
X140265142Y-73309971D02*
X140265142Y-73157590D01*
X140265142Y-73157590D02*
X140295619Y-73096638D01*
X140295619Y-73096638D02*
X140326095Y-73066161D01*
X140326095Y-73066161D02*
X140387047Y-73035685D01*
X140387047Y-73035685D02*
X140508952Y-73035685D01*
X140508952Y-73035685D02*
X140569904Y-73066161D01*
X140569904Y-73066161D02*
X140600381Y-73096638D01*
X140600381Y-73096638D02*
X140630857Y-73157590D01*
X111106666Y-77227323D02*
X111137142Y-77257800D01*
X111137142Y-77257800D02*
X111228571Y-77288276D01*
X111228571Y-77288276D02*
X111289523Y-77288276D01*
X111289523Y-77288276D02*
X111380952Y-77257800D01*
X111380952Y-77257800D02*
X111441904Y-77196847D01*
X111441904Y-77196847D02*
X111472381Y-77135895D01*
X111472381Y-77135895D02*
X111502857Y-77013990D01*
X111502857Y-77013990D02*
X111502857Y-76922561D01*
X111502857Y-76922561D02*
X111472381Y-76800657D01*
X111472381Y-76800657D02*
X111441904Y-76739704D01*
X111441904Y-76739704D02*
X111380952Y-76678752D01*
X111380952Y-76678752D02*
X111289523Y-76648276D01*
X111289523Y-76648276D02*
X111228571Y-76648276D01*
X111228571Y-76648276D02*
X111137142Y-76678752D01*
X111137142Y-76678752D02*
X111106666Y-76709228D01*
X110740952Y-76922561D02*
X110801904Y-76892085D01*
X110801904Y-76892085D02*
X110832381Y-76861609D01*
X110832381Y-76861609D02*
X110862857Y-76800657D01*
X110862857Y-76800657D02*
X110862857Y-76770180D01*
X110862857Y-76770180D02*
X110832381Y-76709228D01*
X110832381Y-76709228D02*
X110801904Y-76678752D01*
X110801904Y-76678752D02*
X110740952Y-76648276D01*
X110740952Y-76648276D02*
X110619047Y-76648276D01*
X110619047Y-76648276D02*
X110558095Y-76678752D01*
X110558095Y-76678752D02*
X110527619Y-76709228D01*
X110527619Y-76709228D02*
X110497142Y-76770180D01*
X110497142Y-76770180D02*
X110497142Y-76800657D01*
X110497142Y-76800657D02*
X110527619Y-76861609D01*
X110527619Y-76861609D02*
X110558095Y-76892085D01*
X110558095Y-76892085D02*
X110619047Y-76922561D01*
X110619047Y-76922561D02*
X110740952Y-76922561D01*
X110740952Y-76922561D02*
X110801904Y-76953038D01*
X110801904Y-76953038D02*
X110832381Y-76983514D01*
X110832381Y-76983514D02*
X110862857Y-77044466D01*
X110862857Y-77044466D02*
X110862857Y-77166371D01*
X110862857Y-77166371D02*
X110832381Y-77227323D01*
X110832381Y-77227323D02*
X110801904Y-77257800D01*
X110801904Y-77257800D02*
X110740952Y-77288276D01*
X110740952Y-77288276D02*
X110619047Y-77288276D01*
X110619047Y-77288276D02*
X110558095Y-77257800D01*
X110558095Y-77257800D02*
X110527619Y-77227323D01*
X110527619Y-77227323D02*
X110497142Y-77166371D01*
X110497142Y-77166371D02*
X110497142Y-77044466D01*
X110497142Y-77044466D02*
X110527619Y-76983514D01*
X110527619Y-76983514D02*
X110558095Y-76953038D01*
X110558095Y-76953038D02*
X110619047Y-76922561D01*
X118788094Y-86892319D02*
X118788094Y-85892319D01*
X118788094Y-85892319D02*
X118549999Y-85892319D01*
X118549999Y-85892319D02*
X118407142Y-85939938D01*
X118407142Y-85939938D02*
X118311904Y-86035176D01*
X118311904Y-86035176D02*
X118264285Y-86130414D01*
X118264285Y-86130414D02*
X118216666Y-86320890D01*
X118216666Y-86320890D02*
X118216666Y-86463747D01*
X118216666Y-86463747D02*
X118264285Y-86654223D01*
X118264285Y-86654223D02*
X118311904Y-86749461D01*
X118311904Y-86749461D02*
X118407142Y-86844700D01*
X118407142Y-86844700D02*
X118549999Y-86892319D01*
X118549999Y-86892319D02*
X118788094Y-86892319D01*
X117883332Y-85892319D02*
X117264285Y-85892319D01*
X117264285Y-85892319D02*
X117597618Y-86273271D01*
X117597618Y-86273271D02*
X117454761Y-86273271D01*
X117454761Y-86273271D02*
X117359523Y-86320890D01*
X117359523Y-86320890D02*
X117311904Y-86368509D01*
X117311904Y-86368509D02*
X117264285Y-86463747D01*
X117264285Y-86463747D02*
X117264285Y-86701842D01*
X117264285Y-86701842D02*
X117311904Y-86797080D01*
X117311904Y-86797080D02*
X117359523Y-86844700D01*
X117359523Y-86844700D02*
X117454761Y-86892319D01*
X117454761Y-86892319D02*
X117740475Y-86892319D01*
X117740475Y-86892319D02*
X117835713Y-86844700D01*
X117835713Y-86844700D02*
X117883332Y-86797080D01*
X160764285Y-92036104D02*
X160802381Y-92074200D01*
X160802381Y-92074200D02*
X160916666Y-92112295D01*
X160916666Y-92112295D02*
X160992857Y-92112295D01*
X160992857Y-92112295D02*
X161107143Y-92074200D01*
X161107143Y-92074200D02*
X161183333Y-91998009D01*
X161183333Y-91998009D02*
X161221428Y-91921819D01*
X161221428Y-91921819D02*
X161259524Y-91769438D01*
X161259524Y-91769438D02*
X161259524Y-91655152D01*
X161259524Y-91655152D02*
X161221428Y-91502771D01*
X161221428Y-91502771D02*
X161183333Y-91426580D01*
X161183333Y-91426580D02*
X161107143Y-91350390D01*
X161107143Y-91350390D02*
X160992857Y-91312295D01*
X160992857Y-91312295D02*
X160916666Y-91312295D01*
X160916666Y-91312295D02*
X160802381Y-91350390D01*
X160802381Y-91350390D02*
X160764285Y-91388485D01*
X160002381Y-92112295D02*
X160459524Y-92112295D01*
X160230952Y-92112295D02*
X160230952Y-91312295D01*
X160230952Y-91312295D02*
X160307143Y-91426580D01*
X160307143Y-91426580D02*
X160383333Y-91502771D01*
X160383333Y-91502771D02*
X160459524Y-91540866D01*
X159316666Y-91578961D02*
X159316666Y-92112295D01*
X159507142Y-91274200D02*
X159697619Y-91845628D01*
X159697619Y-91845628D02*
X159202380Y-91845628D01*
X144394676Y-87736571D02*
X144089914Y-87523237D01*
X144394676Y-87370856D02*
X143754676Y-87370856D01*
X143754676Y-87370856D02*
X143754676Y-87614666D01*
X143754676Y-87614666D02*
X143785152Y-87675618D01*
X143785152Y-87675618D02*
X143815628Y-87706095D01*
X143815628Y-87706095D02*
X143876580Y-87736571D01*
X143876580Y-87736571D02*
X143968009Y-87736571D01*
X143968009Y-87736571D02*
X144028961Y-87706095D01*
X144028961Y-87706095D02*
X144059438Y-87675618D01*
X144059438Y-87675618D02*
X144089914Y-87614666D01*
X144089914Y-87614666D02*
X144089914Y-87370856D01*
X144394676Y-88346095D02*
X144394676Y-87980380D01*
X144394676Y-88163237D02*
X143754676Y-88163237D01*
X143754676Y-88163237D02*
X143846104Y-88102285D01*
X143846104Y-88102285D02*
X143907057Y-88041333D01*
X143907057Y-88041333D02*
X143937533Y-87980380D01*
X143968009Y-88894666D02*
X144394676Y-88894666D01*
X143724200Y-88742285D02*
X144181342Y-88589904D01*
X144181342Y-88589904D02*
X144181342Y-88986095D01*
X109761904Y-77954819D02*
X109761904Y-78764342D01*
X109761904Y-78764342D02*
X109714285Y-78859580D01*
X109714285Y-78859580D02*
X109666666Y-78907200D01*
X109666666Y-78907200D02*
X109571428Y-78954819D01*
X109571428Y-78954819D02*
X109380952Y-78954819D01*
X109380952Y-78954819D02*
X109285714Y-78907200D01*
X109285714Y-78907200D02*
X109238095Y-78859580D01*
X109238095Y-78859580D02*
X109190476Y-78764342D01*
X109190476Y-78764342D02*
X109190476Y-77954819D01*
X108238095Y-77954819D02*
X108714285Y-77954819D01*
X108714285Y-77954819D02*
X108761904Y-78431009D01*
X108761904Y-78431009D02*
X108714285Y-78383390D01*
X108714285Y-78383390D02*
X108619047Y-78335771D01*
X108619047Y-78335771D02*
X108380952Y-78335771D01*
X108380952Y-78335771D02*
X108285714Y-78383390D01*
X108285714Y-78383390D02*
X108238095Y-78431009D01*
X108238095Y-78431009D02*
X108190476Y-78526247D01*
X108190476Y-78526247D02*
X108190476Y-78764342D01*
X108190476Y-78764342D02*
X108238095Y-78859580D01*
X108238095Y-78859580D02*
X108285714Y-78907200D01*
X108285714Y-78907200D02*
X108380952Y-78954819D01*
X108380952Y-78954819D02*
X108619047Y-78954819D01*
X108619047Y-78954819D02*
X108714285Y-78907200D01*
X108714285Y-78907200D02*
X108761904Y-78859580D01*
X154264285Y-97036104D02*
X154302381Y-97074200D01*
X154302381Y-97074200D02*
X154416666Y-97112295D01*
X154416666Y-97112295D02*
X154492857Y-97112295D01*
X154492857Y-97112295D02*
X154607143Y-97074200D01*
X154607143Y-97074200D02*
X154683333Y-96998009D01*
X154683333Y-96998009D02*
X154721428Y-96921819D01*
X154721428Y-96921819D02*
X154759524Y-96769438D01*
X154759524Y-96769438D02*
X154759524Y-96655152D01*
X154759524Y-96655152D02*
X154721428Y-96502771D01*
X154721428Y-96502771D02*
X154683333Y-96426580D01*
X154683333Y-96426580D02*
X154607143Y-96350390D01*
X154607143Y-96350390D02*
X154492857Y-96312295D01*
X154492857Y-96312295D02*
X154416666Y-96312295D01*
X154416666Y-96312295D02*
X154302381Y-96350390D01*
X154302381Y-96350390D02*
X154264285Y-96388485D01*
X153502381Y-97112295D02*
X153959524Y-97112295D01*
X153730952Y-97112295D02*
X153730952Y-96312295D01*
X153730952Y-96312295D02*
X153807143Y-96426580D01*
X153807143Y-96426580D02*
X153883333Y-96502771D01*
X153883333Y-96502771D02*
X153959524Y-96540866D01*
X153197619Y-96388485D02*
X153159523Y-96350390D01*
X153159523Y-96350390D02*
X153083333Y-96312295D01*
X153083333Y-96312295D02*
X152892857Y-96312295D01*
X152892857Y-96312295D02*
X152816666Y-96350390D01*
X152816666Y-96350390D02*
X152778571Y-96388485D01*
X152778571Y-96388485D02*
X152740476Y-96464676D01*
X152740476Y-96464676D02*
X152740476Y-96540866D01*
X152740476Y-96540866D02*
X152778571Y-96655152D01*
X152778571Y-96655152D02*
X153235714Y-97112295D01*
X153235714Y-97112295D02*
X152740476Y-97112295D01*
X143894676Y-75911333D02*
X143589914Y-75697999D01*
X143894676Y-75545618D02*
X143254676Y-75545618D01*
X143254676Y-75545618D02*
X143254676Y-75789428D01*
X143254676Y-75789428D02*
X143285152Y-75850380D01*
X143285152Y-75850380D02*
X143315628Y-75880857D01*
X143315628Y-75880857D02*
X143376580Y-75911333D01*
X143376580Y-75911333D02*
X143468009Y-75911333D01*
X143468009Y-75911333D02*
X143528961Y-75880857D01*
X143528961Y-75880857D02*
X143559438Y-75850380D01*
X143559438Y-75850380D02*
X143589914Y-75789428D01*
X143589914Y-75789428D02*
X143589914Y-75545618D01*
X143468009Y-76459904D02*
X143894676Y-76459904D01*
X143224200Y-76307523D02*
X143681342Y-76155142D01*
X143681342Y-76155142D02*
X143681342Y-76551333D01*
D11*
%TO.C,U4*%
X112440000Y-80955000D02*
X112440000Y-82555000D01*
X115560000Y-82555000D02*
X115560000Y-80955000D01*
D12*
X113150000Y-79255000D02*
G75*
G02*
X112950000Y-79255000I-100000J0D01*
G01*
X112950000Y-79255000D02*
G75*
G02*
X113150000Y-79255000I100000J0D01*
G01*
D11*
%TO.C,R12*%
X118180000Y-80037500D02*
X118020000Y-80037500D01*
X118180000Y-80837500D02*
X118020000Y-80837500D01*
%TO.C,R15*%
X151350000Y-93670000D02*
X151350000Y-93830000D01*
X152150000Y-93670000D02*
X152150000Y-93830000D01*
%TO.C,D5*%
X151740000Y-89005000D02*
X153440000Y-89005000D01*
X153440000Y-90255000D02*
X151740000Y-90255000D01*
D12*
X154690000Y-89630000D02*
G75*
G02*
X154490000Y-89630000I-100000J0D01*
G01*
X154490000Y-89630000D02*
G75*
G02*
X154690000Y-89630000I100000J0D01*
G01*
%TO.C,C15*%
X154950000Y-88000000D02*
X156050000Y-88000000D01*
D11*
%TO.C,U10*%
X189025000Y-80225000D02*
X189025000Y-85955000D01*
X194755000Y-87225000D02*
X189025000Y-87225000D01*
X196025000Y-80225000D02*
X190295000Y-80225000D01*
X196025000Y-81495000D02*
X196025000Y-87225000D01*
D12*
X188525000Y-80825000D02*
G75*
G02*
X188325000Y-80825000I-100000J0D01*
G01*
X188325000Y-80825000D02*
G75*
G02*
X188525000Y-80825000I100000J0D01*
G01*
D11*
%TO.C,FB2*%
X153750000Y-92150000D02*
X154750000Y-92150000D01*
X154750000Y-90850000D02*
X153750000Y-90850000D01*
D13*
%TO.C,Q1*%
X121287500Y-78940000D02*
X121937500Y-78940000D01*
X121287500Y-82060000D02*
X121937500Y-82060000D01*
X122587500Y-78940000D02*
X121937500Y-78940000D01*
X122587500Y-82060000D02*
X121937500Y-82060000D01*
X123100000Y-78990000D02*
X122860000Y-78660000D01*
X123340000Y-78660000D01*
X123100000Y-78990000D01*
G36*
X123100000Y-78990000D02*
G01*
X122860000Y-78660000D01*
X123340000Y-78660000D01*
X123100000Y-78990000D01*
G37*
D11*
%TO.C,FB3*%
X151490000Y-92140000D02*
X152490000Y-92140000D01*
X152490000Y-90840000D02*
X151490000Y-90840000D01*
D12*
%TO.C,C13*%
X156800000Y-98100000D02*
X155700000Y-98100000D01*
D11*
%TO.C,R9*%
X155080000Y-76100000D02*
X154920000Y-76100000D01*
X155080000Y-76900000D02*
X154920000Y-76900000D01*
%TO.C,U8*%
X146730000Y-87060000D02*
X144970000Y-87060000D01*
X146730000Y-90200000D02*
X144970000Y-90200000D01*
D12*
X143450000Y-89630000D02*
G75*
G02*
X143250000Y-89630000I-100000J0D01*
G01*
X143250000Y-89630000D02*
G75*
G02*
X143450000Y-89630000I100000J0D01*
G01*
D11*
%TO.C,R11*%
X111420000Y-85100000D02*
X111580000Y-85100000D01*
X111420000Y-85900000D02*
X111580000Y-85900000D01*
%TO.C,R10*%
X120200000Y-84292500D02*
X120200000Y-84132500D01*
X121000000Y-84292500D02*
X121000000Y-84132500D01*
%TO.C,R16*%
X155850000Y-94330000D02*
X155850000Y-94170000D01*
X156650000Y-94330000D02*
X156650000Y-94170000D01*
%TO.C,R7*%
X156420000Y-74350000D02*
X156580000Y-74350000D01*
X156420000Y-75150000D02*
X156580000Y-75150000D01*
%TO.C,R13*%
X151920000Y-76100000D02*
X152080000Y-76100000D01*
X151920000Y-76900000D02*
X152080000Y-76900000D01*
%TO.C,L1*%
X152350000Y-83960000D02*
X148350000Y-83960000D01*
X152350000Y-88300000D02*
X148350000Y-88300000D01*
%TO.C,U6*%
X152740000Y-77940000D02*
X152740000Y-78880000D01*
X152740000Y-77940000D02*
X154140000Y-77940000D01*
X152740000Y-80120000D02*
X152740000Y-81060000D01*
X152740000Y-81060000D02*
X154140000Y-81060000D01*
D12*
X155640000Y-78500000D02*
G75*
G02*
X155440000Y-78500000I-100000J0D01*
G01*
X155440000Y-78500000D02*
G75*
G02*
X155640000Y-78500000I100000J0D01*
G01*
D11*
%TO.C,R6*%
X141420000Y-74100000D02*
X141580000Y-74100000D01*
X141420000Y-74900000D02*
X141580000Y-74900000D01*
D13*
%TO.C,D3*%
X116490000Y-82787500D02*
X116490000Y-83437500D01*
X116490000Y-84087500D02*
X116490000Y-83437500D01*
X119610000Y-82787500D02*
X119610000Y-83437500D01*
X119610000Y-84087500D02*
X119610000Y-83437500D01*
X116540000Y-82275000D02*
X116210000Y-82515000D01*
X116210000Y-82035000D01*
X116540000Y-82275000D01*
G36*
X116540000Y-82275000D02*
G01*
X116210000Y-82515000D01*
X116210000Y-82035000D01*
X116540000Y-82275000D01*
G37*
D12*
%TO.C,C14*%
X157250000Y-91200000D02*
X157250000Y-92300000D01*
D11*
%TO.C,R14*%
X142350000Y-88800000D02*
X142350000Y-88960000D01*
X143150000Y-88800000D02*
X143150000Y-88960000D01*
%TO.C,U5*%
X107490000Y-80955000D02*
X107490000Y-82555000D01*
X110610000Y-82555000D02*
X110610000Y-80955000D01*
D12*
X108200000Y-79255000D02*
G75*
G02*
X108000000Y-79255000I-100000J0D01*
G01*
X108000000Y-79255000D02*
G75*
G02*
X108200000Y-79255000I100000J0D01*
G01*
%TO.C,C12*%
X154300000Y-94250000D02*
X153200000Y-94250000D01*
D11*
%TO.C,R4*%
X141850000Y-76670000D02*
X141850000Y-76830000D01*
X142650000Y-76670000D02*
X142650000Y-76830000D01*
%TD*%
M02*
