%TF.GenerationSoftware,KiCad,Pcbnew,8.0.8*%
%TF.CreationDate,2025-05-01T22:31:30+03:00*%
%TF.ProjectId,gamma-spectrometer,67616d6d-612d-4737-9065-6374726f6d65,v0.0.4*%
%TF.SameCoordinates,Original*%
%TF.FileFunction,Legend,Bot*%
%TF.FilePolarity,Positive*%
%FSLAX46Y46*%
G04 Gerber Fmt 4.6, Leading zero omitted, Abs format (unit mm)*
G04 Created by KiCad (PCBNEW 8.0.8) date 2025-05-01 22:31:30*
%MOMM*%
%LPD*%
G01*
G04 APERTURE LIST*
%ADD10C,0.150000*%
%ADD11C,0.127000*%
%ADD12C,0.200000*%
%ADD13C,0.120000*%
G04 APERTURE END LIST*
D10*
X153383332Y-70286104D02*
X153421428Y-70324200D01*
X153421428Y-70324200D02*
X153535713Y-70362295D01*
X153535713Y-70362295D02*
X153611904Y-70362295D01*
X153611904Y-70362295D02*
X153726190Y-70324200D01*
X153726190Y-70324200D02*
X153802380Y-70248009D01*
X153802380Y-70248009D02*
X153840475Y-70171819D01*
X153840475Y-70171819D02*
X153878571Y-70019438D01*
X153878571Y-70019438D02*
X153878571Y-69905152D01*
X153878571Y-69905152D02*
X153840475Y-69752771D01*
X153840475Y-69752771D02*
X153802380Y-69676580D01*
X153802380Y-69676580D02*
X153726190Y-69600390D01*
X153726190Y-69600390D02*
X153611904Y-69562295D01*
X153611904Y-69562295D02*
X153535713Y-69562295D01*
X153535713Y-69562295D02*
X153421428Y-69600390D01*
X153421428Y-69600390D02*
X153383332Y-69638485D01*
X152697618Y-69562295D02*
X152849999Y-69562295D01*
X152849999Y-69562295D02*
X152926190Y-69600390D01*
X152926190Y-69600390D02*
X152964285Y-69638485D01*
X152964285Y-69638485D02*
X153040475Y-69752771D01*
X153040475Y-69752771D02*
X153078571Y-69905152D01*
X153078571Y-69905152D02*
X153078571Y-70209914D01*
X153078571Y-70209914D02*
X153040475Y-70286104D01*
X153040475Y-70286104D02*
X153002380Y-70324200D01*
X153002380Y-70324200D02*
X152926190Y-70362295D01*
X152926190Y-70362295D02*
X152773809Y-70362295D01*
X152773809Y-70362295D02*
X152697618Y-70324200D01*
X152697618Y-70324200D02*
X152659523Y-70286104D01*
X152659523Y-70286104D02*
X152621428Y-70209914D01*
X152621428Y-70209914D02*
X152621428Y-70019438D01*
X152621428Y-70019438D02*
X152659523Y-69943247D01*
X152659523Y-69943247D02*
X152697618Y-69905152D01*
X152697618Y-69905152D02*
X152773809Y-69867057D01*
X152773809Y-69867057D02*
X152926190Y-69867057D01*
X152926190Y-69867057D02*
X153002380Y-69905152D01*
X153002380Y-69905152D02*
X153040475Y-69943247D01*
X153040475Y-69943247D02*
X153078571Y-70019438D01*
X114711904Y-77954819D02*
X114711904Y-78764342D01*
X114711904Y-78764342D02*
X114664285Y-78859580D01*
X114664285Y-78859580D02*
X114616666Y-78907200D01*
X114616666Y-78907200D02*
X114521428Y-78954819D01*
X114521428Y-78954819D02*
X114330952Y-78954819D01*
X114330952Y-78954819D02*
X114235714Y-78907200D01*
X114235714Y-78907200D02*
X114188095Y-78859580D01*
X114188095Y-78859580D02*
X114140476Y-78764342D01*
X114140476Y-78764342D02*
X114140476Y-77954819D01*
X113235714Y-78288152D02*
X113235714Y-78954819D01*
X113473809Y-77907200D02*
X113711904Y-78621485D01*
X113711904Y-78621485D02*
X113092857Y-78621485D01*
X118514285Y-79612295D02*
X118780952Y-79231342D01*
X118971428Y-79612295D02*
X118971428Y-78812295D01*
X118971428Y-78812295D02*
X118666666Y-78812295D01*
X118666666Y-78812295D02*
X118590476Y-78850390D01*
X118590476Y-78850390D02*
X118552381Y-78888485D01*
X118552381Y-78888485D02*
X118514285Y-78964676D01*
X118514285Y-78964676D02*
X118514285Y-79078961D01*
X118514285Y-79078961D02*
X118552381Y-79155152D01*
X118552381Y-79155152D02*
X118590476Y-79193247D01*
X118590476Y-79193247D02*
X118666666Y-79231342D01*
X118666666Y-79231342D02*
X118971428Y-79231342D01*
X117752381Y-79612295D02*
X118209524Y-79612295D01*
X117980952Y-79612295D02*
X117980952Y-78812295D01*
X117980952Y-78812295D02*
X118057143Y-78926580D01*
X118057143Y-78926580D02*
X118133333Y-79002771D01*
X118133333Y-79002771D02*
X118209524Y-79040866D01*
X117447619Y-78888485D02*
X117409523Y-78850390D01*
X117409523Y-78850390D02*
X117333333Y-78812295D01*
X117333333Y-78812295D02*
X117142857Y-78812295D01*
X117142857Y-78812295D02*
X117066666Y-78850390D01*
X117066666Y-78850390D02*
X117028571Y-78888485D01*
X117028571Y-78888485D02*
X116990476Y-78964676D01*
X116990476Y-78964676D02*
X116990476Y-79040866D01*
X116990476Y-79040866D02*
X117028571Y-79155152D01*
X117028571Y-79155152D02*
X117485714Y-79612295D01*
X117485714Y-79612295D02*
X116990476Y-79612295D01*
X152264285Y-96362295D02*
X152530952Y-95981342D01*
X152721428Y-96362295D02*
X152721428Y-95562295D01*
X152721428Y-95562295D02*
X152416666Y-95562295D01*
X152416666Y-95562295D02*
X152340476Y-95600390D01*
X152340476Y-95600390D02*
X152302381Y-95638485D01*
X152302381Y-95638485D02*
X152264285Y-95714676D01*
X152264285Y-95714676D02*
X152264285Y-95828961D01*
X152264285Y-95828961D02*
X152302381Y-95905152D01*
X152302381Y-95905152D02*
X152340476Y-95943247D01*
X152340476Y-95943247D02*
X152416666Y-95981342D01*
X152416666Y-95981342D02*
X152721428Y-95981342D01*
X151502381Y-96362295D02*
X151959524Y-96362295D01*
X151730952Y-96362295D02*
X151730952Y-95562295D01*
X151730952Y-95562295D02*
X151807143Y-95676580D01*
X151807143Y-95676580D02*
X151883333Y-95752771D01*
X151883333Y-95752771D02*
X151959524Y-95790866D01*
X150778571Y-95562295D02*
X151159523Y-95562295D01*
X151159523Y-95562295D02*
X151197619Y-95943247D01*
X151197619Y-95943247D02*
X151159523Y-95905152D01*
X151159523Y-95905152D02*
X151083333Y-95867057D01*
X151083333Y-95867057D02*
X150892857Y-95867057D01*
X150892857Y-95867057D02*
X150816666Y-95905152D01*
X150816666Y-95905152D02*
X150778571Y-95943247D01*
X150778571Y-95943247D02*
X150740476Y-96019438D01*
X150740476Y-96019438D02*
X150740476Y-96209914D01*
X150740476Y-96209914D02*
X150778571Y-96286104D01*
X150778571Y-96286104D02*
X150816666Y-96324200D01*
X150816666Y-96324200D02*
X150892857Y-96362295D01*
X150892857Y-96362295D02*
X151083333Y-96362295D01*
X151083333Y-96362295D02*
X151159523Y-96324200D01*
X151159523Y-96324200D02*
X151197619Y-96286104D01*
X149990475Y-89862295D02*
X149990475Y-89062295D01*
X149990475Y-89062295D02*
X149799999Y-89062295D01*
X149799999Y-89062295D02*
X149685713Y-89100390D01*
X149685713Y-89100390D02*
X149609523Y-89176580D01*
X149609523Y-89176580D02*
X149571428Y-89252771D01*
X149571428Y-89252771D02*
X149533332Y-89405152D01*
X149533332Y-89405152D02*
X149533332Y-89519438D01*
X149533332Y-89519438D02*
X149571428Y-89671819D01*
X149571428Y-89671819D02*
X149609523Y-89748009D01*
X149609523Y-89748009D02*
X149685713Y-89824200D01*
X149685713Y-89824200D02*
X149799999Y-89862295D01*
X149799999Y-89862295D02*
X149990475Y-89862295D01*
X148809523Y-89062295D02*
X149190475Y-89062295D01*
X149190475Y-89062295D02*
X149228571Y-89443247D01*
X149228571Y-89443247D02*
X149190475Y-89405152D01*
X149190475Y-89405152D02*
X149114285Y-89367057D01*
X149114285Y-89367057D02*
X148923809Y-89367057D01*
X148923809Y-89367057D02*
X148847618Y-89405152D01*
X148847618Y-89405152D02*
X148809523Y-89443247D01*
X148809523Y-89443247D02*
X148771428Y-89519438D01*
X148771428Y-89519438D02*
X148771428Y-89709914D01*
X148771428Y-89709914D02*
X148809523Y-89786104D01*
X148809523Y-89786104D02*
X148847618Y-89824200D01*
X148847618Y-89824200D02*
X148923809Y-89862295D01*
X148923809Y-89862295D02*
X149114285Y-89862295D01*
X149114285Y-89862295D02*
X149190475Y-89824200D01*
X149190475Y-89824200D02*
X149228571Y-89786104D01*
X160764285Y-94536104D02*
X160802381Y-94574200D01*
X160802381Y-94574200D02*
X160916666Y-94612295D01*
X160916666Y-94612295D02*
X160992857Y-94612295D01*
X160992857Y-94612295D02*
X161107143Y-94574200D01*
X161107143Y-94574200D02*
X161183333Y-94498009D01*
X161183333Y-94498009D02*
X161221428Y-94421819D01*
X161221428Y-94421819D02*
X161259524Y-94269438D01*
X161259524Y-94269438D02*
X161259524Y-94155152D01*
X161259524Y-94155152D02*
X161221428Y-94002771D01*
X161221428Y-94002771D02*
X161183333Y-93926580D01*
X161183333Y-93926580D02*
X161107143Y-93850390D01*
X161107143Y-93850390D02*
X160992857Y-93812295D01*
X160992857Y-93812295D02*
X160916666Y-93812295D01*
X160916666Y-93812295D02*
X160802381Y-93850390D01*
X160802381Y-93850390D02*
X160764285Y-93888485D01*
X160002381Y-94612295D02*
X160459524Y-94612295D01*
X160230952Y-94612295D02*
X160230952Y-93812295D01*
X160230952Y-93812295D02*
X160307143Y-93926580D01*
X160307143Y-93926580D02*
X160383333Y-94002771D01*
X160383333Y-94002771D02*
X160459524Y-94040866D01*
X159316666Y-93812295D02*
X159469047Y-93812295D01*
X159469047Y-93812295D02*
X159545238Y-93850390D01*
X159545238Y-93850390D02*
X159583333Y-93888485D01*
X159583333Y-93888485D02*
X159659523Y-94002771D01*
X159659523Y-94002771D02*
X159697619Y-94155152D01*
X159697619Y-94155152D02*
X159697619Y-94459914D01*
X159697619Y-94459914D02*
X159659523Y-94536104D01*
X159659523Y-94536104D02*
X159621428Y-94574200D01*
X159621428Y-94574200D02*
X159545238Y-94612295D01*
X159545238Y-94612295D02*
X159392857Y-94612295D01*
X159392857Y-94612295D02*
X159316666Y-94574200D01*
X159316666Y-94574200D02*
X159278571Y-94536104D01*
X159278571Y-94536104D02*
X159240476Y-94459914D01*
X159240476Y-94459914D02*
X159240476Y-94269438D01*
X159240476Y-94269438D02*
X159278571Y-94193247D01*
X159278571Y-94193247D02*
X159316666Y-94155152D01*
X159316666Y-94155152D02*
X159392857Y-94117057D01*
X159392857Y-94117057D02*
X159545238Y-94117057D01*
X159545238Y-94117057D02*
X159621428Y-94155152D01*
X159621428Y-94155152D02*
X159659523Y-94193247D01*
X159659523Y-94193247D02*
X159697619Y-94269438D01*
X156014285Y-85296104D02*
X156052381Y-85334200D01*
X156052381Y-85334200D02*
X156166666Y-85372295D01*
X156166666Y-85372295D02*
X156242857Y-85372295D01*
X156242857Y-85372295D02*
X156357143Y-85334200D01*
X156357143Y-85334200D02*
X156433333Y-85258009D01*
X156433333Y-85258009D02*
X156471428Y-85181819D01*
X156471428Y-85181819D02*
X156509524Y-85029438D01*
X156509524Y-85029438D02*
X156509524Y-84915152D01*
X156509524Y-84915152D02*
X156471428Y-84762771D01*
X156471428Y-84762771D02*
X156433333Y-84686580D01*
X156433333Y-84686580D02*
X156357143Y-84610390D01*
X156357143Y-84610390D02*
X156242857Y-84572295D01*
X156242857Y-84572295D02*
X156166666Y-84572295D01*
X156166666Y-84572295D02*
X156052381Y-84610390D01*
X156052381Y-84610390D02*
X156014285Y-84648485D01*
X155252381Y-85372295D02*
X155709524Y-85372295D01*
X155480952Y-85372295D02*
X155480952Y-84572295D01*
X155480952Y-84572295D02*
X155557143Y-84686580D01*
X155557143Y-84686580D02*
X155633333Y-84762771D01*
X155633333Y-84762771D02*
X155709524Y-84800866D01*
X154528571Y-84572295D02*
X154909523Y-84572295D01*
X154909523Y-84572295D02*
X154947619Y-84953247D01*
X154947619Y-84953247D02*
X154909523Y-84915152D01*
X154909523Y-84915152D02*
X154833333Y-84877057D01*
X154833333Y-84877057D02*
X154642857Y-84877057D01*
X154642857Y-84877057D02*
X154566666Y-84915152D01*
X154566666Y-84915152D02*
X154528571Y-84953247D01*
X154528571Y-84953247D02*
X154490476Y-85029438D01*
X154490476Y-85029438D02*
X154490476Y-85219914D01*
X154490476Y-85219914D02*
X154528571Y-85296104D01*
X154528571Y-85296104D02*
X154566666Y-85334200D01*
X154566666Y-85334200D02*
X154642857Y-85372295D01*
X154642857Y-85372295D02*
X154833333Y-85372295D01*
X154833333Y-85372295D02*
X154909523Y-85334200D01*
X154909523Y-85334200D02*
X154947619Y-85296104D01*
X193738094Y-88179819D02*
X193738094Y-88989342D01*
X193738094Y-88989342D02*
X193690475Y-89084580D01*
X193690475Y-89084580D02*
X193642856Y-89132200D01*
X193642856Y-89132200D02*
X193547618Y-89179819D01*
X193547618Y-89179819D02*
X193357142Y-89179819D01*
X193357142Y-89179819D02*
X193261904Y-89132200D01*
X193261904Y-89132200D02*
X193214285Y-89084580D01*
X193214285Y-89084580D02*
X193166666Y-88989342D01*
X193166666Y-88989342D02*
X193166666Y-88179819D01*
X192166666Y-89179819D02*
X192738094Y-89179819D01*
X192452380Y-89179819D02*
X192452380Y-88179819D01*
X192452380Y-88179819D02*
X192547618Y-88322676D01*
X192547618Y-88322676D02*
X192642856Y-88417914D01*
X192642856Y-88417914D02*
X192738094Y-88465533D01*
X191547618Y-88179819D02*
X191452380Y-88179819D01*
X191452380Y-88179819D02*
X191357142Y-88227438D01*
X191357142Y-88227438D02*
X191309523Y-88275057D01*
X191309523Y-88275057D02*
X191261904Y-88370295D01*
X191261904Y-88370295D02*
X191214285Y-88560771D01*
X191214285Y-88560771D02*
X191214285Y-88798866D01*
X191214285Y-88798866D02*
X191261904Y-88989342D01*
X191261904Y-88989342D02*
X191309523Y-89084580D01*
X191309523Y-89084580D02*
X191357142Y-89132200D01*
X191357142Y-89132200D02*
X191452380Y-89179819D01*
X191452380Y-89179819D02*
X191547618Y-89179819D01*
X191547618Y-89179819D02*
X191642856Y-89132200D01*
X191642856Y-89132200D02*
X191690475Y-89084580D01*
X191690475Y-89084580D02*
X191738094Y-88989342D01*
X191738094Y-88989342D02*
X191785713Y-88798866D01*
X191785713Y-88798866D02*
X191785713Y-88560771D01*
X191785713Y-88560771D02*
X191738094Y-88370295D01*
X191738094Y-88370295D02*
X191690475Y-88275057D01*
X191690475Y-88275057D02*
X191642856Y-88227438D01*
X191642856Y-88227438D02*
X191547618Y-88179819D01*
X155666666Y-90193247D02*
X155933332Y-90193247D01*
X155933332Y-90612295D02*
X155933332Y-89812295D01*
X155933332Y-89812295D02*
X155552380Y-89812295D01*
X154980952Y-90193247D02*
X154866666Y-90231342D01*
X154866666Y-90231342D02*
X154828571Y-90269438D01*
X154828571Y-90269438D02*
X154790475Y-90345628D01*
X154790475Y-90345628D02*
X154790475Y-90459914D01*
X154790475Y-90459914D02*
X154828571Y-90536104D01*
X154828571Y-90536104D02*
X154866666Y-90574200D01*
X154866666Y-90574200D02*
X154942856Y-90612295D01*
X154942856Y-90612295D02*
X155247618Y-90612295D01*
X155247618Y-90612295D02*
X155247618Y-89812295D01*
X155247618Y-89812295D02*
X154980952Y-89812295D01*
X154980952Y-89812295D02*
X154904761Y-89850390D01*
X154904761Y-89850390D02*
X154866666Y-89888485D01*
X154866666Y-89888485D02*
X154828571Y-89964676D01*
X154828571Y-89964676D02*
X154828571Y-90040866D01*
X154828571Y-90040866D02*
X154866666Y-90117057D01*
X154866666Y-90117057D02*
X154904761Y-90155152D01*
X154904761Y-90155152D02*
X154980952Y-90193247D01*
X154980952Y-90193247D02*
X155247618Y-90193247D01*
X154485714Y-89888485D02*
X154447618Y-89850390D01*
X154447618Y-89850390D02*
X154371428Y-89812295D01*
X154371428Y-89812295D02*
X154180952Y-89812295D01*
X154180952Y-89812295D02*
X154104761Y-89850390D01*
X154104761Y-89850390D02*
X154066666Y-89888485D01*
X154066666Y-89888485D02*
X154028571Y-89964676D01*
X154028571Y-89964676D02*
X154028571Y-90040866D01*
X154028571Y-90040866D02*
X154066666Y-90155152D01*
X154066666Y-90155152D02*
X154523809Y-90612295D01*
X154523809Y-90612295D02*
X154028571Y-90612295D01*
X125032738Y-81050057D02*
X125127976Y-81002438D01*
X125127976Y-81002438D02*
X125223214Y-80907200D01*
X125223214Y-80907200D02*
X125366071Y-80764342D01*
X125366071Y-80764342D02*
X125461309Y-80716723D01*
X125461309Y-80716723D02*
X125556547Y-80716723D01*
X125508928Y-80954819D02*
X125604166Y-80907200D01*
X125604166Y-80907200D02*
X125699404Y-80811961D01*
X125699404Y-80811961D02*
X125747023Y-80621485D01*
X125747023Y-80621485D02*
X125747023Y-80288152D01*
X125747023Y-80288152D02*
X125699404Y-80097676D01*
X125699404Y-80097676D02*
X125604166Y-80002438D01*
X125604166Y-80002438D02*
X125508928Y-79954819D01*
X125508928Y-79954819D02*
X125318452Y-79954819D01*
X125318452Y-79954819D02*
X125223214Y-80002438D01*
X125223214Y-80002438D02*
X125127976Y-80097676D01*
X125127976Y-80097676D02*
X125080357Y-80288152D01*
X125080357Y-80288152D02*
X125080357Y-80621485D01*
X125080357Y-80621485D02*
X125127976Y-80811961D01*
X125127976Y-80811961D02*
X125223214Y-80907200D01*
X125223214Y-80907200D02*
X125318452Y-80954819D01*
X125318452Y-80954819D02*
X125508928Y-80954819D01*
X124127976Y-80954819D02*
X124699404Y-80954819D01*
X124413690Y-80954819D02*
X124413690Y-79954819D01*
X124413690Y-79954819D02*
X124508928Y-80097676D01*
X124508928Y-80097676D02*
X124604166Y-80192914D01*
X124604166Y-80192914D02*
X124699404Y-80240533D01*
X150676666Y-92693247D02*
X150943332Y-92693247D01*
X150943332Y-93112295D02*
X150943332Y-92312295D01*
X150943332Y-92312295D02*
X150562380Y-92312295D01*
X149990952Y-92693247D02*
X149876666Y-92731342D01*
X149876666Y-92731342D02*
X149838571Y-92769438D01*
X149838571Y-92769438D02*
X149800475Y-92845628D01*
X149800475Y-92845628D02*
X149800475Y-92959914D01*
X149800475Y-92959914D02*
X149838571Y-93036104D01*
X149838571Y-93036104D02*
X149876666Y-93074200D01*
X149876666Y-93074200D02*
X149952856Y-93112295D01*
X149952856Y-93112295D02*
X150257618Y-93112295D01*
X150257618Y-93112295D02*
X150257618Y-92312295D01*
X150257618Y-92312295D02*
X149990952Y-92312295D01*
X149990952Y-92312295D02*
X149914761Y-92350390D01*
X149914761Y-92350390D02*
X149876666Y-92388485D01*
X149876666Y-92388485D02*
X149838571Y-92464676D01*
X149838571Y-92464676D02*
X149838571Y-92540866D01*
X149838571Y-92540866D02*
X149876666Y-92617057D01*
X149876666Y-92617057D02*
X149914761Y-92655152D01*
X149914761Y-92655152D02*
X149990952Y-92693247D01*
X149990952Y-92693247D02*
X150257618Y-92693247D01*
X149533809Y-92312295D02*
X149038571Y-92312295D01*
X149038571Y-92312295D02*
X149305237Y-92617057D01*
X149305237Y-92617057D02*
X149190952Y-92617057D01*
X149190952Y-92617057D02*
X149114761Y-92655152D01*
X149114761Y-92655152D02*
X149076666Y-92693247D01*
X149076666Y-92693247D02*
X149038571Y-92769438D01*
X149038571Y-92769438D02*
X149038571Y-92959914D01*
X149038571Y-92959914D02*
X149076666Y-93036104D01*
X149076666Y-93036104D02*
X149114761Y-93074200D01*
X149114761Y-93074200D02*
X149190952Y-93112295D01*
X149190952Y-93112295D02*
X149419523Y-93112295D01*
X149419523Y-93112295D02*
X149495714Y-93074200D01*
X149495714Y-93074200D02*
X149533809Y-93036104D01*
X146514285Y-84916104D02*
X146552381Y-84954200D01*
X146552381Y-84954200D02*
X146666666Y-84992295D01*
X146666666Y-84992295D02*
X146742857Y-84992295D01*
X146742857Y-84992295D02*
X146857143Y-84954200D01*
X146857143Y-84954200D02*
X146933333Y-84878009D01*
X146933333Y-84878009D02*
X146971428Y-84801819D01*
X146971428Y-84801819D02*
X147009524Y-84649438D01*
X147009524Y-84649438D02*
X147009524Y-84535152D01*
X147009524Y-84535152D02*
X146971428Y-84382771D01*
X146971428Y-84382771D02*
X146933333Y-84306580D01*
X146933333Y-84306580D02*
X146857143Y-84230390D01*
X146857143Y-84230390D02*
X146742857Y-84192295D01*
X146742857Y-84192295D02*
X146666666Y-84192295D01*
X146666666Y-84192295D02*
X146552381Y-84230390D01*
X146552381Y-84230390D02*
X146514285Y-84268485D01*
X145752381Y-84992295D02*
X146209524Y-84992295D01*
X145980952Y-84992295D02*
X145980952Y-84192295D01*
X145980952Y-84192295D02*
X146057143Y-84306580D01*
X146057143Y-84306580D02*
X146133333Y-84382771D01*
X146133333Y-84382771D02*
X146209524Y-84420866D01*
X144990476Y-84992295D02*
X145447619Y-84992295D01*
X145219047Y-84992295D02*
X145219047Y-84192295D01*
X145219047Y-84192295D02*
X145295238Y-84306580D01*
X145295238Y-84306580D02*
X145371428Y-84382771D01*
X145371428Y-84382771D02*
X145447619Y-84420866D01*
X159142857Y-98609580D02*
X159190476Y-98657200D01*
X159190476Y-98657200D02*
X159333333Y-98704819D01*
X159333333Y-98704819D02*
X159428571Y-98704819D01*
X159428571Y-98704819D02*
X159571428Y-98657200D01*
X159571428Y-98657200D02*
X159666666Y-98561961D01*
X159666666Y-98561961D02*
X159714285Y-98466723D01*
X159714285Y-98466723D02*
X159761904Y-98276247D01*
X159761904Y-98276247D02*
X159761904Y-98133390D01*
X159761904Y-98133390D02*
X159714285Y-97942914D01*
X159714285Y-97942914D02*
X159666666Y-97847676D01*
X159666666Y-97847676D02*
X159571428Y-97752438D01*
X159571428Y-97752438D02*
X159428571Y-97704819D01*
X159428571Y-97704819D02*
X159333333Y-97704819D01*
X159333333Y-97704819D02*
X159190476Y-97752438D01*
X159190476Y-97752438D02*
X159142857Y-97800057D01*
X158190476Y-98704819D02*
X158761904Y-98704819D01*
X158476190Y-98704819D02*
X158476190Y-97704819D01*
X158476190Y-97704819D02*
X158571428Y-97847676D01*
X158571428Y-97847676D02*
X158666666Y-97942914D01*
X158666666Y-97942914D02*
X158761904Y-97990533D01*
X157857142Y-97704819D02*
X157238095Y-97704819D01*
X157238095Y-97704819D02*
X157571428Y-98085771D01*
X157571428Y-98085771D02*
X157428571Y-98085771D01*
X157428571Y-98085771D02*
X157333333Y-98133390D01*
X157333333Y-98133390D02*
X157285714Y-98181009D01*
X157285714Y-98181009D02*
X157238095Y-98276247D01*
X157238095Y-98276247D02*
X157238095Y-98514342D01*
X157238095Y-98514342D02*
X157285714Y-98609580D01*
X157285714Y-98609580D02*
X157333333Y-98657200D01*
X157333333Y-98657200D02*
X157428571Y-98704819D01*
X157428571Y-98704819D02*
X157714285Y-98704819D01*
X157714285Y-98704819D02*
X157809523Y-98657200D01*
X157809523Y-98657200D02*
X157857142Y-98609580D01*
X154133332Y-76862295D02*
X154399999Y-76481342D01*
X154590475Y-76862295D02*
X154590475Y-76062295D01*
X154590475Y-76062295D02*
X154285713Y-76062295D01*
X154285713Y-76062295D02*
X154209523Y-76100390D01*
X154209523Y-76100390D02*
X154171428Y-76138485D01*
X154171428Y-76138485D02*
X154133332Y-76214676D01*
X154133332Y-76214676D02*
X154133332Y-76328961D01*
X154133332Y-76328961D02*
X154171428Y-76405152D01*
X154171428Y-76405152D02*
X154209523Y-76443247D01*
X154209523Y-76443247D02*
X154285713Y-76481342D01*
X154285713Y-76481342D02*
X154590475Y-76481342D01*
X153752380Y-76862295D02*
X153599999Y-76862295D01*
X153599999Y-76862295D02*
X153523809Y-76824200D01*
X153523809Y-76824200D02*
X153485713Y-76786104D01*
X153485713Y-76786104D02*
X153409523Y-76671819D01*
X153409523Y-76671819D02*
X153371428Y-76519438D01*
X153371428Y-76519438D02*
X153371428Y-76214676D01*
X153371428Y-76214676D02*
X153409523Y-76138485D01*
X153409523Y-76138485D02*
X153447618Y-76100390D01*
X153447618Y-76100390D02*
X153523809Y-76062295D01*
X153523809Y-76062295D02*
X153676190Y-76062295D01*
X153676190Y-76062295D02*
X153752380Y-76100390D01*
X153752380Y-76100390D02*
X153790475Y-76138485D01*
X153790475Y-76138485D02*
X153828571Y-76214676D01*
X153828571Y-76214676D02*
X153828571Y-76405152D01*
X153828571Y-76405152D02*
X153790475Y-76481342D01*
X153790475Y-76481342D02*
X153752380Y-76519438D01*
X153752380Y-76519438D02*
X153676190Y-76557533D01*
X153676190Y-76557533D02*
X153523809Y-76557533D01*
X153523809Y-76557533D02*
X153447618Y-76519438D01*
X153447618Y-76519438D02*
X153409523Y-76481342D01*
X153409523Y-76481342D02*
X153371428Y-76405152D01*
X146609523Y-90562295D02*
X146609523Y-91209914D01*
X146609523Y-91209914D02*
X146571428Y-91286104D01*
X146571428Y-91286104D02*
X146533333Y-91324200D01*
X146533333Y-91324200D02*
X146457142Y-91362295D01*
X146457142Y-91362295D02*
X146304761Y-91362295D01*
X146304761Y-91362295D02*
X146228571Y-91324200D01*
X146228571Y-91324200D02*
X146190476Y-91286104D01*
X146190476Y-91286104D02*
X146152380Y-91209914D01*
X146152380Y-91209914D02*
X146152380Y-90562295D01*
X145657143Y-90905152D02*
X145733333Y-90867057D01*
X145733333Y-90867057D02*
X145771428Y-90828961D01*
X145771428Y-90828961D02*
X145809524Y-90752771D01*
X145809524Y-90752771D02*
X145809524Y-90714676D01*
X145809524Y-90714676D02*
X145771428Y-90638485D01*
X145771428Y-90638485D02*
X145733333Y-90600390D01*
X145733333Y-90600390D02*
X145657143Y-90562295D01*
X145657143Y-90562295D02*
X145504762Y-90562295D01*
X145504762Y-90562295D02*
X145428571Y-90600390D01*
X145428571Y-90600390D02*
X145390476Y-90638485D01*
X145390476Y-90638485D02*
X145352381Y-90714676D01*
X145352381Y-90714676D02*
X145352381Y-90752771D01*
X145352381Y-90752771D02*
X145390476Y-90828961D01*
X145390476Y-90828961D02*
X145428571Y-90867057D01*
X145428571Y-90867057D02*
X145504762Y-90905152D01*
X145504762Y-90905152D02*
X145657143Y-90905152D01*
X145657143Y-90905152D02*
X145733333Y-90943247D01*
X145733333Y-90943247D02*
X145771428Y-90981342D01*
X145771428Y-90981342D02*
X145809524Y-91057533D01*
X145809524Y-91057533D02*
X145809524Y-91209914D01*
X145809524Y-91209914D02*
X145771428Y-91286104D01*
X145771428Y-91286104D02*
X145733333Y-91324200D01*
X145733333Y-91324200D02*
X145657143Y-91362295D01*
X145657143Y-91362295D02*
X145504762Y-91362295D01*
X145504762Y-91362295D02*
X145428571Y-91324200D01*
X145428571Y-91324200D02*
X145390476Y-91286104D01*
X145390476Y-91286104D02*
X145352381Y-91209914D01*
X145352381Y-91209914D02*
X145352381Y-91057533D01*
X145352381Y-91057533D02*
X145390476Y-90981342D01*
X145390476Y-90981342D02*
X145428571Y-90943247D01*
X145428571Y-90943247D02*
X145504762Y-90905152D01*
X112014285Y-84612295D02*
X112280952Y-84231342D01*
X112471428Y-84612295D02*
X112471428Y-83812295D01*
X112471428Y-83812295D02*
X112166666Y-83812295D01*
X112166666Y-83812295D02*
X112090476Y-83850390D01*
X112090476Y-83850390D02*
X112052381Y-83888485D01*
X112052381Y-83888485D02*
X112014285Y-83964676D01*
X112014285Y-83964676D02*
X112014285Y-84078961D01*
X112014285Y-84078961D02*
X112052381Y-84155152D01*
X112052381Y-84155152D02*
X112090476Y-84193247D01*
X112090476Y-84193247D02*
X112166666Y-84231342D01*
X112166666Y-84231342D02*
X112471428Y-84231342D01*
X111252381Y-84612295D02*
X111709524Y-84612295D01*
X111480952Y-84612295D02*
X111480952Y-83812295D01*
X111480952Y-83812295D02*
X111557143Y-83926580D01*
X111557143Y-83926580D02*
X111633333Y-84002771D01*
X111633333Y-84002771D02*
X111709524Y-84040866D01*
X110490476Y-84612295D02*
X110947619Y-84612295D01*
X110719047Y-84612295D02*
X110719047Y-83812295D01*
X110719047Y-83812295D02*
X110795238Y-83926580D01*
X110795238Y-83926580D02*
X110871428Y-84002771D01*
X110871428Y-84002771D02*
X110947619Y-84040866D01*
X123014285Y-84612295D02*
X123280952Y-84231342D01*
X123471428Y-84612295D02*
X123471428Y-83812295D01*
X123471428Y-83812295D02*
X123166666Y-83812295D01*
X123166666Y-83812295D02*
X123090476Y-83850390D01*
X123090476Y-83850390D02*
X123052381Y-83888485D01*
X123052381Y-83888485D02*
X123014285Y-83964676D01*
X123014285Y-83964676D02*
X123014285Y-84078961D01*
X123014285Y-84078961D02*
X123052381Y-84155152D01*
X123052381Y-84155152D02*
X123090476Y-84193247D01*
X123090476Y-84193247D02*
X123166666Y-84231342D01*
X123166666Y-84231342D02*
X123471428Y-84231342D01*
X122252381Y-84612295D02*
X122709524Y-84612295D01*
X122480952Y-84612295D02*
X122480952Y-83812295D01*
X122480952Y-83812295D02*
X122557143Y-83926580D01*
X122557143Y-83926580D02*
X122633333Y-84002771D01*
X122633333Y-84002771D02*
X122709524Y-84040866D01*
X121757142Y-83812295D02*
X121680952Y-83812295D01*
X121680952Y-83812295D02*
X121604761Y-83850390D01*
X121604761Y-83850390D02*
X121566666Y-83888485D01*
X121566666Y-83888485D02*
X121528571Y-83964676D01*
X121528571Y-83964676D02*
X121490476Y-84117057D01*
X121490476Y-84117057D02*
X121490476Y-84307533D01*
X121490476Y-84307533D02*
X121528571Y-84459914D01*
X121528571Y-84459914D02*
X121566666Y-84536104D01*
X121566666Y-84536104D02*
X121604761Y-84574200D01*
X121604761Y-84574200D02*
X121680952Y-84612295D01*
X121680952Y-84612295D02*
X121757142Y-84612295D01*
X121757142Y-84612295D02*
X121833333Y-84574200D01*
X121833333Y-84574200D02*
X121871428Y-84536104D01*
X121871428Y-84536104D02*
X121909523Y-84459914D01*
X121909523Y-84459914D02*
X121947619Y-84307533D01*
X121947619Y-84307533D02*
X121947619Y-84117057D01*
X121947619Y-84117057D02*
X121909523Y-83964676D01*
X121909523Y-83964676D02*
X121871428Y-83888485D01*
X121871428Y-83888485D02*
X121833333Y-83850390D01*
X121833333Y-83850390D02*
X121757142Y-83812295D01*
X105633332Y-85786104D02*
X105671428Y-85824200D01*
X105671428Y-85824200D02*
X105785713Y-85862295D01*
X105785713Y-85862295D02*
X105861904Y-85862295D01*
X105861904Y-85862295D02*
X105976190Y-85824200D01*
X105976190Y-85824200D02*
X106052380Y-85748009D01*
X106052380Y-85748009D02*
X106090475Y-85671819D01*
X106090475Y-85671819D02*
X106128571Y-85519438D01*
X106128571Y-85519438D02*
X106128571Y-85405152D01*
X106128571Y-85405152D02*
X106090475Y-85252771D01*
X106090475Y-85252771D02*
X106052380Y-85176580D01*
X106052380Y-85176580D02*
X105976190Y-85100390D01*
X105976190Y-85100390D02*
X105861904Y-85062295D01*
X105861904Y-85062295D02*
X105785713Y-85062295D01*
X105785713Y-85062295D02*
X105671428Y-85100390D01*
X105671428Y-85100390D02*
X105633332Y-85138485D01*
X105252380Y-85862295D02*
X105099999Y-85862295D01*
X105099999Y-85862295D02*
X105023809Y-85824200D01*
X105023809Y-85824200D02*
X104985713Y-85786104D01*
X104985713Y-85786104D02*
X104909523Y-85671819D01*
X104909523Y-85671819D02*
X104871428Y-85519438D01*
X104871428Y-85519438D02*
X104871428Y-85214676D01*
X104871428Y-85214676D02*
X104909523Y-85138485D01*
X104909523Y-85138485D02*
X104947618Y-85100390D01*
X104947618Y-85100390D02*
X105023809Y-85062295D01*
X105023809Y-85062295D02*
X105176190Y-85062295D01*
X105176190Y-85062295D02*
X105252380Y-85100390D01*
X105252380Y-85100390D02*
X105290475Y-85138485D01*
X105290475Y-85138485D02*
X105328571Y-85214676D01*
X105328571Y-85214676D02*
X105328571Y-85405152D01*
X105328571Y-85405152D02*
X105290475Y-85481342D01*
X105290475Y-85481342D02*
X105252380Y-85519438D01*
X105252380Y-85519438D02*
X105176190Y-85557533D01*
X105176190Y-85557533D02*
X105023809Y-85557533D01*
X105023809Y-85557533D02*
X104947618Y-85519438D01*
X104947618Y-85519438D02*
X104909523Y-85481342D01*
X104909523Y-85481342D02*
X104871428Y-85405152D01*
X106014285Y-80856104D02*
X106052381Y-80894200D01*
X106052381Y-80894200D02*
X106166666Y-80932295D01*
X106166666Y-80932295D02*
X106242857Y-80932295D01*
X106242857Y-80932295D02*
X106357143Y-80894200D01*
X106357143Y-80894200D02*
X106433333Y-80818009D01*
X106433333Y-80818009D02*
X106471428Y-80741819D01*
X106471428Y-80741819D02*
X106509524Y-80589438D01*
X106509524Y-80589438D02*
X106509524Y-80475152D01*
X106509524Y-80475152D02*
X106471428Y-80322771D01*
X106471428Y-80322771D02*
X106433333Y-80246580D01*
X106433333Y-80246580D02*
X106357143Y-80170390D01*
X106357143Y-80170390D02*
X106242857Y-80132295D01*
X106242857Y-80132295D02*
X106166666Y-80132295D01*
X106166666Y-80132295D02*
X106052381Y-80170390D01*
X106052381Y-80170390D02*
X106014285Y-80208485D01*
X105252381Y-80932295D02*
X105709524Y-80932295D01*
X105480952Y-80932295D02*
X105480952Y-80132295D01*
X105480952Y-80132295D02*
X105557143Y-80246580D01*
X105557143Y-80246580D02*
X105633333Y-80322771D01*
X105633333Y-80322771D02*
X105709524Y-80360866D01*
X104757142Y-80132295D02*
X104680952Y-80132295D01*
X104680952Y-80132295D02*
X104604761Y-80170390D01*
X104604761Y-80170390D02*
X104566666Y-80208485D01*
X104566666Y-80208485D02*
X104528571Y-80284676D01*
X104528571Y-80284676D02*
X104490476Y-80437057D01*
X104490476Y-80437057D02*
X104490476Y-80627533D01*
X104490476Y-80627533D02*
X104528571Y-80779914D01*
X104528571Y-80779914D02*
X104566666Y-80856104D01*
X104566666Y-80856104D02*
X104604761Y-80894200D01*
X104604761Y-80894200D02*
X104680952Y-80932295D01*
X104680952Y-80932295D02*
X104757142Y-80932295D01*
X104757142Y-80932295D02*
X104833333Y-80894200D01*
X104833333Y-80894200D02*
X104871428Y-80856104D01*
X104871428Y-80856104D02*
X104909523Y-80779914D01*
X104909523Y-80779914D02*
X104947619Y-80627533D01*
X104947619Y-80627533D02*
X104947619Y-80437057D01*
X104947619Y-80437057D02*
X104909523Y-80284676D01*
X104909523Y-80284676D02*
X104871428Y-80208485D01*
X104871428Y-80208485D02*
X104833333Y-80170390D01*
X104833333Y-80170390D02*
X104757142Y-80132295D01*
X148264285Y-93536104D02*
X148302381Y-93574200D01*
X148302381Y-93574200D02*
X148416666Y-93612295D01*
X148416666Y-93612295D02*
X148492857Y-93612295D01*
X148492857Y-93612295D02*
X148607143Y-93574200D01*
X148607143Y-93574200D02*
X148683333Y-93498009D01*
X148683333Y-93498009D02*
X148721428Y-93421819D01*
X148721428Y-93421819D02*
X148759524Y-93269438D01*
X148759524Y-93269438D02*
X148759524Y-93155152D01*
X148759524Y-93155152D02*
X148721428Y-93002771D01*
X148721428Y-93002771D02*
X148683333Y-92926580D01*
X148683333Y-92926580D02*
X148607143Y-92850390D01*
X148607143Y-92850390D02*
X148492857Y-92812295D01*
X148492857Y-92812295D02*
X148416666Y-92812295D01*
X148416666Y-92812295D02*
X148302381Y-92850390D01*
X148302381Y-92850390D02*
X148264285Y-92888485D01*
X147502381Y-93612295D02*
X147959524Y-93612295D01*
X147730952Y-93612295D02*
X147730952Y-92812295D01*
X147730952Y-92812295D02*
X147807143Y-92926580D01*
X147807143Y-92926580D02*
X147883333Y-93002771D01*
X147883333Y-93002771D02*
X147959524Y-93040866D01*
X147045238Y-93155152D02*
X147121428Y-93117057D01*
X147121428Y-93117057D02*
X147159523Y-93078961D01*
X147159523Y-93078961D02*
X147197619Y-93002771D01*
X147197619Y-93002771D02*
X147197619Y-92964676D01*
X147197619Y-92964676D02*
X147159523Y-92888485D01*
X147159523Y-92888485D02*
X147121428Y-92850390D01*
X147121428Y-92850390D02*
X147045238Y-92812295D01*
X147045238Y-92812295D02*
X146892857Y-92812295D01*
X146892857Y-92812295D02*
X146816666Y-92850390D01*
X146816666Y-92850390D02*
X146778571Y-92888485D01*
X146778571Y-92888485D02*
X146740476Y-92964676D01*
X146740476Y-92964676D02*
X146740476Y-93002771D01*
X146740476Y-93002771D02*
X146778571Y-93078961D01*
X146778571Y-93078961D02*
X146816666Y-93117057D01*
X146816666Y-93117057D02*
X146892857Y-93155152D01*
X146892857Y-93155152D02*
X147045238Y-93155152D01*
X147045238Y-93155152D02*
X147121428Y-93193247D01*
X147121428Y-93193247D02*
X147159523Y-93231342D01*
X147159523Y-93231342D02*
X147197619Y-93307533D01*
X147197619Y-93307533D02*
X147197619Y-93459914D01*
X147197619Y-93459914D02*
X147159523Y-93536104D01*
X147159523Y-93536104D02*
X147121428Y-93574200D01*
X147121428Y-93574200D02*
X147045238Y-93612295D01*
X147045238Y-93612295D02*
X146892857Y-93612295D01*
X146892857Y-93612295D02*
X146816666Y-93574200D01*
X146816666Y-93574200D02*
X146778571Y-93536104D01*
X146778571Y-93536104D02*
X146740476Y-93459914D01*
X146740476Y-93459914D02*
X146740476Y-93307533D01*
X146740476Y-93307533D02*
X146778571Y-93231342D01*
X146778571Y-93231342D02*
X146816666Y-93193247D01*
X146816666Y-93193247D02*
X146892857Y-93155152D01*
X158764285Y-96862295D02*
X159030952Y-96481342D01*
X159221428Y-96862295D02*
X159221428Y-96062295D01*
X159221428Y-96062295D02*
X158916666Y-96062295D01*
X158916666Y-96062295D02*
X158840476Y-96100390D01*
X158840476Y-96100390D02*
X158802381Y-96138485D01*
X158802381Y-96138485D02*
X158764285Y-96214676D01*
X158764285Y-96214676D02*
X158764285Y-96328961D01*
X158764285Y-96328961D02*
X158802381Y-96405152D01*
X158802381Y-96405152D02*
X158840476Y-96443247D01*
X158840476Y-96443247D02*
X158916666Y-96481342D01*
X158916666Y-96481342D02*
X159221428Y-96481342D01*
X158002381Y-96862295D02*
X158459524Y-96862295D01*
X158230952Y-96862295D02*
X158230952Y-96062295D01*
X158230952Y-96062295D02*
X158307143Y-96176580D01*
X158307143Y-96176580D02*
X158383333Y-96252771D01*
X158383333Y-96252771D02*
X158459524Y-96290866D01*
X157316666Y-96062295D02*
X157469047Y-96062295D01*
X157469047Y-96062295D02*
X157545238Y-96100390D01*
X157545238Y-96100390D02*
X157583333Y-96138485D01*
X157583333Y-96138485D02*
X157659523Y-96252771D01*
X157659523Y-96252771D02*
X157697619Y-96405152D01*
X157697619Y-96405152D02*
X157697619Y-96709914D01*
X157697619Y-96709914D02*
X157659523Y-96786104D01*
X157659523Y-96786104D02*
X157621428Y-96824200D01*
X157621428Y-96824200D02*
X157545238Y-96862295D01*
X157545238Y-96862295D02*
X157392857Y-96862295D01*
X157392857Y-96862295D02*
X157316666Y-96824200D01*
X157316666Y-96824200D02*
X157278571Y-96786104D01*
X157278571Y-96786104D02*
X157240476Y-96709914D01*
X157240476Y-96709914D02*
X157240476Y-96519438D01*
X157240476Y-96519438D02*
X157278571Y-96443247D01*
X157278571Y-96443247D02*
X157316666Y-96405152D01*
X157316666Y-96405152D02*
X157392857Y-96367057D01*
X157392857Y-96367057D02*
X157545238Y-96367057D01*
X157545238Y-96367057D02*
X157621428Y-96405152D01*
X157621428Y-96405152D02*
X157659523Y-96443247D01*
X157659523Y-96443247D02*
X157697619Y-96519438D01*
X158133332Y-77112295D02*
X158399999Y-76731342D01*
X158590475Y-77112295D02*
X158590475Y-76312295D01*
X158590475Y-76312295D02*
X158285713Y-76312295D01*
X158285713Y-76312295D02*
X158209523Y-76350390D01*
X158209523Y-76350390D02*
X158171428Y-76388485D01*
X158171428Y-76388485D02*
X158133332Y-76464676D01*
X158133332Y-76464676D02*
X158133332Y-76578961D01*
X158133332Y-76578961D02*
X158171428Y-76655152D01*
X158171428Y-76655152D02*
X158209523Y-76693247D01*
X158209523Y-76693247D02*
X158285713Y-76731342D01*
X158285713Y-76731342D02*
X158590475Y-76731342D01*
X157866666Y-76312295D02*
X157333332Y-76312295D01*
X157333332Y-76312295D02*
X157676190Y-77112295D01*
X146616666Y-76499366D02*
X146649999Y-76532700D01*
X146649999Y-76532700D02*
X146749999Y-76566033D01*
X146749999Y-76566033D02*
X146816666Y-76566033D01*
X146816666Y-76566033D02*
X146916666Y-76532700D01*
X146916666Y-76532700D02*
X146983333Y-76466033D01*
X146983333Y-76466033D02*
X147016666Y-76399366D01*
X147016666Y-76399366D02*
X147049999Y-76266033D01*
X147049999Y-76266033D02*
X147049999Y-76166033D01*
X147049999Y-76166033D02*
X147016666Y-76032700D01*
X147016666Y-76032700D02*
X146983333Y-75966033D01*
X146983333Y-75966033D02*
X146916666Y-75899366D01*
X146916666Y-75899366D02*
X146816666Y-75866033D01*
X146816666Y-75866033D02*
X146749999Y-75866033D01*
X146749999Y-75866033D02*
X146649999Y-75899366D01*
X146649999Y-75899366D02*
X146616666Y-75932700D01*
X146016666Y-76099366D02*
X146016666Y-76566033D01*
X146183333Y-75832700D02*
X146349999Y-76332700D01*
X146349999Y-76332700D02*
X145916666Y-76332700D01*
X151514285Y-76755895D02*
X151780952Y-76374942D01*
X151971428Y-76755895D02*
X151971428Y-75955895D01*
X151971428Y-75955895D02*
X151666666Y-75955895D01*
X151666666Y-75955895D02*
X151590476Y-75993990D01*
X151590476Y-75993990D02*
X151552381Y-76032085D01*
X151552381Y-76032085D02*
X151514285Y-76108276D01*
X151514285Y-76108276D02*
X151514285Y-76222561D01*
X151514285Y-76222561D02*
X151552381Y-76298752D01*
X151552381Y-76298752D02*
X151590476Y-76336847D01*
X151590476Y-76336847D02*
X151666666Y-76374942D01*
X151666666Y-76374942D02*
X151971428Y-76374942D01*
X150752381Y-76755895D02*
X151209524Y-76755895D01*
X150980952Y-76755895D02*
X150980952Y-75955895D01*
X150980952Y-75955895D02*
X151057143Y-76070180D01*
X151057143Y-76070180D02*
X151133333Y-76146371D01*
X151133333Y-76146371D02*
X151209524Y-76184466D01*
X150485714Y-75955895D02*
X149990476Y-75955895D01*
X149990476Y-75955895D02*
X150257142Y-76260657D01*
X150257142Y-76260657D02*
X150142857Y-76260657D01*
X150142857Y-76260657D02*
X150066666Y-76298752D01*
X150066666Y-76298752D02*
X150028571Y-76336847D01*
X150028571Y-76336847D02*
X149990476Y-76413038D01*
X149990476Y-76413038D02*
X149990476Y-76603514D01*
X149990476Y-76603514D02*
X150028571Y-76679704D01*
X150028571Y-76679704D02*
X150066666Y-76717800D01*
X150066666Y-76717800D02*
X150142857Y-76755895D01*
X150142857Y-76755895D02*
X150371428Y-76755895D01*
X150371428Y-76755895D02*
X150447619Y-76717800D01*
X150447619Y-76717800D02*
X150485714Y-76679704D01*
X150383333Y-83112295D02*
X150764285Y-83112295D01*
X150764285Y-83112295D02*
X150764285Y-82312295D01*
X149697619Y-83112295D02*
X150154762Y-83112295D01*
X149926190Y-83112295D02*
X149926190Y-82312295D01*
X149926190Y-82312295D02*
X150002381Y-82426580D01*
X150002381Y-82426580D02*
X150078571Y-82502771D01*
X150078571Y-82502771D02*
X150154762Y-82540866D01*
X157261904Y-80904819D02*
X157261904Y-81714342D01*
X157261904Y-81714342D02*
X157214285Y-81809580D01*
X157214285Y-81809580D02*
X157166666Y-81857200D01*
X157166666Y-81857200D02*
X157071428Y-81904819D01*
X157071428Y-81904819D02*
X156880952Y-81904819D01*
X156880952Y-81904819D02*
X156785714Y-81857200D01*
X156785714Y-81857200D02*
X156738095Y-81809580D01*
X156738095Y-81809580D02*
X156690476Y-81714342D01*
X156690476Y-81714342D02*
X156690476Y-80904819D01*
X155785714Y-80904819D02*
X155976190Y-80904819D01*
X155976190Y-80904819D02*
X156071428Y-80952438D01*
X156071428Y-80952438D02*
X156119047Y-81000057D01*
X156119047Y-81000057D02*
X156214285Y-81142914D01*
X156214285Y-81142914D02*
X156261904Y-81333390D01*
X156261904Y-81333390D02*
X156261904Y-81714342D01*
X156261904Y-81714342D02*
X156214285Y-81809580D01*
X156214285Y-81809580D02*
X156166666Y-81857200D01*
X156166666Y-81857200D02*
X156071428Y-81904819D01*
X156071428Y-81904819D02*
X155880952Y-81904819D01*
X155880952Y-81904819D02*
X155785714Y-81857200D01*
X155785714Y-81857200D02*
X155738095Y-81809580D01*
X155738095Y-81809580D02*
X155690476Y-81714342D01*
X155690476Y-81714342D02*
X155690476Y-81476247D01*
X155690476Y-81476247D02*
X155738095Y-81381009D01*
X155738095Y-81381009D02*
X155785714Y-81333390D01*
X155785714Y-81333390D02*
X155880952Y-81285771D01*
X155880952Y-81285771D02*
X156071428Y-81285771D01*
X156071428Y-81285771D02*
X156166666Y-81333390D01*
X156166666Y-81333390D02*
X156214285Y-81381009D01*
X156214285Y-81381009D02*
X156261904Y-81476247D01*
X144633332Y-76536104D02*
X144671428Y-76574200D01*
X144671428Y-76574200D02*
X144785713Y-76612295D01*
X144785713Y-76612295D02*
X144861904Y-76612295D01*
X144861904Y-76612295D02*
X144976190Y-76574200D01*
X144976190Y-76574200D02*
X145052380Y-76498009D01*
X145052380Y-76498009D02*
X145090475Y-76421819D01*
X145090475Y-76421819D02*
X145128571Y-76269438D01*
X145128571Y-76269438D02*
X145128571Y-76155152D01*
X145128571Y-76155152D02*
X145090475Y-76002771D01*
X145090475Y-76002771D02*
X145052380Y-75926580D01*
X145052380Y-75926580D02*
X144976190Y-75850390D01*
X144976190Y-75850390D02*
X144861904Y-75812295D01*
X144861904Y-75812295D02*
X144785713Y-75812295D01*
X144785713Y-75812295D02*
X144671428Y-75850390D01*
X144671428Y-75850390D02*
X144633332Y-75888485D01*
X143909523Y-75812295D02*
X144290475Y-75812295D01*
X144290475Y-75812295D02*
X144328571Y-76193247D01*
X144328571Y-76193247D02*
X144290475Y-76155152D01*
X144290475Y-76155152D02*
X144214285Y-76117057D01*
X144214285Y-76117057D02*
X144023809Y-76117057D01*
X144023809Y-76117057D02*
X143947618Y-76155152D01*
X143947618Y-76155152D02*
X143909523Y-76193247D01*
X143909523Y-76193247D02*
X143871428Y-76269438D01*
X143871428Y-76269438D02*
X143871428Y-76459914D01*
X143871428Y-76459914D02*
X143909523Y-76536104D01*
X143909523Y-76536104D02*
X143947618Y-76574200D01*
X143947618Y-76574200D02*
X144023809Y-76612295D01*
X144023809Y-76612295D02*
X144214285Y-76612295D01*
X144214285Y-76612295D02*
X144290475Y-76574200D01*
X144290475Y-76574200D02*
X144328571Y-76536104D01*
X111633332Y-82286104D02*
X111671428Y-82324200D01*
X111671428Y-82324200D02*
X111785713Y-82362295D01*
X111785713Y-82362295D02*
X111861904Y-82362295D01*
X111861904Y-82362295D02*
X111976190Y-82324200D01*
X111976190Y-82324200D02*
X112052380Y-82248009D01*
X112052380Y-82248009D02*
X112090475Y-82171819D01*
X112090475Y-82171819D02*
X112128571Y-82019438D01*
X112128571Y-82019438D02*
X112128571Y-81905152D01*
X112128571Y-81905152D02*
X112090475Y-81752771D01*
X112090475Y-81752771D02*
X112052380Y-81676580D01*
X112052380Y-81676580D02*
X111976190Y-81600390D01*
X111976190Y-81600390D02*
X111861904Y-81562295D01*
X111861904Y-81562295D02*
X111785713Y-81562295D01*
X111785713Y-81562295D02*
X111671428Y-81600390D01*
X111671428Y-81600390D02*
X111633332Y-81638485D01*
X111176190Y-81905152D02*
X111252380Y-81867057D01*
X111252380Y-81867057D02*
X111290475Y-81828961D01*
X111290475Y-81828961D02*
X111328571Y-81752771D01*
X111328571Y-81752771D02*
X111328571Y-81714676D01*
X111328571Y-81714676D02*
X111290475Y-81638485D01*
X111290475Y-81638485D02*
X111252380Y-81600390D01*
X111252380Y-81600390D02*
X111176190Y-81562295D01*
X111176190Y-81562295D02*
X111023809Y-81562295D01*
X111023809Y-81562295D02*
X110947618Y-81600390D01*
X110947618Y-81600390D02*
X110909523Y-81638485D01*
X110909523Y-81638485D02*
X110871428Y-81714676D01*
X110871428Y-81714676D02*
X110871428Y-81752771D01*
X110871428Y-81752771D02*
X110909523Y-81828961D01*
X110909523Y-81828961D02*
X110947618Y-81867057D01*
X110947618Y-81867057D02*
X111023809Y-81905152D01*
X111023809Y-81905152D02*
X111176190Y-81905152D01*
X111176190Y-81905152D02*
X111252380Y-81943247D01*
X111252380Y-81943247D02*
X111290475Y-81981342D01*
X111290475Y-81981342D02*
X111328571Y-82057533D01*
X111328571Y-82057533D02*
X111328571Y-82209914D01*
X111328571Y-82209914D02*
X111290475Y-82286104D01*
X111290475Y-82286104D02*
X111252380Y-82324200D01*
X111252380Y-82324200D02*
X111176190Y-82362295D01*
X111176190Y-82362295D02*
X111023809Y-82362295D01*
X111023809Y-82362295D02*
X110947618Y-82324200D01*
X110947618Y-82324200D02*
X110909523Y-82286104D01*
X110909523Y-82286104D02*
X110871428Y-82209914D01*
X110871428Y-82209914D02*
X110871428Y-82057533D01*
X110871428Y-82057533D02*
X110909523Y-81981342D01*
X110909523Y-81981342D02*
X110947618Y-81943247D01*
X110947618Y-81943247D02*
X111023809Y-81905152D01*
X118788094Y-86892319D02*
X118788094Y-85892319D01*
X118788094Y-85892319D02*
X118549999Y-85892319D01*
X118549999Y-85892319D02*
X118407142Y-85939938D01*
X118407142Y-85939938D02*
X118311904Y-86035176D01*
X118311904Y-86035176D02*
X118264285Y-86130414D01*
X118264285Y-86130414D02*
X118216666Y-86320890D01*
X118216666Y-86320890D02*
X118216666Y-86463747D01*
X118216666Y-86463747D02*
X118264285Y-86654223D01*
X118264285Y-86654223D02*
X118311904Y-86749461D01*
X118311904Y-86749461D02*
X118407142Y-86844700D01*
X118407142Y-86844700D02*
X118549999Y-86892319D01*
X118549999Y-86892319D02*
X118788094Y-86892319D01*
X117883332Y-85892319D02*
X117264285Y-85892319D01*
X117264285Y-85892319D02*
X117597618Y-86273271D01*
X117597618Y-86273271D02*
X117454761Y-86273271D01*
X117454761Y-86273271D02*
X117359523Y-86320890D01*
X117359523Y-86320890D02*
X117311904Y-86368509D01*
X117311904Y-86368509D02*
X117264285Y-86463747D01*
X117264285Y-86463747D02*
X117264285Y-86701842D01*
X117264285Y-86701842D02*
X117311904Y-86797080D01*
X117311904Y-86797080D02*
X117359523Y-86844700D01*
X117359523Y-86844700D02*
X117454761Y-86892319D01*
X117454761Y-86892319D02*
X117740475Y-86892319D01*
X117740475Y-86892319D02*
X117835713Y-86844700D01*
X117835713Y-86844700D02*
X117883332Y-86797080D01*
X160764285Y-92036104D02*
X160802381Y-92074200D01*
X160802381Y-92074200D02*
X160916666Y-92112295D01*
X160916666Y-92112295D02*
X160992857Y-92112295D01*
X160992857Y-92112295D02*
X161107143Y-92074200D01*
X161107143Y-92074200D02*
X161183333Y-91998009D01*
X161183333Y-91998009D02*
X161221428Y-91921819D01*
X161221428Y-91921819D02*
X161259524Y-91769438D01*
X161259524Y-91769438D02*
X161259524Y-91655152D01*
X161259524Y-91655152D02*
X161221428Y-91502771D01*
X161221428Y-91502771D02*
X161183333Y-91426580D01*
X161183333Y-91426580D02*
X161107143Y-91350390D01*
X161107143Y-91350390D02*
X160992857Y-91312295D01*
X160992857Y-91312295D02*
X160916666Y-91312295D01*
X160916666Y-91312295D02*
X160802381Y-91350390D01*
X160802381Y-91350390D02*
X160764285Y-91388485D01*
X160002381Y-92112295D02*
X160459524Y-92112295D01*
X160230952Y-92112295D02*
X160230952Y-91312295D01*
X160230952Y-91312295D02*
X160307143Y-91426580D01*
X160307143Y-91426580D02*
X160383333Y-91502771D01*
X160383333Y-91502771D02*
X160459524Y-91540866D01*
X159316666Y-91578961D02*
X159316666Y-92112295D01*
X159507142Y-91274200D02*
X159697619Y-91845628D01*
X159697619Y-91845628D02*
X159202380Y-91845628D01*
X143264285Y-87362295D02*
X143530952Y-86981342D01*
X143721428Y-87362295D02*
X143721428Y-86562295D01*
X143721428Y-86562295D02*
X143416666Y-86562295D01*
X143416666Y-86562295D02*
X143340476Y-86600390D01*
X143340476Y-86600390D02*
X143302381Y-86638485D01*
X143302381Y-86638485D02*
X143264285Y-86714676D01*
X143264285Y-86714676D02*
X143264285Y-86828961D01*
X143264285Y-86828961D02*
X143302381Y-86905152D01*
X143302381Y-86905152D02*
X143340476Y-86943247D01*
X143340476Y-86943247D02*
X143416666Y-86981342D01*
X143416666Y-86981342D02*
X143721428Y-86981342D01*
X142502381Y-87362295D02*
X142959524Y-87362295D01*
X142730952Y-87362295D02*
X142730952Y-86562295D01*
X142730952Y-86562295D02*
X142807143Y-86676580D01*
X142807143Y-86676580D02*
X142883333Y-86752771D01*
X142883333Y-86752771D02*
X142959524Y-86790866D01*
X141816666Y-86828961D02*
X141816666Y-87362295D01*
X142007142Y-86524200D02*
X142197619Y-87095628D01*
X142197619Y-87095628D02*
X141702380Y-87095628D01*
X109761904Y-77954819D02*
X109761904Y-78764342D01*
X109761904Y-78764342D02*
X109714285Y-78859580D01*
X109714285Y-78859580D02*
X109666666Y-78907200D01*
X109666666Y-78907200D02*
X109571428Y-78954819D01*
X109571428Y-78954819D02*
X109380952Y-78954819D01*
X109380952Y-78954819D02*
X109285714Y-78907200D01*
X109285714Y-78907200D02*
X109238095Y-78859580D01*
X109238095Y-78859580D02*
X109190476Y-78764342D01*
X109190476Y-78764342D02*
X109190476Y-77954819D01*
X108238095Y-77954819D02*
X108714285Y-77954819D01*
X108714285Y-77954819D02*
X108761904Y-78431009D01*
X108761904Y-78431009D02*
X108714285Y-78383390D01*
X108714285Y-78383390D02*
X108619047Y-78335771D01*
X108619047Y-78335771D02*
X108380952Y-78335771D01*
X108380952Y-78335771D02*
X108285714Y-78383390D01*
X108285714Y-78383390D02*
X108238095Y-78431009D01*
X108238095Y-78431009D02*
X108190476Y-78526247D01*
X108190476Y-78526247D02*
X108190476Y-78764342D01*
X108190476Y-78764342D02*
X108238095Y-78859580D01*
X108238095Y-78859580D02*
X108285714Y-78907200D01*
X108285714Y-78907200D02*
X108380952Y-78954819D01*
X108380952Y-78954819D02*
X108619047Y-78954819D01*
X108619047Y-78954819D02*
X108714285Y-78907200D01*
X108714285Y-78907200D02*
X108761904Y-78859580D01*
X154514285Y-97036104D02*
X154552381Y-97074200D01*
X154552381Y-97074200D02*
X154666666Y-97112295D01*
X154666666Y-97112295D02*
X154742857Y-97112295D01*
X154742857Y-97112295D02*
X154857143Y-97074200D01*
X154857143Y-97074200D02*
X154933333Y-96998009D01*
X154933333Y-96998009D02*
X154971428Y-96921819D01*
X154971428Y-96921819D02*
X155009524Y-96769438D01*
X155009524Y-96769438D02*
X155009524Y-96655152D01*
X155009524Y-96655152D02*
X154971428Y-96502771D01*
X154971428Y-96502771D02*
X154933333Y-96426580D01*
X154933333Y-96426580D02*
X154857143Y-96350390D01*
X154857143Y-96350390D02*
X154742857Y-96312295D01*
X154742857Y-96312295D02*
X154666666Y-96312295D01*
X154666666Y-96312295D02*
X154552381Y-96350390D01*
X154552381Y-96350390D02*
X154514285Y-96388485D01*
X153752381Y-97112295D02*
X154209524Y-97112295D01*
X153980952Y-97112295D02*
X153980952Y-96312295D01*
X153980952Y-96312295D02*
X154057143Y-96426580D01*
X154057143Y-96426580D02*
X154133333Y-96502771D01*
X154133333Y-96502771D02*
X154209524Y-96540866D01*
X153447619Y-96388485D02*
X153409523Y-96350390D01*
X153409523Y-96350390D02*
X153333333Y-96312295D01*
X153333333Y-96312295D02*
X153142857Y-96312295D01*
X153142857Y-96312295D02*
X153066666Y-96350390D01*
X153066666Y-96350390D02*
X153028571Y-96388485D01*
X153028571Y-96388485D02*
X152990476Y-96464676D01*
X152990476Y-96464676D02*
X152990476Y-96540866D01*
X152990476Y-96540866D02*
X153028571Y-96655152D01*
X153028571Y-96655152D02*
X153485714Y-97112295D01*
X153485714Y-97112295D02*
X152990476Y-97112295D01*
D11*
%TO.C,U4*%
X112440000Y-80955000D02*
X112440000Y-82555000D01*
X115560000Y-82555000D02*
X115560000Y-80955000D01*
D12*
X113150000Y-79255000D02*
G75*
G02*
X112950000Y-79255000I-100000J0D01*
G01*
X112950000Y-79255000D02*
G75*
G02*
X113150000Y-79255000I100000J0D01*
G01*
D11*
%TO.C,R12*%
X118180000Y-80037500D02*
X118020000Y-80037500D01*
X118180000Y-80837500D02*
X118020000Y-80837500D01*
%TO.C,R15*%
X151350000Y-93670000D02*
X151350000Y-93830000D01*
X152150000Y-93670000D02*
X152150000Y-93830000D01*
%TO.C,D5*%
X151150000Y-88875000D02*
X152850000Y-88875000D01*
X152850000Y-90125000D02*
X151150000Y-90125000D01*
D12*
X154100000Y-89500000D02*
G75*
G02*
X153900000Y-89500000I-100000J0D01*
G01*
X153900000Y-89500000D02*
G75*
G02*
X154100000Y-89500000I100000J0D01*
G01*
%TO.C,C15*%
X154950000Y-87750000D02*
X156050000Y-87750000D01*
D11*
%TO.C,U10*%
X189025000Y-80225000D02*
X189025000Y-85955000D01*
X194755000Y-87225000D02*
X189025000Y-87225000D01*
X196025000Y-80225000D02*
X190295000Y-80225000D01*
X196025000Y-81495000D02*
X196025000Y-87225000D01*
D12*
X188525000Y-80825000D02*
G75*
G02*
X188325000Y-80825000I-100000J0D01*
G01*
X188325000Y-80825000D02*
G75*
G02*
X188525000Y-80825000I100000J0D01*
G01*
D11*
%TO.C,FB2*%
X153750000Y-92150000D02*
X154750000Y-92150000D01*
X154750000Y-90850000D02*
X153750000Y-90850000D01*
D13*
%TO.C,Q1*%
X121287500Y-78940000D02*
X121937500Y-78940000D01*
X121287500Y-82060000D02*
X121937500Y-82060000D01*
X122587500Y-78940000D02*
X121937500Y-78940000D01*
X122587500Y-82060000D02*
X121937500Y-82060000D01*
X123100000Y-78990000D02*
X122860000Y-78660000D01*
X123340000Y-78660000D01*
X123100000Y-78990000D01*
G36*
X123100000Y-78990000D02*
G01*
X122860000Y-78660000D01*
X123340000Y-78660000D01*
X123100000Y-78990000D01*
G37*
D11*
%TO.C,FB3*%
X151250000Y-91900000D02*
X152250000Y-91900000D01*
X152250000Y-90600000D02*
X151250000Y-90600000D01*
D12*
%TO.C,C13*%
X156800000Y-98100000D02*
X155700000Y-98100000D01*
D11*
%TO.C,R9*%
X154080000Y-77350000D02*
X153920000Y-77350000D01*
X154080000Y-78150000D02*
X153920000Y-78150000D01*
%TO.C,U8*%
X146730000Y-87060000D02*
X144970000Y-87060000D01*
X146730000Y-90200000D02*
X144970000Y-90200000D01*
D12*
X143450000Y-89630000D02*
G75*
G02*
X143250000Y-89630000I-100000J0D01*
G01*
X143250000Y-89630000D02*
G75*
G02*
X143450000Y-89630000I100000J0D01*
G01*
D11*
%TO.C,R11*%
X111420000Y-85100000D02*
X111580000Y-85100000D01*
X111420000Y-85900000D02*
X111580000Y-85900000D01*
%TO.C,R10*%
X120200000Y-84292500D02*
X120200000Y-84132500D01*
X121000000Y-84292500D02*
X121000000Y-84132500D01*
%TO.C,R16*%
X155850000Y-94330000D02*
X155850000Y-94170000D01*
X156650000Y-94330000D02*
X156650000Y-94170000D01*
%TO.C,R7*%
X156100000Y-77080000D02*
X156100000Y-76920000D01*
X156900000Y-77080000D02*
X156900000Y-76920000D01*
%TO.C,R13*%
X150920000Y-77350000D02*
X151080000Y-77350000D01*
X150920000Y-78150000D02*
X151080000Y-78150000D01*
%TO.C,L1*%
X152350000Y-83960000D02*
X148350000Y-83960000D01*
X152350000Y-88300000D02*
X148350000Y-88300000D01*
%TO.C,U6*%
X152740000Y-79890000D02*
X152740000Y-80830000D01*
X152740000Y-79890000D02*
X154140000Y-79890000D01*
X152740000Y-82070000D02*
X152740000Y-83010000D01*
X152740000Y-83010000D02*
X154140000Y-83010000D01*
D12*
X155640000Y-80450000D02*
G75*
G02*
X155440000Y-80450000I-100000J0D01*
G01*
X155440000Y-80450000D02*
G75*
G02*
X155640000Y-80450000I100000J0D01*
G01*
D13*
%TO.C,D3*%
X116490000Y-82787500D02*
X116490000Y-83437500D01*
X116490000Y-84087500D02*
X116490000Y-83437500D01*
X119610000Y-82787500D02*
X119610000Y-83437500D01*
X119610000Y-84087500D02*
X119610000Y-83437500D01*
X116540000Y-82275000D02*
X116210000Y-82515000D01*
X116210000Y-82035000D01*
X116540000Y-82275000D01*
G36*
X116540000Y-82275000D02*
G01*
X116210000Y-82515000D01*
X116210000Y-82035000D01*
X116540000Y-82275000D01*
G37*
D12*
%TO.C,C14*%
X157250000Y-91200000D02*
X157250000Y-92300000D01*
D11*
%TO.C,R14*%
X142350000Y-88800000D02*
X142350000Y-88960000D01*
X143150000Y-88800000D02*
X143150000Y-88960000D01*
%TO.C,U5*%
X107490000Y-80955000D02*
X107490000Y-82555000D01*
X110610000Y-82555000D02*
X110610000Y-80955000D01*
D12*
X108200000Y-79255000D02*
G75*
G02*
X108000000Y-79255000I-100000J0D01*
G01*
X108000000Y-79255000D02*
G75*
G02*
X108200000Y-79255000I100000J0D01*
G01*
%TO.C,C12*%
X154300000Y-94250000D02*
X153200000Y-94250000D01*
%TD*%
M02*
