%TF.GenerationSoftware,KiCad,Pcbnew,8.0.8*%
%TF.CreationDate,2025-04-26T12:31:47+03:00*%
%TF.ProjectId,gamma-spectrometer,67616d6d-612d-4737-9065-6374726f6d65,v0.0.4*%
%TF.SameCoordinates,Original*%
%TF.FileFunction,Copper,L2,Bot*%
%TF.FilePolarity,Positive*%
%FSLAX46Y46*%
G04 Gerber Fmt 4.6, Leading zero omitted, Abs format (unit mm)*
G04 Created by KiCad (PCBNEW 8.0.8) date 2025-04-26 12:31:47*
%MOMM*%
%LPD*%
G01*
G04 APERTURE LIST*
G04 Aperture macros list*
%AMRoundRect*
0 Rectangle with rounded corners*
0 $1 Rounding radius*
0 $2 $3 $4 $5 $6 $7 $8 $9 X,Y pos of 4 corners*
0 Add a 4 corners polygon primitive as box body*
4,1,4,$2,$3,$4,$5,$6,$7,$8,$9,$2,$3,0*
0 Add four circle primitives for the rounded corners*
1,1,$1+$1,$2,$3*
1,1,$1+$1,$4,$5*
1,1,$1+$1,$6,$7*
1,1,$1+$1,$8,$9*
0 Add four rect primitives between the rounded corners*
20,1,$1+$1,$2,$3,$4,$5,0*
20,1,$1+$1,$4,$5,$6,$7,0*
20,1,$1+$1,$6,$7,$8,$9,0*
20,1,$1+$1,$8,$9,$2,$3,0*%
%AMFreePoly0*
4,1,324,1.346010,3.150049,1.351005,3.149050,1.357000,3.149050,1.357008,3.149049,1.363008,3.148049,1.363019,3.148046,1.368014,3.146048,1.374008,3.145049,1.374019,3.145046,1.379019,3.143046,1.379022,3.143045,1.385022,3.140045,1.385021,3.140044,1.390019,3.138046,1.390026,3.138043,1.405026,3.129043,1.405035,3.129035,1.409028,3.125041,1.414026,3.122043,1.414035,3.122035,
1.422035,3.114035,1.422043,3.114026,1.425041,3.109028,1.429035,3.105035,1.429043,3.105026,1.438043,3.090026,1.438046,3.090019,1.440045,3.085022,1.443045,3.079022,1.443046,3.079019,1.445046,3.074019,1.445049,3.074008,1.446048,3.068014,1.448046,3.063019,1.448049,3.063008,1.449049,3.057008,1.449050,3.057000,1.449050,3.051005,1.450049,3.046010,1.450050,3.046000,
1.450050,1.450050,3.036000,1.450050,3.043000,1.449050,3.049000,1.449050,3.049016,1.449047,3.055012,1.447048,3.061008,1.446049,3.061016,1.446047,3.079016,1.440047,3.079026,1.440043,3.084026,1.437043,3.090026,1.434043,3.095026,1.431043,3.095028,1.431042,3.101028,1.427042,3.101031,1.427039,3.106031,1.423039,3.110031,1.419039,3.115031,1.415039,3.115039,1.415031,
3.119039,1.410031,3.123039,1.406031,3.127039,1.401031,3.127042,1.401028,3.131042,1.395028,3.131043,1.395026,3.134043,1.390026,3.137043,1.384026,3.140043,1.379026,3.140047,1.379016,3.146047,1.361016,3.146049,1.361008,3.147048,1.355012,3.149047,1.349016,3.149050,1.349000,3.149050,1.343000,3.150050,1.336000,3.150050,-1.346000,3.150049,-1.346010,3.149050,-1.351005,
3.149050,-1.357000,3.149049,-1.357008,3.148049,-1.363008,3.148046,-1.363019,3.146048,-1.368014,3.145049,-1.374008,3.145046,-1.374019,3.143046,-1.379019,3.143045,-1.379022,3.140045,-1.385022,3.138046,-1.390019,3.138043,-1.390026,3.129043,-1.405026,3.129035,-1.405035,3.125041,-1.409028,3.122043,-1.414026,3.122035,-1.414035,3.114035,-1.422035,3.114026,-1.422043,3.109028,-1.425041,
3.105035,-1.429035,3.105026,-1.429043,3.090026,-1.438043,3.090019,-1.438046,3.085021,-1.440044,3.085022,-1.440045,3.079022,-1.443045,3.079019,-1.443046,3.074019,-1.445046,3.074008,-1.445049,3.068014,-1.446048,3.063019,-1.448046,3.063008,-1.448049,3.057008,-1.449049,3.057000,-1.449050,3.051005,-1.449050,3.046010,-1.450049,3.046000,-1.450050,1.450050,-1.450050,1.450050,-3.036000,
1.449050,-3.043000,1.449050,-3.049000,1.449047,-3.049016,1.447048,-3.055012,1.446049,-3.061008,1.446047,-3.061016,1.440047,-3.079016,1.440043,-3.079026,1.437043,-3.084026,1.434043,-3.090026,1.431043,-3.095026,1.431042,-3.095028,1.427042,-3.101028,1.427039,-3.101031,1.423039,-3.106031,1.419039,-3.110031,1.415039,-3.115031,1.415031,-3.115039,1.410031,-3.119039,1.406031,-3.123039,
1.401031,-3.127039,1.401028,-3.127042,1.395028,-3.131042,1.395026,-3.131043,1.390026,-3.134043,1.384026,-3.137043,1.379026,-3.140043,1.379016,-3.140047,1.361016,-3.146047,1.361008,-3.146049,1.355012,-3.147048,1.349016,-3.149047,1.349000,-3.149050,1.343000,-3.149050,1.336000,-3.150050,-1.346000,-3.150050,-1.346010,-3.150049,-1.351005,-3.149050,-1.357000,-3.149050,-1.357008,-3.149049,
-1.363008,-3.148049,-1.363019,-3.148046,-1.368014,-3.146048,-1.374008,-3.145049,-1.374019,-3.145046,-1.379019,-3.143046,-1.379022,-3.143045,-1.385022,-3.140045,-1.385021,-3.140044,-1.390019,-3.138046,-1.390026,-3.138043,-1.405026,-3.129043,-1.405035,-3.129035,-1.409028,-3.125041,-1.414026,-3.122043,-1.414035,-3.122035,-1.422035,-3.114035,-1.422043,-3.114026,-1.425041,-3.109028,-1.429035,-3.105035,
-1.429043,-3.105026,-1.438043,-3.090026,-1.438046,-3.090019,-1.440045,-3.085022,-1.443045,-3.079022,-1.443046,-3.079019,-1.445046,-3.074019,-1.445049,-3.074008,-1.446048,-3.068014,-1.448046,-3.063019,-1.448049,-3.063008,-1.449049,-3.057008,-1.449050,-3.057000,-1.449050,-3.051005,-1.450049,-3.046010,-1.450050,-3.046000,-1.450050,-1.450050,-3.046000,-1.450050,-3.046010,-1.450049,-3.051005,-1.449050,
-3.057000,-1.449050,-3.057008,-1.449049,-3.063008,-1.448049,-3.063019,-1.448046,-3.068014,-1.446048,-3.074008,-1.445049,-3.074019,-1.445046,-3.079019,-1.443046,-3.079022,-1.443045,-3.085022,-1.440045,-3.085021,-1.440044,-3.090019,-1.438046,-3.090026,-1.438043,-3.105026,-1.429043,-3.105035,-1.429035,-3.109028,-1.425041,-3.114026,-1.422043,-3.114035,-1.422035,-3.122035,-1.414035,-3.122043,-1.414026,
-3.125041,-1.409028,-3.129035,-1.405035,-3.129043,-1.405026,-3.138043,-1.390026,-3.138046,-1.390019,-3.140045,-1.385022,-3.143045,-1.379022,-3.143046,-1.379019,-3.145046,-1.374019,-3.145049,-1.374008,-3.146048,-1.368014,-3.148046,-1.363019,-3.148049,-1.363008,-3.149049,-1.357008,-3.149050,-1.357000,-3.149050,-1.351005,-3.150049,-1.346010,-3.150050,-1.346000,-3.150050,1.327000,-3.149049,1.334007,
-3.149049,1.334008,-3.148049,1.340008,-3.147049,1.347007,-3.146049,1.354007,-3.146047,1.354016,-3.144047,1.360016,-3.144046,1.360020,-3.141046,1.367020,-3.139047,1.373016,-3.139045,1.373022,-3.133042,1.385028,-3.129042,1.391028,-3.129039,1.391031,-3.125041,1.396027,-3.125042,1.396028,-3.121042,1.402028,-3.121039,1.402031,-3.117039,1.407031,-3.107031,1.417039,-3.102031,1.421039,
-3.102028,1.421042,-3.096028,1.425042,-3.096027,1.425041,-3.091031,1.429039,-3.091028,1.429042,-3.085028,1.433042,-3.073022,1.439045,-3.073016,1.439047,-3.067019,1.441045,-3.067020,1.441046,-3.060020,1.444046,-3.060016,1.444047,-3.054016,1.446047,-3.054007,1.446049,-3.047007,1.447049,-3.040007,1.448048,-3.040008,1.448049,-3.034008,1.449049,-3.034007,1.449049,-3.027000,1.450050,
-1.450050,1.450050,-1.450050,3.046000,-1.450049,3.046010,-1.449050,3.051005,-1.449050,3.057000,-1.449049,3.057008,-1.448049,3.063008,-1.448046,3.063019,-1.446048,3.068014,-1.445049,3.074008,-1.445046,3.074019,-1.443046,3.079019,-1.443045,3.079022,-1.440045,3.085022,-1.438046,3.090019,-1.438043,3.090026,-1.429043,3.105026,-1.429035,3.105035,-1.425041,3.109028,-1.422043,3.114026,
-1.422035,3.114035,-1.414035,3.122035,-1.414026,3.122043,-1.409028,3.125041,-1.405035,3.129035,-1.405026,3.129043,-1.390026,3.138043,-1.390019,3.138046,-1.385021,3.140044,-1.385022,3.140045,-1.379022,3.143045,-1.379019,3.143046,-1.374019,3.145046,-1.374008,3.145049,-1.368014,3.146048,-1.363019,3.148046,-1.363008,3.148049,-1.357008,3.149049,-1.357000,3.149050,-1.351005,3.149050,
-1.346010,3.150049,-1.346000,3.150050,1.346000,3.150050,1.346010,3.150049,1.346010,3.150049,$1*%
G04 Aperture macros list end*
%ADD10C,0.300000*%
%TA.AperFunction,SMDPad,CuDef*%
%ADD11R,0.900000X0.650000*%
%TD*%
%TA.AperFunction,SMDPad,CuDef*%
%ADD12R,0.650000X0.900000*%
%TD*%
%TA.AperFunction,ComponentPad*%
%ADD13R,1.218000X1.218000*%
%TD*%
%TA.AperFunction,ComponentPad*%
%ADD14C,1.218000*%
%TD*%
%TA.AperFunction,ComponentPad*%
%ADD15R,1.308000X1.308000*%
%TD*%
%TA.AperFunction,ComponentPad*%
%ADD16C,1.308000*%
%TD*%
%TA.AperFunction,ComponentPad*%
%ADD17O,1.700000X1.700000*%
%TD*%
%TA.AperFunction,ComponentPad*%
%ADD18R,1.700000X1.700000*%
%TD*%
%TA.AperFunction,SMDPad,CuDef*%
%ADD19RoundRect,0.108750X0.326250X0.356250X-0.326250X0.356250X-0.326250X-0.356250X0.326250X-0.356250X0*%
%TD*%
%TA.AperFunction,SMDPad,CuDef*%
%ADD20RoundRect,0.072500X-0.217500X0.532500X-0.217500X-0.532500X0.217500X-0.532500X0.217500X0.532500X0*%
%TD*%
%TA.AperFunction,SMDPad,CuDef*%
%ADD21R,0.600000X0.600000*%
%TD*%
%TA.AperFunction,SMDPad,CuDef*%
%ADD22RoundRect,0.108750X0.356250X-0.326250X0.356250X0.326250X-0.356250X0.326250X-0.356250X-0.326250X0*%
%TD*%
%TA.AperFunction,SMDPad,CuDef*%
%ADD23R,1.450000X1.150000*%
%TD*%
%TA.AperFunction,SMDPad,CuDef*%
%ADD24RoundRect,0.150000X-0.150000X-0.400000X0.150000X-0.400000X0.150000X0.400000X-0.150000X0.400000X0*%
%TD*%
%TA.AperFunction,SMDPad,CuDef*%
%ADD25RoundRect,0.150000X-0.400000X-0.150000X0.400000X-0.150000X0.400000X0.150000X-0.400000X0.150000X0*%
%TD*%
%TA.AperFunction,SMDPad,CuDef*%
%ADD26FreePoly0,0.000000*%
%TD*%
%TA.AperFunction,SMDPad,CuDef*%
%ADD27RoundRect,0.075000X0.225000X0.260000X-0.225000X0.260000X-0.225000X-0.260000X0.225000X-0.260000X0*%
%TD*%
%TA.AperFunction,SMDPad,CuDef*%
%ADD28RoundRect,0.150000X0.587500X0.150000X-0.587500X0.150000X-0.587500X-0.150000X0.587500X-0.150000X0*%
%TD*%
%TA.AperFunction,SMDPad,CuDef*%
%ADD29R,0.870000X0.930000*%
%TD*%
%TA.AperFunction,SMDPad,CuDef*%
%ADD30RoundRect,0.150000X-0.460000X-0.150000X0.460000X-0.150000X0.460000X0.150000X-0.460000X0.150000X0*%
%TD*%
%TA.AperFunction,SMDPad,CuDef*%
%ADD31RoundRect,0.108750X-0.326250X-0.356250X0.326250X-0.356250X0.326250X0.356250X-0.326250X0.356250X0*%
%TD*%
%TA.AperFunction,SMDPad,CuDef*%
%ADD32R,0.930000X0.870000*%
%TD*%
%TA.AperFunction,SMDPad,CuDef*%
%ADD33R,1.200000X3.700000*%
%TD*%
%TA.AperFunction,SMDPad,CuDef*%
%ADD34RoundRect,0.147500X0.467500X0.147500X-0.467500X0.147500X-0.467500X-0.147500X0.467500X-0.147500X0*%
%TD*%
%TA.AperFunction,SMDPad,CuDef*%
%ADD35R,0.700000X0.700000*%
%TD*%
%TA.AperFunction,SMDPad,CuDef*%
%ADD36RoundRect,0.150000X-0.150000X0.587500X-0.150000X-0.587500X0.150000X-0.587500X0.150000X0.587500X0*%
%TD*%
%TA.AperFunction,SMDPad,CuDef*%
%ADD37R,1.150000X1.450000*%
%TD*%
%TA.AperFunction,ViaPad*%
%ADD38C,1.000000*%
%TD*%
%TA.AperFunction,ViaPad*%
%ADD39C,1.200000*%
%TD*%
%TA.AperFunction,ViaPad*%
%ADD40C,0.600000*%
%TD*%
%TA.AperFunction,Conductor*%
%ADD41C,0.200000*%
%TD*%
G04 APERTURE END LIST*
D10*
G36*
X142249492Y-99245535D02*
G01*
X142286496Y-99282539D01*
X142335297Y-99380140D01*
X142455378Y-100400828D01*
X141988346Y-100400828D01*
X141988346Y-99200828D01*
X142160079Y-99200828D01*
X142249492Y-99245535D01*
G37*
G36*
X136178064Y-99245535D02*
G01*
X136215068Y-99282539D01*
X136268247Y-99388898D01*
X136331203Y-99640720D01*
X136331203Y-99960936D01*
X136268247Y-100212757D01*
X136215067Y-100319117D01*
X136178064Y-100356121D01*
X136088651Y-100400828D01*
X136016613Y-100400828D01*
X135927200Y-100356122D01*
X135890196Y-100319118D01*
X135837016Y-100212758D01*
X135774060Y-99960934D01*
X135774060Y-99640721D01*
X135837016Y-99388897D01*
X135890196Y-99282538D01*
X135927200Y-99245534D01*
X136016613Y-99200828D01*
X136088650Y-99200828D01*
X136178064Y-99245535D01*
G37*
G36*
X144045489Y-100400828D02*
G01*
X143791260Y-100400828D01*
X143633658Y-100348294D01*
X143533051Y-100247687D01*
X143488346Y-100158275D01*
X143488346Y-100014809D01*
X143533052Y-99925395D01*
X143633658Y-99824790D01*
X143791260Y-99772257D01*
X144045489Y-99772257D01*
X144045489Y-100400828D01*
G37*
G36*
X131558805Y-99972257D02*
G01*
X131260746Y-99972257D01*
X131409775Y-99525169D01*
X131558805Y-99972257D01*
G37*
G36*
X144512156Y-101221756D02*
G01*
X130594286Y-101221756D01*
X130594286Y-100532067D01*
X130760953Y-100532067D01*
X130765102Y-100590448D01*
X130791276Y-100642795D01*
X130835490Y-100681142D01*
X130891014Y-100699650D01*
X130949395Y-100695501D01*
X131001742Y-100669327D01*
X131040089Y-100625113D01*
X131052077Y-100598262D01*
X131160746Y-100272257D01*
X131658805Y-100272257D01*
X131767473Y-100598262D01*
X131779461Y-100625113D01*
X131817808Y-100669328D01*
X131870156Y-100695501D01*
X131928536Y-100699651D01*
X131984060Y-100681142D01*
X132028274Y-100642795D01*
X132054448Y-100590448D01*
X132058598Y-100532068D01*
X132056210Y-100521564D01*
X134048371Y-100521564D01*
X134048371Y-100580092D01*
X134070769Y-100634164D01*
X134112153Y-100675548D01*
X134166225Y-100697946D01*
X134195489Y-100700828D01*
X135052632Y-100700828D01*
X135081896Y-100697946D01*
X135135968Y-100675548D01*
X135177352Y-100634164D01*
X135199750Y-100580092D01*
X135199750Y-100521564D01*
X135177352Y-100467492D01*
X135135968Y-100426108D01*
X135081896Y-100403710D01*
X135052632Y-100400828D01*
X134774061Y-100400828D01*
X134774061Y-99484389D01*
X134803709Y-99514037D01*
X134815211Y-99523477D01*
X134817807Y-99526470D01*
X134822316Y-99529308D01*
X134826439Y-99532692D01*
X134830101Y-99534208D01*
X134842693Y-99542135D01*
X134985549Y-99613564D01*
X135013013Y-99624073D01*
X135071393Y-99628222D01*
X135089288Y-99622257D01*
X135474060Y-99622257D01*
X135474060Y-99979400D01*
X135474562Y-99984503D01*
X135474237Y-99986691D01*
X135475856Y-99997642D01*
X135476942Y-100008664D01*
X135477788Y-100010708D01*
X135478539Y-100015781D01*
X135549968Y-100301494D01*
X135550739Y-100303652D01*
X135550816Y-100304733D01*
X135555474Y-100316907D01*
X135559861Y-100329185D01*
X135560505Y-100330055D01*
X135561325Y-100332196D01*
X135632754Y-100475053D01*
X135640682Y-100487648D01*
X135642197Y-100491305D01*
X135645576Y-100495422D01*
X135648419Y-100499939D01*
X135651413Y-100502536D01*
X135660851Y-100514036D01*
X135732279Y-100585465D01*
X135743784Y-100594907D01*
X135746379Y-100597899D01*
X135750889Y-100600738D01*
X135755010Y-100604120D01*
X135758669Y-100605635D01*
X135771264Y-100613564D01*
X135914122Y-100684992D01*
X135941585Y-100695502D01*
X135946960Y-100695883D01*
X135951939Y-100697946D01*
X135981203Y-100700828D01*
X136124060Y-100700828D01*
X136153324Y-100697946D01*
X136158302Y-100695883D01*
X136163678Y-100695502D01*
X136191141Y-100684992D01*
X136334000Y-100613564D01*
X136346594Y-100605635D01*
X136350254Y-100604120D01*
X136354374Y-100600738D01*
X136358885Y-100597899D01*
X136361479Y-100594907D01*
X136372985Y-100585465D01*
X136444413Y-100514036D01*
X136453851Y-100502535D01*
X136456845Y-100499939D01*
X136459685Y-100495426D01*
X136463067Y-100491306D01*
X136464582Y-100487646D01*
X136472510Y-100475053D01*
X136543939Y-100332197D01*
X136544758Y-100330054D01*
X136545403Y-100329185D01*
X136549787Y-100316913D01*
X136554448Y-100304733D01*
X136554524Y-100303652D01*
X136555296Y-100301494D01*
X136626724Y-100015780D01*
X136627473Y-100010708D01*
X136628321Y-100008664D01*
X136629406Y-99997641D01*
X136631026Y-99986691D01*
X136630700Y-99984503D01*
X136631203Y-99979400D01*
X136631203Y-99950136D01*
X136976943Y-99950136D01*
X136976943Y-100008664D01*
X136999341Y-100062736D01*
X137040725Y-100104120D01*
X137094797Y-100126518D01*
X137124061Y-100129400D01*
X138266918Y-100129400D01*
X138296182Y-100126518D01*
X138350254Y-100104120D01*
X138391638Y-100062736D01*
X138408692Y-100021564D01*
X138691228Y-100021564D01*
X138691228Y-100080092D01*
X138713626Y-100134164D01*
X138755010Y-100175548D01*
X138809082Y-100197946D01*
X138838346Y-100200828D01*
X138902632Y-100200828D01*
X138902632Y-100550828D01*
X138905514Y-100580092D01*
X138927912Y-100634164D01*
X138969296Y-100675548D01*
X139023368Y-100697946D01*
X139081896Y-100697946D01*
X139135968Y-100675548D01*
X139177352Y-100634164D01*
X139199750Y-100580092D01*
X139202632Y-100550828D01*
X139202632Y-100200828D01*
X139766917Y-100200828D01*
X139781728Y-100199369D01*
X139785677Y-100199650D01*
X139788527Y-100198699D01*
X139796181Y-100197946D01*
X139818397Y-100188743D01*
X139841202Y-100181142D01*
X139845273Y-100177610D01*
X139850253Y-100175548D01*
X139867258Y-100158542D01*
X139885416Y-100142794D01*
X139887825Y-100137975D01*
X139891637Y-100134164D01*
X139900840Y-100111946D01*
X139911590Y-100090447D01*
X139911971Y-100085072D01*
X139914035Y-100080092D01*
X139914035Y-100056043D01*
X139915739Y-100032067D01*
X139914035Y-100024573D01*
X139914035Y-100021564D01*
X139912518Y-100017902D01*
X139909219Y-100003393D01*
X139581942Y-99021564D01*
X140048370Y-99021564D01*
X140048370Y-99080092D01*
X140070768Y-99134164D01*
X140112152Y-99175548D01*
X140166224Y-99197946D01*
X140195488Y-99200828D01*
X140831203Y-99200828D01*
X140831203Y-100550828D01*
X140834085Y-100580092D01*
X140856483Y-100634164D01*
X140897867Y-100675548D01*
X140951939Y-100697946D01*
X141010467Y-100697946D01*
X141064539Y-100675548D01*
X141105923Y-100634164D01*
X141128321Y-100580092D01*
X141131203Y-100550828D01*
X141402632Y-100550828D01*
X141402632Y-100907971D01*
X141405514Y-100937235D01*
X141427912Y-100991307D01*
X141469296Y-101032691D01*
X141523368Y-101055089D01*
X141581896Y-101055089D01*
X141635968Y-101032691D01*
X141677352Y-100991307D01*
X141699750Y-100937235D01*
X141702632Y-100907971D01*
X141702632Y-100700828D01*
X142688346Y-100700828D01*
X142688346Y-100907971D01*
X142691228Y-100937235D01*
X142713626Y-100991307D01*
X142755010Y-101032691D01*
X142809082Y-101055089D01*
X142867610Y-101055089D01*
X142921682Y-101032691D01*
X142963066Y-100991307D01*
X142985464Y-100937235D01*
X142988346Y-100907971D01*
X142988346Y-100550828D01*
X142985464Y-100521564D01*
X142963066Y-100467492D01*
X142921682Y-100426108D01*
X142867610Y-100403710D01*
X142838346Y-100400828D01*
X142757448Y-100400828D01*
X142707868Y-99979400D01*
X143188346Y-99979400D01*
X143188346Y-100193685D01*
X143191228Y-100222949D01*
X143193290Y-100227927D01*
X143193672Y-100233303D01*
X143204182Y-100260767D01*
X143275610Y-100403624D01*
X143283537Y-100416217D01*
X143285053Y-100419877D01*
X143288434Y-100423996D01*
X143291275Y-100428510D01*
X143294268Y-100431106D01*
X143303708Y-100442608D01*
X143446566Y-100585466D01*
X143469297Y-100604121D01*
X143474276Y-100606183D01*
X143478347Y-100609714D01*
X143505198Y-100621703D01*
X143719483Y-100693131D01*
X143733992Y-100696429D01*
X143737653Y-100697946D01*
X143742961Y-100698468D01*
X143748157Y-100699650D01*
X143752105Y-100699369D01*
X143766917Y-100700828D01*
X144195489Y-100700828D01*
X144224753Y-100697946D01*
X144278825Y-100675548D01*
X144320209Y-100634164D01*
X144342607Y-100580092D01*
X144345489Y-100550828D01*
X144345489Y-99050828D01*
X144342607Y-99021564D01*
X144320209Y-98967492D01*
X144278825Y-98926108D01*
X144224753Y-98903710D01*
X144195489Y-98900828D01*
X143481203Y-98900828D01*
X143451939Y-98903710D01*
X143397867Y-98926108D01*
X143356483Y-98967492D01*
X143334085Y-99021564D01*
X143334085Y-99080092D01*
X143356483Y-99134164D01*
X143397867Y-99175548D01*
X143451939Y-99197946D01*
X143481203Y-99200828D01*
X144045489Y-99200828D01*
X144045489Y-99472257D01*
X143766917Y-99472257D01*
X143752105Y-99473715D01*
X143748157Y-99473435D01*
X143742961Y-99474616D01*
X143737653Y-99475139D01*
X143733992Y-99476655D01*
X143719483Y-99479954D01*
X143505198Y-99551382D01*
X143478347Y-99563371D01*
X143474276Y-99566901D01*
X143469297Y-99568964D01*
X143446566Y-99587619D01*
X143303708Y-99730476D01*
X143294264Y-99741981D01*
X143291275Y-99744575D01*
X143288438Y-99749080D01*
X143285053Y-99753206D01*
X143283535Y-99756869D01*
X143275610Y-99769460D01*
X143204182Y-99912319D01*
X143193672Y-99939782D01*
X143193290Y-99945157D01*
X143191228Y-99950136D01*
X143188346Y-99979400D01*
X142707868Y-99979400D01*
X142630176Y-99319016D01*
X142626131Y-99300522D01*
X142625876Y-99296923D01*
X142624636Y-99293682D01*
X142623894Y-99290289D01*
X142622130Y-99287135D01*
X142615367Y-99269459D01*
X142543938Y-99126603D01*
X142536011Y-99114011D01*
X142534495Y-99110349D01*
X142531111Y-99106226D01*
X142528273Y-99101717D01*
X142525280Y-99099121D01*
X142515840Y-99087619D01*
X142444412Y-99016191D01*
X142432910Y-99006751D01*
X142430314Y-99003758D01*
X142425800Y-99000917D01*
X142421681Y-98997536D01*
X142418021Y-98996020D01*
X142405428Y-98988093D01*
X142262571Y-98916664D01*
X142235108Y-98906155D01*
X142229733Y-98905773D01*
X142224753Y-98903710D01*
X142195489Y-98900828D01*
X141838346Y-98900828D01*
X141809082Y-98903710D01*
X141755010Y-98926108D01*
X141713626Y-98967492D01*
X141691228Y-99021564D01*
X141688346Y-99050828D01*
X141688346Y-100400828D01*
X141552632Y-100400828D01*
X141523368Y-100403710D01*
X141469296Y-100426108D01*
X141427912Y-100467492D01*
X141405514Y-100521564D01*
X141402632Y-100550828D01*
X141131203Y-100550828D01*
X141131203Y-99050828D01*
X141128321Y-99021564D01*
X141105923Y-98967492D01*
X141064539Y-98926108D01*
X141010467Y-98903710D01*
X140981203Y-98900828D01*
X140195488Y-98900828D01*
X140166224Y-98903710D01*
X140112152Y-98926108D01*
X140070768Y-98967492D01*
X140048370Y-99021564D01*
X139581942Y-99021564D01*
X139552076Y-98931966D01*
X139540088Y-98905115D01*
X139501741Y-98860901D01*
X139449394Y-98834727D01*
X139391013Y-98830578D01*
X139335489Y-98849086D01*
X139291275Y-98887433D01*
X139265101Y-98939780D01*
X139260952Y-98998161D01*
X139267472Y-99026834D01*
X139558803Y-99900828D01*
X139202632Y-99900828D01*
X139202632Y-99550828D01*
X139199750Y-99521564D01*
X139177352Y-99467492D01*
X139135968Y-99426108D01*
X139081896Y-99403710D01*
X139023368Y-99403710D01*
X138969296Y-99426108D01*
X138927912Y-99467492D01*
X138905514Y-99521564D01*
X138902632Y-99550828D01*
X138902632Y-99900828D01*
X138838346Y-99900828D01*
X138809082Y-99903710D01*
X138755010Y-99926108D01*
X138713626Y-99967492D01*
X138691228Y-100021564D01*
X138408692Y-100021564D01*
X138414036Y-100008664D01*
X138414036Y-99950136D01*
X138391638Y-99896064D01*
X138350254Y-99854680D01*
X138296182Y-99832282D01*
X138266918Y-99829400D01*
X137124061Y-99829400D01*
X137094797Y-99832282D01*
X137040725Y-99854680D01*
X136999341Y-99896064D01*
X136976943Y-99950136D01*
X136631203Y-99950136D01*
X136631203Y-99622257D01*
X136630700Y-99617153D01*
X136631026Y-99614966D01*
X136629406Y-99604015D01*
X136628321Y-99592993D01*
X136627473Y-99590948D01*
X136626724Y-99585877D01*
X136555296Y-99300162D01*
X136554524Y-99298003D01*
X136554448Y-99296923D01*
X136549787Y-99284742D01*
X136545403Y-99272471D01*
X136544758Y-99271601D01*
X136543939Y-99269459D01*
X136472510Y-99126603D01*
X136464583Y-99114011D01*
X136463067Y-99110349D01*
X136459683Y-99106226D01*
X136456845Y-99101717D01*
X136453852Y-99099121D01*
X136444412Y-99087619D01*
X136372984Y-99016191D01*
X136361482Y-99006751D01*
X136358886Y-99003758D01*
X136354372Y-99000917D01*
X136350253Y-98997536D01*
X136346593Y-98996020D01*
X136334000Y-98988093D01*
X136191142Y-98916664D01*
X136163679Y-98906154D01*
X136158301Y-98905771D01*
X136153324Y-98903710D01*
X136124060Y-98900828D01*
X135981203Y-98900828D01*
X135951939Y-98903710D01*
X135946958Y-98905773D01*
X135941584Y-98906155D01*
X135914120Y-98916664D01*
X135771264Y-98988093D01*
X135758672Y-98996019D01*
X135755010Y-98997536D01*
X135750887Y-99000919D01*
X135746378Y-99003758D01*
X135743782Y-99006750D01*
X135732280Y-99016191D01*
X135660852Y-99087619D01*
X135651412Y-99099120D01*
X135648419Y-99101717D01*
X135645578Y-99106230D01*
X135642197Y-99110350D01*
X135640681Y-99114009D01*
X135632754Y-99126603D01*
X135561325Y-99269460D01*
X135560505Y-99271600D01*
X135559861Y-99272471D01*
X135555474Y-99284748D01*
X135550816Y-99296923D01*
X135550739Y-99298003D01*
X135549968Y-99300162D01*
X135478539Y-99585877D01*
X135477789Y-99590948D01*
X135476942Y-99592993D01*
X135475856Y-99604015D01*
X135474237Y-99614966D01*
X135474562Y-99617153D01*
X135474060Y-99622257D01*
X135089288Y-99622257D01*
X135126915Y-99609715D01*
X135171131Y-99571368D01*
X135197305Y-99519019D01*
X135201454Y-99460639D01*
X135182946Y-99405116D01*
X135144600Y-99360901D01*
X135119714Y-99345236D01*
X134998629Y-99284693D01*
X134883488Y-99169552D01*
X134748869Y-98967623D01*
X134748800Y-98967539D01*
X134748781Y-98967492D01*
X134748674Y-98967385D01*
X134730238Y-98944873D01*
X134717898Y-98936609D01*
X134707397Y-98926108D01*
X134693819Y-98920483D01*
X134681608Y-98912306D01*
X134667045Y-98909393D01*
X134653325Y-98903710D01*
X134638629Y-98903710D01*
X134624219Y-98900828D01*
X134609650Y-98903710D01*
X134594797Y-98903710D01*
X134581218Y-98909334D01*
X134566804Y-98912186D01*
X134554446Y-98920424D01*
X134540725Y-98926108D01*
X134530333Y-98936499D01*
X134518106Y-98944651D01*
X134509842Y-98956990D01*
X134499341Y-98967492D01*
X134493716Y-98981069D01*
X134485539Y-98993281D01*
X134482626Y-99007843D01*
X134476943Y-99021564D01*
X134474091Y-99050516D01*
X134474061Y-99050670D01*
X134474071Y-99050722D01*
X134474061Y-99050828D01*
X134474061Y-100400828D01*
X134195489Y-100400828D01*
X134166225Y-100403710D01*
X134112153Y-100426108D01*
X134070769Y-100467492D01*
X134048371Y-100521564D01*
X132056210Y-100521564D01*
X132052078Y-100503394D01*
X131867658Y-99950136D01*
X132262658Y-99950136D01*
X132262658Y-100008664D01*
X132285056Y-100062736D01*
X132326440Y-100104120D01*
X132380512Y-100126518D01*
X132409776Y-100129400D01*
X133552633Y-100129400D01*
X133581897Y-100126518D01*
X133635969Y-100104120D01*
X133677353Y-100062736D01*
X133699751Y-100008664D01*
X133699751Y-99950136D01*
X133677353Y-99896064D01*
X133635969Y-99854680D01*
X133581897Y-99832282D01*
X133552633Y-99829400D01*
X132409776Y-99829400D01*
X132380512Y-99832282D01*
X132326440Y-99854680D01*
X132285056Y-99896064D01*
X132262658Y-99950136D01*
X131867658Y-99950136D01*
X131552077Y-99003394D01*
X131540089Y-98976543D01*
X131533066Y-98968446D01*
X131528274Y-98958861D01*
X131514065Y-98946537D01*
X131501742Y-98932329D01*
X131492156Y-98927536D01*
X131484060Y-98920514D01*
X131466216Y-98914565D01*
X131449395Y-98906155D01*
X131438706Y-98905395D01*
X131428536Y-98902005D01*
X131409770Y-98903338D01*
X131391014Y-98902006D01*
X131380846Y-98905395D01*
X131370156Y-98906155D01*
X131353332Y-98914566D01*
X131335490Y-98920514D01*
X131327395Y-98927534D01*
X131317808Y-98932328D01*
X131305482Y-98946539D01*
X131291276Y-98958861D01*
X131286483Y-98968445D01*
X131279461Y-98976543D01*
X131267473Y-99003394D01*
X130767473Y-100503394D01*
X130760953Y-100532067D01*
X130594286Y-100532067D01*
X130594286Y-98663911D01*
X144512156Y-98663911D01*
X144512156Y-101221756D01*
G37*
D11*
%TO.P,R15,1*%
%TO.N,Net-(VR3-CW)*%
X151750000Y-94475000D03*
%TO.P,R15,2*%
%TO.N,Net-(D5-K)*%
X151750000Y-93025000D03*
%TD*%
D12*
%TO.P,R9,1*%
%TO.N,VREF*%
X154275000Y-76500000D03*
%TO.P,R9,2*%
%TO.N,Net-(R7-Pad2)*%
X155725000Y-76500000D03*
%TD*%
%TO.P,R7,1*%
%TO.N,Net-(U3-IN-)*%
X157225000Y-74750000D03*
%TO.P,R7,2*%
%TO.N,Net-(R7-Pad2)*%
X155775000Y-74750000D03*
%TD*%
D13*
%TO.P,VR1,1,CCW*%
%TO.N,GND*%
X152420000Y-72500000D03*
D14*
%TO.P,VR1,2,WIPER*%
%TO.N,Net-(U3-IN-)*%
X154960000Y-72500000D03*
%TO.P,VR1,3,CW*%
X157500000Y-72500000D03*
%TD*%
D15*
%TO.P,J1,1,1*%
%TO.N,SDA*%
X96500000Y-97950000D03*
D16*
%TO.P,J1,2,2*%
%TO.N,SCL*%
X98500000Y-97950000D03*
%TO.P,J1,3,3*%
%TO.N,VCC*%
X100500000Y-97950000D03*
%TO.P,J1,4,4*%
%TO.N,GND*%
X102500000Y-97950000D03*
%TD*%
D13*
%TO.P,VR2,1,CCW*%
%TO.N,SIG*%
X142210000Y-72500000D03*
D14*
%TO.P,VR2,2,WIPER*%
X144750000Y-72500000D03*
%TO.P,VR2,3,CW*%
%TO.N,Net-(U2--IN)*%
X147290000Y-72500000D03*
%TD*%
D15*
%TO.P,J2,1,1*%
%TO.N,SCK*%
X107000000Y-97950000D03*
D16*
%TO.P,J2,2,2*%
%TO.N,TX*%
X109000000Y-97950000D03*
%TO.P,J2,3,3*%
%TO.N,RX*%
X111000000Y-97950000D03*
%TO.P,J2,4,4*%
%TO.N,CS*%
X113000000Y-97950000D03*
%TO.P,J2,5,5*%
%TO.N,UART1TX*%
X115000000Y-97950000D03*
%TO.P,J2,6,6*%
%TO.N,UART1RX*%
X117000000Y-97950000D03*
%TD*%
D17*
%TO.P,U1,1,GPIO0*%
%TO.N,SCK*%
X89500000Y-92780000D03*
%TO.P,U1,2,GPIO1*%
%TO.N,TX*%
X92040000Y-92780000D03*
D18*
%TO.P,U1,3,GND*%
%TO.N,GND*%
X94580000Y-92780000D03*
D17*
%TO.P,U1,4,GPIO2*%
%TO.N,SDA*%
X97120000Y-92780000D03*
%TO.P,U1,5,GPIO3*%
%TO.N,SCL*%
X99660000Y-92780000D03*
%TO.P,U1,6,GPIO4*%
%TO.N,RX*%
X102200000Y-92780000D03*
%TO.P,U1,7,GPIO5*%
%TO.N,CS*%
X104740000Y-92780000D03*
D18*
%TO.P,U1,8,GND*%
%TO.N,GND*%
X107280000Y-92780000D03*
D17*
%TO.P,U1,9,GPIO6*%
%TO.N,unconnected-(U1-GPIO6-Pad9)*%
X109820000Y-92780000D03*
%TO.P,U1,10,GPIO7*%
%TO.N,unconnected-(U1-GPIO7-Pad10)*%
X112360000Y-92780000D03*
%TO.P,U1,11,GPIO8*%
%TO.N,UART1TX*%
X114900000Y-92780000D03*
%TO.P,U1,12,GPIO9*%
%TO.N,UART1RX*%
X117440000Y-92780000D03*
D18*
%TO.P,U1,13,GND*%
%TO.N,GND*%
X119980000Y-92780000D03*
D17*
%TO.P,U1,14,GPIO10*%
%TO.N,unconnected-(U1-GPIO10-Pad14)_1*%
X122520000Y-92780000D03*
%TO.P,U1,15,GPIO11*%
%TO.N,unconnected-(U1-GPIO11-Pad15)_1*%
X125060000Y-92780000D03*
%TO.P,U1,16,GPIO12*%
%TO.N,unconnected-(U1-GPIO12-Pad16)_1*%
X127600000Y-92780000D03*
%TO.P,U1,17,GPIO13*%
%TO.N,unconnected-(U1-GPIO13-Pad17)*%
X130140000Y-92780000D03*
D18*
%TO.P,U1,18,GND*%
%TO.N,GND*%
X132680000Y-92780000D03*
D17*
%TO.P,U1,19,GPIO14*%
%TO.N,unconnected-(U1-GPIO14-Pad19)*%
X135220000Y-92780000D03*
%TO.P,U1,20,GPIO15*%
%TO.N,unconnected-(U1-GPIO15-Pad20)_1*%
X137760000Y-92780000D03*
%TO.P,U1,21,GPIO16*%
%TO.N,unconnected-(U1-GPIO16-Pad21)*%
X137760000Y-75000000D03*
%TO.P,U1,22,GPIO17*%
%TO.N,unconnected-(U1-GPIO17-Pad22)*%
X135220000Y-75000000D03*
D18*
%TO.P,U1,23,GND*%
%TO.N,GND*%
X132680000Y-75000000D03*
D17*
%TO.P,U1,24,GPIO18*%
%TO.N,INT*%
X130140000Y-75000000D03*
%TO.P,U1,25,GPIO19*%
%TO.N,unconnected-(U1-GPIO19-Pad25)*%
X127600000Y-75000000D03*
%TO.P,U1,26,GPIO20*%
%TO.N,unconnected-(U1-GPIO20-Pad26)*%
X125060000Y-75000000D03*
%TO.P,U1,27,GPIO21*%
%TO.N,unconnected-(U1-GPIO21-Pad27)_1*%
X122520000Y-75000000D03*
D18*
%TO.P,U1,28,GND*%
%TO.N,GND*%
X119980000Y-75000000D03*
D17*
%TO.P,U1,29,GPIO22*%
%TO.N,RST*%
X117440000Y-75000000D03*
%TO.P,U1,30,RUN*%
%TO.N,unconnected-(U1-RUN-Pad30)_1*%
X114900000Y-75000000D03*
%TO.P,U1,31,GPIO26_ADC0*%
%TO.N,SIG*%
X112360000Y-75000000D03*
%TO.P,U1,32,GPIO27_ADC1*%
%TO.N,PEAK*%
X109820000Y-75000000D03*
D18*
%TO.P,U1,33,AGND*%
%TO.N,Net-(JP1-A)*%
X107280000Y-75000000D03*
D17*
%TO.P,U1,34,GPIO28_ADC2*%
%TO.N,GND*%
X104740000Y-75000000D03*
%TO.P,U1,35,ADC_VREF*%
%TO.N,VREF1*%
X102200000Y-75000000D03*
%TO.P,U1,36,3V3*%
%TO.N,Net-(U1-3V3)*%
X99660000Y-75000000D03*
%TO.P,U1,37,3V3_EN*%
%TO.N,unconnected-(U1-3V3_EN-Pad37)_1*%
X97120000Y-75000000D03*
D18*
%TO.P,U1,38,GND*%
%TO.N,GND*%
X94580000Y-75000000D03*
D17*
%TO.P,U1,39,VSYS*%
%TO.N,+5V*%
X92040000Y-75000000D03*
%TO.P,U1,40,VBUS*%
%TO.N,VBUS*%
X89500000Y-75000000D03*
%TO.P,U1,41,SWCLK*%
%TO.N,unconnected-(U1-SWCLK-Pad41)_1*%
X137530000Y-86430000D03*
D18*
%TO.P,U1,42,GND*%
%TO.N,GND*%
X137530000Y-83890000D03*
D17*
%TO.P,U1,43,SWDIO*%
%TO.N,unconnected-(U1-SWDIO-Pad43)_1*%
X137530000Y-81350000D03*
%TD*%
D13*
%TO.P,VR3,1,CCW*%
%TO.N,Net-(U8-FB)*%
X143420000Y-95000000D03*
D14*
%TO.P,VR3,2,WIPER*%
X145960000Y-95000000D03*
%TO.P,VR3,3,CW*%
%TO.N,Net-(VR3-CW)*%
X148500000Y-95000000D03*
%TD*%
D19*
%TO.P,C6,1*%
%TO.N,Net-(U3-IN-)*%
X154030000Y-70500000D03*
%TO.P,C6,2*%
%TO.N,GND*%
X152470000Y-70500000D03*
%TD*%
D20*
%TO.P,U4,1,OUT*%
%TO.N,Net-(D3-A)*%
X113050000Y-80500000D03*
%TO.P,U4,2,V-*%
%TO.N,GND*%
X114000000Y-80500000D03*
%TO.P,U4,3,+IN*%
%TO.N,SIG*%
X114950000Y-80500000D03*
%TO.P,U4,4,-IN*%
%TO.N,Net-(U4--IN)*%
X114950000Y-83010000D03*
%TO.P,U4,5,EN*%
%TO.N,VCC*%
X114000000Y-83010000D03*
%TO.P,U4,6,V+*%
X113050000Y-83010000D03*
%TD*%
D12*
%TO.P,R12,1*%
%TO.N,Net-(U4--IN)*%
X117375000Y-80437500D03*
%TO.P,R12,2*%
%TO.N,Net-(Q1-D)*%
X118825000Y-80437500D03*
%TD*%
D21*
%TO.P,D5,1,K*%
%TO.N,Net-(D5-K)*%
X153690000Y-89630000D03*
%TO.P,D5,2,A*%
%TO.N,Net-(D5-A)*%
X151490000Y-89630000D03*
%TD*%
D22*
%TO.P,C16,1*%
%TO.N,GND*%
X158250000Y-95030000D03*
%TO.P,C16,2*%
%TO.N,PS_OUT*%
X158250000Y-93470000D03*
%TD*%
D23*
%TO.P,C15,1*%
%TO.N,PS_OUT*%
X155500000Y-88900000D03*
%TO.P,C15,2*%
%TO.N,GND*%
X155500000Y-87100000D03*
%TD*%
D24*
%TO.P,U10,1*%
%TO.N,ANODE_OUT*%
X189675000Y-80725000D03*
D25*
%TO.P,U10,2*%
%TO.N,unconnected-(U10-Pad2)*%
X195525000Y-80875000D03*
D24*
%TO.P,U10,3*%
%TO.N,Net-(C22-Pad2)*%
X195375000Y-86725000D03*
D25*
%TO.P,U10,4*%
%TO.N,N/C*%
X189525000Y-86575000D03*
D26*
%TO.P,U10,5,EP*%
%TO.N,unconnected-(U10-EP-Pad5)*%
X192525000Y-83725000D03*
%TD*%
D27*
%TO.P,FB2,1*%
%TO.N,Net-(C13-Pad1)*%
X154685000Y-91500000D03*
%TO.P,FB2,2*%
%TO.N,Net-(D5-K)*%
X153815000Y-91500000D03*
%TD*%
D28*
%TO.P,Q1,1,G*%
%TO.N,RST*%
X122875000Y-79550000D03*
%TO.P,Q1,2,S*%
%TO.N,GND*%
X122875000Y-81450000D03*
%TO.P,Q1,3,D*%
%TO.N,Net-(Q1-D)*%
X121000000Y-80500000D03*
%TD*%
D27*
%TO.P,FB3,1*%
%TO.N,Net-(U8-VCC)*%
X152425000Y-91490000D03*
%TO.P,FB3,2*%
%TO.N,+5V*%
X151555000Y-91490000D03*
%TD*%
D29*
%TO.P,C11,1*%
%TO.N,Net-(U8-VCC)*%
X146630000Y-86130000D03*
%TO.P,C11,2*%
%TO.N,GND*%
X145070000Y-86130000D03*
%TD*%
D23*
%TO.P,C13,1*%
%TO.N,Net-(C13-Pad1)*%
X156250000Y-97200000D03*
%TO.P,C13,2*%
%TO.N,GND*%
X156250000Y-99000000D03*
%TD*%
D30*
%TO.P,U8,1,PGND*%
%TO.N,GND*%
X144605000Y-89580000D03*
%TO.P,U8,2,GND*%
X144605000Y-88630000D03*
%TO.P,U8,3,FB*%
%TO.N,Net-(U8-FB)*%
X144605000Y-87680000D03*
%TO.P,U8,4,~{SHDN}*%
%TO.N,Net-(U8-VCC)*%
X147095000Y-87680000D03*
%TO.P,U8,5,VCC*%
X147095000Y-88630000D03*
%TO.P,U8,6,LX*%
%TO.N,Net-(D5-A)*%
X147095000Y-89580000D03*
%TD*%
D12*
%TO.P,R11,1*%
%TO.N,Net-(D3-COM)*%
X112225000Y-85500000D03*
%TO.P,R11,2*%
%TO.N,PEAK*%
X110775000Y-85500000D03*
%TD*%
D11*
%TO.P,R10,1*%
%TO.N,Net-(D3-K)*%
X120600000Y-83487500D03*
%TO.P,R10,2*%
%TO.N,Net-(U4--IN)*%
X120600000Y-84937500D03*
%TD*%
D29*
%TO.P,C9,1*%
%TO.N,VCC*%
X106300000Y-84070000D03*
%TO.P,C9,2*%
%TO.N,GND*%
X104740000Y-84070000D03*
%TD*%
D31*
%TO.P,C10,1*%
%TO.N,GND*%
X104720000Y-82070000D03*
%TO.P,C10,2*%
%TO.N,VCC*%
X106280000Y-82070000D03*
%TD*%
D29*
%TO.P,C18,1*%
%TO.N,+5V*%
X150130000Y-91130000D03*
%TO.P,C18,2*%
%TO.N,GND*%
X148570000Y-91130000D03*
%TD*%
D11*
%TO.P,R16,1*%
%TO.N,PS_OUT*%
X156250000Y-93525000D03*
%TO.P,R16,2*%
%TO.N,Net-(C13-Pad1)*%
X156250000Y-94975000D03*
%TD*%
D32*
%TO.P,C4,1*%
%TO.N,VCC*%
X146500000Y-77720000D03*
%TO.P,C4,2*%
%TO.N,GND*%
X146500000Y-79280000D03*
%TD*%
D12*
%TO.P,R13,1*%
%TO.N,VREF*%
X152725000Y-76500000D03*
%TO.P,R13,2*%
%TO.N,VCC*%
X151275000Y-76500000D03*
%TD*%
D33*
%TO.P,L1,1*%
%TO.N,Net-(D5-A)*%
X148950000Y-86130000D03*
%TO.P,L1,2*%
%TO.N,Net-(U8-VCC)*%
X151750000Y-86130000D03*
%TD*%
D34*
%TO.P,U6,1,POS*%
%TO.N,VREF*%
X154500000Y-78550000D03*
%TO.P,U6,2,NEG*%
%TO.N,GND*%
X154500000Y-80450000D03*
%TO.P,U6,3,NC*%
%TO.N,unconnected-(U6-NC-Pad3)*%
X152380000Y-79500000D03*
%TD*%
D22*
%TO.P,C5,1*%
%TO.N,GND*%
X144500000Y-79280000D03*
%TO.P,C5,2*%
%TO.N,VCC*%
X144500000Y-77720000D03*
%TD*%
D12*
%TO.P,R6,1*%
%TO.N,Net-(U2--IN)*%
X142225000Y-74500000D03*
%TO.P,R6,2*%
%TO.N,SIG*%
X140775000Y-74500000D03*
%TD*%
D35*
%TO.P,C8,1*%
%TO.N,GND*%
X111500000Y-79350000D03*
%TO.P,C8,2*%
%TO.N,Net-(U4--IN)*%
X111500000Y-80650000D03*
%TD*%
D36*
%TO.P,D3,1,A*%
%TO.N,Net-(D3-A)*%
X117100000Y-82500000D03*
%TO.P,D3,2,K*%
%TO.N,Net-(D3-K)*%
X119000000Y-82500000D03*
%TO.P,D3,3,COM*%
%TO.N,Net-(D3-COM)*%
X118050000Y-84375000D03*
%TD*%
D37*
%TO.P,C14,1*%
%TO.N,PS_OUT*%
X156350000Y-91750000D03*
%TO.P,C14,2*%
%TO.N,GND*%
X158150000Y-91750000D03*
%TD*%
D11*
%TO.P,R14,1*%
%TO.N,GND*%
X142750000Y-89605000D03*
%TO.P,R14,2*%
%TO.N,Net-(U8-FB)*%
X142750000Y-88155000D03*
%TD*%
D20*
%TO.P,U5,1,OUT*%
%TO.N,PEAK*%
X108100000Y-80500000D03*
%TO.P,U5,2,V-*%
%TO.N,GND*%
X109050000Y-80500000D03*
%TO.P,U5,3,+IN*%
%TO.N,Net-(U4--IN)*%
X110000000Y-80500000D03*
%TO.P,U5,4,-IN*%
%TO.N,PEAK*%
X110000000Y-83010000D03*
%TO.P,U5,5,EN*%
%TO.N,VCC*%
X109050000Y-83010000D03*
%TO.P,U5,6,V+*%
X108100000Y-83010000D03*
%TD*%
D23*
%TO.P,C12,1*%
%TO.N,Net-(D5-K)*%
X153750000Y-93350000D03*
%TO.P,C12,2*%
%TO.N,GND*%
X153750000Y-95150000D03*
%TD*%
D11*
%TO.P,R4,1*%
%TO.N,GND*%
X142250000Y-77475000D03*
%TO.P,R4,2*%
%TO.N,Net-(U2--IN)*%
X142250000Y-76025000D03*
%TD*%
D38*
%TO.N,GND*%
X162250000Y-99000000D03*
X158750000Y-86500000D03*
X158750000Y-81250000D03*
X162250000Y-68500000D03*
D39*
X94550000Y-71000000D03*
D40*
X111500000Y-78000000D03*
%TO.N,+5V*%
X147000000Y-91895000D03*
D39*
X92050000Y-71000000D03*
D38*
%TO.N,ANODE_IN*%
X158750000Y-78500000D03*
%TO.N,PS_OUT*%
X158750000Y-89375000D03*
%TO.N,PS_IN*%
X197750000Y-76625000D03*
%TO.N,GND1*%
X207750000Y-86250000D03*
X177400000Y-86250000D03*
X190500000Y-76500000D03*
X177350000Y-81250000D03*
X194500000Y-76625000D03*
X207700000Y-81250000D03*
D40*
%TO.N,Net-(C22-Pad2)*%
X197220000Y-87750000D03*
%TO.N,ANODE_OUT*%
X189000000Y-79500000D03*
D38*
X187250000Y-76625000D03*
D40*
%TO.N,VCC*%
X90890000Y-69500000D03*
X149750000Y-76500000D03*
D39*
%TO.N,VBUS*%
X89500000Y-71000000D03*
%TD*%
D41*
%TO.N,GND*%
X145850000Y-88130000D02*
X145350000Y-88630000D01*
X109050000Y-80500000D02*
X109050000Y-79950000D01*
X148570000Y-91130000D02*
X145350000Y-91130000D01*
X152470000Y-70500000D02*
X152470000Y-72450000D01*
X114000000Y-80500000D02*
X114000000Y-79895001D01*
X109050000Y-79895001D02*
X109050000Y-80500000D01*
X142750000Y-89605000D02*
X144580000Y-89605000D01*
X152470000Y-72450000D02*
X152420000Y-72500000D01*
X144605000Y-89580000D02*
X144105000Y-89580000D01*
X145350000Y-91130000D02*
X144605000Y-90385000D01*
X144605000Y-90385000D02*
X144605000Y-89580000D01*
X145350000Y-88630000D02*
X144605000Y-88630000D01*
X145850000Y-86910000D02*
X145850000Y-88130000D01*
X145070000Y-86130000D02*
X145850000Y-86910000D01*
X144580000Y-89605000D02*
X144605000Y-89580000D01*
X144605000Y-89355000D02*
X144605000Y-88630000D01*
%TO.N,+5V*%
X150130000Y-91130000D02*
X151130000Y-91130000D01*
X149365000Y-91895000D02*
X150130000Y-91130000D01*
X147000000Y-91895000D02*
X149365000Y-91895000D01*
X151130000Y-91130000D02*
X151630000Y-91630000D01*
%TO.N,SCL*%
X99500000Y-92940000D02*
X99660000Y-92780000D01*
%TO.N,RX*%
X102200000Y-95370000D02*
X102200000Y-92780000D01*
X110500000Y-96500000D02*
X111000000Y-97000000D01*
X111000000Y-97000000D02*
X111000000Y-97950000D01*
X103330000Y-96500000D02*
X102200000Y-95370000D01*
X110500000Y-96500000D02*
X103330000Y-96500000D01*
%TO.N,RST*%
X120050000Y-78527224D02*
X117440000Y-75917224D01*
X122610000Y-78527224D02*
X120050000Y-78527224D01*
X122875000Y-79550000D02*
X122875000Y-78792224D01*
X122875000Y-78792224D02*
X122610000Y-78527224D01*
%TO.N,PEAK*%
X110000000Y-82405001D02*
X109349999Y-81755000D01*
X108100000Y-80828802D02*
X108100000Y-80500000D01*
X108100000Y-77900000D02*
X109820000Y-76180000D01*
X110775000Y-84275000D02*
X110775000Y-85500000D01*
X109349999Y-81755000D02*
X109026198Y-81755000D01*
X109820000Y-76180000D02*
X109820000Y-75000000D01*
X108100000Y-80500000D02*
X108100000Y-77900000D01*
X110000000Y-83500000D02*
X110775000Y-84275000D01*
X109026198Y-81755000D02*
X108100000Y-80828802D01*
X110000000Y-83010000D02*
X110000000Y-83500000D01*
X110000000Y-83010000D02*
X110000000Y-82405001D01*
%TO.N,CS*%
X113000000Y-97000000D02*
X113000000Y-97950000D01*
X104740000Y-95240000D02*
X104740000Y-92780000D01*
X112000000Y-96000000D02*
X105500000Y-96000000D01*
X112000000Y-96000000D02*
X113000000Y-97000000D01*
X105500000Y-96000000D02*
X104740000Y-95240000D01*
%TO.N,VREF*%
X154275000Y-76500000D02*
X154275000Y-78325000D01*
X154275000Y-76500000D02*
X152725000Y-76500000D01*
X154275000Y-78325000D02*
X154500000Y-78550000D01*
%TO.N,Net-(U3-IN-)*%
X154960000Y-72500000D02*
X157500000Y-72500000D01*
X154030000Y-71570000D02*
X154960000Y-72500000D01*
X157225000Y-74750000D02*
X157225000Y-72775000D01*
X157225000Y-72775000D02*
X157500000Y-72500000D01*
X154030000Y-70500000D02*
X154030000Y-71570000D01*
%TO.N,Net-(U4--IN)*%
X117440552Y-83537500D02*
X115477500Y-83537500D01*
X117700000Y-80762500D02*
X117700000Y-83278052D01*
X119990552Y-84937500D02*
X120600000Y-84937500D01*
X117700000Y-83278052D02*
X117440552Y-83537500D01*
X114268802Y-82000000D02*
X114950000Y-82681198D01*
X112850000Y-82000000D02*
X114268802Y-82000000D01*
X117700000Y-83278052D02*
X118331104Y-83278052D01*
X111500000Y-80650000D02*
X112850000Y-82000000D01*
X115477500Y-83537500D02*
X114950000Y-83010000D01*
X110150000Y-80650000D02*
X110000000Y-80500000D01*
X118331104Y-83278052D02*
X119990552Y-84937500D01*
X111500000Y-80650000D02*
X110150000Y-80650000D01*
%TO.N,Net-(D3-A)*%
X116100000Y-81500000D02*
X117100000Y-82500000D01*
X113445001Y-81500000D02*
X116100000Y-81500000D01*
X113050000Y-80500000D02*
X113050000Y-81104999D01*
X113050000Y-81104999D02*
X113445001Y-81500000D01*
%TO.N,Net-(D3-K)*%
X119000000Y-82500000D02*
X119762500Y-83262500D01*
X119762500Y-83262500D02*
X120600000Y-83262500D01*
%TO.N,Net-(D3-COM)*%
X116925000Y-85500000D02*
X112225000Y-85500000D01*
X118050000Y-84375000D02*
X116925000Y-85500000D01*
%TO.N,Net-(Q1-D)*%
X118825000Y-80437500D02*
X120937500Y-80437500D01*
X120937500Y-80437500D02*
X121000000Y-80500000D01*
%TO.N,Net-(U2--IN)*%
X142250000Y-76025000D02*
X142250000Y-74525000D01*
X142250000Y-74525000D02*
X142225000Y-74500000D01*
X142225000Y-74500000D02*
X145290000Y-74500000D01*
X145290000Y-74500000D02*
X147290000Y-72500000D01*
%TO.N,Net-(U8-FB)*%
X143225000Y-87680000D02*
X142750000Y-88155000D01*
X142000000Y-93580000D02*
X143420000Y-95000000D01*
X143420000Y-95000000D02*
X145960000Y-95000000D01*
X142750000Y-88155000D02*
X142000000Y-88905000D01*
X143850000Y-87680000D02*
X144605000Y-87680000D01*
X144605000Y-87680000D02*
X143225000Y-87680000D01*
X142000000Y-88905000D02*
X142000000Y-93580000D01*
%TO.N,Net-(D5-A)*%
X148950000Y-86130000D02*
X148950000Y-89480000D01*
X147095000Y-89580000D02*
X151440000Y-89580000D01*
X147095000Y-89580000D02*
X147295000Y-89780000D01*
X151440000Y-89580000D02*
X151490000Y-89630000D01*
X146595000Y-89580000D02*
X147395552Y-89580000D01*
%TO.N,Net-(D5-K)*%
X153750000Y-91565000D02*
X153815000Y-91500000D01*
X153815000Y-89755000D02*
X153690000Y-89630000D01*
X153690000Y-89630000D02*
X153790000Y-89630000D01*
X151750000Y-93025000D02*
X153425000Y-93025000D01*
X153425000Y-93025000D02*
X153750000Y-93350000D01*
X153750000Y-89570000D02*
X153690000Y-89630000D01*
X153750000Y-93350000D02*
X153750000Y-91565000D01*
X153815000Y-91500000D02*
X153815000Y-89755000D01*
%TO.N,Net-(C13-Pad1)*%
X156250000Y-94975000D02*
X156250000Y-94250000D01*
X156250000Y-94250000D02*
X155600000Y-94250000D01*
X155000000Y-91815000D02*
X154685000Y-91500000D01*
X155000000Y-93650000D02*
X155000000Y-91815000D01*
X156100000Y-95125000D02*
X156250000Y-94975000D01*
X155600000Y-94250000D02*
X155000000Y-93650000D01*
X156100000Y-97250000D02*
X156100000Y-95125000D01*
%TO.N,PS_OUT*%
X158195000Y-93525000D02*
X158250000Y-93470000D01*
X156250000Y-93525000D02*
X158195000Y-93525000D01*
X156250000Y-89650000D02*
X155500000Y-88900000D01*
X155500000Y-88900000D02*
X158275000Y-88900000D01*
X158275000Y-88900000D02*
X158750000Y-89375000D01*
X156250000Y-93525000D02*
X156250000Y-89650000D01*
%TO.N,Net-(C22-Pad2)*%
X195525000Y-87750000D02*
X195375000Y-87600000D01*
X197220000Y-87750000D02*
X195525000Y-87750000D01*
X195375000Y-87600000D02*
X195375000Y-86725000D01*
%TO.N,ANODE_OUT*%
X189000000Y-79500000D02*
X189675000Y-80175000D01*
X189675000Y-80175000D02*
X189675000Y-80725000D01*
%TO.N,Net-(VR3-CW)*%
X148500000Y-95000000D02*
X149025000Y-94475000D01*
X149025000Y-94475000D02*
X151750000Y-94475000D01*
%TO.N,VCC*%
X106300000Y-84070000D02*
X106300000Y-83000000D01*
X109000000Y-83010000D02*
X108500000Y-83010000D01*
X109000000Y-85000000D02*
X108750000Y-85250000D01*
X149750000Y-76500000D02*
X149500000Y-76500000D01*
X109000000Y-85000000D02*
X109050000Y-84950000D01*
X109050000Y-83010000D02*
X109000000Y-83010000D01*
X100000000Y-89500000D02*
X100810000Y-90310000D01*
X108990000Y-83000000D02*
X109000000Y-83010000D01*
X108500000Y-83010000D02*
X108100000Y-83010000D01*
X151275000Y-76500000D02*
X149750000Y-76500000D01*
X90890000Y-69500000D02*
X90890000Y-75476346D01*
X106300000Y-83000000D02*
X108990000Y-83000000D01*
X103690000Y-90310000D02*
X100810000Y-90310000D01*
X111500000Y-84560000D02*
X113050000Y-83010000D01*
X111500000Y-86500000D02*
X111500000Y-84560000D01*
X91000000Y-87500000D02*
X93000000Y-89500000D01*
X108750000Y-85250000D02*
X110000000Y-86500000D01*
X109050000Y-84950000D02*
X109050000Y-83010000D01*
X109000000Y-85000000D02*
X103690000Y-90310000D01*
X90890000Y-75476346D02*
X91000000Y-75586346D01*
X91000000Y-75586346D02*
X91000000Y-87500000D01*
X100810000Y-90310000D02*
X100810000Y-97640000D01*
X93000000Y-89500000D02*
X100000000Y-89500000D01*
X148280000Y-77720000D02*
X144500000Y-77720000D01*
X100810000Y-97640000D02*
X100500000Y-97950000D01*
X149500000Y-76500000D02*
X148280000Y-77720000D01*
X113000000Y-83010000D02*
X113950000Y-83010000D01*
X106300000Y-83000000D02*
X106300000Y-82090000D01*
X110000000Y-86500000D02*
X111500000Y-86500000D01*
X106300000Y-82090000D02*
X106280000Y-82070000D01*
%TO.N,Net-(R7-Pad2)*%
X155725000Y-76500000D02*
X155725000Y-74800000D01*
X155725000Y-74800000D02*
X155775000Y-74750000D01*
%TO.N,SIG*%
X112360000Y-75000000D02*
X114950000Y-77590000D01*
X112360000Y-75000000D02*
X112360000Y-71640000D01*
X113000000Y-71000000D02*
X140750000Y-71000000D01*
X140750000Y-71000000D02*
X142210000Y-72460000D01*
X112360000Y-71640000D02*
X113000000Y-71000000D01*
X140775000Y-74500000D02*
X140775000Y-73935000D01*
X142210000Y-72460000D02*
X142210000Y-72500000D01*
X114950000Y-77590000D02*
X114950000Y-80500000D01*
X140775000Y-73935000D02*
X142210000Y-72500000D01*
%TO.N,Net-(U8-VCC)*%
X146630000Y-87215000D02*
X147095000Y-87680000D01*
X152490000Y-91555000D02*
X152490000Y-86870000D01*
X151750000Y-83630000D02*
X147350000Y-83630000D01*
X147095000Y-87680000D02*
X147400000Y-87680000D01*
X152565000Y-91630000D02*
X152490000Y-91555000D01*
X146630000Y-84350000D02*
X146630000Y-86130000D01*
X147350000Y-83630000D02*
X146630000Y-84350000D01*
X147095000Y-87695000D02*
X147095000Y-88630000D01*
X146630000Y-86130000D02*
X146630000Y-87215000D01*
X151750000Y-86130000D02*
X151750000Y-83630000D01*
X152490000Y-86870000D02*
X151750000Y-86130000D01*
X147080000Y-87680000D02*
X147095000Y-87695000D01*
%TD*%
%TA.AperFunction,Conductor*%
%TO.N,GND*%
G36*
X111174855Y-75666546D02*
G01*
X111191575Y-75685842D01*
X111321500Y-75871395D01*
X111321505Y-75871401D01*
X111488599Y-76038495D01*
X111567828Y-76093972D01*
X111682165Y-76174032D01*
X111682167Y-76174033D01*
X111682170Y-76174035D01*
X111896337Y-76273903D01*
X111896343Y-76273904D01*
X111896344Y-76273905D01*
X111923059Y-76281063D01*
X112124592Y-76335063D01*
X112301034Y-76350500D01*
X112359999Y-76355659D01*
X112360000Y-76355659D01*
X112360001Y-76355659D01*
X112418966Y-76350500D01*
X112595408Y-76335063D01*
X112723757Y-76300672D01*
X112793606Y-76302335D01*
X112843531Y-76332766D01*
X114313181Y-77802416D01*
X114346666Y-77863739D01*
X114349500Y-77890097D01*
X114349500Y-79483288D01*
X114329815Y-79550327D01*
X114323876Y-79558774D01*
X114231986Y-79678527D01*
X114231983Y-79678532D01*
X114174250Y-79817913D01*
X114174249Y-79817917D01*
X114159500Y-79929939D01*
X114159500Y-79929945D01*
X114159500Y-79929947D01*
X114159500Y-80407461D01*
X114159501Y-80775500D01*
X114139817Y-80842539D01*
X114087013Y-80888294D01*
X114035501Y-80899500D01*
X113964500Y-80899500D01*
X113897461Y-80879815D01*
X113851706Y-80827011D01*
X113840500Y-80775500D01*
X113840499Y-79929945D01*
X113825752Y-79817924D01*
X113825751Y-79817923D01*
X113825751Y-79817917D01*
X113776701Y-79699500D01*
X113768016Y-79678532D01*
X113768016Y-79678531D01*
X113768013Y-79678527D01*
X113676168Y-79558832D01*
X113556472Y-79466986D01*
X113556469Y-79466985D01*
X113556467Y-79466983D01*
X113417086Y-79409250D01*
X113417084Y-79409249D01*
X113417083Y-79409249D01*
X113305053Y-79394500D01*
X112794945Y-79394500D01*
X112682924Y-79409247D01*
X112682913Y-79409250D01*
X112543532Y-79466983D01*
X112543531Y-79466983D01*
X112434916Y-79550327D01*
X112423832Y-79558832D01*
X112344310Y-79662468D01*
X112331984Y-79678531D01*
X112280171Y-79803618D01*
X112236330Y-79858021D01*
X112170035Y-79880086D01*
X112102336Y-79862806D01*
X112093011Y-79856575D01*
X112092328Y-79856202D01*
X111957482Y-79805908D01*
X111957483Y-79805908D01*
X111897883Y-79799501D01*
X111897881Y-79799500D01*
X111897873Y-79799500D01*
X111897864Y-79799500D01*
X111102129Y-79799500D01*
X111102123Y-79799501D01*
X111042515Y-79805909D01*
X110919245Y-79851885D01*
X110849554Y-79856869D01*
X110788231Y-79823383D01*
X110761352Y-79783155D01*
X110718016Y-79678532D01*
X110718016Y-79678531D01*
X110718013Y-79678527D01*
X110626168Y-79558832D01*
X110506472Y-79466986D01*
X110506469Y-79466985D01*
X110506467Y-79466983D01*
X110367086Y-79409250D01*
X110367084Y-79409249D01*
X110367083Y-79409249D01*
X110255053Y-79394500D01*
X109744945Y-79394500D01*
X109632924Y-79409247D01*
X109632913Y-79409250D01*
X109493532Y-79466983D01*
X109493531Y-79466983D01*
X109373832Y-79558832D01*
X109281983Y-79678531D01*
X109281983Y-79678532D01*
X109224250Y-79817913D01*
X109224249Y-79817917D01*
X109209500Y-79929939D01*
X109209500Y-80789705D01*
X109189815Y-80856744D01*
X109137011Y-80902499D01*
X109067853Y-80912443D01*
X109004297Y-80883418D01*
X108997837Y-80877403D01*
X108926816Y-80806383D01*
X108893333Y-80745060D01*
X108890499Y-80718703D01*
X108890499Y-79929945D01*
X108875752Y-79817924D01*
X108875751Y-79817923D01*
X108875751Y-79817917D01*
X108826701Y-79699500D01*
X108818016Y-79678532D01*
X108818013Y-79678527D01*
X108803969Y-79660225D01*
X108789029Y-79640754D01*
X108726124Y-79558774D01*
X108700930Y-79493605D01*
X108700500Y-79483288D01*
X108700500Y-78200096D01*
X108720185Y-78133057D01*
X108736814Y-78112420D01*
X110178506Y-76670727D01*
X110178511Y-76670724D01*
X110188714Y-76660520D01*
X110188716Y-76660520D01*
X110300520Y-76548716D01*
X110379577Y-76411784D01*
X110420500Y-76259057D01*
X110420500Y-76259052D01*
X110420526Y-76258955D01*
X110456891Y-76199295D01*
X110487898Y-76178666D01*
X110497830Y-76174035D01*
X110691401Y-76038495D01*
X110858495Y-75871401D01*
X110983397Y-75693023D01*
X110988425Y-75685842D01*
X111043002Y-75642217D01*
X111112500Y-75635023D01*
X111174855Y-75666546D01*
G37*
%TD.AperFunction*%
%TA.AperFunction,Conductor*%
G36*
X163442539Y-66020185D02*
G01*
X163488294Y-66072989D01*
X163499500Y-66124500D01*
X163499500Y-70875500D01*
X163479815Y-70942539D01*
X163427011Y-70988294D01*
X163375500Y-70999500D01*
X162412465Y-70999500D01*
X162240062Y-71029898D01*
X162075553Y-71089775D01*
X161923942Y-71177309D01*
X161789836Y-71289836D01*
X161677309Y-71423942D01*
X161589775Y-71575553D01*
X161529898Y-71740062D01*
X161499500Y-71912465D01*
X161499500Y-95587534D01*
X161529898Y-95759937D01*
X161589775Y-95924446D01*
X161677309Y-96076057D01*
X161789836Y-96210163D01*
X161923942Y-96322690D01*
X161923943Y-96322691D01*
X161923945Y-96322692D01*
X162075555Y-96410225D01*
X162240062Y-96470101D01*
X162412468Y-96500500D01*
X162434108Y-96500500D01*
X163375500Y-96500500D01*
X163442539Y-96520185D01*
X163488294Y-96572989D01*
X163499500Y-96624500D01*
X163499500Y-101375500D01*
X163479815Y-101442539D01*
X163427011Y-101488294D01*
X163375500Y-101499500D01*
X76124500Y-101499500D01*
X76057461Y-101479815D01*
X76011706Y-101427011D01*
X76000500Y-101375500D01*
X76000500Y-101062971D01*
X130753050Y-101062971D01*
X144350489Y-101062971D01*
X144350489Y-98822675D01*
X130753050Y-98822675D01*
X130753050Y-101062971D01*
X76000500Y-101062971D01*
X76000500Y-92779999D01*
X88144341Y-92779999D01*
X88144341Y-92780000D01*
X88164936Y-93015403D01*
X88164938Y-93015413D01*
X88226094Y-93243655D01*
X88226096Y-93243659D01*
X88226097Y-93243663D01*
X88298005Y-93397870D01*
X88325965Y-93457830D01*
X88325967Y-93457834D01*
X88420144Y-93592331D01*
X88461505Y-93651401D01*
X88628599Y-93818495D01*
X88697334Y-93866624D01*
X88822165Y-93954032D01*
X88822167Y-93954033D01*
X88822170Y-93954035D01*
X89036337Y-94053903D01*
X89264592Y-94115063D01*
X89452918Y-94131539D01*
X89499999Y-94135659D01*
X89500000Y-94135659D01*
X89500001Y-94135659D01*
X89539234Y-94132226D01*
X89735408Y-94115063D01*
X89963663Y-94053903D01*
X90177830Y-93954035D01*
X90371401Y-93818495D01*
X90538495Y-93651401D01*
X90668425Y-93465842D01*
X90723002Y-93422217D01*
X90792500Y-93415023D01*
X90854855Y-93446546D01*
X90871575Y-93465842D01*
X91001500Y-93651395D01*
X91001505Y-93651401D01*
X91168599Y-93818495D01*
X91237334Y-93866624D01*
X91362165Y-93954032D01*
X91362167Y-93954033D01*
X91362170Y-93954035D01*
X91576337Y-94053903D01*
X91804592Y-94115063D01*
X91992918Y-94131539D01*
X92039999Y-94135659D01*
X92040000Y-94135659D01*
X92040001Y-94135659D01*
X92079234Y-94132226D01*
X92275408Y-94115063D01*
X92503663Y-94053903D01*
X92717830Y-93954035D01*
X92911401Y-93818495D01*
X93078495Y-93651401D01*
X93214035Y-93457830D01*
X93313903Y-93243663D01*
X93375063Y-93015408D01*
X93395659Y-92780000D01*
X93375063Y-92544592D01*
X93313903Y-92316337D01*
X93214035Y-92102171D01*
X93209364Y-92095499D01*
X93078494Y-91908597D01*
X92911402Y-91741506D01*
X92911395Y-91741501D01*
X92717834Y-91605967D01*
X92717830Y-91605965D01*
X92653096Y-91575779D01*
X92503663Y-91506097D01*
X92503659Y-91506096D01*
X92503655Y-91506094D01*
X92275413Y-91444938D01*
X92275403Y-91444936D01*
X92040001Y-91424341D01*
X92039999Y-91424341D01*
X91804596Y-91444936D01*
X91804586Y-91444938D01*
X91576344Y-91506094D01*
X91576335Y-91506098D01*
X91362171Y-91605964D01*
X91362169Y-91605965D01*
X91168597Y-91741505D01*
X91001505Y-91908597D01*
X90871575Y-92094158D01*
X90816998Y-92137783D01*
X90747500Y-92144977D01*
X90685145Y-92113454D01*
X90668425Y-92094158D01*
X90538494Y-91908597D01*
X90371402Y-91741506D01*
X90371395Y-91741501D01*
X90177834Y-91605967D01*
X90177830Y-91605965D01*
X90113096Y-91575779D01*
X89963663Y-91506097D01*
X89963659Y-91506096D01*
X89963655Y-91506094D01*
X89735413Y-91444938D01*
X89735403Y-91444936D01*
X89500001Y-91424341D01*
X89499999Y-91424341D01*
X89264596Y-91444936D01*
X89264586Y-91444938D01*
X89036344Y-91506094D01*
X89036335Y-91506098D01*
X88822171Y-91605964D01*
X88822169Y-91605965D01*
X88628597Y-91741505D01*
X88461505Y-91908597D01*
X88325965Y-92102169D01*
X88325964Y-92102171D01*
X88226098Y-92316335D01*
X88226094Y-92316344D01*
X88164938Y-92544586D01*
X88164936Y-92544596D01*
X88144341Y-92779999D01*
X76000500Y-92779999D01*
X76000500Y-88662472D01*
X76000500Y-88662468D01*
X75970101Y-88490062D01*
X75910225Y-88325555D01*
X75822692Y-88173945D01*
X75822691Y-88173943D01*
X75822690Y-88173942D01*
X75710163Y-88039836D01*
X75576057Y-87927309D01*
X75424446Y-87839775D01*
X75259937Y-87779898D01*
X75087534Y-87749500D01*
X75087532Y-87749500D01*
X75065892Y-87749500D01*
X71124500Y-87749500D01*
X71057461Y-87729815D01*
X71011706Y-87677011D01*
X71000500Y-87625500D01*
X71000500Y-79874500D01*
X71020185Y-79807461D01*
X71072989Y-79761706D01*
X71124500Y-79750500D01*
X75087528Y-79750500D01*
X75087532Y-79750500D01*
X75259938Y-79720101D01*
X75424445Y-79660225D01*
X75576055Y-79572692D01*
X75710163Y-79460163D01*
X75822692Y-79326055D01*
X75910225Y-79174445D01*
X75970101Y-79009938D01*
X76000500Y-78837532D01*
X76000500Y-78750000D01*
X76000500Y-78684108D01*
X76000500Y-74999999D01*
X88144341Y-74999999D01*
X88144341Y-75000000D01*
X88164936Y-75235403D01*
X88164938Y-75235413D01*
X88226094Y-75463655D01*
X88226096Y-75463659D01*
X88226097Y-75463663D01*
X88313980Y-75652128D01*
X88325965Y-75677830D01*
X88325967Y-75677834D01*
X88412013Y-75800719D01*
X88461505Y-75871401D01*
X88628599Y-76038495D01*
X88707828Y-76093972D01*
X88822165Y-76174032D01*
X88822167Y-76174033D01*
X88822170Y-76174035D01*
X89036337Y-76273903D01*
X89036343Y-76273904D01*
X89036344Y-76273905D01*
X89063059Y-76281063D01*
X89264592Y-76335063D01*
X89441034Y-76350500D01*
X89499999Y-76355659D01*
X89500000Y-76355659D01*
X89500001Y-76355659D01*
X89558966Y-76350500D01*
X89735408Y-76335063D01*
X89963663Y-76273903D01*
X90177830Y-76174035D01*
X90204377Y-76155446D01*
X90270580Y-76133119D01*
X90338348Y-76150128D01*
X90386162Y-76201075D01*
X90399500Y-76257021D01*
X90399500Y-79780903D01*
X90379815Y-79847942D01*
X90327011Y-79893697D01*
X90257853Y-79903641D01*
X90216485Y-79889959D01*
X90194511Y-79878067D01*
X90194495Y-79878061D01*
X89974984Y-79802702D01*
X89803282Y-79774050D01*
X89746049Y-79764500D01*
X89513951Y-79764500D01*
X89468164Y-79772140D01*
X89285015Y-79802702D01*
X89065504Y-79878061D01*
X89065495Y-79878064D01*
X88861371Y-79988531D01*
X88861365Y-79988535D01*
X88678222Y-80131081D01*
X88678219Y-80131084D01*
X88521016Y-80301852D01*
X88394075Y-80496151D01*
X88300842Y-80708699D01*
X88243866Y-80933691D01*
X88243864Y-80933702D01*
X88224700Y-81164993D01*
X88224700Y-81165006D01*
X88243864Y-81396297D01*
X88243866Y-81396308D01*
X88300842Y-81621300D01*
X88394075Y-81833848D01*
X88521016Y-82028147D01*
X88521019Y-82028151D01*
X88521021Y-82028153D01*
X88678216Y-82198913D01*
X88678219Y-82198915D01*
X88678222Y-82198918D01*
X88861365Y-82341464D01*
X88861371Y-82341468D01*
X88861374Y-82341470D01*
X89016548Y-82425446D01*
X89043328Y-82439939D01*
X89065497Y-82451936D01*
X89169336Y-82487584D01*
X89285015Y-82527297D01*
X89285017Y-82527297D01*
X89285019Y-82527298D01*
X89513951Y-82565500D01*
X89513952Y-82565500D01*
X89746048Y-82565500D01*
X89746049Y-82565500D01*
X89974981Y-82527298D01*
X90194503Y-82451936D01*
X90216481Y-82440041D01*
X90284810Y-82425446D01*
X90350182Y-82450108D01*
X90391843Y-82506198D01*
X90399500Y-82549096D01*
X90399500Y-85230903D01*
X90379815Y-85297942D01*
X90327011Y-85343697D01*
X90257853Y-85353641D01*
X90216485Y-85339959D01*
X90194511Y-85328067D01*
X90194495Y-85328061D01*
X89974984Y-85252702D01*
X89786212Y-85221202D01*
X89746049Y-85214500D01*
X89513951Y-85214500D01*
X89473788Y-85221202D01*
X89285015Y-85252702D01*
X89065504Y-85328061D01*
X89065495Y-85328064D01*
X88861371Y-85438531D01*
X88861365Y-85438535D01*
X88678222Y-85581081D01*
X88678219Y-85581084D01*
X88678216Y-85581086D01*
X88678216Y-85581087D01*
X88660300Y-85600549D01*
X88521016Y-85751852D01*
X88394075Y-85946151D01*
X88300842Y-86158699D01*
X88243866Y-86383691D01*
X88243864Y-86383702D01*
X88224700Y-86614993D01*
X88224700Y-86615006D01*
X88243864Y-86846297D01*
X88243866Y-86846308D01*
X88300842Y-87071300D01*
X88394075Y-87283848D01*
X88521016Y-87478147D01*
X88521019Y-87478151D01*
X88521021Y-87478153D01*
X88678216Y-87648913D01*
X88678219Y-87648915D01*
X88678222Y-87648918D01*
X88861365Y-87791464D01*
X88861371Y-87791468D01*
X88861374Y-87791470D01*
X89065497Y-87901936D01*
X89139406Y-87927309D01*
X89285015Y-87977297D01*
X89285017Y-87977297D01*
X89285019Y-87977298D01*
X89513951Y-88015500D01*
X89513952Y-88015500D01*
X89746048Y-88015500D01*
X89746049Y-88015500D01*
X89974981Y-87977298D01*
X90194503Y-87901936D01*
X90350640Y-87817438D01*
X90418966Y-87802844D01*
X90484339Y-87827507D01*
X90517041Y-87864492D01*
X90519480Y-87868716D01*
X90519481Y-87868717D01*
X90638349Y-87987585D01*
X90638355Y-87987590D01*
X92515139Y-89864374D01*
X92515149Y-89864385D01*
X92519479Y-89868715D01*
X92519480Y-89868716D01*
X92631284Y-89980520D01*
X92697442Y-90018716D01*
X92768215Y-90059577D01*
X92920943Y-90100500D01*
X99699903Y-90100500D01*
X99766942Y-90120185D01*
X99787584Y-90136819D01*
X100173181Y-90522416D01*
X100206666Y-90583739D01*
X100209500Y-90610097D01*
X100209500Y-91367496D01*
X100189815Y-91434535D01*
X100137011Y-91480290D01*
X100067853Y-91490234D01*
X100053408Y-91487271D01*
X99895416Y-91444939D01*
X99895412Y-91444938D01*
X99895408Y-91444937D01*
X99895406Y-91444936D01*
X99895403Y-91444936D01*
X99660001Y-91424341D01*
X99659999Y-91424341D01*
X99424596Y-91444936D01*
X99424586Y-91444938D01*
X99196344Y-91506094D01*
X99196335Y-91506098D01*
X98982171Y-91605964D01*
X98982169Y-91605965D01*
X98788597Y-91741505D01*
X98621505Y-91908597D01*
X98491575Y-92094158D01*
X98436998Y-92137783D01*
X98367500Y-92144977D01*
X98305145Y-92113454D01*
X98288425Y-92094158D01*
X98158494Y-91908597D01*
X97991402Y-91741506D01*
X97991395Y-91741501D01*
X97797834Y-91605967D01*
X97797830Y-91605965D01*
X97733096Y-91575779D01*
X97583663Y-91506097D01*
X97583659Y-91506096D01*
X97583655Y-91506094D01*
X97355413Y-91444938D01*
X97355403Y-91444936D01*
X97120001Y-91424341D01*
X97119999Y-91424341D01*
X96884596Y-91444936D01*
X96884586Y-91444938D01*
X96656344Y-91506094D01*
X96656335Y-91506098D01*
X96442171Y-91605964D01*
X96442169Y-91605965D01*
X96248597Y-91741505D01*
X96081505Y-91908597D01*
X95945965Y-92102169D01*
X95945964Y-92102171D01*
X95846098Y-92316335D01*
X95846094Y-92316344D01*
X95784938Y-92544586D01*
X95784936Y-92544596D01*
X95764341Y-92779999D01*
X95764341Y-92780000D01*
X95784936Y-93015403D01*
X95784938Y-93015413D01*
X95846094Y-93243655D01*
X95846096Y-93243659D01*
X95846097Y-93243663D01*
X95918005Y-93397870D01*
X95945965Y-93457830D01*
X95945967Y-93457834D01*
X96040144Y-93592331D01*
X96081505Y-93651401D01*
X96248599Y-93818495D01*
X96317334Y-93866624D01*
X96442165Y-93954032D01*
X96442167Y-93954033D01*
X96442170Y-93954035D01*
X96656337Y-94053903D01*
X96884592Y-94115063D01*
X97072918Y-94131539D01*
X97119999Y-94135659D01*
X97120000Y-94135659D01*
X97120001Y-94135659D01*
X97159234Y-94132226D01*
X97355408Y-94115063D01*
X97583663Y-94053903D01*
X97797830Y-93954035D01*
X97991401Y-93818495D01*
X98158495Y-93651401D01*
X98288425Y-93465842D01*
X98343002Y-93422217D01*
X98412500Y-93415023D01*
X98474855Y-93446546D01*
X98491575Y-93465842D01*
X98621500Y-93651395D01*
X98621505Y-93651401D01*
X98788599Y-93818495D01*
X98857334Y-93866624D01*
X98982165Y-93954032D01*
X98982167Y-93954033D01*
X98982170Y-93954035D01*
X99196337Y-94053903D01*
X99424592Y-94115063D01*
X99612918Y-94131539D01*
X99659999Y-94135659D01*
X99660000Y-94135659D01*
X99660001Y-94135659D01*
X99699234Y-94132226D01*
X99895408Y-94115063D01*
X100047200Y-94074391D01*
X100053407Y-94072728D01*
X100123257Y-94074391D01*
X100181119Y-94113554D01*
X100208623Y-94177782D01*
X100209500Y-94192503D01*
X100209500Y-96739491D01*
X100189815Y-96806530D01*
X100137011Y-96852285D01*
X100130294Y-96855117D01*
X99983201Y-96912101D01*
X99983186Y-96912108D01*
X99801286Y-97024736D01*
X99801283Y-97024738D01*
X99801279Y-97024740D01*
X99801278Y-97024742D01*
X99768949Y-97054214D01*
X99643157Y-97168887D01*
X99598954Y-97227422D01*
X99542844Y-97269058D01*
X99473132Y-97273749D01*
X99411951Y-97240007D01*
X99401046Y-97227422D01*
X99356842Y-97168887D01*
X99303418Y-97120185D01*
X99198722Y-97024742D01*
X99198716Y-97024738D01*
X99198713Y-97024736D01*
X99016813Y-96912108D01*
X99016807Y-96912106D01*
X98817297Y-96834815D01*
X98606980Y-96795500D01*
X98393020Y-96795500D01*
X98182703Y-96834815D01*
X98095195Y-96868716D01*
X97983192Y-96912106D01*
X97983186Y-96912108D01*
X97801286Y-97024736D01*
X97801277Y-97024743D01*
X97768405Y-97054709D01*
X97705601Y-97085325D01*
X97636214Y-97077125D01*
X97585603Y-97037382D01*
X97511546Y-96938454D01*
X97488154Y-96920943D01*
X97396335Y-96852206D01*
X97396328Y-96852202D01*
X97261482Y-96801908D01*
X97261483Y-96801908D01*
X97201883Y-96795501D01*
X97201881Y-96795500D01*
X97201873Y-96795500D01*
X97201864Y-96795500D01*
X95798129Y-96795500D01*
X95798123Y-96795501D01*
X95738516Y-96801908D01*
X95603671Y-96852202D01*
X95603664Y-96852206D01*
X95488455Y-96938452D01*
X95488452Y-96938455D01*
X95402206Y-97053664D01*
X95402202Y-97053671D01*
X95351908Y-97188517D01*
X95345501Y-97248116D01*
X95345500Y-97248135D01*
X95345500Y-98651870D01*
X95345501Y-98651876D01*
X95351908Y-98711483D01*
X95402202Y-98846328D01*
X95402206Y-98846335D01*
X95488452Y-98961544D01*
X95488455Y-98961547D01*
X95603664Y-99047793D01*
X95603671Y-99047797D01*
X95738517Y-99098091D01*
X95738516Y-99098091D01*
X95745444Y-99098835D01*
X95798127Y-99104500D01*
X97201872Y-99104499D01*
X97261483Y-99098091D01*
X97396331Y-99047796D01*
X97511546Y-98961546D01*
X97585605Y-98862615D01*
X97641536Y-98820747D01*
X97711227Y-98815763D01*
X97768403Y-98845289D01*
X97801278Y-98875258D01*
X97801283Y-98875261D01*
X97801286Y-98875263D01*
X97983186Y-98987891D01*
X97983187Y-98987891D01*
X97983190Y-98987893D01*
X98182703Y-99065185D01*
X98393020Y-99104500D01*
X98393022Y-99104500D01*
X98606978Y-99104500D01*
X98606980Y-99104500D01*
X98817297Y-99065185D01*
X99016810Y-98987893D01*
X99198722Y-98875258D01*
X99356841Y-98731114D01*
X99401046Y-98672576D01*
X99457155Y-98630941D01*
X99526867Y-98626250D01*
X99588049Y-98659992D01*
X99598952Y-98672575D01*
X99643159Y-98731114D01*
X99801278Y-98875258D01*
X99801283Y-98875261D01*
X99801286Y-98875263D01*
X99983186Y-98987891D01*
X99983187Y-98987891D01*
X99983190Y-98987893D01*
X100182703Y-99065185D01*
X100393020Y-99104500D01*
X100393022Y-99104500D01*
X100606978Y-99104500D01*
X100606980Y-99104500D01*
X100817297Y-99065185D01*
X101016810Y-98987893D01*
X101198722Y-98875258D01*
X101356841Y-98731114D01*
X101485781Y-98560370D01*
X101581151Y-98368840D01*
X101581151Y-98368837D01*
X101581153Y-98368835D01*
X101639703Y-98163050D01*
X101639704Y-98163047D01*
X101659446Y-97950000D01*
X101659446Y-97949999D01*
X101639704Y-97736952D01*
X101639703Y-97736949D01*
X101581153Y-97531164D01*
X101581150Y-97531158D01*
X101485784Y-97339636D01*
X101485780Y-97339629D01*
X101436030Y-97273749D01*
X101435544Y-97273105D01*
X101410854Y-97207746D01*
X101410500Y-97198381D01*
X101410500Y-95666320D01*
X101430185Y-95599281D01*
X101482989Y-95553526D01*
X101552147Y-95543582D01*
X101615703Y-95572607D01*
X101641883Y-95604315D01*
X101669360Y-95651904D01*
X101719479Y-95738714D01*
X101719481Y-95738717D01*
X101838349Y-95857585D01*
X101838355Y-95857590D01*
X102845139Y-96864374D01*
X102845149Y-96864385D01*
X102849479Y-96868715D01*
X102849480Y-96868716D01*
X102961284Y-96980520D01*
X102961286Y-96980521D01*
X102961290Y-96980524D01*
X103037879Y-97024742D01*
X103098216Y-97059577D01*
X103189760Y-97084106D01*
X103250942Y-97100500D01*
X103250943Y-97100500D01*
X105723326Y-97100500D01*
X105790365Y-97120185D01*
X105836120Y-97172989D01*
X105846615Y-97237751D01*
X105845500Y-97248127D01*
X105845500Y-97248134D01*
X105845500Y-97248135D01*
X105845500Y-98651870D01*
X105845501Y-98651876D01*
X105851908Y-98711483D01*
X105902202Y-98846328D01*
X105902206Y-98846335D01*
X105988452Y-98961544D01*
X105988455Y-98961547D01*
X106103664Y-99047793D01*
X106103671Y-99047797D01*
X106238517Y-99098091D01*
X106238516Y-99098091D01*
X106245444Y-99098835D01*
X106298127Y-99104500D01*
X107701872Y-99104499D01*
X107761483Y-99098091D01*
X107896331Y-99047796D01*
X108011546Y-98961546D01*
X108085605Y-98862615D01*
X108141536Y-98820747D01*
X108211227Y-98815763D01*
X108268403Y-98845289D01*
X108301278Y-98875258D01*
X108301283Y-98875261D01*
X108301286Y-98875263D01*
X108483186Y-98987891D01*
X108483187Y-98987891D01*
X108483190Y-98987893D01*
X108682703Y-99065185D01*
X108893020Y-99104500D01*
X108893022Y-99104500D01*
X109106978Y-99104500D01*
X109106980Y-99104500D01*
X109317297Y-99065185D01*
X109516810Y-98987893D01*
X109698722Y-98875258D01*
X109856841Y-98731114D01*
X109901046Y-98672576D01*
X109957155Y-98630941D01*
X110026867Y-98626250D01*
X110088049Y-98659992D01*
X110098952Y-98672575D01*
X110143159Y-98731114D01*
X110301278Y-98875258D01*
X110301283Y-98875261D01*
X110301286Y-98875263D01*
X110483186Y-98987891D01*
X110483187Y-98987891D01*
X110483190Y-98987893D01*
X110682703Y-99065185D01*
X110893020Y-99104500D01*
X110893022Y-99104500D01*
X111106978Y-99104500D01*
X111106980Y-99104500D01*
X111317297Y-99065185D01*
X111516810Y-98987893D01*
X111698722Y-98875258D01*
X111856841Y-98731114D01*
X111901046Y-98672576D01*
X111957155Y-98630941D01*
X112026867Y-98626250D01*
X112088049Y-98659992D01*
X112098952Y-98672575D01*
X112143159Y-98731114D01*
X112301278Y-98875258D01*
X112301283Y-98875261D01*
X112301286Y-98875263D01*
X112483186Y-98987891D01*
X112483187Y-98987891D01*
X112483190Y-98987893D01*
X112682703Y-99065185D01*
X112893020Y-99104500D01*
X112893022Y-99104500D01*
X113106978Y-99104500D01*
X113106980Y-99104500D01*
X113317297Y-99065185D01*
X113516810Y-98987893D01*
X113698722Y-98875258D01*
X113856841Y-98731114D01*
X113901046Y-98672576D01*
X113957155Y-98630941D01*
X114026867Y-98626250D01*
X114088049Y-98659992D01*
X114098952Y-98672575D01*
X114143159Y-98731114D01*
X114301278Y-98875258D01*
X114301283Y-98875261D01*
X114301286Y-98875263D01*
X114483186Y-98987891D01*
X114483187Y-98987891D01*
X114483190Y-98987893D01*
X114682703Y-99065185D01*
X114893020Y-99104500D01*
X114893022Y-99104500D01*
X115106978Y-99104500D01*
X115106980Y-99104500D01*
X115317297Y-99065185D01*
X115516810Y-98987893D01*
X115698722Y-98875258D01*
X115856841Y-98731114D01*
X115901046Y-98672576D01*
X115957155Y-98630941D01*
X116026867Y-98626250D01*
X116088049Y-98659992D01*
X116098952Y-98672575D01*
X116143159Y-98731114D01*
X116301278Y-98875258D01*
X116301283Y-98875261D01*
X116301286Y-98875263D01*
X116483186Y-98987891D01*
X116483187Y-98987891D01*
X116483190Y-98987893D01*
X116682703Y-99065185D01*
X116893020Y-99104500D01*
X116893022Y-99104500D01*
X117106978Y-99104500D01*
X117106980Y-99104500D01*
X117317297Y-99065185D01*
X117516810Y-98987893D01*
X117698722Y-98875258D01*
X117856841Y-98731114D01*
X117985781Y-98560370D01*
X118081151Y-98368840D01*
X118081151Y-98368837D01*
X118081153Y-98368835D01*
X118139703Y-98163050D01*
X118139704Y-98163047D01*
X118159446Y-97950000D01*
X118159446Y-97949999D01*
X118139704Y-97736952D01*
X118139703Y-97736949D01*
X118081153Y-97531164D01*
X118081150Y-97531158D01*
X117985781Y-97339630D01*
X117856841Y-97168886D01*
X117698722Y-97024742D01*
X117698716Y-97024738D01*
X117698713Y-97024736D01*
X117516813Y-96912108D01*
X117516807Y-96912106D01*
X117317297Y-96834815D01*
X117106980Y-96795500D01*
X116893020Y-96795500D01*
X116682703Y-96834815D01*
X116595195Y-96868716D01*
X116483192Y-96912106D01*
X116483186Y-96912108D01*
X116301286Y-97024736D01*
X116301283Y-97024738D01*
X116301279Y-97024740D01*
X116301278Y-97024742D01*
X116268949Y-97054214D01*
X116143157Y-97168887D01*
X116098954Y-97227422D01*
X116042844Y-97269058D01*
X115973132Y-97273749D01*
X115911951Y-97240007D01*
X115901046Y-97227422D01*
X115856842Y-97168887D01*
X115803418Y-97120185D01*
X115698722Y-97024742D01*
X115698716Y-97024738D01*
X115698713Y-97024736D01*
X115516813Y-96912108D01*
X115516807Y-96912106D01*
X115317297Y-96834815D01*
X115106980Y-96795500D01*
X114893020Y-96795500D01*
X114682703Y-96834815D01*
X114595195Y-96868716D01*
X114483192Y-96912106D01*
X114483186Y-96912108D01*
X114301286Y-97024736D01*
X114301283Y-97024738D01*
X114301279Y-97024740D01*
X114301278Y-97024742D01*
X114268949Y-97054214D01*
X114143157Y-97168887D01*
X114098954Y-97227422D01*
X114042844Y-97269058D01*
X113973132Y-97273749D01*
X113911951Y-97240007D01*
X113901046Y-97227422D01*
X113858440Y-97171004D01*
X113856841Y-97168886D01*
X113850725Y-97163311D01*
X113698722Y-97024742D01*
X113698721Y-97024741D01*
X113656086Y-96998342D01*
X113609451Y-96946314D01*
X113601590Y-96925010D01*
X113600501Y-96920945D01*
X113600501Y-96920943D01*
X113559577Y-96768216D01*
X113483716Y-96636819D01*
X113480524Y-96631290D01*
X113480518Y-96631282D01*
X112487590Y-95638355D01*
X112487588Y-95638352D01*
X112368717Y-95519481D01*
X112368709Y-95519475D01*
X112246740Y-95449057D01*
X112246737Y-95449056D01*
X112231785Y-95440423D01*
X112208217Y-95434108D01*
X112079057Y-95399499D01*
X111920943Y-95399499D01*
X111913347Y-95399499D01*
X111913331Y-95399500D01*
X105800097Y-95399500D01*
X105733058Y-95379815D01*
X105712416Y-95363181D01*
X105376819Y-95027584D01*
X105343334Y-94966261D01*
X105340500Y-94939903D01*
X105340500Y-94069090D01*
X105360185Y-94002051D01*
X105412101Y-93956706D01*
X105417830Y-93954035D01*
X105611401Y-93818495D01*
X105778495Y-93651401D01*
X105914035Y-93457830D01*
X106013903Y-93243663D01*
X106075063Y-93015408D01*
X106095659Y-92780000D01*
X106095659Y-92779999D01*
X108464341Y-92779999D01*
X108464341Y-92780000D01*
X108484936Y-93015403D01*
X108484938Y-93015413D01*
X108546094Y-93243655D01*
X108546096Y-93243659D01*
X108546097Y-93243663D01*
X108618005Y-93397870D01*
X108645965Y-93457830D01*
X108645967Y-93457834D01*
X108740144Y-93592331D01*
X108781505Y-93651401D01*
X108948599Y-93818495D01*
X109017334Y-93866624D01*
X109142165Y-93954032D01*
X109142167Y-93954033D01*
X109142170Y-93954035D01*
X109356337Y-94053903D01*
X109584592Y-94115063D01*
X109772918Y-94131539D01*
X109819999Y-94135659D01*
X109820000Y-94135659D01*
X109820001Y-94135659D01*
X109859234Y-94132226D01*
X110055408Y-94115063D01*
X110283663Y-94053903D01*
X110497830Y-93954035D01*
X110691401Y-93818495D01*
X110858495Y-93651401D01*
X110988425Y-93465842D01*
X111043002Y-93422217D01*
X111112500Y-93415023D01*
X111174855Y-93446546D01*
X111191575Y-93465842D01*
X111321500Y-93651395D01*
X111321505Y-93651401D01*
X111488599Y-93818495D01*
X111557334Y-93866624D01*
X111682165Y-93954032D01*
X111682167Y-93954033D01*
X111682170Y-93954035D01*
X111896337Y-94053903D01*
X112124592Y-94115063D01*
X112312918Y-94131539D01*
X112359999Y-94135659D01*
X112360000Y-94135659D01*
X112360001Y-94135659D01*
X112399234Y-94132226D01*
X112595408Y-94115063D01*
X112823663Y-94053903D01*
X113037830Y-93954035D01*
X113231401Y-93818495D01*
X113398495Y-93651401D01*
X113528425Y-93465842D01*
X113583002Y-93422217D01*
X113652500Y-93415023D01*
X113714855Y-93446546D01*
X113731575Y-93465842D01*
X113861500Y-93651395D01*
X113861505Y-93651401D01*
X114028599Y-93818495D01*
X114097334Y-93866624D01*
X114222165Y-93954032D01*
X114222167Y-93954033D01*
X114222170Y-93954035D01*
X114436337Y-94053903D01*
X114664592Y-94115063D01*
X114852918Y-94131539D01*
X114899999Y-94135659D01*
X114900000Y-94135659D01*
X114900001Y-94135659D01*
X114939234Y-94132226D01*
X115135408Y-94115063D01*
X115363663Y-94053903D01*
X115577830Y-93954035D01*
X115771401Y-93818495D01*
X115938495Y-93651401D01*
X116068425Y-93465842D01*
X116123002Y-93422217D01*
X116192500Y-93415023D01*
X116254855Y-93446546D01*
X116271575Y-93465842D01*
X116401500Y-93651395D01*
X116401505Y-93651401D01*
X116568599Y-93818495D01*
X116637334Y-93866624D01*
X116762165Y-93954032D01*
X116762167Y-93954033D01*
X116762170Y-93954035D01*
X116976337Y-94053903D01*
X117204592Y-94115063D01*
X117392918Y-94131539D01*
X117439999Y-94135659D01*
X117440000Y-94135659D01*
X117440001Y-94135659D01*
X117479234Y-94132226D01*
X117675408Y-94115063D01*
X117903663Y-94053903D01*
X118117830Y-93954035D01*
X118311401Y-93818495D01*
X118478495Y-93651401D01*
X118614035Y-93457830D01*
X118713903Y-93243663D01*
X118775063Y-93015408D01*
X118795659Y-92780000D01*
X118795659Y-92779999D01*
X121164341Y-92779999D01*
X121164341Y-92780000D01*
X121184936Y-93015403D01*
X121184938Y-93015413D01*
X121246094Y-93243655D01*
X121246096Y-93243659D01*
X121246097Y-93243663D01*
X121318005Y-93397870D01*
X121345965Y-93457830D01*
X121345967Y-93457834D01*
X121440144Y-93592331D01*
X121481505Y-93651401D01*
X121648599Y-93818495D01*
X121717334Y-93866624D01*
X121842165Y-93954032D01*
X121842167Y-93954033D01*
X121842170Y-93954035D01*
X122056337Y-94053903D01*
X122284592Y-94115063D01*
X122472918Y-94131539D01*
X122519999Y-94135659D01*
X122520000Y-94135659D01*
X122520001Y-94135659D01*
X122559234Y-94132226D01*
X122755408Y-94115063D01*
X122983663Y-94053903D01*
X123197830Y-93954035D01*
X123391401Y-93818495D01*
X123558495Y-93651401D01*
X123688425Y-93465842D01*
X123743002Y-93422217D01*
X123812500Y-93415023D01*
X123874855Y-93446546D01*
X123891575Y-93465842D01*
X124021500Y-93651395D01*
X124021505Y-93651401D01*
X124188599Y-93818495D01*
X124257334Y-93866624D01*
X124382165Y-93954032D01*
X124382167Y-93954033D01*
X124382170Y-93954035D01*
X124596337Y-94053903D01*
X124824592Y-94115063D01*
X125012918Y-94131539D01*
X125059999Y-94135659D01*
X125060000Y-94135659D01*
X125060001Y-94135659D01*
X125099234Y-94132226D01*
X125295408Y-94115063D01*
X125523663Y-94053903D01*
X125737830Y-93954035D01*
X125931401Y-93818495D01*
X126098495Y-93651401D01*
X126228425Y-93465842D01*
X126283002Y-93422217D01*
X126352500Y-93415023D01*
X126414855Y-93446546D01*
X126431575Y-93465842D01*
X126561500Y-93651395D01*
X126561505Y-93651401D01*
X126728599Y-93818495D01*
X126797334Y-93866624D01*
X126922165Y-93954032D01*
X126922167Y-93954033D01*
X126922170Y-93954035D01*
X127136337Y-94053903D01*
X127364592Y-94115063D01*
X127552918Y-94131539D01*
X127599999Y-94135659D01*
X127600000Y-94135659D01*
X127600001Y-94135659D01*
X127639234Y-94132226D01*
X127835408Y-94115063D01*
X128063663Y-94053903D01*
X128277830Y-93954035D01*
X128471401Y-93818495D01*
X128638495Y-93651401D01*
X128768425Y-93465842D01*
X128823002Y-93422217D01*
X128892500Y-93415023D01*
X128954855Y-93446546D01*
X128971575Y-93465842D01*
X129101500Y-93651395D01*
X129101505Y-93651401D01*
X129268599Y-93818495D01*
X129337334Y-93866624D01*
X129462165Y-93954032D01*
X129462167Y-93954033D01*
X129462170Y-93954035D01*
X129676337Y-94053903D01*
X129904592Y-94115063D01*
X130092918Y-94131539D01*
X130139999Y-94135659D01*
X130140000Y-94135659D01*
X130140001Y-94135659D01*
X130179234Y-94132226D01*
X130375408Y-94115063D01*
X130603663Y-94053903D01*
X130817830Y-93954035D01*
X131011401Y-93818495D01*
X131178495Y-93651401D01*
X131314035Y-93457830D01*
X131413903Y-93243663D01*
X131475063Y-93015408D01*
X131495659Y-92780000D01*
X131495659Y-92779999D01*
X133864341Y-92779999D01*
X133864341Y-92780000D01*
X133884936Y-93015403D01*
X133884938Y-93015413D01*
X133946094Y-93243655D01*
X133946096Y-93243659D01*
X133946097Y-93243663D01*
X134018005Y-93397870D01*
X134045965Y-93457830D01*
X134045967Y-93457834D01*
X134140144Y-93592331D01*
X134181505Y-93651401D01*
X134348599Y-93818495D01*
X134417334Y-93866624D01*
X134542165Y-93954032D01*
X134542167Y-93954033D01*
X134542170Y-93954035D01*
X134756337Y-94053903D01*
X134984592Y-94115063D01*
X135172918Y-94131539D01*
X135219999Y-94135659D01*
X135220000Y-94135659D01*
X135220001Y-94135659D01*
X135259234Y-94132226D01*
X135455408Y-94115063D01*
X135683663Y-94053903D01*
X135897830Y-93954035D01*
X136091401Y-93818495D01*
X136258495Y-93651401D01*
X136388425Y-93465842D01*
X136443002Y-93422217D01*
X136512500Y-93415023D01*
X136574855Y-93446546D01*
X136591575Y-93465842D01*
X136721500Y-93651395D01*
X136721505Y-93651401D01*
X136888599Y-93818495D01*
X136957334Y-93866624D01*
X137082165Y-93954032D01*
X137082167Y-93954033D01*
X137082170Y-93954035D01*
X137296337Y-94053903D01*
X137524592Y-94115063D01*
X137712918Y-94131539D01*
X137759999Y-94135659D01*
X137760000Y-94135659D01*
X137760001Y-94135659D01*
X137799234Y-94132226D01*
X137995408Y-94115063D01*
X138223663Y-94053903D01*
X138437830Y-93954035D01*
X138631401Y-93818495D01*
X138790842Y-93659054D01*
X141399498Y-93659054D01*
X141440423Y-93811786D01*
X141451238Y-93830516D01*
X141451239Y-93830521D01*
X141451240Y-93830521D01*
X141519475Y-93948709D01*
X141519481Y-93948717D01*
X141638349Y-94067585D01*
X141638355Y-94067590D01*
X142274181Y-94703416D01*
X142307666Y-94764739D01*
X142310500Y-94791097D01*
X142310500Y-95656870D01*
X142310501Y-95656876D01*
X142316908Y-95716483D01*
X142367202Y-95851328D01*
X142367206Y-95851335D01*
X142453452Y-95966544D01*
X142453455Y-95966547D01*
X142568664Y-96052793D01*
X142568671Y-96052797D01*
X142703517Y-96103091D01*
X142703516Y-96103091D01*
X142710444Y-96103835D01*
X142763127Y-96109500D01*
X144076872Y-96109499D01*
X144136483Y-96103091D01*
X144271331Y-96052796D01*
X144386546Y-95966546D01*
X144472796Y-95851331D01*
X144523091Y-95716483D01*
X144523653Y-95711246D01*
X144550389Y-95646697D01*
X144607780Y-95606847D01*
X144646943Y-95600500D01*
X144961411Y-95600500D01*
X145028450Y-95620185D01*
X145060365Y-95649773D01*
X145066235Y-95657546D01*
X145135405Y-95749142D01*
X145136558Y-95750668D01*
X145288512Y-95889192D01*
X145288514Y-95889194D01*
X145463331Y-95997436D01*
X145463332Y-95997436D01*
X145463335Y-95997438D01*
X145655070Y-96071717D01*
X145857190Y-96109500D01*
X145857192Y-96109500D01*
X146062808Y-96109500D01*
X146062810Y-96109500D01*
X146264930Y-96071717D01*
X146456665Y-95997438D01*
X146631487Y-95889193D01*
X146783443Y-95750667D01*
X146907357Y-95586579D01*
X146999010Y-95402515D01*
X146999010Y-95402512D01*
X146999012Y-95402510D01*
X147055280Y-95204745D01*
X147055281Y-95204742D01*
X147070331Y-95042331D01*
X147074253Y-95000000D01*
X147055281Y-94795257D01*
X147005051Y-94618716D01*
X146999012Y-94597489D01*
X146999009Y-94597483D01*
X146925423Y-94449703D01*
X146907357Y-94413421D01*
X146783443Y-94249333D01*
X146693666Y-94167491D01*
X146631487Y-94110807D01*
X146631485Y-94110805D01*
X146456668Y-94002563D01*
X146456662Y-94002561D01*
X146455346Y-94002051D01*
X146264930Y-93928283D01*
X146062810Y-93890500D01*
X145857190Y-93890500D01*
X145655070Y-93928283D01*
X145533818Y-93975256D01*
X145463337Y-94002561D01*
X145463331Y-94002563D01*
X145288514Y-94110805D01*
X145288512Y-94110807D01*
X145136558Y-94249331D01*
X145060365Y-94350227D01*
X145004256Y-94391863D01*
X144961411Y-94399500D01*
X144646944Y-94399500D01*
X144579905Y-94379815D01*
X144534150Y-94327011D01*
X144523654Y-94288753D01*
X144523091Y-94283516D01*
X144472797Y-94148671D01*
X144472793Y-94148664D01*
X144386547Y-94033455D01*
X144386544Y-94033452D01*
X144271335Y-93947206D01*
X144271328Y-93947202D01*
X144136482Y-93896908D01*
X144136483Y-93896908D01*
X144076883Y-93890501D01*
X144076881Y-93890500D01*
X144076873Y-93890500D01*
X144076865Y-93890500D01*
X143211097Y-93890500D01*
X143144058Y-93870815D01*
X143123416Y-93854181D01*
X142636819Y-93367584D01*
X142603334Y-93306261D01*
X142600500Y-93279903D01*
X142600500Y-89205096D01*
X142620185Y-89138057D01*
X142636815Y-89117419D01*
X142737416Y-89016817D01*
X142798739Y-88983333D01*
X142825097Y-88980499D01*
X143247871Y-88980499D01*
X143247872Y-88980499D01*
X143307483Y-88974091D01*
X143442331Y-88923796D01*
X143557546Y-88837546D01*
X143643796Y-88722331D01*
X143694091Y-88587483D01*
X143700500Y-88527873D01*
X143700499Y-88527861D01*
X143700629Y-88526662D01*
X143727367Y-88462111D01*
X143784760Y-88422263D01*
X143854585Y-88419769D01*
X143877235Y-88429133D01*
X143877446Y-88428647D01*
X143884597Y-88431741D01*
X143884602Y-88431744D01*
X143926224Y-88443836D01*
X144042426Y-88477597D01*
X144042429Y-88477597D01*
X144042431Y-88477598D01*
X144079306Y-88480500D01*
X144079314Y-88480500D01*
X145130686Y-88480500D01*
X145130694Y-88480500D01*
X145167569Y-88477598D01*
X145167571Y-88477597D01*
X145167573Y-88477597D01*
X145220875Y-88462111D01*
X145325398Y-88431744D01*
X145466865Y-88348081D01*
X145583081Y-88231865D01*
X145666744Y-88090398D01*
X145712598Y-87932569D01*
X145715500Y-87895694D01*
X145715500Y-87464306D01*
X145712598Y-87427431D01*
X145705239Y-87402102D01*
X145670501Y-87282533D01*
X145666744Y-87269602D01*
X145583081Y-87128135D01*
X145583079Y-87128133D01*
X145583076Y-87128129D01*
X145466870Y-87011923D01*
X145466862Y-87011917D01*
X145325396Y-86928255D01*
X145325393Y-86928254D01*
X145167573Y-86882402D01*
X145167567Y-86882401D01*
X145130701Y-86879500D01*
X145130694Y-86879500D01*
X144079306Y-86879500D01*
X144079298Y-86879500D01*
X144042432Y-86882401D01*
X144042426Y-86882402D01*
X143884606Y-86928254D01*
X143884603Y-86928255D01*
X143743137Y-87011917D01*
X143743129Y-87011923D01*
X143711874Y-87043180D01*
X143650552Y-87076666D01*
X143624192Y-87079500D01*
X143145941Y-87079500D01*
X143110148Y-87089090D01*
X143110149Y-87089091D01*
X142993214Y-87120423D01*
X142993209Y-87120426D01*
X142856290Y-87199475D01*
X142856286Y-87199478D01*
X142762582Y-87293182D01*
X142701258Y-87326666D01*
X142674901Y-87329500D01*
X142252129Y-87329500D01*
X142252123Y-87329501D01*
X142192516Y-87335908D01*
X142057671Y-87386202D01*
X142057664Y-87386206D01*
X141942455Y-87472452D01*
X141942452Y-87472455D01*
X141856206Y-87587664D01*
X141856202Y-87587671D01*
X141805908Y-87722517D01*
X141799501Y-87782116D01*
X141799500Y-87782135D01*
X141799500Y-88204902D01*
X141779815Y-88271941D01*
X141763181Y-88292583D01*
X141519481Y-88536282D01*
X141519479Y-88536285D01*
X141489922Y-88587481D01*
X141489921Y-88587483D01*
X141440423Y-88673214D01*
X141440423Y-88673215D01*
X141399499Y-88825943D01*
X141399499Y-88825945D01*
X141399499Y-88994046D01*
X141399500Y-88994059D01*
X141399500Y-93493330D01*
X141399499Y-93493348D01*
X141399499Y-93659054D01*
X141399498Y-93659054D01*
X138790842Y-93659054D01*
X138798495Y-93651401D01*
X138934035Y-93457830D01*
X139033903Y-93243663D01*
X139095063Y-93015408D01*
X139115659Y-92780000D01*
X139095063Y-92544592D01*
X139033903Y-92316337D01*
X138934035Y-92102171D01*
X138929364Y-92095499D01*
X138798494Y-91908597D01*
X138631402Y-91741506D01*
X138631395Y-91741501D01*
X138437834Y-91605967D01*
X138437830Y-91605965D01*
X138373096Y-91575779D01*
X138223663Y-91506097D01*
X138223659Y-91506096D01*
X138223655Y-91506094D01*
X137995413Y-91444938D01*
X137995403Y-91444936D01*
X137760001Y-91424341D01*
X137759999Y-91424341D01*
X137524596Y-91444936D01*
X137524586Y-91444938D01*
X137296344Y-91506094D01*
X137296335Y-91506098D01*
X137082171Y-91605964D01*
X137082169Y-91605965D01*
X136888597Y-91741505D01*
X136721505Y-91908597D01*
X136591575Y-92094158D01*
X136536998Y-92137783D01*
X136467500Y-92144977D01*
X136405145Y-92113454D01*
X136388425Y-92094158D01*
X136258494Y-91908597D01*
X136091402Y-91741506D01*
X136091395Y-91741501D01*
X135897834Y-91605967D01*
X135897830Y-91605965D01*
X135833096Y-91575779D01*
X135683663Y-91506097D01*
X135683659Y-91506096D01*
X135683655Y-91506094D01*
X135455413Y-91444938D01*
X135455403Y-91444936D01*
X135220001Y-91424341D01*
X135219999Y-91424341D01*
X134984596Y-91444936D01*
X134984586Y-91444938D01*
X134756344Y-91506094D01*
X134756335Y-91506098D01*
X134542171Y-91605964D01*
X134542169Y-91605965D01*
X134348597Y-91741505D01*
X134181505Y-91908597D01*
X134045965Y-92102169D01*
X134045964Y-92102171D01*
X133946098Y-92316335D01*
X133946094Y-92316344D01*
X133884938Y-92544586D01*
X133884936Y-92544596D01*
X133864341Y-92779999D01*
X131495659Y-92779999D01*
X131475063Y-92544592D01*
X131413903Y-92316337D01*
X131314035Y-92102171D01*
X131309364Y-92095499D01*
X131178494Y-91908597D01*
X131011402Y-91741506D01*
X131011395Y-91741501D01*
X130817834Y-91605967D01*
X130817830Y-91605965D01*
X130753096Y-91575779D01*
X130603663Y-91506097D01*
X130603659Y-91506096D01*
X130603655Y-91506094D01*
X130375413Y-91444938D01*
X130375403Y-91444936D01*
X130140001Y-91424341D01*
X130139999Y-91424341D01*
X129904596Y-91444936D01*
X129904586Y-91444938D01*
X129676344Y-91506094D01*
X129676335Y-91506098D01*
X129462171Y-91605964D01*
X129462169Y-91605965D01*
X129268597Y-91741505D01*
X129101505Y-91908597D01*
X128971575Y-92094158D01*
X128916998Y-92137783D01*
X128847500Y-92144977D01*
X128785145Y-92113454D01*
X128768425Y-92094158D01*
X128638494Y-91908597D01*
X128471402Y-91741506D01*
X128471395Y-91741501D01*
X128277834Y-91605967D01*
X128277830Y-91605965D01*
X128213096Y-91575779D01*
X128063663Y-91506097D01*
X128063659Y-91506096D01*
X128063655Y-91506094D01*
X127835413Y-91444938D01*
X127835403Y-91444936D01*
X127600001Y-91424341D01*
X127599999Y-91424341D01*
X127364596Y-91444936D01*
X127364586Y-91444938D01*
X127136344Y-91506094D01*
X127136335Y-91506098D01*
X126922171Y-91605964D01*
X126922169Y-91605965D01*
X126728597Y-91741505D01*
X126561505Y-91908597D01*
X126431575Y-92094158D01*
X126376998Y-92137783D01*
X126307500Y-92144977D01*
X126245145Y-92113454D01*
X126228425Y-92094158D01*
X126098494Y-91908597D01*
X125931402Y-91741506D01*
X125931395Y-91741501D01*
X125737834Y-91605967D01*
X125737830Y-91605965D01*
X125673096Y-91575779D01*
X125523663Y-91506097D01*
X125523659Y-91506096D01*
X125523655Y-91506094D01*
X125295413Y-91444938D01*
X125295403Y-91444936D01*
X125060001Y-91424341D01*
X125059999Y-91424341D01*
X124824596Y-91444936D01*
X124824586Y-91444938D01*
X124596344Y-91506094D01*
X124596335Y-91506098D01*
X124382171Y-91605964D01*
X124382169Y-91605965D01*
X124188597Y-91741505D01*
X124021505Y-91908597D01*
X123891575Y-92094158D01*
X123836998Y-92137783D01*
X123767500Y-92144977D01*
X123705145Y-92113454D01*
X123688425Y-92094158D01*
X123558494Y-91908597D01*
X123391402Y-91741506D01*
X123391395Y-91741501D01*
X123197834Y-91605967D01*
X123197830Y-91605965D01*
X123133096Y-91575779D01*
X122983663Y-91506097D01*
X122983659Y-91506096D01*
X122983655Y-91506094D01*
X122755413Y-91444938D01*
X122755403Y-91444936D01*
X122520001Y-91424341D01*
X122519999Y-91424341D01*
X122284596Y-91444936D01*
X122284586Y-91444938D01*
X122056344Y-91506094D01*
X122056335Y-91506098D01*
X121842171Y-91605964D01*
X121842169Y-91605965D01*
X121648597Y-91741505D01*
X121481505Y-91908597D01*
X121345965Y-92102169D01*
X121345964Y-92102171D01*
X121246098Y-92316335D01*
X121246094Y-92316344D01*
X121184938Y-92544586D01*
X121184936Y-92544596D01*
X121164341Y-92779999D01*
X118795659Y-92779999D01*
X118775063Y-92544592D01*
X118713903Y-92316337D01*
X118614035Y-92102171D01*
X118609364Y-92095499D01*
X118478494Y-91908597D01*
X118311402Y-91741506D01*
X118311395Y-91741501D01*
X118117834Y-91605967D01*
X118117830Y-91605965D01*
X118053096Y-91575779D01*
X117903663Y-91506097D01*
X117903659Y-91506096D01*
X117903655Y-91506094D01*
X117675413Y-91444938D01*
X117675403Y-91444936D01*
X117440001Y-91424341D01*
X117439999Y-91424341D01*
X117204596Y-91444936D01*
X117204586Y-91444938D01*
X116976344Y-91506094D01*
X116976335Y-91506098D01*
X116762171Y-91605964D01*
X116762169Y-91605965D01*
X116568597Y-91741505D01*
X116401505Y-91908597D01*
X116271575Y-92094158D01*
X116216998Y-92137783D01*
X116147500Y-92144977D01*
X116085145Y-92113454D01*
X116068425Y-92094158D01*
X115938494Y-91908597D01*
X115771402Y-91741506D01*
X115771395Y-91741501D01*
X115577834Y-91605967D01*
X115577830Y-91605965D01*
X115513096Y-91575779D01*
X115363663Y-91506097D01*
X115363659Y-91506096D01*
X115363655Y-91506094D01*
X115135413Y-91444938D01*
X115135403Y-91444936D01*
X114900001Y-91424341D01*
X114899999Y-91424341D01*
X114664596Y-91444936D01*
X114664586Y-91444938D01*
X114436344Y-91506094D01*
X114436335Y-91506098D01*
X114222171Y-91605964D01*
X114222169Y-91605965D01*
X114028597Y-91741505D01*
X113861505Y-91908597D01*
X113731575Y-92094158D01*
X113676998Y-92137783D01*
X113607500Y-92144977D01*
X113545145Y-92113454D01*
X113528425Y-92094158D01*
X113398494Y-91908597D01*
X113231402Y-91741506D01*
X113231395Y-91741501D01*
X113037834Y-91605967D01*
X113037830Y-91605965D01*
X112973096Y-91575779D01*
X112823663Y-91506097D01*
X112823659Y-91506096D01*
X112823655Y-91506094D01*
X112595413Y-91444938D01*
X112595403Y-91444936D01*
X112360001Y-91424341D01*
X112359999Y-91424341D01*
X112124596Y-91444936D01*
X112124586Y-91444938D01*
X111896344Y-91506094D01*
X111896335Y-91506098D01*
X111682171Y-91605964D01*
X111682169Y-91605965D01*
X111488597Y-91741505D01*
X111321505Y-91908597D01*
X111191575Y-92094158D01*
X111136998Y-92137783D01*
X111067500Y-92144977D01*
X111005145Y-92113454D01*
X110988425Y-92094158D01*
X110858494Y-91908597D01*
X110691402Y-91741506D01*
X110691395Y-91741501D01*
X110497834Y-91605967D01*
X110497830Y-91605965D01*
X110433096Y-91575779D01*
X110283663Y-91506097D01*
X110283659Y-91506096D01*
X110283655Y-91506094D01*
X110055413Y-91444938D01*
X110055403Y-91444936D01*
X109820001Y-91424341D01*
X109819999Y-91424341D01*
X109584596Y-91444936D01*
X109584586Y-91444938D01*
X109356344Y-91506094D01*
X109356335Y-91506098D01*
X109142171Y-91605964D01*
X109142169Y-91605965D01*
X108948597Y-91741505D01*
X108781505Y-91908597D01*
X108645965Y-92102169D01*
X108645964Y-92102171D01*
X108546098Y-92316335D01*
X108546094Y-92316344D01*
X108484938Y-92544586D01*
X108484936Y-92544596D01*
X108464341Y-92779999D01*
X106095659Y-92779999D01*
X106075063Y-92544592D01*
X106013903Y-92316337D01*
X105914035Y-92102171D01*
X105909364Y-92095499D01*
X105778494Y-91908597D01*
X105611402Y-91741506D01*
X105611395Y-91741501D01*
X105417834Y-91605967D01*
X105417830Y-91605965D01*
X105353096Y-91575779D01*
X105203663Y-91506097D01*
X105203659Y-91506096D01*
X105203655Y-91506094D01*
X104975413Y-91444938D01*
X104975403Y-91444936D01*
X104740001Y-91424341D01*
X104739999Y-91424341D01*
X104504596Y-91444936D01*
X104504586Y-91444938D01*
X104276344Y-91506094D01*
X104276335Y-91506098D01*
X104062171Y-91605964D01*
X104062169Y-91605965D01*
X103868597Y-91741505D01*
X103701505Y-91908597D01*
X103571575Y-92094158D01*
X103516998Y-92137783D01*
X103447500Y-92144977D01*
X103385145Y-92113454D01*
X103368425Y-92094158D01*
X103238494Y-91908597D01*
X103071402Y-91741506D01*
X103071395Y-91741501D01*
X102877834Y-91605967D01*
X102877830Y-91605965D01*
X102813096Y-91575779D01*
X102663663Y-91506097D01*
X102663659Y-91506096D01*
X102663655Y-91506094D01*
X102435413Y-91444938D01*
X102435403Y-91444936D01*
X102200001Y-91424341D01*
X102199999Y-91424341D01*
X101964596Y-91444936D01*
X101964586Y-91444938D01*
X101736344Y-91506094D01*
X101736335Y-91506097D01*
X101586905Y-91575779D01*
X101517828Y-91586271D01*
X101454044Y-91557751D01*
X101415804Y-91499275D01*
X101410500Y-91463397D01*
X101410500Y-91034500D01*
X101430185Y-90967461D01*
X101482989Y-90921706D01*
X101534500Y-90910500D01*
X103603331Y-90910500D01*
X103603347Y-90910501D01*
X103610943Y-90910501D01*
X103769054Y-90910501D01*
X103769057Y-90910501D01*
X103921785Y-90869577D01*
X103991115Y-90829549D01*
X104058716Y-90790520D01*
X104170520Y-90678716D01*
X104170520Y-90678714D01*
X104180724Y-90668511D01*
X104180727Y-90668506D01*
X108662322Y-86186912D01*
X108723641Y-86153430D01*
X108793333Y-86158414D01*
X108837680Y-86186915D01*
X109515139Y-86864374D01*
X109515149Y-86864385D01*
X109519479Y-86868715D01*
X109519480Y-86868716D01*
X109631284Y-86980520D01*
X109698767Y-87019481D01*
X109768215Y-87059577D01*
X109920943Y-87100501D01*
X109920946Y-87100501D01*
X110086653Y-87100501D01*
X110086669Y-87100500D01*
X111579055Y-87100500D01*
X111579057Y-87100500D01*
X111731784Y-87059577D01*
X111868716Y-86980520D01*
X111980520Y-86868716D01*
X112059577Y-86731784D01*
X112100500Y-86579057D01*
X112100500Y-86574499D01*
X112120185Y-86507460D01*
X112172989Y-86461705D01*
X112224500Y-86450499D01*
X112597871Y-86450499D01*
X112597872Y-86450499D01*
X112657483Y-86444091D01*
X112695266Y-86429999D01*
X136174341Y-86429999D01*
X136174341Y-86430000D01*
X136194936Y-86665403D01*
X136194938Y-86665413D01*
X136256094Y-86893655D01*
X136256096Y-86893659D01*
X136256097Y-86893663D01*
X136352547Y-87100500D01*
X136355965Y-87107830D01*
X136355967Y-87107834D01*
X136420139Y-87199480D01*
X136491505Y-87301401D01*
X136658599Y-87468495D01*
X136755384Y-87536265D01*
X136852165Y-87604032D01*
X136852167Y-87604033D01*
X136852170Y-87604035D01*
X137066337Y-87703903D01*
X137294592Y-87765063D01*
X137482918Y-87781539D01*
X137529999Y-87785659D01*
X137530000Y-87785659D01*
X137530001Y-87785659D01*
X137570496Y-87782116D01*
X137765408Y-87765063D01*
X137993663Y-87703903D01*
X138207830Y-87604035D01*
X138401401Y-87468495D01*
X138568495Y-87301401D01*
X138704035Y-87107830D01*
X138803903Y-86893663D01*
X138865063Y-86665408D01*
X138885659Y-86430000D01*
X138884572Y-86417581D01*
X138875598Y-86315002D01*
X138865063Y-86194592D01*
X138803903Y-85966337D01*
X138704035Y-85752171D01*
X138703809Y-85751847D01*
X138609483Y-85617135D01*
X145694500Y-85617135D01*
X145694500Y-86642870D01*
X145694501Y-86642876D01*
X145700908Y-86702483D01*
X145751202Y-86837328D01*
X145751206Y-86837335D01*
X145837452Y-86952544D01*
X145837455Y-86952547D01*
X145952664Y-87038793D01*
X145960454Y-87043047D01*
X145959283Y-87045190D01*
X146004761Y-87079230D01*
X146029182Y-87144693D01*
X146029499Y-87153547D01*
X146029499Y-87264886D01*
X146024575Y-87299481D01*
X145987402Y-87427426D01*
X145987401Y-87427432D01*
X145984500Y-87464298D01*
X145984500Y-87895701D01*
X145987401Y-87932567D01*
X145987402Y-87932573D01*
X146033254Y-88090393D01*
X146033254Y-88090394D01*
X146033255Y-88090396D01*
X146033256Y-88090398D01*
X146034133Y-88091881D01*
X146034466Y-88093195D01*
X146036353Y-88097554D01*
X146035649Y-88097858D01*
X146051315Y-88159604D01*
X146035861Y-88212233D01*
X146036353Y-88212446D01*
X146034630Y-88216426D01*
X146034133Y-88218118D01*
X146033711Y-88218833D01*
X146033254Y-88219605D01*
X146033254Y-88219606D01*
X145987402Y-88377426D01*
X145987401Y-88377432D01*
X145984500Y-88414298D01*
X145984500Y-88845701D01*
X145987401Y-88882567D01*
X145987402Y-88882573D01*
X146033254Y-89040393D01*
X146033254Y-89040394D01*
X146033255Y-89040396D01*
X146033256Y-89040398D01*
X146034133Y-89041881D01*
X146034466Y-89043195D01*
X146036353Y-89047554D01*
X146035649Y-89047858D01*
X146051315Y-89109604D01*
X146035861Y-89162233D01*
X146036353Y-89162446D01*
X146034630Y-89166426D01*
X146034133Y-89168118D01*
X146033506Y-89169177D01*
X146033254Y-89169605D01*
X146033254Y-89169606D01*
X145987402Y-89327426D01*
X145987401Y-89327432D01*
X145984500Y-89364298D01*
X145984500Y-89795701D01*
X145987401Y-89832567D01*
X145987402Y-89832573D01*
X146033254Y-89990393D01*
X146033255Y-89990396D01*
X146116917Y-90131862D01*
X146116923Y-90131870D01*
X146233129Y-90248076D01*
X146233133Y-90248079D01*
X146233135Y-90248081D01*
X146374602Y-90331744D01*
X146416224Y-90343836D01*
X146532426Y-90377597D01*
X146532429Y-90377597D01*
X146532431Y-90377598D01*
X146569306Y-90380500D01*
X147208331Y-90380500D01*
X147208347Y-90380501D01*
X147215943Y-90380501D01*
X147381654Y-90380501D01*
X147381670Y-90380500D01*
X147620686Y-90380500D01*
X147620694Y-90380500D01*
X147657569Y-90377598D01*
X147657571Y-90377597D01*
X147657573Y-90377597D01*
X147699191Y-90365505D01*
X147815398Y-90331744D01*
X147956865Y-90248081D01*
X147988126Y-90216820D01*
X148049448Y-90183334D01*
X148075808Y-90180500D01*
X149184769Y-90180500D01*
X149251808Y-90200185D01*
X149297563Y-90252989D01*
X149307507Y-90322147D01*
X149284036Y-90378811D01*
X149251204Y-90422668D01*
X149251202Y-90422671D01*
X149200908Y-90557517D01*
X149194501Y-90617116D01*
X149194500Y-90617135D01*
X149194500Y-91164901D01*
X149174815Y-91231940D01*
X149158189Y-91252574D01*
X149152591Y-91258173D01*
X149091271Y-91291664D01*
X149064902Y-91294500D01*
X147582412Y-91294500D01*
X147515373Y-91274815D01*
X147505097Y-91267445D01*
X147502263Y-91265185D01*
X147502262Y-91265184D01*
X147445496Y-91229515D01*
X147349523Y-91169211D01*
X147179254Y-91109631D01*
X147179249Y-91109630D01*
X147000004Y-91089435D01*
X146999996Y-91089435D01*
X146820750Y-91109630D01*
X146820745Y-91109631D01*
X146650476Y-91169211D01*
X146497737Y-91265184D01*
X146370184Y-91392737D01*
X146274211Y-91545476D01*
X146214631Y-91715745D01*
X146214630Y-91715750D01*
X146194435Y-91894996D01*
X146194435Y-91895003D01*
X146214630Y-92074249D01*
X146214631Y-92074254D01*
X146274211Y-92244523D01*
X146356524Y-92375522D01*
X146370184Y-92397262D01*
X146497738Y-92524816D01*
X146529218Y-92544596D01*
X146648222Y-92619372D01*
X146650478Y-92620789D01*
X146740037Y-92652127D01*
X146820745Y-92680368D01*
X146820750Y-92680369D01*
X146999996Y-92700565D01*
X147000000Y-92700565D01*
X147000004Y-92700565D01*
X147179249Y-92680369D01*
X147179252Y-92680368D01*
X147179255Y-92680368D01*
X147349522Y-92620789D01*
X147502262Y-92524816D01*
X147502267Y-92524810D01*
X147505097Y-92522555D01*
X147507275Y-92521665D01*
X147508158Y-92521111D01*
X147508255Y-92521265D01*
X147569783Y-92496145D01*
X147582412Y-92495500D01*
X149278331Y-92495500D01*
X149278347Y-92495501D01*
X149285943Y-92495501D01*
X149444054Y-92495501D01*
X149444057Y-92495501D01*
X149596785Y-92454577D01*
X149648881Y-92424499D01*
X149733716Y-92375520D01*
X149845520Y-92263716D01*
X149845520Y-92263714D01*
X149855721Y-92253514D01*
X149855724Y-92253509D01*
X149977418Y-92131815D01*
X150038739Y-92098333D01*
X150065097Y-92095499D01*
X150612871Y-92095499D01*
X150612872Y-92095499D01*
X150672483Y-92089091D01*
X150736101Y-92065362D01*
X150805792Y-92060378D01*
X150867116Y-92093862D01*
X150877810Y-92106057D01*
X150919548Y-92160450D01*
X150923425Y-92163425D01*
X150964626Y-92219854D01*
X150968779Y-92289600D01*
X150947203Y-92336110D01*
X150856204Y-92457669D01*
X150856202Y-92457671D01*
X150810516Y-92580164D01*
X150805909Y-92592517D01*
X150799500Y-92652127D01*
X150799500Y-92652134D01*
X150799500Y-92652135D01*
X150799500Y-93397870D01*
X150799501Y-93397876D01*
X150805908Y-93457483D01*
X150856202Y-93592328D01*
X150856204Y-93592331D01*
X150918605Y-93675688D01*
X150943023Y-93741151D01*
X150928172Y-93809425D01*
X150918705Y-93824177D01*
X150918331Y-93824678D01*
X150862454Y-93866624D01*
X150818965Y-93874500D01*
X148945941Y-93874500D01*
X148796956Y-93914419D01*
X148742080Y-93916533D01*
X148624815Y-93894613D01*
X148602810Y-93890500D01*
X148397190Y-93890500D01*
X148195070Y-93928283D01*
X148073818Y-93975256D01*
X148003337Y-94002561D01*
X148003331Y-94002563D01*
X147828514Y-94110805D01*
X147828512Y-94110807D01*
X147676558Y-94249331D01*
X147552643Y-94413420D01*
X147460990Y-94597483D01*
X147460987Y-94597489D01*
X147404719Y-94795254D01*
X147404718Y-94795257D01*
X147385747Y-94999999D01*
X147385747Y-95000000D01*
X147404718Y-95204742D01*
X147404719Y-95204745D01*
X147460987Y-95402510D01*
X147460990Y-95402516D01*
X147545686Y-95572607D01*
X147552643Y-95586579D01*
X147675405Y-95749142D01*
X147676558Y-95750668D01*
X147828512Y-95889192D01*
X147828514Y-95889194D01*
X148003331Y-95997436D01*
X148003332Y-95997436D01*
X148003335Y-95997438D01*
X148195070Y-96071717D01*
X148397190Y-96109500D01*
X148397192Y-96109500D01*
X148602808Y-96109500D01*
X148602810Y-96109500D01*
X148804930Y-96071717D01*
X148996665Y-95997438D01*
X149171487Y-95889193D01*
X149323443Y-95750667D01*
X149447357Y-95586579D01*
X149539010Y-95402515D01*
X149539010Y-95402512D01*
X149539012Y-95402510D01*
X149595280Y-95204745D01*
X149595281Y-95204742D01*
X149596827Y-95188059D01*
X149622613Y-95123122D01*
X149679414Y-95082434D01*
X149720298Y-95075500D01*
X150818965Y-95075500D01*
X150886004Y-95095185D01*
X150918232Y-95125190D01*
X150942449Y-95157541D01*
X150942452Y-95157544D01*
X150942454Y-95157546D01*
X150946992Y-95160943D01*
X151057664Y-95243793D01*
X151057671Y-95243797D01*
X151192517Y-95294091D01*
X151192516Y-95294091D01*
X151199444Y-95294835D01*
X151252127Y-95300500D01*
X152247872Y-95300499D01*
X152307483Y-95294091D01*
X152442331Y-95243796D01*
X152557546Y-95157546D01*
X152643796Y-95042331D01*
X152694091Y-94907483D01*
X152700500Y-94847873D01*
X152700499Y-94516740D01*
X152720183Y-94449703D01*
X152772987Y-94403948D01*
X152842146Y-94394004D01*
X152867832Y-94400560D01*
X152917517Y-94419091D01*
X152917516Y-94419091D01*
X152924444Y-94419835D01*
X152977127Y-94425500D01*
X154522872Y-94425499D01*
X154582483Y-94419091D01*
X154717331Y-94368796D01*
X154718373Y-94368016D01*
X154719592Y-94367561D01*
X154725114Y-94364546D01*
X154725547Y-94365339D01*
X154783837Y-94343598D01*
X154852110Y-94358449D01*
X154880366Y-94379601D01*
X155115139Y-94614374D01*
X155115149Y-94614385D01*
X155119479Y-94618715D01*
X155119480Y-94618716D01*
X155231284Y-94730520D01*
X155237499Y-94734108D01*
X155285715Y-94784675D01*
X155299500Y-94841496D01*
X155299500Y-95347870D01*
X155299501Y-95347876D01*
X155305908Y-95407483D01*
X155356202Y-95542328D01*
X155356203Y-95542329D01*
X155356204Y-95542331D01*
X155436635Y-95649773D01*
X155442454Y-95657546D01*
X155449808Y-95663051D01*
X155491681Y-95718983D01*
X155499500Y-95762320D01*
X155499500Y-96014235D01*
X155479815Y-96081274D01*
X155427011Y-96127029D01*
X155418834Y-96130417D01*
X155282669Y-96181203D01*
X155282664Y-96181206D01*
X155167455Y-96267452D01*
X155167452Y-96267455D01*
X155081206Y-96382664D01*
X155081202Y-96382671D01*
X155030908Y-96517517D01*
X155024945Y-96572989D01*
X155024501Y-96577123D01*
X155024500Y-96577135D01*
X155024500Y-97822870D01*
X155024501Y-97822876D01*
X155030908Y-97882483D01*
X155081202Y-98017328D01*
X155081206Y-98017335D01*
X155167452Y-98132544D01*
X155167455Y-98132547D01*
X155282664Y-98218793D01*
X155282671Y-98218797D01*
X155417517Y-98269091D01*
X155417516Y-98269091D01*
X155424444Y-98269835D01*
X155477127Y-98275500D01*
X157022872Y-98275499D01*
X157082483Y-98269091D01*
X157217331Y-98218796D01*
X157332546Y-98132546D01*
X157418796Y-98017331D01*
X157469091Y-97882483D01*
X157475500Y-97822873D01*
X157475499Y-96577128D01*
X157469091Y-96517517D01*
X157437981Y-96434108D01*
X157418797Y-96382671D01*
X157418793Y-96382664D01*
X157332547Y-96267455D01*
X157332544Y-96267452D01*
X157217335Y-96181206D01*
X157217328Y-96181202D01*
X157082482Y-96130908D01*
X157082483Y-96130908D01*
X157022883Y-96124501D01*
X157022881Y-96124500D01*
X157022873Y-96124500D01*
X157022865Y-96124500D01*
X156824500Y-96124500D01*
X156757461Y-96104815D01*
X156711706Y-96052011D01*
X156700500Y-96000500D01*
X156700500Y-95916976D01*
X156720185Y-95849937D01*
X156772989Y-95804182D01*
X156800135Y-95796736D01*
X156799932Y-95795876D01*
X156807479Y-95794092D01*
X156807481Y-95794091D01*
X156807483Y-95794091D01*
X156942331Y-95743796D01*
X157057546Y-95657546D01*
X157143796Y-95542331D01*
X157194091Y-95407483D01*
X157200500Y-95347873D01*
X157200499Y-94602128D01*
X157194091Y-94542517D01*
X157145941Y-94413421D01*
X157143797Y-94407671D01*
X157143795Y-94407668D01*
X157142171Y-94405499D01*
X157125023Y-94382591D01*
X157081394Y-94324310D01*
X157056977Y-94258845D01*
X157071829Y-94190572D01*
X157081432Y-94175637D01*
X157081811Y-94175131D01*
X157137769Y-94133293D01*
X157181035Y-94125500D01*
X157311216Y-94125500D01*
X157378255Y-94145185D01*
X157402628Y-94167491D01*
X157403005Y-94167115D01*
X157517363Y-94281473D01*
X157517372Y-94281480D01*
X157529670Y-94288753D01*
X157649865Y-94359836D01*
X157678021Y-94368016D01*
X157797680Y-94402781D01*
X157797683Y-94402781D01*
X157797685Y-94402782D01*
X157832223Y-94405500D01*
X158667776Y-94405499D01*
X158702315Y-94402782D01*
X158850135Y-94359836D01*
X158982631Y-94281478D01*
X159091478Y-94172631D01*
X159169836Y-94040135D01*
X159205746Y-93916533D01*
X159212781Y-93892319D01*
X159212782Y-93892313D01*
X159214474Y-93870815D01*
X159215500Y-93857777D01*
X159215499Y-93082224D01*
X159212782Y-93047685D01*
X159169836Y-92899865D01*
X159098948Y-92780000D01*
X159091480Y-92767372D01*
X159091473Y-92767363D01*
X158982636Y-92658526D01*
X158982627Y-92658519D01*
X158850133Y-92580163D01*
X158850130Y-92580162D01*
X158702319Y-92537218D01*
X158702313Y-92537217D01*
X158667777Y-92534500D01*
X157832235Y-92534500D01*
X157832210Y-92534501D01*
X157797684Y-92537218D01*
X157649869Y-92580162D01*
X157649868Y-92580162D01*
X157612619Y-92602191D01*
X157544894Y-92619372D01*
X157478632Y-92597212D01*
X157434870Y-92542745D01*
X157425499Y-92495462D01*
X157425499Y-90977128D01*
X157419091Y-90917517D01*
X157416474Y-90910501D01*
X157368797Y-90782671D01*
X157368793Y-90782664D01*
X157282547Y-90667455D01*
X157282544Y-90667452D01*
X157167335Y-90581206D01*
X157167328Y-90581202D01*
X157032482Y-90530908D01*
X157032483Y-90530908D01*
X156972883Y-90524501D01*
X156972881Y-90524500D01*
X156972873Y-90524500D01*
X156972864Y-90524500D01*
X156969548Y-90524322D01*
X156969615Y-90523065D01*
X156907461Y-90504815D01*
X156861706Y-90452011D01*
X156850500Y-90400500D01*
X156850500Y-89624500D01*
X156870185Y-89557461D01*
X156922989Y-89511706D01*
X156974500Y-89500500D01*
X157650585Y-89500500D01*
X157717624Y-89520185D01*
X157763379Y-89572989D01*
X157769245Y-89588504D01*
X157821186Y-89759728D01*
X157914086Y-89933532D01*
X157914090Y-89933539D01*
X158039116Y-90085883D01*
X158191460Y-90210909D01*
X158191467Y-90210913D01*
X158365266Y-90303811D01*
X158365269Y-90303811D01*
X158365273Y-90303814D01*
X158553868Y-90361024D01*
X158750000Y-90380341D01*
X158946132Y-90361024D01*
X159134727Y-90303814D01*
X159308538Y-90210910D01*
X159460883Y-90085883D01*
X159585910Y-89933538D01*
X159639880Y-89832567D01*
X159678811Y-89759733D01*
X159678813Y-89759728D01*
X159678814Y-89759727D01*
X159736024Y-89571132D01*
X159755341Y-89375000D01*
X159736024Y-89178868D01*
X159678814Y-88990273D01*
X159678811Y-88990269D01*
X159678811Y-88990266D01*
X159585913Y-88816467D01*
X159585909Y-88816460D01*
X159460883Y-88664116D01*
X159308539Y-88539090D01*
X159308532Y-88539086D01*
X159134733Y-88446188D01*
X159134727Y-88446186D01*
X158946132Y-88388976D01*
X158946129Y-88388975D01*
X158750000Y-88369659D01*
X158625133Y-88381956D01*
X158556487Y-88368937D01*
X158550992Y-88365946D01*
X158506785Y-88340423D01*
X158354057Y-88299499D01*
X158195943Y-88299499D01*
X158188347Y-88299499D01*
X158188331Y-88299500D01*
X156835764Y-88299500D01*
X156768725Y-88279815D01*
X156722970Y-88227011D01*
X156719582Y-88218833D01*
X156668797Y-88082671D01*
X156668793Y-88082664D01*
X156582547Y-87967455D01*
X156582544Y-87967452D01*
X156467335Y-87881206D01*
X156467328Y-87881202D01*
X156332482Y-87830908D01*
X156332483Y-87830908D01*
X156272883Y-87824501D01*
X156272881Y-87824500D01*
X156272873Y-87824500D01*
X156272864Y-87824500D01*
X154727129Y-87824500D01*
X154727123Y-87824501D01*
X154667516Y-87830908D01*
X154532671Y-87881202D01*
X154532664Y-87881206D01*
X154417455Y-87967452D01*
X154417452Y-87967455D01*
X154331206Y-88082664D01*
X154331202Y-88082671D01*
X154280908Y-88217517D01*
X154274501Y-88277116D01*
X154274500Y-88277135D01*
X154274500Y-88723338D01*
X154254815Y-88790377D01*
X154202011Y-88836132D01*
X154132853Y-88846076D01*
X154107171Y-88839521D01*
X154097489Y-88835910D01*
X154097484Y-88835909D01*
X154097483Y-88835909D01*
X154037873Y-88829500D01*
X154037863Y-88829500D01*
X153342129Y-88829500D01*
X153342123Y-88829501D01*
X153282514Y-88835909D01*
X153257832Y-88845115D01*
X153188140Y-88850099D01*
X153126818Y-88816613D01*
X153093333Y-88755289D01*
X153090500Y-88728933D01*
X153090500Y-86959059D01*
X153090501Y-86959046D01*
X153090501Y-86790945D01*
X153090501Y-86790943D01*
X153049577Y-86638215D01*
X153015422Y-86579057D01*
X152970520Y-86501284D01*
X152886817Y-86417581D01*
X152853333Y-86356257D01*
X152850499Y-86329900D01*
X152850499Y-84232129D01*
X152850498Y-84232123D01*
X152848272Y-84211416D01*
X152844091Y-84172517D01*
X152843169Y-84170046D01*
X152793797Y-84037671D01*
X152793793Y-84037664D01*
X152707547Y-83922455D01*
X152707544Y-83922452D01*
X152592335Y-83836206D01*
X152592328Y-83836202D01*
X152457482Y-83785908D01*
X152449938Y-83784126D01*
X152450474Y-83781853D01*
X152396688Y-83759571D01*
X152356843Y-83702177D01*
X152350500Y-83663024D01*
X152350500Y-83550945D01*
X152350500Y-83550943D01*
X152309577Y-83398216D01*
X152289051Y-83362664D01*
X152230524Y-83261290D01*
X152230518Y-83261282D01*
X152118717Y-83149481D01*
X152118709Y-83149475D01*
X151981790Y-83070426D01*
X151981786Y-83070424D01*
X151981784Y-83070423D01*
X151829057Y-83029500D01*
X151829056Y-83029500D01*
X147436670Y-83029500D01*
X147436654Y-83029499D01*
X147429058Y-83029499D01*
X147270943Y-83029499D01*
X147194579Y-83049961D01*
X147118214Y-83070423D01*
X147118209Y-83070426D01*
X146981290Y-83149475D01*
X146981282Y-83149481D01*
X146149479Y-83981284D01*
X146135292Y-84005858D01*
X146113724Y-84043216D01*
X146080506Y-84100751D01*
X146071991Y-84115500D01*
X146070423Y-84118215D01*
X146029499Y-84270943D01*
X146029499Y-84270945D01*
X146029499Y-84439046D01*
X146029500Y-84439059D01*
X146029500Y-85106452D01*
X146009815Y-85173491D01*
X145960199Y-85216482D01*
X145960456Y-85216952D01*
X145958299Y-85218129D01*
X145957011Y-85219246D01*
X145953877Y-85220544D01*
X145952672Y-85221202D01*
X145952669Y-85221203D01*
X145952669Y-85221204D01*
X145837454Y-85307454D01*
X145837453Y-85307455D01*
X145837452Y-85307456D01*
X145751206Y-85422664D01*
X145751202Y-85422671D01*
X145700908Y-85557517D01*
X145694501Y-85617116D01*
X145694501Y-85617123D01*
X145694500Y-85617135D01*
X138609483Y-85617135D01*
X138568494Y-85558597D01*
X138401402Y-85391506D01*
X138401395Y-85391501D01*
X138207834Y-85255967D01*
X138207830Y-85255965D01*
X138155551Y-85231587D01*
X137993663Y-85156097D01*
X137993659Y-85156096D01*
X137993655Y-85156094D01*
X137765413Y-85094938D01*
X137765403Y-85094936D01*
X137530001Y-85074341D01*
X137529999Y-85074341D01*
X137294596Y-85094936D01*
X137294586Y-85094938D01*
X137066344Y-85156094D01*
X137066335Y-85156098D01*
X136852171Y-85255964D01*
X136852169Y-85255965D01*
X136658597Y-85391505D01*
X136491505Y-85558597D01*
X136355965Y-85752169D01*
X136355964Y-85752171D01*
X136256098Y-85966335D01*
X136256094Y-85966344D01*
X136194938Y-86194586D01*
X136194936Y-86194596D01*
X136174341Y-86429999D01*
X112695266Y-86429999D01*
X112792331Y-86393796D01*
X112907546Y-86307546D01*
X112993796Y-86192331D01*
X112997960Y-86181165D01*
X113039829Y-86125234D01*
X113105293Y-86100816D01*
X113114141Y-86100500D01*
X116838331Y-86100500D01*
X116838347Y-86100501D01*
X116845943Y-86100501D01*
X117004054Y-86100501D01*
X117004057Y-86100501D01*
X117156785Y-86059577D01*
X117219852Y-86023165D01*
X117293716Y-85980520D01*
X117405520Y-85868716D01*
X117405520Y-85868714D01*
X117415724Y-85858511D01*
X117415728Y-85858506D01*
X117642291Y-85631942D01*
X117703612Y-85598459D01*
X117764562Y-85600548D01*
X117797431Y-85610098D01*
X117834306Y-85613000D01*
X117834314Y-85613000D01*
X118265686Y-85613000D01*
X118265694Y-85613000D01*
X118302569Y-85610098D01*
X118302571Y-85610097D01*
X118302573Y-85610097D01*
X118344191Y-85598005D01*
X118460398Y-85564244D01*
X118601865Y-85480581D01*
X118718081Y-85364365D01*
X118801744Y-85222898D01*
X118838920Y-85094938D01*
X118847597Y-85065073D01*
X118847598Y-85065067D01*
X118850499Y-85028201D01*
X118850500Y-85028194D01*
X118850500Y-84946045D01*
X118870185Y-84879006D01*
X118922989Y-84833251D01*
X118992147Y-84823307D01*
X119055703Y-84852332D01*
X119062181Y-84858364D01*
X119505691Y-85301874D01*
X119505701Y-85301885D01*
X119510031Y-85306215D01*
X119510032Y-85306216D01*
X119621836Y-85418020D01*
X119649487Y-85433984D01*
X119697702Y-85484548D01*
X119703670Y-85498038D01*
X119706202Y-85504828D01*
X119706206Y-85504835D01*
X119792452Y-85620044D01*
X119792455Y-85620047D01*
X119907664Y-85706293D01*
X119907671Y-85706297D01*
X120042517Y-85756591D01*
X120042516Y-85756591D01*
X120049444Y-85757335D01*
X120102127Y-85763000D01*
X121097872Y-85762999D01*
X121157483Y-85756591D01*
X121292331Y-85706296D01*
X121407546Y-85620046D01*
X121493796Y-85504831D01*
X121544091Y-85369983D01*
X121550500Y-85310373D01*
X121550499Y-84564628D01*
X121544091Y-84505017D01*
X121536218Y-84483909D01*
X121493797Y-84370171D01*
X121493796Y-84370169D01*
X121431394Y-84286811D01*
X121406977Y-84221347D01*
X121421828Y-84153074D01*
X121431394Y-84138189D01*
X121431535Y-84138001D01*
X121493796Y-84054831D01*
X121544091Y-83919983D01*
X121550500Y-83860373D01*
X121550499Y-83114628D01*
X121544091Y-83055017D01*
X121534573Y-83029499D01*
X121493797Y-82920171D01*
X121493793Y-82920164D01*
X121407547Y-82804955D01*
X121407544Y-82804952D01*
X121292335Y-82718706D01*
X121292328Y-82718702D01*
X121157482Y-82668408D01*
X121157483Y-82668408D01*
X121097883Y-82662001D01*
X121097881Y-82662000D01*
X121097873Y-82662000D01*
X121097865Y-82662000D01*
X120062597Y-82662000D01*
X119995558Y-82642315D01*
X119974916Y-82625681D01*
X119836819Y-82487584D01*
X119803334Y-82426261D01*
X119800500Y-82399903D01*
X119800500Y-81846813D01*
X119800499Y-81846798D01*
X119797598Y-81809932D01*
X119797597Y-81809926D01*
X119760714Y-81682977D01*
X119751744Y-81652102D01*
X119668081Y-81510635D01*
X119668079Y-81510633D01*
X119668076Y-81510629D01*
X119551869Y-81394422D01*
X119549400Y-81392507D01*
X119547959Y-81390512D01*
X119546349Y-81388902D01*
X119546608Y-81388642D01*
X119518701Y-81349999D01*
X136174341Y-81349999D01*
X136174341Y-81350000D01*
X136194936Y-81585403D01*
X136194938Y-81585413D01*
X136256094Y-81813655D01*
X136256096Y-81813659D01*
X136256097Y-81813663D01*
X136296012Y-81899261D01*
X136355965Y-82027830D01*
X136355967Y-82027834D01*
X136406849Y-82100500D01*
X136491505Y-82221401D01*
X136658599Y-82388495D01*
X136732216Y-82440042D01*
X136852165Y-82524032D01*
X136852167Y-82524033D01*
X136852170Y-82524035D01*
X137066337Y-82623903D01*
X137066343Y-82623904D01*
X137066344Y-82623905D01*
X137121285Y-82638626D01*
X137294592Y-82685063D01*
X137479103Y-82701206D01*
X137529999Y-82705659D01*
X137530000Y-82705659D01*
X137530001Y-82705659D01*
X137580897Y-82701206D01*
X137765408Y-82685063D01*
X137993663Y-82623903D01*
X138207830Y-82524035D01*
X138401401Y-82388495D01*
X138568495Y-82221401D01*
X138704035Y-82027830D01*
X138803903Y-81813663D01*
X138865063Y-81585408D01*
X138885659Y-81350000D01*
X138865063Y-81114592D01*
X138803903Y-80886337D01*
X138704035Y-80672171D01*
X138694200Y-80658124D01*
X138568494Y-80478597D01*
X138401402Y-80311506D01*
X138401395Y-80311501D01*
X138378543Y-80295500D01*
X138309180Y-80246931D01*
X138207834Y-80175967D01*
X138207830Y-80175965D01*
X138111589Y-80131087D01*
X137993663Y-80076097D01*
X137993659Y-80076096D01*
X137993655Y-80076094D01*
X137765413Y-80014938D01*
X137765403Y-80014936D01*
X137530001Y-79994341D01*
X137529999Y-79994341D01*
X137294596Y-80014936D01*
X137294586Y-80014938D01*
X137066344Y-80076094D01*
X137066335Y-80076098D01*
X136852171Y-80175964D01*
X136852169Y-80175965D01*
X136658597Y-80311505D01*
X136491505Y-80478597D01*
X136355965Y-80672169D01*
X136355964Y-80672171D01*
X136256098Y-80886335D01*
X136256094Y-80886344D01*
X136194938Y-81114586D01*
X136194936Y-81114596D01*
X136174341Y-81349999D01*
X119518701Y-81349999D01*
X119508493Y-81335864D01*
X119504703Y-81266098D01*
X119526134Y-81220215D01*
X119593796Y-81129831D01*
X119597960Y-81118665D01*
X119639829Y-81062734D01*
X119705293Y-81038316D01*
X119714141Y-81038000D01*
X119829192Y-81038000D01*
X119896231Y-81057685D01*
X119916868Y-81074314D01*
X120010635Y-81168081D01*
X120152102Y-81251744D01*
X120193724Y-81263836D01*
X120309926Y-81297597D01*
X120309929Y-81297597D01*
X120309931Y-81297598D01*
X120346806Y-81300500D01*
X120346814Y-81300500D01*
X121653186Y-81300500D01*
X121653194Y-81300500D01*
X121690069Y-81297598D01*
X121690071Y-81297597D01*
X121690073Y-81297597D01*
X121748307Y-81280678D01*
X121847898Y-81251744D01*
X121989365Y-81168081D01*
X122105581Y-81051865D01*
X122189244Y-80910398D01*
X122235098Y-80752569D01*
X122238000Y-80715694D01*
X122238000Y-80474500D01*
X122257685Y-80407461D01*
X122310489Y-80361706D01*
X122362000Y-80350500D01*
X123528186Y-80350500D01*
X123528194Y-80350500D01*
X123565069Y-80347598D01*
X123565071Y-80347597D01*
X123565073Y-80347597D01*
X123606691Y-80335505D01*
X123722898Y-80301744D01*
X123864365Y-80218081D01*
X123980581Y-80101865D01*
X124064244Y-79960398D01*
X124109793Y-79803618D01*
X124110097Y-79802573D01*
X124110098Y-79802567D01*
X124110339Y-79799501D01*
X124113000Y-79765694D01*
X124113000Y-79334306D01*
X124110098Y-79297431D01*
X124110097Y-79297429D01*
X124110097Y-79297426D01*
X124064245Y-79139606D01*
X124064244Y-79139603D01*
X124064244Y-79139602D01*
X123980581Y-78998135D01*
X123980579Y-78998133D01*
X123980576Y-78998129D01*
X123864370Y-78881923D01*
X123864362Y-78881917D01*
X123722896Y-78798255D01*
X123722893Y-78798254D01*
X123565068Y-78752401D01*
X123559127Y-78751316D01*
X123496717Y-78719904D01*
X123461637Y-78661430D01*
X123434577Y-78560440D01*
X123406926Y-78512546D01*
X123355524Y-78423514D01*
X123355518Y-78423506D01*
X123107961Y-78175950D01*
X123107959Y-78175947D01*
X122978717Y-78046705D01*
X122978716Y-78046704D01*
X122861547Y-77979057D01*
X122841785Y-77967647D01*
X122689057Y-77926723D01*
X122530943Y-77926723D01*
X122523347Y-77926723D01*
X122523331Y-77926724D01*
X120350097Y-77926724D01*
X120283058Y-77907039D01*
X120262416Y-77890405D01*
X119704226Y-77332215D01*
X143534500Y-77332215D01*
X143534500Y-78107764D01*
X143534501Y-78107789D01*
X143537218Y-78142315D01*
X143580162Y-78290130D01*
X143580163Y-78290133D01*
X143580164Y-78290135D01*
X143586190Y-78300325D01*
X143658519Y-78422627D01*
X143658526Y-78422636D01*
X143767363Y-78531473D01*
X143767367Y-78531476D01*
X143767369Y-78531478D01*
X143899865Y-78609836D01*
X143938847Y-78621161D01*
X144047680Y-78652781D01*
X144047683Y-78652781D01*
X144047685Y-78652782D01*
X144082223Y-78655500D01*
X144917776Y-78655499D01*
X144952315Y-78652782D01*
X145100135Y-78609836D01*
X145232631Y-78531478D01*
X145341478Y-78422631D01*
X145365874Y-78381378D01*
X145416942Y-78333696D01*
X145472606Y-78320500D01*
X145476452Y-78320500D01*
X145543491Y-78340185D01*
X145586484Y-78389801D01*
X145586953Y-78389546D01*
X145588129Y-78391700D01*
X145589246Y-78392989D01*
X145590544Y-78396122D01*
X145591206Y-78397335D01*
X145677452Y-78512544D01*
X145677455Y-78512547D01*
X145792664Y-78598793D01*
X145792671Y-78598797D01*
X145927517Y-78649091D01*
X145927516Y-78649091D01*
X145934444Y-78649835D01*
X145987127Y-78655500D01*
X147012872Y-78655499D01*
X147072483Y-78649091D01*
X147207331Y-78598796D01*
X147322546Y-78512546D01*
X147408796Y-78397331D01*
X147408797Y-78397326D01*
X147413047Y-78389546D01*
X147415188Y-78390715D01*
X147449243Y-78345229D01*
X147514709Y-78320815D01*
X147523548Y-78320500D01*
X148193331Y-78320500D01*
X148193347Y-78320501D01*
X148200943Y-78320501D01*
X148359054Y-78320501D01*
X148359057Y-78320501D01*
X148511785Y-78279577D01*
X148570040Y-78245943D01*
X148648716Y-78200520D01*
X148760520Y-78088716D01*
X148760520Y-78088714D01*
X148770724Y-78078511D01*
X148770727Y-78078506D01*
X149522341Y-77326893D01*
X149583660Y-77293411D01*
X149623900Y-77291357D01*
X149695885Y-77299467D01*
X149749998Y-77305565D01*
X149750000Y-77305565D01*
X149750004Y-77305565D01*
X149929249Y-77285369D01*
X149929252Y-77285368D01*
X149929255Y-77285368D01*
X150099522Y-77225789D01*
X150252262Y-77129816D01*
X150252267Y-77129810D01*
X150255097Y-77127555D01*
X150257275Y-77126665D01*
X150258158Y-77126111D01*
X150258255Y-77126265D01*
X150319783Y-77101145D01*
X150332412Y-77100500D01*
X150385859Y-77100500D01*
X150452898Y-77120185D01*
X150498653Y-77172989D01*
X150502030Y-77181140D01*
X150506204Y-77192331D01*
X150506205Y-77192332D01*
X150506206Y-77192335D01*
X150592452Y-77307544D01*
X150592455Y-77307547D01*
X150707664Y-77393793D01*
X150707671Y-77393797D01*
X150752618Y-77410561D01*
X150842517Y-77444091D01*
X150902127Y-77450500D01*
X151647872Y-77450499D01*
X151707483Y-77444091D01*
X151842331Y-77393796D01*
X151925689Y-77331393D01*
X151991153Y-77306977D01*
X152059426Y-77321828D01*
X152074309Y-77331393D01*
X152075418Y-77332223D01*
X152157669Y-77393796D01*
X152157671Y-77393797D01*
X152202618Y-77410561D01*
X152292517Y-77444091D01*
X152352127Y-77450500D01*
X153097872Y-77450499D01*
X153157483Y-77444091D01*
X153292331Y-77393796D01*
X153407546Y-77307546D01*
X153407548Y-77307542D01*
X153412314Y-77302777D01*
X153473635Y-77269289D01*
X153543327Y-77274270D01*
X153587676Y-77302769D01*
X153592447Y-77307540D01*
X153592452Y-77307544D01*
X153592454Y-77307546D01*
X153624812Y-77331769D01*
X153666681Y-77387700D01*
X153674500Y-77431034D01*
X153674500Y-77792835D01*
X153654815Y-77859874D01*
X153636600Y-77879797D01*
X153637696Y-77880893D01*
X153516414Y-78002174D01*
X153516408Y-78002182D01*
X153433068Y-78143104D01*
X153433066Y-78143107D01*
X153387391Y-78300320D01*
X153387390Y-78300326D01*
X153384500Y-78337052D01*
X153384500Y-78699847D01*
X153364815Y-78766886D01*
X153312011Y-78812641D01*
X153242853Y-78822585D01*
X153197380Y-78806580D01*
X153130260Y-78766886D01*
X153106897Y-78753069D01*
X153106895Y-78753068D01*
X153106893Y-78753067D01*
X153106892Y-78753066D01*
X152949679Y-78707391D01*
X152949673Y-78707390D01*
X152912947Y-78704500D01*
X152912940Y-78704500D01*
X151847060Y-78704500D01*
X151847052Y-78704500D01*
X151810326Y-78707390D01*
X151810320Y-78707391D01*
X151653107Y-78753066D01*
X151653104Y-78753068D01*
X151512182Y-78836408D01*
X151512174Y-78836414D01*
X151396414Y-78952174D01*
X151396408Y-78952182D01*
X151313068Y-79093104D01*
X151313066Y-79093107D01*
X151267391Y-79250320D01*
X151267390Y-79250326D01*
X151264500Y-79287052D01*
X151264500Y-79712947D01*
X151267390Y-79749673D01*
X151267391Y-79749679D01*
X151313066Y-79906892D01*
X151313068Y-79906895D01*
X151313069Y-79906897D01*
X151326701Y-79929947D01*
X151396408Y-80047817D01*
X151396414Y-80047825D01*
X151512174Y-80163585D01*
X151512178Y-80163588D01*
X151512180Y-80163590D01*
X151653103Y-80246931D01*
X151653104Y-80246931D01*
X151653107Y-80246933D01*
X151810320Y-80292608D01*
X151810323Y-80292608D01*
X151810325Y-80292609D01*
X151847060Y-80295500D01*
X151847068Y-80295500D01*
X152912932Y-80295500D01*
X152912940Y-80295500D01*
X152949675Y-80292609D01*
X152949677Y-80292608D01*
X152949679Y-80292608D01*
X153106892Y-80246933D01*
X153106893Y-80246932D01*
X153106897Y-80246931D01*
X153247820Y-80163590D01*
X153363590Y-80047820D01*
X153446931Y-79906897D01*
X153446932Y-79906893D01*
X153446933Y-79906892D01*
X153492608Y-79749679D01*
X153492609Y-79749673D01*
X153492963Y-79745171D01*
X153495500Y-79712940D01*
X153495500Y-79350152D01*
X153515185Y-79283113D01*
X153567989Y-79237358D01*
X153637147Y-79227414D01*
X153682618Y-79243419D01*
X153773103Y-79296931D01*
X153773104Y-79296931D01*
X153773107Y-79296933D01*
X153930320Y-79342608D01*
X153930323Y-79342608D01*
X153930325Y-79342609D01*
X153967060Y-79345500D01*
X153967068Y-79345500D01*
X155032932Y-79345500D01*
X155032940Y-79345500D01*
X155069675Y-79342609D01*
X155069677Y-79342608D01*
X155069679Y-79342608D01*
X155226892Y-79296933D01*
X155226893Y-79296932D01*
X155226897Y-79296931D01*
X155367820Y-79213590D01*
X155483590Y-79097820D01*
X155566931Y-78956897D01*
X155566932Y-78956893D01*
X155566933Y-78956892D01*
X155612608Y-78799679D01*
X155612609Y-78799673D01*
X155615499Y-78762947D01*
X155615500Y-78762940D01*
X155615500Y-78500000D01*
X157744659Y-78500000D01*
X157763975Y-78696129D01*
X157771187Y-78719904D01*
X157820335Y-78881923D01*
X157821188Y-78884733D01*
X157914086Y-79058532D01*
X157914090Y-79058539D01*
X158039116Y-79210883D01*
X158191460Y-79335909D01*
X158191467Y-79335913D01*
X158365266Y-79428811D01*
X158365269Y-79428811D01*
X158365273Y-79428814D01*
X158553868Y-79486024D01*
X158750000Y-79505341D01*
X158946132Y-79486024D01*
X159134727Y-79428814D01*
X159308538Y-79335910D01*
X159460883Y-79210883D01*
X159585910Y-79058538D01*
X159672822Y-78895937D01*
X159678811Y-78884733D01*
X159678811Y-78884732D01*
X159678814Y-78884727D01*
X159736024Y-78696132D01*
X159755341Y-78500000D01*
X159736024Y-78303868D01*
X159678814Y-78115273D01*
X159678811Y-78115269D01*
X159678811Y-78115266D01*
X159585913Y-77941467D01*
X159585909Y-77941460D01*
X159460883Y-77789116D01*
X159308539Y-77664090D01*
X159308532Y-77664086D01*
X159134733Y-77571188D01*
X159134727Y-77571186D01*
X159008997Y-77533046D01*
X158946129Y-77513975D01*
X158750000Y-77494659D01*
X158553870Y-77513975D01*
X158365266Y-77571188D01*
X158191467Y-77664086D01*
X158191460Y-77664090D01*
X158039116Y-77789116D01*
X157914090Y-77941460D01*
X157914086Y-77941467D01*
X157821188Y-78115266D01*
X157763975Y-78303870D01*
X157744659Y-78500000D01*
X155615500Y-78500000D01*
X155615500Y-78337060D01*
X155612609Y-78300325D01*
X155612608Y-78300320D01*
X155566933Y-78143107D01*
X155566931Y-78143104D01*
X155566931Y-78143103D01*
X155483590Y-78002180D01*
X155483588Y-78002178D01*
X155483585Y-78002174D01*
X155367825Y-77886414D01*
X155367817Y-77886408D01*
X155257124Y-77820945D01*
X155226897Y-77803069D01*
X155226896Y-77803068D01*
X155226895Y-77803068D01*
X155226892Y-77803066D01*
X155069679Y-77757391D01*
X155069673Y-77757390D01*
X155032947Y-77754500D01*
X155032940Y-77754500D01*
X154999500Y-77754500D01*
X154932461Y-77734815D01*
X154886706Y-77682011D01*
X154875500Y-77630500D01*
X154875500Y-77431034D01*
X154895185Y-77363995D01*
X154925129Y-77331812D01*
X154925634Y-77331434D01*
X154991081Y-77306981D01*
X155059363Y-77321793D01*
X155074310Y-77331394D01*
X155157664Y-77393793D01*
X155157671Y-77393797D01*
X155202618Y-77410561D01*
X155292517Y-77444091D01*
X155352127Y-77450500D01*
X156097872Y-77450499D01*
X156157483Y-77444091D01*
X156292331Y-77393796D01*
X156407546Y-77307546D01*
X156493796Y-77192331D01*
X156544091Y-77057483D01*
X156550500Y-76997873D01*
X156550499Y-76002128D01*
X156544091Y-75942517D01*
X156517566Y-75871401D01*
X156491204Y-75800719D01*
X156486220Y-75731027D01*
X156519705Y-75669704D01*
X156581028Y-75636220D01*
X156650719Y-75641204D01*
X156680008Y-75652128D01*
X156792517Y-75694091D01*
X156852127Y-75700500D01*
X157597872Y-75700499D01*
X157657483Y-75694091D01*
X157792331Y-75643796D01*
X157907546Y-75557546D01*
X157993796Y-75442331D01*
X158044091Y-75307483D01*
X158050500Y-75247873D01*
X158050499Y-74252128D01*
X158044091Y-74192517D01*
X158020250Y-74128597D01*
X157993797Y-74057671D01*
X157993793Y-74057664D01*
X157921805Y-73961501D01*
X157907546Y-73942454D01*
X157907544Y-73942452D01*
X157907542Y-73942450D01*
X157875188Y-73918230D01*
X157833318Y-73862296D01*
X157825500Y-73818964D01*
X157825500Y-73648689D01*
X157845185Y-73581650D01*
X157897989Y-73535895D01*
X157904680Y-73533072D01*
X157996665Y-73497438D01*
X158171487Y-73389193D01*
X158323443Y-73250667D01*
X158447357Y-73086579D01*
X158539010Y-72902515D01*
X158539010Y-72902512D01*
X158539012Y-72902510D01*
X158586132Y-72736897D01*
X158595281Y-72704743D01*
X158614253Y-72500000D01*
X158595281Y-72295257D01*
X158575217Y-72224739D01*
X158539012Y-72097489D01*
X158539009Y-72097483D01*
X158515624Y-72050520D01*
X158447357Y-71913421D01*
X158323443Y-71749333D01*
X158301203Y-71729059D01*
X158171487Y-71610807D01*
X158171485Y-71610805D01*
X157996668Y-71502563D01*
X157996662Y-71502561D01*
X157804930Y-71428283D01*
X157602810Y-71390500D01*
X157397190Y-71390500D01*
X157195070Y-71428283D01*
X157080660Y-71472606D01*
X157003337Y-71502561D01*
X157003331Y-71502563D01*
X156828514Y-71610805D01*
X156828512Y-71610807D01*
X156676558Y-71749331D01*
X156600365Y-71850227D01*
X156544256Y-71891863D01*
X156501411Y-71899500D01*
X155958589Y-71899500D01*
X155891550Y-71879815D01*
X155859635Y-71850227D01*
X155823053Y-71801785D01*
X155783443Y-71749333D01*
X155761203Y-71729059D01*
X155631487Y-71610807D01*
X155631485Y-71610805D01*
X155456668Y-71502563D01*
X155456662Y-71502561D01*
X155264930Y-71428283D01*
X155062810Y-71390500D01*
X154965510Y-71390500D01*
X154898471Y-71370815D01*
X154852716Y-71318011D01*
X154842772Y-71248853D01*
X154858778Y-71203379D01*
X154884739Y-71159480D01*
X154919836Y-71100135D01*
X154962782Y-70952315D01*
X154965500Y-70917777D01*
X154965499Y-70082224D01*
X154962782Y-70047685D01*
X154919836Y-69899865D01*
X154841478Y-69767369D01*
X154841476Y-69767367D01*
X154841473Y-69767363D01*
X154732636Y-69658526D01*
X154732627Y-69658519D01*
X154600133Y-69580163D01*
X154600130Y-69580162D01*
X154452319Y-69537218D01*
X154452313Y-69537217D01*
X154417777Y-69534500D01*
X153642235Y-69534500D01*
X153642210Y-69534501D01*
X153607684Y-69537218D01*
X153459869Y-69580162D01*
X153459866Y-69580163D01*
X153327372Y-69658519D01*
X153327363Y-69658526D01*
X153218526Y-69767363D01*
X153218519Y-69767372D01*
X153140163Y-69899866D01*
X153140162Y-69899869D01*
X153097218Y-70047680D01*
X153097217Y-70047686D01*
X153094500Y-70082215D01*
X153094500Y-70917764D01*
X153094501Y-70917789D01*
X153097218Y-70952315D01*
X153140162Y-71100130D01*
X153140163Y-71100133D01*
X153218519Y-71232627D01*
X153218526Y-71232636D01*
X153327363Y-71341473D01*
X153327369Y-71341478D01*
X153368621Y-71365874D01*
X153416304Y-71416942D01*
X153429500Y-71472606D01*
X153429500Y-71483330D01*
X153429499Y-71483348D01*
X153429499Y-71649054D01*
X153429498Y-71649054D01*
X153470423Y-71801786D01*
X153482492Y-71822688D01*
X153482493Y-71822693D01*
X153482494Y-71822693D01*
X153549475Y-71938709D01*
X153549481Y-71938717D01*
X153668349Y-72057585D01*
X153668355Y-72057590D01*
X153827060Y-72216295D01*
X153860545Y-72277618D01*
X153862850Y-72315417D01*
X153845747Y-72499998D01*
X153845747Y-72500000D01*
X153864718Y-72704742D01*
X153864719Y-72704745D01*
X153920987Y-72902510D01*
X153920990Y-72902515D01*
X154012643Y-73086579D01*
X154110742Y-73216483D01*
X154136558Y-73250668D01*
X154288512Y-73389192D01*
X154288514Y-73389194D01*
X154463331Y-73497436D01*
X154463332Y-73497436D01*
X154463335Y-73497438D01*
X154655070Y-73571717D01*
X154857190Y-73609500D01*
X154857192Y-73609500D01*
X155062807Y-73609500D01*
X155062810Y-73609500D01*
X155264930Y-73571717D01*
X155264936Y-73571714D01*
X155267073Y-73571315D01*
X155267111Y-73571318D01*
X155272201Y-73568899D01*
X155456665Y-73497438D01*
X155631487Y-73389193D01*
X155783443Y-73250667D01*
X155845232Y-73168844D01*
X155859635Y-73149773D01*
X155915744Y-73108137D01*
X155958589Y-73100500D01*
X156500500Y-73100500D01*
X156567539Y-73120185D01*
X156613294Y-73172989D01*
X156624500Y-73224500D01*
X156624500Y-73818964D01*
X156604815Y-73886003D01*
X156574805Y-73918235D01*
X156574304Y-73918610D01*
X156508838Y-73943024D01*
X156440566Y-73928168D01*
X156425693Y-73918609D01*
X156342331Y-73856204D01*
X156342328Y-73856202D01*
X156207486Y-73805910D01*
X156207485Y-73805909D01*
X156207483Y-73805909D01*
X156147873Y-73799500D01*
X156147863Y-73799500D01*
X155402129Y-73799500D01*
X155402123Y-73799501D01*
X155340657Y-73806108D01*
X155333192Y-73809386D01*
X155207671Y-73856202D01*
X155207664Y-73856206D01*
X155092455Y-73942452D01*
X155092452Y-73942455D01*
X155006206Y-74057664D01*
X155006202Y-74057671D01*
X154955908Y-74192517D01*
X154949501Y-74252116D01*
X154949501Y-74252123D01*
X154949500Y-74252135D01*
X154949500Y-75247870D01*
X154949501Y-75247876D01*
X154955908Y-75307483D01*
X155008795Y-75449280D01*
X155013779Y-75518972D01*
X154980294Y-75580295D01*
X154918970Y-75613779D01*
X154849280Y-75608795D01*
X154707486Y-75555910D01*
X154707485Y-75555909D01*
X154707483Y-75555909D01*
X154647873Y-75549500D01*
X154647863Y-75549500D01*
X153902129Y-75549500D01*
X153902123Y-75549501D01*
X153842516Y-75555908D01*
X153707671Y-75606202D01*
X153707664Y-75606206D01*
X153592455Y-75692452D01*
X153587681Y-75697227D01*
X153526358Y-75730712D01*
X153456666Y-75725728D01*
X153412319Y-75697227D01*
X153407544Y-75692452D01*
X153292335Y-75606206D01*
X153292328Y-75606202D01*
X153157486Y-75555910D01*
X153157485Y-75555909D01*
X153157483Y-75555909D01*
X153097873Y-75549500D01*
X153097863Y-75549500D01*
X152352129Y-75549500D01*
X152352123Y-75549501D01*
X152292516Y-75555908D01*
X152157671Y-75606202D01*
X152157669Y-75606203D01*
X152074311Y-75668606D01*
X152008847Y-75693023D01*
X151940574Y-75678172D01*
X151925689Y-75668606D01*
X151842330Y-75606203D01*
X151842328Y-75606202D01*
X151707486Y-75555910D01*
X151707485Y-75555909D01*
X151707483Y-75555909D01*
X151647873Y-75549500D01*
X151647863Y-75549500D01*
X150902129Y-75549500D01*
X150902123Y-75549501D01*
X150842516Y-75555908D01*
X150707671Y-75606202D01*
X150707664Y-75606206D01*
X150592455Y-75692452D01*
X150592452Y-75692455D01*
X150506206Y-75807664D01*
X150506204Y-75807668D01*
X150506204Y-75807669D01*
X150502039Y-75818834D01*
X150460171Y-75874766D01*
X150394707Y-75899184D01*
X150385859Y-75899500D01*
X150332412Y-75899500D01*
X150265373Y-75879815D01*
X150255097Y-75872445D01*
X150252263Y-75870185D01*
X150252262Y-75870184D01*
X150179241Y-75824302D01*
X150099523Y-75774211D01*
X149929254Y-75714631D01*
X149929249Y-75714630D01*
X149750004Y-75694435D01*
X149749996Y-75694435D01*
X149570750Y-75714630D01*
X149570745Y-75714631D01*
X149400476Y-75774211D01*
X149247737Y-75870184D01*
X149120185Y-75997736D01*
X149072091Y-76074276D01*
X149054779Y-76095983D01*
X148067584Y-77083181D01*
X148006261Y-77116666D01*
X147979903Y-77119500D01*
X147523548Y-77119500D01*
X147456509Y-77099815D01*
X147413515Y-77050198D01*
X147413047Y-77050454D01*
X147411870Y-77048299D01*
X147410754Y-77047011D01*
X147409455Y-77043877D01*
X147408793Y-77042664D01*
X147322547Y-76927455D01*
X147322544Y-76927452D01*
X147207335Y-76841206D01*
X147207328Y-76841202D01*
X147072482Y-76790908D01*
X147072483Y-76790908D01*
X147012883Y-76784501D01*
X147012881Y-76784500D01*
X147012873Y-76784500D01*
X147012864Y-76784500D01*
X145987129Y-76784500D01*
X145987123Y-76784501D01*
X145927516Y-76790908D01*
X145792671Y-76841202D01*
X145792664Y-76841206D01*
X145677455Y-76927452D01*
X145677452Y-76927455D01*
X145591206Y-77042664D01*
X145586953Y-77050454D01*
X145584811Y-77049284D01*
X145550757Y-77094771D01*
X145485291Y-77119185D01*
X145476452Y-77119500D01*
X145472606Y-77119500D01*
X145405567Y-77099815D01*
X145365874Y-77058621D01*
X145341478Y-77017369D01*
X145341473Y-77017363D01*
X145232636Y-76908526D01*
X145232627Y-76908519D01*
X145118806Y-76841206D01*
X145100135Y-76830164D01*
X145100134Y-76830163D01*
X145100133Y-76830163D01*
X145100130Y-76830162D01*
X144952319Y-76787218D01*
X144952313Y-76787217D01*
X144917777Y-76784500D01*
X144082235Y-76784500D01*
X144082210Y-76784501D01*
X144047684Y-76787218D01*
X143899869Y-76830162D01*
X143899866Y-76830163D01*
X143767372Y-76908519D01*
X143767363Y-76908526D01*
X143658526Y-77017363D01*
X143658519Y-77017372D01*
X143580163Y-77149866D01*
X143580162Y-77149869D01*
X143537218Y-77297680D01*
X143537218Y-77297684D01*
X143534500Y-77332215D01*
X119704226Y-77332215D01*
X118448634Y-76076623D01*
X118415149Y-76015300D01*
X118420133Y-75945608D01*
X118448631Y-75901263D01*
X118478495Y-75871401D01*
X118614035Y-75677830D01*
X118713903Y-75463663D01*
X118775063Y-75235408D01*
X118795659Y-75000000D01*
X118795659Y-74999999D01*
X121164341Y-74999999D01*
X121164341Y-75000000D01*
X121184936Y-75235403D01*
X121184938Y-75235413D01*
X121246094Y-75463655D01*
X121246096Y-75463659D01*
X121246097Y-75463663D01*
X121333980Y-75652128D01*
X121345965Y-75677830D01*
X121345967Y-75677834D01*
X121432013Y-75800719D01*
X121481505Y-75871401D01*
X121648599Y-76038495D01*
X121727828Y-76093972D01*
X121842165Y-76174032D01*
X121842167Y-76174033D01*
X121842170Y-76174035D01*
X122056337Y-76273903D01*
X122056343Y-76273904D01*
X122056344Y-76273905D01*
X122083059Y-76281063D01*
X122284592Y-76335063D01*
X122461034Y-76350500D01*
X122519999Y-76355659D01*
X122520000Y-76355659D01*
X122520001Y-76355659D01*
X122578966Y-76350500D01*
X122755408Y-76335063D01*
X122983663Y-76273903D01*
X123197830Y-76174035D01*
X123391401Y-76038495D01*
X123558495Y-75871401D01*
X123683397Y-75693023D01*
X123688425Y-75685842D01*
X123743002Y-75642217D01*
X123812500Y-75635023D01*
X123874855Y-75666546D01*
X123891575Y-75685842D01*
X124021500Y-75871395D01*
X124021505Y-75871401D01*
X124188599Y-76038495D01*
X124267828Y-76093972D01*
X124382165Y-76174032D01*
X124382167Y-76174033D01*
X124382170Y-76174035D01*
X124596337Y-76273903D01*
X124596343Y-76273904D01*
X124596344Y-76273905D01*
X124623059Y-76281063D01*
X124824592Y-76335063D01*
X125001034Y-76350500D01*
X125059999Y-76355659D01*
X125060000Y-76355659D01*
X125060001Y-76355659D01*
X125118966Y-76350500D01*
X125295408Y-76335063D01*
X125523663Y-76273903D01*
X125737830Y-76174035D01*
X125931401Y-76038495D01*
X126098495Y-75871401D01*
X126223397Y-75693023D01*
X126228425Y-75685842D01*
X126283002Y-75642217D01*
X126352500Y-75635023D01*
X126414855Y-75666546D01*
X126431575Y-75685842D01*
X126561500Y-75871395D01*
X126561505Y-75871401D01*
X126728599Y-76038495D01*
X126807828Y-76093972D01*
X126922165Y-76174032D01*
X126922167Y-76174033D01*
X126922170Y-76174035D01*
X127136337Y-76273903D01*
X127136343Y-76273904D01*
X127136344Y-76273905D01*
X127163059Y-76281063D01*
X127364592Y-76335063D01*
X127541034Y-76350500D01*
X127599999Y-76355659D01*
X127600000Y-76355659D01*
X127600001Y-76355659D01*
X127658966Y-76350500D01*
X127835408Y-76335063D01*
X128063663Y-76273903D01*
X128277830Y-76174035D01*
X128471401Y-76038495D01*
X128638495Y-75871401D01*
X128763397Y-75693023D01*
X128768425Y-75685842D01*
X128823002Y-75642217D01*
X128892500Y-75635023D01*
X128954855Y-75666546D01*
X128971575Y-75685842D01*
X129101500Y-75871395D01*
X129101505Y-75871401D01*
X129268599Y-76038495D01*
X129347828Y-76093972D01*
X129462165Y-76174032D01*
X129462167Y-76174033D01*
X129462170Y-76174035D01*
X129676337Y-76273903D01*
X129676343Y-76273904D01*
X129676344Y-76273905D01*
X129703059Y-76281063D01*
X129904592Y-76335063D01*
X130081034Y-76350500D01*
X130139999Y-76355659D01*
X130140000Y-76355659D01*
X130140001Y-76355659D01*
X130198966Y-76350500D01*
X130375408Y-76335063D01*
X130603663Y-76273903D01*
X130817830Y-76174035D01*
X131011401Y-76038495D01*
X131178495Y-75871401D01*
X131314035Y-75677830D01*
X131413903Y-75463663D01*
X131475063Y-75235408D01*
X131495659Y-75000000D01*
X131495659Y-74999999D01*
X133864341Y-74999999D01*
X133864341Y-75000000D01*
X133884936Y-75235403D01*
X133884938Y-75235413D01*
X133946094Y-75463655D01*
X133946096Y-75463659D01*
X133946097Y-75463663D01*
X134033980Y-75652128D01*
X134045965Y-75677830D01*
X134045967Y-75677834D01*
X134132013Y-75800719D01*
X134181505Y-75871401D01*
X134348599Y-76038495D01*
X134427828Y-76093972D01*
X134542165Y-76174032D01*
X134542167Y-76174033D01*
X134542170Y-76174035D01*
X134756337Y-76273903D01*
X134756343Y-76273904D01*
X134756344Y-76273905D01*
X134783059Y-76281063D01*
X134984592Y-76335063D01*
X135161034Y-76350500D01*
X135219999Y-76355659D01*
X135220000Y-76355659D01*
X135220001Y-76355659D01*
X135278966Y-76350500D01*
X135455408Y-76335063D01*
X135683663Y-76273903D01*
X135897830Y-76174035D01*
X136091401Y-76038495D01*
X136258495Y-75871401D01*
X136383397Y-75693023D01*
X136388425Y-75685842D01*
X136443002Y-75642217D01*
X136512500Y-75635023D01*
X136574855Y-75666546D01*
X136591575Y-75685842D01*
X136721500Y-75871395D01*
X136721505Y-75871401D01*
X136888599Y-76038495D01*
X136967828Y-76093972D01*
X137082165Y-76174032D01*
X137082167Y-76174033D01*
X137082170Y-76174035D01*
X137296337Y-76273903D01*
X137296343Y-76273904D01*
X137296344Y-76273905D01*
X137323059Y-76281063D01*
X137524592Y-76335063D01*
X137701034Y-76350500D01*
X137759999Y-76355659D01*
X137760000Y-76355659D01*
X137760001Y-76355659D01*
X137818966Y-76350500D01*
X137995408Y-76335063D01*
X138223663Y-76273903D01*
X138437830Y-76174035D01*
X138631401Y-76038495D01*
X138798495Y-75871401D01*
X138934035Y-75677830D01*
X139033903Y-75463663D01*
X139095063Y-75235408D01*
X139115659Y-75000000D01*
X139095063Y-74764592D01*
X139033903Y-74536337D01*
X138934035Y-74322171D01*
X138928425Y-74314158D01*
X138798494Y-74128597D01*
X138631402Y-73961506D01*
X138631395Y-73961501D01*
X138604190Y-73942452D01*
X138554518Y-73907671D01*
X138437834Y-73825967D01*
X138437830Y-73825965D01*
X138402276Y-73809386D01*
X138223663Y-73726097D01*
X138223659Y-73726096D01*
X138223655Y-73726094D01*
X137995413Y-73664938D01*
X137995403Y-73664936D01*
X137760001Y-73644341D01*
X137759999Y-73644341D01*
X137524596Y-73664936D01*
X137524586Y-73664938D01*
X137296344Y-73726094D01*
X137296335Y-73726098D01*
X137082171Y-73825964D01*
X137082169Y-73825965D01*
X136888597Y-73961505D01*
X136721505Y-74128597D01*
X136591575Y-74314158D01*
X136536998Y-74357783D01*
X136467500Y-74364977D01*
X136405145Y-74333454D01*
X136388425Y-74314158D01*
X136258494Y-74128597D01*
X136091402Y-73961506D01*
X136091395Y-73961501D01*
X136064190Y-73942452D01*
X136014518Y-73907671D01*
X135897834Y-73825967D01*
X135897830Y-73825965D01*
X135862276Y-73809386D01*
X135683663Y-73726097D01*
X135683659Y-73726096D01*
X135683655Y-73726094D01*
X135455413Y-73664938D01*
X135455403Y-73664936D01*
X135220001Y-73644341D01*
X135219999Y-73644341D01*
X134984596Y-73664936D01*
X134984586Y-73664938D01*
X134756344Y-73726094D01*
X134756335Y-73726098D01*
X134542171Y-73825964D01*
X134542169Y-73825965D01*
X134348597Y-73961505D01*
X134181505Y-74128597D01*
X134045965Y-74322169D01*
X134045964Y-74322171D01*
X133946098Y-74536335D01*
X133946094Y-74536344D01*
X133884938Y-74764586D01*
X133884936Y-74764596D01*
X133864341Y-74999999D01*
X131495659Y-74999999D01*
X131475063Y-74764592D01*
X131413903Y-74536337D01*
X131314035Y-74322171D01*
X131308425Y-74314158D01*
X131178494Y-74128597D01*
X131011402Y-73961506D01*
X131011395Y-73961501D01*
X130984190Y-73942452D01*
X130934518Y-73907671D01*
X130817834Y-73825967D01*
X130817830Y-73825965D01*
X130782276Y-73809386D01*
X130603663Y-73726097D01*
X130603659Y-73726096D01*
X130603655Y-73726094D01*
X130375413Y-73664938D01*
X130375403Y-73664936D01*
X130140001Y-73644341D01*
X130139999Y-73644341D01*
X129904596Y-73664936D01*
X129904586Y-73664938D01*
X129676344Y-73726094D01*
X129676335Y-73726098D01*
X129462171Y-73825964D01*
X129462169Y-73825965D01*
X129268597Y-73961505D01*
X129101505Y-74128597D01*
X128971575Y-74314158D01*
X128916998Y-74357783D01*
X128847500Y-74364977D01*
X128785145Y-74333454D01*
X128768425Y-74314158D01*
X128638494Y-74128597D01*
X128471402Y-73961506D01*
X128471395Y-73961501D01*
X128444190Y-73942452D01*
X128394518Y-73907671D01*
X128277834Y-73825967D01*
X128277830Y-73825965D01*
X128242276Y-73809386D01*
X128063663Y-73726097D01*
X128063659Y-73726096D01*
X128063655Y-73726094D01*
X127835413Y-73664938D01*
X127835403Y-73664936D01*
X127600001Y-73644341D01*
X127599999Y-73644341D01*
X127364596Y-73664936D01*
X127364586Y-73664938D01*
X127136344Y-73726094D01*
X127136335Y-73726098D01*
X126922171Y-73825964D01*
X126922169Y-73825965D01*
X126728597Y-73961505D01*
X126561505Y-74128597D01*
X126431575Y-74314158D01*
X126376998Y-74357783D01*
X126307500Y-74364977D01*
X126245145Y-74333454D01*
X126228425Y-74314158D01*
X126098494Y-74128597D01*
X125931402Y-73961506D01*
X125931395Y-73961501D01*
X125904190Y-73942452D01*
X125854518Y-73907671D01*
X125737834Y-73825967D01*
X125737830Y-73825965D01*
X125702276Y-73809386D01*
X125523663Y-73726097D01*
X125523659Y-73726096D01*
X125523655Y-73726094D01*
X125295413Y-73664938D01*
X125295403Y-73664936D01*
X125060001Y-73644341D01*
X125059999Y-73644341D01*
X124824596Y-73664936D01*
X124824586Y-73664938D01*
X124596344Y-73726094D01*
X124596335Y-73726098D01*
X124382171Y-73825964D01*
X124382169Y-73825965D01*
X124188597Y-73961505D01*
X124021505Y-74128597D01*
X123891575Y-74314158D01*
X123836998Y-74357783D01*
X123767500Y-74364977D01*
X123705145Y-74333454D01*
X123688425Y-74314158D01*
X123558494Y-74128597D01*
X123391402Y-73961506D01*
X123391395Y-73961501D01*
X123364190Y-73942452D01*
X123314518Y-73907671D01*
X123197834Y-73825967D01*
X123197830Y-73825965D01*
X123162276Y-73809386D01*
X122983663Y-73726097D01*
X122983659Y-73726096D01*
X122983655Y-73726094D01*
X122755413Y-73664938D01*
X122755403Y-73664936D01*
X122520001Y-73644341D01*
X122519999Y-73644341D01*
X122284596Y-73664936D01*
X122284586Y-73664938D01*
X122056344Y-73726094D01*
X122056335Y-73726098D01*
X121842171Y-73825964D01*
X121842169Y-73825965D01*
X121648597Y-73961505D01*
X121481505Y-74128597D01*
X121345965Y-74322169D01*
X121345964Y-74322171D01*
X121246098Y-74536335D01*
X121246094Y-74536344D01*
X121184938Y-74764586D01*
X121184936Y-74764596D01*
X121164341Y-74999999D01*
X118795659Y-74999999D01*
X118775063Y-74764592D01*
X118713903Y-74536337D01*
X118614035Y-74322171D01*
X118608425Y-74314158D01*
X118478494Y-74128597D01*
X118311402Y-73961506D01*
X118311395Y-73961501D01*
X118284190Y-73942452D01*
X118234518Y-73907671D01*
X118117834Y-73825967D01*
X118117830Y-73825965D01*
X118082276Y-73809386D01*
X117903663Y-73726097D01*
X117903659Y-73726096D01*
X117903655Y-73726094D01*
X117675413Y-73664938D01*
X117675403Y-73664936D01*
X117440001Y-73644341D01*
X117439999Y-73644341D01*
X117204596Y-73664936D01*
X117204586Y-73664938D01*
X116976344Y-73726094D01*
X116976335Y-73726098D01*
X116762171Y-73825964D01*
X116762169Y-73825965D01*
X116568597Y-73961505D01*
X116401505Y-74128597D01*
X116271575Y-74314158D01*
X116216998Y-74357783D01*
X116147500Y-74364977D01*
X116085145Y-74333454D01*
X116068425Y-74314158D01*
X115938494Y-74128597D01*
X115771402Y-73961506D01*
X115771395Y-73961501D01*
X115744190Y-73942452D01*
X115694518Y-73907671D01*
X115577834Y-73825967D01*
X115577830Y-73825965D01*
X115542276Y-73809386D01*
X115363663Y-73726097D01*
X115363659Y-73726096D01*
X115363655Y-73726094D01*
X115135413Y-73664938D01*
X115135403Y-73664936D01*
X114900001Y-73644341D01*
X114899999Y-73644341D01*
X114664596Y-73664936D01*
X114664586Y-73664938D01*
X114436344Y-73726094D01*
X114436335Y-73726098D01*
X114222171Y-73825964D01*
X114222169Y-73825965D01*
X114028597Y-73961505D01*
X113861505Y-74128597D01*
X113731575Y-74314158D01*
X113676998Y-74357783D01*
X113607500Y-74364977D01*
X113545145Y-74333454D01*
X113528425Y-74314158D01*
X113398494Y-74128597D01*
X113231402Y-73961506D01*
X113231395Y-73961501D01*
X113204190Y-73942452D01*
X113154518Y-73907671D01*
X113037831Y-73825965D01*
X113037826Y-73825962D01*
X113032091Y-73823288D01*
X112979653Y-73777113D01*
X112960500Y-73710908D01*
X112960500Y-71940097D01*
X112980185Y-71873058D01*
X112996819Y-71852416D01*
X113212417Y-71636819D01*
X113273740Y-71603334D01*
X113300098Y-71600500D01*
X140449903Y-71600500D01*
X140516942Y-71620185D01*
X140537584Y-71636819D01*
X141064181Y-72163416D01*
X141097666Y-72224739D01*
X141100500Y-72251097D01*
X141100500Y-72708902D01*
X141080815Y-72775941D01*
X141064181Y-72796583D01*
X140406286Y-73454478D01*
X140406284Y-73454480D01*
X140327702Y-73533062D01*
X140301527Y-73559237D01*
X140257182Y-73587736D01*
X140207665Y-73606205D01*
X140092455Y-73692452D01*
X140092452Y-73692455D01*
X140006206Y-73807664D01*
X140006202Y-73807671D01*
X139955908Y-73942517D01*
X139949501Y-74002116D01*
X139949500Y-74002135D01*
X139949500Y-74997870D01*
X139949501Y-74997876D01*
X139955908Y-75057483D01*
X140006202Y-75192328D01*
X140006206Y-75192335D01*
X140092452Y-75307544D01*
X140092455Y-75307547D01*
X140207664Y-75393793D01*
X140207671Y-75393797D01*
X140252618Y-75410561D01*
X140342517Y-75444091D01*
X140402127Y-75450500D01*
X141147872Y-75450499D01*
X141170233Y-75448095D01*
X141238992Y-75460501D01*
X141290129Y-75508112D01*
X141307408Y-75575811D01*
X141306224Y-75584748D01*
X141306739Y-75584804D01*
X141305910Y-75592514D01*
X141305909Y-75592517D01*
X141299500Y-75652127D01*
X141299500Y-75652134D01*
X141299500Y-75652135D01*
X141299500Y-76397870D01*
X141299501Y-76397876D01*
X141305908Y-76457483D01*
X141356202Y-76592328D01*
X141356206Y-76592335D01*
X141442452Y-76707544D01*
X141442455Y-76707547D01*
X141557664Y-76793793D01*
X141557671Y-76793797D01*
X141692517Y-76844091D01*
X141692516Y-76844091D01*
X141699444Y-76844835D01*
X141752127Y-76850500D01*
X142747872Y-76850499D01*
X142807483Y-76844091D01*
X142942331Y-76793796D01*
X143057546Y-76707546D01*
X143143796Y-76592331D01*
X143194091Y-76457483D01*
X143200500Y-76397873D01*
X143200499Y-75652128D01*
X143194091Y-75592517D01*
X143191214Y-75584804D01*
X143143797Y-75457671D01*
X143143793Y-75457664D01*
X143057548Y-75342457D01*
X143057545Y-75342453D01*
X143052849Y-75338938D01*
X143038247Y-75328007D01*
X142996378Y-75272075D01*
X142991393Y-75202384D01*
X142996384Y-75185390D01*
X142997971Y-75181138D01*
X143039856Y-75125215D01*
X143105326Y-75100814D01*
X143114142Y-75100500D01*
X145203331Y-75100500D01*
X145203347Y-75100501D01*
X145210943Y-75100501D01*
X145369054Y-75100501D01*
X145369057Y-75100501D01*
X145521785Y-75059577D01*
X145578610Y-75026769D01*
X145578611Y-75026769D01*
X145658709Y-74980524D01*
X145658708Y-74980524D01*
X145658716Y-74980520D01*
X145770520Y-74868716D01*
X145770520Y-74868714D01*
X145780724Y-74858511D01*
X145780728Y-74858506D01*
X147008317Y-73630916D01*
X147069638Y-73597433D01*
X147118778Y-73596711D01*
X147187190Y-73609500D01*
X147187191Y-73609500D01*
X147392808Y-73609500D01*
X147392810Y-73609500D01*
X147594930Y-73571717D01*
X147786665Y-73497438D01*
X147961487Y-73389193D01*
X148113443Y-73250667D01*
X148237357Y-73086579D01*
X148329010Y-72902515D01*
X148329010Y-72902512D01*
X148329012Y-72902510D01*
X148376132Y-72736897D01*
X148385281Y-72704743D01*
X148404253Y-72500000D01*
X148385281Y-72295257D01*
X148365217Y-72224739D01*
X148329012Y-72097489D01*
X148329009Y-72097483D01*
X148305624Y-72050520D01*
X148237357Y-71913421D01*
X148113443Y-71749333D01*
X148091203Y-71729059D01*
X147961487Y-71610807D01*
X147961485Y-71610805D01*
X147786668Y-71502563D01*
X147786662Y-71502561D01*
X147594930Y-71428283D01*
X147392810Y-71390500D01*
X147187190Y-71390500D01*
X146985070Y-71428283D01*
X146870660Y-71472606D01*
X146793337Y-71502561D01*
X146793331Y-71502563D01*
X146618514Y-71610805D01*
X146618512Y-71610807D01*
X146466558Y-71749331D01*
X146342643Y-71913420D01*
X146250990Y-72097483D01*
X146250987Y-72097489D01*
X146194719Y-72295254D01*
X146194718Y-72295257D01*
X146175747Y-72499999D01*
X146175747Y-72500001D01*
X146192850Y-72684581D01*
X146179435Y-72753151D01*
X146157060Y-72783703D01*
X146027501Y-72913263D01*
X145966180Y-72946747D01*
X145896488Y-72941763D01*
X145840554Y-72899892D01*
X145816137Y-72834428D01*
X145820555Y-72791647D01*
X145836132Y-72736897D01*
X145845281Y-72704743D01*
X145864253Y-72500000D01*
X145845281Y-72295257D01*
X145825217Y-72224739D01*
X145789012Y-72097489D01*
X145789009Y-72097483D01*
X145765624Y-72050520D01*
X145697357Y-71913421D01*
X145573443Y-71749333D01*
X145551203Y-71729059D01*
X145421487Y-71610807D01*
X145421485Y-71610805D01*
X145246668Y-71502563D01*
X145246662Y-71502561D01*
X145054930Y-71428283D01*
X144852810Y-71390500D01*
X144647190Y-71390500D01*
X144445070Y-71428283D01*
X144330660Y-71472606D01*
X144253337Y-71502561D01*
X144253331Y-71502563D01*
X144078514Y-71610805D01*
X144078512Y-71610807D01*
X143926558Y-71749331D01*
X143802643Y-71913420D01*
X143710990Y-72097483D01*
X143710987Y-72097489D01*
X143654719Y-72295254D01*
X143654718Y-72295257D01*
X143635747Y-72499999D01*
X143635747Y-72500000D01*
X143654718Y-72704742D01*
X143654719Y-72704745D01*
X143710987Y-72902510D01*
X143710990Y-72902515D01*
X143802643Y-73086579D01*
X143900742Y-73216483D01*
X143926558Y-73250668D01*
X144078512Y-73389192D01*
X144078514Y-73389194D01*
X144253331Y-73497436D01*
X144253332Y-73497436D01*
X144253335Y-73497438D01*
X144445070Y-73571717D01*
X144647190Y-73609500D01*
X144647192Y-73609500D01*
X144852807Y-73609500D01*
X144852810Y-73609500D01*
X145047656Y-73573076D01*
X145117166Y-73580107D01*
X145171845Y-73623604D01*
X145194328Y-73689758D01*
X145177476Y-73757565D01*
X145158119Y-73782645D01*
X145077582Y-73863182D01*
X145016262Y-73896666D01*
X144989903Y-73899500D01*
X143114141Y-73899500D01*
X143047102Y-73879815D01*
X143001347Y-73827011D01*
X142997969Y-73818859D01*
X142993796Y-73807669D01*
X142993792Y-73807664D01*
X142970922Y-73777113D01*
X142958651Y-73760722D01*
X142934235Y-73695259D01*
X142949086Y-73626986D01*
X142998491Y-73577580D01*
X143014576Y-73570234D01*
X143061331Y-73552796D01*
X143176546Y-73466546D01*
X143262796Y-73351331D01*
X143313091Y-73216483D01*
X143319500Y-73156873D01*
X143319499Y-71843128D01*
X143313091Y-71783517D01*
X143300341Y-71749333D01*
X143262797Y-71648671D01*
X143262793Y-71648664D01*
X143176547Y-71533455D01*
X143176544Y-71533452D01*
X143061335Y-71447206D01*
X143061328Y-71447202D01*
X142926482Y-71396908D01*
X142926483Y-71396908D01*
X142866883Y-71390501D01*
X142866881Y-71390500D01*
X142866873Y-71390500D01*
X142866865Y-71390500D01*
X142041098Y-71390500D01*
X141974059Y-71370815D01*
X141953417Y-71354181D01*
X141237590Y-70638355D01*
X141237588Y-70638352D01*
X141118717Y-70519481D01*
X141118716Y-70519480D01*
X141031904Y-70469360D01*
X141031904Y-70469359D01*
X141031900Y-70469358D01*
X140981785Y-70440423D01*
X140829057Y-70399499D01*
X140670943Y-70399499D01*
X140663347Y-70399499D01*
X140663331Y-70399500D01*
X113086670Y-70399500D01*
X113086654Y-70399499D01*
X113079058Y-70399499D01*
X112920943Y-70399499D01*
X112851234Y-70418178D01*
X112768214Y-70440423D01*
X112768209Y-70440426D01*
X112631290Y-70519475D01*
X112631282Y-70519481D01*
X111879481Y-71271282D01*
X111879477Y-71271287D01*
X111840838Y-71338214D01*
X111840838Y-71338215D01*
X111800423Y-71408214D01*
X111796209Y-71423942D01*
X111759499Y-71560943D01*
X111759499Y-71560945D01*
X111759499Y-71729046D01*
X111759500Y-71729059D01*
X111759500Y-73710908D01*
X111739815Y-73777947D01*
X111687914Y-73823286D01*
X111682173Y-73825963D01*
X111682169Y-73825965D01*
X111488597Y-73961505D01*
X111321505Y-74128597D01*
X111191575Y-74314158D01*
X111136998Y-74357783D01*
X111067500Y-74364977D01*
X111005145Y-74333454D01*
X110988425Y-74314158D01*
X110858494Y-74128597D01*
X110691402Y-73961506D01*
X110691395Y-73961501D01*
X110664190Y-73942452D01*
X110614518Y-73907671D01*
X110497834Y-73825967D01*
X110497830Y-73825965D01*
X110462276Y-73809386D01*
X110283663Y-73726097D01*
X110283659Y-73726096D01*
X110283655Y-73726094D01*
X110055413Y-73664938D01*
X110055403Y-73664936D01*
X109820001Y-73644341D01*
X109819999Y-73644341D01*
X109584596Y-73664936D01*
X109584586Y-73664938D01*
X109356344Y-73726094D01*
X109356335Y-73726098D01*
X109142171Y-73825964D01*
X109142169Y-73825965D01*
X108948600Y-73961503D01*
X108826673Y-74083430D01*
X108765350Y-74116914D01*
X108695658Y-74111930D01*
X108639725Y-74070058D01*
X108622810Y-74039081D01*
X108573797Y-73907671D01*
X108573793Y-73907664D01*
X108487547Y-73792455D01*
X108487544Y-73792452D01*
X108372335Y-73706206D01*
X108372328Y-73706202D01*
X108237482Y-73655908D01*
X108237483Y-73655908D01*
X108177883Y-73649501D01*
X108177881Y-73649500D01*
X108177873Y-73649500D01*
X108177864Y-73649500D01*
X106382129Y-73649500D01*
X106382123Y-73649501D01*
X106322516Y-73655908D01*
X106187671Y-73706202D01*
X106187664Y-73706206D01*
X106072455Y-73792452D01*
X106072452Y-73792455D01*
X105986206Y-73907664D01*
X105986202Y-73907671D01*
X105935908Y-74042517D01*
X105929501Y-74102116D01*
X105929500Y-74102135D01*
X105929500Y-75897870D01*
X105929501Y-75897876D01*
X105935908Y-75957483D01*
X105986202Y-76092328D01*
X105986206Y-76092335D01*
X106072452Y-76207544D01*
X106072455Y-76207547D01*
X106187664Y-76293793D01*
X106187671Y-76293797D01*
X106322517Y-76344091D01*
X106322516Y-76344091D01*
X106329444Y-76344835D01*
X106382127Y-76350500D01*
X108177872Y-76350499D01*
X108237483Y-76344091D01*
X108372331Y-76293796D01*
X108487546Y-76207546D01*
X108573796Y-76092331D01*
X108622810Y-75960916D01*
X108664681Y-75904984D01*
X108730145Y-75880566D01*
X108798418Y-75895417D01*
X108826670Y-75916566D01*
X108899046Y-75988942D01*
X108942753Y-76032649D01*
X108976237Y-76093972D01*
X108971253Y-76163664D01*
X108942752Y-76208011D01*
X107731286Y-77419478D01*
X107619481Y-77531282D01*
X107619479Y-77531284D01*
X107603287Y-77559330D01*
X107596443Y-77571186D01*
X107596442Y-77571188D01*
X107542805Y-77664090D01*
X107540423Y-77668215D01*
X107499499Y-77820943D01*
X107499499Y-77820945D01*
X107499499Y-77989046D01*
X107499500Y-77989059D01*
X107499500Y-79483288D01*
X107479815Y-79550327D01*
X107473876Y-79558774D01*
X107381986Y-79678527D01*
X107381983Y-79678532D01*
X107324250Y-79817913D01*
X107324249Y-79817917D01*
X107309500Y-79929939D01*
X107309500Y-81070054D01*
X107324247Y-81182075D01*
X107324250Y-81182086D01*
X107381983Y-81321467D01*
X107381983Y-81321468D01*
X107381985Y-81321471D01*
X107381986Y-81321472D01*
X107473832Y-81441168D01*
X107593528Y-81533014D01*
X107593531Y-81533015D01*
X107593532Y-81533016D01*
X107663222Y-81561882D01*
X107732917Y-81590751D01*
X107844947Y-81605500D01*
X107976099Y-81605499D01*
X108043139Y-81625183D01*
X108063781Y-81641818D01*
X108114782Y-81692819D01*
X108148267Y-81754142D01*
X108143283Y-81823834D01*
X108101411Y-81879767D01*
X108035947Y-81904184D01*
X108027102Y-81904500D01*
X107844945Y-81904500D01*
X107732924Y-81919247D01*
X107732913Y-81919250D01*
X107593532Y-81976983D01*
X107593531Y-81976983D01*
X107473831Y-82068833D01*
X107437874Y-82115693D01*
X107381445Y-82156895D01*
X107311699Y-82161049D01*
X107250779Y-82126836D01*
X107218027Y-82065118D01*
X107215499Y-82040210D01*
X107215499Y-81652224D01*
X107215489Y-81652103D01*
X107214680Y-81641818D01*
X107212782Y-81617685D01*
X107169836Y-81469865D01*
X107098948Y-81350000D01*
X107091480Y-81337372D01*
X107091473Y-81337363D01*
X106982636Y-81228526D01*
X106982627Y-81228519D01*
X106850133Y-81150163D01*
X106850130Y-81150162D01*
X106702319Y-81107218D01*
X106702313Y-81107217D01*
X106667777Y-81104500D01*
X105892235Y-81104500D01*
X105892210Y-81104501D01*
X105857684Y-81107218D01*
X105709869Y-81150162D01*
X105709866Y-81150163D01*
X105577372Y-81228519D01*
X105577363Y-81228526D01*
X105468526Y-81337363D01*
X105468519Y-81337372D01*
X105390163Y-81469866D01*
X105390162Y-81469869D01*
X105347218Y-81617680D01*
X105347217Y-81617686D01*
X105344500Y-81652215D01*
X105344500Y-82487764D01*
X105344501Y-82487789D01*
X105347218Y-82522315D01*
X105390162Y-82670130D01*
X105390163Y-82670133D01*
X105468519Y-82802627D01*
X105468526Y-82802636D01*
X105577363Y-82911473D01*
X105577366Y-82911475D01*
X105577369Y-82911478D01*
X105630924Y-82943150D01*
X105678606Y-82994217D01*
X105691110Y-83062958D01*
X105664466Y-83127548D01*
X105627240Y-83158707D01*
X105622676Y-83161199D01*
X105622669Y-83161203D01*
X105622669Y-83161204D01*
X105507454Y-83247454D01*
X105507453Y-83247455D01*
X105507452Y-83247456D01*
X105421206Y-83362664D01*
X105421202Y-83362671D01*
X105370908Y-83497517D01*
X105364501Y-83557116D01*
X105364500Y-83557135D01*
X105364500Y-84582870D01*
X105364501Y-84582876D01*
X105370908Y-84642483D01*
X105421202Y-84777328D01*
X105421206Y-84777335D01*
X105507452Y-84892544D01*
X105507455Y-84892547D01*
X105622664Y-84978793D01*
X105622671Y-84978797D01*
X105757517Y-85029091D01*
X105757516Y-85029091D01*
X105764444Y-85029835D01*
X105817127Y-85035500D01*
X106782872Y-85035499D01*
X106842483Y-85029091D01*
X106977331Y-84978796D01*
X107092546Y-84892546D01*
X107178796Y-84777331D01*
X107229091Y-84642483D01*
X107235500Y-84582873D01*
X107235499Y-84005856D01*
X107255183Y-83938819D01*
X107307987Y-83893064D01*
X107377146Y-83883120D01*
X107440702Y-83912145D01*
X107457873Y-83930370D01*
X107473832Y-83951168D01*
X107593528Y-84043014D01*
X107593531Y-84043015D01*
X107593532Y-84043016D01*
X107654419Y-84068236D01*
X107732917Y-84100751D01*
X107844947Y-84115500D01*
X108325500Y-84115499D01*
X108392539Y-84135183D01*
X108438294Y-84187987D01*
X108449500Y-84239499D01*
X108449500Y-84649903D01*
X108429815Y-84716942D01*
X108413181Y-84737584D01*
X103477584Y-89673181D01*
X103416261Y-89706666D01*
X103389903Y-89709500D01*
X101110097Y-89709500D01*
X101043058Y-89689815D01*
X101022416Y-89673181D01*
X100487590Y-89138355D01*
X100487588Y-89138352D01*
X100368717Y-89019481D01*
X100368716Y-89019480D01*
X100281904Y-88969360D01*
X100281904Y-88969359D01*
X100281900Y-88969358D01*
X100231785Y-88940423D01*
X100079057Y-88899499D01*
X99920943Y-88899499D01*
X99913347Y-88899499D01*
X99913331Y-88899500D01*
X93300097Y-88899500D01*
X93233058Y-88879815D01*
X93212416Y-88863181D01*
X92003059Y-87653824D01*
X91969574Y-87592501D01*
X91974558Y-87522809D01*
X92016430Y-87466876D01*
X92081894Y-87442459D01*
X92143143Y-87453760D01*
X92230670Y-87494575D01*
X92442023Y-87551207D01*
X92624926Y-87567208D01*
X92659998Y-87570277D01*
X92660000Y-87570277D01*
X92660002Y-87570277D01*
X92688254Y-87567805D01*
X92877977Y-87551207D01*
X93089330Y-87494575D01*
X93287639Y-87402102D01*
X93466877Y-87276598D01*
X93621598Y-87121877D01*
X93747102Y-86942639D01*
X93839575Y-86744330D01*
X93896207Y-86532977D01*
X93912805Y-86343254D01*
X93915277Y-86315002D01*
X93915277Y-86314997D01*
X93904743Y-86194596D01*
X93896207Y-86097023D01*
X93839575Y-85885670D01*
X93747102Y-85687362D01*
X93747100Y-85687359D01*
X93747099Y-85687357D01*
X93621599Y-85508124D01*
X93547457Y-85433982D01*
X93466877Y-85353402D01*
X93294983Y-85233040D01*
X93287638Y-85227897D01*
X93133661Y-85156097D01*
X93089330Y-85135425D01*
X93089326Y-85135424D01*
X93089322Y-85135422D01*
X92877977Y-85078793D01*
X92660002Y-85059723D01*
X92659998Y-85059723D01*
X92514682Y-85072436D01*
X92442023Y-85078793D01*
X92442020Y-85078793D01*
X92230677Y-85135422D01*
X92230668Y-85135426D01*
X92032361Y-85227898D01*
X92032357Y-85227900D01*
X91853121Y-85353402D01*
X91812181Y-85394343D01*
X91750858Y-85427828D01*
X91681166Y-85422844D01*
X91625233Y-85380972D01*
X91600816Y-85315508D01*
X91600500Y-85306662D01*
X91600500Y-82473337D01*
X91620185Y-82406298D01*
X91672989Y-82360543D01*
X91742147Y-82350599D01*
X91805703Y-82379624D01*
X91812181Y-82385656D01*
X91853123Y-82426598D01*
X92032361Y-82552102D01*
X92230670Y-82644575D01*
X92442023Y-82701207D01*
X92624926Y-82717208D01*
X92659998Y-82720277D01*
X92660000Y-82720277D01*
X92660002Y-82720277D01*
X92688254Y-82717805D01*
X92877977Y-82701207D01*
X93089330Y-82644575D01*
X93287639Y-82552102D01*
X93466877Y-82426598D01*
X93621598Y-82271877D01*
X93747102Y-82092639D01*
X93839575Y-81894330D01*
X93896207Y-81682977D01*
X93914851Y-81469866D01*
X93915277Y-81465002D01*
X93915277Y-81464997D01*
X93908597Y-81388642D01*
X93896207Y-81247023D01*
X93843916Y-81051870D01*
X93839577Y-81035677D01*
X93839576Y-81035676D01*
X93839575Y-81035670D01*
X93747102Y-80837362D01*
X93747100Y-80837359D01*
X93747099Y-80837357D01*
X93621599Y-80658124D01*
X93621598Y-80658123D01*
X93466877Y-80503402D01*
X93287639Y-80377898D01*
X93287640Y-80377898D01*
X93287638Y-80377897D01*
X93188484Y-80331661D01*
X93089330Y-80285425D01*
X93089326Y-80285424D01*
X93089322Y-80285422D01*
X92877977Y-80228793D01*
X92660002Y-80209723D01*
X92659998Y-80209723D01*
X92514682Y-80222436D01*
X92442023Y-80228793D01*
X92442020Y-80228793D01*
X92230677Y-80285422D01*
X92230668Y-80285426D01*
X92032361Y-80377898D01*
X92032357Y-80377900D01*
X91853121Y-80503402D01*
X91812181Y-80544343D01*
X91750858Y-80577828D01*
X91681166Y-80572844D01*
X91625233Y-80530972D01*
X91600816Y-80465508D01*
X91600500Y-80456662D01*
X91600500Y-76441976D01*
X91620185Y-76374937D01*
X91672989Y-76329182D01*
X91742147Y-76319238D01*
X91756590Y-76322200D01*
X91804592Y-76335063D01*
X91981034Y-76350500D01*
X92039999Y-76355659D01*
X92040000Y-76355659D01*
X92040001Y-76355659D01*
X92098966Y-76350500D01*
X92275408Y-76335063D01*
X92503663Y-76273903D01*
X92717830Y-76174035D01*
X92911401Y-76038495D01*
X93078495Y-75871401D01*
X93214035Y-75677830D01*
X93313903Y-75463663D01*
X93375063Y-75235408D01*
X93395659Y-75000000D01*
X93395659Y-74999999D01*
X95764341Y-74999999D01*
X95764341Y-75000000D01*
X95784936Y-75235403D01*
X95784938Y-75235413D01*
X95846094Y-75463655D01*
X95846096Y-75463659D01*
X95846097Y-75463663D01*
X95933980Y-75652128D01*
X95945965Y-75677830D01*
X95945967Y-75677834D01*
X96032013Y-75800719D01*
X96081505Y-75871401D01*
X96248599Y-76038495D01*
X96327828Y-76093972D01*
X96442165Y-76174032D01*
X96442167Y-76174033D01*
X96442170Y-76174035D01*
X96656337Y-76273903D01*
X96656343Y-76273904D01*
X96656344Y-76273905D01*
X96683059Y-76281063D01*
X96884592Y-76335063D01*
X97061034Y-76350500D01*
X97119999Y-76355659D01*
X97120000Y-76355659D01*
X97120001Y-76355659D01*
X97178966Y-76350500D01*
X97355408Y-76335063D01*
X97583663Y-76273903D01*
X97797830Y-76174035D01*
X97991401Y-76038495D01*
X98158495Y-75871401D01*
X98283397Y-75693023D01*
X98288425Y-75685842D01*
X98343002Y-75642217D01*
X98412500Y-75635023D01*
X98474855Y-75666546D01*
X98491575Y-75685842D01*
X98621500Y-75871395D01*
X98621505Y-75871401D01*
X98788599Y-76038495D01*
X98867828Y-76093972D01*
X98982165Y-76174032D01*
X98982167Y-76174033D01*
X98982170Y-76174035D01*
X99196337Y-76273903D01*
X99196343Y-76273904D01*
X99196344Y-76273905D01*
X99223059Y-76281063D01*
X99424592Y-76335063D01*
X99601034Y-76350500D01*
X99659999Y-76355659D01*
X99660000Y-76355659D01*
X99660001Y-76355659D01*
X99718966Y-76350500D01*
X99895408Y-76335063D01*
X100123663Y-76273903D01*
X100337830Y-76174035D01*
X100531401Y-76038495D01*
X100698495Y-75871401D01*
X100823397Y-75693023D01*
X100828425Y-75685842D01*
X100883002Y-75642217D01*
X100952500Y-75635023D01*
X101014855Y-75666546D01*
X101031575Y-75685842D01*
X101161500Y-75871395D01*
X101161505Y-75871401D01*
X101328599Y-76038495D01*
X101407828Y-76093972D01*
X101522165Y-76174032D01*
X101522167Y-76174033D01*
X101522170Y-76174035D01*
X101736337Y-76273903D01*
X101736343Y-76273904D01*
X101736344Y-76273905D01*
X101763059Y-76281063D01*
X101964592Y-76335063D01*
X102141034Y-76350500D01*
X102199999Y-76355659D01*
X102200000Y-76355659D01*
X102200001Y-76355659D01*
X102258966Y-76350500D01*
X102435408Y-76335063D01*
X102663663Y-76273903D01*
X102877830Y-76174035D01*
X103071401Y-76038495D01*
X103238495Y-75871401D01*
X103374035Y-75677830D01*
X103473903Y-75463663D01*
X103535063Y-75235408D01*
X103555659Y-75000000D01*
X103535063Y-74764592D01*
X103473903Y-74536337D01*
X103374035Y-74322171D01*
X103368425Y-74314158D01*
X103238494Y-74128597D01*
X103071402Y-73961506D01*
X103071395Y-73961501D01*
X103044190Y-73942452D01*
X102994518Y-73907671D01*
X102877834Y-73825967D01*
X102877830Y-73825965D01*
X102842276Y-73809386D01*
X102663663Y-73726097D01*
X102663659Y-73726096D01*
X102663655Y-73726094D01*
X102435413Y-73664938D01*
X102435403Y-73664936D01*
X102200001Y-73644341D01*
X102199999Y-73644341D01*
X101964596Y-73664936D01*
X101964586Y-73664938D01*
X101736344Y-73726094D01*
X101736335Y-73726098D01*
X101522171Y-73825964D01*
X101522169Y-73825965D01*
X101328597Y-73961505D01*
X101161505Y-74128597D01*
X101031575Y-74314158D01*
X100976998Y-74357783D01*
X100907500Y-74364977D01*
X100845145Y-74333454D01*
X100828425Y-74314158D01*
X100698494Y-74128597D01*
X100531402Y-73961506D01*
X100531395Y-73961501D01*
X100504190Y-73942452D01*
X100454518Y-73907671D01*
X100337834Y-73825967D01*
X100337830Y-73825965D01*
X100302276Y-73809386D01*
X100123663Y-73726097D01*
X100123659Y-73726096D01*
X100123655Y-73726094D01*
X99895413Y-73664938D01*
X99895403Y-73664936D01*
X99660001Y-73644341D01*
X99659999Y-73644341D01*
X99424596Y-73664936D01*
X99424586Y-73664938D01*
X99196344Y-73726094D01*
X99196335Y-73726098D01*
X98982171Y-73825964D01*
X98982169Y-73825965D01*
X98788597Y-73961505D01*
X98621505Y-74128597D01*
X98491575Y-74314158D01*
X98436998Y-74357783D01*
X98367500Y-74364977D01*
X98305145Y-74333454D01*
X98288425Y-74314158D01*
X98158494Y-74128597D01*
X97991402Y-73961506D01*
X97991395Y-73961501D01*
X97964190Y-73942452D01*
X97914518Y-73907671D01*
X97797834Y-73825967D01*
X97797830Y-73825965D01*
X97762276Y-73809386D01*
X97583663Y-73726097D01*
X97583659Y-73726096D01*
X97583655Y-73726094D01*
X97355413Y-73664938D01*
X97355403Y-73664936D01*
X97120001Y-73644341D01*
X97119999Y-73644341D01*
X96884596Y-73664936D01*
X96884586Y-73664938D01*
X96656344Y-73726094D01*
X96656335Y-73726098D01*
X96442171Y-73825964D01*
X96442169Y-73825965D01*
X96248597Y-73961505D01*
X96081505Y-74128597D01*
X95945965Y-74322169D01*
X95945964Y-74322171D01*
X95846098Y-74536335D01*
X95846094Y-74536344D01*
X95784938Y-74764586D01*
X95784936Y-74764596D01*
X95764341Y-74999999D01*
X93395659Y-74999999D01*
X93375063Y-74764592D01*
X93313903Y-74536337D01*
X93214035Y-74322171D01*
X93208425Y-74314158D01*
X93078494Y-74128597D01*
X92911402Y-73961506D01*
X92911395Y-73961501D01*
X92884190Y-73942452D01*
X92834518Y-73907671D01*
X92717834Y-73825967D01*
X92717830Y-73825965D01*
X92682276Y-73809386D01*
X92503663Y-73726097D01*
X92503659Y-73726096D01*
X92503655Y-73726094D01*
X92275413Y-73664938D01*
X92275403Y-73664936D01*
X92040001Y-73644341D01*
X92039999Y-73644341D01*
X91804596Y-73664936D01*
X91804583Y-73664939D01*
X91646592Y-73707271D01*
X91576742Y-73705608D01*
X91518880Y-73666445D01*
X91491377Y-73602216D01*
X91490500Y-73587496D01*
X91490500Y-72144463D01*
X91510185Y-72077424D01*
X91562989Y-72031669D01*
X91632147Y-72021725D01*
X91659293Y-72028835D01*
X91747544Y-72063024D01*
X91948024Y-72100500D01*
X91948026Y-72100500D01*
X92151974Y-72100500D01*
X92151976Y-72100500D01*
X92352456Y-72063024D01*
X92542637Y-71989348D01*
X92716041Y-71881981D01*
X92866764Y-71744579D01*
X92989673Y-71581821D01*
X93080582Y-71399250D01*
X93136397Y-71203083D01*
X93155215Y-71000000D01*
X93150796Y-70952315D01*
X93136397Y-70796917D01*
X93080582Y-70600750D01*
X92989673Y-70418179D01*
X92866764Y-70255421D01*
X92866762Y-70255418D01*
X92716041Y-70118019D01*
X92716039Y-70118017D01*
X92542642Y-70010655D01*
X92542635Y-70010651D01*
X92447546Y-69973814D01*
X92352456Y-69936976D01*
X92151976Y-69899500D01*
X91948024Y-69899500D01*
X91889540Y-69910432D01*
X91784406Y-69930085D01*
X91714891Y-69923054D01*
X91660213Y-69879556D01*
X91637731Y-69813402D01*
X91644581Y-69767241D01*
X91675366Y-69679262D01*
X91675369Y-69679249D01*
X91695565Y-69500003D01*
X91695565Y-69499996D01*
X91675369Y-69320750D01*
X91675368Y-69320745D01*
X91615788Y-69150476D01*
X91519815Y-68997737D01*
X91392262Y-68870184D01*
X91239523Y-68774211D01*
X91069254Y-68714631D01*
X91069249Y-68714630D01*
X90890004Y-68694435D01*
X90889996Y-68694435D01*
X90710750Y-68714630D01*
X90710745Y-68714631D01*
X90540476Y-68774211D01*
X90387737Y-68870184D01*
X90260184Y-68997737D01*
X90164211Y-69150476D01*
X90104631Y-69320745D01*
X90104630Y-69320750D01*
X90084435Y-69499996D01*
X90084435Y-69500003D01*
X90104630Y-69679249D01*
X90104631Y-69679254D01*
X90166511Y-69856095D01*
X90164810Y-69856689D01*
X90174681Y-69916636D01*
X90146957Y-69980770D01*
X90088961Y-70019735D01*
X90019106Y-70021158D01*
X89996341Y-70012496D01*
X89992642Y-70010654D01*
X89915502Y-69980770D01*
X89802456Y-69936976D01*
X89601976Y-69899500D01*
X89398024Y-69899500D01*
X89197544Y-69936976D01*
X89197541Y-69936976D01*
X89197541Y-69936977D01*
X89007364Y-70010651D01*
X89007357Y-70010655D01*
X88833960Y-70118017D01*
X88833958Y-70118019D01*
X88683237Y-70255418D01*
X88560327Y-70418178D01*
X88469422Y-70600739D01*
X88469417Y-70600752D01*
X88413602Y-70796917D01*
X88394785Y-70999999D01*
X88394785Y-71000000D01*
X88413602Y-71203082D01*
X88469417Y-71399247D01*
X88469422Y-71399260D01*
X88560327Y-71581821D01*
X88683237Y-71744581D01*
X88833958Y-71881980D01*
X88833960Y-71881982D01*
X88883192Y-71912465D01*
X89007363Y-71989348D01*
X89197544Y-72063024D01*
X89398024Y-72100500D01*
X89398026Y-72100500D01*
X89601974Y-72100500D01*
X89601976Y-72100500D01*
X89802456Y-72063024D01*
X89992637Y-71989348D01*
X90100223Y-71922734D01*
X90167583Y-71904179D01*
X90234283Y-71924987D01*
X90279144Y-71978552D01*
X90289500Y-72028161D01*
X90289500Y-73683396D01*
X90269815Y-73750435D01*
X90217011Y-73796190D01*
X90147853Y-73806134D01*
X90113096Y-73795778D01*
X89963669Y-73726099D01*
X89963655Y-73726094D01*
X89735413Y-73664938D01*
X89735403Y-73664936D01*
X89500001Y-73644341D01*
X89499999Y-73644341D01*
X89264596Y-73664936D01*
X89264586Y-73664938D01*
X89036344Y-73726094D01*
X89036335Y-73726098D01*
X88822171Y-73825964D01*
X88822169Y-73825965D01*
X88628597Y-73961505D01*
X88461505Y-74128597D01*
X88325965Y-74322169D01*
X88325964Y-74322171D01*
X88226098Y-74536335D01*
X88226094Y-74536344D01*
X88164938Y-74764586D01*
X88164936Y-74764596D01*
X88144341Y-74999999D01*
X76000500Y-74999999D01*
X76000500Y-66124500D01*
X76020185Y-66057461D01*
X76072989Y-66011706D01*
X76124500Y-66000500D01*
X161934108Y-66000500D01*
X163375500Y-66000500D01*
X163442539Y-66020185D01*
G37*
%TD.AperFunction*%
%TD*%
%TA.AperFunction,Conductor*%
%TO.N,GND1*%
G36*
X193366643Y-66017404D02*
G01*
X193372467Y-66017682D01*
X194209267Y-66077531D01*
X194215113Y-66078089D01*
X195048108Y-66177686D01*
X195053907Y-66178519D01*
X195881239Y-66317643D01*
X195886968Y-66318747D01*
X196706725Y-66497075D01*
X196712435Y-66498460D01*
X197303246Y-66656766D01*
X197522764Y-66715586D01*
X197528427Y-66717249D01*
X198327492Y-66972682D01*
X198333027Y-66974597D01*
X199119067Y-67267775D01*
X199124543Y-67269968D01*
X199895700Y-67600196D01*
X199901043Y-67602636D01*
X200308608Y-67800619D01*
X200655645Y-67969199D01*
X200660885Y-67971901D01*
X201397170Y-68373943D01*
X201402264Y-68376884D01*
X202118586Y-68813505D01*
X202123551Y-68816696D01*
X202818275Y-69286899D01*
X202823082Y-69290322D01*
X203494637Y-69793042D01*
X203499277Y-69796690D01*
X204146179Y-70330817D01*
X204150639Y-70334682D01*
X204771379Y-70898973D01*
X204775650Y-70903046D01*
X205368823Y-71496219D01*
X205372896Y-71500490D01*
X205937187Y-72121230D01*
X205941052Y-72125690D01*
X206475179Y-72772592D01*
X206478827Y-72777232D01*
X206981547Y-73448787D01*
X206984970Y-73453594D01*
X207455173Y-74148318D01*
X207458364Y-74153283D01*
X207894980Y-74869597D01*
X207897931Y-74874708D01*
X208299965Y-75610978D01*
X208302670Y-75616224D01*
X208669227Y-76370814D01*
X208671678Y-76376182D01*
X209001900Y-77147323D01*
X209004094Y-77152802D01*
X209297264Y-77938821D01*
X209299194Y-77944399D01*
X209554620Y-78743442D01*
X209556283Y-78749105D01*
X209773406Y-79559421D01*
X209774797Y-79565156D01*
X209953115Y-80384868D01*
X209954232Y-80390663D01*
X210093346Y-81217941D01*
X210094186Y-81223783D01*
X210193778Y-82056742D01*
X210194339Y-82062617D01*
X210254185Y-82899366D01*
X210254466Y-82905261D01*
X210274429Y-83743919D01*
X210274429Y-83749821D01*
X210254466Y-84588478D01*
X210254185Y-84594373D01*
X210194339Y-85431122D01*
X210193778Y-85436997D01*
X210094186Y-86269956D01*
X210093346Y-86275798D01*
X209954232Y-87103076D01*
X209953115Y-87108871D01*
X209774797Y-87928583D01*
X209773406Y-87934318D01*
X209556283Y-88744634D01*
X209554620Y-88750297D01*
X209299194Y-89549340D01*
X209297264Y-89554918D01*
X209004094Y-90340937D01*
X209001900Y-90346416D01*
X208671678Y-91117557D01*
X208669227Y-91122925D01*
X208302670Y-91877515D01*
X208299965Y-91882761D01*
X207897931Y-92619031D01*
X207894980Y-92624142D01*
X207458364Y-93340456D01*
X207455173Y-93345421D01*
X206984970Y-94040145D01*
X206981547Y-94044952D01*
X206478827Y-94716507D01*
X206475179Y-94721147D01*
X205941052Y-95368049D01*
X205937187Y-95372509D01*
X205372896Y-95993249D01*
X205368823Y-95997520D01*
X204775650Y-96590693D01*
X204771379Y-96594766D01*
X204150639Y-97159057D01*
X204146179Y-97162922D01*
X203499277Y-97697049D01*
X203494637Y-97700697D01*
X202823082Y-98203417D01*
X202818275Y-98206840D01*
X202123551Y-98677043D01*
X202118586Y-98680234D01*
X201402272Y-99116850D01*
X201397161Y-99119801D01*
X200660891Y-99521835D01*
X200655645Y-99524540D01*
X199901055Y-99891097D01*
X199895687Y-99893548D01*
X199124546Y-100223770D01*
X199119067Y-100225964D01*
X198333048Y-100519134D01*
X198327470Y-100521064D01*
X197528427Y-100776490D01*
X197522764Y-100778153D01*
X196712448Y-100995276D01*
X196706713Y-100996667D01*
X195887001Y-101174985D01*
X195881206Y-101176102D01*
X195053928Y-101315216D01*
X195048086Y-101316056D01*
X194215127Y-101415648D01*
X194209252Y-101416209D01*
X193372503Y-101476055D01*
X193366608Y-101476336D01*
X192527951Y-101496299D01*
X192522049Y-101496299D01*
X191683391Y-101476336D01*
X191677496Y-101476055D01*
X190840747Y-101416209D01*
X190834872Y-101415648D01*
X190001913Y-101316056D01*
X189996071Y-101315216D01*
X189168793Y-101176102D01*
X189162998Y-101174985D01*
X188343286Y-100996667D01*
X188337551Y-100995276D01*
X187527235Y-100778153D01*
X187521572Y-100776490D01*
X186722529Y-100521064D01*
X186716951Y-100519134D01*
X185930932Y-100225964D01*
X185925453Y-100223770D01*
X185154312Y-99893548D01*
X185148944Y-99891097D01*
X184394354Y-99524540D01*
X184389108Y-99521835D01*
X183652838Y-99119801D01*
X183647727Y-99116850D01*
X182931413Y-98680234D01*
X182926448Y-98677043D01*
X182231724Y-98206840D01*
X182226917Y-98203417D01*
X181555362Y-97700697D01*
X181550722Y-97697049D01*
X180903820Y-97162922D01*
X180899360Y-97159057D01*
X180278620Y-96594766D01*
X180274349Y-96590693D01*
X179681176Y-95997520D01*
X179677103Y-95993249D01*
X179112812Y-95372509D01*
X179108947Y-95368049D01*
X178574820Y-94721147D01*
X178571172Y-94716507D01*
X178294029Y-94346288D01*
X178068448Y-94044947D01*
X178065029Y-94040145D01*
X177594826Y-93345421D01*
X177591635Y-93340456D01*
X177155019Y-92624142D01*
X177152068Y-92619031D01*
X176750034Y-91882761D01*
X176747329Y-91877515D01*
X176380772Y-91122925D01*
X176378321Y-91117557D01*
X176123348Y-90522140D01*
X176048098Y-90346413D01*
X176045905Y-90340937D01*
X175752727Y-89554897D01*
X175750812Y-89549362D01*
X175495379Y-88750297D01*
X175493716Y-88744634D01*
X175326002Y-88118716D01*
X175276590Y-87934305D01*
X175275202Y-87928583D01*
X175254145Y-87831785D01*
X175096877Y-87108838D01*
X175095773Y-87103109D01*
X174956649Y-86275777D01*
X174955816Y-86269978D01*
X174856219Y-85436983D01*
X174855660Y-85431122D01*
X174852911Y-85392682D01*
X174795812Y-84594337D01*
X174795534Y-84588513D01*
X174775570Y-83749810D01*
X174775570Y-83743919D01*
X174795534Y-82905224D01*
X174795812Y-82899404D01*
X174855661Y-82062598D01*
X174856221Y-82056742D01*
X174955817Y-81223755D01*
X174956648Y-81217968D01*
X175095774Y-80390622D01*
X175096875Y-80384909D01*
X175275207Y-79565134D01*
X175276587Y-79559443D01*
X175292516Y-79499996D01*
X188194435Y-79499996D01*
X188194435Y-79500003D01*
X188214630Y-79679249D01*
X188214631Y-79679254D01*
X188274211Y-79849523D01*
X188320461Y-79923129D01*
X188370184Y-80002262D01*
X188497738Y-80129816D01*
X188650478Y-80225789D01*
X188791455Y-80275119D01*
X188848230Y-80315840D01*
X188873978Y-80380792D01*
X188874500Y-80392160D01*
X188874500Y-81190701D01*
X188877401Y-81227567D01*
X188877402Y-81227573D01*
X188923254Y-81385393D01*
X188923255Y-81385396D01*
X189006917Y-81526862D01*
X189006923Y-81526870D01*
X189123129Y-81643076D01*
X189123133Y-81643079D01*
X189123135Y-81643081D01*
X189123137Y-81643082D01*
X189149268Y-81658536D01*
X189196951Y-81709605D01*
X189209455Y-81778346D01*
X189182810Y-81842936D01*
X189154939Y-81868436D01*
X189150804Y-81871193D01*
X189132733Y-81883817D01*
X189132356Y-81884094D01*
X189129919Y-81885958D01*
X189125619Y-81889102D01*
X189121744Y-81891809D01*
X189121369Y-81892084D01*
X189104054Y-81905333D01*
X189099061Y-81909328D01*
X189077880Y-81927247D01*
X189077479Y-81927605D01*
X189056971Y-81947002D01*
X189047002Y-81956971D01*
X189027605Y-81977479D01*
X189027247Y-81977880D01*
X189009328Y-81999061D01*
X189005333Y-82004054D01*
X188992084Y-82021369D01*
X188991809Y-82021744D01*
X188989102Y-82025619D01*
X188985958Y-82029919D01*
X188984094Y-82032356D01*
X188983817Y-82032733D01*
X188971195Y-82050801D01*
X188967190Y-82056808D01*
X188950555Y-82083527D01*
X188950229Y-82084090D01*
X188935349Y-82111677D01*
X188929344Y-82123686D01*
X188914514Y-82156169D01*
X188914237Y-82156836D01*
X188910673Y-82166382D01*
X188909474Y-82169468D01*
X188903845Y-82183394D01*
X188903679Y-82183829D01*
X188896654Y-82203536D01*
X188894651Y-82209543D01*
X188894643Y-82209571D01*
X188882180Y-82253480D01*
X188882173Y-82253508D01*
X188881968Y-82254379D01*
X188873582Y-82298790D01*
X188872587Y-82305762D01*
X188872259Y-82307918D01*
X188871510Y-82312569D01*
X188871464Y-82312865D01*
X188870604Y-82318643D01*
X188869581Y-82325808D01*
X188865787Y-82361257D01*
X188865734Y-82361994D01*
X188864450Y-82397997D01*
X188864450Y-85071023D01*
X188866908Y-85120794D01*
X188866910Y-85120821D01*
X188866954Y-85121261D01*
X188867130Y-85123193D01*
X188867255Y-85124699D01*
X188872395Y-85165919D01*
X188873398Y-85171942D01*
X188885133Y-85224745D01*
X188885428Y-85225802D01*
X188885733Y-85226790D01*
X188887682Y-85234144D01*
X188887686Y-85234143D01*
X188887688Y-85234151D01*
X188887731Y-85234141D01*
X188888127Y-85235725D01*
X188888426Y-85236794D01*
X188905965Y-85288611D01*
X188907966Y-85293616D01*
X188916378Y-85313413D01*
X188916548Y-85313790D01*
X188925163Y-85331931D01*
X188926313Y-85334425D01*
X188927578Y-85337251D01*
X188929674Y-85341931D01*
X188930049Y-85342685D01*
X188949201Y-85377666D01*
X188958203Y-85392670D01*
X188958211Y-85392682D01*
X188993090Y-85443507D01*
X188993853Y-85444485D01*
X188994508Y-85445274D01*
X188999161Y-85451239D01*
X189000082Y-85452497D01*
X189000846Y-85453477D01*
X189000848Y-85453479D01*
X189000853Y-85453485D01*
X189041987Y-85500013D01*
X189049987Y-85508013D01*
X189096515Y-85549147D01*
X189097488Y-85549906D01*
X189097513Y-85549923D01*
X189098748Y-85550828D01*
X189104722Y-85555488D01*
X189105506Y-85556139D01*
X189105515Y-85556147D01*
X189105523Y-85556153D01*
X189106804Y-85557217D01*
X189145802Y-85615191D01*
X189147266Y-85685045D01*
X189110732Y-85744602D01*
X189047799Y-85774953D01*
X189037316Y-85776229D01*
X189022441Y-85777400D01*
X189022426Y-85777402D01*
X188864606Y-85823254D01*
X188864603Y-85823255D01*
X188723137Y-85906917D01*
X188723129Y-85906923D01*
X188606923Y-86023129D01*
X188606917Y-86023137D01*
X188523255Y-86164603D01*
X188523254Y-86164606D01*
X188477402Y-86322426D01*
X188477401Y-86322432D01*
X188474500Y-86359298D01*
X188474500Y-86790701D01*
X188477401Y-86827567D01*
X188477402Y-86827573D01*
X188523254Y-86985393D01*
X188523255Y-86985396D01*
X188523256Y-86985398D01*
X188553982Y-87037353D01*
X188606917Y-87126862D01*
X188606923Y-87126870D01*
X188723129Y-87243076D01*
X188723133Y-87243079D01*
X188723135Y-87243081D01*
X188864602Y-87326744D01*
X188880969Y-87331499D01*
X189022426Y-87372597D01*
X189022429Y-87372597D01*
X189022431Y-87372598D01*
X189059306Y-87375500D01*
X189059314Y-87375500D01*
X189990686Y-87375500D01*
X189990694Y-87375500D01*
X190027569Y-87372598D01*
X190027571Y-87372597D01*
X190027573Y-87372597D01*
X190069191Y-87360505D01*
X190185398Y-87326744D01*
X190326865Y-87243081D01*
X190443081Y-87126865D01*
X190454551Y-87107469D01*
X190505619Y-87059785D01*
X190574361Y-87047280D01*
X190638951Y-87073925D01*
X190663524Y-87100425D01*
X190693090Y-87143507D01*
X190693853Y-87144485D01*
X190694508Y-87145274D01*
X190699161Y-87151239D01*
X190700082Y-87152497D01*
X190700846Y-87153477D01*
X190700848Y-87153479D01*
X190700853Y-87153485D01*
X190741987Y-87200013D01*
X190749987Y-87208013D01*
X190796515Y-87249147D01*
X190797488Y-87249906D01*
X190797513Y-87249923D01*
X190798748Y-87250828D01*
X190804725Y-87255491D01*
X190805505Y-87256138D01*
X190805515Y-87256147D01*
X190806173Y-87256660D01*
X190806494Y-87256911D01*
X190835481Y-87276803D01*
X190857324Y-87291793D01*
X190872324Y-87300793D01*
X190872331Y-87300797D01*
X190872333Y-87300798D01*
X190907339Y-87319963D01*
X190908063Y-87320323D01*
X190915563Y-87323681D01*
X190918068Y-87324836D01*
X190936202Y-87333448D01*
X190936496Y-87333580D01*
X190936586Y-87333621D01*
X190956383Y-87342033D01*
X190956386Y-87342034D01*
X190961386Y-87344034D01*
X191013206Y-87361574D01*
X191014252Y-87361866D01*
X191014278Y-87361871D01*
X191015871Y-87362271D01*
X191015857Y-87362323D01*
X191023290Y-87364291D01*
X191024185Y-87364567D01*
X191024206Y-87364574D01*
X191025252Y-87364866D01*
X191025256Y-87364867D01*
X191060040Y-87372597D01*
X191078066Y-87376603D01*
X191084066Y-87377603D01*
X191125291Y-87382743D01*
X191126121Y-87382812D01*
X191126133Y-87382812D01*
X191126776Y-87382866D01*
X191128707Y-87383041D01*
X191129204Y-87383091D01*
X191129223Y-87383091D01*
X191129224Y-87383092D01*
X191178976Y-87385549D01*
X191178995Y-87385549D01*
X191179000Y-87385550D01*
X191179001Y-87385550D01*
X193861003Y-87385550D01*
X193869311Y-87385253D01*
X193897015Y-87384265D01*
X193897729Y-87384214D01*
X193933202Y-87380418D01*
X193939670Y-87379493D01*
X193947253Y-87378648D01*
X193954916Y-87378031D01*
X193954916Y-87378030D01*
X193954924Y-87378030D01*
X193956521Y-87377771D01*
X193957155Y-87377614D01*
X193969253Y-87375268D01*
X193974227Y-87374557D01*
X193984613Y-87371565D01*
X194008378Y-87366650D01*
X194009145Y-87366460D01*
X194047450Y-87355350D01*
X194065450Y-87349350D01*
X194098645Y-87336219D01*
X194102972Y-87335824D01*
X194111623Y-87331499D01*
X194115528Y-87329697D01*
X194115507Y-87329651D01*
X194118045Y-87328482D01*
X194118043Y-87328482D01*
X194118054Y-87328478D01*
X194123703Y-87325493D01*
X194126133Y-87324245D01*
X194137493Y-87318564D01*
X194137494Y-87318565D01*
X194143324Y-87315650D01*
X194160868Y-87306444D01*
X194161208Y-87306257D01*
X194177676Y-87296793D01*
X194182676Y-87293793D01*
X194192214Y-87287925D01*
X194192229Y-87287915D01*
X194192251Y-87287902D01*
X194192291Y-87287876D01*
X194192417Y-87287797D01*
X194203202Y-87280803D01*
X194209202Y-87276803D01*
X194227285Y-87264169D01*
X194227639Y-87263910D01*
X194244938Y-87250672D01*
X194249938Y-87246672D01*
X194271114Y-87228757D01*
X194271530Y-87228385D01*
X194289699Y-87211200D01*
X194292167Y-87208928D01*
X194300597Y-87201385D01*
X194301385Y-87200597D01*
X194308928Y-87192167D01*
X194311200Y-87189699D01*
X194328385Y-87171530D01*
X194328757Y-87171114D01*
X194346672Y-87149938D01*
X194350672Y-87144938D01*
X194353653Y-87141041D01*
X194410022Y-87099757D01*
X194479762Y-87095502D01*
X194540731Y-87129626D01*
X194573573Y-87191296D01*
X194575756Y-87206657D01*
X194577401Y-87227567D01*
X194577402Y-87227573D01*
X194623254Y-87385393D01*
X194623255Y-87385396D01*
X194706917Y-87526862D01*
X194706923Y-87526870D01*
X194738179Y-87558125D01*
X194771665Y-87619447D01*
X194774499Y-87645807D01*
X194774499Y-87679054D01*
X194774498Y-87679054D01*
X194815423Y-87831785D01*
X194844358Y-87881900D01*
X194844359Y-87881904D01*
X194844360Y-87881904D01*
X194894479Y-87968714D01*
X194894481Y-87968717D01*
X195013349Y-88087585D01*
X195013355Y-88087590D01*
X195040139Y-88114374D01*
X195040149Y-88114385D01*
X195044479Y-88118715D01*
X195044480Y-88118716D01*
X195156284Y-88230520D01*
X195243095Y-88280639D01*
X195243097Y-88280641D01*
X195281151Y-88302611D01*
X195293215Y-88309577D01*
X195445943Y-88350501D01*
X195445946Y-88350501D01*
X195611653Y-88350501D01*
X195611669Y-88350500D01*
X196637588Y-88350500D01*
X196704627Y-88370185D01*
X196714903Y-88377555D01*
X196717736Y-88379814D01*
X196717738Y-88379816D01*
X196870478Y-88475789D01*
X197040745Y-88535368D01*
X197040750Y-88535369D01*
X197219996Y-88555565D01*
X197220000Y-88555565D01*
X197220004Y-88555565D01*
X197399249Y-88535369D01*
X197399252Y-88535368D01*
X197399255Y-88535368D01*
X197569522Y-88475789D01*
X197722262Y-88379816D01*
X197849816Y-88252262D01*
X197945789Y-88099522D01*
X198005368Y-87929255D01*
X198025565Y-87750000D01*
X198017571Y-87679054D01*
X198005369Y-87570750D01*
X198005368Y-87570745D01*
X197945788Y-87400476D01*
X197892488Y-87315650D01*
X197849816Y-87247738D01*
X197722262Y-87120184D01*
X197704784Y-87109202D01*
X197569523Y-87024211D01*
X197399254Y-86964631D01*
X197399249Y-86964630D01*
X197220004Y-86944435D01*
X197219996Y-86944435D01*
X197040750Y-86964630D01*
X197040745Y-86964631D01*
X196870476Y-87024211D01*
X196717736Y-87120185D01*
X196714903Y-87122445D01*
X196712724Y-87123334D01*
X196711842Y-87123889D01*
X196711744Y-87123734D01*
X196650217Y-87148855D01*
X196637588Y-87149500D01*
X196299500Y-87149500D01*
X196232461Y-87129815D01*
X196186706Y-87077011D01*
X196175500Y-87025500D01*
X196175500Y-86259313D01*
X196175499Y-86259298D01*
X196172598Y-86222432D01*
X196172597Y-86222426D01*
X196126745Y-86064606D01*
X196126744Y-86064603D01*
X196126744Y-86064602D01*
X196043081Y-85923135D01*
X196043079Y-85923133D01*
X196043076Y-85923129D01*
X195926870Y-85806923D01*
X195926859Y-85806914D01*
X195907467Y-85795446D01*
X195859784Y-85744377D01*
X195847281Y-85675635D01*
X195873927Y-85611046D01*
X195900424Y-85586475D01*
X195943512Y-85556906D01*
X195944485Y-85556147D01*
X195944508Y-85556126D01*
X195945207Y-85555546D01*
X195951274Y-85550811D01*
X195952474Y-85549931D01*
X195952512Y-85549906D01*
X195953485Y-85549147D01*
X196000013Y-85508013D01*
X196008013Y-85500013D01*
X196049147Y-85453485D01*
X196049906Y-85452512D01*
X196049931Y-85452474D01*
X196050811Y-85451274D01*
X196055546Y-85445207D01*
X196056126Y-85444508D01*
X196056147Y-85444485D01*
X196056169Y-85444457D01*
X196056905Y-85443514D01*
X196067260Y-85428424D01*
X196091793Y-85392676D01*
X196100793Y-85377676D01*
X196119963Y-85342661D01*
X196120322Y-85341939D01*
X196123695Y-85334404D01*
X196124786Y-85332036D01*
X196133448Y-85313798D01*
X196133620Y-85313416D01*
X196142034Y-85293614D01*
X196144034Y-85288614D01*
X196161574Y-85236794D01*
X196161866Y-85235748D01*
X196161871Y-85235725D01*
X196161873Y-85235719D01*
X196162277Y-85234109D01*
X196162328Y-85234121D01*
X196164286Y-85226726D01*
X196164563Y-85225826D01*
X196164574Y-85225794D01*
X196164866Y-85224748D01*
X196176603Y-85171934D01*
X196177603Y-85165934D01*
X196182743Y-85124709D01*
X196182812Y-85123879D01*
X196182812Y-85123857D01*
X196182863Y-85123253D01*
X196183049Y-85121219D01*
X196183091Y-85120796D01*
X196185550Y-85071000D01*
X196185550Y-82389000D01*
X196184265Y-82352985D01*
X196184214Y-82352271D01*
X196180418Y-82316798D01*
X196179490Y-82310308D01*
X196178648Y-82302747D01*
X196178031Y-82295086D01*
X196178029Y-82295070D01*
X196177771Y-82293477D01*
X196177770Y-82293472D01*
X196177615Y-82292842D01*
X196175266Y-82280737D01*
X196174581Y-82275947D01*
X196171598Y-82265544D01*
X196166650Y-82241622D01*
X196166460Y-82240855D01*
X196155350Y-82202550D01*
X196149350Y-82184550D01*
X196136258Y-82151452D01*
X196135861Y-82147099D01*
X196131498Y-82138374D01*
X196129700Y-82134483D01*
X196129656Y-82134504D01*
X196128939Y-82132947D01*
X196128478Y-82131946D01*
X196125513Y-82126333D01*
X196124244Y-82123864D01*
X196118151Y-82111677D01*
X196115650Y-82106676D01*
X196106444Y-82089132D01*
X196106257Y-82088792D01*
X196096793Y-82072324D01*
X196093793Y-82067324D01*
X196087925Y-82057786D01*
X196087902Y-82057748D01*
X196087826Y-82057629D01*
X196087797Y-82057583D01*
X196080803Y-82046798D01*
X196076803Y-82040798D01*
X196064169Y-82022715D01*
X196063910Y-82022361D01*
X196050672Y-82005062D01*
X196046672Y-82000062D01*
X196028757Y-81978886D01*
X196028385Y-81978470D01*
X196028377Y-81978461D01*
X196011218Y-81960318D01*
X196008908Y-81957808D01*
X196001395Y-81949413D01*
X196000593Y-81948611D01*
X195992190Y-81941090D01*
X195989684Y-81938784D01*
X195971538Y-81921621D01*
X195971119Y-81921247D01*
X195949938Y-81903328D01*
X195944930Y-81899321D01*
X195941029Y-81896336D01*
X195899752Y-81839962D01*
X195895506Y-81770222D01*
X195929638Y-81709257D01*
X195991312Y-81676423D01*
X196006654Y-81674243D01*
X196027569Y-81672598D01*
X196027571Y-81672597D01*
X196027573Y-81672597D01*
X196075970Y-81658536D01*
X196185398Y-81626744D01*
X196326865Y-81543081D01*
X196443081Y-81426865D01*
X196526744Y-81285398D01*
X196572598Y-81127569D01*
X196575500Y-81090694D01*
X196575500Y-80659306D01*
X196572598Y-80622431D01*
X196569110Y-80610426D01*
X196526745Y-80464606D01*
X196526744Y-80464603D01*
X196526744Y-80464602D01*
X196443081Y-80323135D01*
X196443079Y-80323133D01*
X196443076Y-80323129D01*
X196326870Y-80206923D01*
X196326862Y-80206917D01*
X196196490Y-80129816D01*
X196185398Y-80123256D01*
X196185397Y-80123255D01*
X196185396Y-80123255D01*
X196185393Y-80123254D01*
X196027573Y-80077402D01*
X196027567Y-80077401D01*
X195990701Y-80074500D01*
X195990694Y-80074500D01*
X195059306Y-80074500D01*
X195059298Y-80074500D01*
X195022432Y-80077401D01*
X195022426Y-80077402D01*
X194864606Y-80123254D01*
X194864603Y-80123255D01*
X194723137Y-80206917D01*
X194723129Y-80206923D01*
X194606923Y-80323129D01*
X194606914Y-80323140D01*
X194595445Y-80342534D01*
X194544375Y-80390216D01*
X194475633Y-80402718D01*
X194411044Y-80376070D01*
X194386475Y-80349574D01*
X194356911Y-80306494D01*
X194356660Y-80306173D01*
X194356147Y-80305515D01*
X194356138Y-80305505D01*
X194355491Y-80304725D01*
X194350828Y-80298748D01*
X194349923Y-80297513D01*
X194349906Y-80297488D01*
X194349147Y-80296515D01*
X194308013Y-80249987D01*
X194300013Y-80241987D01*
X194253485Y-80200853D01*
X194253479Y-80200848D01*
X194253477Y-80200846D01*
X194252497Y-80200082D01*
X194251239Y-80199161D01*
X194245274Y-80194508D01*
X194244485Y-80193853D01*
X194243507Y-80193090D01*
X194192682Y-80158211D01*
X194192670Y-80158203D01*
X194177666Y-80149201D01*
X194142685Y-80130049D01*
X194141931Y-80129674D01*
X194137251Y-80127578D01*
X194134411Y-80126307D01*
X194131931Y-80125163D01*
X194113790Y-80116548D01*
X194113413Y-80116378D01*
X194093616Y-80107966D01*
X194088611Y-80105965D01*
X194036794Y-80088426D01*
X194035725Y-80088127D01*
X194034141Y-80087731D01*
X194034151Y-80087688D01*
X194034143Y-80087686D01*
X194034144Y-80087682D01*
X194026790Y-80085733D01*
X194025802Y-80085428D01*
X194024745Y-80085133D01*
X193971942Y-80073398D01*
X193969532Y-80072996D01*
X193965934Y-80072397D01*
X193965922Y-80072395D01*
X193965919Y-80072395D01*
X193924699Y-80067255D01*
X193923193Y-80067130D01*
X193921261Y-80066954D01*
X193920821Y-80066910D01*
X193920794Y-80066908D01*
X193871023Y-80064450D01*
X193871000Y-80064450D01*
X191179000Y-80064450D01*
X191178976Y-80064450D01*
X191129205Y-80066908D01*
X191129201Y-80066908D01*
X191128703Y-80066958D01*
X191126815Y-80067129D01*
X191125304Y-80067254D01*
X191084080Y-80072395D01*
X191084073Y-80072396D01*
X191084066Y-80072397D01*
X191081670Y-80072796D01*
X191078057Y-80073398D01*
X191025245Y-80085135D01*
X191024215Y-80085422D01*
X191023213Y-80085732D01*
X191015862Y-80087681D01*
X191015863Y-80087684D01*
X191015835Y-80087691D01*
X191015846Y-80087735D01*
X191014244Y-80088135D01*
X191013208Y-80088425D01*
X190961388Y-80105965D01*
X190956383Y-80107966D01*
X190936586Y-80116378D01*
X190936208Y-80116548D01*
X190918099Y-80125149D01*
X190915618Y-80126293D01*
X190909971Y-80128822D01*
X190908054Y-80129681D01*
X190907324Y-80130044D01*
X190872333Y-80149201D01*
X190857329Y-80158203D01*
X190857317Y-80158211D01*
X190806501Y-80193084D01*
X190805470Y-80193888D01*
X190804690Y-80194536D01*
X190798824Y-80199113D01*
X190797530Y-80200061D01*
X190796516Y-80200851D01*
X190749983Y-80241990D01*
X190741990Y-80249983D01*
X190700851Y-80296516D01*
X190700061Y-80297530D01*
X190699113Y-80298824D01*
X190694530Y-80304697D01*
X190692808Y-80306772D01*
X190634848Y-80345790D01*
X190564994Y-80347278D01*
X190505425Y-80310764D01*
X190475053Y-80247841D01*
X190473769Y-80237311D01*
X190472598Y-80222432D01*
X190472596Y-80222421D01*
X190427427Y-80066954D01*
X190426744Y-80064602D01*
X190343081Y-79923135D01*
X190343079Y-79923133D01*
X190343076Y-79923129D01*
X190226870Y-79806923D01*
X190226861Y-79806916D01*
X190085392Y-79723252D01*
X190084345Y-79722799D01*
X190082463Y-79721519D01*
X190078684Y-79719285D01*
X190078824Y-79719047D01*
X190045920Y-79696683D01*
X190039397Y-79690160D01*
X190039374Y-79690139D01*
X189830700Y-79481465D01*
X189797215Y-79420142D01*
X189795163Y-79407686D01*
X189785368Y-79320745D01*
X189725789Y-79150478D01*
X189629816Y-78997738D01*
X189502262Y-78870184D01*
X189349523Y-78774211D01*
X189179254Y-78714631D01*
X189179249Y-78714630D01*
X189000004Y-78694435D01*
X188999996Y-78694435D01*
X188820750Y-78714630D01*
X188820745Y-78714631D01*
X188650476Y-78774211D01*
X188497737Y-78870184D01*
X188370184Y-78997737D01*
X188274211Y-79150476D01*
X188214631Y-79320745D01*
X188214630Y-79320750D01*
X188194435Y-79499996D01*
X175292516Y-79499996D01*
X175493717Y-78749099D01*
X175495379Y-78743442D01*
X175536699Y-78614183D01*
X175750816Y-77944364D01*
X175752723Y-77938855D01*
X176045911Y-77152785D01*
X176048099Y-77147323D01*
X176107019Y-77009733D01*
X176271771Y-76625000D01*
X186244659Y-76625000D01*
X186263975Y-76821129D01*
X186321188Y-77009733D01*
X186414086Y-77183532D01*
X186414090Y-77183539D01*
X186539116Y-77335883D01*
X186691460Y-77460909D01*
X186691467Y-77460913D01*
X186865266Y-77553811D01*
X186865269Y-77553811D01*
X186865273Y-77553814D01*
X187053868Y-77611024D01*
X187250000Y-77630341D01*
X187446132Y-77611024D01*
X187634727Y-77553814D01*
X187808538Y-77460910D01*
X187960883Y-77335883D01*
X188085910Y-77183538D01*
X188178814Y-77009727D01*
X188236024Y-76821132D01*
X188255341Y-76625000D01*
X196744659Y-76625000D01*
X196763975Y-76821129D01*
X196821188Y-77009733D01*
X196914086Y-77183532D01*
X196914090Y-77183539D01*
X197039116Y-77335883D01*
X197191460Y-77460909D01*
X197191467Y-77460913D01*
X197365266Y-77553811D01*
X197365269Y-77553811D01*
X197365273Y-77553814D01*
X197553868Y-77611024D01*
X197750000Y-77630341D01*
X197946132Y-77611024D01*
X198134727Y-77553814D01*
X198308538Y-77460910D01*
X198460883Y-77335883D01*
X198585910Y-77183538D01*
X198678814Y-77009727D01*
X198736024Y-76821132D01*
X198755341Y-76625000D01*
X198736024Y-76428868D01*
X198678814Y-76240273D01*
X198678811Y-76240269D01*
X198678811Y-76240266D01*
X198585913Y-76066467D01*
X198585909Y-76066460D01*
X198460883Y-75914116D01*
X198308539Y-75789090D01*
X198308532Y-75789086D01*
X198134733Y-75696188D01*
X198134727Y-75696186D01*
X197946132Y-75638976D01*
X197946129Y-75638975D01*
X197750000Y-75619659D01*
X197553870Y-75638975D01*
X197365266Y-75696188D01*
X197191467Y-75789086D01*
X197191460Y-75789090D01*
X197039116Y-75914116D01*
X196914090Y-76066460D01*
X196914086Y-76066467D01*
X196821188Y-76240266D01*
X196763975Y-76428870D01*
X196744659Y-76625000D01*
X188255341Y-76625000D01*
X188236024Y-76428868D01*
X188178814Y-76240273D01*
X188178811Y-76240269D01*
X188178811Y-76240266D01*
X188085913Y-76066467D01*
X188085909Y-76066460D01*
X187960883Y-75914116D01*
X187808539Y-75789090D01*
X187808532Y-75789086D01*
X187634733Y-75696188D01*
X187634727Y-75696186D01*
X187446132Y-75638976D01*
X187446129Y-75638975D01*
X187250000Y-75619659D01*
X187053870Y-75638975D01*
X186865266Y-75696188D01*
X186691467Y-75789086D01*
X186691460Y-75789090D01*
X186539116Y-75914116D01*
X186414090Y-76066460D01*
X186414086Y-76066467D01*
X186321188Y-76240266D01*
X186263975Y-76428870D01*
X186244659Y-76625000D01*
X176271771Y-76625000D01*
X176378333Y-76376153D01*
X176380758Y-76370842D01*
X176747340Y-75616202D01*
X176750021Y-75611001D01*
X177152083Y-74874681D01*
X177155003Y-74869623D01*
X177591650Y-74153258D01*
X177594809Y-74148343D01*
X178065046Y-73453569D01*
X178068434Y-73448812D01*
X178571194Y-72777202D01*
X178574797Y-72772620D01*
X179108966Y-72125667D01*
X179112792Y-72121252D01*
X179677123Y-71500468D01*
X179681155Y-71496240D01*
X180274370Y-70903025D01*
X180278598Y-70898993D01*
X180899382Y-70334662D01*
X180903797Y-70330836D01*
X181550750Y-69796667D01*
X181555332Y-69793064D01*
X182226942Y-69290304D01*
X182231699Y-69286916D01*
X182926473Y-68816679D01*
X182931388Y-68813520D01*
X183647753Y-68376873D01*
X183652811Y-68373953D01*
X184389131Y-67971891D01*
X184394332Y-67969210D01*
X185148972Y-67602628D01*
X185154283Y-67600203D01*
X185925470Y-67269961D01*
X185930915Y-67267781D01*
X186716985Y-66974593D01*
X186722494Y-66972686D01*
X187521578Y-66717246D01*
X187527229Y-66715587D01*
X188337573Y-66498457D01*
X188343264Y-66497077D01*
X189163039Y-66318745D01*
X189168752Y-66317644D01*
X189996098Y-66178518D01*
X190001885Y-66177687D01*
X190834890Y-66078089D01*
X190840728Y-66077531D01*
X191677534Y-66017682D01*
X191683354Y-66017404D01*
X192522059Y-65997440D01*
X192527941Y-65997440D01*
X193366643Y-66017404D01*
G37*
%TD.AperFunction*%
%TD*%
M02*
