%TF.GenerationSoftware,KiCad,Pcbnew,8.0.8*%
%TF.CreationDate,2025-05-05T18:38:48+03:00*%
%TF.ProjectId,gamma-spectrometer,67616d6d-612d-4737-9065-6374726f6d65,v0.0.4*%
%TF.SameCoordinates,Original*%
%TF.FileFunction,Paste,Bot*%
%TF.FilePolarity,Positive*%
%FSLAX46Y46*%
G04 Gerber Fmt 4.6, Leading zero omitted, Abs format (unit mm)*
G04 Created by KiCad (PCBNEW 8.0.8) date 2025-05-05 18:38:48*
%MOMM*%
%LPD*%
G01*
G04 APERTURE LIST*
G04 Aperture macros list*
%AMRoundRect*
0 Rectangle with rounded corners*
0 $1 Rounding radius*
0 $2 $3 $4 $5 $6 $7 $8 $9 X,Y pos of 4 corners*
0 Add a 4 corners polygon primitive as box body*
4,1,4,$2,$3,$4,$5,$6,$7,$8,$9,$2,$3,0*
0 Add four circle primitives for the rounded corners*
1,1,$1+$1,$2,$3*
1,1,$1+$1,$4,$5*
1,1,$1+$1,$6,$7*
1,1,$1+$1,$8,$9*
0 Add four rect primitives between the rounded corners*
20,1,$1+$1,$2,$3,$4,$5,0*
20,1,$1+$1,$4,$5,$6,$7,0*
20,1,$1+$1,$6,$7,$8,$9,0*
20,1,$1+$1,$8,$9,$2,$3,0*%
G04 Aperture macros list end*
%ADD10C,0.010000*%
%ADD11RoundRect,0.108750X0.326250X0.356250X-0.326250X0.356250X-0.326250X-0.356250X0.326250X-0.356250X0*%
%ADD12RoundRect,0.072500X-0.217500X0.532500X-0.217500X-0.532500X0.217500X-0.532500X0.217500X0.532500X0*%
%ADD13R,0.650000X0.900000*%
%ADD14R,0.900000X0.650000*%
%ADD15RoundRect,0.108750X0.356250X-0.326250X0.356250X0.326250X-0.356250X0.326250X-0.356250X-0.326250X0*%
%ADD16R,1.450000X1.150000*%
%ADD17RoundRect,0.150000X-0.150000X-0.400000X0.150000X-0.400000X0.150000X0.400000X-0.150000X0.400000X0*%
%ADD18RoundRect,0.150000X-0.400000X-0.150000X0.400000X-0.150000X0.400000X0.150000X-0.400000X0.150000X0*%
%ADD19RoundRect,0.075000X0.225000X0.260000X-0.225000X0.260000X-0.225000X-0.260000X0.225000X-0.260000X0*%
%ADD20RoundRect,0.150000X0.587500X0.150000X-0.587500X0.150000X-0.587500X-0.150000X0.587500X-0.150000X0*%
%ADD21R,0.870000X0.930000*%
%ADD22RoundRect,0.150000X-0.460000X-0.150000X0.460000X-0.150000X0.460000X0.150000X-0.460000X0.150000X0*%
%ADD23RoundRect,0.108750X-0.326250X-0.356250X0.326250X-0.356250X0.326250X0.356250X-0.326250X0.356250X0*%
%ADD24R,0.930000X0.870000*%
%ADD25R,1.200000X3.700000*%
%ADD26RoundRect,0.147500X0.467500X0.147500X-0.467500X0.147500X-0.467500X-0.147500X0.467500X-0.147500X0*%
%ADD27R,0.700000X0.700000*%
%ADD28RoundRect,0.150000X-0.150000X0.587500X-0.150000X-0.587500X0.150000X-0.587500X0.150000X0.587500X0*%
%ADD29R,1.150000X1.450000*%
G04 APERTURE END LIST*
D10*
%TO.C,D5*%
X151150000Y-89750000D02*
X150650000Y-89750000D01*
X150650000Y-89250000D01*
X151150000Y-89250000D01*
X151150000Y-89750000D01*
G36*
X151150000Y-89750000D02*
G01*
X150650000Y-89750000D01*
X150650000Y-89250000D01*
X151150000Y-89250000D01*
X151150000Y-89750000D01*
G37*
X153350000Y-89750000D02*
X152850000Y-89750000D01*
X152850000Y-89250000D01*
X153350000Y-89250000D01*
X153350000Y-89750000D01*
G36*
X153350000Y-89750000D02*
G01*
X152850000Y-89750000D01*
X152850000Y-89250000D01*
X153350000Y-89250000D01*
X153350000Y-89750000D01*
G37*
%TO.C,U10*%
X191250000Y-84325000D02*
X189200000Y-84325000D01*
X189200000Y-83125000D01*
X191250000Y-83125000D01*
X191250000Y-84325000D01*
G36*
X191250000Y-84325000D02*
G01*
X189200000Y-84325000D01*
X189200000Y-83125000D01*
X191250000Y-83125000D01*
X191250000Y-84325000D01*
G37*
X193550000Y-82025000D02*
X191500000Y-82025000D01*
X191500000Y-80825000D01*
X193550000Y-80825000D01*
X193550000Y-82025000D01*
G36*
X193550000Y-82025000D02*
G01*
X191500000Y-82025000D01*
X191500000Y-80825000D01*
X193550000Y-80825000D01*
X193550000Y-82025000D01*
G37*
X193550000Y-84750000D02*
X191500000Y-84750000D01*
X191500000Y-82700000D01*
X193550000Y-82700000D01*
X193550000Y-84750000D01*
G36*
X193550000Y-84750000D02*
G01*
X191500000Y-84750000D01*
X191500000Y-82700000D01*
X193550000Y-82700000D01*
X193550000Y-84750000D01*
G37*
X193550000Y-86625000D02*
X191500000Y-86625000D01*
X191500000Y-85425000D01*
X193550000Y-85425000D01*
X193550000Y-86625000D01*
G36*
X193550000Y-86625000D02*
G01*
X191500000Y-86625000D01*
X191500000Y-85425000D01*
X193550000Y-85425000D01*
X193550000Y-86625000D01*
G37*
X195850000Y-84325000D02*
X193800000Y-84325000D01*
X193800000Y-83125000D01*
X195850000Y-83125000D01*
X195850000Y-84325000D01*
G36*
X195850000Y-84325000D02*
G01*
X193800000Y-84325000D01*
X193800000Y-83125000D01*
X195850000Y-83125000D01*
X195850000Y-84325000D01*
G37*
%TD*%
D11*
%TO.C,C6*%
X154030000Y-75250000D03*
X152470000Y-75250000D03*
%TD*%
D12*
%TO.C,U4*%
X113050000Y-80500000D03*
X114000000Y-80500000D03*
X114950000Y-80500000D03*
X114950000Y-83010000D03*
X114000000Y-83010000D03*
X113050000Y-83010000D03*
%TD*%
D13*
%TO.C,R12*%
X117375000Y-80437500D03*
X118825000Y-80437500D03*
%TD*%
D14*
%TO.C,R15*%
X151750000Y-94475000D03*
X151750000Y-93025000D03*
%TD*%
D15*
%TO.C,C16*%
X158250000Y-95030000D03*
X158250000Y-93470000D03*
%TD*%
D16*
%TO.C,C15*%
X155500000Y-88650000D03*
X155500000Y-86850000D03*
%TD*%
D17*
%TO.C,U10*%
X189675000Y-80725000D03*
D18*
X195525000Y-80875000D03*
D17*
X195375000Y-86725000D03*
D18*
X189525000Y-86575000D03*
%TD*%
D19*
%TO.C,FB2*%
X154685000Y-91500000D03*
X153815000Y-91500000D03*
%TD*%
D20*
%TO.C,Q1*%
X122875000Y-79550000D03*
X122875000Y-81450000D03*
X121000000Y-80500000D03*
%TD*%
D19*
%TO.C,FB3*%
X152185000Y-91250000D03*
X151315000Y-91250000D03*
%TD*%
D21*
%TO.C,C11*%
X146630000Y-86130000D03*
X145070000Y-86130000D03*
%TD*%
D16*
%TO.C,C13*%
X156250000Y-97200000D03*
X156250000Y-99000000D03*
%TD*%
D13*
%TO.C,R9*%
X153275000Y-77750000D03*
X154725000Y-77750000D03*
%TD*%
D22*
%TO.C,U8*%
X144605000Y-89580000D03*
X144605000Y-88630000D03*
X144605000Y-87680000D03*
X147095000Y-87680000D03*
X147095000Y-88630000D03*
X147095000Y-89580000D03*
%TD*%
D13*
%TO.C,R11*%
X112225000Y-85500000D03*
X110775000Y-85500000D03*
%TD*%
D14*
%TO.C,R10*%
X120600000Y-83487500D03*
X120600000Y-84937500D03*
%TD*%
D21*
%TO.C,C9*%
X106300000Y-84070000D03*
X104740000Y-84070000D03*
%TD*%
D23*
%TO.C,C10*%
X104720000Y-82070000D03*
X106280000Y-82070000D03*
%TD*%
D21*
%TO.C,C18*%
X149530000Y-91130000D03*
X147970000Y-91130000D03*
%TD*%
D14*
%TO.C,R16*%
X156250000Y-93525000D03*
X156250000Y-94975000D03*
%TD*%
%TO.C,R7*%
X156500000Y-76275000D03*
X156500000Y-77725000D03*
%TD*%
D24*
%TO.C,C4*%
X146500000Y-77720000D03*
X146500000Y-79280000D03*
%TD*%
D13*
%TO.C,R13*%
X151725000Y-77750000D03*
X150275000Y-77750000D03*
%TD*%
D25*
%TO.C,L1*%
X148950000Y-86130000D03*
X151750000Y-86130000D03*
%TD*%
D26*
%TO.C,U6*%
X154500000Y-80500000D03*
X154500000Y-82400000D03*
X152380000Y-81450000D03*
%TD*%
D15*
%TO.C,C5*%
X144500000Y-79280000D03*
X144500000Y-77720000D03*
%TD*%
D27*
%TO.C,C8*%
X111500000Y-79350000D03*
X111500000Y-80650000D03*
%TD*%
D28*
%TO.C,D3*%
X117100000Y-82500000D03*
X119000000Y-82500000D03*
X118050000Y-84375000D03*
%TD*%
D29*
%TO.C,C14*%
X156350000Y-91750000D03*
X158150000Y-91750000D03*
%TD*%
D14*
%TO.C,R14*%
X142750000Y-89605000D03*
X142750000Y-88155000D03*
%TD*%
D12*
%TO.C,U5*%
X108100000Y-80500000D03*
X109050000Y-80500000D03*
X110000000Y-80500000D03*
X110000000Y-83010000D03*
X109050000Y-83010000D03*
X108100000Y-83010000D03*
%TD*%
D16*
%TO.C,C12*%
X153750000Y-93350000D03*
X153750000Y-95150000D03*
%TD*%
M02*
