%TF.GenerationSoftware,KiCad,Pcbnew,8.0.8*%
%TF.CreationDate,2025-05-01T22:31:30+03:00*%
%TF.ProjectId,gamma-spectrometer,67616d6d-612d-4737-9065-6374726f6d65,v0.0.4*%
%TF.SameCoordinates,Original*%
%TF.FileFunction,Profile,NP*%
%FSLAX46Y46*%
G04 Gerber Fmt 4.6, Leading zero omitted, Abs format (unit mm)*
G04 Created by KiCad (PCBNEW 8.0.8) date 2025-05-01 22:31:30*
%MOMM*%
%LPD*%
G01*
G04 APERTURE LIST*
%TA.AperFunction,Profile*%
%ADD10C,0.050000*%
%TD*%
G04 APERTURE END LIST*
D10*
X162000000Y-72000000D02*
G75*
G02*
X162500000Y-71500000I500000J0D01*
G01*
X75500000Y-78750000D02*
X75500000Y-66000000D01*
X162000000Y-95500000D02*
X162000000Y-72000000D01*
X75500000Y-78750000D02*
G75*
G02*
X75000000Y-79250000I-500000J0D01*
G01*
X162000000Y-65500000D02*
X163500000Y-65500000D01*
X75000000Y-88250000D02*
G75*
G02*
X75500000Y-88750000I0J-500000D01*
G01*
X162000000Y-102000000D02*
X76000000Y-102000000D01*
X76000000Y-65500000D02*
X162000000Y-65500000D01*
X210775000Y-83746870D02*
G75*
G02*
X174275000Y-83746870I-18250000J0D01*
G01*
X174275000Y-83746870D02*
G75*
G02*
X210775000Y-83746870I18250000J0D01*
G01*
X75500000Y-101500000D02*
X75500000Y-88750000D01*
X71000000Y-88250000D02*
G75*
G02*
X70500000Y-87750000I0J500000D01*
G01*
X164000000Y-101500000D02*
G75*
G02*
X163500000Y-102000000I-500000J0D01*
G01*
X162500000Y-96000000D02*
X163500000Y-96000000D01*
X75000000Y-88250000D02*
X71000000Y-88250000D01*
X164000000Y-96500000D02*
X164000000Y-101500000D01*
X75000000Y-79250000D02*
X71000000Y-79250000D01*
X162500000Y-71500000D02*
X163500000Y-71500000D01*
X164000000Y-71000000D02*
G75*
G02*
X163500000Y-71500000I-500000J0D01*
G01*
X75500000Y-66000000D02*
G75*
G02*
X76000000Y-65500000I500000J0D01*
G01*
X70500000Y-79750000D02*
G75*
G02*
X71000000Y-79250000I500000J0D01*
G01*
X163500000Y-102000000D02*
X162000000Y-102000000D01*
X162500000Y-96000000D02*
G75*
G02*
X162000000Y-95500000I0J500000D01*
G01*
X163500000Y-96000000D02*
G75*
G02*
X164000000Y-96500000I0J-500000D01*
G01*
X163500000Y-65500000D02*
G75*
G02*
X164000000Y-66000000I0J-500000D01*
G01*
X164000000Y-66000000D02*
X164000000Y-71000000D01*
X76000000Y-102000000D02*
G75*
G02*
X75500000Y-101500000I0J500000D01*
G01*
X70500000Y-87750000D02*
X70500000Y-79750000D01*
M02*
