%TF.GenerationSoftware,KiCad,Pcbnew,8.0.8*%
%TF.CreationDate,2025-05-05T18:38:48+03:00*%
%TF.ProjectId,gamma-spectrometer,67616d6d-612d-4737-9065-6374726f6d65,v0.0.4*%
%TF.SameCoordinates,Original*%
%TF.FileFunction,Soldermask,Bot*%
%TF.FilePolarity,Negative*%
%FSLAX46Y46*%
G04 Gerber Fmt 4.6, Leading zero omitted, Abs format (unit mm)*
G04 Created by KiCad (PCBNEW 8.0.8) date 2025-05-05 18:38:48*
%MOMM*%
%LPD*%
G01*
G04 APERTURE LIST*
G04 Aperture macros list*
%AMRoundRect*
0 Rectangle with rounded corners*
0 $1 Rounding radius*
0 $2 $3 $4 $5 $6 $7 $8 $9 X,Y pos of 4 corners*
0 Add a 4 corners polygon primitive as box body*
4,1,4,$2,$3,$4,$5,$6,$7,$8,$9,$2,$3,0*
0 Add four circle primitives for the rounded corners*
1,1,$1+$1,$2,$3*
1,1,$1+$1,$4,$5*
1,1,$1+$1,$6,$7*
1,1,$1+$1,$8,$9*
0 Add four rect primitives between the rounded corners*
20,1,$1+$1,$2,$3,$4,$5,0*
20,1,$1+$1,$4,$5,$6,$7,0*
20,1,$1+$1,$6,$7,$8,$9,0*
20,1,$1+$1,$8,$9,$2,$3,0*%
G04 Aperture macros list end*
%ADD10C,0.100000*%
%ADD11C,0.000100*%
%ADD12RoundRect,0.102000X-0.584000X-0.584000X0.584000X-0.584000X0.584000X0.584000X-0.584000X0.584000X0*%
%ADD13C,1.372000*%
%ADD14R,1.308000X1.308000*%
%ADD15C,1.308000*%
%ADD16O,1.800000X1.800000*%
%ADD17O,1.500000X1.500000*%
%ADD18O,1.700000X1.700000*%
%ADD19R,1.700000X1.700000*%
%ADD20RoundRect,0.134250X0.402750X0.432750X-0.402750X0.432750X-0.402750X-0.432750X0.402750X-0.432750X0*%
%ADD21RoundRect,0.098000X-0.294000X0.609000X-0.294000X-0.609000X0.294000X-0.609000X0.294000X0.609000X0*%
%ADD22RoundRect,0.102000X-0.325000X-0.450000X0.325000X-0.450000X0.325000X0.450000X-0.325000X0.450000X0*%
%ADD23RoundRect,0.102000X0.450000X-0.325000X0.450000X0.325000X-0.450000X0.325000X-0.450000X-0.325000X0*%
%ADD24RoundRect,0.102000X0.300000X0.300000X-0.300000X0.300000X-0.300000X-0.300000X0.300000X-0.300000X0*%
%ADD25RoundRect,0.134250X0.432750X-0.402750X0.432750X0.402750X-0.432750X0.402750X-0.432750X-0.402750X0*%
%ADD26RoundRect,0.102000X0.725000X-0.575000X0.725000X0.575000X-0.725000X0.575000X-0.725000X-0.575000X0*%
%ADD27RoundRect,0.201000X-0.201000X-0.451000X0.201000X-0.451000X0.201000X0.451000X-0.201000X0.451000X0*%
%ADD28RoundRect,0.201000X-0.451000X-0.201000X0.451000X-0.201000X0.451000X0.201000X-0.451000X0.201000X0*%
%ADD29RoundRect,0.100500X0.301500X0.336500X-0.301500X0.336500X-0.301500X-0.336500X0.301500X-0.336500X0*%
%ADD30RoundRect,0.150000X0.587500X0.150000X-0.587500X0.150000X-0.587500X-0.150000X0.587500X-0.150000X0*%
%ADD31RoundRect,0.102000X0.435000X0.465000X-0.435000X0.465000X-0.435000X-0.465000X0.435000X-0.465000X0*%
%ADD32RoundRect,0.102000X-0.725000X0.575000X-0.725000X-0.575000X0.725000X-0.575000X0.725000X0.575000X0*%
%ADD33RoundRect,0.201000X-0.511000X-0.201000X0.511000X-0.201000X0.511000X0.201000X-0.511000X0.201000X0*%
%ADD34RoundRect,0.102000X0.325000X0.450000X-0.325000X0.450000X-0.325000X-0.450000X0.325000X-0.450000X0*%
%ADD35RoundRect,0.102000X-0.450000X0.325000X-0.450000X-0.325000X0.450000X-0.325000X0.450000X0.325000X0*%
%ADD36RoundRect,0.134250X-0.402750X-0.432750X0.402750X-0.432750X0.402750X0.432750X-0.402750X0.432750X0*%
%ADD37RoundRect,0.102000X-0.465000X0.435000X-0.465000X-0.435000X0.465000X-0.435000X0.465000X0.435000X0*%
%ADD38RoundRect,0.102000X-0.600000X-1.850000X0.600000X-1.850000X0.600000X1.850000X-0.600000X1.850000X0*%
%ADD39RoundRect,0.147500X0.467500X0.147500X-0.467500X0.147500X-0.467500X-0.147500X0.467500X-0.147500X0*%
%ADD40RoundRect,0.102000X-0.350000X0.350000X-0.350000X-0.350000X0.350000X-0.350000X0.350000X0.350000X0*%
%ADD41RoundRect,0.150000X-0.150000X0.587500X-0.150000X-0.587500X0.150000X-0.587500X0.150000X0.587500X0*%
%ADD42RoundRect,0.102000X-0.575000X-0.725000X0.575000X-0.725000X0.575000X0.725000X-0.575000X0.725000X0*%
G04 APERTURE END LIST*
D10*
X161000000Y-67375000D02*
X163500000Y-67375000D01*
X163500000Y-69625000D01*
X161000000Y-69625000D01*
X161000000Y-67375000D01*
G36*
X161000000Y-67375000D02*
G01*
X163500000Y-67375000D01*
X163500000Y-69625000D01*
X161000000Y-69625000D01*
X161000000Y-67375000D01*
G37*
X161000000Y-97750000D02*
X163500000Y-97750000D01*
X163500000Y-100000000D01*
X161000000Y-100000000D01*
X161000000Y-97750000D01*
G36*
X161000000Y-97750000D02*
G01*
X163500000Y-97750000D01*
X163500000Y-100000000D01*
X161000000Y-100000000D01*
X161000000Y-97750000D01*
G37*
D11*
%TO.C,U10*%
X193887000Y-80476000D02*
X193898000Y-80478000D01*
X193909000Y-80480000D01*
X193919000Y-80482000D01*
X193930000Y-80485000D01*
X193940000Y-80489000D01*
X193950000Y-80493000D01*
X193960000Y-80498000D01*
X193970000Y-80503000D01*
X193979000Y-80509000D01*
X193988000Y-80515000D01*
X193997000Y-80522000D01*
X194006000Y-80529000D01*
X194013000Y-80537000D01*
X194021000Y-80544000D01*
X194028000Y-80553000D01*
X194035000Y-80562000D01*
X194041000Y-80571000D01*
X194047000Y-80580000D01*
X194052000Y-80590000D01*
X194057000Y-80600000D01*
X194061000Y-80610000D01*
X194065000Y-80620000D01*
X194068000Y-80631000D01*
X194070000Y-80641000D01*
X194072000Y-80652000D01*
X194074000Y-80663000D01*
X194075000Y-80674000D01*
X194075000Y-80685000D01*
X194075000Y-82175000D01*
X195555000Y-82175000D01*
X195567000Y-82175000D01*
X195578000Y-82176000D01*
X195589000Y-82178000D01*
X195601000Y-82180000D01*
X195612000Y-82182000D01*
X195623000Y-82186000D01*
X195634000Y-82190000D01*
X195644000Y-82194000D01*
X195655000Y-82199000D01*
X195665000Y-82204000D01*
X195675000Y-82210000D01*
X195684000Y-82217000D01*
X195693000Y-82224000D01*
X195702000Y-82232000D01*
X195711000Y-82239000D01*
X195718000Y-82248000D01*
X195726000Y-82257000D01*
X195733000Y-82266000D01*
X195740000Y-82275000D01*
X195746000Y-82285000D01*
X195751000Y-82295000D01*
X195756000Y-82306000D01*
X195760000Y-82316000D01*
X195764000Y-82327000D01*
X195768000Y-82338000D01*
X195770000Y-82349000D01*
X195772000Y-82361000D01*
X195774000Y-82372000D01*
X195775000Y-82383000D01*
X195775000Y-82395000D01*
X195775000Y-82425000D01*
X195775000Y-85035000D01*
X195775000Y-85065000D01*
X195775000Y-85076000D01*
X195774000Y-85087000D01*
X195772000Y-85098000D01*
X195770000Y-85109000D01*
X195768000Y-85119000D01*
X195765000Y-85130000D01*
X195761000Y-85140000D01*
X195757000Y-85150000D01*
X195752000Y-85160000D01*
X195747000Y-85170000D01*
X195741000Y-85179000D01*
X195735000Y-85188000D01*
X195728000Y-85197000D01*
X195721000Y-85206000D01*
X195713000Y-85213000D01*
X195706000Y-85221000D01*
X195697000Y-85228000D01*
X195688000Y-85235000D01*
X195679000Y-85241000D01*
X195670000Y-85247000D01*
X195660000Y-85252000D01*
X195650000Y-85257000D01*
X195640000Y-85261000D01*
X195630000Y-85265000D01*
X195619000Y-85268000D01*
X195609000Y-85270000D01*
X195598000Y-85272000D01*
X195587000Y-85274000D01*
X195576000Y-85275000D01*
X195565000Y-85275000D01*
X194075000Y-85275000D01*
X194075000Y-86755000D01*
X194075000Y-86767000D01*
X194074000Y-86778000D01*
X194072000Y-86789000D01*
X194070000Y-86801000D01*
X194068000Y-86812000D01*
X194064000Y-86823000D01*
X194060000Y-86834000D01*
X194056000Y-86844000D01*
X194051000Y-86855000D01*
X194046000Y-86865000D01*
X194040000Y-86875000D01*
X194033000Y-86884000D01*
X194026000Y-86893000D01*
X194018000Y-86902000D01*
X194011000Y-86911000D01*
X194002000Y-86918000D01*
X193993000Y-86926000D01*
X193984000Y-86933000D01*
X193975000Y-86940000D01*
X193965000Y-86946000D01*
X193955000Y-86951000D01*
X193944000Y-86956000D01*
X193934000Y-86960000D01*
X193923000Y-86964000D01*
X193912000Y-86968000D01*
X193901000Y-86970000D01*
X193889000Y-86972000D01*
X193878000Y-86974000D01*
X193867000Y-86975000D01*
X193855000Y-86975000D01*
X191205000Y-86975000D01*
X191185000Y-86975000D01*
X191174000Y-86975000D01*
X191163000Y-86974000D01*
X191152000Y-86972000D01*
X191141000Y-86970000D01*
X191131000Y-86968000D01*
X191120000Y-86965000D01*
X191110000Y-86961000D01*
X191100000Y-86957000D01*
X191090000Y-86952000D01*
X191080000Y-86947000D01*
X191071000Y-86941000D01*
X191062000Y-86935000D01*
X191053000Y-86928000D01*
X191044000Y-86921000D01*
X191037000Y-86913000D01*
X191029000Y-86906000D01*
X191022000Y-86897000D01*
X191015000Y-86888000D01*
X191009000Y-86879000D01*
X191003000Y-86870000D01*
X190998000Y-86860000D01*
X190993000Y-86850000D01*
X190989000Y-86840000D01*
X190985000Y-86830000D01*
X190982000Y-86819000D01*
X190980000Y-86809000D01*
X190978000Y-86798000D01*
X190976000Y-86787000D01*
X190975000Y-86776000D01*
X190975000Y-86765000D01*
X190975000Y-85275000D01*
X189485000Y-85275000D01*
X189474000Y-85275000D01*
X189463000Y-85274000D01*
X189452000Y-85272000D01*
X189441000Y-85270000D01*
X189431000Y-85268000D01*
X189420000Y-85265000D01*
X189410000Y-85261000D01*
X189400000Y-85257000D01*
X189390000Y-85252000D01*
X189380000Y-85247000D01*
X189371000Y-85241000D01*
X189362000Y-85235000D01*
X189353000Y-85228000D01*
X189344000Y-85221000D01*
X189337000Y-85213000D01*
X189329000Y-85206000D01*
X189322000Y-85197000D01*
X189315000Y-85188000D01*
X189309000Y-85179000D01*
X189303000Y-85170000D01*
X189298000Y-85160000D01*
X189293000Y-85150000D01*
X189289000Y-85140000D01*
X189285000Y-85130000D01*
X189282000Y-85119000D01*
X189280000Y-85109000D01*
X189278000Y-85098000D01*
X189276000Y-85087000D01*
X189275000Y-85076000D01*
X189275000Y-85065000D01*
X189275000Y-85045000D01*
X189275000Y-82405000D01*
X189275000Y-82393000D01*
X189276000Y-82381000D01*
X189278000Y-82369000D01*
X189280000Y-82357000D01*
X189283000Y-82345000D01*
X189286000Y-82334000D01*
X189290000Y-82323000D01*
X189295000Y-82311000D01*
X189300000Y-82301000D01*
X189306000Y-82290000D01*
X189312000Y-82280000D01*
X189319000Y-82270000D01*
X189326000Y-82260000D01*
X189334000Y-82251000D01*
X189342000Y-82242000D01*
X189351000Y-82234000D01*
X189360000Y-82226000D01*
X189370000Y-82219000D01*
X189380000Y-82212000D01*
X189390000Y-82206000D01*
X189401000Y-82200000D01*
X189411000Y-82195000D01*
X189423000Y-82190000D01*
X189434000Y-82186000D01*
X189445000Y-82183000D01*
X189457000Y-82180000D01*
X189469000Y-82178000D01*
X189481000Y-82176000D01*
X189493000Y-82175000D01*
X189505000Y-82175000D01*
X190975000Y-82175000D01*
X190975000Y-80685000D01*
X190975000Y-80674000D01*
X190976000Y-80663000D01*
X190978000Y-80652000D01*
X190980000Y-80641000D01*
X190982000Y-80631000D01*
X190985000Y-80620000D01*
X190989000Y-80610000D01*
X190993000Y-80600000D01*
X190998000Y-80590000D01*
X191003000Y-80580000D01*
X191009000Y-80571000D01*
X191015000Y-80562000D01*
X191022000Y-80553000D01*
X191029000Y-80544000D01*
X191037000Y-80537000D01*
X191044000Y-80529000D01*
X191053000Y-80522000D01*
X191062000Y-80515000D01*
X191071000Y-80509000D01*
X191080000Y-80503000D01*
X191090000Y-80498000D01*
X191100000Y-80493000D01*
X191110000Y-80489000D01*
X191120000Y-80485000D01*
X191131000Y-80482000D01*
X191141000Y-80480000D01*
X191152000Y-80478000D01*
X191163000Y-80476000D01*
X191174000Y-80475000D01*
X191185000Y-80475000D01*
X191205000Y-80475000D01*
X193835000Y-80475000D01*
X193865000Y-80475000D01*
X193876000Y-80475000D01*
X193887000Y-80476000D01*
G36*
X193887000Y-80476000D02*
G01*
X193898000Y-80478000D01*
X193909000Y-80480000D01*
X193919000Y-80482000D01*
X193930000Y-80485000D01*
X193940000Y-80489000D01*
X193950000Y-80493000D01*
X193960000Y-80498000D01*
X193970000Y-80503000D01*
X193979000Y-80509000D01*
X193988000Y-80515000D01*
X193997000Y-80522000D01*
X194006000Y-80529000D01*
X194013000Y-80537000D01*
X194021000Y-80544000D01*
X194028000Y-80553000D01*
X194035000Y-80562000D01*
X194041000Y-80571000D01*
X194047000Y-80580000D01*
X194052000Y-80590000D01*
X194057000Y-80600000D01*
X194061000Y-80610000D01*
X194065000Y-80620000D01*
X194068000Y-80631000D01*
X194070000Y-80641000D01*
X194072000Y-80652000D01*
X194074000Y-80663000D01*
X194075000Y-80674000D01*
X194075000Y-80685000D01*
X194075000Y-82175000D01*
X195555000Y-82175000D01*
X195567000Y-82175000D01*
X195578000Y-82176000D01*
X195589000Y-82178000D01*
X195601000Y-82180000D01*
X195612000Y-82182000D01*
X195623000Y-82186000D01*
X195634000Y-82190000D01*
X195644000Y-82194000D01*
X195655000Y-82199000D01*
X195665000Y-82204000D01*
X195675000Y-82210000D01*
X195684000Y-82217000D01*
X195693000Y-82224000D01*
X195702000Y-82232000D01*
X195711000Y-82239000D01*
X195718000Y-82248000D01*
X195726000Y-82257000D01*
X195733000Y-82266000D01*
X195740000Y-82275000D01*
X195746000Y-82285000D01*
X195751000Y-82295000D01*
X195756000Y-82306000D01*
X195760000Y-82316000D01*
X195764000Y-82327000D01*
X195768000Y-82338000D01*
X195770000Y-82349000D01*
X195772000Y-82361000D01*
X195774000Y-82372000D01*
X195775000Y-82383000D01*
X195775000Y-82395000D01*
X195775000Y-82425000D01*
X195775000Y-85035000D01*
X195775000Y-85065000D01*
X195775000Y-85076000D01*
X195774000Y-85087000D01*
X195772000Y-85098000D01*
X195770000Y-85109000D01*
X195768000Y-85119000D01*
X195765000Y-85130000D01*
X195761000Y-85140000D01*
X195757000Y-85150000D01*
X195752000Y-85160000D01*
X195747000Y-85170000D01*
X195741000Y-85179000D01*
X195735000Y-85188000D01*
X195728000Y-85197000D01*
X195721000Y-85206000D01*
X195713000Y-85213000D01*
X195706000Y-85221000D01*
X195697000Y-85228000D01*
X195688000Y-85235000D01*
X195679000Y-85241000D01*
X195670000Y-85247000D01*
X195660000Y-85252000D01*
X195650000Y-85257000D01*
X195640000Y-85261000D01*
X195630000Y-85265000D01*
X195619000Y-85268000D01*
X195609000Y-85270000D01*
X195598000Y-85272000D01*
X195587000Y-85274000D01*
X195576000Y-85275000D01*
X195565000Y-85275000D01*
X194075000Y-85275000D01*
X194075000Y-86755000D01*
X194075000Y-86767000D01*
X194074000Y-86778000D01*
X194072000Y-86789000D01*
X194070000Y-86801000D01*
X194068000Y-86812000D01*
X194064000Y-86823000D01*
X194060000Y-86834000D01*
X194056000Y-86844000D01*
X194051000Y-86855000D01*
X194046000Y-86865000D01*
X194040000Y-86875000D01*
X194033000Y-86884000D01*
X194026000Y-86893000D01*
X194018000Y-86902000D01*
X194011000Y-86911000D01*
X194002000Y-86918000D01*
X193993000Y-86926000D01*
X193984000Y-86933000D01*
X193975000Y-86940000D01*
X193965000Y-86946000D01*
X193955000Y-86951000D01*
X193944000Y-86956000D01*
X193934000Y-86960000D01*
X193923000Y-86964000D01*
X193912000Y-86968000D01*
X193901000Y-86970000D01*
X193889000Y-86972000D01*
X193878000Y-86974000D01*
X193867000Y-86975000D01*
X193855000Y-86975000D01*
X191205000Y-86975000D01*
X191185000Y-86975000D01*
X191174000Y-86975000D01*
X191163000Y-86974000D01*
X191152000Y-86972000D01*
X191141000Y-86970000D01*
X191131000Y-86968000D01*
X191120000Y-86965000D01*
X191110000Y-86961000D01*
X191100000Y-86957000D01*
X191090000Y-86952000D01*
X191080000Y-86947000D01*
X191071000Y-86941000D01*
X191062000Y-86935000D01*
X191053000Y-86928000D01*
X191044000Y-86921000D01*
X191037000Y-86913000D01*
X191029000Y-86906000D01*
X191022000Y-86897000D01*
X191015000Y-86888000D01*
X191009000Y-86879000D01*
X191003000Y-86870000D01*
X190998000Y-86860000D01*
X190993000Y-86850000D01*
X190989000Y-86840000D01*
X190985000Y-86830000D01*
X190982000Y-86819000D01*
X190980000Y-86809000D01*
X190978000Y-86798000D01*
X190976000Y-86787000D01*
X190975000Y-86776000D01*
X190975000Y-86765000D01*
X190975000Y-85275000D01*
X189485000Y-85275000D01*
X189474000Y-85275000D01*
X189463000Y-85274000D01*
X189452000Y-85272000D01*
X189441000Y-85270000D01*
X189431000Y-85268000D01*
X189420000Y-85265000D01*
X189410000Y-85261000D01*
X189400000Y-85257000D01*
X189390000Y-85252000D01*
X189380000Y-85247000D01*
X189371000Y-85241000D01*
X189362000Y-85235000D01*
X189353000Y-85228000D01*
X189344000Y-85221000D01*
X189337000Y-85213000D01*
X189329000Y-85206000D01*
X189322000Y-85197000D01*
X189315000Y-85188000D01*
X189309000Y-85179000D01*
X189303000Y-85170000D01*
X189298000Y-85160000D01*
X189293000Y-85150000D01*
X189289000Y-85140000D01*
X189285000Y-85130000D01*
X189282000Y-85119000D01*
X189280000Y-85109000D01*
X189278000Y-85098000D01*
X189276000Y-85087000D01*
X189275000Y-85076000D01*
X189275000Y-85065000D01*
X189275000Y-85045000D01*
X189275000Y-82405000D01*
X189275000Y-82393000D01*
X189276000Y-82381000D01*
X189278000Y-82369000D01*
X189280000Y-82357000D01*
X189283000Y-82345000D01*
X189286000Y-82334000D01*
X189290000Y-82323000D01*
X189295000Y-82311000D01*
X189300000Y-82301000D01*
X189306000Y-82290000D01*
X189312000Y-82280000D01*
X189319000Y-82270000D01*
X189326000Y-82260000D01*
X189334000Y-82251000D01*
X189342000Y-82242000D01*
X189351000Y-82234000D01*
X189360000Y-82226000D01*
X189370000Y-82219000D01*
X189380000Y-82212000D01*
X189390000Y-82206000D01*
X189401000Y-82200000D01*
X189411000Y-82195000D01*
X189423000Y-82190000D01*
X189434000Y-82186000D01*
X189445000Y-82183000D01*
X189457000Y-82180000D01*
X189469000Y-82178000D01*
X189481000Y-82176000D01*
X189493000Y-82175000D01*
X189505000Y-82175000D01*
X190975000Y-82175000D01*
X190975000Y-80685000D01*
X190975000Y-80674000D01*
X190976000Y-80663000D01*
X190978000Y-80652000D01*
X190980000Y-80641000D01*
X190982000Y-80631000D01*
X190985000Y-80620000D01*
X190989000Y-80610000D01*
X190993000Y-80600000D01*
X190998000Y-80590000D01*
X191003000Y-80580000D01*
X191009000Y-80571000D01*
X191015000Y-80562000D01*
X191022000Y-80553000D01*
X191029000Y-80544000D01*
X191037000Y-80537000D01*
X191044000Y-80529000D01*
X191053000Y-80522000D01*
X191062000Y-80515000D01*
X191071000Y-80509000D01*
X191080000Y-80503000D01*
X191090000Y-80498000D01*
X191100000Y-80493000D01*
X191110000Y-80489000D01*
X191120000Y-80485000D01*
X191131000Y-80482000D01*
X191141000Y-80480000D01*
X191152000Y-80478000D01*
X191163000Y-80476000D01*
X191174000Y-80475000D01*
X191185000Y-80475000D01*
X191205000Y-80475000D01*
X193835000Y-80475000D01*
X193865000Y-80475000D01*
X193876000Y-80475000D01*
X193887000Y-80476000D01*
G37*
%TD*%
D12*
%TO.C,VR1*%
X152420000Y-73250000D03*
D13*
X154960000Y-70710000D03*
X157500000Y-73250000D03*
%TD*%
D14*
%TO.C,J1*%
X96500000Y-97950000D03*
D15*
X98500000Y-97950000D03*
X100500000Y-97950000D03*
X102500000Y-97950000D03*
%TD*%
D14*
%TO.C,J2*%
X107000000Y-97950000D03*
D15*
X109000000Y-97950000D03*
X111000000Y-97950000D03*
X113000000Y-97950000D03*
X115000000Y-97950000D03*
X117000000Y-97950000D03*
%TD*%
D16*
%TO.C,U1*%
X89630000Y-86615000D03*
D17*
X92660000Y-86315000D03*
X92660000Y-81465000D03*
D16*
X89630000Y-81165000D03*
D18*
X89500000Y-92780000D03*
X92040000Y-92780000D03*
D19*
X94580000Y-92780000D03*
D18*
X97120000Y-92780000D03*
X99660000Y-92780000D03*
X102200000Y-92780000D03*
X104740000Y-92780000D03*
D19*
X107280000Y-92780000D03*
D18*
X109820000Y-92780000D03*
X112360000Y-92780000D03*
X114900000Y-92780000D03*
X117440000Y-92780000D03*
D19*
X119980000Y-92780000D03*
D18*
X122520000Y-92780000D03*
X125060000Y-92780000D03*
X127600000Y-92780000D03*
X130140000Y-92780000D03*
D19*
X132680000Y-92780000D03*
D18*
X135220000Y-92780000D03*
X137760000Y-92780000D03*
X137760000Y-75000000D03*
X135220000Y-75000000D03*
D19*
X132680000Y-75000000D03*
D18*
X130140000Y-75000000D03*
X127600000Y-75000000D03*
X125060000Y-75000000D03*
X122520000Y-75000000D03*
D19*
X119980000Y-75000000D03*
D18*
X117440000Y-75000000D03*
X114900000Y-75000000D03*
X112360000Y-75000000D03*
X109820000Y-75000000D03*
D19*
X107280000Y-75000000D03*
D18*
X104740000Y-75000000D03*
X102200000Y-75000000D03*
X99660000Y-75000000D03*
X97120000Y-75000000D03*
D19*
X94580000Y-75000000D03*
D18*
X92040000Y-75000000D03*
X89500000Y-75000000D03*
X137530000Y-86430000D03*
D19*
X137530000Y-83890000D03*
D18*
X137530000Y-81350000D03*
%TD*%
D12*
%TO.C,VR2*%
X143370000Y-96240000D03*
D13*
X145910000Y-93700000D03*
X148450000Y-96240000D03*
%TD*%
D20*
%TO.C,C6*%
X154030000Y-75250000D03*
X152470000Y-75250000D03*
%TD*%
D21*
%TO.C,U4*%
X113050000Y-80500000D03*
X114000000Y-80500000D03*
X114950000Y-80500000D03*
X114950000Y-83010000D03*
X114000000Y-83010000D03*
X113050000Y-83010000D03*
%TD*%
D22*
%TO.C,R12*%
X117375000Y-80437500D03*
X118825000Y-80437500D03*
%TD*%
D23*
%TO.C,R15*%
X151750000Y-94475000D03*
X151750000Y-93025000D03*
%TD*%
D24*
%TO.C,D5*%
X153100000Y-89500000D03*
X150900000Y-89500000D03*
%TD*%
D25*
%TO.C,C16*%
X158250000Y-95030000D03*
X158250000Y-93470000D03*
%TD*%
D26*
%TO.C,C15*%
X155500000Y-88650000D03*
X155500000Y-86850000D03*
%TD*%
D27*
%TO.C,U10*%
X189675000Y-80725000D03*
D28*
X195525000Y-80875000D03*
D27*
X195375000Y-86725000D03*
D28*
X189525000Y-86575000D03*
%TD*%
D29*
%TO.C,FB2*%
X154685000Y-91500000D03*
X153815000Y-91500000D03*
%TD*%
D30*
%TO.C,Q1*%
X122875000Y-79550000D03*
X122875000Y-81450000D03*
X121000000Y-80500000D03*
%TD*%
D29*
%TO.C,FB3*%
X152185000Y-91250000D03*
X151315000Y-91250000D03*
%TD*%
D31*
%TO.C,C11*%
X146630000Y-86130000D03*
X145070000Y-86130000D03*
%TD*%
D32*
%TO.C,C13*%
X156250000Y-97200000D03*
X156250000Y-99000000D03*
%TD*%
D22*
%TO.C,R9*%
X153275000Y-77750000D03*
X154725000Y-77750000D03*
%TD*%
D33*
%TO.C,U8*%
X144605000Y-89580000D03*
X144605000Y-88630000D03*
X144605000Y-87680000D03*
X147095000Y-87680000D03*
X147095000Y-88630000D03*
X147095000Y-89580000D03*
%TD*%
D34*
%TO.C,R11*%
X112225000Y-85500000D03*
X110775000Y-85500000D03*
%TD*%
D35*
%TO.C,R10*%
X120600000Y-83487500D03*
X120600000Y-84937500D03*
%TD*%
D31*
%TO.C,C9*%
X106300000Y-84070000D03*
X104740000Y-84070000D03*
%TD*%
D36*
%TO.C,C10*%
X104720000Y-82070000D03*
X106280000Y-82070000D03*
%TD*%
D31*
%TO.C,C18*%
X149530000Y-91130000D03*
X147970000Y-91130000D03*
%TD*%
D35*
%TO.C,R16*%
X156250000Y-93525000D03*
X156250000Y-94975000D03*
%TD*%
%TO.C,R7*%
X156500000Y-76275000D03*
X156500000Y-77725000D03*
%TD*%
D37*
%TO.C,C4*%
X146500000Y-77720000D03*
X146500000Y-79280000D03*
%TD*%
D34*
%TO.C,R13*%
X151725000Y-77750000D03*
X150275000Y-77750000D03*
%TD*%
D38*
%TO.C,L1*%
X148950000Y-86130000D03*
X151750000Y-86130000D03*
%TD*%
D39*
%TO.C,U6*%
X154500000Y-80500000D03*
X154500000Y-82400000D03*
X152380000Y-81450000D03*
%TD*%
D25*
%TO.C,C5*%
X144500000Y-79280000D03*
X144500000Y-77720000D03*
%TD*%
D40*
%TO.C,C8*%
X111500000Y-79350000D03*
X111500000Y-80650000D03*
%TD*%
D41*
%TO.C,D3*%
X117100000Y-82500000D03*
X119000000Y-82500000D03*
X118050000Y-84375000D03*
%TD*%
D42*
%TO.C,C14*%
X156350000Y-91750000D03*
X158150000Y-91750000D03*
%TD*%
D23*
%TO.C,R14*%
X142750000Y-89605000D03*
X142750000Y-88155000D03*
%TD*%
D21*
%TO.C,U5*%
X108100000Y-80500000D03*
X109050000Y-80500000D03*
X110000000Y-80500000D03*
X110000000Y-83010000D03*
X109050000Y-83010000D03*
X108100000Y-83010000D03*
%TD*%
D32*
%TO.C,C12*%
X153750000Y-93350000D03*
X153750000Y-95150000D03*
%TD*%
M02*
