%TF.GenerationSoftware,KiCad,Pcbnew,8.0.8*%
%TF.CreationDate,2025-05-05T18:38:58+03:00*%
%TF.ProjectId,gamma-spectrometer,67616d6d-612d-4737-9065-6374726f6d65,v0.0.4*%
%TF.SameCoordinates,Original*%
%TF.FileFunction,Plated,1,2,PTH,Drill*%
%TF.FilePolarity,Positive*%
%FSLAX46Y46*%
G04 Gerber Fmt 4.6, Leading zero omitted, Abs format (unit mm)*
G04 Created by KiCad (PCBNEW 8.0.8) date 2025-05-05 18:38:58*
%MOMM*%
%LPD*%
G01*
G04 APERTURE LIST*
%TA.AperFunction,ViaDrill*%
%ADD10C,0.300000*%
%TD*%
%TA.AperFunction,ViaDrill*%
%ADD11C,0.500000*%
%TD*%
%TA.AperFunction,ComponentDrill*%
%ADD12C,0.660000*%
%TD*%
%TA.AperFunction,ComponentDrill*%
%ADD13C,0.800000*%
%TD*%
%TA.AperFunction,ComponentDrill*%
%ADD14C,1.020000*%
%TD*%
G04 APERTURE END LIST*
D10*
X90890000Y-69500000D03*
X111500000Y-78000000D03*
X135250000Y-71000000D03*
X147000000Y-92250000D03*
X149468750Y-77750000D03*
X189000000Y-79500000D03*
X197220000Y-87750000D03*
D11*
X89500000Y-71000000D03*
X92050000Y-71000000D03*
X94550000Y-71000000D03*
X158750000Y-78500000D03*
X158750000Y-81250000D03*
X158750000Y-86500000D03*
X158750000Y-89375000D03*
X162250000Y-68500000D03*
X162250000Y-99000000D03*
X177350000Y-81250000D03*
X177400000Y-86250000D03*
X187250000Y-76625000D03*
X190500000Y-76500000D03*
X194500000Y-76625000D03*
X197750000Y-76625000D03*
X207700000Y-81250000D03*
X207750000Y-86250000D03*
D12*
%TO.C,VR2*%
X143370000Y-96240000D03*
X145910000Y-93700000D03*
X148450000Y-96240000D03*
%TO.C,VR1*%
X152420000Y-73250000D03*
X154960000Y-70710000D03*
X157500000Y-73250000D03*
D13*
%TO.C,J1*%
X96500000Y-97950000D03*
X98500000Y-97950000D03*
X100500000Y-97950000D03*
X102500000Y-97950000D03*
%TO.C,J2*%
X107000000Y-97950000D03*
X109000000Y-97950000D03*
X111000000Y-97950000D03*
X113000000Y-97950000D03*
X115000000Y-97950000D03*
X117000000Y-97950000D03*
D14*
%TO.C,U1*%
X89500000Y-75000000D03*
X89500000Y-92780000D03*
X92040000Y-75000000D03*
X92040000Y-92780000D03*
X94580000Y-75000000D03*
X94580000Y-92780000D03*
X97120000Y-75000000D03*
X97120000Y-92780000D03*
X99660000Y-75000000D03*
X99660000Y-92780000D03*
X102200000Y-75000000D03*
X102200000Y-92780000D03*
X104740000Y-75000000D03*
X104740000Y-92780000D03*
X107280000Y-75000000D03*
X107280000Y-92780000D03*
X109820000Y-75000000D03*
X109820000Y-92780000D03*
X112360000Y-75000000D03*
X112360000Y-92780000D03*
X114900000Y-75000000D03*
X114900000Y-92780000D03*
X117440000Y-75000000D03*
X117440000Y-92780000D03*
X119980000Y-75000000D03*
X119980000Y-92780000D03*
X122520000Y-75000000D03*
X122520000Y-92780000D03*
X125060000Y-75000000D03*
X125060000Y-92780000D03*
X127600000Y-75000000D03*
X127600000Y-92780000D03*
X130140000Y-75000000D03*
X130140000Y-92780000D03*
X132680000Y-75000000D03*
X132680000Y-92780000D03*
X135220000Y-75000000D03*
X135220000Y-92780000D03*
X137530000Y-81350000D03*
X137530000Y-83890000D03*
X137530000Y-86430000D03*
X137760000Y-75000000D03*
X137760000Y-92780000D03*
M02*
