%TF.GenerationSoftware,KiCad,Pcbnew,9.0.4*%
%TF.CreationDate,2025-09-10T15:34:59+03:00*%
%TF.ProjectId,sipm_board,7369706d-5f62-46f6-9172-642e6b696361,0.2.3*%
%TF.SameCoordinates,Original*%
%TF.FileFunction,Copper,L2,Bot*%
%TF.FilePolarity,Positive*%
%FSLAX46Y46*%
G04 Gerber Fmt 4.6, Leading zero omitted, Abs format (unit mm)*
G04 Created by KiCad (PCBNEW 9.0.4) date 2025-09-10 15:34:59*
%MOMM*%
%LPD*%
G01*
G04 APERTURE LIST*
G04 Aperture macros list*
%AMRoundRect*
0 Rectangle with rounded corners*
0 $1 Rounding radius*
0 $2 $3 $4 $5 $6 $7 $8 $9 X,Y pos of 4 corners*
0 Add a 4 corners polygon primitive as box body*
4,1,4,$2,$3,$4,$5,$6,$7,$8,$9,$2,$3,0*
0 Add four circle primitives for the rounded corners*
1,1,$1+$1,$2,$3*
1,1,$1+$1,$4,$5*
1,1,$1+$1,$6,$7*
1,1,$1+$1,$8,$9*
0 Add four rect primitives between the rounded corners*
20,1,$1+$1,$2,$3,$4,$5,0*
20,1,$1+$1,$4,$5,$6,$7,0*
20,1,$1+$1,$6,$7,$8,$9,0*
20,1,$1+$1,$8,$9,$2,$3,0*%
%AMFreePoly0*
4,1,260,1.346010,3.150049,1.351005,3.149050,1.357000,3.149050,1.363008,3.148049,1.363019,3.148046,1.368014,3.146048,1.374008,3.145049,1.374019,3.145046,1.379022,3.143045,1.385022,3.140045,1.385021,3.140044,1.390026,3.138043,1.405026,3.129043,1.405035,3.129035,1.409028,3.125041,1.414026,3.122043,1.422035,3.114035,1.422043,3.114026,1.425041,3.109028,1.429035,3.105035,
1.429043,3.105026,1.438043,3.090026,1.440045,3.085022,1.443046,3.079019,1.445046,3.074019,1.445049,3.074008,1.446048,3.068014,1.448046,3.063019,1.448049,3.063008,1.449050,3.057000,1.449050,3.051005,1.450049,3.046010,1.450050,3.046000,1.450050,1.450050,3.036000,1.450050,3.043000,1.449050,3.049000,1.449050,3.049016,1.449047,3.055012,1.447048,3.061016,1.446047,
3.079026,1.440043,3.084026,1.437043,3.090026,1.434043,3.095028,1.431042,3.101028,1.427042,3.106031,1.423039,3.110031,1.419039,3.115031,1.415039,3.115039,1.415031,3.119039,1.410031,3.123039,1.406031,3.127042,1.401028,3.131043,1.395026,3.134043,1.390026,3.137043,1.384026,3.140043,1.379026,3.146049,1.361008,3.147048,1.355012,3.149047,1.349016,3.149050,1.349000,
3.149050,1.343000,3.150050,1.336000,3.150050,-1.346000,3.150049,-1.346010,3.149050,-1.351005,3.149050,-1.357000,3.148049,-1.363008,3.148046,-1.363019,3.146048,-1.368014,3.145049,-1.374008,3.145046,-1.374019,3.143045,-1.379022,3.140045,-1.385022,3.138043,-1.390026,3.129043,-1.405026,3.129035,-1.405035,3.125041,-1.409028,3.122043,-1.414026,3.114035,-1.422035,3.114026,-1.422043,
3.109028,-1.425041,3.105035,-1.429035,3.105026,-1.429043,3.090026,-1.438043,3.085021,-1.440044,3.085022,-1.440045,3.079019,-1.443046,3.074019,-1.445046,3.074008,-1.445049,3.068014,-1.446048,3.063019,-1.448046,3.063008,-1.448049,3.057000,-1.449050,3.051005,-1.449050,3.046010,-1.450049,3.046000,-1.450050,1.450050,-1.450050,1.450050,-3.036000,1.449050,-3.043000,1.449050,-3.049000,
1.449047,-3.049016,1.447048,-3.055012,1.446047,-3.061016,1.440043,-3.079026,1.437043,-3.084026,1.434043,-3.090026,1.431042,-3.095028,1.427042,-3.101028,1.423039,-3.106031,1.419039,-3.110031,1.415039,-3.115031,1.415031,-3.115039,1.410031,-3.119039,1.406031,-3.123039,1.401028,-3.127042,1.395026,-3.131043,1.390026,-3.134043,1.384026,-3.137043,1.379026,-3.140043,1.361008,-3.146049,
1.355012,-3.147048,1.349016,-3.149047,1.349000,-3.149050,1.343000,-3.149050,1.336000,-3.150050,-1.346000,-3.150050,-1.346010,-3.150049,-1.351005,-3.149050,-1.357000,-3.149050,-1.363008,-3.148049,-1.363019,-3.148046,-1.368014,-3.146048,-1.374008,-3.145049,-1.374019,-3.145046,-1.379022,-3.143045,-1.385022,-3.140045,-1.385021,-3.140044,-1.390026,-3.138043,-1.405026,-3.129043,-1.405035,-3.129035,
-1.409028,-3.125041,-1.414026,-3.122043,-1.422035,-3.114035,-1.422043,-3.114026,-1.425041,-3.109028,-1.429035,-3.105035,-1.429043,-3.105026,-1.438043,-3.090026,-1.440045,-3.085022,-1.443046,-3.079019,-1.445046,-3.074019,-1.445049,-3.074008,-1.446048,-3.068014,-1.448046,-3.063019,-1.448049,-3.063008,-1.449050,-3.057000,-1.449050,-3.051005,-1.450049,-3.046010,-1.450050,-3.046000,-1.450050,-1.450050,
-3.046000,-1.450050,-3.046010,-1.450049,-3.051005,-1.449050,-3.057000,-1.449050,-3.063008,-1.448049,-3.063019,-1.448046,-3.068014,-1.446048,-3.074008,-1.445049,-3.074019,-1.445046,-3.079022,-1.443045,-3.085022,-1.440045,-3.085021,-1.440044,-3.090026,-1.438043,-3.105026,-1.429043,-3.105035,-1.429035,-3.109028,-1.425041,-3.114026,-1.422043,-3.122035,-1.414035,-3.122043,-1.414026,-3.125041,-1.409028,
-3.129035,-1.405035,-3.129043,-1.405026,-3.138043,-1.390026,-3.140045,-1.385022,-3.143046,-1.379019,-3.145046,-1.374019,-3.145049,-1.374008,-3.146048,-1.368014,-3.148046,-1.363019,-3.148049,-1.363008,-3.149050,-1.357000,-3.149050,-1.351005,-3.150049,-1.346010,-3.150050,-1.346000,-3.150050,1.327000,-3.149049,1.334008,-3.148049,1.340008,-3.146047,1.354016,-3.144046,1.360020,-3.141046,1.367020,
-3.139045,1.373022,-3.133042,1.385028,-3.129042,1.391028,-3.125041,1.396027,-3.125042,1.396028,-3.121042,1.402028,-3.117039,1.407031,-3.107031,1.417039,-3.102028,1.421042,-3.096028,1.425042,-3.096027,1.425041,-3.091028,1.429042,-3.085028,1.433042,-3.073022,1.439045,-3.067019,1.441045,-3.067020,1.441046,-3.060016,1.444047,-3.054016,1.446047,-3.047007,1.447049,-3.040007,1.448048,
-3.040008,1.448049,-3.034007,1.449049,-3.027000,1.450050,-1.450050,1.450050,-1.450050,3.046000,-1.450049,3.046010,-1.449050,3.051005,-1.449050,3.057000,-1.448049,3.063008,-1.448046,3.063019,-1.446048,3.068014,-1.445049,3.074008,-1.445046,3.074019,-1.443045,3.079022,-1.440045,3.085022,-1.438043,3.090026,-1.429043,3.105026,-1.429035,3.105035,-1.425041,3.109028,-1.422043,3.114026,
-1.414035,3.122035,-1.414026,3.122043,-1.409028,3.125041,-1.405035,3.129035,-1.405026,3.129043,-1.390026,3.138043,-1.385021,3.140044,-1.385022,3.140045,-1.379019,3.143046,-1.374019,3.145046,-1.374008,3.145049,-1.368014,3.146048,-1.363019,3.148046,-1.363008,3.148049,-1.357000,3.149050,-1.351005,3.149050,-1.346010,3.150049,-1.346000,3.150050,1.346000,3.150050,1.346010,3.150049,
1.346010,3.150049,$1*%
G04 Aperture macros list end*
%TA.AperFunction,SMDPad,CuDef*%
%ADD10RoundRect,0.150000X-0.150000X-0.400000X0.150000X-0.400000X0.150000X0.400000X-0.150000X0.400000X0*%
%TD*%
%TA.AperFunction,SMDPad,CuDef*%
%ADD11RoundRect,0.150000X-0.400000X-0.150000X0.400000X-0.150000X0.400000X0.150000X-0.400000X0.150000X0*%
%TD*%
%TA.AperFunction,SMDPad,CuDef*%
%ADD12FreePoly0,0.000000*%
%TD*%
%TA.AperFunction,ViaPad*%
%ADD13C,1.000000*%
%TD*%
%TA.AperFunction,ViaPad*%
%ADD14C,0.600000*%
%TD*%
%TA.AperFunction,Conductor*%
%ADD15C,0.200000*%
%TD*%
G04 APERTURE END LIST*
D10*
%TO.P,U2,1*%
%TO.N,ANODE_OUT*%
X147700000Y-96750000D03*
D11*
%TO.P,U2,2*%
%TO.N,unconnected-(U2-Pad2)*%
X153550000Y-96900000D03*
D10*
%TO.P,U2,3*%
%TO.N,/+29.6V*%
X153400000Y-102750000D03*
D11*
%TO.P,U2,4*%
%TO.N,N/C*%
X147550000Y-102600000D03*
D12*
%TO.P,U2,5,EP*%
%TO.N,unconnected-(U2-EP-Pad5)*%
X150550000Y-99750000D03*
%TD*%
D13*
%TO.N,GND1*%
X152500000Y-92625000D03*
X135400000Y-102250000D03*
X148500000Y-92500000D03*
X135350000Y-97250000D03*
X165750000Y-102250000D03*
X165700000Y-97250000D03*
D14*
%TO.N,ANODE_OUT*%
X147000000Y-95500000D03*
D13*
X145250000Y-92625000D03*
%TO.N,PS_IN*%
X155750000Y-92625000D03*
D14*
%TO.N,/+29.6V*%
X155220000Y-103750000D03*
%TD*%
D15*
%TO.N,ANODE_OUT*%
X147675000Y-96175000D02*
X147675000Y-96725000D01*
X147000000Y-95500000D02*
X147675000Y-96175000D01*
%TO.N,/+29.6V*%
X153375000Y-103600000D02*
X153375000Y-102725000D01*
X155220000Y-103750000D02*
X153525000Y-103750000D01*
X153525000Y-103750000D02*
X153375000Y-103600000D01*
%TD*%
%TA.AperFunction,Conductor*%
%TO.N,GND1*%
G36*
X150937831Y-82002237D02*
G01*
X151751201Y-82039842D01*
X151756912Y-82040238D01*
X152567666Y-82115365D01*
X152573327Y-82116022D01*
X153379757Y-82228514D01*
X153385402Y-82229435D01*
X154185784Y-82379053D01*
X154191388Y-82380235D01*
X154984004Y-82566656D01*
X154989488Y-82568081D01*
X155695682Y-82769011D01*
X155772645Y-82790909D01*
X155778118Y-82792603D01*
X156550158Y-83051364D01*
X156555495Y-83053291D01*
X157161393Y-83288017D01*
X157314786Y-83347442D01*
X157320078Y-83349635D01*
X158064923Y-83678516D01*
X158070057Y-83680925D01*
X158630107Y-83959797D01*
X158798955Y-84043874D01*
X158804022Y-84046545D01*
X159515347Y-84442751D01*
X159520262Y-84445639D01*
X160212568Y-84874296D01*
X160217325Y-84877396D01*
X160889092Y-85337566D01*
X160893732Y-85340905D01*
X161543498Y-85831586D01*
X161547988Y-85835143D01*
X162174390Y-86355301D01*
X162178711Y-86359061D01*
X162780431Y-86907601D01*
X162784574Y-86911557D01*
X163360312Y-87487295D01*
X163364268Y-87491438D01*
X163912808Y-88093158D01*
X163916568Y-88097479D01*
X164436726Y-88723881D01*
X164440283Y-88728371D01*
X164930964Y-89378137D01*
X164934310Y-89382787D01*
X165394459Y-90054523D01*
X165397586Y-90059322D01*
X165826223Y-90751595D01*
X165829125Y-90756534D01*
X166225324Y-91467847D01*
X166227995Y-91472914D01*
X166590931Y-92201786D01*
X166593365Y-92206972D01*
X166922234Y-92951791D01*
X166924427Y-92957083D01*
X167218569Y-93716349D01*
X167220514Y-93721737D01*
X167479266Y-94493752D01*
X167480960Y-94499224D01*
X167703780Y-95282351D01*
X167705220Y-95287895D01*
X167891633Y-96080480D01*
X167892816Y-96086085D01*
X168042433Y-96886463D01*
X168043355Y-96892117D01*
X168155845Y-97698528D01*
X168156505Y-97704218D01*
X168231630Y-98514956D01*
X168232027Y-98520670D01*
X168269633Y-99334038D01*
X168269765Y-99339765D01*
X168269765Y-100153974D01*
X168269633Y-100159701D01*
X168232027Y-100973069D01*
X168231630Y-100978783D01*
X168156505Y-101789521D01*
X168155845Y-101795211D01*
X168043355Y-102601622D01*
X168042433Y-102607276D01*
X167892816Y-103407654D01*
X167891633Y-103413259D01*
X167705220Y-104205844D01*
X167703780Y-104211388D01*
X167480960Y-104994515D01*
X167479266Y-104999987D01*
X167220514Y-105772002D01*
X167218569Y-105777390D01*
X166924427Y-106536656D01*
X166922234Y-106541948D01*
X166593365Y-107286767D01*
X166590931Y-107291953D01*
X166227995Y-108020825D01*
X166225324Y-108025892D01*
X165829125Y-108737205D01*
X165826223Y-108742144D01*
X165397586Y-109434417D01*
X165394459Y-109439216D01*
X164934310Y-110110952D01*
X164930964Y-110115602D01*
X164440283Y-110765368D01*
X164436726Y-110769858D01*
X163916568Y-111396260D01*
X163912808Y-111400581D01*
X163364268Y-112002301D01*
X163360312Y-112006444D01*
X162784574Y-112582182D01*
X162780431Y-112586138D01*
X162178711Y-113134678D01*
X162174390Y-113138438D01*
X161547988Y-113658596D01*
X161543498Y-113662153D01*
X160893732Y-114152834D01*
X160889082Y-114156180D01*
X160217346Y-114616329D01*
X160212547Y-114619456D01*
X159520274Y-115048093D01*
X159515335Y-115050995D01*
X158804022Y-115447194D01*
X158798955Y-115449865D01*
X158070083Y-115812801D01*
X158064897Y-115815235D01*
X157320078Y-116144104D01*
X157314786Y-116146297D01*
X156555520Y-116440439D01*
X156550132Y-116442384D01*
X155778117Y-116701136D01*
X155772645Y-116702830D01*
X154989518Y-116925650D01*
X154983974Y-116927090D01*
X154191389Y-117113503D01*
X154185784Y-117114686D01*
X153385406Y-117264303D01*
X153379752Y-117265225D01*
X152573341Y-117377715D01*
X152567651Y-117378375D01*
X151756913Y-117453500D01*
X151751199Y-117453897D01*
X150937831Y-117491503D01*
X150932104Y-117491635D01*
X150117896Y-117491635D01*
X150112169Y-117491503D01*
X149298800Y-117453897D01*
X149293086Y-117453500D01*
X148482348Y-117378375D01*
X148476658Y-117377715D01*
X147670247Y-117265225D01*
X147664593Y-117264303D01*
X146864215Y-117114686D01*
X146858610Y-117113503D01*
X146066025Y-116927090D01*
X146060481Y-116925650D01*
X145277354Y-116702830D01*
X145271882Y-116701136D01*
X144499867Y-116442384D01*
X144494479Y-116440439D01*
X143735213Y-116146297D01*
X143729921Y-116144104D01*
X142985102Y-115815235D01*
X142979916Y-115812801D01*
X142251044Y-115449865D01*
X142245977Y-115447194D01*
X141534664Y-115050995D01*
X141529725Y-115048093D01*
X141475063Y-115014248D01*
X140837442Y-114619449D01*
X140832664Y-114616336D01*
X140160915Y-114156178D01*
X140156267Y-114152834D01*
X139506501Y-113662153D01*
X139502011Y-113658596D01*
X138875609Y-113138438D01*
X138871288Y-113134678D01*
X138269568Y-112586138D01*
X138265425Y-112582182D01*
X137689687Y-112006444D01*
X137685731Y-112002301D01*
X137137191Y-111400581D01*
X137133431Y-111396260D01*
X136613273Y-110769858D01*
X136609716Y-110765368D01*
X136119035Y-110115602D01*
X136115689Y-110110952D01*
X136030137Y-109986061D01*
X135655526Y-109439195D01*
X135652426Y-109434438D01*
X135223769Y-108742132D01*
X135220874Y-108737205D01*
X134824675Y-108025892D01*
X134822004Y-108020825D01*
X134737927Y-107851977D01*
X134459055Y-107291927D01*
X134456646Y-107286793D01*
X134127765Y-106541948D01*
X134125572Y-106536656D01*
X133962753Y-106116373D01*
X133831421Y-105777365D01*
X133829494Y-105772028D01*
X133570733Y-104999987D01*
X133569039Y-104994515D01*
X133346211Y-104211358D01*
X133344786Y-104205874D01*
X133158365Y-103413258D01*
X133157183Y-103407654D01*
X133156765Y-103405417D01*
X133007565Y-102607272D01*
X133006644Y-102601622D01*
X132976330Y-102384306D01*
X132894152Y-101795197D01*
X132893494Y-101789521D01*
X132891664Y-101769776D01*
X132818368Y-100978782D01*
X132817972Y-100973069D01*
X132780367Y-100159701D01*
X132780235Y-100153974D01*
X132780235Y-99339765D01*
X132780367Y-99334038D01*
X132817972Y-98520670D01*
X132818369Y-98514956D01*
X132831129Y-98377257D01*
X132893496Y-97704198D01*
X132894154Y-97698528D01*
X132896246Y-97683536D01*
X133006645Y-96892105D01*
X133007566Y-96886463D01*
X133041675Y-96704000D01*
X133157184Y-96086076D01*
X133158366Y-96080480D01*
X133189493Y-95948135D01*
X133313438Y-95421153D01*
X146199500Y-95421153D01*
X146199500Y-95578846D01*
X146230261Y-95733489D01*
X146230264Y-95733501D01*
X146290602Y-95879172D01*
X146290609Y-95879185D01*
X146378210Y-96010288D01*
X146378213Y-96010292D01*
X146489707Y-96121786D01*
X146489711Y-96121789D01*
X146620814Y-96209390D01*
X146620827Y-96209397D01*
X146675211Y-96231923D01*
X146766503Y-96269737D01*
X146799691Y-96276338D01*
X146861600Y-96308721D01*
X146896176Y-96369436D01*
X146899500Y-96397955D01*
X146899500Y-97215701D01*
X146902401Y-97252567D01*
X146902402Y-97252573D01*
X146948254Y-97410393D01*
X146948255Y-97410396D01*
X147031917Y-97551862D01*
X147031923Y-97551870D01*
X147148129Y-97668076D01*
X147148133Y-97668079D01*
X147148135Y-97668081D01*
X147148137Y-97668082D01*
X147174268Y-97683536D01*
X147197890Y-97708836D01*
X147221695Y-97734097D01*
X147221749Y-97734389D01*
X147221951Y-97734605D01*
X147228136Y-97768611D01*
X147234514Y-97802780D01*
X147234402Y-97803054D01*
X147234455Y-97803346D01*
X147221222Y-97835421D01*
X147208165Y-97867491D01*
X147207888Y-97867744D01*
X147207810Y-97867936D01*
X147182479Y-97891696D01*
X147181195Y-97892598D01*
X147175798Y-97896197D01*
X147157715Y-97908831D01*
X147157361Y-97909090D01*
X147152984Y-97912438D01*
X147150921Y-97913890D01*
X147150898Y-97913897D01*
X147150619Y-97914102D01*
X147146744Y-97916809D01*
X147146369Y-97917084D01*
X147129054Y-97930333D01*
X147124061Y-97934328D01*
X147102880Y-97952247D01*
X147102479Y-97952605D01*
X147081971Y-97972002D01*
X147072002Y-97981971D01*
X147052605Y-98002479D01*
X147052247Y-98002880D01*
X147034328Y-98024061D01*
X147030333Y-98029054D01*
X147017632Y-98045652D01*
X147017630Y-98045654D01*
X147017090Y-98046361D01*
X147016831Y-98046715D01*
X147012570Y-98052813D01*
X147009090Y-98057361D01*
X147008831Y-98057715D01*
X146996197Y-98075798D01*
X146992197Y-98081798D01*
X146975546Y-98108544D01*
X146975231Y-98109087D01*
X146960350Y-98136676D01*
X146954350Y-98148676D01*
X146939513Y-98181172D01*
X146939239Y-98181833D01*
X146935092Y-98192940D01*
X146931683Y-98201373D01*
X146931677Y-98201385D01*
X146928845Y-98208394D01*
X146928679Y-98208829D01*
X146921654Y-98228536D01*
X146919651Y-98234543D01*
X146919643Y-98234571D01*
X146907180Y-98278480D01*
X146907173Y-98278508D01*
X146906968Y-98279379D01*
X146898582Y-98323790D01*
X146897587Y-98330762D01*
X146897259Y-98332918D01*
X146896510Y-98337569D01*
X146896464Y-98337865D01*
X146895604Y-98343643D01*
X146894581Y-98350808D01*
X146890787Y-98386257D01*
X146890734Y-98386994D01*
X146889450Y-98422997D01*
X146889450Y-101096023D01*
X146891766Y-101142925D01*
X146891767Y-101142934D01*
X146891909Y-101145796D01*
X146892007Y-101146786D01*
X146892137Y-101147660D01*
X146892188Y-101148879D01*
X146892257Y-101149709D01*
X146897397Y-101190934D01*
X146898397Y-101196934D01*
X146910134Y-101249748D01*
X146910426Y-101250794D01*
X146911870Y-101255060D01*
X146913134Y-101260748D01*
X146913426Y-101261794D01*
X146913461Y-101261898D01*
X146913462Y-101261902D01*
X146930965Y-101313611D01*
X146932966Y-101318616D01*
X146941378Y-101338413D01*
X146941548Y-101338790D01*
X146950163Y-101356931D01*
X146951322Y-101359444D01*
X146954674Y-101366931D01*
X146955049Y-101367685D01*
X146974201Y-101402666D01*
X146983203Y-101417670D01*
X146983211Y-101417682D01*
X147018090Y-101468507D01*
X147018853Y-101469485D01*
X147019508Y-101470274D01*
X147024161Y-101476239D01*
X147025082Y-101477497D01*
X147025846Y-101478477D01*
X147025848Y-101478479D01*
X147025853Y-101478485D01*
X147066987Y-101525013D01*
X147074987Y-101533013D01*
X147121515Y-101574147D01*
X147122488Y-101574906D01*
X147122513Y-101574923D01*
X147123748Y-101575828D01*
X147129722Y-101580488D01*
X147130506Y-101581139D01*
X147130515Y-101581147D01*
X147130523Y-101581153D01*
X147131804Y-101582217D01*
X147170802Y-101640191D01*
X147172266Y-101710045D01*
X147135732Y-101769602D01*
X147072799Y-101799953D01*
X147062316Y-101801229D01*
X147047441Y-101802400D01*
X147047426Y-101802402D01*
X146889606Y-101848254D01*
X146889603Y-101848255D01*
X146748137Y-101931917D01*
X146748129Y-101931923D01*
X146631923Y-102048129D01*
X146631917Y-102048137D01*
X146548255Y-102189603D01*
X146548254Y-102189606D01*
X146502402Y-102347426D01*
X146502401Y-102347432D01*
X146499500Y-102384298D01*
X146499500Y-102815701D01*
X146502401Y-102852567D01*
X146502402Y-102852573D01*
X146548254Y-103010393D01*
X146548255Y-103010396D01*
X146548256Y-103010398D01*
X146578982Y-103062353D01*
X146631917Y-103151862D01*
X146631923Y-103151870D01*
X146748129Y-103268076D01*
X146748133Y-103268079D01*
X146748135Y-103268081D01*
X146889602Y-103351744D01*
X146912650Y-103358440D01*
X147047426Y-103397597D01*
X147047429Y-103397597D01*
X147047431Y-103397598D01*
X147084306Y-103400500D01*
X147084314Y-103400500D01*
X148015686Y-103400500D01*
X148015694Y-103400500D01*
X148052569Y-103397598D01*
X148052571Y-103397597D01*
X148052573Y-103397597D01*
X148094191Y-103385505D01*
X148210398Y-103351744D01*
X148351865Y-103268081D01*
X148468081Y-103151865D01*
X148479551Y-103132469D01*
X148504930Y-103108772D01*
X148530224Y-103084985D01*
X148530449Y-103084943D01*
X148530619Y-103084785D01*
X148564968Y-103078536D01*
X148598920Y-103072235D01*
X148599132Y-103072321D01*
X148599361Y-103072280D01*
X148631579Y-103085570D01*
X148663605Y-103098648D01*
X148663807Y-103098865D01*
X148663951Y-103098925D01*
X148687784Y-103124359D01*
X148688205Y-103124959D01*
X148718094Y-103168512D01*
X148718853Y-103169485D01*
X148721759Y-103172772D01*
X148724908Y-103177259D01*
X148725082Y-103177497D01*
X148725846Y-103178477D01*
X148725848Y-103178479D01*
X148725853Y-103178485D01*
X148766987Y-103225013D01*
X148774987Y-103233013D01*
X148821515Y-103274147D01*
X148822488Y-103274906D01*
X148826812Y-103277873D01*
X148830515Y-103281147D01*
X148831488Y-103281906D01*
X148882324Y-103316793D01*
X148897324Y-103325793D01*
X148932339Y-103344963D01*
X148933061Y-103345322D01*
X148942236Y-103349430D01*
X148942676Y-103349650D01*
X148961202Y-103358448D01*
X148961496Y-103358580D01*
X148961586Y-103358621D01*
X148981383Y-103367033D01*
X148981386Y-103367034D01*
X148986386Y-103369034D01*
X149038206Y-103386574D01*
X149039252Y-103386866D01*
X149039278Y-103386871D01*
X149040871Y-103387271D01*
X149040857Y-103387323D01*
X149048290Y-103389291D01*
X149049185Y-103389567D01*
X149049206Y-103389574D01*
X149050252Y-103389866D01*
X149050256Y-103389867D01*
X149085040Y-103397597D01*
X149103066Y-103401603D01*
X149109066Y-103402603D01*
X149150291Y-103407743D01*
X149151121Y-103407812D01*
X149151133Y-103407812D01*
X149151776Y-103407866D01*
X149153707Y-103408041D01*
X149154204Y-103408091D01*
X149154223Y-103408091D01*
X149154224Y-103408092D01*
X149203976Y-103410549D01*
X149203995Y-103410549D01*
X149204000Y-103410550D01*
X149204001Y-103410550D01*
X151886003Y-103410550D01*
X151894311Y-103410253D01*
X151922015Y-103409265D01*
X151922729Y-103409214D01*
X151958202Y-103405418D01*
X151964845Y-103404469D01*
X151964844Y-103404468D01*
X151968442Y-103403954D01*
X151979924Y-103403030D01*
X151981521Y-103402771D01*
X151988145Y-103401140D01*
X151994253Y-103400268D01*
X151999227Y-103399557D01*
X152009613Y-103396565D01*
X152033378Y-103391650D01*
X152034145Y-103391460D01*
X152072450Y-103380350D01*
X152090450Y-103374350D01*
X152142053Y-103353939D01*
X152143054Y-103353478D01*
X152148703Y-103350493D01*
X152151133Y-103349245D01*
X152162493Y-103343564D01*
X152162494Y-103343565D01*
X152168324Y-103340650D01*
X152185868Y-103331444D01*
X152186208Y-103331257D01*
X152202676Y-103321793D01*
X152207676Y-103318793D01*
X152217214Y-103312925D01*
X152217229Y-103312915D01*
X152217251Y-103312902D01*
X152217291Y-103312876D01*
X152217417Y-103312797D01*
X152228202Y-103305803D01*
X152234202Y-103301803D01*
X152252285Y-103289169D01*
X152252639Y-103288910D01*
X152269938Y-103275672D01*
X152274938Y-103271672D01*
X152296114Y-103253757D01*
X152296530Y-103253385D01*
X152315925Y-103235041D01*
X152325597Y-103226385D01*
X152326385Y-103225597D01*
X152335041Y-103215925D01*
X152353385Y-103196530D01*
X152353757Y-103196114D01*
X152371672Y-103174938D01*
X152375672Y-103169938D01*
X152378653Y-103166041D01*
X152435022Y-103124757D01*
X152504762Y-103120502D01*
X152565731Y-103154626D01*
X152598573Y-103216296D01*
X152600756Y-103231657D01*
X152602401Y-103252567D01*
X152602402Y-103252573D01*
X152648254Y-103410393D01*
X152648255Y-103410396D01*
X152648256Y-103410398D01*
X152731919Y-103551865D01*
X152738178Y-103558124D01*
X152771664Y-103619444D01*
X152774499Y-103645807D01*
X152774499Y-103679054D01*
X152774498Y-103679054D01*
X152815423Y-103831785D01*
X152844358Y-103881900D01*
X152844359Y-103881904D01*
X152844360Y-103881904D01*
X152894479Y-103968714D01*
X152894481Y-103968717D01*
X153013349Y-104087585D01*
X153013355Y-104087590D01*
X153040139Y-104114374D01*
X153040149Y-104114385D01*
X153044479Y-104118715D01*
X153044480Y-104118716D01*
X153156284Y-104230520D01*
X153207845Y-104260288D01*
X153243095Y-104280639D01*
X153243097Y-104280641D01*
X153281151Y-104302611D01*
X153293215Y-104309577D01*
X153445943Y-104350501D01*
X153445946Y-104350501D01*
X153611653Y-104350501D01*
X153611669Y-104350500D01*
X154640234Y-104350500D01*
X154707273Y-104370185D01*
X154709125Y-104371398D01*
X154840814Y-104459390D01*
X154840827Y-104459397D01*
X154986498Y-104519735D01*
X154986503Y-104519737D01*
X155141153Y-104550499D01*
X155141156Y-104550500D01*
X155141158Y-104550500D01*
X155298844Y-104550500D01*
X155298845Y-104550499D01*
X155453497Y-104519737D01*
X155599179Y-104459394D01*
X155730289Y-104371789D01*
X155841789Y-104260289D01*
X155929394Y-104129179D01*
X155989737Y-103983497D01*
X156020500Y-103828842D01*
X156020500Y-103671158D01*
X156020500Y-103671155D01*
X156020499Y-103671153D01*
X156005241Y-103594445D01*
X155989737Y-103516503D01*
X155989735Y-103516498D01*
X155929397Y-103370827D01*
X155929390Y-103370814D01*
X155841789Y-103239711D01*
X155841786Y-103239707D01*
X155730292Y-103128213D01*
X155730288Y-103128210D01*
X155599185Y-103040609D01*
X155599172Y-103040602D01*
X155453501Y-102980264D01*
X155453489Y-102980261D01*
X155298845Y-102949500D01*
X155298842Y-102949500D01*
X155141158Y-102949500D01*
X155141155Y-102949500D01*
X154986510Y-102980261D01*
X154986498Y-102980264D01*
X154840827Y-103040602D01*
X154840814Y-103040609D01*
X154709125Y-103128602D01*
X154642447Y-103149480D01*
X154640234Y-103149500D01*
X154324500Y-103149500D01*
X154257461Y-103129815D01*
X154211706Y-103077011D01*
X154200500Y-103025500D01*
X154200500Y-102284313D01*
X154200499Y-102284298D01*
X154197598Y-102247432D01*
X154197597Y-102247426D01*
X154151745Y-102089606D01*
X154151744Y-102089603D01*
X154151744Y-102089602D01*
X154068081Y-101948135D01*
X154068079Y-101948133D01*
X154068076Y-101948129D01*
X153951870Y-101831923D01*
X153951859Y-101831914D01*
X153932467Y-101820446D01*
X153908813Y-101795113D01*
X153884985Y-101769776D01*
X153884942Y-101769546D01*
X153884784Y-101769377D01*
X153878597Y-101735362D01*
X153872234Y-101701080D01*
X153872322Y-101700863D01*
X153872281Y-101700635D01*
X153885516Y-101668551D01*
X153898648Y-101636395D01*
X153898867Y-101636191D01*
X153898927Y-101636046D01*
X153924358Y-101612215D01*
X153924848Y-101611870D01*
X153968512Y-101581906D01*
X153969485Y-101581147D01*
X153972784Y-101578229D01*
X153977273Y-101575079D01*
X153977472Y-101574933D01*
X153977512Y-101574906D01*
X153978485Y-101574147D01*
X154025013Y-101533013D01*
X154033013Y-101525013D01*
X154074147Y-101478485D01*
X154074906Y-101477512D01*
X154077873Y-101473187D01*
X154081147Y-101469485D01*
X154081906Y-101468512D01*
X154116793Y-101417676D01*
X154125793Y-101402676D01*
X154144963Y-101367661D01*
X154145322Y-101366939D01*
X154149430Y-101357763D01*
X154149650Y-101357324D01*
X154158448Y-101338798D01*
X154158620Y-101338416D01*
X154167034Y-101318614D01*
X154169034Y-101313614D01*
X154186574Y-101261794D01*
X154186866Y-101260748D01*
X154186870Y-101260728D01*
X154186873Y-101260719D01*
X154187277Y-101259109D01*
X154187328Y-101259121D01*
X154189286Y-101251726D01*
X154189563Y-101250826D01*
X154189574Y-101250794D01*
X154189866Y-101249748D01*
X154201603Y-101196934D01*
X154202603Y-101190934D01*
X154207743Y-101149709D01*
X154207812Y-101148879D01*
X154207812Y-101148857D01*
X154207863Y-101148253D01*
X154208049Y-101146219D01*
X154208091Y-101145796D01*
X154210550Y-101096000D01*
X154210550Y-98414000D01*
X154209265Y-98377985D01*
X154209214Y-98377271D01*
X154205418Y-98341798D01*
X154204469Y-98335155D01*
X154204468Y-98335155D01*
X154203955Y-98331565D01*
X154203030Y-98320076D01*
X154202771Y-98318479D01*
X154201138Y-98311847D01*
X154200266Y-98305737D01*
X154199581Y-98300947D01*
X154196598Y-98290544D01*
X154191650Y-98266622D01*
X154191460Y-98265855D01*
X154180350Y-98227550D01*
X154174350Y-98209550D01*
X154171120Y-98201385D01*
X154161414Y-98176846D01*
X154153939Y-98157947D01*
X154153478Y-98156946D01*
X154150513Y-98151333D01*
X154149244Y-98148864D01*
X154140644Y-98131664D01*
X154131462Y-98114167D01*
X154131444Y-98114132D01*
X154131257Y-98113792D01*
X154121793Y-98097324D01*
X154118793Y-98092324D01*
X154112925Y-98082786D01*
X154112902Y-98082748D01*
X154112826Y-98082629D01*
X154112797Y-98082583D01*
X154105803Y-98071798D01*
X154101803Y-98065798D01*
X154089169Y-98047715D01*
X154088910Y-98047361D01*
X154075672Y-98030062D01*
X154071672Y-98025062D01*
X154053757Y-98003886D01*
X154053385Y-98003470D01*
X154053377Y-98003461D01*
X154037404Y-97986572D01*
X154037395Y-97986563D01*
X154035041Y-97984074D01*
X154026385Y-97974403D01*
X154025597Y-97973615D01*
X154015925Y-97964958D01*
X154013429Y-97962597D01*
X153996538Y-97946621D01*
X153996119Y-97946247D01*
X153974938Y-97928328D01*
X153969930Y-97924321D01*
X153966029Y-97921336D01*
X153924752Y-97864962D01*
X153920506Y-97795222D01*
X153954638Y-97734257D01*
X154016312Y-97701423D01*
X154031654Y-97699243D01*
X154052569Y-97697598D01*
X154052571Y-97697597D01*
X154052573Y-97697597D01*
X154100970Y-97683536D01*
X154210398Y-97651744D01*
X154351865Y-97568081D01*
X154468081Y-97451865D01*
X154551744Y-97310398D01*
X154597598Y-97152569D01*
X154600500Y-97115694D01*
X154600500Y-96684306D01*
X154597598Y-96647431D01*
X154594110Y-96635426D01*
X154551745Y-96489606D01*
X154551744Y-96489603D01*
X154551744Y-96489602D01*
X154468081Y-96348135D01*
X154468079Y-96348133D01*
X154468076Y-96348129D01*
X154351870Y-96231923D01*
X154351862Y-96231917D01*
X154214309Y-96150569D01*
X154210398Y-96148256D01*
X154210397Y-96148255D01*
X154210396Y-96148255D01*
X154210393Y-96148254D01*
X154052573Y-96102402D01*
X154052567Y-96102401D01*
X154015701Y-96099500D01*
X154015694Y-96099500D01*
X153084306Y-96099500D01*
X153084298Y-96099500D01*
X153047432Y-96102401D01*
X153047426Y-96102402D01*
X152889606Y-96148254D01*
X152889603Y-96148255D01*
X152748137Y-96231917D01*
X152748129Y-96231923D01*
X152631923Y-96348129D01*
X152631914Y-96348140D01*
X152620445Y-96367534D01*
X152595101Y-96391196D01*
X152569775Y-96415014D01*
X152569545Y-96415056D01*
X152569375Y-96415216D01*
X152535140Y-96421442D01*
X152501079Y-96427764D01*
X152500863Y-96427676D01*
X152500633Y-96427718D01*
X152468570Y-96414489D01*
X152436394Y-96401351D01*
X152436187Y-96401129D01*
X152436044Y-96401070D01*
X152412215Y-96375640D01*
X152411807Y-96375059D01*
X152381906Y-96331488D01*
X152381147Y-96330515D01*
X152378238Y-96327225D01*
X152375114Y-96322773D01*
X152374923Y-96322512D01*
X152374906Y-96322488D01*
X152374147Y-96321515D01*
X152333013Y-96274987D01*
X152325013Y-96266987D01*
X152278485Y-96225853D01*
X152277512Y-96225094D01*
X152273187Y-96222126D01*
X152269485Y-96218853D01*
X152268512Y-96218094D01*
X152217676Y-96183207D01*
X152202676Y-96174207D01*
X152167661Y-96155037D01*
X152166939Y-96154678D01*
X152157763Y-96150569D01*
X152157324Y-96150350D01*
X152138798Y-96141552D01*
X152138790Y-96141548D01*
X152138413Y-96141378D01*
X152118616Y-96132966D01*
X152113611Y-96130965D01*
X152061794Y-96113426D01*
X152060725Y-96113127D01*
X152059141Y-96112731D01*
X152059151Y-96112688D01*
X152059143Y-96112686D01*
X152059144Y-96112682D01*
X152051790Y-96110733D01*
X152050802Y-96110428D01*
X152049745Y-96110133D01*
X151996942Y-96098398D01*
X151994532Y-96097996D01*
X151990934Y-96097397D01*
X151990922Y-96097395D01*
X151990919Y-96097395D01*
X151949699Y-96092255D01*
X151948193Y-96092130D01*
X151946261Y-96091954D01*
X151945821Y-96091910D01*
X151945794Y-96091908D01*
X151896023Y-96089450D01*
X151896000Y-96089450D01*
X149204000Y-96089450D01*
X149203976Y-96089450D01*
X149157069Y-96091767D01*
X149157065Y-96091767D01*
X149154204Y-96091909D01*
X149153214Y-96092007D01*
X149152339Y-96092137D01*
X149151121Y-96092188D01*
X149150291Y-96092257D01*
X149109066Y-96097397D01*
X149103066Y-96098397D01*
X149050252Y-96110134D01*
X149049206Y-96110426D01*
X149044939Y-96111870D01*
X149039252Y-96113134D01*
X149038206Y-96113426D01*
X149038102Y-96113460D01*
X149038097Y-96113462D01*
X148986388Y-96130965D01*
X148981383Y-96132966D01*
X148961586Y-96141378D01*
X148961208Y-96141548D01*
X148943099Y-96150149D01*
X148940618Y-96151293D01*
X148934971Y-96153822D01*
X148933054Y-96154681D01*
X148932324Y-96155044D01*
X148897333Y-96174201D01*
X148882329Y-96183203D01*
X148882317Y-96183211D01*
X148831501Y-96218084D01*
X148830470Y-96218888D01*
X148829690Y-96219536D01*
X148823824Y-96224113D01*
X148822530Y-96225061D01*
X148821516Y-96225851D01*
X148774983Y-96266990D01*
X148766990Y-96274983D01*
X148725851Y-96321516D01*
X148725061Y-96322530D01*
X148724113Y-96323824D01*
X148719530Y-96329697D01*
X148717808Y-96331772D01*
X148659848Y-96370790D01*
X148589994Y-96372278D01*
X148530425Y-96335764D01*
X148500053Y-96272841D01*
X148498769Y-96262311D01*
X148497598Y-96247432D01*
X148497597Y-96247426D01*
X148458449Y-96112682D01*
X148451744Y-96089602D01*
X148368081Y-95948135D01*
X148368079Y-95948133D01*
X148368076Y-95948129D01*
X148251870Y-95831923D01*
X148251861Y-95831916D01*
X148110400Y-95748256D01*
X148109349Y-95747802D01*
X148107458Y-95746517D01*
X148103684Y-95744285D01*
X148103824Y-95744047D01*
X148103389Y-95743751D01*
X148099175Y-95742835D01*
X148070930Y-95721692D01*
X148070923Y-95721687D01*
X148043716Y-95694480D01*
X148043713Y-95694478D01*
X147834574Y-95485339D01*
X147801089Y-95424016D01*
X147800638Y-95421849D01*
X147769738Y-95266510D01*
X147769737Y-95266503D01*
X147769735Y-95266498D01*
X147709397Y-95120827D01*
X147709390Y-95120814D01*
X147621789Y-94989711D01*
X147621786Y-94989707D01*
X147510292Y-94878213D01*
X147510288Y-94878210D01*
X147379185Y-94790609D01*
X147379172Y-94790602D01*
X147233501Y-94730264D01*
X147233489Y-94730261D01*
X147078845Y-94699500D01*
X147078842Y-94699500D01*
X146921158Y-94699500D01*
X146921155Y-94699500D01*
X146766510Y-94730261D01*
X146766498Y-94730264D01*
X146620827Y-94790602D01*
X146620814Y-94790609D01*
X146489711Y-94878210D01*
X146489707Y-94878213D01*
X146378213Y-94989707D01*
X146378210Y-94989711D01*
X146290609Y-95120814D01*
X146290602Y-95120827D01*
X146230264Y-95266498D01*
X146230261Y-95266510D01*
X146199500Y-95421153D01*
X133313438Y-95421153D01*
X133344789Y-95287855D01*
X133346208Y-95282391D01*
X133569042Y-94499212D01*
X133570733Y-94493752D01*
X133669565Y-94198877D01*
X133829499Y-93721697D01*
X133831415Y-93716388D01*
X134125575Y-92957074D01*
X134127765Y-92951791D01*
X134143202Y-92916829D01*
X134228546Y-92723543D01*
X144249499Y-92723543D01*
X144287947Y-92916829D01*
X144287950Y-92916839D01*
X144363364Y-93098907D01*
X144363371Y-93098920D01*
X144472860Y-93262781D01*
X144472863Y-93262785D01*
X144612214Y-93402136D01*
X144612218Y-93402139D01*
X144776079Y-93511628D01*
X144776092Y-93511635D01*
X144958160Y-93587049D01*
X144958165Y-93587051D01*
X144958169Y-93587051D01*
X144958170Y-93587052D01*
X145151456Y-93625500D01*
X145151459Y-93625500D01*
X145348543Y-93625500D01*
X145478582Y-93599632D01*
X145541835Y-93587051D01*
X145723914Y-93511632D01*
X145887782Y-93402139D01*
X146027139Y-93262782D01*
X146136632Y-93098914D01*
X146212051Y-92916835D01*
X146250500Y-92723543D01*
X154749499Y-92723543D01*
X154787947Y-92916829D01*
X154787950Y-92916839D01*
X154863364Y-93098907D01*
X154863371Y-93098920D01*
X154972860Y-93262781D01*
X154972863Y-93262785D01*
X155112214Y-93402136D01*
X155112218Y-93402139D01*
X155276079Y-93511628D01*
X155276092Y-93511635D01*
X155458160Y-93587049D01*
X155458165Y-93587051D01*
X155458169Y-93587051D01*
X155458170Y-93587052D01*
X155651456Y-93625500D01*
X155651459Y-93625500D01*
X155848543Y-93625500D01*
X155978582Y-93599632D01*
X156041835Y-93587051D01*
X156223914Y-93511632D01*
X156387782Y-93402139D01*
X156527139Y-93262782D01*
X156636632Y-93098914D01*
X156712051Y-92916835D01*
X156750500Y-92723541D01*
X156750500Y-92526459D01*
X156750500Y-92526456D01*
X156712052Y-92333170D01*
X156712051Y-92333169D01*
X156712051Y-92333165D01*
X156658692Y-92204343D01*
X156636635Y-92151092D01*
X156636628Y-92151079D01*
X156527139Y-91987218D01*
X156527136Y-91987214D01*
X156387785Y-91847863D01*
X156387781Y-91847860D01*
X156223920Y-91738371D01*
X156223907Y-91738364D01*
X156041839Y-91662950D01*
X156041829Y-91662947D01*
X155848543Y-91624500D01*
X155848541Y-91624500D01*
X155651459Y-91624500D01*
X155651457Y-91624500D01*
X155458170Y-91662947D01*
X155458160Y-91662950D01*
X155276092Y-91738364D01*
X155276079Y-91738371D01*
X155112218Y-91847860D01*
X155112214Y-91847863D01*
X154972863Y-91987214D01*
X154972860Y-91987218D01*
X154863371Y-92151079D01*
X154863364Y-92151092D01*
X154787950Y-92333160D01*
X154787947Y-92333170D01*
X154749500Y-92526456D01*
X154749500Y-92526459D01*
X154749500Y-92723541D01*
X154749500Y-92723543D01*
X154749499Y-92723543D01*
X146250500Y-92723543D01*
X146250500Y-92723541D01*
X146250500Y-92526459D01*
X146250500Y-92526456D01*
X146212052Y-92333170D01*
X146212051Y-92333169D01*
X146212051Y-92333165D01*
X146158692Y-92204343D01*
X146136635Y-92151092D01*
X146136628Y-92151079D01*
X146027139Y-91987218D01*
X146027136Y-91987214D01*
X145887785Y-91847863D01*
X145887781Y-91847860D01*
X145723920Y-91738371D01*
X145723907Y-91738364D01*
X145541839Y-91662950D01*
X145541829Y-91662947D01*
X145348543Y-91624500D01*
X145348541Y-91624500D01*
X145151459Y-91624500D01*
X145151457Y-91624500D01*
X144958170Y-91662947D01*
X144958160Y-91662950D01*
X144776092Y-91738364D01*
X144776079Y-91738371D01*
X144612218Y-91847860D01*
X144612214Y-91847863D01*
X144472863Y-91987214D01*
X144472860Y-91987218D01*
X144363371Y-92151079D01*
X144363364Y-92151092D01*
X144287950Y-92333160D01*
X144287947Y-92333170D01*
X144249500Y-92526456D01*
X144249500Y-92526459D01*
X144249500Y-92723541D01*
X144249500Y-92723543D01*
X144249499Y-92723543D01*
X134228546Y-92723543D01*
X134456653Y-92206929D01*
X134459047Y-92201829D01*
X134822008Y-91472904D01*
X134824675Y-91467847D01*
X135220891Y-90756503D01*
X135223757Y-90751625D01*
X135652439Y-90059281D01*
X135655513Y-90054564D01*
X136115710Y-89382756D01*
X136119013Y-89378167D01*
X136609736Y-88728344D01*
X136613252Y-88723906D01*
X137133448Y-88097458D01*
X137137172Y-88093179D01*
X137685751Y-87491416D01*
X137689665Y-87487317D01*
X138265447Y-86911535D01*
X138269546Y-86907621D01*
X138871309Y-86359042D01*
X138875588Y-86355318D01*
X139502036Y-85835122D01*
X139506474Y-85831606D01*
X140156297Y-85340883D01*
X140160886Y-85337580D01*
X140832694Y-84877383D01*
X140837411Y-84874309D01*
X141529755Y-84445627D01*
X141534633Y-84442761D01*
X142245986Y-84046540D01*
X142251034Y-84043878D01*
X142979959Y-83680917D01*
X142985059Y-83678523D01*
X143729929Y-83349631D01*
X143735204Y-83347445D01*
X144494518Y-83053285D01*
X144499827Y-83051369D01*
X145271893Y-82792599D01*
X145277342Y-82790912D01*
X146060521Y-82568078D01*
X146065985Y-82566659D01*
X146858620Y-82380233D01*
X146864206Y-82379054D01*
X147664604Y-82229434D01*
X147670235Y-82228515D01*
X148476677Y-82116021D01*
X148482328Y-82115366D01*
X149293090Y-82040238D01*
X149298795Y-82039842D01*
X150112169Y-82002237D01*
X150117896Y-82002105D01*
X150932104Y-82002105D01*
X150937831Y-82002237D01*
G37*
%TD.AperFunction*%
%TD*%
M02*
